<?xml version="1.0" encoding="UTF-8"?>
<svg xmlns="http://www.w3.org/2000/svg" width="800" height="600">
  <title>Y=5</title>
  <rect width="800" height="600" fill="#ffffff"/>
  <g stroke="#d0d0d0" stroke-width="1">
    <line x1="80.00" y1="540.00" x2="80.00" y2="540.00"/>
    <line x1="112.00" y1="540.00" x2="112.00" y2="540.00"/>
    <line x1="144.00" y1="540.00" x2="144.00" y2="540.00"/>
    <line x1="176.00" y1="540.00" x2="176.00" y2="540.00"/>
    <line x1="208.00" y1="540.00" x2="208.00" y2="540.00"/>
    <line x1="240.00" y1="540.00" x2="240.00" y2="540.00"/>
    <line x1="272.00" y1="540.00" x2="272.00" y2="540.00"/>
    <line x1="304.00" y1="540.00" x2="304.00" y2="540.00"/>
    <line x1="336.00" y1="540.00" x2="336.00" y2="540.00"/>
    <line x1="368.00" y1="540.00" x2="368.00" y2="540.00"/>
    <line x1="400.00" y1="540.00" x2="400.00" y2="540.00"/>
    <line x1="432.00" y1="540.00" x2="432.00" y2="540.00"/>
    <line x1="464.00" y1="540.00" x2="464.00" y2="540.00"/>
    <line x1="496.00" y1="540.00" x2="496.00" y2="540.00"/>
    <line x1="528.00" y1="540.00" x2="528.00" y2="540.00"/>
    <line x1="560.00" y1="540.00" x2="560.00" y2="540.00"/>
    <line x1="592.00" y1="540.00" x2="592.00" y2="540.00"/>
    <line x1="624.00" y1="540.00" x2="624.00" y2="540.00"/>
    <line x1="656.00" y1="540.00" x2="656.00" y2="540.00"/>
    <line x1="688.00" y1="540.00" x2="688.00" y2="540.00"/>
    <line x1="720.00" y1="540.00" x2="720.00" y2="540.00"/>
    <line x1="80.00" y1="540.00" x2="720.00" y2="540.00"/>
  </g>
  <g stroke="#e8e8e8" stroke-width="0.5">
    <line x1="86.40" y1="540.00" x2="86.40" y2="540.00"/>
    <line x1="92.80" y1="540.00" x2="92.80" y2="540.00"/>
    <line x1="99.20" y1="540.00" x2="99.20" y2="540.00"/>
    <line x1="105.60" y1="540.00" x2="105.60" y2="540.00"/>
    <line x1="118.40" y1="540.00" x2="118.40" y2="540.00"/>
    <line x1="124.80" y1="540.00" x2="124.80" y2="540.00"/>
    <line x1="131.20" y1="540.00" x2="131.20" y2="540.00"/>
    <line x1="137.60" y1="540.00" x2="137.60" y2="540.00"/>
    <line x1="150.40" y1="540.00" x2="150.40" y2="540.00"/>
    <line x1="156.80" y1="540.00" x2="156.80" y2="540.00"/>
    <line x1="163.20" y1="540.00" x2="163.20" y2="540.00"/>
    <line x1="169.60" y1="540.00" x2="169.60" y2="540.00"/>
    <line x1="182.40" y1="540.00" x2="182.40" y2="540.00"/>
    <line x1="188.80" y1="540.00" x2="188.80" y2="540.00"/>
    <line x1="195.20" y1="540.00" x2="195.20" y2="540.00"/>
    <line x1="201.60" y1="540.00" x2="201.60" y2="540.00"/>
    <line x1="214.40" y1="540.00" x2="214.40" y2="540.00"/>
    <line x1="220.80" y1="540.00" x2="220.80" y2="540.00"/>
    <line x1="227.20" y1="540.00" x2="227.20" y2="540.00"/>
    <line x1="233.60" y1="540.00" x2="233.60" y2="540.00"/>
    <line x1="246.40" y1="540.00" x2="246.40" y2="540.00"/>
    <line x1="252.80" y1="540.00" x2="252.80" y2="540.00"/>
    <line x1="259.20" y1="540.00" x2="259.20" y2="540.00"/>
    <line x1="265.60" y1="540.00" x2="265.60" y2="540.00"/>
    <line x1="278.40" y1="540.00" x2="278.40" y2="540.00"/>
    <line x1="284.80" y1="540.00" x2="284.80" y2="540.00"/>
    <line x1="291.20" y1="540.00" x2="291.20" y2="540.00"/>
    <line x1="297.60" y1="540.00" x2="297.60" y2="540.00"/>
    <line x1="310.40" y1="540.00" x2="310.40" y2="540.00"/>
    <line x1="316.80" y1="540.00" x2="316.80" y2="540.00"/>
    <line x1="323.20" y1="540.00" x2="323.20" y2="540.00"/>
    <line x1="329.60" y1="540.00" x2="329.60" y2="540.00"/>
    <line x1="342.40" y1="540.00" x2="342.40" y2="540.00"/>
    <line x1="348.80" y1="540.00" x2="348.80" y2="540.00"/>
    <line x1="355.20" y1="540.00" x2="355.20" y2="540.00"/>
    <line x1="361.60" y1="540.00" x2="361.60" y2="540.00"/>
    <line x1="374.40" y1="540.00" x2="374.40" y2="540.00"/>
    <line x1="380.80" y1="540.00" x2="380.80" y2="540.00"/>
    <line x1="387.20" y1="540.00" x2="387.20" y2="540.00"/>
    <line x1="393.60" y1="540.00" x2="393.60" y2="540.00"/>
    <line x1="406.40" y1="540.00" x2="406.40" y2="540.00"/>
    <line x1="412.80" y1="540.00" x2="412.80" y2="540.00"/>
    <line x1="419.20" y1="540.00" x2="419.20" y2="540.00"/>
    <line x1="425.60" y1="540.00" x2="425.60" y2="540.00"/>
    <line x1="438.40" y1="540.00" x2="438.40" y2="540.00"/>
    <line x1="444.80" y1="540.00" x2="444.80" y2="540.00"/>
    <line x1="451.20" y1="540.00" x2="451.20" y2="540.00"/>
    <line x1="457.60" y1="540.00" x2="457.60" y2="540.00"/>
    <line x1="470.40" y1="540.00" x2="470.40" y2="540.00"/>
    <line x1="476.80" y1="540.00" x2="476.80" y2="540.00"/>
    <line x1="483.20" y1="540.00" x2="483.20" y2="540.00"/>
    <line x1="489.60" y1="540.00" x2="489.60" y2="540.00"/>
    <line x1="502.40" y1="540.00" x2="502.40" y2="540.00"/>
    <line x1="508.80" y1="540.00" x2="508.80" y2="540.00"/>
    <line x1="515.20" y1="540.00" x2="515.20" y2="540.00"/>
    <line x1="521.60" y1="540.00" x2="521.60" y2="540.00"/>
    <line x1="534.40" y1="540.00" x2="534.40" y2="540.00"/>
    <line x1="540.80" y1="540.00" x2="540.80" y2="540.00"/>
    <line x1="547.20" y1="540.00" x2="547.20" y2="540.00"/>
    <line x1="553.60" y1="540.00" x2="553.60" y2="540.00"/>
    <line x1="566.40" y1="540.00" x2="566.40" y2="540.00"/>
    <line x1="572.80" y1="540.00" x2="572.80" y2="540.00"/>
    <line x1="579.20" y1="540.00" x2="579.20" y2="540.00"/>
    <line x1="585.60" y1="540.00" x2="585.60" y2="540.00"/>
    <line x1="598.40" y1="540.00" x2="598.40" y2="540.00"/>
    <line x1="604.80" y1="540.00" x2="604.80" y2="540.00"/>
    <line x1="611.20" y1="540.00" x2="611.20" y2="540.00"/>
    <line x1="617.60" y1="540.00" x2="617.60" y2="540.00"/>
    <line x1="630.40" y1="540.00" x2="630.40" y2="540.00"/>
    <line x1="636.80" y1="540.00" x2="636.80" y2="540.00"/>
    <line x1="643.20" y1="540.00" x2="643.20" y2="540.00"/>
    <line x1="649.60" y1="540.00" x2="649.60" y2="540.00"/>
    <line x1="662.40" y1="540.00" x2="662.40" y2="540.00"/>
    <line x1="668.80" y1="540.00" x2="668.80" y2="540.00"/>
    <line x1="675.20" y1="540.00" x2="675.20" y2="540.00"/>
    <line x1="681.60" y1="540.00" x2="681.60" y2="540.00"/>
    <line x1="694.40" y1="540.00" x2="694.40" y2="540.00"/>
    <line x1="700.80" y1="540.00" x2="700.80" y2="540.00"/>
    <line x1="707.20" y1="540.00" x2="707.20" y2="540.00"/>
    <line x1="713.60" y1="540.00" x2="713.60" y2="540.00"/>
  </g>
  <g stroke="#808080" stroke-width="2">
    <line x1="80.00" y1="2940.00" x2="720.00" y2="2940.00"/>
  </g>
  <polyline fill="none" stroke="#0066cc" stroke-width="2" points="80.00,540.00 81.28,540.00 82.57,540.00 83.85,540.00 85.13,540.00 86.41,540.00 87.70,540.00 88.98,540.00 90.26,540.00 91.54,540.00 92.83,540.00 94.11,540.00 95.39,540.00 96.67,540.00 97.96,540.00 99.24,540.00 100.52,540.00 101.80,540.00 103.09,540.00 104.37,540.00 105.65,540.00 106.93,540.00 108.22,540.00 109.50,540.00 110.78,540.00 112.06,540.00 113.35,540.00 114.63,540.00 115.91,540.00 117.19,540.00 118.48,540.00 119.76,540.00 121.04,540.00 122.32,540.00 123.61,540.00 124.89,540.00 126.17,540.00 127.45,540.00 128.74,540.00 130.02,540.00 131.30,540.00 132.59,540.00 133.87,540.00 135.15,540.00 136.43,540.00 137.72,540.00 139.00,540.00 140.28,540.00 141.56,540.00 142.85,540.00 144.13,540.00 145.41,540.00 146.69,540.00 147.98,540.00 149.26,540.00 150.54,540.00 151.82,540.00 153.11,540.00 154.39,540.00 155.67,540.00 156.95,540.00 158.24,540.00 159.52,540.00 160.80,540.00 162.08,540.00 163.37,540.00 164.65,540.00 165.93,540.00 167.21,540.00 168.50,540.00 169.78,540.00 171.06,540.00 172.34,540.00 173.63,540.00 174.91,540.00 176.19,540.00 177.47,540.00 178.76,540.00 180.04,540.00 181.32,540.00 182.61,540.00 183.89,540.00 185.17,540.00 186.45,540.00 187.74,540.00 189.02,540.00 190.30,540.00 191.58,540.00 192.87,540.00 194.15,540.00 195.43,540.00 196.71,540.00 198.00,540.00 199.28,540.00 200.56,540.00 201.84,540.00 203.13,540.00 204.41,540.00 205.69,540.00 206.97,540.00 208.26,540.00 209.54,540.00 210.82,540.00 212.10,540.00 213.39,540.00 214.67,540.00 215.95,540.00 217.23,540.00 218.52,540.00 219.80,540.00 221.08,540.00 222.36,540.00 223.65,540.00 224.93,540.00 226.21,540.00 227.49,540.00 228.78,540.00 230.06,540.00 231.34,540.00 232.63,540.00 233.91,540.00 235.19,540.00 236.47,540.00 237.76,540.00 239.04,540.00 240.32,540.00 241.60,540.00 242.89,540.00 244.17,540.00 245.45,540.00 246.73,540.00 248.02,540.00 249.30,540.00 250.58,540.00 251.86,540.00 253.15,540.00 254.43,540.00 255.71,540.00 256.99,540.00 258.28,540.00 259.56,540.00 260.84,540.00 262.12,540.00 263.41,540.00 264.69,540.00 265.97,540.00 267.25,540.00 268.54,540.00 269.82,540.00 271.10,540.00 272.38,540.00 273.67,540.00 274.95,540.00 276.23,540.00 277.52,540.00 278.80,540.00 280.08,540.00 281.36,540.00 282.65,540.00 283.93,540.00 285.21,540.00 286.49,540.00 287.78,540.00 289.06,540.00 290.34,540.00 291.62,540.00 292.91,540.00 294.19,540.00 295.47,540.00 296.75,540.00 298.04,540.00 299.32,540.00 300.60,540.00 301.88,540.00 303.17,540.00 304.45,540.00 305.73,540.00 307.01,540.00 308.30,540.00 309.58,540.00 310.86,540.00 312.14,540.00 313.43,540.00 314.71,540.00 315.99,540.00 317.27,540.00 318.56,540.00 319.84,540.00 321.12,540.00 322.40,540.00 323.69,540.00 324.97,540.00 326.25,540.00 327.54,540.00 328.82,540.00 330.10,540.00 331.38,540.00 332.67,540.00 333.95,540.00 335.23,540.00 336.51,540.00 337.80,540.00 339.08,540.00 340.36,540.00 341.64,540.00 342.93,540.00 344.21,540.00 345.49,540.00 346.77,540.00 348.06,540.00 349.34,540.00 350.62,540.00 351.90,540.00 353.19,540.00 354.47,540.00 355.75,540.00 357.03,540.00 358.32,540.00 359.60,540.00 360.88,540.00 362.16,540.00 363.45,540.00 364.73,540.00 366.01,540.00 367.29,540.00 368.58,540.00 369.86,540.00 371.14,540.00 372.42,540.00 373.71,540.00 374.99,540.00 376.27,540.00 377.56,540.00 378.84,540.00 380.12,540.00 381.40,540.00 382.69,540.00 383.97,540.00 385.25,540.00 386.53,540.00 387.82,540.00 389.10,540.00 390.38,540.00 391.66,540.00 392.95,540.00 394.23,540.00 395.51,540.00 396.79,540.00 398.08,540.00 399.36,540.00 400.64,540.00 401.92,540.00 403.21,540.00 404.49,540.00 405.77,540.00 407.05,540.00 408.34,540.00 409.62,540.00 410.90,540.00 412.18,540.00 413.47,540.00 414.75,540.00 416.03,540.00 417.31,540.00 418.60,540.00 419.88,540.00 421.16,540.00 422.44,540.00 423.73,540.00 425.01,540.00 426.29,540.00 427.58,540.00 428.86,540.00 430.14,540.00 431.42,540.00 432.71,540.00 433.99,540.00 435.27,540.00 436.55,540.00 437.84,540.00 439.12,540.00 440.40,540.00 441.68,540.00 442.97,540.00 444.25,540.00 445.53,540.00 446.81,540.00 448.10,540.00 449.38,540.00 450.66,540.00 451.94,540.00 453.23,540.00 454.51,540.00 455.79,540.00 457.07,540.00 458.36,540.00 459.64,540.00 460.92,540.00 462.20,540.00 463.49,540.00 464.77,540.00 466.05,540.00 467.33,540.00 468.62,540.00 469.90,540.00 471.18,540.00 472.46,540.00 473.75,540.00 475.03,540.00 476.31,540.00 477.60,540.00 478.88,540.00 480.16,540.00 481.44,540.00 482.73,540.00 484.01,540.00 485.29,540.00 486.57,540.00 487.86,540.00 489.14,540.00 490.42,540.00 491.70,540.00 492.99,540.00 494.27,540.00 495.55,540.00 496.83,540.00 498.12,540.00 499.40,540.00 500.68,540.00 501.96,540.00 503.25,540.00 504.53,540.00 505.81,540.00 507.09,540.00 508.38,540.00 509.66,540.00 510.94,540.00 512.22,540.00 513.51,540.00 514.79,540.00 516.07,540.00 517.35,540.00 518.64,540.00 519.92,540.00 521.20,540.00 522.48,540.00 523.77,540.00 525.05,540.00 526.33,540.00 527.62,540.00 528.90,540.00 530.18,540.00 531.46,540.00 532.75,540.00 534.03,540.00 535.31,540.00 536.59,540.00 537.88,540.00 539.16,540.00 540.44,540.00 541.72,540.00 543.01,540.00 544.29,540.00 545.57,540.00 546.85,540.00 548.14,540.00 549.42,540.00 550.70,540.00 551.98,540.00 553.27,540.00 554.55,540.00 555.83,540.00 557.11,540.00 558.40,540.00 559.68,540.00 560.96,540.00 562.24,540.00 563.53,540.00 564.81,540.00 566.09,540.00 567.37,540.00 568.66,540.00 569.94,540.00 571.22,540.00 572.51,540.00 573.79,540.00 575.07,540.00 576.35,540.00 577.64,540.00 578.92,540.00 580.20,540.00 581.48,540.00 582.77,540.00 584.05,540.00 585.33,540.00 586.61,540.00 587.90,540.00 589.18,540.00 590.46,540.00 591.74,540.00 593.03,540.00 594.31,540.00 595.59,540.00 596.87,540.00 598.16,540.00 599.44,540.00 600.72,540.00 602.00,540.00 603.29,540.00 604.57,540.00 605.85,540.00 607.13,540.00 608.42,540.00 609.70,540.00 610.98,540.00 612.26,540.00 613.55,540.00 614.83,540.00 616.11,540.00 617.39,540.00 618.68,540.00 619.96,540.00 621.24,540.00 622.53,540.00 623.81,540.00 625.09,540.00 626.37,540.00 627.66,540.00 628.94,540.00 630.22,540.00 631.50,540.00 632.79,540.00 634.07,540.00 635.35,540.00 636.63,540.00 637.92,540.00 639.20,540.00 640.48,540.00 641.76,540.00 643.05,540.00 644.33,540.00 645.61,540.00 646.89,540.00 648.18,540.00 649.46,540.00 650.74,540.00 652.02,540.00 653.31,540.00 654.59,540.00 655.87,540.00 657.15,540.00 658.44,540.00 659.72,540.00 661.00,540.00 662.28,540.00 663.57,540.00 664.85,540.00 666.13,540.00 667.41,540.00 668.70,540.00 669.98,540.00 671.26,540.00 672.55,540.00 673.83,540.00 675.11,540.00 676.39,540.00 677.68,540.00 678.96,540.00 680.24,540.00 681.52,540.00 682.81,540.00 684.09,540.00 685.37,540.00 686.65,540.00 687.94,540.00 689.22,540.00 690.50,540.00 691.78,540.00 693.07,540.00 694.35,540.00 695.63,540.00 696.91,540.00 698.20,540.00 699.48,540.00 700.76,540.00 702.04,540.00 703.33,540.00 704.61,540.00 705.89,540.00 707.17,540.00 708.46,540.00 709.74,540.00 711.02,540.00 712.30,540.00 713.59,540.00 714.87,540.00 716.15,540.00 717.43,540.00 718.72,540.00 720.00,540.00 "/>
</svg>
