<?xml version="1.0" encoding="UTF-8"?>
<svg xmlns="http://www.w3.org/2000/svg" width="800" height="600">
  <title>Y=abs(x)</title>
  <rect width="800" height="600" fill="#ffffff"/>
  <g stroke="#d0d0d0" stroke-width="1">
    <line x1="80.00" y1="540.00" x2="80.00" y2="60.00"/>
    <line x1="112.00" y1="540.00" x2="112.00" y2="60.00"/>
    <line x1="144.00" y1="540.00" x2="144.00" y2="60.00"/>
    <line x1="176.00" y1="540.00" x2="176.00" y2="60.00"/>
    <line x1="208.00" y1="540.00" x2="208.00" y2="60.00"/>
    <line x1="240.00" y1="540.00" x2="240.00" y2="60.00"/>
    <line x1="272.00" y1="540.00" x2="272.00" y2="60.00"/>
    <line x1="304.00" y1="540.00" x2="304.00" y2="60.00"/>
    <line x1="336.00" y1="540.00" x2="336.00" y2="60.00"/>
    <line x1="368.00" y1="540.00" x2="368.00" y2="60.00"/>
    <line x1="400.00" y1="540.00" x2="400.00" y2="60.00"/>
    <line x1="432.00" y1="540.00" x2="432.00" y2="60.00"/>
    <line x1="464.00" y1="540.00" x2="464.00" y2="60.00"/>
    <line x1="496.00" y1="540.00" x2="496.00" y2="60.00"/>
    <line x1="528.00" y1="540.00" x2="528.00" y2="60.00"/>
    <line x1="560.00" y1="540.00" x2="560.00" y2="60.00"/>
    <line x1="592.00" y1="540.00" x2="592.00" y2="60.00"/>
    <line x1="624.00" y1="540.00" x2="624.00" y2="60.00"/>
    <line x1="656.00" y1="540.00" x2="656.00" y2="60.00"/>
    <line x1="688.00" y1="540.00" x2="688.00" y2="60.00"/>
    <line x1="720.00" y1="540.00" x2="720.00" y2="60.00"/>
    <line x1="80.00" y1="540.96" x2="720.00" y2="540.96"/>
    <line x1="80.00" y1="492.87" x2="720.00" y2="492.87"/>
    <line x1="80.00" y1="444.77" x2="720.00" y2="444.77"/>
    <line x1="80.00" y1="396.67" x2="720.00" y2="396.67"/>
    <line x1="80.00" y1="348.58" x2="720.00" y2="348.58"/>
    <line x1="80.00" y1="300.48" x2="720.00" y2="300.48"/>
    <line x1="80.00" y1="252.39" x2="720.00" y2="252.39"/>
    <line x1="80.00" y1="204.29" x2="720.00" y2="204.29"/>
    <line x1="80.00" y1="156.19" x2="720.00" y2="156.19"/>
    <line x1="80.00" y1="108.10" x2="720.00" y2="108.10"/>
    <line x1="80.00" y1="60.00" x2="720.00" y2="60.00"/>
  </g>
  <g stroke="#e8e8e8" stroke-width="0.5">
    <line x1="86.40" y1="540.00" x2="86.40" y2="60.00"/>
    <line x1="92.80" y1="540.00" x2="92.80" y2="60.00"/>
    <line x1="99.20" y1="540.00" x2="99.20" y2="60.00"/>
    <line x1="105.60" y1="540.00" x2="105.60" y2="60.00"/>
    <line x1="118.40" y1="540.00" x2="118.40" y2="60.00"/>
    <line x1="124.80" y1="540.00" x2="124.80" y2="60.00"/>
    <line x1="131.20" y1="540.00" x2="131.20" y2="60.00"/>
    <line x1="137.60" y1="540.00" x2="137.60" y2="60.00"/>
    <line x1="150.40" y1="540.00" x2="150.40" y2="60.00"/>
    <line x1="156.80" y1="540.00" x2="156.80" y2="60.00"/>
    <line x1="163.20" y1="540.00" x2="163.20" y2="60.00"/>
    <line x1="169.60" y1="540.00" x2="169.60" y2="60.00"/>
    <line x1="182.40" y1="540.00" x2="182.40" y2="60.00"/>
    <line x1="188.80" y1="540.00" x2="188.80" y2="60.00"/>
    <line x1="195.20" y1="540.00" x2="195.20" y2="60.00"/>
    <line x1="201.60" y1="540.00" x2="201.60" y2="60.00"/>
    <line x1="214.40" y1="540.00" x2="214.40" y2="60.00"/>
    <line x1="220.80" y1="540.00" x2="220.80" y2="60.00"/>
    <line x1="227.20" y1="540.00" x2="227.20" y2="60.00"/>
    <line x1="233.60" y1="540.00" x2="233.60" y2="60.00"/>
    <line x1="246.40" y1="540.00" x2="246.40" y2="60.00"/>
    <line x1="252.80" y1="540.00" x2="252.80" y2="60.00"/>
    <line x1="259.20" y1="540.00" x2="259.20" y2="60.00"/>
    <line x1="265.60" y1="540.00" x2="265.60" y2="60.00"/>
    <line x1="278.40" y1="540.00" x2="278.40" y2="60.00"/>
    <line x1="284.80" y1="540.00" x2="284.80" y2="60.00"/>
    <line x1="291.20" y1="540.00" x2="291.20" y2="60.00"/>
    <line x1="297.60" y1="540.00" x2="297.60" y2="60.00"/>
    <line x1="310.40" y1="540.00" x2="310.40" y2="60.00"/>
    <line x1="316.80" y1="540.00" x2="316.80" y2="60.00"/>
    <line x1="323.20" y1="540.00" x2="323.20" y2="60.00"/>
    <line x1="329.60" y1="540.00" x2="329.60" y2="60.00"/>
    <line x1="342.40" y1="540.00" x2="342.40" y2="60.00"/>
    <line x1="348.80" y1="540.00" x2="348.80" y2="60.00"/>
    <line x1="355.20" y1="540.00" x2="355.20" y2="60.00"/>
    <line x1="361.60" y1="540.00" x2="361.60" y2="60.00"/>
    <line x1="374.40" y1="540.00" x2="374.40" y2="60.00"/>
    <line x1="380.80" y1="540.00" x2="380.80" y2="60.00"/>
    <line x1="387.20" y1="540.00" x2="387.20" y2="60.00"/>
    <line x1="393.60" y1="540.00" x2="393.60" y2="60.00"/>
    <line x1="406.40" y1="540.00" x2="406.40" y2="60.00"/>
    <line x1="412.80" y1="540.00" x2="412.80" y2="60.00"/>
    <line x1="419.20" y1="540.00" x2="419.20" y2="60.00"/>
    <line x1="425.60" y1="540.00" x2="425.60" y2="60.00"/>
    <line x1="438.40" y1="540.00" x2="438.40" y2="60.00"/>
    <line x1="444.80" y1="540.00" x2="444.80" y2="60.00"/>
    <line x1="451.20" y1="540.00" x2="451.20" y2="60.00"/>
    <line x1="457.60" y1="540.00" x2="457.60" y2="60.00"/>
    <line x1="470.40" y1="540.00" x2="470.40" y2="60.00"/>
    <line x1="476.80" y1="540.00" x2="476.80" y2="60.00"/>
    <line x1="483.20" y1="540.00" x2="483.20" y2="60.00"/>
    <line x1="489.60" y1="540.00" x2="489.60" y2="60.00"/>
    <line x1="502.40" y1="540.00" x2="502.40" y2="60.00"/>
    <line x1="508.80" y1="540.00" x2="508.80" y2="60.00"/>
    <line x1="515.20" y1="540.00" x2="515.20" y2="60.00"/>
    <line x1="521.60" y1="540.00" x2="521.60" y2="60.00"/>
    <line x1="534.40" y1="540.00" x2="534.40" y2="60.00"/>
    <line x1="540.80" y1="540.00" x2="540.80" y2="60.00"/>
    <line x1="547.20" y1="540.00" x2="547.20" y2="60.00"/>
    <line x1="553.60" y1="540.00" x2="553.60" y2="60.00"/>
    <line x1="566.40" y1="540.00" x2="566.40" y2="60.00"/>
    <line x1="572.80" y1="540.00" x2="572.80" y2="60.00"/>
    <line x1="579.20" y1="540.00" x2="579.20" y2="60.00"/>
    <line x1="585.60" y1="540.00" x2="585.60" y2="60.00"/>
    <line x1="598.40" y1="540.00" x2="598.40" y2="60.00"/>
    <line x1="604.80" y1="540.00" x2="604.80" y2="60.00"/>
    <line x1="611.20" y1="540.00" x2="611.20" y2="60.00"/>
    <line x1="617.60" y1="540.00" x2="617.60" y2="60.00"/>
    <line x1="630.40" y1="540.00" x2="630.40" y2="60.00"/>
    <line x1="636.80" y1="540.00" x2="636.80" y2="60.00"/>
    <line x1="643.20" y1="540.00" x2="643.20" y2="60.00"/>
    <line x1="649.60" y1="540.00" x2="649.60" y2="60.00"/>
    <line x1="662.40" y1="540.00" x2="662.40" y2="60.00"/>
    <line x1="668.80" y1="540.00" x2="668.80" y2="60.00"/>
    <line x1="675.20" y1="540.00" x2="675.20" y2="60.00"/>
    <line x1="681.60" y1="540.00" x2="681.60" y2="60.00"/>
    <line x1="694.40" y1="540.00" x2="694.40" y2="60.00"/>
    <line x1="700.80" y1="540.00" x2="700.80" y2="60.00"/>
    <line x1="707.20" y1="540.00" x2="707.20" y2="60.00"/>
    <line x1="713.60" y1="540.00" x2="713.60" y2="60.00"/>
    <line x1="80.00" y1="531.34" x2="720.00" y2="531.34"/>
    <line x1="80.00" y1="521.73" x2="720.00" y2="521.73"/>
    <line x1="80.00" y1="512.11" x2="720.00" y2="512.11"/>
    <line x1="80.00" y1="502.49" x2="720.00" y2="502.49"/>
    <line x1="80.00" y1="483.25" x2="720.00" y2="483.25"/>
    <line x1="80.00" y1="473.63" x2="720.00" y2="473.63"/>
    <line x1="80.00" y1="464.01" x2="720.00" y2="464.01"/>
    <line x1="80.00" y1="454.39" x2="720.00" y2="454.39"/>
    <line x1="80.00" y1="435.15" x2="720.00" y2="435.15"/>
    <line x1="80.00" y1="425.53" x2="720.00" y2="425.53"/>
    <line x1="80.00" y1="415.91" x2="720.00" y2="415.91"/>
    <line x1="80.00" y1="406.29" x2="720.00" y2="406.29"/>
    <line x1="80.00" y1="387.06" x2="720.00" y2="387.06"/>
    <line x1="80.00" y1="377.44" x2="720.00" y2="377.44"/>
    <line x1="80.00" y1="367.82" x2="720.00" y2="367.82"/>
    <line x1="80.00" y1="358.20" x2="720.00" y2="358.20"/>
    <line x1="80.00" y1="338.96" x2="720.00" y2="338.96"/>
    <line x1="80.00" y1="329.34" x2="720.00" y2="329.34"/>
    <line x1="80.00" y1="319.72" x2="720.00" y2="319.72"/>
    <line x1="80.00" y1="310.10" x2="720.00" y2="310.10"/>
    <line x1="80.00" y1="290.86" x2="720.00" y2="290.86"/>
    <line x1="80.00" y1="281.24" x2="720.00" y2="281.24"/>
    <line x1="80.00" y1="271.62" x2="720.00" y2="271.62"/>
    <line x1="80.00" y1="262.00" x2="720.00" y2="262.00"/>
    <line x1="80.00" y1="242.77" x2="720.00" y2="242.77"/>
    <line x1="80.00" y1="233.15" x2="720.00" y2="233.15"/>
    <line x1="80.00" y1="223.53" x2="720.00" y2="223.53"/>
    <line x1="80.00" y1="213.91" x2="720.00" y2="213.91"/>
    <line x1="80.00" y1="194.67" x2="720.00" y2="194.67"/>
    <line x1="80.00" y1="185.05" x2="720.00" y2="185.05"/>
    <line x1="80.00" y1="175.43" x2="720.00" y2="175.43"/>
    <line x1="80.00" y1="165.81" x2="720.00" y2="165.81"/>
    <line x1="80.00" y1="146.57" x2="720.00" y2="146.57"/>
    <line x1="80.00" y1="136.95" x2="720.00" y2="136.95"/>
    <line x1="80.00" y1="127.33" x2="720.00" y2="127.33"/>
    <line x1="80.00" y1="117.72" x2="720.00" y2="117.72"/>
    <line x1="80.00" y1="98.48" x2="720.00" y2="98.48"/>
    <line x1="80.00" y1="88.86" x2="720.00" y2="88.86"/>
    <line x1="80.00" y1="79.24" x2="720.00" y2="79.24"/>
    <line x1="80.00" y1="69.62" x2="720.00" y2="69.62"/>
  </g>
  <g stroke="#808080" stroke-width="2">
    <line x1="80.00" y1="540.96" x2="720.00" y2="540.96"/>
  </g>
  <polyline fill="none" stroke="#0066cc" stroke-width="2" points="80.00,60.00 81.28,61.93 82.57,63.86 83.85,65.78 85.13,67.71 86.41,69.64 87.70,71.57 88.98,73.49 90.26,75.42 91.54,77.35 92.83,79.28 94.11,81.20 95.39,83.13 96.67,85.06 97.96,86.99 99.24,88.92 100.52,90.84 101.80,92.77 103.09,94.70 104.37,96.63 105.65,98.55 106.93,100.48 108.22,102.41 109.50,104.34 110.78,106.27 112.06,108.19 113.35,110.12 114.63,112.05 115.91,113.98 117.19,115.90 118.48,117.83 119.76,119.76 121.04,121.69 122.32,123.61 123.61,125.54 124.89,127.47 126.17,129.40 127.45,131.33 128.74,133.25 130.02,135.18 131.30,137.11 132.59,139.04 133.87,140.96 135.15,142.89 136.43,144.82 137.72,146.75 139.00,148.67 140.28,150.60 141.56,152.53 142.85,154.46 144.13,156.39 145.41,158.31 146.69,160.24 147.98,162.17 149.26,164.10 150.54,166.02 151.82,167.95 153.11,169.88 154.39,171.81 155.67,173.73 156.95,175.66 158.24,177.59 159.52,179.52 160.80,181.45 162.08,183.37 163.37,185.30 164.65,187.23 165.93,189.16 167.21,191.08 168.50,193.01 169.78,194.94 171.06,196.87 172.34,198.80 173.63,200.72 174.91,202.65 176.19,204.58 177.47,206.51 178.76,208.43 180.04,210.36 181.32,212.29 182.61,214.22 183.89,216.14 185.17,218.07 186.45,220.00 187.74,221.93 189.02,223.86 190.30,225.78 191.58,227.71 192.87,229.64 194.15,231.57 195.43,233.49 196.71,235.42 198.00,237.35 199.28,239.28 200.56,241.20 201.84,243.13 203.13,245.06 204.41,246.99 205.69,248.92 206.97,250.84 208.26,252.77 209.54,254.70 210.82,256.63 212.10,258.55 213.39,260.48 214.67,262.41 215.95,264.34 217.23,266.27 218.52,268.19 219.80,270.12 221.08,272.05 222.36,273.98 223.65,275.90 224.93,277.83 226.21,279.76 227.49,281.69 228.78,283.61 230.06,285.54 231.34,287.47 232.63,289.40 233.91,291.33 235.19,293.25 236.47,295.18 237.76,297.11 239.04,299.04 240.32,300.96 241.60,302.89 242.89,304.82 244.17,306.75 245.45,308.67 246.73,310.60 248.02,312.53 249.30,314.46 250.58,316.39 251.86,318.31 253.15,320.24 254.43,322.17 255.71,324.10 256.99,326.02 258.28,327.95 259.56,329.88 260.84,331.81 262.12,333.73 263.41,335.66 264.69,337.59 265.97,339.52 267.25,341.45 268.54,343.37 269.82,345.30 271.10,347.23 272.38,349.16 273.67,351.08 274.95,353.01 276.23,354.94 277.52,356.87 278.80,358.80 280.08,360.72 281.36,362.65 282.65,364.58 283.93,366.51 285.21,368.43 286.49,370.36 287.78,372.29 289.06,374.22 290.34,376.14 291.62,378.07 292.91,380.00 294.19,381.93 295.47,383.86 296.75,385.78 298.04,387.71 299.32,389.64 300.60,391.57 301.88,393.49 303.17,395.42 304.45,397.35 305.73,399.28 307.01,401.20 308.30,403.13 309.58,405.06 310.86,406.99 312.14,408.92 313.43,410.84 314.71,412.77 315.99,414.70 317.27,416.63 318.56,418.55 319.84,420.48 321.12,422.41 322.40,424.34 323.69,426.27 324.97,428.19 326.25,430.12 327.54,432.05 328.82,433.98 330.10,435.90 331.38,437.83 332.67,439.76 333.95,441.69 335.23,443.61 336.51,445.54 337.80,447.47 339.08,449.40 340.36,451.33 341.64,453.25 342.93,455.18 344.21,457.11 345.49,459.04 346.77,460.96 348.06,462.89 349.34,464.82 350.62,466.75 351.90,468.67 353.19,470.60 354.47,472.53 355.75,474.46 357.03,476.39 358.32,478.31 359.60,480.24 360.88,482.17 362.16,484.10 363.45,486.02 364.73,487.95 366.01,489.88 367.29,491.81 368.58,493.73 369.86,495.66 371.14,497.59 372.42,499.52 373.71,501.45 374.99,503.37 376.27,505.30 377.56,507.23 378.84,509.16 380.12,511.08 381.40,513.01 382.69,514.94 383.97,516.87 385.25,518.80 386.53,520.72 387.82,522.65 389.10,524.58 390.38,526.51 391.66,528.43 392.95,530.36 394.23,532.29 395.51,534.22 396.79,536.14 398.08,538.07 399.36,540.00 400.64,540.00 401.92,538.07 403.21,536.14 404.49,534.22 405.77,532.29 407.05,530.36 408.34,528.43 409.62,526.51 410.90,524.58 412.18,522.65 413.47,520.72 414.75,518.80 416.03,516.87 417.31,514.94 418.60,513.01 419.88,511.08 421.16,509.16 422.44,507.23 423.73,505.30 425.01,503.37 426.29,501.45 427.58,499.52 428.86,497.59 430.14,495.66 431.42,493.73 432.71,491.81 433.99,489.88 435.27,487.95 436.55,486.02 437.84,484.10 439.12,482.17 440.40,480.24 441.68,478.31 442.97,476.39 444.25,474.46 445.53,472.53 446.81,470.60 448.10,468.67 449.38,466.75 450.66,464.82 451.94,462.89 453.23,460.96 454.51,459.04 455.79,457.11 457.07,455.18 458.36,453.25 459.64,451.33 460.92,449.40 462.20,447.47 463.49,445.54 464.77,443.61 466.05,441.69 467.33,439.76 468.62,437.83 469.90,435.90 471.18,433.98 472.46,432.05 473.75,430.12 475.03,428.19 476.31,426.27 477.60,424.34 478.88,422.41 480.16,420.48 481.44,418.55 482.73,416.63 484.01,414.70 485.29,412.77 486.57,410.84 487.86,408.92 489.14,406.99 490.42,405.06 491.70,403.13 492.99,401.20 494.27,399.28 495.55,397.35 496.83,395.42 498.12,393.49 499.40,391.57 500.68,389.64 501.96,387.71 503.25,385.78 504.53,383.86 505.81,381.93 507.09,380.00 508.38,378.07 509.66,376.14 510.94,374.22 512.22,372.29 513.51,370.36 514.79,368.43 516.07,366.51 517.35,364.58 518.64,362.65 519.92,360.72 521.20,358.80 522.48,356.87 523.77,354.94 525.05,353.01 526.33,351.08 527.62,349.16 528.90,347.23 530.18,345.30 531.46,343.37 532.75,341.45 534.03,339.52 535.31,337.59 536.59,335.66 537.88,333.73 539.16,331.81 540.44,329.88 541.72,327.95 543.01,326.02 544.29,324.10 545.57,322.17 546.85,320.24 548.14,318.31 549.42,316.39 550.70,314.46 551.98,312.53 553.27,310.60 554.55,308.67 555.83,306.75 557.11,304.82 558.40,302.89 559.68,300.96 560.96,299.04 562.24,297.11 563.53,295.18 564.81,293.25 566.09,291.33 567.37,289.40 568.66,287.47 569.94,285.54 571.22,283.61 572.51,281.69 573.79,279.76 575.07,277.83 576.35,275.90 577.64,273.98 578.92,272.05 580.20,270.12 581.48,268.19 582.77,266.27 584.05,264.34 585.33,262.41 586.61,260.48 587.90,258.55 589.18,256.63 590.46,254.70 591.74,252.77 593.03,250.84 594.31,248.92 595.59,246.99 596.87,245.06 598.16,243.13 599.44,241.20 600.72,239.28 602.00,237.35 603.29,235.42 604.57,233.49 605.85,231.57 607.13,229.64 608.42,227.71 609.70,225.78 610.98,223.86 612.26,221.93 613.55,220.00 614.83,218.07 616.11,216.14 617.39,214.22 618.68,212.29 619.96,210.36 621.24,208.43 622.53,206.51 623.81,204.58 625.09,202.65 626.37,200.72 627.66,198.80 628.94,196.87 630.22,194.94 631.50,193.01 632.79,191.08 634.07,189.16 635.35,187.23 636.63,185.30 637.92,183.37 639.20,181.45 640.48,179.52 641.76,177.59 643.05,175.66 644.33,173.73 645.61,171.81 646.89,169.88 648.18,167.95 649.46,166.02 650.74,164.10 652.02,162.17 653.31,160.24 654.59,158.31 655.87,156.39 657.15,154.46 658.44,152.53 659.72,150.60 661.00,148.67 662.28,146.75 663.57,144.82 664.85,142.89 666.13,140.96 667.41,139.04 668.70,137.11 669.98,135.18 671.26,133.25 672.55,131.33 673.83,129.40 675.11,127.47 676.39,125.54 677.68,123.61 678.96,121.69 680.24,119.76 681.52,117.83 682.81,115.90 684.09,113.98 685.37,112.05 686.65,110.12 687.94,108.19 689.22,106.27 690.50,104.34 691.78,102.41 693.07,100.48 694.35,98.55 695.63,96.63 696.91,94.70 698.20,92.77 699.48,90.84 700.76,88.92 702.04,86.99 703.33,85.06 704.61,83.13 705.89,81.20 707.17,79.28 708.46,77.35 709.74,75.42 711.02,73.49 712.30,71.57 713.59,69.64 714.87,67.71 716.15,65.78 717.43,63.86 718.72,61.93 720.00,60.00 "/>
</svg>
