<?xml version="1.0" encoding="UTF-8"?>
<svg xmlns="http://www.w3.org/2000/svg" width="800" height="600">
  <title>Y=x/3+2</title>
  <rect width="800" height="600" fill="#ffffff"/>
  <g stroke="#d0d0d0" stroke-width="1">
    <line x1="80.00" y1="540.00" x2="80.00" y2="60.00"/>
    <line x1="112.00" y1="540.00" x2="112.00" y2="60.00"/>
    <line x1="144.00" y1="540.00" x2="144.00" y2="60.00"/>
    <line x1="176.00" y1="540.00" x2="176.00" y2="60.00"/>
    <line x1="208.00" y1="540.00" x2="208.00" y2="60.00"/>
    <line x1="240.00" y1="540.00" x2="240.00" y2="60.00"/>
    <line x1="272.00" y1="540.00" x2="272.00" y2="60.00"/>
    <line x1="304.00" y1="540.00" x2="304.00" y2="60.00"/>
    <line x1="336.00" y1="540.00" x2="336.00" y2="60.00"/>
    <line x1="368.00" y1="540.00" x2="368.00" y2="60.00"/>
    <line x1="400.00" y1="540.00" x2="400.00" y2="60.00"/>
    <line x1="432.00" y1="540.00" x2="432.00" y2="60.00"/>
    <line x1="464.00" y1="540.00" x2="464.00" y2="60.00"/>
    <line x1="496.00" y1="540.00" x2="496.00" y2="60.00"/>
    <line x1="528.00" y1="540.00" x2="528.00" y2="60.00"/>
    <line x1="560.00" y1="540.00" x2="560.00" y2="60.00"/>
    <line x1="592.00" y1="540.00" x2="592.00" y2="60.00"/>
    <line x1="624.00" y1="540.00" x2="624.00" y2="60.00"/>
    <line x1="656.00" y1="540.00" x2="656.00" y2="60.00"/>
    <line x1="688.00" y1="540.00" x2="688.00" y2="60.00"/>
    <line x1="720.00" y1="540.00" x2="720.00" y2="60.00"/>
    <line x1="80.00" y1="588.00" x2="720.00" y2="588.00"/>
    <line x1="80.00" y1="516.00" x2="720.00" y2="516.00"/>
    <line x1="80.00" y1="444.00" x2="720.00" y2="444.00"/>
    <line x1="80.00" y1="372.00" x2="720.00" y2="372.00"/>
    <line x1="80.00" y1="300.00" x2="720.00" y2="300.00"/>
    <line x1="80.00" y1="228.00" x2="720.00" y2="228.00"/>
    <line x1="80.00" y1="156.00" x2="720.00" y2="156.00"/>
    <line x1="80.00" y1="84.00" x2="720.00" y2="84.00"/>
    <line x1="80.00" y1="12.00" x2="720.00" y2="12.00"/>
  </g>
  <g stroke="#e8e8e8" stroke-width="0.5">
    <line x1="86.40" y1="540.00" x2="86.40" y2="60.00"/>
    <line x1="92.80" y1="540.00" x2="92.80" y2="60.00"/>
    <line x1="99.20" y1="540.00" x2="99.20" y2="60.00"/>
    <line x1="105.60" y1="540.00" x2="105.60" y2="60.00"/>
    <line x1="118.40" y1="540.00" x2="118.40" y2="60.00"/>
    <line x1="124.80" y1="540.00" x2="124.80" y2="60.00"/>
    <line x1="131.20" y1="540.00" x2="131.20" y2="60.00"/>
    <line x1="137.60" y1="540.00" x2="137.60" y2="60.00"/>
    <line x1="150.40" y1="540.00" x2="150.40" y2="60.00"/>
    <line x1="156.80" y1="540.00" x2="156.80" y2="60.00"/>
    <line x1="163.20" y1="540.00" x2="163.20" y2="60.00"/>
    <line x1="169.60" y1="540.00" x2="169.60" y2="60.00"/>
    <line x1="182.40" y1="540.00" x2="182.40" y2="60.00"/>
    <line x1="188.80" y1="540.00" x2="188.80" y2="60.00"/>
    <line x1="195.20" y1="540.00" x2="195.20" y2="60.00"/>
    <line x1="201.60" y1="540.00" x2="201.60" y2="60.00"/>
    <line x1="214.40" y1="540.00" x2="214.40" y2="60.00"/>
    <line x1="220.80" y1="540.00" x2="220.80" y2="60.00"/>
    <line x1="227.20" y1="540.00" x2="227.20" y2="60.00"/>
    <line x1="233.60" y1="540.00" x2="233.60" y2="60.00"/>
    <line x1="246.40" y1="540.00" x2="246.40" y2="60.00"/>
    <line x1="252.80" y1="540.00" x2="252.80" y2="60.00"/>
    <line x1="259.20" y1="540.00" x2="259.20" y2="60.00"/>
    <line x1="265.60" y1="540.00" x2="265.60" y2="60.00"/>
    <line x1="278.40" y1="540.00" x2="278.40" y2="60.00"/>
    <line x1="284.80" y1="540.00" x2="284.80" y2="60.00"/>
    <line x1="291.20" y1="540.00" x2="291.20" y2="60.00"/>
    <line x1="297.60" y1="540.00" x2="297.60" y2="60.00"/>
    <line x1="310.40" y1="540.00" x2="310.40" y2="60.00"/>
    <line x1="316.80" y1="540.00" x2="316.80" y2="60.00"/>
    <line x1="323.20" y1="540.00" x2="323.20" y2="60.00"/>
    <line x1="329.60" y1="540.00" x2="329.60" y2="60.00"/>
    <line x1="342.40" y1="540.00" x2="342.40" y2="60.00"/>
    <line x1="348.80" y1="540.00" x2="348.80" y2="60.00"/>
    <line x1="355.20" y1="540.00" x2="355.20" y2="60.00"/>
    <line x1="361.60" y1="540.00" x2="361.60" y2="60.00"/>
    <line x1="374.40" y1="540.00" x2="374.40" y2="60.00"/>
    <line x1="380.80" y1="540.00" x2="380.80" y2="60.00"/>
    <line x1="387.20" y1="540.00" x2="387.20" y2="60.00"/>
    <line x1="393.60" y1="540.00" x2="393.60" y2="60.00"/>
    <line x1="406.40" y1="540.00" x2="406.40" y2="60.00"/>
    <line x1="412.80" y1="540.00" x2="412.80" y2="60.00"/>
    <line x1="419.20" y1="540.00" x2="419.20" y2="60.00"/>
    <line x1="425.60" y1="540.00" x2="425.60" y2="60.00"/>
    <line x1="438.40" y1="540.00" x2="438.40" y2="60.00"/>
    <line x1="444.80" y1="540.00" x2="444.80" y2="60.00"/>
    <line x1="451.20" y1="540.00" x2="451.20" y2="60.00"/>
    <line x1="457.60" y1="540.00" x2="457.60" y2="60.00"/>
    <line x1="470.40" y1="540.00" x2="470.40" y2="60.00"/>
    <line x1="476.80" y1="540.00" x2="476.80" y2="60.00"/>
    <line x1="483.20" y1="540.00" x2="483.20" y2="60.00"/>
    <line x1="489.60" y1="540.00" x2="489.60" y2="60.00"/>
    <line x1="502.40" y1="540.00" x2="502.40" y2="60.00"/>
    <line x1="508.80" y1="540.00" x2="508.80" y2="60.00"/>
    <line x1="515.20" y1="540.00" x2="515.20" y2="60.00"/>
    <line x1="521.60" y1="540.00" x2="521.60" y2="60.00"/>
    <line x1="534.40" y1="540.00" x2="534.40" y2="60.00"/>
    <line x1="540.80" y1="540.00" x2="540.80" y2="60.00"/>
    <line x1="547.20" y1="540.00" x2="547.20" y2="60.00"/>
    <line x1="553.60" y1="540.00" x2="553.60" y2="60.00"/>
    <line x1="566.40" y1="540.00" x2="566.40" y2="60.00"/>
    <line x1="572.80" y1="540.00" x2="572.80" y2="60.00"/>
    <line x1="579.20" y1="540.00" x2="579.20" y2="60.00"/>
    <line x1="585.60" y1="540.00" x2="585.60" y2="60.00"/>
    <line x1="598.40" y1="540.00" x2="598.40" y2="60.00"/>
    <line x1="604.80" y1="540.00" x2="604.80" y2="60.00"/>
    <line x1="611.20" y1="540.00" x2="611.20" y2="60.00"/>
    <line x1="617.60" y1="540.00" x2="617.60" y2="60.00"/>
    <line x1="630.40" y1="540.00" x2="630.40" y2="60.00"/>
    <line x1="636.80" y1="540.00" x2="636.80" y2="60.00"/>
    <line x1="643.20" y1="540.00" x2="643.20" y2="60.00"/>
    <line x1="649.60" y1="540.00" x2="649.60" y2="60.00"/>
    <line x1="662.40" y1="540.00" x2="662.40" y2="60.00"/>
    <line x1="668.80" y1="540.00" x2="668.80" y2="60.00"/>
    <line x1="675.20" y1="540.00" x2="675.20" y2="60.00"/>
    <line x1="681.60" y1="540.00" x2="681.60" y2="60.00"/>
    <line x1="694.40" y1="540.00" x2="694.40" y2="60.00"/>
    <line x1="700.80" y1="540.00" x2="700.80" y2="60.00"/>
    <line x1="707.20" y1="540.00" x2="707.20" y2="60.00"/>
    <line x1="713.60" y1="540.00" x2="713.60" y2="60.00"/>
    <line x1="80.00" y1="530.40" x2="720.00" y2="530.40"/>
    <line x1="80.00" y1="501.60" x2="720.00" y2="501.60"/>
    <line x1="80.00" y1="487.20" x2="720.00" y2="487.20"/>
    <line x1="80.00" y1="472.80" x2="720.00" y2="472.80"/>
    <line x1="80.00" y1="458.40" x2="720.00" y2="458.40"/>
    <line x1="80.00" y1="429.60" x2="720.00" y2="429.60"/>
    <line x1="80.00" y1="415.20" x2="720.00" y2="415.20"/>
    <line x1="80.00" y1="400.80" x2="720.00" y2="400.80"/>
    <line x1="80.00" y1="386.40" x2="720.00" y2="386.40"/>
    <line x1="80.00" y1="357.60" x2="720.00" y2="357.60"/>
    <line x1="80.00" y1="343.20" x2="720.00" y2="343.20"/>
    <line x1="80.00" y1="328.80" x2="720.00" y2="328.80"/>
    <line x1="80.00" y1="314.40" x2="720.00" y2="314.40"/>
    <line x1="80.00" y1="285.60" x2="720.00" y2="285.60"/>
    <line x1="80.00" y1="271.20" x2="720.00" y2="271.20"/>
    <line x1="80.00" y1="256.80" x2="720.00" y2="256.80"/>
    <line x1="80.00" y1="242.40" x2="720.00" y2="242.40"/>
    <line x1="80.00" y1="213.60" x2="720.00" y2="213.60"/>
    <line x1="80.00" y1="199.20" x2="720.00" y2="199.20"/>
    <line x1="80.00" y1="184.80" x2="720.00" y2="184.80"/>
    <line x1="80.00" y1="170.40" x2="720.00" y2="170.40"/>
    <line x1="80.00" y1="141.60" x2="720.00" y2="141.60"/>
    <line x1="80.00" y1="127.20" x2="720.00" y2="127.20"/>
    <line x1="80.00" y1="112.80" x2="720.00" y2="112.80"/>
    <line x1="80.00" y1="98.40" x2="720.00" y2="98.40"/>
    <line x1="80.00" y1="69.60" x2="720.00" y2="69.60"/>
  </g>
  <g stroke="#808080" stroke-width="2">
    <line x1="400.00" y1="540.00" x2="400.00" y2="60.00"/>
    <line x1="80.00" y1="444.00" x2="720.00" y2="444.00"/>
  </g>
  <polyline fill="none" stroke="#0066cc" stroke-width="2" points="80.00,540.00 81.28,539.04 82.57,538.08 83.85,537.11 85.13,536.15 86.41,535.19 87.70,534.23 88.98,533.27 90.26,532.30 91.54,531.34 92.83,530.38 94.11,529.42 95.39,528.46 96.67,527.49 97.96,526.53 99.24,525.57 100.52,524.61 101.80,523.65 103.09,522.69 104.37,521.72 105.65,520.76 106.93,519.80 108.22,518.84 109.50,517.88 110.78,516.91 112.06,515.95 113.35,514.99 114.63,514.03 115.91,513.07 117.19,512.10 118.48,511.14 119.76,510.18 121.04,509.22 122.32,508.26 123.61,507.29 124.89,506.33 126.17,505.37 127.45,504.41 128.74,503.45 130.02,502.48 131.30,501.52 132.59,500.56 133.87,499.60 135.15,498.64 136.43,497.68 137.72,496.71 139.00,495.75 140.28,494.79 141.56,493.83 142.85,492.87 144.13,491.90 145.41,490.94 146.69,489.98 147.98,489.02 149.26,488.06 150.54,487.09 151.82,486.13 153.11,485.17 154.39,484.21 155.67,483.25 156.95,482.28 158.24,481.32 159.52,480.36 160.80,479.40 162.08,478.44 163.37,477.47 164.65,476.51 165.93,475.55 167.21,474.59 168.50,473.63 169.78,472.67 171.06,471.70 172.34,470.74 173.63,469.78 174.91,468.82 176.19,467.86 177.47,466.89 178.76,465.93 180.04,464.97 181.32,464.01 182.61,463.05 183.89,462.08 185.17,461.12 186.45,460.16 187.74,459.20 189.02,458.24 190.30,457.27 191.58,456.31 192.87,455.35 194.15,454.39 195.43,453.43 196.71,452.46 198.00,451.50 199.28,450.54 200.56,449.58 201.84,448.62 203.13,447.66 204.41,446.69 205.69,445.73 206.97,444.77 208.26,443.81 209.54,442.85 210.82,441.88 212.10,440.92 213.39,439.96 214.67,439.00 215.95,438.04 217.23,437.07 218.52,436.11 219.80,435.15 221.08,434.19 222.36,433.23 223.65,432.26 224.93,431.30 226.21,430.34 227.49,429.38 228.78,428.42 230.06,427.45 231.34,426.49 232.63,425.53 233.91,424.57 235.19,423.61 236.47,422.65 237.76,421.68 239.04,420.72 240.32,419.76 241.60,418.80 242.89,417.84 244.17,416.87 245.45,415.91 246.73,414.95 248.02,413.99 249.30,413.03 250.58,412.06 251.86,411.10 253.15,410.14 254.43,409.18 255.71,408.22 256.99,407.25 258.28,406.29 259.56,405.33 260.84,404.37 262.12,403.41 263.41,402.44 264.69,401.48 265.97,400.52 267.25,399.56 268.54,398.60 269.82,397.64 271.10,396.67 272.38,395.71 273.67,394.75 274.95,393.79 276.23,392.83 277.52,391.86 278.80,390.90 280.08,389.94 281.36,388.98 282.65,388.02 283.93,387.05 285.21,386.09 286.49,385.13 287.78,384.17 289.06,383.21 290.34,382.24 291.62,381.28 292.91,380.32 294.19,379.36 295.47,378.40 296.75,377.43 298.04,376.47 299.32,375.51 300.60,374.55 301.88,373.59 303.17,372.63 304.45,371.66 305.73,370.70 307.01,369.74 308.30,368.78 309.58,367.82 310.86,366.85 312.14,365.89 313.43,364.93 314.71,363.97 315.99,363.01 317.27,362.04 318.56,361.08 319.84,360.12 321.12,359.16 322.40,358.20 323.69,357.23 324.97,356.27 326.25,355.31 327.54,354.35 328.82,353.39 330.10,352.42 331.38,351.46 332.67,350.50 333.95,349.54 335.23,348.58 336.51,347.62 337.80,346.65 339.08,345.69 340.36,344.73 341.64,343.77 342.93,342.81 344.21,341.84 345.49,340.88 346.77,339.92 348.06,338.96 349.34,338.00 350.62,337.03 351.90,336.07 353.19,335.11 354.47,334.15 355.75,333.19 357.03,332.22 358.32,331.26 359.60,330.30 360.88,329.34 362.16,328.38 363.45,327.41 364.73,326.45 366.01,325.49 367.29,324.53 368.58,323.57 369.86,322.61 371.14,321.64 372.42,320.68 373.71,319.72 374.99,318.76 376.27,317.80 377.56,316.83 378.84,315.87 380.12,314.91 381.40,313.95 382.69,312.99 383.97,312.02 385.25,311.06 386.53,310.10 387.82,309.14 389.10,308.18 390.38,307.21 391.66,306.25 392.95,305.29 394.23,304.33 395.51,303.37 396.79,302.40 398.08,301.44 399.36,300.48 400.64,299.52 401.92,298.56 403.21,297.60 404.49,296.63 405.77,295.67 407.05,294.71 408.34,293.75 409.62,292.79 410.90,291.82 412.18,290.86 413.47,289.90 414.75,288.94 416.03,287.98 417.31,287.01 418.60,286.05 419.88,285.09 421.16,284.13 422.44,283.17 423.73,282.20 425.01,281.24 426.29,280.28 427.58,279.32 428.86,278.36 430.14,277.39 431.42,276.43 432.71,275.47 433.99,274.51 435.27,273.55 436.55,272.59 437.84,271.62 439.12,270.66 440.40,269.70 441.68,268.74 442.97,267.78 444.25,266.81 445.53,265.85 446.81,264.89 448.10,263.93 449.38,262.97 450.66,262.00 451.94,261.04 453.23,260.08 454.51,259.12 455.79,258.16 457.07,257.19 458.36,256.23 459.64,255.27 460.92,254.31 462.20,253.35 463.49,252.38 464.77,251.42 466.05,250.46 467.33,249.50 468.62,248.54 469.90,247.58 471.18,246.61 472.46,245.65 473.75,244.69 475.03,243.73 476.31,242.77 477.60,241.80 478.88,240.84 480.16,239.88 481.44,238.92 482.73,237.96 484.01,236.99 485.29,236.03 486.57,235.07 487.86,234.11 489.14,233.15 490.42,232.18 491.70,231.22 492.99,230.26 494.27,229.30 495.55,228.34 496.83,227.37 498.12,226.41 499.40,225.45 500.68,224.49 501.96,223.53 503.25,222.57 504.53,221.60 505.81,220.64 507.09,219.68 508.38,218.72 509.66,217.76 510.94,216.79 512.22,215.83 513.51,214.87 514.79,213.91 516.07,212.95 517.35,211.98 518.64,211.02 519.92,210.06 521.20,209.10 522.48,208.14 523.77,207.17 525.05,206.21 526.33,205.25 527.62,204.29 528.90,203.33 530.18,202.36 531.46,201.40 532.75,200.44 534.03,199.48 535.31,198.52 536.59,197.56 537.88,196.59 539.16,195.63 540.44,194.67 541.72,193.71 543.01,192.75 544.29,191.78 545.57,190.82 546.85,189.86 548.14,188.90 549.42,187.94 550.70,186.97 551.98,186.01 553.27,185.05 554.55,184.09 555.83,183.13 557.11,182.16 558.40,181.20 559.68,180.24 560.96,179.28 562.24,178.32 563.53,177.35 564.81,176.39 566.09,175.43 567.37,174.47 568.66,173.51 569.94,172.55 571.22,171.58 572.51,170.62 573.79,169.66 575.07,168.70 576.35,167.74 577.64,166.77 578.92,165.81 580.20,164.85 581.48,163.89 582.77,162.93 584.05,161.96 585.33,161.00 586.61,160.04 587.90,159.08 589.18,158.12 590.46,157.15 591.74,156.19 593.03,155.23 594.31,154.27 595.59,153.31 596.87,152.34 598.16,151.38 599.44,150.42 600.72,149.46 602.00,148.50 603.29,147.54 604.57,146.57 605.85,145.61 607.13,144.65 608.42,143.69 609.70,142.73 610.98,141.76 612.26,140.80 613.55,139.84 614.83,138.88 616.11,137.92 617.39,136.95 618.68,135.99 619.96,135.03 621.24,134.07 622.53,133.11 623.81,132.14 625.09,131.18 626.37,130.22 627.66,129.26 628.94,128.30 630.22,127.33 631.50,126.37 632.79,125.41 634.07,124.45 635.35,123.49 636.63,122.53 637.92,121.56 639.20,120.60 640.48,119.64 641.76,118.68 643.05,117.72 644.33,116.75 645.61,115.79 646.89,114.83 648.18,113.87 649.46,112.91 650.74,111.94 652.02,110.98 653.31,110.02 654.59,109.06 655.87,108.10 657.15,107.13 658.44,106.17 659.72,105.21 661.00,104.25 662.28,103.29 663.57,102.32 664.85,101.36 666.13,100.40 667.41,99.44 668.70,98.48 669.98,97.52 671.26,96.55 672.55,95.59 673.83,94.63 675.11,93.67 676.39,92.71 677.68,91.74 678.96,90.78 680.24,89.82 681.52,88.86 682.81,87.90 684.09,86.93 685.37,85.97 686.65,85.01 687.94,84.05 689.22,83.09 690.50,82.12 691.78,81.16 693.07,80.20 694.35,79.24 695.63,78.28 696.91,77.31 698.20,76.35 699.48,75.39 700.76,74.43 702.04,73.47 703.33,72.51 704.61,71.54 705.89,70.58 707.17,69.62 708.46,68.66 709.74,67.70 711.02,66.73 712.30,65.77 713.59,64.81 714.87,63.85 716.15,62.89 717.43,61.92 718.72,60.96 720.00,60.00 "/>
</svg>
