<?xml version="1.0" encoding="UTF-8"?>
<svg xmlns="http://www.w3.org/2000/svg" width="800" height="600">
  <title>R=6</title>
  <rect width="800" height="600" fill="#ffffff"/>
  <g stroke="#d0d0d0" stroke-width="1">
    <line x1="80.00" y1="540.00" x2="80.00" y2="60.00"/>
    <line x1="133.33" y1="540.00" x2="133.33" y2="60.00"/>
    <line x1="186.67" y1="540.00" x2="186.67" y2="60.00"/>
    <line x1="240.00" y1="540.00" x2="240.00" y2="60.00"/>
    <line x1="293.33" y1="540.00" x2="293.33" y2="60.00"/>
    <line x1="346.67" y1="540.00" x2="346.67" y2="60.00"/>
    <line x1="400.00" y1="540.00" x2="400.00" y2="60.00"/>
    <line x1="453.33" y1="540.00" x2="453.33" y2="60.00"/>
    <line x1="506.67" y1="540.00" x2="506.67" y2="60.00"/>
    <line x1="560.00" y1="540.00" x2="560.00" y2="60.00"/>
    <line x1="613.33" y1="540.00" x2="613.33" y2="60.00"/>
    <line x1="666.67" y1="540.00" x2="666.67" y2="60.00"/>
    <line x1="720.00" y1="540.00" x2="720.00" y2="60.00"/>
    <line x1="80.00" y1="540.00" x2="720.00" y2="540.00"/>
    <line x1="80.00" y1="500.00" x2="720.00" y2="500.00"/>
    <line x1="80.00" y1="460.00" x2="720.00" y2="460.00"/>
    <line x1="80.00" y1="420.00" x2="720.00" y2="420.00"/>
    <line x1="80.00" y1="380.00" x2="720.00" y2="380.00"/>
    <line x1="80.00" y1="340.00" x2="720.00" y2="340.00"/>
    <line x1="80.00" y1="300.00" x2="720.00" y2="300.00"/>
    <line x1="80.00" y1="260.00" x2="720.00" y2="260.00"/>
    <line x1="80.00" y1="220.00" x2="720.00" y2="220.00"/>
    <line x1="80.00" y1="180.00" x2="720.00" y2="180.00"/>
    <line x1="80.00" y1="140.00" x2="720.00" y2="140.00"/>
    <line x1="80.00" y1="100.00" x2="720.00" y2="100.00"/>
    <line x1="80.00" y1="60.00" x2="720.00" y2="60.00"/>
  </g>
  <g stroke="#e8e8e8" stroke-width="0.5">
    <line x1="90.67" y1="540.00" x2="90.67" y2="60.00"/>
    <line x1="101.33" y1="540.00" x2="101.33" y2="60.00"/>
    <line x1="112.00" y1="540.00" x2="112.00" y2="60.00"/>
    <line x1="122.67" y1="540.00" x2="122.67" y2="60.00"/>
    <line x1="144.00" y1="540.00" x2="144.00" y2="60.00"/>
    <line x1="154.67" y1="540.00" x2="154.67" y2="60.00"/>
    <line x1="165.33" y1="540.00" x2="165.33" y2="60.00"/>
    <line x1="176.00" y1="540.00" x2="176.00" y2="60.00"/>
    <line x1="197.33" y1="540.00" x2="197.33" y2="60.00"/>
    <line x1="208.00" y1="540.00" x2="208.00" y2="60.00"/>
    <line x1="218.67" y1="540.00" x2="218.67" y2="60.00"/>
    <line x1="229.33" y1="540.00" x2="229.33" y2="60.00"/>
    <line x1="250.67" y1="540.00" x2="250.67" y2="60.00"/>
    <line x1="261.33" y1="540.00" x2="261.33" y2="60.00"/>
    <line x1="272.00" y1="540.00" x2="272.00" y2="60.00"/>
    <line x1="282.67" y1="540.00" x2="282.67" y2="60.00"/>
    <line x1="304.00" y1="540.00" x2="304.00" y2="60.00"/>
    <line x1="314.67" y1="540.00" x2="314.67" y2="60.00"/>
    <line x1="325.33" y1="540.00" x2="325.33" y2="60.00"/>
    <line x1="336.00" y1="540.00" x2="336.00" y2="60.00"/>
    <line x1="357.33" y1="540.00" x2="357.33" y2="60.00"/>
    <line x1="368.00" y1="540.00" x2="368.00" y2="60.00"/>
    <line x1="378.67" y1="540.00" x2="378.67" y2="60.00"/>
    <line x1="389.33" y1="540.00" x2="389.33" y2="60.00"/>
    <line x1="410.67" y1="540.00" x2="410.67" y2="60.00"/>
    <line x1="421.33" y1="540.00" x2="421.33" y2="60.00"/>
    <line x1="432.00" y1="540.00" x2="432.00" y2="60.00"/>
    <line x1="442.67" y1="540.00" x2="442.67" y2="60.00"/>
    <line x1="464.00" y1="540.00" x2="464.00" y2="60.00"/>
    <line x1="474.67" y1="540.00" x2="474.67" y2="60.00"/>
    <line x1="485.33" y1="540.00" x2="485.33" y2="60.00"/>
    <line x1="496.00" y1="540.00" x2="496.00" y2="60.00"/>
    <line x1="517.33" y1="540.00" x2="517.33" y2="60.00"/>
    <line x1="528.00" y1="540.00" x2="528.00" y2="60.00"/>
    <line x1="538.67" y1="540.00" x2="538.67" y2="60.00"/>
    <line x1="549.33" y1="540.00" x2="549.33" y2="60.00"/>
    <line x1="570.67" y1="540.00" x2="570.67" y2="60.00"/>
    <line x1="581.33" y1="540.00" x2="581.33" y2="60.00"/>
    <line x1="592.00" y1="540.00" x2="592.00" y2="60.00"/>
    <line x1="602.67" y1="540.00" x2="602.67" y2="60.00"/>
    <line x1="624.00" y1="540.00" x2="624.00" y2="60.00"/>
    <line x1="634.67" y1="540.00" x2="634.67" y2="60.00"/>
    <line x1="645.33" y1="540.00" x2="645.33" y2="60.00"/>
    <line x1="656.00" y1="540.00" x2="656.00" y2="60.00"/>
    <line x1="677.33" y1="540.00" x2="677.33" y2="60.00"/>
    <line x1="688.00" y1="540.00" x2="688.00" y2="60.00"/>
    <line x1="698.67" y1="540.00" x2="698.67" y2="60.00"/>
    <line x1="709.33" y1="540.00" x2="709.33" y2="60.00"/>
    <line x1="80.00" y1="532.00" x2="720.00" y2="532.00"/>
    <line x1="80.00" y1="524.00" x2="720.00" y2="524.00"/>
    <line x1="80.00" y1="516.00" x2="720.00" y2="516.00"/>
    <line x1="80.00" y1="508.00" x2="720.00" y2="508.00"/>
    <line x1="80.00" y1="492.00" x2="720.00" y2="492.00"/>
    <line x1="80.00" y1="484.00" x2="720.00" y2="484.00"/>
    <line x1="80.00" y1="476.00" x2="720.00" y2="476.00"/>
    <line x1="80.00" y1="468.00" x2="720.00" y2="468.00"/>
    <line x1="80.00" y1="452.00" x2="720.00" y2="452.00"/>
    <line x1="80.00" y1="444.00" x2="720.00" y2="444.00"/>
    <line x1="80.00" y1="436.00" x2="720.00" y2="436.00"/>
    <line x1="80.00" y1="428.00" x2="720.00" y2="428.00"/>
    <line x1="80.00" y1="412.00" x2="720.00" y2="412.00"/>
    <line x1="80.00" y1="404.00" x2="720.00" y2="404.00"/>
    <line x1="80.00" y1="396.00" x2="720.00" y2="396.00"/>
    <line x1="80.00" y1="388.00" x2="720.00" y2="388.00"/>
    <line x1="80.00" y1="372.00" x2="720.00" y2="372.00"/>
    <line x1="80.00" y1="364.00" x2="720.00" y2="364.00"/>
    <line x1="80.00" y1="356.00" x2="720.00" y2="356.00"/>
    <line x1="80.00" y1="348.00" x2="720.00" y2="348.00"/>
    <line x1="80.00" y1="332.00" x2="720.00" y2="332.00"/>
    <line x1="80.00" y1="324.00" x2="720.00" y2="324.00"/>
    <line x1="80.00" y1="316.00" x2="720.00" y2="316.00"/>
    <line x1="80.00" y1="308.00" x2="720.00" y2="308.00"/>
    <line x1="80.00" y1="292.00" x2="720.00" y2="292.00"/>
    <line x1="80.00" y1="284.00" x2="720.00" y2="284.00"/>
    <line x1="80.00" y1="276.00" x2="720.00" y2="276.00"/>
    <line x1="80.00" y1="268.00" x2="720.00" y2="268.00"/>
    <line x1="80.00" y1="252.00" x2="720.00" y2="252.00"/>
    <line x1="80.00" y1="244.00" x2="720.00" y2="244.00"/>
    <line x1="80.00" y1="236.00" x2="720.00" y2="236.00"/>
    <line x1="80.00" y1="228.00" x2="720.00" y2="228.00"/>
    <line x1="80.00" y1="212.00" x2="720.00" y2="212.00"/>
    <line x1="80.00" y1="204.00" x2="720.00" y2="204.00"/>
    <line x1="80.00" y1="196.00" x2="720.00" y2="196.00"/>
    <line x1="80.00" y1="188.00" x2="720.00" y2="188.00"/>
    <line x1="80.00" y1="172.00" x2="720.00" y2="172.00"/>
    <line x1="80.00" y1="164.00" x2="720.00" y2="164.00"/>
    <line x1="80.00" y1="156.00" x2="720.00" y2="156.00"/>
    <line x1="80.00" y1="148.00" x2="720.00" y2="148.00"/>
    <line x1="80.00" y1="132.00" x2="720.00" y2="132.00"/>
    <line x1="80.00" y1="124.00" x2="720.00" y2="124.00"/>
    <line x1="80.00" y1="116.00" x2="720.00" y2="116.00"/>
    <line x1="80.00" y1="108.00" x2="720.00" y2="108.00"/>
    <line x1="80.00" y1="92.00" x2="720.00" y2="92.00"/>
    <line x1="80.00" y1="84.00" x2="720.00" y2="84.00"/>
    <line x1="80.00" y1="76.00" x2="720.00" y2="76.00"/>
    <line x1="80.00" y1="68.00" x2="720.00" y2="68.00"/>
  </g>
  <g stroke="#808080" stroke-width="2">
    <line x1="400.00" y1="540.00" x2="400.00" y2="60.00"/>
    <line x1="80.00" y1="300.00" x2="720.00" y2="300.00"/>
  </g>
  <polyline fill="none" stroke="#0066cc" stroke-width="2" points="719.97,296.98 719.90,293.97 719.77,290.95 719.60,287.94 719.37,284.93 719.09,281.92 718.76,278.92 718.38,275.91 717.96,272.91 717.48,269.92 716.95,266.93 716.37,263.95 715.74,260.97 715.06,257.99 714.33,255.03 713.55,252.07 712.73,249.12 711.85,246.18 710.92,243.24 709.95,240.31 708.92,237.40 707.85,234.49 706.73,231.60 705.56,228.71 704.34,225.84 703.07,222.97 701.76,220.12 700.39,217.29 698.99,214.46 697.53,211.65 696.02,208.85 694.47,206.07 692.88,203.30 691.23,200.55 689.54,197.81 687.81,195.09 686.03,192.39 684.20,189.70 682.33,187.03 680.42,184.38 678.46,181.75 676.46,179.13 674.41,176.53 672.32,173.96 670.18,171.40 668.01,168.87 665.79,166.35 663.53,163.86 661.23,161.38 658.89,158.93 656.50,156.50 654.08,154.10 651.61,151.71 649.11,149.35 646.56,147.02 643.98,144.71 641.36,142.42 638.70,140.16 636.00,137.92 633.27,135.71 630.50,133.52 627.69,131.36 624.85,129.23 621.97,127.13 619.06,125.05 616.11,123.00 613.12,120.97 610.11,118.98 607.06,117.01 603.98,115.08 600.86,113.17 597.72,111.29 594.54,109.44 591.33,107.62 588.09,105.84 584.82,104.08 581.53,102.35 578.20,100.66 574.85,98.99 571.46,97.36 568.06,95.76 564.62,94.19 561.16,92.66 557.67,91.16 554.16,89.69 550.63,88.25 547.07,86.85 543.48,85.48 539.88,84.14 536.25,82.84 532.60,81.57 528.93,80.34 525.24,79.14 521.53,77.98 517.80,76.85 514.05,75.76 510.29,74.70 506.50,73.68 502.70,72.70 498.89,71.75 495.05,70.83 491.21,69.95 487.34,69.11 483.47,68.31 479.58,67.54 475.68,66.81 471.77,66.11 467.84,65.46 463.91,64.83 459.96,64.25 456.01,63.70 452.04,63.20 448.07,62.72 444.09,62.29 440.11,61.89 436.11,61.53 432.12,61.21 428.11,60.93 424.10,60.68 420.09,60.47 416.08,60.30 412.06,60.17 408.04,60.08 404.02,60.02 400.00,60.00 395.98,60.02 391.96,60.08 387.94,60.17 383.92,60.30 379.91,60.47 375.90,60.68 371.89,60.93 367.88,61.21 363.89,61.53 359.89,61.89 355.91,62.29 351.93,62.72 347.96,63.20 343.99,63.70 340.04,64.25 336.09,64.83 332.16,65.46 328.23,66.11 324.32,66.81 320.42,67.54 316.53,68.31 312.66,69.11 308.79,69.95 304.95,70.83 301.11,71.75 297.30,72.70 293.50,73.68 289.71,74.70 285.95,75.76 282.20,76.85 278.47,77.98 274.76,79.14 271.07,80.34 267.40,81.57 263.75,82.84 260.12,84.14 256.52,85.48 252.93,86.85 249.37,88.25 245.84,89.69 242.33,91.16 238.84,92.66 235.38,94.19 231.94,95.76 228.54,97.36 225.15,98.99 221.80,100.66 218.47,102.35 215.18,104.08 211.91,105.84 208.67,107.62 205.46,109.44 202.28,111.29 199.14,113.17 196.02,115.08 192.94,117.01 189.89,118.98 186.88,120.97 183.89,123.00 180.94,125.05 178.03,127.13 175.15,129.23 172.31,131.36 169.50,133.52 166.73,135.71 164.00,137.92 161.30,140.16 158.64,142.42 156.02,144.71 153.44,147.02 150.89,149.35 148.39,151.71 145.92,154.10 143.50,156.50 141.11,158.93 138.77,161.38 136.47,163.86 134.21,166.35 131.99,168.87 129.82,171.40 127.68,173.96 125.59,176.53 123.54,179.13 121.54,181.75 119.58,184.38 117.67,187.03 115.80,189.70 113.97,192.39 112.19,195.09 110.46,197.81 108.77,200.55 107.12,203.30 105.53,206.07 103.98,208.85 102.47,211.65 101.01,214.46 99.61,217.29 98.24,220.12 96.93,222.97 95.66,225.84 94.44,228.71 93.27,231.60 92.15,234.49 91.08,237.40 90.05,240.31 89.08,243.24 88.15,246.18 87.27,249.12 86.45,252.07 85.67,255.03 84.94,257.99 84.26,260.97 83.63,263.95 83.05,266.93 82.52,269.92 82.04,272.91 81.62,275.91 81.24,278.92 80.91,281.92 80.63,284.93 80.40,287.94 80.23,290.95 80.10,293.97 80.03,296.98 80.00,300.00 80.03,303.02 80.10,306.03 80.23,309.05 80.40,312.06 80.63,315.07 80.91,318.08 81.24,321.08 81.62,324.09 82.04,327.09 82.52,330.08 83.05,333.07 83.63,336.05 84.26,339.03 84.94,342.01 85.67,344.97 86.45,347.93 87.27,350.88 88.15,353.82 89.08,356.76 90.05,359.69 91.08,362.60 92.15,365.51 93.27,368.40 94.44,371.29 95.66,374.16 96.93,377.03 98.24,379.88 99.61,382.71 101.01,385.54 102.47,388.35 103.98,391.15 105.53,393.93 107.12,396.70 108.77,399.45 110.46,402.19 112.19,404.91 113.97,407.61 115.80,410.30 117.67,412.97 119.58,415.62 121.54,418.25 123.54,420.87 125.59,423.47 127.68,426.04 129.82,428.60 131.99,431.13 134.21,433.65 136.47,436.14 138.77,438.62 141.11,441.07 143.50,443.50 145.92,445.90 148.39,448.29 150.89,450.65 153.44,452.98 156.02,455.29 158.64,457.58 161.30,459.84 164.00,462.08 166.73,464.29 169.50,466.48 172.31,468.64 175.15,470.77 178.03,472.87 180.94,474.95 183.89,477.00 186.88,479.03 189.89,481.02 192.94,482.99 196.02,484.92 199.14,486.83 202.28,488.71 205.46,490.56 208.67,492.38 211.91,494.16 215.18,495.92 218.47,497.65 221.80,499.34 225.15,501.01 228.54,502.64 231.94,504.24 235.38,505.81 238.84,507.34 242.33,508.84 245.84,510.31 249.37,511.75 252.93,513.15 256.52,514.52 260.12,515.86 263.75,517.16 267.40,518.43 271.07,519.66 274.76,520.86 278.47,522.02 282.20,523.15 285.95,524.24 289.71,525.30 293.50,526.32 297.30,527.30 301.11,528.25 304.95,529.17 308.79,530.05 312.66,530.89 316.53,531.69 320.42,532.46 324.32,533.19 328.23,533.89 332.16,534.54 336.09,535.17 340.04,535.75 343.99,536.30 347.96,536.80 351.93,537.28 355.91,537.71 359.89,538.11 363.89,538.47 367.88,538.79 371.89,539.07 375.90,539.32 379.91,539.53 383.92,539.70 387.94,539.83 391.96,539.92 395.98,539.98 400.00,540.00 404.02,539.98 408.04,539.92 412.06,539.83 416.08,539.70 420.09,539.53 424.10,539.32 428.11,539.07 432.12,538.79 436.11,538.47 440.11,538.11 444.09,537.71 448.07,537.28 452.04,536.80 456.01,536.30 459.96,535.75 463.91,535.17 467.84,534.54 471.77,533.89 475.68,533.19 479.58,532.46 483.47,531.69 487.34,530.89 491.21,530.05 495.05,529.17 498.89,528.25 502.70,527.30 506.50,526.32 510.29,525.30 514.05,524.24 517.80,523.15 521.53,522.02 525.24,520.86 528.93,519.66 532.60,518.43 536.25,517.16 539.88,515.86 543.48,514.52 547.07,513.15 550.63,511.75 554.16,510.31 557.67,508.84 561.16,507.34 564.62,505.81 568.06,504.24 571.46,502.64 574.85,501.01 578.20,499.34 581.53,497.65 584.82,495.92 588.09,494.16 591.33,492.38 594.54,490.56 597.72,488.71 600.86,486.83 603.98,484.92 607.06,482.99 610.11,481.02 613.12,479.03 616.11,477.00 619.06,474.95 621.97,472.87 624.85,470.77 627.69,468.64 630.50,466.48 633.27,464.29 636.00,462.08 638.70,459.84 641.36,457.58 643.98,455.29 646.56,452.98 649.11,450.65 651.61,448.29 654.08,445.90 656.50,443.50 658.89,441.07 661.23,438.62 663.53,436.14 665.79,433.65 668.01,431.13 670.18,428.60 672.32,426.04 674.41,423.47 676.46,420.87 678.46,418.25 680.42,415.62 682.33,412.97 684.20,410.30 686.03,407.61 687.81,404.91 689.54,402.19 691.23,399.45 692.88,396.70 694.47,393.93 696.02,391.15 697.53,388.35 698.99,385.54 700.39,382.71 701.76,379.88 703.07,377.03 704.34,374.16 705.56,371.29 706.73,368.40 707.85,365.51 708.92,362.60 709.95,359.69 710.92,356.76 711.85,353.82 712.73,350.88 713.55,347.93 714.33,344.97 715.06,342.01 715.74,339.03 716.37,336.05 716.95,333.07 717.48,330.08 717.96,327.09 718.38,324.09 718.76,321.08 719.09,318.08 719.37,315.07 719.60,312.06 719.77,309.05 719.90,306.03 719.97,303.02 720.00,300.00 "/>
</svg>
