<?xml version="1.0" encoding="UTF-8"?>
<svg xmlns="http://www.w3.org/2000/svg" width="800" height="600">
  <title>R=6/(2-sin(t))</title>
  <rect width="800" height="600" fill="#ffffff"/>
  <g stroke="#d0d0d0" stroke-width="1">
    <line x1="30.49" y1="540.00" x2="30.49" y2="60.00"/>
    <line x1="122.87" y1="540.00" x2="122.87" y2="60.00"/>
    <line x1="215.25" y1="540.00" x2="215.25" y2="60.00"/>
    <line x1="307.62" y1="540.00" x2="307.62" y2="60.00"/>
    <line x1="400.00" y1="540.00" x2="400.00" y2="60.00"/>
    <line x1="492.38" y1="540.00" x2="492.38" y2="60.00"/>
    <line x1="584.75" y1="540.00" x2="584.75" y2="60.00"/>
    <line x1="677.13" y1="540.00" x2="677.13" y2="60.00"/>
    <line x1="769.51" y1="540.00" x2="769.51" y2="60.00"/>
    <line x1="80.00" y1="540.00" x2="720.00" y2="540.00"/>
    <line x1="80.00" y1="480.00" x2="720.00" y2="480.00"/>
    <line x1="80.00" y1="420.00" x2="720.00" y2="420.00"/>
    <line x1="80.00" y1="360.00" x2="720.00" y2="360.00"/>
    <line x1="80.00" y1="300.00" x2="720.00" y2="300.00"/>
    <line x1="80.00" y1="240.00" x2="720.00" y2="240.00"/>
    <line x1="80.00" y1="180.00" x2="720.00" y2="180.00"/>
    <line x1="80.00" y1="120.00" x2="720.00" y2="120.00"/>
    <line x1="80.00" y1="60.00" x2="720.00" y2="60.00"/>
  </g>
  <g stroke="#e8e8e8" stroke-width="0.5">
    <line x1="85.92" y1="540.00" x2="85.92" y2="60.00"/>
    <line x1="104.39" y1="540.00" x2="104.39" y2="60.00"/>
    <line x1="141.34" y1="540.00" x2="141.34" y2="60.00"/>
    <line x1="159.82" y1="540.00" x2="159.82" y2="60.00"/>
    <line x1="178.29" y1="540.00" x2="178.29" y2="60.00"/>
    <line x1="196.77" y1="540.00" x2="196.77" y2="60.00"/>
    <line x1="233.72" y1="540.00" x2="233.72" y2="60.00"/>
    <line x1="252.20" y1="540.00" x2="252.20" y2="60.00"/>
    <line x1="270.67" y1="540.00" x2="270.67" y2="60.00"/>
    <line x1="289.15" y1="540.00" x2="289.15" y2="60.00"/>
    <line x1="326.10" y1="540.00" x2="326.10" y2="60.00"/>
    <line x1="344.57" y1="540.00" x2="344.57" y2="60.00"/>
    <line x1="363.05" y1="540.00" x2="363.05" y2="60.00"/>
    <line x1="381.52" y1="540.00" x2="381.52" y2="60.00"/>
    <line x1="418.48" y1="540.00" x2="418.48" y2="60.00"/>
    <line x1="436.95" y1="540.00" x2="436.95" y2="60.00"/>
    <line x1="455.43" y1="540.00" x2="455.43" y2="60.00"/>
    <line x1="473.90" y1="540.00" x2="473.90" y2="60.00"/>
    <line x1="510.85" y1="540.00" x2="510.85" y2="60.00"/>
    <line x1="529.33" y1="540.00" x2="529.33" y2="60.00"/>
    <line x1="547.80" y1="540.00" x2="547.80" y2="60.00"/>
    <line x1="566.28" y1="540.00" x2="566.28" y2="60.00"/>
    <line x1="603.23" y1="540.00" x2="603.23" y2="60.00"/>
    <line x1="621.71" y1="540.00" x2="621.71" y2="60.00"/>
    <line x1="640.18" y1="540.00" x2="640.18" y2="60.00"/>
    <line x1="658.66" y1="540.00" x2="658.66" y2="60.00"/>
    <line x1="695.61" y1="540.00" x2="695.61" y2="60.00"/>
    <line x1="714.08" y1="540.00" x2="714.08" y2="60.00"/>
    <line x1="80.00" y1="528.00" x2="720.00" y2="528.00"/>
    <line x1="80.00" y1="516.00" x2="720.00" y2="516.00"/>
    <line x1="80.00" y1="504.00" x2="720.00" y2="504.00"/>
    <line x1="80.00" y1="492.00" x2="720.00" y2="492.00"/>
    <line x1="80.00" y1="468.00" x2="720.00" y2="468.00"/>
    <line x1="80.00" y1="456.00" x2="720.00" y2="456.00"/>
    <line x1="80.00" y1="444.00" x2="720.00" y2="444.00"/>
    <line x1="80.00" y1="432.00" x2="720.00" y2="432.00"/>
    <line x1="80.00" y1="408.00" x2="720.00" y2="408.00"/>
    <line x1="80.00" y1="396.00" x2="720.00" y2="396.00"/>
    <line x1="80.00" y1="384.00" x2="720.00" y2="384.00"/>
    <line x1="80.00" y1="372.00" x2="720.00" y2="372.00"/>
    <line x1="80.00" y1="348.00" x2="720.00" y2="348.00"/>
    <line x1="80.00" y1="336.00" x2="720.00" y2="336.00"/>
    <line x1="80.00" y1="324.00" x2="720.00" y2="324.00"/>
    <line x1="80.00" y1="312.00" x2="720.00" y2="312.00"/>
    <line x1="80.00" y1="288.00" x2="720.00" y2="288.00"/>
    <line x1="80.00" y1="276.00" x2="720.00" y2="276.00"/>
    <line x1="80.00" y1="264.00" x2="720.00" y2="264.00"/>
    <line x1="80.00" y1="252.00" x2="720.00" y2="252.00"/>
    <line x1="80.00" y1="228.00" x2="720.00" y2="228.00"/>
    <line x1="80.00" y1="216.00" x2="720.00" y2="216.00"/>
    <line x1="80.00" y1="204.00" x2="720.00" y2="204.00"/>
    <line x1="80.00" y1="192.00" x2="720.00" y2="192.00"/>
    <line x1="80.00" y1="168.00" x2="720.00" y2="168.00"/>
    <line x1="80.00" y1="156.00" x2="720.00" y2="156.00"/>
    <line x1="80.00" y1="144.00" x2="720.00" y2="144.00"/>
    <line x1="80.00" y1="132.00" x2="720.00" y2="132.00"/>
    <line x1="80.00" y1="108.00" x2="720.00" y2="108.00"/>
    <line x1="80.00" y1="96.00" x2="720.00" y2="96.00"/>
    <line x1="80.00" y1="84.00" x2="720.00" y2="84.00"/>
    <line x1="80.00" y1="72.00" x2="720.00" y2="72.00"/>
  </g>
  <g stroke="#808080" stroke-width="2">
    <line x1="400.00" y1="540.00" x2="400.00" y2="60.00"/>
    <line x1="80.00" y1="420.00" x2="720.00" y2="420.00"/>
  </g>
  <polyline fill="none" stroke="#0066cc" stroke-width="2" points="678.86,417.72 680.57,415.42 682.25,413.09 683.91,410.72 685.55,408.33 687.16,405.91 688.74,403.46 690.30,400.98 691.83,398.47 693.33,395.93 694.80,393.36 696.24,390.76 697.65,388.13 699.02,385.47 700.36,382.78 701.67,380.06 702.94,377.31 704.18,374.53 705.38,371.72 706.54,368.88 707.66,366.01 708.74,363.10 709.78,360.17 710.78,357.21 711.73,354.21 712.64,351.19 713.50,348.13 714.32,345.05 715.08,341.93 715.80,338.79 716.46,335.62 717.07,332.41 717.63,329.18 718.13,325.92 718.58,322.63 718.97,319.31 719.29,315.97 719.56,312.60 719.77,309.20 719.91,305.77 719.99,302.32 720.00,298.84 719.94,295.33 719.82,291.81 719.62,288.25 719.35,284.68 719.01,281.08 718.59,277.46 718.09,273.82 717.52,270.16 716.87,266.48 716.13,262.78 715.32,259.07 714.41,255.34 713.43,251.59 712.35,247.83 711.19,244.05 709.93,240.27 708.59,236.47 707.15,232.66 705.62,228.84 703.99,225.02 702.26,221.20 700.44,217.36 698.51,213.53 696.49,209.70 694.36,205.86 692.13,202.03 689.80,198.21 687.36,194.39 684.81,190.58 682.16,186.78 679.40,182.99 676.52,179.22 673.55,175.46 670.46,171.72 667.25,168.00 663.94,164.30 660.52,160.63 656.98,156.99 653.34,153.37 649.58,149.79 645.70,146.24 641.72,142.73 637.63,139.26 633.42,135.83 629.10,132.44 624.67,129.10 620.13,125.81 615.49,122.57 610.73,119.39 605.87,116.26 600.90,113.19 595.83,110.18 590.65,107.24 585.37,104.37 580.00,101.57 574.52,98.83 568.95,96.18 563.28,93.60 557.53,91.09 551.68,88.67 545.75,86.34 539.74,84.09 533.64,81.93 527.47,79.86 521.22,77.89 514.90,76.00 508.51,74.22 502.05,72.53 495.53,70.94 488.96,69.46 482.33,68.08 475.65,66.80 468.92,65.63 462.16,64.57 455.35,63.62 448.51,62.77 441.63,62.04 434.73,61.42 427.81,60.91 420.88,60.51 413.92,60.23 406.96,60.06 400.00,60.00 393.04,60.06 386.08,60.23 379.12,60.51 372.19,60.91 365.27,61.42 358.37,62.04 351.49,62.77 344.65,63.62 337.84,64.57 331.08,65.63 324.35,66.80 317.67,68.08 311.04,69.46 304.47,70.94 297.95,72.53 291.49,74.22 285.10,76.00 278.78,77.89 272.53,79.86 266.36,81.93 260.26,84.09 254.25,86.34 248.32,88.67 242.47,91.09 236.72,93.60 231.05,96.18 225.48,98.83 220.00,101.57 214.63,104.37 209.35,107.24 204.17,110.18 199.10,113.19 194.13,116.26 189.27,119.39 184.51,122.57 179.87,125.81 175.33,129.10 170.90,132.44 166.58,135.83 162.37,139.26 158.28,142.73 154.30,146.24 150.42,149.79 146.66,153.37 143.02,156.99 139.48,160.63 136.06,164.30 132.75,168.00 129.54,171.72 126.45,175.46 123.48,179.22 120.60,182.99 117.84,186.78 115.19,190.58 112.64,194.39 110.20,198.21 107.87,202.03 105.64,205.86 103.51,209.70 101.49,213.53 99.56,217.36 97.74,221.20 96.01,225.02 94.38,228.84 92.85,232.66 91.41,236.47 90.07,240.27 88.81,244.05 87.65,247.83 86.57,251.59 85.59,255.34 84.68,259.07 83.87,262.78 83.13,266.48 82.48,270.16 81.91,273.82 81.41,277.46 80.99,281.08 80.65,284.68 80.38,288.25 80.18,291.81 80.06,295.33 80.00,298.84 80.01,302.32 80.09,305.77 80.23,309.20 80.44,312.60 80.71,315.97 81.03,319.31 81.42,322.63 81.87,325.92 82.37,329.18 82.93,332.41 83.54,335.62 84.20,338.79 84.92,341.93 85.68,345.05 86.50,348.13 87.36,351.19 88.27,354.21 89.22,357.21 90.22,360.17 91.26,363.10 92.34,366.01 93.46,368.88 94.62,371.72 95.82,374.53 97.06,377.31 98.33,380.06 99.64,382.78 100.98,385.47 102.35,388.13 103.76,390.76 105.20,393.36 106.67,395.93 108.17,398.47 109.70,400.98 111.26,403.46 112.84,405.91 114.45,408.33 116.09,410.72 117.75,413.09 119.43,415.42 121.14,417.72 122.87,420.00 124.62,422.25 126.39,424.47 128.19,426.66 130.00,428.82 131.83,430.96 133.69,433.07 135.56,435.15 137.44,437.20 139.35,439.23 141.27,441.23 143.20,443.20 145.16,445.15 147.12,447.07 149.10,448.97 151.10,450.84 153.11,452.68 155.13,454.50 157.16,456.30 159.20,458.07 161.26,459.81 163.33,461.53 165.41,463.23 167.50,464.90 169.60,466.55 171.71,468.18 173.82,469.78 175.95,471.36 178.09,472.92 180.23,474.45 182.38,475.96 184.54,477.45 186.71,478.92 188.89,480.36 191.07,481.79 193.26,483.19 195.45,484.57 197.65,485.93 199.86,487.27 202.07,488.59 204.29,489.88 206.51,491.16 208.74,492.42 210.97,493.65 213.21,494.87 215.45,496.07 217.70,497.25 219.95,498.41 222.20,499.55 224.46,500.67 226.72,501.77 228.99,502.85 231.25,503.92 233.52,504.97 235.80,506.00 238.07,507.01 240.35,508.00 242.64,508.98 244.92,509.93 247.21,510.87 249.49,511.80 251.78,512.71 254.08,513.59 256.37,514.47 258.67,515.32 260.97,516.16 263.27,516.99 265.57,517.79 267.87,518.59 270.17,519.36 272.48,520.12 274.78,520.86 277.09,521.59 279.40,522.30 281.71,523.00 284.02,523.68 286.33,524.35 288.64,525.00 290.96,525.64 293.27,526.26 295.59,526.86 297.90,527.46 300.22,528.03 302.53,528.60 304.85,529.14 307.17,529.68 309.48,530.20 311.80,530.70 314.12,531.20 316.44,531.67 318.76,532.14 321.08,532.59 323.40,533.02 325.72,533.44 328.04,533.85 330.36,534.25 332.68,534.63 335.00,535.00 337.32,535.35 339.64,535.69 341.96,536.02 344.28,536.33 346.60,536.64 348.92,536.92 351.25,537.20 353.57,537.46 355.89,537.71 358.21,537.94 360.53,538.17 362.85,538.38 365.17,538.57 367.50,538.76 369.82,538.93 372.14,539.09 374.46,539.23 376.78,539.37 379.10,539.49 381.43,539.60 383.75,539.69 386.07,539.77 388.39,539.84 390.71,539.90 393.03,539.94 395.36,539.97 397.68,539.99 400.00,540.00 402.32,539.99 404.64,539.97 406.97,539.94 409.29,539.90 411.61,539.84 413.93,539.77 416.25,539.69 418.57,539.60 420.90,539.49 423.22,539.37 425.54,539.23 427.86,539.09 430.18,538.93 432.50,538.76 434.83,538.57 437.15,538.38 439.47,538.17 441.79,537.94 444.11,537.71 446.43,537.46 448.75,537.20 451.08,536.92 453.40,536.64 455.72,536.33 458.04,536.02 460.36,535.69 462.68,535.35 465.00,535.00 467.32,534.63 469.64,534.25 471.96,533.85 474.28,533.44 476.60,533.02 478.92,532.59 481.24,532.14 483.56,531.67 485.88,531.20 488.20,530.70 490.52,530.20 492.83,529.68 495.15,529.14 497.47,528.60 499.78,528.03 502.10,527.46 504.41,526.86 506.73,526.26 509.04,525.64 511.36,525.00 513.67,524.35 515.98,523.68 518.29,523.00 520.60,522.30 522.91,521.59 525.22,520.86 527.52,520.12 529.83,519.36 532.13,518.59 534.43,517.79 536.73,516.99 539.03,516.16 541.33,515.32 543.63,514.47 545.92,513.59 548.22,512.71 550.51,511.80 552.79,510.87 555.08,509.93 557.36,508.98 559.65,508.00 561.93,507.01 564.20,506.00 566.48,504.97 568.75,503.92 571.01,502.85 573.28,501.77 575.54,500.67 577.80,499.55 580.05,498.41 582.30,497.25 584.55,496.07 586.79,494.87 589.03,493.65 591.26,492.42 593.49,491.16 595.71,489.88 597.93,488.59 600.14,487.27 602.35,485.93 604.55,484.57 606.74,483.19 608.93,481.79 611.11,480.36 613.29,478.92 615.46,477.45 617.62,475.96 619.77,474.45 621.91,472.92 624.05,471.36 626.18,469.78 628.29,468.18 630.40,466.55 632.50,464.90 634.59,463.23 636.67,461.53 638.74,459.81 640.80,458.07 642.84,456.30 644.87,454.50 646.89,452.68 648.90,450.84 650.90,448.97 652.88,447.07 654.84,445.15 656.80,443.20 658.73,441.23 660.65,439.23 662.56,437.20 664.44,435.15 666.31,433.07 668.17,430.96 670.00,428.82 671.81,426.66 673.61,424.47 675.38,422.25 677.13,420.00 "/>
</svg>
