<?xml version="1.0" encoding="UTF-8"?>
<svg xmlns="http://www.w3.org/2000/svg" width="800" height="600">
  <title>Y=x*x:-2,2:</title>
  <rect width="800" height="600" fill="#ffffff"/>
  <g stroke="#d0d0d0" stroke-width="1">
    <line x1="80.00" y1="540.00" x2="80.00" y2="60.00"/>
    <line x1="240.00" y1="540.00" x2="240.00" y2="60.00"/>
    <line x1="400.00" y1="540.00" x2="400.00" y2="60.00"/>
    <line x1="560.00" y1="540.00" x2="560.00" y2="60.00"/>
    <line x1="720.00" y1="540.00" x2="720.00" y2="60.00"/>
    <line x1="80.00" y1="540.00" x2="720.00" y2="540.00"/>
    <line x1="80.00" y1="420.00" x2="720.00" y2="420.00"/>
    <line x1="80.00" y1="300.00" x2="720.00" y2="300.00"/>
    <line x1="80.00" y1="180.00" x2="720.00" y2="180.00"/>
    <line x1="80.00" y1="60.00" x2="720.00" y2="60.00"/>
  </g>
  <g stroke="#e8e8e8" stroke-width="0.5">
    <line x1="112.00" y1="540.00" x2="112.00" y2="60.00"/>
    <line x1="144.00" y1="540.00" x2="144.00" y2="60.00"/>
    <line x1="176.00" y1="540.00" x2="176.00" y2="60.00"/>
    <line x1="208.00" y1="540.00" x2="208.00" y2="60.00"/>
    <line x1="272.00" y1="540.00" x2="272.00" y2="60.00"/>
    <line x1="304.00" y1="540.00" x2="304.00" y2="60.00"/>
    <line x1="336.00" y1="540.00" x2="336.00" y2="60.00"/>
    <line x1="368.00" y1="540.00" x2="368.00" y2="60.00"/>
    <line x1="432.00" y1="540.00" x2="432.00" y2="60.00"/>
    <line x1="464.00" y1="540.00" x2="464.00" y2="60.00"/>
    <line x1="496.00" y1="540.00" x2="496.00" y2="60.00"/>
    <line x1="528.00" y1="540.00" x2="528.00" y2="60.00"/>
    <line x1="592.00" y1="540.00" x2="592.00" y2="60.00"/>
    <line x1="624.00" y1="540.00" x2="624.00" y2="60.00"/>
    <line x1="656.00" y1="540.00" x2="656.00" y2="60.00"/>
    <line x1="688.00" y1="540.00" x2="688.00" y2="60.00"/>
    <line x1="80.00" y1="516.00" x2="720.00" y2="516.00"/>
    <line x1="80.00" y1="492.00" x2="720.00" y2="492.00"/>
    <line x1="80.00" y1="468.00" x2="720.00" y2="468.00"/>
    <line x1="80.00" y1="444.00" x2="720.00" y2="444.00"/>
    <line x1="80.00" y1="396.00" x2="720.00" y2="396.00"/>
    <line x1="80.00" y1="372.00" x2="720.00" y2="372.00"/>
    <line x1="80.00" y1="348.00" x2="720.00" y2="348.00"/>
    <line x1="80.00" y1="324.00" x2="720.00" y2="324.00"/>
    <line x1="80.00" y1="276.00" x2="720.00" y2="276.00"/>
    <line x1="80.00" y1="252.00" x2="720.00" y2="252.00"/>
    <line x1="80.00" y1="228.00" x2="720.00" y2="228.00"/>
    <line x1="80.00" y1="204.00" x2="720.00" y2="204.00"/>
    <line x1="80.00" y1="156.00" x2="720.00" y2="156.00"/>
    <line x1="80.00" y1="132.00" x2="720.00" y2="132.00"/>
    <line x1="80.00" y1="108.00" x2="720.00" y2="108.00"/>
    <line x1="80.00" y1="84.00" x2="720.00" y2="84.00"/>
  </g>
  <g stroke="#808080" stroke-width="2">
    <line x1="80.00" y1="540.00" x2="720.00" y2="540.00"/>
  </g>
  <polyline fill="none" stroke="#0066cc" stroke-width="2" points="80.00,60.00 81.28,63.84 82.57,67.66 83.85,71.47 85.13,75.27 86.41,79.05 87.70,82.81 88.98,86.56 90.26,90.29 91.54,94.00 92.83,97.71 94.11,101.39 95.39,105.06 96.67,108.72 97.96,112.36 99.24,115.98 100.52,119.59 101.80,123.18 103.09,126.76 104.37,130.32 105.65,133.87 106.93,137.40 108.22,140.92 109.50,144.42 110.78,147.90 112.06,151.37 113.35,154.83 114.63,158.27 115.91,161.69 117.19,165.10 118.48,168.49 119.76,171.87 121.04,175.23 122.32,178.58 123.61,181.91 124.89,185.22 126.17,188.52 127.45,191.81 128.74,195.08 130.02,198.33 131.30,201.57 132.59,204.79 133.87,208.00 135.15,211.19 136.43,214.37 137.72,217.53 139.00,220.68 140.28,223.81 141.56,226.92 142.85,230.02 144.13,233.11 145.41,236.18 146.69,239.23 147.98,242.27 149.26,245.29 150.54,248.30 151.82,251.29 153.11,254.27 154.39,257.23 155.67,260.17 156.95,263.10 158.24,266.02 159.52,268.92 160.80,271.80 162.08,274.67 163.37,277.52 164.65,280.36 165.93,283.18 167.21,285.99 168.50,288.78 169.78,291.56 171.06,294.32 172.34,297.06 173.63,299.79 174.91,302.51 176.19,305.20 177.47,307.89 178.76,310.56 180.04,313.21 181.32,315.85 182.61,318.47 183.89,321.07 185.17,323.66 186.45,326.24 187.74,328.80 189.02,331.34 190.30,333.87 191.58,336.39 192.87,338.89 194.15,341.37 195.43,343.84 196.71,346.29 198.00,348.72 199.28,351.15 200.56,353.55 201.84,355.94 203.13,358.32 204.41,360.68 205.69,363.02 206.97,365.35 208.26,367.66 209.54,369.96 210.82,372.24 212.10,374.51 213.39,376.76 214.67,379.00 215.95,381.22 217.23,383.42 218.52,385.61 219.80,387.79 221.08,389.95 222.36,392.09 223.65,394.22 224.93,396.33 226.21,398.43 227.49,400.51 228.78,402.58 230.06,404.63 231.34,406.66 232.63,408.68 233.91,410.69 235.19,412.68 236.47,414.65 237.76,416.61 239.04,418.55 240.32,420.48 241.60,422.39 242.89,424.29 244.17,426.17 245.45,428.04 246.73,429.89 248.02,431.72 249.30,433.54 250.58,435.35 251.86,437.14 253.15,438.91 254.43,440.67 255.71,442.41 256.99,444.14 258.28,445.85 259.56,447.55 260.84,449.23 262.12,450.89 263.41,452.54 264.69,454.18 265.97,455.80 267.25,457.40 268.54,458.99 269.82,460.56 271.10,462.12 272.38,463.66 273.67,465.19 274.95,466.70 276.23,468.20 277.52,469.68 278.80,471.14 280.08,472.59 281.36,474.03 282.65,475.44 283.93,476.85 285.21,478.24 286.49,479.61 287.78,480.97 289.06,482.31 290.34,483.63 291.62,484.94 292.91,486.24 294.19,487.52 295.47,488.78 296.75,490.03 298.04,491.27 299.32,492.49 300.60,493.69 301.88,494.88 303.17,496.05 304.45,497.20 305.73,498.35 307.01,499.47 308.30,500.58 309.58,501.68 310.86,502.76 312.14,503.82 313.43,504.87 314.71,505.90 315.99,506.92 317.27,507.92 318.56,508.91 319.84,509.88 321.12,510.84 322.40,511.78 323.69,512.70 324.97,513.61 326.25,514.51 327.54,515.39 328.82,516.25 330.10,517.10 331.38,517.93 332.67,518.75 333.95,519.55 335.23,520.34 336.51,521.11 337.80,521.86 339.08,522.60 340.36,523.33 341.64,524.04 342.93,524.73 344.21,525.41 345.49,526.07 346.77,526.72 348.06,527.35 349.34,527.97 350.62,528.57 351.90,529.16 353.19,529.73 354.47,530.28 355.75,530.82 357.03,531.35 358.32,531.86 359.60,532.35 360.88,532.83 362.16,533.29 363.45,533.74 364.73,534.17 366.01,534.59 367.29,534.99 368.58,535.37 369.86,535.74 371.14,536.10 372.42,536.44 373.71,536.76 374.99,537.07 376.27,537.36 377.56,537.64 378.84,537.90 380.12,538.15 381.40,538.38 382.69,538.60 383.97,538.80 385.25,538.98 386.53,539.15 387.82,539.31 389.10,539.44 390.38,539.57 391.66,539.68 392.95,539.77 394.23,539.85 395.51,539.91 396.79,539.95 398.08,539.98 399.36,540.00 400.64,540.00 401.92,539.98 403.21,539.95 404.49,539.91 405.77,539.85 407.05,539.77 408.34,539.68 409.62,539.57 410.90,539.44 412.18,539.31 413.47,539.15 414.75,538.98 416.03,538.80 417.31,538.60 418.60,538.38 419.88,538.15 421.16,537.90 422.44,537.64 423.73,537.36 425.01,537.07 426.29,536.76 427.58,536.44 428.86,536.10 430.14,535.74 431.42,535.37 432.71,534.99 433.99,534.59 435.27,534.17 436.55,533.74 437.84,533.29 439.12,532.83 440.40,532.35 441.68,531.86 442.97,531.35 444.25,530.82 445.53,530.28 446.81,529.73 448.10,529.16 449.38,528.57 450.66,527.97 451.94,527.35 453.23,526.72 454.51,526.07 455.79,525.41 457.07,524.73 458.36,524.04 459.64,523.33 460.92,522.60 462.20,521.86 463.49,521.11 464.77,520.34 466.05,519.55 467.33,518.75 468.62,517.93 469.90,517.10 471.18,516.25 472.46,515.39 473.75,514.51 475.03,513.61 476.31,512.70 477.60,511.78 478.88,510.84 480.16,509.88 481.44,508.91 482.73,507.92 484.01,506.92 485.29,505.90 486.57,504.87 487.86,503.82 489.14,502.76 490.42,501.68 491.70,500.58 492.99,499.47 494.27,498.35 495.55,497.20 496.83,496.05 498.12,494.88 499.40,493.69 500.68,492.49 501.96,491.27 503.25,490.03 504.53,488.78 505.81,487.52 507.09,486.24 508.38,484.94 509.66,483.63 510.94,482.31 512.22,480.97 513.51,479.61 514.79,478.24 516.07,476.85 517.35,475.44 518.64,474.03 519.92,472.59 521.20,471.14 522.48,469.68 523.77,468.20 525.05,466.70 526.33,465.19 527.62,463.66 528.90,462.12 530.18,460.56 531.46,458.99 532.75,457.40 534.03,455.80 535.31,454.18 536.59,452.54 537.88,450.89 539.16,449.23 540.44,447.55 541.72,445.85 543.01,444.14 544.29,442.41 545.57,440.67 546.85,438.91 548.14,437.14 549.42,435.35 550.70,433.54 551.98,431.72 553.27,429.89 554.55,428.04 555.83,426.17 557.11,424.29 558.40,422.39 559.68,420.48 560.96,418.55 562.24,416.61 563.53,414.65 564.81,412.68 566.09,410.69 567.37,408.68 568.66,406.66 569.94,404.63 571.22,402.58 572.51,400.51 573.79,398.43 575.07,396.33 576.35,394.22 577.64,392.09 578.92,389.95 580.20,387.79 581.48,385.61 582.77,383.42 584.05,381.22 585.33,379.00 586.61,376.76 587.90,374.51 589.18,372.24 590.46,369.96 591.74,367.66 593.03,365.35 594.31,363.02 595.59,360.68 596.87,358.32 598.16,355.94 599.44,353.55 600.72,351.15 602.00,348.72 603.29,346.29 604.57,343.84 605.85,341.37 607.13,338.89 608.42,336.39 609.70,333.87 610.98,331.34 612.26,328.80 613.55,326.24 614.83,323.66 616.11,321.07 617.39,318.47 618.68,315.85 619.96,313.21 621.24,310.56 622.53,307.89 623.81,305.20 625.09,302.51 626.37,299.79 627.66,297.06 628.94,294.32 630.22,291.56 631.50,288.78 632.79,285.99 634.07,283.18 635.35,280.36 636.63,277.52 637.92,274.67 639.20,271.80 640.48,268.92 641.76,266.02 643.05,263.10 644.33,260.17 645.61,257.23 646.89,254.27 648.18,251.29 649.46,248.30 650.74,245.29 652.02,242.27 653.31,239.23 654.59,236.18 655.87,233.11 657.15,230.02 658.44,226.92 659.72,223.81 661.00,220.68 662.28,217.53 663.57,214.37 664.85,211.19 666.13,208.00 667.41,204.79 668.70,201.57 669.98,198.33 671.26,195.08 672.55,191.81 673.83,188.52 675.11,185.22 676.39,181.91 677.68,178.58 678.96,175.23 680.24,171.87 681.52,168.49 682.81,165.10 684.09,161.69 685.37,158.27 686.65,154.83 687.94,151.37 689.22,147.90 690.50,144.42 691.78,140.92 693.07,137.40 694.35,133.87 695.63,130.32 696.91,126.76 698.20,123.18 699.48,119.59 700.76,115.98 702.04,112.36 703.33,108.72 704.61,105.06 705.89,101.39 707.17,97.71 708.46,94.00 709.74,90.29 711.02,86.56 712.30,82.81 713.59,79.05 714.87,75.27 716.15,71.47 717.43,67.66 718.72,63.84 720.00,60.00 "/>
</svg>
