<?xml version="1.0" encoding="UTF-8"?>
<svg xmlns="http://www.w3.org/2000/svg" width="800" height="600">
  <title>Y=x*x*x:-1.5,1.5:</title>
  <rect width="800" height="600" fill="#ffffff"/>
  <g stroke="#d0d0d0" stroke-width="1">
    <line x1="-26.67" y1="540.00" x2="-26.67" y2="60.00"/>
    <line x1="186.67" y1="540.00" x2="186.67" y2="60.00"/>
    <line x1="400.00" y1="540.00" x2="400.00" y2="60.00"/>
    <line x1="613.33" y1="540.00" x2="613.33" y2="60.00"/>
    <line x1="826.67" y1="540.00" x2="826.67" y2="60.00"/>
    <line x1="80.00" y1="584.44" x2="720.00" y2="584.44"/>
    <line x1="80.00" y1="513.33" x2="720.00" y2="513.33"/>
    <line x1="80.00" y1="442.22" x2="720.00" y2="442.22"/>
    <line x1="80.00" y1="371.11" x2="720.00" y2="371.11"/>
    <line x1="80.00" y1="300.00" x2="720.00" y2="300.00"/>
    <line x1="80.00" y1="228.89" x2="720.00" y2="228.89"/>
    <line x1="80.00" y1="157.78" x2="720.00" y2="157.78"/>
    <line x1="80.00" y1="86.67" x2="720.00" y2="86.67"/>
    <line x1="80.00" y1="15.56" x2="720.00" y2="15.56"/>
  </g>
  <g stroke="#e8e8e8" stroke-width="0.5">
    <line x1="101.33" y1="540.00" x2="101.33" y2="60.00"/>
    <line x1="144.00" y1="540.00" x2="144.00" y2="60.00"/>
    <line x1="229.33" y1="540.00" x2="229.33" y2="60.00"/>
    <line x1="272.00" y1="540.00" x2="272.00" y2="60.00"/>
    <line x1="314.67" y1="540.00" x2="314.67" y2="60.00"/>
    <line x1="357.33" y1="540.00" x2="357.33" y2="60.00"/>
    <line x1="442.67" y1="540.00" x2="442.67" y2="60.00"/>
    <line x1="485.33" y1="540.00" x2="485.33" y2="60.00"/>
    <line x1="528.00" y1="540.00" x2="528.00" y2="60.00"/>
    <line x1="570.67" y1="540.00" x2="570.67" y2="60.00"/>
    <line x1="656.00" y1="540.00" x2="656.00" y2="60.00"/>
    <line x1="698.67" y1="540.00" x2="698.67" y2="60.00"/>
    <line x1="80.00" y1="527.56" x2="720.00" y2="527.56"/>
    <line x1="80.00" y1="499.11" x2="720.00" y2="499.11"/>
    <line x1="80.00" y1="484.89" x2="720.00" y2="484.89"/>
    <line x1="80.00" y1="470.67" x2="720.00" y2="470.67"/>
    <line x1="80.00" y1="456.44" x2="720.00" y2="456.44"/>
    <line x1="80.00" y1="428.00" x2="720.00" y2="428.00"/>
    <line x1="80.00" y1="413.78" x2="720.00" y2="413.78"/>
    <line x1="80.00" y1="399.56" x2="720.00" y2="399.56"/>
    <line x1="80.00" y1="385.33" x2="720.00" y2="385.33"/>
    <line x1="80.00" y1="356.89" x2="720.00" y2="356.89"/>
    <line x1="80.00" y1="342.67" x2="720.00" y2="342.67"/>
    <line x1="80.00" y1="328.44" x2="720.00" y2="328.44"/>
    <line x1="80.00" y1="314.22" x2="720.00" y2="314.22"/>
    <line x1="80.00" y1="285.78" x2="720.00" y2="285.78"/>
    <line x1="80.00" y1="271.56" x2="720.00" y2="271.56"/>
    <line x1="80.00" y1="257.33" x2="720.00" y2="257.33"/>
    <line x1="80.00" y1="243.11" x2="720.00" y2="243.11"/>
    <line x1="80.00" y1="214.67" x2="720.00" y2="214.67"/>
    <line x1="80.00" y1="200.44" x2="720.00" y2="200.44"/>
    <line x1="80.00" y1="186.22" x2="720.00" y2="186.22"/>
    <line x1="80.00" y1="172.00" x2="720.00" y2="172.00"/>
    <line x1="80.00" y1="143.56" x2="720.00" y2="143.56"/>
    <line x1="80.00" y1="129.33" x2="720.00" y2="129.33"/>
    <line x1="80.00" y1="115.11" x2="720.00" y2="115.11"/>
    <line x1="80.00" y1="100.89" x2="720.00" y2="100.89"/>
    <line x1="80.00" y1="72.44" x2="720.00" y2="72.44"/>
  </g>
  <g stroke="#808080" stroke-width="2">
    <line x1="400.00" y1="540.00" x2="400.00" y2="60.00"/>
    <line x1="80.00" y1="300.00" x2="720.00" y2="300.00"/>
  </g>
  <polyline fill="none" stroke="#0066cc" stroke-width="2" points="80.00,540.00 81.28,537.13 82.57,534.27 83.85,531.45 85.13,528.64 86.41,525.86 87.70,523.10 88.98,520.36 90.26,517.65 91.54,514.95 92.83,512.28 94.11,509.64 95.39,507.01 96.67,504.41 97.96,501.82 99.24,499.26 100.52,496.73 101.80,494.21 103.09,491.71 104.37,489.24 105.65,486.79 106.93,484.36 108.22,481.95 109.50,479.56 110.78,477.19 112.06,474.84 113.35,472.52 114.63,470.21 115.91,467.93 117.19,465.66 118.48,463.42 119.76,461.20 121.04,458.99 122.32,456.81 123.61,454.65 124.89,452.50 126.17,450.38 127.45,448.28 128.74,446.19 130.02,444.13 131.30,442.09 132.59,440.06 133.87,438.06 135.15,436.07 136.43,434.10 137.72,432.15 139.00,430.22 140.28,428.31 141.56,426.42 142.85,424.55 144.13,422.70 145.41,420.86 146.69,419.04 147.98,417.24 149.26,415.46 150.54,413.70 151.82,411.95 153.11,410.23 154.39,408.52 155.67,406.83 156.95,405.15 158.24,403.50 159.52,401.86 160.80,400.24 162.08,398.64 163.37,397.05 164.65,395.48 165.93,393.93 167.21,392.39 168.50,390.87 169.78,389.37 171.06,387.88 172.34,386.42 173.63,384.96 174.91,383.53 176.19,382.11 177.47,380.70 178.76,379.32 180.04,377.95 181.32,376.59 182.61,375.25 183.89,373.93 185.17,372.62 186.45,371.33 187.74,370.05 189.02,368.79 190.30,367.54 191.58,366.31 192.87,365.09 194.15,363.89 195.43,362.70 196.71,361.53 198.00,360.37 199.28,359.23 200.56,358.10 201.84,356.99 203.13,355.89 204.41,354.80 205.69,353.73 206.97,352.68 208.26,351.63 209.54,350.60 210.82,349.59 212.10,348.59 213.39,347.60 214.67,346.62 215.95,345.66 217.23,344.71 218.52,343.78 219.80,342.86 221.08,341.95 222.36,341.05 223.65,340.17 224.93,339.30 226.21,338.44 227.49,337.60 228.78,336.77 230.06,335.95 231.34,335.14 232.63,334.34 233.91,333.56 235.19,332.79 236.47,332.03 237.76,331.28 239.04,330.54 240.32,329.82 241.60,329.11 242.89,328.41 244.17,327.72 245.45,327.04 246.73,326.37 248.02,325.71 249.30,325.07 250.58,324.43 251.86,323.81 253.15,323.20 254.43,322.59 255.71,322.00 256.99,321.42 258.28,320.85 259.56,320.29 260.84,319.74 262.12,319.20 263.41,318.67 264.69,318.14 265.97,317.63 267.25,317.13 268.54,316.64 269.82,316.16 271.10,315.69 272.38,315.22 273.67,314.77 274.95,314.32 276.23,313.89 277.52,313.46 278.80,313.04 280.08,312.63 281.36,312.23 282.65,311.84 283.93,311.45 285.21,311.08 286.49,310.71 287.78,310.35 289.06,310.00 290.34,309.66 291.62,309.32 292.91,309.00 294.19,308.68 295.47,308.37 296.75,308.06 298.04,307.76 299.32,307.47 300.60,307.19 301.88,306.92 303.17,306.65 304.45,306.39 305.73,306.14 307.01,305.89 308.30,305.65 309.58,305.41 310.86,305.19 312.14,304.97 313.43,304.75 314.71,304.54 315.99,304.34 317.27,304.15 318.56,303.96 319.84,303.77 321.12,303.59 322.40,303.42 323.69,303.25 324.97,303.09 326.25,302.94 327.54,302.79 328.82,302.64 330.10,302.50 331.38,302.37 332.67,302.24 333.95,302.11 335.23,301.99 336.51,301.87 337.80,301.76 339.08,301.66 340.36,301.55 341.64,301.46 342.93,301.36 344.21,301.27 345.49,301.19 346.77,301.10 348.06,301.03 349.34,300.95 350.62,300.88 351.90,300.81 353.19,300.75 354.47,300.69 355.75,300.63 357.03,300.58 358.32,300.53 359.60,300.48 360.88,300.44 362.16,300.40 363.45,300.36 364.73,300.32 366.01,300.29 367.29,300.26 368.58,300.23 369.86,300.20 371.14,300.18 372.42,300.15 373.71,300.13 374.99,300.11 376.27,300.10 377.56,300.08 378.84,300.07 380.12,300.06 381.40,300.05 382.69,300.04 383.97,300.03 385.25,300.02 386.53,300.02 387.82,300.01 389.10,300.01 390.38,300.01 391.66,300.00 392.95,300.00 394.23,300.00 395.51,300.00 396.79,300.00 398.08,300.00 399.36,300.00 400.64,300.00 401.92,300.00 403.21,300.00 404.49,300.00 405.77,300.00 407.05,300.00 408.34,300.00 409.62,299.99 410.90,299.99 412.18,299.99 413.47,299.98 414.75,299.98 416.03,299.97 417.31,299.96 418.60,299.95 419.88,299.94 421.16,299.93 422.44,299.92 423.73,299.90 425.01,299.89 426.29,299.87 427.58,299.85 428.86,299.82 430.14,299.80 431.42,299.77 432.71,299.74 433.99,299.71 435.27,299.68 436.55,299.64 437.84,299.60 439.12,299.56 440.40,299.52 441.68,299.47 442.97,299.42 444.25,299.37 445.53,299.31 446.81,299.25 448.10,299.19 449.38,299.12 450.66,299.05 451.94,298.97 453.23,298.90 454.51,298.81 455.79,298.73 457.07,298.64 458.36,298.54 459.64,298.45 460.92,298.34 462.20,298.24 463.49,298.13 464.77,298.01 466.05,297.89 467.33,297.76 468.62,297.63 469.90,297.50 471.18,297.36 472.46,297.21 473.75,297.06 475.03,296.91 476.31,296.75 477.60,296.58 478.88,296.41 480.16,296.23 481.44,296.04 482.73,295.85 484.01,295.66 485.29,295.46 486.57,295.25 487.86,295.03 489.14,294.81 490.42,294.59 491.70,294.35 492.99,294.11 494.27,293.86 495.55,293.61 496.83,293.35 498.12,293.08 499.40,292.81 500.68,292.53 501.96,292.24 503.25,291.94 504.53,291.63 505.81,291.32 507.09,291.00 508.38,290.68 509.66,290.34 510.94,290.00 512.22,289.65 513.51,289.29 514.79,288.92 516.07,288.55 517.35,288.16 518.64,287.77 519.92,287.37 521.20,286.96 522.48,286.54 523.77,286.11 525.05,285.68 526.33,285.23 527.62,284.78 528.90,284.31 530.18,283.84 531.46,283.36 532.75,282.87 534.03,282.37 535.31,281.86 536.59,281.33 537.88,280.80 539.16,280.26 540.44,279.71 541.72,279.15 543.01,278.58 544.29,278.00 545.57,277.41 546.85,276.80 548.14,276.19 549.42,275.57 550.70,274.93 551.98,274.29 553.27,273.63 554.55,272.96 555.83,272.28 557.11,271.59 558.40,270.89 559.68,270.18 560.96,269.46 562.24,268.72 563.53,267.97 564.81,267.21 566.09,266.44 567.37,265.66 568.66,264.86 569.94,264.05 571.22,263.23 572.51,262.40 573.79,261.56 575.07,260.70 576.35,259.83 577.64,258.95 578.92,258.05 580.20,257.14 581.48,256.22 582.77,255.29 584.05,254.34 585.33,253.38 586.61,252.40 587.90,251.41 589.18,250.41 590.46,249.40 591.74,248.37 593.03,247.32 594.31,246.27 595.59,245.20 596.87,244.11 598.16,243.01 599.44,241.90 600.72,240.77 602.00,239.63 603.29,238.47 604.57,237.30 605.85,236.11 607.13,234.91 608.42,233.69 609.70,232.46 610.98,231.21 612.26,229.95 613.55,228.67 614.83,227.38 616.11,226.07 617.39,224.75 618.68,223.41 619.96,222.05 621.24,220.68 622.53,219.30 623.81,217.89 625.09,216.47 626.37,215.04 627.66,213.58 628.94,212.12 630.22,210.63 631.50,209.13 632.79,207.61 634.07,206.07 635.35,204.52 636.63,202.95 637.92,201.36 639.20,199.76 640.48,198.14 641.76,196.50 643.05,194.85 644.33,193.17 645.61,191.48 646.89,189.77 648.18,188.05 649.46,186.30 650.74,184.54 652.02,182.76 653.31,180.96 654.59,179.14 655.87,177.30 657.15,175.45 658.44,173.58 659.72,171.69 661.00,169.78 662.28,167.85 663.57,165.90 664.85,163.93 666.13,161.94 667.41,159.94 668.70,157.91 669.98,155.87 671.26,153.81 672.55,151.72 673.83,149.62 675.11,147.50 676.39,145.35 677.68,143.19 678.96,141.01 680.24,138.80 681.52,136.58 682.81,134.34 684.09,132.07 685.37,129.79 686.65,127.48 687.94,125.16 689.22,122.81 690.50,120.44 691.78,118.05 693.07,115.64 694.35,113.21 695.63,110.76 696.91,108.29 698.20,105.79 699.48,103.27 700.76,100.74 702.04,98.18 703.33,95.59 704.61,92.99 705.89,90.36 707.17,87.72 708.46,85.05 709.74,82.35 711.02,79.64 712.30,76.90 713.59,74.14 714.87,71.36 716.15,68.55 717.43,65.73 718.72,62.87 720.00,60.00 "/>
</svg>
