<?xml version="1.0" encoding="UTF-8"?>
<svg xmlns="http://www.w3.org/2000/svg" width="800" height="600">
  <title>Y=1/x:-4,4:</title>
  <rect width="800" height="600" fill="#ffffff"/>
  <g stroke="#d0d0d0" stroke-width="1">
    <line x1="80.00" y1="540.00" x2="80.00" y2="60.00"/>
    <line x1="160.00" y1="540.00" x2="160.00" y2="60.00"/>
    <line x1="240.00" y1="540.00" x2="240.00" y2="60.00"/>
    <line x1="320.00" y1="540.00" x2="320.00" y2="60.00"/>
    <line x1="400.00" y1="540.00" x2="400.00" y2="60.00"/>
    <line x1="480.00" y1="540.00" x2="480.00" y2="60.00"/>
    <line x1="560.00" y1="540.00" x2="560.00" y2="60.00"/>
    <line x1="640.00" y1="540.00" x2="640.00" y2="60.00"/>
    <line x1="720.00" y1="540.00" x2="720.00" y2="60.00"/>
    <line x1="80.00" y1="540.48" x2="720.00" y2="540.48"/>
    <line x1="80.00" y1="538.56" x2="720.00" y2="538.56"/>
    <line x1="80.00" y1="536.63" x2="720.00" y2="536.63"/>
    <line x1="80.00" y1="534.71" x2="720.00" y2="534.71"/>
    <line x1="80.00" y1="532.79" x2="720.00" y2="532.79"/>
    <line x1="80.00" y1="530.86" x2="720.00" y2="530.86"/>
    <line x1="80.00" y1="528.94" x2="720.00" y2="528.94"/>
    <line x1="80.00" y1="527.01" x2="720.00" y2="527.01"/>
    <line x1="80.00" y1="525.09" x2="720.00" y2="525.09"/>
    <line x1="80.00" y1="523.17" x2="720.00" y2="523.17"/>
    <line x1="80.00" y1="521.24" x2="720.00" y2="521.24"/>
    <line x1="80.00" y1="519.32" x2="720.00" y2="519.32"/>
    <line x1="80.00" y1="517.39" x2="720.00" y2="517.39"/>
    <line x1="80.00" y1="515.47" x2="720.00" y2="515.47"/>
    <line x1="80.00" y1="513.55" x2="720.00" y2="513.55"/>
    <line x1="80.00" y1="511.62" x2="720.00" y2="511.62"/>
    <line x1="80.00" y1="509.70" x2="720.00" y2="509.70"/>
    <line x1="80.00" y1="507.78" x2="720.00" y2="507.78"/>
    <line x1="80.00" y1="505.85" x2="720.00" y2="505.85"/>
    <line x1="80.00" y1="503.93" x2="720.00" y2="503.93"/>
    <line x1="80.00" y1="502.00" x2="720.00" y2="502.00"/>
    <line x1="80.00" y1="500.08" x2="720.00" y2="500.08"/>
    <line x1="80.00" y1="498.16" x2="720.00" y2="498.16"/>
    <line x1="80.00" y1="496.23" x2="720.00" y2="496.23"/>
    <line x1="80.00" y1="494.31" x2="720.00" y2="494.31"/>
    <line x1="80.00" y1="492.38" x2="720.00" y2="492.38"/>
    <line x1="80.00" y1="490.46" x2="720.00" y2="490.46"/>
    <line x1="80.00" y1="488.54" x2="720.00" y2="488.54"/>
    <line x1="80.00" y1="486.61" x2="720.00" y2="486.61"/>
    <line x1="80.00" y1="484.69" x2="720.00" y2="484.69"/>
    <line x1="80.00" y1="482.77" x2="720.00" y2="482.77"/>
    <line x1="80.00" y1="480.84" x2="720.00" y2="480.84"/>
    <line x1="80.00" y1="478.92" x2="720.00" y2="478.92"/>
    <line x1="80.00" y1="476.99" x2="720.00" y2="476.99"/>
    <line x1="80.00" y1="475.07" x2="720.00" y2="475.07"/>
    <line x1="80.00" y1="473.15" x2="720.00" y2="473.15"/>
    <line x1="80.00" y1="471.22" x2="720.00" y2="471.22"/>
    <line x1="80.00" y1="469.30" x2="720.00" y2="469.30"/>
    <line x1="80.00" y1="467.37" x2="720.00" y2="467.37"/>
    <line x1="80.00" y1="465.45" x2="720.00" y2="465.45"/>
    <line x1="80.00" y1="463.53" x2="720.00" y2="463.53"/>
    <line x1="80.00" y1="461.60" x2="720.00" y2="461.60"/>
    <line x1="80.00" y1="459.68" x2="720.00" y2="459.68"/>
    <line x1="80.00" y1="457.76" x2="720.00" y2="457.76"/>
    <line x1="80.00" y1="455.83" x2="720.00" y2="455.83"/>
    <line x1="80.00" y1="453.91" x2="720.00" y2="453.91"/>
    <line x1="80.00" y1="451.98" x2="720.00" y2="451.98"/>
    <line x1="80.00" y1="450.06" x2="720.00" y2="450.06"/>
    <line x1="80.00" y1="448.14" x2="720.00" y2="448.14"/>
    <line x1="80.00" y1="446.21" x2="720.00" y2="446.21"/>
    <line x1="80.00" y1="444.29" x2="720.00" y2="444.29"/>
    <line x1="80.00" y1="442.36" x2="720.00" y2="442.36"/>
    <line x1="80.00" y1="440.44" x2="720.00" y2="440.44"/>
    <line x1="80.00" y1="438.52" x2="720.00" y2="438.52"/>
    <line x1="80.00" y1="436.59" x2="720.00" y2="436.59"/>
    <line x1="80.00" y1="434.67" x2="720.00" y2="434.67"/>
    <line x1="80.00" y1="432.75" x2="720.00" y2="432.75"/>
    <line x1="80.00" y1="430.82" x2="720.00" y2="430.82"/>
    <line x1="80.00" y1="428.90" x2="720.00" y2="428.90"/>
    <line x1="80.00" y1="426.97" x2="720.00" y2="426.97"/>
    <line x1="80.00" y1="425.05" x2="720.00" y2="425.05"/>
    <line x1="80.00" y1="423.13" x2="720.00" y2="423.13"/>
    <line x1="80.00" y1="421.20" x2="720.00" y2="421.20"/>
    <line x1="80.00" y1="419.28" x2="720.00" y2="419.28"/>
    <line x1="80.00" y1="417.35" x2="720.00" y2="417.35"/>
    <line x1="80.00" y1="415.43" x2="720.00" y2="415.43"/>
    <line x1="80.00" y1="413.51" x2="720.00" y2="413.51"/>
    <line x1="80.00" y1="411.58" x2="720.00" y2="411.58"/>
    <line x1="80.00" y1="409.66" x2="720.00" y2="409.66"/>
    <line x1="80.00" y1="407.74" x2="720.00" y2="407.74"/>
    <line x1="80.00" y1="405.81" x2="720.00" y2="405.81"/>
    <line x1="80.00" y1="403.89" x2="720.00" y2="403.89"/>
    <line x1="80.00" y1="401.96" x2="720.00" y2="401.96"/>
    <line x1="80.00" y1="400.04" x2="720.00" y2="400.04"/>
    <line x1="80.00" y1="398.12" x2="720.00" y2="398.12"/>
    <line x1="80.00" y1="396.19" x2="720.00" y2="396.19"/>
    <line x1="80.00" y1="394.27" x2="720.00" y2="394.27"/>
    <line x1="80.00" y1="392.34" x2="720.00" y2="392.34"/>
    <line x1="80.00" y1="390.42" x2="720.00" y2="390.42"/>
    <line x1="80.00" y1="388.50" x2="720.00" y2="388.50"/>
    <line x1="80.00" y1="386.57" x2="720.00" y2="386.57"/>
    <line x1="80.00" y1="384.65" x2="720.00" y2="384.65"/>
    <line x1="80.00" y1="382.73" x2="720.00" y2="382.73"/>
    <line x1="80.00" y1="380.80" x2="720.00" y2="380.80"/>
    <line x1="80.00" y1="378.88" x2="720.00" y2="378.88"/>
    <line x1="80.00" y1="376.95" x2="720.00" y2="376.95"/>
    <line x1="80.00" y1="375.03" x2="720.00" y2="375.03"/>
    <line x1="80.00" y1="373.11" x2="720.00" y2="373.11"/>
    <line x1="80.00" y1="371.18" x2="720.00" y2="371.18"/>
    <line x1="80.00" y1="369.26" x2="720.00" y2="369.26"/>
    <line x1="80.00" y1="367.33" x2="720.00" y2="367.33"/>
    <line x1="80.00" y1="365.41" x2="720.00" y2="365.41"/>
    <line x1="80.00" y1="363.49" x2="720.00" y2="363.49"/>
    <line x1="80.00" y1="361.56" x2="720.00" y2="361.56"/>
    <line x1="80.00" y1="359.64" x2="720.00" y2="359.64"/>
    <line x1="80.00" y1="357.72" x2="720.00" y2="357.72"/>
    <line x1="80.00" y1="355.79" x2="720.00" y2="355.79"/>
    <line x1="80.00" y1="353.87" x2="720.00" y2="353.87"/>
    <line x1="80.00" y1="351.94" x2="720.00" y2="351.94"/>
    <line x1="80.00" y1="350.02" x2="720.00" y2="350.02"/>
    <line x1="80.00" y1="348.10" x2="720.00" y2="348.10"/>
    <line x1="80.00" y1="346.17" x2="720.00" y2="346.17"/>
    <line x1="80.00" y1="344.25" x2="720.00" y2="344.25"/>
    <line x1="80.00" y1="342.32" x2="720.00" y2="342.32"/>
    <line x1="80.00" y1="340.40" x2="720.00" y2="340.40"/>
    <line x1="80.00" y1="338.48" x2="720.00" y2="338.48"/>
    <line x1="80.00" y1="336.55" x2="720.00" y2="336.55"/>
    <line x1="80.00" y1="334.63" x2="720.00" y2="334.63"/>
    <line x1="80.00" y1="332.71" x2="720.00" y2="332.71"/>
    <line x1="80.00" y1="330.78" x2="720.00" y2="330.78"/>
    <line x1="80.00" y1="328.86" x2="720.00" y2="328.86"/>
    <line x1="80.00" y1="326.93" x2="720.00" y2="326.93"/>
    <line x1="80.00" y1="325.01" x2="720.00" y2="325.01"/>
    <line x1="80.00" y1="323.09" x2="720.00" y2="323.09"/>
    <line x1="80.00" y1="321.16" x2="720.00" y2="321.16"/>
    <line x1="80.00" y1="319.24" x2="720.00" y2="319.24"/>
    <line x1="80.00" y1="317.31" x2="720.00" y2="317.31"/>
    <line x1="80.00" y1="315.39" x2="720.00" y2="315.39"/>
    <line x1="80.00" y1="313.47" x2="720.00" y2="313.47"/>
    <line x1="80.00" y1="311.54" x2="720.00" y2="311.54"/>
    <line x1="80.00" y1="309.62" x2="720.00" y2="309.62"/>
    <line x1="80.00" y1="307.70" x2="720.00" y2="307.70"/>
    <line x1="80.00" y1="305.77" x2="720.00" y2="305.77"/>
    <line x1="80.00" y1="303.85" x2="720.00" y2="303.85"/>
    <line x1="80.00" y1="301.92" x2="720.00" y2="301.92"/>
    <line x1="80.00" y1="300.00" x2="720.00" y2="300.00"/>
    <line x1="80.00" y1="298.08" x2="720.00" y2="298.08"/>
    <line x1="80.00" y1="296.15" x2="720.00" y2="296.15"/>
    <line x1="80.00" y1="294.23" x2="720.00" y2="294.23"/>
    <line x1="80.00" y1="292.30" x2="720.00" y2="292.30"/>
    <line x1="80.00" y1="290.38" x2="720.00" y2="290.38"/>
    <line x1="80.00" y1="288.46" x2="720.00" y2="288.46"/>
    <line x1="80.00" y1="286.53" x2="720.00" y2="286.53"/>
    <line x1="80.00" y1="284.61" x2="720.00" y2="284.61"/>
    <line x1="80.00" y1="282.69" x2="720.00" y2="282.69"/>
    <line x1="80.00" y1="280.76" x2="720.00" y2="280.76"/>
    <line x1="80.00" y1="278.84" x2="720.00" y2="278.84"/>
    <line x1="80.00" y1="276.91" x2="720.00" y2="276.91"/>
    <line x1="80.00" y1="274.99" x2="720.00" y2="274.99"/>
    <line x1="80.00" y1="273.07" x2="720.00" y2="273.07"/>
    <line x1="80.00" y1="271.14" x2="720.00" y2="271.14"/>
    <line x1="80.00" y1="269.22" x2="720.00" y2="269.22"/>
    <line x1="80.00" y1="267.29" x2="720.00" y2="267.29"/>
    <line x1="80.00" y1="265.37" x2="720.00" y2="265.37"/>
    <line x1="80.00" y1="263.45" x2="720.00" y2="263.45"/>
    <line x1="80.00" y1="261.52" x2="720.00" y2="261.52"/>
    <line x1="80.00" y1="259.60" x2="720.00" y2="259.60"/>
    <line x1="80.00" y1="257.68" x2="720.00" y2="257.68"/>
    <line x1="80.00" y1="255.75" x2="720.00" y2="255.75"/>
    <line x1="80.00" y1="253.83" x2="720.00" y2="253.83"/>
    <line x1="80.00" y1="251.90" x2="720.00" y2="251.90"/>
    <line x1="80.00" y1="249.98" x2="720.00" y2="249.98"/>
    <line x1="80.00" y1="248.06" x2="720.00" y2="248.06"/>
    <line x1="80.00" y1="246.13" x2="720.00" y2="246.13"/>
    <line x1="80.00" y1="244.21" x2="720.00" y2="244.21"/>
    <line x1="80.00" y1="242.28" x2="720.00" y2="242.28"/>
    <line x1="80.00" y1="240.36" x2="720.00" y2="240.36"/>
    <line x1="80.00" y1="238.44" x2="720.00" y2="238.44"/>
    <line x1="80.00" y1="236.51" x2="720.00" y2="236.51"/>
    <line x1="80.00" y1="234.59" x2="720.00" y2="234.59"/>
    <line x1="80.00" y1="232.67" x2="720.00" y2="232.67"/>
    <line x1="80.00" y1="230.74" x2="720.00" y2="230.74"/>
    <line x1="80.00" y1="228.82" x2="720.00" y2="228.82"/>
    <line x1="80.00" y1="226.89" x2="720.00" y2="226.89"/>
    <line x1="80.00" y1="224.97" x2="720.00" y2="224.97"/>
    <line x1="80.00" y1="223.05" x2="720.00" y2="223.05"/>
    <line x1="80.00" y1="221.12" x2="720.00" y2="221.12"/>
    <line x1="80.00" y1="219.20" x2="720.00" y2="219.20"/>
    <line x1="80.00" y1="217.27" x2="720.00" y2="217.27"/>
    <line x1="80.00" y1="215.35" x2="720.00" y2="215.35"/>
    <line x1="80.00" y1="213.43" x2="720.00" y2="213.43"/>
    <line x1="80.00" y1="211.50" x2="720.00" y2="211.50"/>
    <line x1="80.00" y1="209.58" x2="720.00" y2="209.58"/>
    <line x1="80.00" y1="207.66" x2="720.00" y2="207.66"/>
    <line x1="80.00" y1="205.73" x2="720.00" y2="205.73"/>
    <line x1="80.00" y1="203.81" x2="720.00" y2="203.81"/>
    <line x1="80.00" y1="201.88" x2="720.00" y2="201.88"/>
    <line x1="80.00" y1="199.96" x2="720.00" y2="199.96"/>
    <line x1="80.00" y1="198.04" x2="720.00" y2="198.04"/>
    <line x1="80.00" y1="196.11" x2="720.00" y2="196.11"/>
    <line x1="80.00" y1="194.19" x2="720.00" y2="194.19"/>
    <line x1="80.00" y1="192.26" x2="720.00" y2="192.26"/>
    <line x1="80.00" y1="190.34" x2="720.00" y2="190.34"/>
    <line x1="80.00" y1="188.42" x2="720.00" y2="188.42"/>
    <line x1="80.00" y1="186.49" x2="720.00" y2="186.49"/>
    <line x1="80.00" y1="184.57" x2="720.00" y2="184.57"/>
    <line x1="80.00" y1="182.65" x2="720.00" y2="182.65"/>
    <line x1="80.00" y1="180.72" x2="720.00" y2="180.72"/>
    <line x1="80.00" y1="178.80" x2="720.00" y2="178.80"/>
    <line x1="80.00" y1="176.87" x2="720.00" y2="176.87"/>
    <line x1="80.00" y1="174.95" x2="720.00" y2="174.95"/>
    <line x1="80.00" y1="173.03" x2="720.00" y2="173.03"/>
    <line x1="80.00" y1="171.10" x2="720.00" y2="171.10"/>
    <line x1="80.00" y1="169.18" x2="720.00" y2="169.18"/>
    <line x1="80.00" y1="167.25" x2="720.00" y2="167.25"/>
    <line x1="80.00" y1="165.33" x2="720.00" y2="165.33"/>
    <line x1="80.00" y1="163.41" x2="720.00" y2="163.41"/>
    <line x1="80.00" y1="161.48" x2="720.00" y2="161.48"/>
    <line x1="80.00" y1="159.56" x2="720.00" y2="159.56"/>
    <line x1="80.00" y1="157.64" x2="720.00" y2="157.64"/>
    <line x1="80.00" y1="155.71" x2="720.00" y2="155.71"/>
    <line x1="80.00" y1="153.79" x2="720.00" y2="153.79"/>
    <line x1="80.00" y1="151.86" x2="720.00" y2="151.86"/>
    <line x1="80.00" y1="149.94" x2="720.00" y2="149.94"/>
    <line x1="80.00" y1="148.02" x2="720.00" y2="148.02"/>
    <line x1="80.00" y1="146.09" x2="720.00" y2="146.09"/>
    <line x1="80.00" y1="144.17" x2="720.00" y2="144.17"/>
    <line x1="80.00" y1="142.24" x2="720.00" y2="142.24"/>
    <line x1="80.00" y1="140.32" x2="720.00" y2="140.32"/>
    <line x1="80.00" y1="138.40" x2="720.00" y2="138.40"/>
    <line x1="80.00" y1="136.47" x2="720.00" y2="136.47"/>
    <line x1="80.00" y1="134.55" x2="720.00" y2="134.55"/>
    <line x1="80.00" y1="132.63" x2="720.00" y2="132.63"/>
    <line x1="80.00" y1="130.70" x2="720.00" y2="130.70"/>
    <line x1="80.00" y1="128.78" x2="720.00" y2="128.78"/>
    <line x1="80.00" y1="126.85" x2="720.00" y2="126.85"/>
    <line x1="80.00" y1="124.93" x2="720.00" y2="124.93"/>
    <line x1="80.00" y1="123.01" x2="720.00" y2="123.01"/>
    <line x1="80.00" y1="121.08" x2="720.00" y2="121.08"/>
    <line x1="80.00" y1="119.16" x2="720.00" y2="119.16"/>
    <line x1="80.00" y1="117.23" x2="720.00" y2="117.23"/>
    <line x1="80.00" y1="115.31" x2="720.00" y2="115.31"/>
    <line x1="80.00" y1="113.39" x2="720.00" y2="113.39"/>
    <line x1="80.00" y1="111.46" x2="720.00" y2="111.46"/>
    <line x1="80.00" y1="109.54" x2="720.00" y2="109.54"/>
    <line x1="80.00" y1="107.62" x2="720.00" y2="107.62"/>
    <line x1="80.00" y1="105.69" x2="720.00" y2="105.69"/>
    <line x1="80.00" y1="103.77" x2="720.00" y2="103.77"/>
    <line x1="80.00" y1="101.84" x2="720.00" y2="101.84"/>
    <line x1="80.00" y1="99.92" x2="720.00" y2="99.92"/>
    <line x1="80.00" y1="98.00" x2="720.00" y2="98.00"/>
    <line x1="80.00" y1="96.07" x2="720.00" y2="96.07"/>
    <line x1="80.00" y1="94.15" x2="720.00" y2="94.15"/>
    <line x1="80.00" y1="92.22" x2="720.00" y2="92.22"/>
    <line x1="80.00" y1="90.30" x2="720.00" y2="90.30"/>
    <line x1="80.00" y1="88.38" x2="720.00" y2="88.38"/>
    <line x1="80.00" y1="86.45" x2="720.00" y2="86.45"/>
    <line x1="80.00" y1="84.53" x2="720.00" y2="84.53"/>
    <line x1="80.00" y1="82.61" x2="720.00" y2="82.61"/>
    <line x1="80.00" y1="80.68" x2="720.00" y2="80.68"/>
    <line x1="80.00" y1="78.76" x2="720.00" y2="78.76"/>
    <line x1="80.00" y1="76.83" x2="720.00" y2="76.83"/>
    <line x1="80.00" y1="74.91" x2="720.00" y2="74.91"/>
    <line x1="80.00" y1="72.99" x2="720.00" y2="72.99"/>
    <line x1="80.00" y1="71.06" x2="720.00" y2="71.06"/>
    <line x1="80.00" y1="69.14" x2="720.00" y2="69.14"/>
    <line x1="80.00" y1="67.21" x2="720.00" y2="67.21"/>
    <line x1="80.00" y1="65.29" x2="720.00" y2="65.29"/>
    <line x1="80.00" y1="63.37" x2="720.00" y2="63.37"/>
    <line x1="80.00" y1="61.44" x2="720.00" y2="61.44"/>
    <line x1="80.00" y1="59.52" x2="720.00" y2="59.52"/>
  </g>
  <g stroke="#e8e8e8" stroke-width="0.5">
    <line x1="96.00" y1="540.00" x2="96.00" y2="60.00"/>
    <line x1="112.00" y1="540.00" x2="112.00" y2="60.00"/>
    <line x1="128.00" y1="540.00" x2="128.00" y2="60.00"/>
    <line x1="144.00" y1="540.00" x2="144.00" y2="60.00"/>
    <line x1="176.00" y1="540.00" x2="176.00" y2="60.00"/>
    <line x1="192.00" y1="540.00" x2="192.00" y2="60.00"/>
    <line x1="208.00" y1="540.00" x2="208.00" y2="60.00"/>
    <line x1="224.00" y1="540.00" x2="224.00" y2="60.00"/>
    <line x1="256.00" y1="540.00" x2="256.00" y2="60.00"/>
    <line x1="272.00" y1="540.00" x2="272.00" y2="60.00"/>
    <line x1="288.00" y1="540.00" x2="288.00" y2="60.00"/>
    <line x1="304.00" y1="540.00" x2="304.00" y2="60.00"/>
    <line x1="336.00" y1="540.00" x2="336.00" y2="60.00"/>
    <line x1="352.00" y1="540.00" x2="352.00" y2="60.00"/>
    <line x1="368.00" y1="540.00" x2="368.00" y2="60.00"/>
    <line x1="384.00" y1="540.00" x2="384.00" y2="60.00"/>
    <line x1="416.00" y1="540.00" x2="416.00" y2="60.00"/>
    <line x1="432.00" y1="540.00" x2="432.00" y2="60.00"/>
    <line x1="448.00" y1="540.00" x2="448.00" y2="60.00"/>
    <line x1="464.00" y1="540.00" x2="464.00" y2="60.00"/>
    <line x1="496.00" y1="540.00" x2="496.00" y2="60.00"/>
    <line x1="512.00" y1="540.00" x2="512.00" y2="60.00"/>
    <line x1="528.00" y1="540.00" x2="528.00" y2="60.00"/>
    <line x1="544.00" y1="540.00" x2="544.00" y2="60.00"/>
    <line x1="576.00" y1="540.00" x2="576.00" y2="60.00"/>
    <line x1="592.00" y1="540.00" x2="592.00" y2="60.00"/>
    <line x1="608.00" y1="540.00" x2="608.00" y2="60.00"/>
    <line x1="624.00" y1="540.00" x2="624.00" y2="60.00"/>
    <line x1="656.00" y1="540.00" x2="656.00" y2="60.00"/>
    <line x1="672.00" y1="540.00" x2="672.00" y2="60.00"/>
    <line x1="688.00" y1="540.00" x2="688.00" y2="60.00"/>
    <line x1="704.00" y1="540.00" x2="704.00" y2="60.00"/>
    <line x1="80.00" y1="539.71" x2="720.00" y2="539.71"/>
    <line x1="80.00" y1="539.33" x2="720.00" y2="539.33"/>
    <line x1="80.00" y1="538.94" x2="720.00" y2="538.94"/>
    <line x1="80.00" y1="538.17" x2="720.00" y2="538.17"/>
    <line x1="80.00" y1="537.79" x2="720.00" y2="537.79"/>
    <line x1="80.00" y1="537.40" x2="720.00" y2="537.40"/>
    <line x1="80.00" y1="537.02" x2="720.00" y2="537.02"/>
    <line x1="80.00" y1="536.25" x2="720.00" y2="536.25"/>
    <line x1="80.00" y1="535.86" x2="720.00" y2="535.86"/>
    <line x1="80.00" y1="535.48" x2="720.00" y2="535.48"/>
    <line x1="80.00" y1="535.09" x2="720.00" y2="535.09"/>
    <line x1="80.00" y1="534.32" x2="720.00" y2="534.32"/>
    <line x1="80.00" y1="533.94" x2="720.00" y2="533.94"/>
    <line x1="80.00" y1="533.56" x2="720.00" y2="533.56"/>
    <line x1="80.00" y1="533.17" x2="720.00" y2="533.17"/>
    <line x1="80.00" y1="532.40" x2="720.00" y2="532.40"/>
    <line x1="80.00" y1="532.02" x2="720.00" y2="532.02"/>
    <line x1="80.00" y1="531.63" x2="720.00" y2="531.63"/>
    <line x1="80.00" y1="531.25" x2="720.00" y2="531.25"/>
    <line x1="80.00" y1="530.48" x2="720.00" y2="530.48"/>
    <line x1="80.00" y1="530.09" x2="720.00" y2="530.09"/>
    <line x1="80.00" y1="529.71" x2="720.00" y2="529.71"/>
    <line x1="80.00" y1="529.32" x2="720.00" y2="529.32"/>
    <line x1="80.00" y1="528.55" x2="720.00" y2="528.55"/>
    <line x1="80.00" y1="528.17" x2="720.00" y2="528.17"/>
    <line x1="80.00" y1="527.78" x2="720.00" y2="527.78"/>
    <line x1="80.00" y1="527.40" x2="720.00" y2="527.40"/>
    <line x1="80.00" y1="526.63" x2="720.00" y2="526.63"/>
    <line x1="80.00" y1="526.24" x2="720.00" y2="526.24"/>
    <line x1="80.00" y1="525.86" x2="720.00" y2="525.86"/>
    <line x1="80.00" y1="525.47" x2="720.00" y2="525.47"/>
    <line x1="80.00" y1="524.71" x2="720.00" y2="524.71"/>
    <line x1="80.00" y1="524.32" x2="720.00" y2="524.32"/>
    <line x1="80.00" y1="523.94" x2="720.00" y2="523.94"/>
    <line x1="80.00" y1="523.55" x2="720.00" y2="523.55"/>
    <line x1="80.00" y1="522.78" x2="720.00" y2="522.78"/>
    <line x1="80.00" y1="522.40" x2="720.00" y2="522.40"/>
    <line x1="80.00" y1="522.01" x2="720.00" y2="522.01"/>
    <line x1="80.00" y1="521.63" x2="720.00" y2="521.63"/>
    <line x1="80.00" y1="520.86" x2="720.00" y2="520.86"/>
    <line x1="80.00" y1="520.47" x2="720.00" y2="520.47"/>
    <line x1="80.00" y1="520.09" x2="720.00" y2="520.09"/>
    <line x1="80.00" y1="519.70" x2="720.00" y2="519.70"/>
    <line x1="80.00" y1="518.93" x2="720.00" y2="518.93"/>
    <line x1="80.00" y1="518.55" x2="720.00" y2="518.55"/>
    <line x1="80.00" y1="518.16" x2="720.00" y2="518.16"/>
    <line x1="80.00" y1="517.78" x2="720.00" y2="517.78"/>
    <line x1="80.00" y1="517.01" x2="720.00" y2="517.01"/>
    <line x1="80.00" y1="516.63" x2="720.00" y2="516.63"/>
    <line x1="80.00" y1="516.24" x2="720.00" y2="516.24"/>
    <line x1="80.00" y1="515.86" x2="720.00" y2="515.86"/>
    <line x1="80.00" y1="515.09" x2="720.00" y2="515.09"/>
    <line x1="80.00" y1="514.70" x2="720.00" y2="514.70"/>
    <line x1="80.00" y1="514.32" x2="720.00" y2="514.32"/>
    <line x1="80.00" y1="513.93" x2="720.00" y2="513.93"/>
    <line x1="80.00" y1="513.16" x2="720.00" y2="513.16"/>
    <line x1="80.00" y1="512.78" x2="720.00" y2="512.78"/>
    <line x1="80.00" y1="512.39" x2="720.00" y2="512.39"/>
    <line x1="80.00" y1="512.01" x2="720.00" y2="512.01"/>
    <line x1="80.00" y1="511.24" x2="720.00" y2="511.24"/>
    <line x1="80.00" y1="510.85" x2="720.00" y2="510.85"/>
    <line x1="80.00" y1="510.47" x2="720.00" y2="510.47"/>
    <line x1="80.00" y1="510.08" x2="720.00" y2="510.08"/>
    <line x1="80.00" y1="509.31" x2="720.00" y2="509.31"/>
    <line x1="80.00" y1="508.93" x2="720.00" y2="508.93"/>
    <line x1="80.00" y1="508.55" x2="720.00" y2="508.55"/>
    <line x1="80.00" y1="508.16" x2="720.00" y2="508.16"/>
    <line x1="80.00" y1="507.39" x2="720.00" y2="507.39"/>
    <line x1="80.00" y1="507.01" x2="720.00" y2="507.01"/>
    <line x1="80.00" y1="506.62" x2="720.00" y2="506.62"/>
    <line x1="80.00" y1="506.24" x2="720.00" y2="506.24"/>
    <line x1="80.00" y1="505.47" x2="720.00" y2="505.47"/>
    <line x1="80.00" y1="505.08" x2="720.00" y2="505.08"/>
    <line x1="80.00" y1="504.70" x2="720.00" y2="504.70"/>
    <line x1="80.00" y1="504.31" x2="720.00" y2="504.31"/>
    <line x1="80.00" y1="503.54" x2="720.00" y2="503.54"/>
    <line x1="80.00" y1="503.16" x2="720.00" y2="503.16"/>
    <line x1="80.00" y1="502.77" x2="720.00" y2="502.77"/>
    <line x1="80.00" y1="502.39" x2="720.00" y2="502.39"/>
    <line x1="80.00" y1="501.62" x2="720.00" y2="501.62"/>
    <line x1="80.00" y1="501.23" x2="720.00" y2="501.23"/>
    <line x1="80.00" y1="500.85" x2="720.00" y2="500.85"/>
    <line x1="80.00" y1="500.46" x2="720.00" y2="500.46"/>
    <line x1="80.00" y1="499.70" x2="720.00" y2="499.70"/>
    <line x1="80.00" y1="499.31" x2="720.00" y2="499.31"/>
    <line x1="80.00" y1="498.93" x2="720.00" y2="498.93"/>
    <line x1="80.00" y1="498.54" x2="720.00" y2="498.54"/>
    <line x1="80.00" y1="497.77" x2="720.00" y2="497.77"/>
    <line x1="80.00" y1="497.39" x2="720.00" y2="497.39"/>
    <line x1="80.00" y1="497.00" x2="720.00" y2="497.00"/>
    <line x1="80.00" y1="496.62" x2="720.00" y2="496.62"/>
    <line x1="80.00" y1="495.85" x2="720.00" y2="495.85"/>
    <line x1="80.00" y1="495.46" x2="720.00" y2="495.46"/>
    <line x1="80.00" y1="495.08" x2="720.00" y2="495.08"/>
    <line x1="80.00" y1="494.69" x2="720.00" y2="494.69"/>
    <line x1="80.00" y1="493.92" x2="720.00" y2="493.92"/>
    <line x1="80.00" y1="493.54" x2="720.00" y2="493.54"/>
    <line x1="80.00" y1="493.15" x2="720.00" y2="493.15"/>
    <line x1="80.00" y1="492.77" x2="720.00" y2="492.77"/>
    <line x1="80.00" y1="492.00" x2="720.00" y2="492.00"/>
    <line x1="80.00" y1="491.62" x2="720.00" y2="491.62"/>
    <line x1="80.00" y1="491.23" x2="720.00" y2="491.23"/>
    <line x1="80.00" y1="490.85" x2="720.00" y2="490.85"/>
    <line x1="80.00" y1="490.08" x2="720.00" y2="490.08"/>
    <line x1="80.00" y1="489.69" x2="720.00" y2="489.69"/>
    <line x1="80.00" y1="489.31" x2="720.00" y2="489.31"/>
    <line x1="80.00" y1="488.92" x2="720.00" y2="488.92"/>
    <line x1="80.00" y1="488.15" x2="720.00" y2="488.15"/>
    <line x1="80.00" y1="487.77" x2="720.00" y2="487.77"/>
    <line x1="80.00" y1="487.38" x2="720.00" y2="487.38"/>
    <line x1="80.00" y1="487.00" x2="720.00" y2="487.00"/>
    <line x1="80.00" y1="486.23" x2="720.00" y2="486.23"/>
    <line x1="80.00" y1="485.84" x2="720.00" y2="485.84"/>
    <line x1="80.00" y1="485.46" x2="720.00" y2="485.46"/>
    <line x1="80.00" y1="485.07" x2="720.00" y2="485.07"/>
    <line x1="80.00" y1="484.30" x2="720.00" y2="484.30"/>
    <line x1="80.00" y1="483.92" x2="720.00" y2="483.92"/>
    <line x1="80.00" y1="483.54" x2="720.00" y2="483.54"/>
    <line x1="80.00" y1="483.15" x2="720.00" y2="483.15"/>
    <line x1="80.00" y1="482.38" x2="720.00" y2="482.38"/>
    <line x1="80.00" y1="482.00" x2="720.00" y2="482.00"/>
    <line x1="80.00" y1="481.61" x2="720.00" y2="481.61"/>
    <line x1="80.00" y1="481.23" x2="720.00" y2="481.23"/>
    <line x1="80.00" y1="480.46" x2="720.00" y2="480.46"/>
    <line x1="80.00" y1="480.07" x2="720.00" y2="480.07"/>
    <line x1="80.00" y1="479.69" x2="720.00" y2="479.69"/>
    <line x1="80.00" y1="479.30" x2="720.00" y2="479.30"/>
    <line x1="80.00" y1="478.53" x2="720.00" y2="478.53"/>
    <line x1="80.00" y1="478.15" x2="720.00" y2="478.15"/>
    <line x1="80.00" y1="477.76" x2="720.00" y2="477.76"/>
    <line x1="80.00" y1="477.38" x2="720.00" y2="477.38"/>
    <line x1="80.00" y1="476.61" x2="720.00" y2="476.61"/>
    <line x1="80.00" y1="476.22" x2="720.00" y2="476.22"/>
    <line x1="80.00" y1="475.84" x2="720.00" y2="475.84"/>
    <line x1="80.00" y1="475.45" x2="720.00" y2="475.45"/>
    <line x1="80.00" y1="474.69" x2="720.00" y2="474.69"/>
    <line x1="80.00" y1="474.30" x2="720.00" y2="474.30"/>
    <line x1="80.00" y1="473.92" x2="720.00" y2="473.92"/>
    <line x1="80.00" y1="473.53" x2="720.00" y2="473.53"/>
    <line x1="80.00" y1="472.76" x2="720.00" y2="472.76"/>
    <line x1="80.00" y1="472.38" x2="720.00" y2="472.38"/>
    <line x1="80.00" y1="471.99" x2="720.00" y2="471.99"/>
    <line x1="80.00" y1="471.61" x2="720.00" y2="471.61"/>
    <line x1="80.00" y1="470.84" x2="720.00" y2="470.84"/>
    <line x1="80.00" y1="470.45" x2="720.00" y2="470.45"/>
    <line x1="80.00" y1="470.07" x2="720.00" y2="470.07"/>
    <line x1="80.00" y1="469.68" x2="720.00" y2="469.68"/>
    <line x1="80.00" y1="468.91" x2="720.00" y2="468.91"/>
    <line x1="80.00" y1="468.53" x2="720.00" y2="468.53"/>
    <line x1="80.00" y1="468.14" x2="720.00" y2="468.14"/>
    <line x1="80.00" y1="467.76" x2="720.00" y2="467.76"/>
    <line x1="80.00" y1="466.99" x2="720.00" y2="466.99"/>
    <line x1="80.00" y1="466.61" x2="720.00" y2="466.61"/>
    <line x1="80.00" y1="466.22" x2="720.00" y2="466.22"/>
    <line x1="80.00" y1="465.84" x2="720.00" y2="465.84"/>
    <line x1="80.00" y1="465.07" x2="720.00" y2="465.07"/>
    <line x1="80.00" y1="464.68" x2="720.00" y2="464.68"/>
    <line x1="80.00" y1="464.30" x2="720.00" y2="464.30"/>
    <line x1="80.00" y1="463.91" x2="720.00" y2="463.91"/>
    <line x1="80.00" y1="463.14" x2="720.00" y2="463.14"/>
    <line x1="80.00" y1="462.76" x2="720.00" y2="462.76"/>
    <line x1="80.00" y1="462.37" x2="720.00" y2="462.37"/>
    <line x1="80.00" y1="461.99" x2="720.00" y2="461.99"/>
    <line x1="80.00" y1="461.22" x2="720.00" y2="461.22"/>
    <line x1="80.00" y1="460.83" x2="720.00" y2="460.83"/>
    <line x1="80.00" y1="460.45" x2="720.00" y2="460.45"/>
    <line x1="80.00" y1="460.06" x2="720.00" y2="460.06"/>
    <line x1="80.00" y1="459.29" x2="720.00" y2="459.29"/>
    <line x1="80.00" y1="458.91" x2="720.00" y2="458.91"/>
    <line x1="80.00" y1="458.53" x2="720.00" y2="458.53"/>
    <line x1="80.00" y1="458.14" x2="720.00" y2="458.14"/>
    <line x1="80.00" y1="457.37" x2="720.00" y2="457.37"/>
    <line x1="80.00" y1="456.99" x2="720.00" y2="456.99"/>
    <line x1="80.00" y1="456.60" x2="720.00" y2="456.60"/>
    <line x1="80.00" y1="456.22" x2="720.00" y2="456.22"/>
    <line x1="80.00" y1="455.45" x2="720.00" y2="455.45"/>
    <line x1="80.00" y1="455.06" x2="720.00" y2="455.06"/>
    <line x1="80.00" y1="454.68" x2="720.00" y2="454.68"/>
    <line x1="80.00" y1="454.29" x2="720.00" y2="454.29"/>
    <line x1="80.00" y1="453.52" x2="720.00" y2="453.52"/>
    <line x1="80.00" y1="453.14" x2="720.00" y2="453.14"/>
    <line x1="80.00" y1="452.75" x2="720.00" y2="452.75"/>
    <line x1="80.00" y1="452.37" x2="720.00" y2="452.37"/>
    <line x1="80.00" y1="451.60" x2="720.00" y2="451.60"/>
    <line x1="80.00" y1="451.21" x2="720.00" y2="451.21"/>
    <line x1="80.00" y1="450.83" x2="720.00" y2="450.83"/>
    <line x1="80.00" y1="450.44" x2="720.00" y2="450.44"/>
    <line x1="80.00" y1="449.68" x2="720.00" y2="449.68"/>
    <line x1="80.00" y1="449.29" x2="720.00" y2="449.29"/>
    <line x1="80.00" y1="448.91" x2="720.00" y2="448.91"/>
    <line x1="80.00" y1="448.52" x2="720.00" y2="448.52"/>
    <line x1="80.00" y1="447.75" x2="720.00" y2="447.75"/>
    <line x1="80.00" y1="447.37" x2="720.00" y2="447.37"/>
    <line x1="80.00" y1="446.98" x2="720.00" y2="446.98"/>
    <line x1="80.00" y1="446.60" x2="720.00" y2="446.60"/>
    <line x1="80.00" y1="445.83" x2="720.00" y2="445.83"/>
    <line x1="80.00" y1="445.44" x2="720.00" y2="445.44"/>
    <line x1="80.00" y1="445.06" x2="720.00" y2="445.06"/>
    <line x1="80.00" y1="444.67" x2="720.00" y2="444.67"/>
    <line x1="80.00" y1="443.90" x2="720.00" y2="443.90"/>
    <line x1="80.00" y1="443.52" x2="720.00" y2="443.52"/>
    <line x1="80.00" y1="443.13" x2="720.00" y2="443.13"/>
    <line x1="80.00" y1="442.75" x2="720.00" y2="442.75"/>
    <line x1="80.00" y1="441.98" x2="720.00" y2="441.98"/>
    <line x1="80.00" y1="441.60" x2="720.00" y2="441.60"/>
    <line x1="80.00" y1="441.21" x2="720.00" y2="441.21"/>
    <line x1="80.00" y1="440.83" x2="720.00" y2="440.83"/>
    <line x1="80.00" y1="440.06" x2="720.00" y2="440.06"/>
    <line x1="80.00" y1="439.67" x2="720.00" y2="439.67"/>
    <line x1="80.00" y1="439.29" x2="720.00" y2="439.29"/>
    <line x1="80.00" y1="438.90" x2="720.00" y2="438.90"/>
    <line x1="80.00" y1="438.13" x2="720.00" y2="438.13"/>
    <line x1="80.00" y1="437.75" x2="720.00" y2="437.75"/>
    <line x1="80.00" y1="437.36" x2="720.00" y2="437.36"/>
    <line x1="80.00" y1="436.98" x2="720.00" y2="436.98"/>
    <line x1="80.00" y1="436.21" x2="720.00" y2="436.21"/>
    <line x1="80.00" y1="435.82" x2="720.00" y2="435.82"/>
    <line x1="80.00" y1="435.44" x2="720.00" y2="435.44"/>
    <line x1="80.00" y1="435.05" x2="720.00" y2="435.05"/>
    <line x1="80.00" y1="434.28" x2="720.00" y2="434.28"/>
    <line x1="80.00" y1="433.90" x2="720.00" y2="433.90"/>
    <line x1="80.00" y1="433.52" x2="720.00" y2="433.52"/>
    <line x1="80.00" y1="433.13" x2="720.00" y2="433.13"/>
    <line x1="80.00" y1="432.36" x2="720.00" y2="432.36"/>
    <line x1="80.00" y1="431.98" x2="720.00" y2="431.98"/>
    <line x1="80.00" y1="431.59" x2="720.00" y2="431.59"/>
    <line x1="80.00" y1="431.21" x2="720.00" y2="431.21"/>
    <line x1="80.00" y1="430.44" x2="720.00" y2="430.44"/>
    <line x1="80.00" y1="430.05" x2="720.00" y2="430.05"/>
    <line x1="80.00" y1="429.67" x2="720.00" y2="429.67"/>
    <line x1="80.00" y1="429.28" x2="720.00" y2="429.28"/>
    <line x1="80.00" y1="428.51" x2="720.00" y2="428.51"/>
    <line x1="80.00" y1="428.13" x2="720.00" y2="428.13"/>
    <line x1="80.00" y1="427.74" x2="720.00" y2="427.74"/>
    <line x1="80.00" y1="427.36" x2="720.00" y2="427.36"/>
    <line x1="80.00" y1="426.59" x2="720.00" y2="426.59"/>
    <line x1="80.00" y1="426.20" x2="720.00" y2="426.20"/>
    <line x1="80.00" y1="425.82" x2="720.00" y2="425.82"/>
    <line x1="80.00" y1="425.43" x2="720.00" y2="425.43"/>
    <line x1="80.00" y1="424.67" x2="720.00" y2="424.67"/>
    <line x1="80.00" y1="424.28" x2="720.00" y2="424.28"/>
    <line x1="80.00" y1="423.90" x2="720.00" y2="423.90"/>
    <line x1="80.00" y1="423.51" x2="720.00" y2="423.51"/>
    <line x1="80.00" y1="422.74" x2="720.00" y2="422.74"/>
    <line x1="80.00" y1="422.36" x2="720.00" y2="422.36"/>
    <line x1="80.00" y1="421.97" x2="720.00" y2="421.97"/>
    <line x1="80.00" y1="421.59" x2="720.00" y2="421.59"/>
    <line x1="80.00" y1="420.82" x2="720.00" y2="420.82"/>
    <line x1="80.00" y1="420.43" x2="720.00" y2="420.43"/>
    <line x1="80.00" y1="420.05" x2="720.00" y2="420.05"/>
    <line x1="80.00" y1="419.66" x2="720.00" y2="419.66"/>
    <line x1="80.00" y1="418.89" x2="720.00" y2="418.89"/>
    <line x1="80.00" y1="418.51" x2="720.00" y2="418.51"/>
    <line x1="80.00" y1="418.12" x2="720.00" y2="418.12"/>
    <line x1="80.00" y1="417.74" x2="720.00" y2="417.74"/>
    <line x1="80.00" y1="416.97" x2="720.00" y2="416.97"/>
    <line x1="80.00" y1="416.59" x2="720.00" y2="416.59"/>
    <line x1="80.00" y1="416.20" x2="720.00" y2="416.20"/>
    <line x1="80.00" y1="415.82" x2="720.00" y2="415.82"/>
    <line x1="80.00" y1="415.05" x2="720.00" y2="415.05"/>
    <line x1="80.00" y1="414.66" x2="720.00" y2="414.66"/>
    <line x1="80.00" y1="414.28" x2="720.00" y2="414.28"/>
    <line x1="80.00" y1="413.89" x2="720.00" y2="413.89"/>
    <line x1="80.00" y1="413.12" x2="720.00" y2="413.12"/>
    <line x1="80.00" y1="412.74" x2="720.00" y2="412.74"/>
    <line x1="80.00" y1="412.35" x2="720.00" y2="412.35"/>
    <line x1="80.00" y1="411.97" x2="720.00" y2="411.97"/>
    <line x1="80.00" y1="411.20" x2="720.00" y2="411.20"/>
    <line x1="80.00" y1="410.81" x2="720.00" y2="410.81"/>
    <line x1="80.00" y1="410.43" x2="720.00" y2="410.43"/>
    <line x1="80.00" y1="410.04" x2="720.00" y2="410.04"/>
    <line x1="80.00" y1="409.27" x2="720.00" y2="409.27"/>
    <line x1="80.00" y1="408.89" x2="720.00" y2="408.89"/>
    <line x1="80.00" y1="408.51" x2="720.00" y2="408.51"/>
    <line x1="80.00" y1="408.12" x2="720.00" y2="408.12"/>
    <line x1="80.00" y1="407.35" x2="720.00" y2="407.35"/>
    <line x1="80.00" y1="406.97" x2="720.00" y2="406.97"/>
    <line x1="80.00" y1="406.58" x2="720.00" y2="406.58"/>
    <line x1="80.00" y1="406.20" x2="720.00" y2="406.20"/>
    <line x1="80.00" y1="405.43" x2="720.00" y2="405.43"/>
    <line x1="80.00" y1="405.04" x2="720.00" y2="405.04"/>
    <line x1="80.00" y1="404.66" x2="720.00" y2="404.66"/>
    <line x1="80.00" y1="404.27" x2="720.00" y2="404.27"/>
    <line x1="80.00" y1="403.50" x2="720.00" y2="403.50"/>
    <line x1="80.00" y1="403.12" x2="720.00" y2="403.12"/>
    <line x1="80.00" y1="402.73" x2="720.00" y2="402.73"/>
    <line x1="80.00" y1="402.35" x2="720.00" y2="402.35"/>
    <line x1="80.00" y1="401.58" x2="720.00" y2="401.58"/>
    <line x1="80.00" y1="401.19" x2="720.00" y2="401.19"/>
    <line x1="80.00" y1="400.81" x2="720.00" y2="400.81"/>
    <line x1="80.00" y1="400.42" x2="720.00" y2="400.42"/>
    <line x1="80.00" y1="399.66" x2="720.00" y2="399.66"/>
    <line x1="80.00" y1="399.27" x2="720.00" y2="399.27"/>
    <line x1="80.00" y1="398.89" x2="720.00" y2="398.89"/>
    <line x1="80.00" y1="398.50" x2="720.00" y2="398.50"/>
    <line x1="80.00" y1="397.73" x2="720.00" y2="397.73"/>
    <line x1="80.00" y1="397.35" x2="720.00" y2="397.35"/>
    <line x1="80.00" y1="396.96" x2="720.00" y2="396.96"/>
    <line x1="80.00" y1="396.58" x2="720.00" y2="396.58"/>
    <line x1="80.00" y1="395.81" x2="720.00" y2="395.81"/>
    <line x1="80.00" y1="395.42" x2="720.00" y2="395.42"/>
    <line x1="80.00" y1="395.04" x2="720.00" y2="395.04"/>
    <line x1="80.00" y1="394.65" x2="720.00" y2="394.65"/>
    <line x1="80.00" y1="393.88" x2="720.00" y2="393.88"/>
    <line x1="80.00" y1="393.50" x2="720.00" y2="393.50"/>
    <line x1="80.00" y1="393.11" x2="720.00" y2="393.11"/>
    <line x1="80.00" y1="392.73" x2="720.00" y2="392.73"/>
    <line x1="80.00" y1="391.96" x2="720.00" y2="391.96"/>
    <line x1="80.00" y1="391.58" x2="720.00" y2="391.58"/>
    <line x1="80.00" y1="391.19" x2="720.00" y2="391.19"/>
    <line x1="80.00" y1="390.81" x2="720.00" y2="390.81"/>
    <line x1="80.00" y1="390.04" x2="720.00" y2="390.04"/>
    <line x1="80.00" y1="389.65" x2="720.00" y2="389.65"/>
    <line x1="80.00" y1="389.27" x2="720.00" y2="389.27"/>
    <line x1="80.00" y1="388.88" x2="720.00" y2="388.88"/>
    <line x1="80.00" y1="388.11" x2="720.00" y2="388.11"/>
    <line x1="80.00" y1="387.73" x2="720.00" y2="387.73"/>
    <line x1="80.00" y1="387.34" x2="720.00" y2="387.34"/>
    <line x1="80.00" y1="386.96" x2="720.00" y2="386.96"/>
    <line x1="80.00" y1="386.19" x2="720.00" y2="386.19"/>
    <line x1="80.00" y1="385.80" x2="720.00" y2="385.80"/>
    <line x1="80.00" y1="385.42" x2="720.00" y2="385.42"/>
    <line x1="80.00" y1="385.03" x2="720.00" y2="385.03"/>
    <line x1="80.00" y1="384.26" x2="720.00" y2="384.26"/>
    <line x1="80.00" y1="383.88" x2="720.00" y2="383.88"/>
    <line x1="80.00" y1="383.49" x2="720.00" y2="383.49"/>
    <line x1="80.00" y1="383.11" x2="720.00" y2="383.11"/>
    <line x1="80.00" y1="382.34" x2="720.00" y2="382.34"/>
    <line x1="80.00" y1="381.96" x2="720.00" y2="381.96"/>
    <line x1="80.00" y1="381.57" x2="720.00" y2="381.57"/>
    <line x1="80.00" y1="381.19" x2="720.00" y2="381.19"/>
    <line x1="80.00" y1="380.42" x2="720.00" y2="380.42"/>
    <line x1="80.00" y1="380.03" x2="720.00" y2="380.03"/>
    <line x1="80.00" y1="379.65" x2="720.00" y2="379.65"/>
    <line x1="80.00" y1="379.26" x2="720.00" y2="379.26"/>
    <line x1="80.00" y1="378.49" x2="720.00" y2="378.49"/>
    <line x1="80.00" y1="378.11" x2="720.00" y2="378.11"/>
    <line x1="80.00" y1="377.72" x2="720.00" y2="377.72"/>
    <line x1="80.00" y1="377.34" x2="720.00" y2="377.34"/>
    <line x1="80.00" y1="376.57" x2="720.00" y2="376.57"/>
    <line x1="80.00" y1="376.18" x2="720.00" y2="376.18"/>
    <line x1="80.00" y1="375.80" x2="720.00" y2="375.80"/>
    <line x1="80.00" y1="375.41" x2="720.00" y2="375.41"/>
    <line x1="80.00" y1="374.65" x2="720.00" y2="374.65"/>
    <line x1="80.00" y1="374.26" x2="720.00" y2="374.26"/>
    <line x1="80.00" y1="373.88" x2="720.00" y2="373.88"/>
    <line x1="80.00" y1="373.49" x2="720.00" y2="373.49"/>
    <line x1="80.00" y1="372.72" x2="720.00" y2="372.72"/>
    <line x1="80.00" y1="372.34" x2="720.00" y2="372.34"/>
    <line x1="80.00" y1="371.95" x2="720.00" y2="371.95"/>
    <line x1="80.00" y1="371.57" x2="720.00" y2="371.57"/>
    <line x1="80.00" y1="370.80" x2="720.00" y2="370.80"/>
    <line x1="80.00" y1="370.41" x2="720.00" y2="370.41"/>
    <line x1="80.00" y1="370.03" x2="720.00" y2="370.03"/>
    <line x1="80.00" y1="369.64" x2="720.00" y2="369.64"/>
    <line x1="80.00" y1="368.87" x2="720.00" y2="368.87"/>
    <line x1="80.00" y1="368.49" x2="720.00" y2="368.49"/>
    <line x1="80.00" y1="368.10" x2="720.00" y2="368.10"/>
    <line x1="80.00" y1="367.72" x2="720.00" y2="367.72"/>
    <line x1="80.00" y1="366.95" x2="720.00" y2="366.95"/>
    <line x1="80.00" y1="366.57" x2="720.00" y2="366.57"/>
    <line x1="80.00" y1="366.18" x2="720.00" y2="366.18"/>
    <line x1="80.00" y1="365.80" x2="720.00" y2="365.80"/>
    <line x1="80.00" y1="365.03" x2="720.00" y2="365.03"/>
    <line x1="80.00" y1="364.64" x2="720.00" y2="364.64"/>
    <line x1="80.00" y1="364.26" x2="720.00" y2="364.26"/>
    <line x1="80.00" y1="363.87" x2="720.00" y2="363.87"/>
    <line x1="80.00" y1="363.10" x2="720.00" y2="363.10"/>
    <line x1="80.00" y1="362.72" x2="720.00" y2="362.72"/>
    <line x1="80.00" y1="362.33" x2="720.00" y2="362.33"/>
    <line x1="80.00" y1="361.95" x2="720.00" y2="361.95"/>
    <line x1="80.00" y1="361.18" x2="720.00" y2="361.18"/>
    <line x1="80.00" y1="360.79" x2="720.00" y2="360.79"/>
    <line x1="80.00" y1="360.41" x2="720.00" y2="360.41"/>
    <line x1="80.00" y1="360.02" x2="720.00" y2="360.02"/>
    <line x1="80.00" y1="359.25" x2="720.00" y2="359.25"/>
    <line x1="80.00" y1="358.87" x2="720.00" y2="358.87"/>
    <line x1="80.00" y1="358.48" x2="720.00" y2="358.48"/>
    <line x1="80.00" y1="358.10" x2="720.00" y2="358.10"/>
    <line x1="80.00" y1="357.33" x2="720.00" y2="357.33"/>
    <line x1="80.00" y1="356.95" x2="720.00" y2="356.95"/>
    <line x1="80.00" y1="356.56" x2="720.00" y2="356.56"/>
    <line x1="80.00" y1="356.18" x2="720.00" y2="356.18"/>
    <line x1="80.00" y1="355.41" x2="720.00" y2="355.41"/>
    <line x1="80.00" y1="355.02" x2="720.00" y2="355.02"/>
    <line x1="80.00" y1="354.64" x2="720.00" y2="354.64"/>
    <line x1="80.00" y1="354.25" x2="720.00" y2="354.25"/>
    <line x1="80.00" y1="353.48" x2="720.00" y2="353.48"/>
    <line x1="80.00" y1="353.10" x2="720.00" y2="353.10"/>
    <line x1="80.00" y1="352.71" x2="720.00" y2="352.71"/>
    <line x1="80.00" y1="352.33" x2="720.00" y2="352.33"/>
    <line x1="80.00" y1="351.56" x2="720.00" y2="351.56"/>
    <line x1="80.00" y1="351.17" x2="720.00" y2="351.17"/>
    <line x1="80.00" y1="350.79" x2="720.00" y2="350.79"/>
    <line x1="80.00" y1="350.40" x2="720.00" y2="350.40"/>
    <line x1="80.00" y1="349.64" x2="720.00" y2="349.64"/>
    <line x1="80.00" y1="349.25" x2="720.00" y2="349.25"/>
    <line x1="80.00" y1="348.87" x2="720.00" y2="348.87"/>
    <line x1="80.00" y1="348.48" x2="720.00" y2="348.48"/>
    <line x1="80.00" y1="347.71" x2="720.00" y2="347.71"/>
    <line x1="80.00" y1="347.33" x2="720.00" y2="347.33"/>
    <line x1="80.00" y1="346.94" x2="720.00" y2="346.94"/>
    <line x1="80.00" y1="346.56" x2="720.00" y2="346.56"/>
    <line x1="80.00" y1="345.79" x2="720.00" y2="345.79"/>
    <line x1="80.00" y1="345.40" x2="720.00" y2="345.40"/>
    <line x1="80.00" y1="345.02" x2="720.00" y2="345.02"/>
    <line x1="80.00" y1="344.63" x2="720.00" y2="344.63"/>
    <line x1="80.00" y1="343.86" x2="720.00" y2="343.86"/>
    <line x1="80.00" y1="343.48" x2="720.00" y2="343.48"/>
    <line x1="80.00" y1="343.09" x2="720.00" y2="343.09"/>
    <line x1="80.00" y1="342.71" x2="720.00" y2="342.71"/>
    <line x1="80.00" y1="341.94" x2="720.00" y2="341.94"/>
    <line x1="80.00" y1="341.56" x2="720.00" y2="341.56"/>
    <line x1="80.00" y1="341.17" x2="720.00" y2="341.17"/>
    <line x1="80.00" y1="340.79" x2="720.00" y2="340.79"/>
    <line x1="80.00" y1="340.02" x2="720.00" y2="340.02"/>
    <line x1="80.00" y1="339.63" x2="720.00" y2="339.63"/>
    <line x1="80.00" y1="339.25" x2="720.00" y2="339.25"/>
    <line x1="80.00" y1="338.86" x2="720.00" y2="338.86"/>
    <line x1="80.00" y1="338.09" x2="720.00" y2="338.09"/>
    <line x1="80.00" y1="337.71" x2="720.00" y2="337.71"/>
    <line x1="80.00" y1="337.32" x2="720.00" y2="337.32"/>
    <line x1="80.00" y1="336.94" x2="720.00" y2="336.94"/>
    <line x1="80.00" y1="336.17" x2="720.00" y2="336.17"/>
    <line x1="80.00" y1="335.78" x2="720.00" y2="335.78"/>
    <line x1="80.00" y1="335.40" x2="720.00" y2="335.40"/>
    <line x1="80.00" y1="335.01" x2="720.00" y2="335.01"/>
    <line x1="80.00" y1="334.24" x2="720.00" y2="334.24"/>
    <line x1="80.00" y1="333.86" x2="720.00" y2="333.86"/>
    <line x1="80.00" y1="333.47" x2="720.00" y2="333.47"/>
    <line x1="80.00" y1="333.09" x2="720.00" y2="333.09"/>
    <line x1="80.00" y1="332.32" x2="720.00" y2="332.32"/>
    <line x1="80.00" y1="331.94" x2="720.00" y2="331.94"/>
    <line x1="80.00" y1="331.55" x2="720.00" y2="331.55"/>
    <line x1="80.00" y1="331.17" x2="720.00" y2="331.17"/>
    <line x1="80.00" y1="330.40" x2="720.00" y2="330.40"/>
    <line x1="80.00" y1="330.01" x2="720.00" y2="330.01"/>
    <line x1="80.00" y1="329.63" x2="720.00" y2="329.63"/>
    <line x1="80.00" y1="329.24" x2="720.00" y2="329.24"/>
    <line x1="80.00" y1="328.47" x2="720.00" y2="328.47"/>
    <line x1="80.00" y1="328.09" x2="720.00" y2="328.09"/>
    <line x1="80.00" y1="327.70" x2="720.00" y2="327.70"/>
    <line x1="80.00" y1="327.32" x2="720.00" y2="327.32"/>
    <line x1="80.00" y1="326.55" x2="720.00" y2="326.55"/>
    <line x1="80.00" y1="326.16" x2="720.00" y2="326.16"/>
    <line x1="80.00" y1="325.78" x2="720.00" y2="325.78"/>
    <line x1="80.00" y1="325.39" x2="720.00" y2="325.39"/>
    <line x1="80.00" y1="324.63" x2="720.00" y2="324.63"/>
    <line x1="80.00" y1="324.24" x2="720.00" y2="324.24"/>
    <line x1="80.00" y1="323.86" x2="720.00" y2="323.86"/>
    <line x1="80.00" y1="323.47" x2="720.00" y2="323.47"/>
    <line x1="80.00" y1="322.70" x2="720.00" y2="322.70"/>
    <line x1="80.00" y1="322.32" x2="720.00" y2="322.32"/>
    <line x1="80.00" y1="321.93" x2="720.00" y2="321.93"/>
    <line x1="80.00" y1="321.55" x2="720.00" y2="321.55"/>
    <line x1="80.00" y1="320.78" x2="720.00" y2="320.78"/>
    <line x1="80.00" y1="320.39" x2="720.00" y2="320.39"/>
    <line x1="80.00" y1="320.01" x2="720.00" y2="320.01"/>
    <line x1="80.00" y1="319.62" x2="720.00" y2="319.62"/>
    <line x1="80.00" y1="318.85" x2="720.00" y2="318.85"/>
    <line x1="80.00" y1="318.47" x2="720.00" y2="318.47"/>
    <line x1="80.00" y1="318.08" x2="720.00" y2="318.08"/>
    <line x1="80.00" y1="317.70" x2="720.00" y2="317.70"/>
    <line x1="80.00" y1="316.93" x2="720.00" y2="316.93"/>
    <line x1="80.00" y1="316.55" x2="720.00" y2="316.55"/>
    <line x1="80.00" y1="316.16" x2="720.00" y2="316.16"/>
    <line x1="80.00" y1="315.78" x2="720.00" y2="315.78"/>
    <line x1="80.00" y1="315.01" x2="720.00" y2="315.01"/>
    <line x1="80.00" y1="314.62" x2="720.00" y2="314.62"/>
    <line x1="80.00" y1="314.24" x2="720.00" y2="314.24"/>
    <line x1="80.00" y1="313.85" x2="720.00" y2="313.85"/>
    <line x1="80.00" y1="313.08" x2="720.00" y2="313.08"/>
    <line x1="80.00" y1="312.70" x2="720.00" y2="312.70"/>
    <line x1="80.00" y1="312.31" x2="720.00" y2="312.31"/>
    <line x1="80.00" y1="311.93" x2="720.00" y2="311.93"/>
    <line x1="80.00" y1="311.16" x2="720.00" y2="311.16"/>
    <line x1="80.00" y1="310.77" x2="720.00" y2="310.77"/>
    <line x1="80.00" y1="310.39" x2="720.00" y2="310.39"/>
    <line x1="80.00" y1="310.00" x2="720.00" y2="310.00"/>
    <line x1="80.00" y1="309.23" x2="720.00" y2="309.23"/>
    <line x1="80.00" y1="308.85" x2="720.00" y2="308.85"/>
    <line x1="80.00" y1="308.46" x2="720.00" y2="308.46"/>
    <line x1="80.00" y1="308.08" x2="720.00" y2="308.08"/>
    <line x1="80.00" y1="307.31" x2="720.00" y2="307.31"/>
    <line x1="80.00" y1="306.93" x2="720.00" y2="306.93"/>
    <line x1="80.00" y1="306.54" x2="720.00" y2="306.54"/>
    <line x1="80.00" y1="306.16" x2="720.00" y2="306.16"/>
    <line x1="80.00" y1="305.39" x2="720.00" y2="305.39"/>
    <line x1="80.00" y1="305.00" x2="720.00" y2="305.00"/>
    <line x1="80.00" y1="304.62" x2="720.00" y2="304.62"/>
    <line x1="80.00" y1="304.23" x2="720.00" y2="304.23"/>
    <line x1="80.00" y1="303.46" x2="720.00" y2="303.46"/>
    <line x1="80.00" y1="303.08" x2="720.00" y2="303.08"/>
    <line x1="80.00" y1="302.69" x2="720.00" y2="302.69"/>
    <line x1="80.00" y1="302.31" x2="720.00" y2="302.31"/>
    <line x1="80.00" y1="301.54" x2="720.00" y2="301.54"/>
    <line x1="80.00" y1="301.15" x2="720.00" y2="301.15"/>
    <line x1="80.00" y1="300.77" x2="720.00" y2="300.77"/>
    <line x1="80.00" y1="300.38" x2="720.00" y2="300.38"/>
    <line x1="80.00" y1="299.62" x2="720.00" y2="299.62"/>
    <line x1="80.00" y1="299.23" x2="720.00" y2="299.23"/>
    <line x1="80.00" y1="298.85" x2="720.00" y2="298.85"/>
    <line x1="80.00" y1="298.46" x2="720.00" y2="298.46"/>
    <line x1="80.00" y1="297.69" x2="720.00" y2="297.69"/>
    <line x1="80.00" y1="297.31" x2="720.00" y2="297.31"/>
    <line x1="80.00" y1="296.92" x2="720.00" y2="296.92"/>
    <line x1="80.00" y1="296.54" x2="720.00" y2="296.54"/>
    <line x1="80.00" y1="295.77" x2="720.00" y2="295.77"/>
    <line x1="80.00" y1="295.38" x2="720.00" y2="295.38"/>
    <line x1="80.00" y1="295.00" x2="720.00" y2="295.00"/>
    <line x1="80.00" y1="294.61" x2="720.00" y2="294.61"/>
    <line x1="80.00" y1="293.84" x2="720.00" y2="293.84"/>
    <line x1="80.00" y1="293.46" x2="720.00" y2="293.46"/>
    <line x1="80.00" y1="293.07" x2="720.00" y2="293.07"/>
    <line x1="80.00" y1="292.69" x2="720.00" y2="292.69"/>
    <line x1="80.00" y1="291.92" x2="720.00" y2="291.92"/>
    <line x1="80.00" y1="291.54" x2="720.00" y2="291.54"/>
    <line x1="80.00" y1="291.15" x2="720.00" y2="291.15"/>
    <line x1="80.00" y1="290.77" x2="720.00" y2="290.77"/>
    <line x1="80.00" y1="290.00" x2="720.00" y2="290.00"/>
    <line x1="80.00" y1="289.61" x2="720.00" y2="289.61"/>
    <line x1="80.00" y1="289.23" x2="720.00" y2="289.23"/>
    <line x1="80.00" y1="288.84" x2="720.00" y2="288.84"/>
    <line x1="80.00" y1="288.07" x2="720.00" y2="288.07"/>
    <line x1="80.00" y1="287.69" x2="720.00" y2="287.69"/>
    <line x1="80.00" y1="287.30" x2="720.00" y2="287.30"/>
    <line x1="80.00" y1="286.92" x2="720.00" y2="286.92"/>
    <line x1="80.00" y1="286.15" x2="720.00" y2="286.15"/>
    <line x1="80.00" y1="285.76" x2="720.00" y2="285.76"/>
    <line x1="80.00" y1="285.38" x2="720.00" y2="285.38"/>
    <line x1="80.00" y1="284.99" x2="720.00" y2="284.99"/>
    <line x1="80.00" y1="284.22" x2="720.00" y2="284.22"/>
    <line x1="80.00" y1="283.84" x2="720.00" y2="283.84"/>
    <line x1="80.00" y1="283.45" x2="720.00" y2="283.45"/>
    <line x1="80.00" y1="283.07" x2="720.00" y2="283.07"/>
    <line x1="80.00" y1="282.30" x2="720.00" y2="282.30"/>
    <line x1="80.00" y1="281.92" x2="720.00" y2="281.92"/>
    <line x1="80.00" y1="281.53" x2="720.00" y2="281.53"/>
    <line x1="80.00" y1="281.15" x2="720.00" y2="281.15"/>
    <line x1="80.00" y1="280.38" x2="720.00" y2="280.38"/>
    <line x1="80.00" y1="279.99" x2="720.00" y2="279.99"/>
    <line x1="80.00" y1="279.61" x2="720.00" y2="279.61"/>
    <line x1="80.00" y1="279.22" x2="720.00" y2="279.22"/>
    <line x1="80.00" y1="278.45" x2="720.00" y2="278.45"/>
    <line x1="80.00" y1="278.07" x2="720.00" y2="278.07"/>
    <line x1="80.00" y1="277.68" x2="720.00" y2="277.68"/>
    <line x1="80.00" y1="277.30" x2="720.00" y2="277.30"/>
    <line x1="80.00" y1="276.53" x2="720.00" y2="276.53"/>
    <line x1="80.00" y1="276.14" x2="720.00" y2="276.14"/>
    <line x1="80.00" y1="275.76" x2="720.00" y2="275.76"/>
    <line x1="80.00" y1="275.37" x2="720.00" y2="275.37"/>
    <line x1="80.00" y1="274.61" x2="720.00" y2="274.61"/>
    <line x1="80.00" y1="274.22" x2="720.00" y2="274.22"/>
    <line x1="80.00" y1="273.84" x2="720.00" y2="273.84"/>
    <line x1="80.00" y1="273.45" x2="720.00" y2="273.45"/>
    <line x1="80.00" y1="272.68" x2="720.00" y2="272.68"/>
    <line x1="80.00" y1="272.30" x2="720.00" y2="272.30"/>
    <line x1="80.00" y1="271.91" x2="720.00" y2="271.91"/>
    <line x1="80.00" y1="271.53" x2="720.00" y2="271.53"/>
    <line x1="80.00" y1="270.76" x2="720.00" y2="270.76"/>
    <line x1="80.00" y1="270.37" x2="720.00" y2="270.37"/>
    <line x1="80.00" y1="269.99" x2="720.00" y2="269.99"/>
    <line x1="80.00" y1="269.60" x2="720.00" y2="269.60"/>
    <line x1="80.00" y1="268.83" x2="720.00" y2="268.83"/>
    <line x1="80.00" y1="268.45" x2="720.00" y2="268.45"/>
    <line x1="80.00" y1="268.06" x2="720.00" y2="268.06"/>
    <line x1="80.00" y1="267.68" x2="720.00" y2="267.68"/>
    <line x1="80.00" y1="266.91" x2="720.00" y2="266.91"/>
    <line x1="80.00" y1="266.53" x2="720.00" y2="266.53"/>
    <line x1="80.00" y1="266.14" x2="720.00" y2="266.14"/>
    <line x1="80.00" y1="265.76" x2="720.00" y2="265.76"/>
    <line x1="80.00" y1="264.99" x2="720.00" y2="264.99"/>
    <line x1="80.00" y1="264.60" x2="720.00" y2="264.60"/>
    <line x1="80.00" y1="264.22" x2="720.00" y2="264.22"/>
    <line x1="80.00" y1="263.83" x2="720.00" y2="263.83"/>
    <line x1="80.00" y1="263.06" x2="720.00" y2="263.06"/>
    <line x1="80.00" y1="262.68" x2="720.00" y2="262.68"/>
    <line x1="80.00" y1="262.29" x2="720.00" y2="262.29"/>
    <line x1="80.00" y1="261.91" x2="720.00" y2="261.91"/>
    <line x1="80.00" y1="261.14" x2="720.00" y2="261.14"/>
    <line x1="80.00" y1="260.75" x2="720.00" y2="260.75"/>
    <line x1="80.00" y1="260.37" x2="720.00" y2="260.37"/>
    <line x1="80.00" y1="259.98" x2="720.00" y2="259.98"/>
    <line x1="80.00" y1="259.21" x2="720.00" y2="259.21"/>
    <line x1="80.00" y1="258.83" x2="720.00" y2="258.83"/>
    <line x1="80.00" y1="258.44" x2="720.00" y2="258.44"/>
    <line x1="80.00" y1="258.06" x2="720.00" y2="258.06"/>
    <line x1="80.00" y1="257.29" x2="720.00" y2="257.29"/>
    <line x1="80.00" y1="256.91" x2="720.00" y2="256.91"/>
    <line x1="80.00" y1="256.52" x2="720.00" y2="256.52"/>
    <line x1="80.00" y1="256.14" x2="720.00" y2="256.14"/>
    <line x1="80.00" y1="255.37" x2="720.00" y2="255.37"/>
    <line x1="80.00" y1="254.98" x2="720.00" y2="254.98"/>
    <line x1="80.00" y1="254.60" x2="720.00" y2="254.60"/>
    <line x1="80.00" y1="254.21" x2="720.00" y2="254.21"/>
    <line x1="80.00" y1="253.44" x2="720.00" y2="253.44"/>
    <line x1="80.00" y1="253.06" x2="720.00" y2="253.06"/>
    <line x1="80.00" y1="252.67" x2="720.00" y2="252.67"/>
    <line x1="80.00" y1="252.29" x2="720.00" y2="252.29"/>
    <line x1="80.00" y1="251.52" x2="720.00" y2="251.52"/>
    <line x1="80.00" y1="251.13" x2="720.00" y2="251.13"/>
    <line x1="80.00" y1="250.75" x2="720.00" y2="250.75"/>
    <line x1="80.00" y1="250.36" x2="720.00" y2="250.36"/>
    <line x1="80.00" y1="249.60" x2="720.00" y2="249.60"/>
    <line x1="80.00" y1="249.21" x2="720.00" y2="249.21"/>
    <line x1="80.00" y1="248.83" x2="720.00" y2="248.83"/>
    <line x1="80.00" y1="248.44" x2="720.00" y2="248.44"/>
    <line x1="80.00" y1="247.67" x2="720.00" y2="247.67"/>
    <line x1="80.00" y1="247.29" x2="720.00" y2="247.29"/>
    <line x1="80.00" y1="246.90" x2="720.00" y2="246.90"/>
    <line x1="80.00" y1="246.52" x2="720.00" y2="246.52"/>
    <line x1="80.00" y1="245.75" x2="720.00" y2="245.75"/>
    <line x1="80.00" y1="245.36" x2="720.00" y2="245.36"/>
    <line x1="80.00" y1="244.98" x2="720.00" y2="244.98"/>
    <line x1="80.00" y1="244.59" x2="720.00" y2="244.59"/>
    <line x1="80.00" y1="243.82" x2="720.00" y2="243.82"/>
    <line x1="80.00" y1="243.44" x2="720.00" y2="243.44"/>
    <line x1="80.00" y1="243.05" x2="720.00" y2="243.05"/>
    <line x1="80.00" y1="242.67" x2="720.00" y2="242.67"/>
    <line x1="80.00" y1="241.90" x2="720.00" y2="241.90"/>
    <line x1="80.00" y1="241.52" x2="720.00" y2="241.52"/>
    <line x1="80.00" y1="241.13" x2="720.00" y2="241.13"/>
    <line x1="80.00" y1="240.75" x2="720.00" y2="240.75"/>
    <line x1="80.00" y1="239.98" x2="720.00" y2="239.98"/>
    <line x1="80.00" y1="239.59" x2="720.00" y2="239.59"/>
    <line x1="80.00" y1="239.21" x2="720.00" y2="239.21"/>
    <line x1="80.00" y1="238.82" x2="720.00" y2="238.82"/>
    <line x1="80.00" y1="238.05" x2="720.00" y2="238.05"/>
    <line x1="80.00" y1="237.67" x2="720.00" y2="237.67"/>
    <line x1="80.00" y1="237.28" x2="720.00" y2="237.28"/>
    <line x1="80.00" y1="236.90" x2="720.00" y2="236.90"/>
    <line x1="80.00" y1="236.13" x2="720.00" y2="236.13"/>
    <line x1="80.00" y1="235.74" x2="720.00" y2="235.74"/>
    <line x1="80.00" y1="235.36" x2="720.00" y2="235.36"/>
    <line x1="80.00" y1="234.97" x2="720.00" y2="234.97"/>
    <line x1="80.00" y1="234.20" x2="720.00" y2="234.20"/>
    <line x1="80.00" y1="233.82" x2="720.00" y2="233.82"/>
    <line x1="80.00" y1="233.43" x2="720.00" y2="233.43"/>
    <line x1="80.00" y1="233.05" x2="720.00" y2="233.05"/>
    <line x1="80.00" y1="232.28" x2="720.00" y2="232.28"/>
    <line x1="80.00" y1="231.90" x2="720.00" y2="231.90"/>
    <line x1="80.00" y1="231.51" x2="720.00" y2="231.51"/>
    <line x1="80.00" y1="231.13" x2="720.00" y2="231.13"/>
    <line x1="80.00" y1="230.36" x2="720.00" y2="230.36"/>
    <line x1="80.00" y1="229.97" x2="720.00" y2="229.97"/>
    <line x1="80.00" y1="229.59" x2="720.00" y2="229.59"/>
    <line x1="80.00" y1="229.20" x2="720.00" y2="229.20"/>
    <line x1="80.00" y1="228.43" x2="720.00" y2="228.43"/>
    <line x1="80.00" y1="228.05" x2="720.00" y2="228.05"/>
    <line x1="80.00" y1="227.66" x2="720.00" y2="227.66"/>
    <line x1="80.00" y1="227.28" x2="720.00" y2="227.28"/>
    <line x1="80.00" y1="226.51" x2="720.00" y2="226.51"/>
    <line x1="80.00" y1="226.12" x2="720.00" y2="226.12"/>
    <line x1="80.00" y1="225.74" x2="720.00" y2="225.74"/>
    <line x1="80.00" y1="225.35" x2="720.00" y2="225.35"/>
    <line x1="80.00" y1="224.59" x2="720.00" y2="224.59"/>
    <line x1="80.00" y1="224.20" x2="720.00" y2="224.20"/>
    <line x1="80.00" y1="223.82" x2="720.00" y2="223.82"/>
    <line x1="80.00" y1="223.43" x2="720.00" y2="223.43"/>
    <line x1="80.00" y1="222.66" x2="720.00" y2="222.66"/>
    <line x1="80.00" y1="222.28" x2="720.00" y2="222.28"/>
    <line x1="80.00" y1="221.89" x2="720.00" y2="221.89"/>
    <line x1="80.00" y1="221.51" x2="720.00" y2="221.51"/>
    <line x1="80.00" y1="220.74" x2="720.00" y2="220.74"/>
    <line x1="80.00" y1="220.35" x2="720.00" y2="220.35"/>
    <line x1="80.00" y1="219.97" x2="720.00" y2="219.97"/>
    <line x1="80.00" y1="219.58" x2="720.00" y2="219.58"/>
    <line x1="80.00" y1="218.81" x2="720.00" y2="218.81"/>
    <line x1="80.00" y1="218.43" x2="720.00" y2="218.43"/>
    <line x1="80.00" y1="218.04" x2="720.00" y2="218.04"/>
    <line x1="80.00" y1="217.66" x2="720.00" y2="217.66"/>
    <line x1="80.00" y1="216.89" x2="720.00" y2="216.89"/>
    <line x1="80.00" y1="216.51" x2="720.00" y2="216.51"/>
    <line x1="80.00" y1="216.12" x2="720.00" y2="216.12"/>
    <line x1="80.00" y1="215.74" x2="720.00" y2="215.74"/>
    <line x1="80.00" y1="214.97" x2="720.00" y2="214.97"/>
    <line x1="80.00" y1="214.58" x2="720.00" y2="214.58"/>
    <line x1="80.00" y1="214.20" x2="720.00" y2="214.20"/>
    <line x1="80.00" y1="213.81" x2="720.00" y2="213.81"/>
    <line x1="80.00" y1="213.04" x2="720.00" y2="213.04"/>
    <line x1="80.00" y1="212.66" x2="720.00" y2="212.66"/>
    <line x1="80.00" y1="212.27" x2="720.00" y2="212.27"/>
    <line x1="80.00" y1="211.89" x2="720.00" y2="211.89"/>
    <line x1="80.00" y1="211.12" x2="720.00" y2="211.12"/>
    <line x1="80.00" y1="210.73" x2="720.00" y2="210.73"/>
    <line x1="80.00" y1="210.35" x2="720.00" y2="210.35"/>
    <line x1="80.00" y1="209.96" x2="720.00" y2="209.96"/>
    <line x1="80.00" y1="209.19" x2="720.00" y2="209.19"/>
    <line x1="80.00" y1="208.81" x2="720.00" y2="208.81"/>
    <line x1="80.00" y1="208.42" x2="720.00" y2="208.42"/>
    <line x1="80.00" y1="208.04" x2="720.00" y2="208.04"/>
    <line x1="80.00" y1="207.27" x2="720.00" y2="207.27"/>
    <line x1="80.00" y1="206.89" x2="720.00" y2="206.89"/>
    <line x1="80.00" y1="206.50" x2="720.00" y2="206.50"/>
    <line x1="80.00" y1="206.12" x2="720.00" y2="206.12"/>
    <line x1="80.00" y1="205.35" x2="720.00" y2="205.35"/>
    <line x1="80.00" y1="204.96" x2="720.00" y2="204.96"/>
    <line x1="80.00" y1="204.58" x2="720.00" y2="204.58"/>
    <line x1="80.00" y1="204.19" x2="720.00" y2="204.19"/>
    <line x1="80.00" y1="203.42" x2="720.00" y2="203.42"/>
    <line x1="80.00" y1="203.04" x2="720.00" y2="203.04"/>
    <line x1="80.00" y1="202.65" x2="720.00" y2="202.65"/>
    <line x1="80.00" y1="202.27" x2="720.00" y2="202.27"/>
    <line x1="80.00" y1="201.50" x2="720.00" y2="201.50"/>
    <line x1="80.00" y1="201.11" x2="720.00" y2="201.11"/>
    <line x1="80.00" y1="200.73" x2="720.00" y2="200.73"/>
    <line x1="80.00" y1="200.34" x2="720.00" y2="200.34"/>
    <line x1="80.00" y1="199.58" x2="720.00" y2="199.58"/>
    <line x1="80.00" y1="199.19" x2="720.00" y2="199.19"/>
    <line x1="80.00" y1="198.81" x2="720.00" y2="198.81"/>
    <line x1="80.00" y1="198.42" x2="720.00" y2="198.42"/>
    <line x1="80.00" y1="197.65" x2="720.00" y2="197.65"/>
    <line x1="80.00" y1="197.27" x2="720.00" y2="197.27"/>
    <line x1="80.00" y1="196.88" x2="720.00" y2="196.88"/>
    <line x1="80.00" y1="196.50" x2="720.00" y2="196.50"/>
    <line x1="80.00" y1="195.73" x2="720.00" y2="195.73"/>
    <line x1="80.00" y1="195.34" x2="720.00" y2="195.34"/>
    <line x1="80.00" y1="194.96" x2="720.00" y2="194.96"/>
    <line x1="80.00" y1="194.57" x2="720.00" y2="194.57"/>
    <line x1="80.00" y1="193.80" x2="720.00" y2="193.80"/>
    <line x1="80.00" y1="193.42" x2="720.00" y2="193.42"/>
    <line x1="80.00" y1="193.03" x2="720.00" y2="193.03"/>
    <line x1="80.00" y1="192.65" x2="720.00" y2="192.65"/>
    <line x1="80.00" y1="191.88" x2="720.00" y2="191.88"/>
    <line x1="80.00" y1="191.49" x2="720.00" y2="191.49"/>
    <line x1="80.00" y1="191.11" x2="720.00" y2="191.11"/>
    <line x1="80.00" y1="190.73" x2="720.00" y2="190.73"/>
    <line x1="80.00" y1="189.96" x2="720.00" y2="189.96"/>
    <line x1="80.00" y1="189.57" x2="720.00" y2="189.57"/>
    <line x1="80.00" y1="189.19" x2="720.00" y2="189.19"/>
    <line x1="80.00" y1="188.80" x2="720.00" y2="188.80"/>
    <line x1="80.00" y1="188.03" x2="720.00" y2="188.03"/>
    <line x1="80.00" y1="187.65" x2="720.00" y2="187.65"/>
    <line x1="80.00" y1="187.26" x2="720.00" y2="187.26"/>
    <line x1="80.00" y1="186.88" x2="720.00" y2="186.88"/>
    <line x1="80.00" y1="186.11" x2="720.00" y2="186.11"/>
    <line x1="80.00" y1="185.72" x2="720.00" y2="185.72"/>
    <line x1="80.00" y1="185.34" x2="720.00" y2="185.34"/>
    <line x1="80.00" y1="184.95" x2="720.00" y2="184.95"/>
    <line x1="80.00" y1="184.18" x2="720.00" y2="184.18"/>
    <line x1="80.00" y1="183.80" x2="720.00" y2="183.80"/>
    <line x1="80.00" y1="183.41" x2="720.00" y2="183.41"/>
    <line x1="80.00" y1="183.03" x2="720.00" y2="183.03"/>
    <line x1="80.00" y1="182.26" x2="720.00" y2="182.26"/>
    <line x1="80.00" y1="181.88" x2="720.00" y2="181.88"/>
    <line x1="80.00" y1="181.49" x2="720.00" y2="181.49"/>
    <line x1="80.00" y1="181.11" x2="720.00" y2="181.11"/>
    <line x1="80.00" y1="180.34" x2="720.00" y2="180.34"/>
    <line x1="80.00" y1="179.95" x2="720.00" y2="179.95"/>
    <line x1="80.00" y1="179.57" x2="720.00" y2="179.57"/>
    <line x1="80.00" y1="179.18" x2="720.00" y2="179.18"/>
    <line x1="80.00" y1="178.41" x2="720.00" y2="178.41"/>
    <line x1="80.00" y1="178.03" x2="720.00" y2="178.03"/>
    <line x1="80.00" y1="177.64" x2="720.00" y2="177.64"/>
    <line x1="80.00" y1="177.26" x2="720.00" y2="177.26"/>
    <line x1="80.00" y1="176.49" x2="720.00" y2="176.49"/>
    <line x1="80.00" y1="176.10" x2="720.00" y2="176.10"/>
    <line x1="80.00" y1="175.72" x2="720.00" y2="175.72"/>
    <line x1="80.00" y1="175.33" x2="720.00" y2="175.33"/>
    <line x1="80.00" y1="174.57" x2="720.00" y2="174.57"/>
    <line x1="80.00" y1="174.18" x2="720.00" y2="174.18"/>
    <line x1="80.00" y1="173.80" x2="720.00" y2="173.80"/>
    <line x1="80.00" y1="173.41" x2="720.00" y2="173.41"/>
    <line x1="80.00" y1="172.64" x2="720.00" y2="172.64"/>
    <line x1="80.00" y1="172.26" x2="720.00" y2="172.26"/>
    <line x1="80.00" y1="171.87" x2="720.00" y2="171.87"/>
    <line x1="80.00" y1="171.49" x2="720.00" y2="171.49"/>
    <line x1="80.00" y1="170.72" x2="720.00" y2="170.72"/>
    <line x1="80.00" y1="170.33" x2="720.00" y2="170.33"/>
    <line x1="80.00" y1="169.95" x2="720.00" y2="169.95"/>
    <line x1="80.00" y1="169.56" x2="720.00" y2="169.56"/>
    <line x1="80.00" y1="168.79" x2="720.00" y2="168.79"/>
    <line x1="80.00" y1="168.41" x2="720.00" y2="168.41"/>
    <line x1="80.00" y1="168.02" x2="720.00" y2="168.02"/>
    <line x1="80.00" y1="167.64" x2="720.00" y2="167.64"/>
    <line x1="80.00" y1="166.87" x2="720.00" y2="166.87"/>
    <line x1="80.00" y1="166.48" x2="720.00" y2="166.48"/>
    <line x1="80.00" y1="166.10" x2="720.00" y2="166.10"/>
    <line x1="80.00" y1="165.72" x2="720.00" y2="165.72"/>
    <line x1="80.00" y1="164.95" x2="720.00" y2="164.95"/>
    <line x1="80.00" y1="164.56" x2="720.00" y2="164.56"/>
    <line x1="80.00" y1="164.18" x2="720.00" y2="164.18"/>
    <line x1="80.00" y1="163.79" x2="720.00" y2="163.79"/>
    <line x1="80.00" y1="163.02" x2="720.00" y2="163.02"/>
    <line x1="80.00" y1="162.64" x2="720.00" y2="162.64"/>
    <line x1="80.00" y1="162.25" x2="720.00" y2="162.25"/>
    <line x1="80.00" y1="161.87" x2="720.00" y2="161.87"/>
    <line x1="80.00" y1="161.10" x2="720.00" y2="161.10"/>
    <line x1="80.00" y1="160.71" x2="720.00" y2="160.71"/>
    <line x1="80.00" y1="160.33" x2="720.00" y2="160.33"/>
    <line x1="80.00" y1="159.94" x2="720.00" y2="159.94"/>
    <line x1="80.00" y1="159.17" x2="720.00" y2="159.17"/>
    <line x1="80.00" y1="158.79" x2="720.00" y2="158.79"/>
    <line x1="80.00" y1="158.40" x2="720.00" y2="158.40"/>
    <line x1="80.00" y1="158.02" x2="720.00" y2="158.02"/>
    <line x1="80.00" y1="157.25" x2="720.00" y2="157.25"/>
    <line x1="80.00" y1="156.87" x2="720.00" y2="156.87"/>
    <line x1="80.00" y1="156.48" x2="720.00" y2="156.48"/>
    <line x1="80.00" y1="156.10" x2="720.00" y2="156.10"/>
    <line x1="80.00" y1="155.33" x2="720.00" y2="155.33"/>
    <line x1="80.00" y1="154.94" x2="720.00" y2="154.94"/>
    <line x1="80.00" y1="154.56" x2="720.00" y2="154.56"/>
    <line x1="80.00" y1="154.17" x2="720.00" y2="154.17"/>
    <line x1="80.00" y1="153.40" x2="720.00" y2="153.40"/>
    <line x1="80.00" y1="153.02" x2="720.00" y2="153.02"/>
    <line x1="80.00" y1="152.63" x2="720.00" y2="152.63"/>
    <line x1="80.00" y1="152.25" x2="720.00" y2="152.25"/>
    <line x1="80.00" y1="151.48" x2="720.00" y2="151.48"/>
    <line x1="80.00" y1="151.09" x2="720.00" y2="151.09"/>
    <line x1="80.00" y1="150.71" x2="720.00" y2="150.71"/>
    <line x1="80.00" y1="150.32" x2="720.00" y2="150.32"/>
    <line x1="80.00" y1="149.56" x2="720.00" y2="149.56"/>
    <line x1="80.00" y1="149.17" x2="720.00" y2="149.17"/>
    <line x1="80.00" y1="148.79" x2="720.00" y2="148.79"/>
    <line x1="80.00" y1="148.40" x2="720.00" y2="148.40"/>
    <line x1="80.00" y1="147.63" x2="720.00" y2="147.63"/>
    <line x1="80.00" y1="147.25" x2="720.00" y2="147.25"/>
    <line x1="80.00" y1="146.86" x2="720.00" y2="146.86"/>
    <line x1="80.00" y1="146.48" x2="720.00" y2="146.48"/>
    <line x1="80.00" y1="145.71" x2="720.00" y2="145.71"/>
    <line x1="80.00" y1="145.32" x2="720.00" y2="145.32"/>
    <line x1="80.00" y1="144.94" x2="720.00" y2="144.94"/>
    <line x1="80.00" y1="144.55" x2="720.00" y2="144.55"/>
    <line x1="80.00" y1="143.78" x2="720.00" y2="143.78"/>
    <line x1="80.00" y1="143.40" x2="720.00" y2="143.40"/>
    <line x1="80.00" y1="143.01" x2="720.00" y2="143.01"/>
    <line x1="80.00" y1="142.63" x2="720.00" y2="142.63"/>
    <line x1="80.00" y1="141.86" x2="720.00" y2="141.86"/>
    <line x1="80.00" y1="141.47" x2="720.00" y2="141.47"/>
    <line x1="80.00" y1="141.09" x2="720.00" y2="141.09"/>
    <line x1="80.00" y1="140.71" x2="720.00" y2="140.71"/>
    <line x1="80.00" y1="139.94" x2="720.00" y2="139.94"/>
    <line x1="80.00" y1="139.55" x2="720.00" y2="139.55"/>
    <line x1="80.00" y1="139.17" x2="720.00" y2="139.17"/>
    <line x1="80.00" y1="138.78" x2="720.00" y2="138.78"/>
    <line x1="80.00" y1="138.01" x2="720.00" y2="138.01"/>
    <line x1="80.00" y1="137.63" x2="720.00" y2="137.63"/>
    <line x1="80.00" y1="137.24" x2="720.00" y2="137.24"/>
    <line x1="80.00" y1="136.86" x2="720.00" y2="136.86"/>
    <line x1="80.00" y1="136.09" x2="720.00" y2="136.09"/>
    <line x1="80.00" y1="135.70" x2="720.00" y2="135.70"/>
    <line x1="80.00" y1="135.32" x2="720.00" y2="135.32"/>
    <line x1="80.00" y1="134.93" x2="720.00" y2="134.93"/>
    <line x1="80.00" y1="134.16" x2="720.00" y2="134.16"/>
    <line x1="80.00" y1="133.78" x2="720.00" y2="133.78"/>
    <line x1="80.00" y1="133.39" x2="720.00" y2="133.39"/>
    <line x1="80.00" y1="133.01" x2="720.00" y2="133.01"/>
    <line x1="80.00" y1="132.24" x2="720.00" y2="132.24"/>
    <line x1="80.00" y1="131.86" x2="720.00" y2="131.86"/>
    <line x1="80.00" y1="131.47" x2="720.00" y2="131.47"/>
    <line x1="80.00" y1="131.09" x2="720.00" y2="131.09"/>
    <line x1="80.00" y1="130.32" x2="720.00" y2="130.32"/>
    <line x1="80.00" y1="129.93" x2="720.00" y2="129.93"/>
    <line x1="80.00" y1="129.55" x2="720.00" y2="129.55"/>
    <line x1="80.00" y1="129.16" x2="720.00" y2="129.16"/>
    <line x1="80.00" y1="128.39" x2="720.00" y2="128.39"/>
    <line x1="80.00" y1="128.01" x2="720.00" y2="128.01"/>
    <line x1="80.00" y1="127.62" x2="720.00" y2="127.62"/>
    <line x1="80.00" y1="127.24" x2="720.00" y2="127.24"/>
    <line x1="80.00" y1="126.47" x2="720.00" y2="126.47"/>
    <line x1="80.00" y1="126.08" x2="720.00" y2="126.08"/>
    <line x1="80.00" y1="125.70" x2="720.00" y2="125.70"/>
    <line x1="80.00" y1="125.31" x2="720.00" y2="125.31"/>
    <line x1="80.00" y1="124.55" x2="720.00" y2="124.55"/>
    <line x1="80.00" y1="124.16" x2="720.00" y2="124.16"/>
    <line x1="80.00" y1="123.78" x2="720.00" y2="123.78"/>
    <line x1="80.00" y1="123.39" x2="720.00" y2="123.39"/>
    <line x1="80.00" y1="122.62" x2="720.00" y2="122.62"/>
    <line x1="80.00" y1="122.24" x2="720.00" y2="122.24"/>
    <line x1="80.00" y1="121.85" x2="720.00" y2="121.85"/>
    <line x1="80.00" y1="121.47" x2="720.00" y2="121.47"/>
    <line x1="80.00" y1="120.70" x2="720.00" y2="120.70"/>
    <line x1="80.00" y1="120.31" x2="720.00" y2="120.31"/>
    <line x1="80.00" y1="119.93" x2="720.00" y2="119.93"/>
    <line x1="80.00" y1="119.54" x2="720.00" y2="119.54"/>
    <line x1="80.00" y1="118.77" x2="720.00" y2="118.77"/>
    <line x1="80.00" y1="118.39" x2="720.00" y2="118.39"/>
    <line x1="80.00" y1="118.00" x2="720.00" y2="118.00"/>
    <line x1="80.00" y1="117.62" x2="720.00" y2="117.62"/>
    <line x1="80.00" y1="116.85" x2="720.00" y2="116.85"/>
    <line x1="80.00" y1="116.46" x2="720.00" y2="116.46"/>
    <line x1="80.00" y1="116.08" x2="720.00" y2="116.08"/>
    <line x1="80.00" y1="115.70" x2="720.00" y2="115.70"/>
    <line x1="80.00" y1="114.93" x2="720.00" y2="114.93"/>
    <line x1="80.00" y1="114.54" x2="720.00" y2="114.54"/>
    <line x1="80.00" y1="114.16" x2="720.00" y2="114.16"/>
    <line x1="80.00" y1="113.77" x2="720.00" y2="113.77"/>
    <line x1="80.00" y1="113.00" x2="720.00" y2="113.00"/>
    <line x1="80.00" y1="112.62" x2="720.00" y2="112.62"/>
    <line x1="80.00" y1="112.23" x2="720.00" y2="112.23"/>
    <line x1="80.00" y1="111.85" x2="720.00" y2="111.85"/>
    <line x1="80.00" y1="111.08" x2="720.00" y2="111.08"/>
    <line x1="80.00" y1="110.69" x2="720.00" y2="110.69"/>
    <line x1="80.00" y1="110.31" x2="720.00" y2="110.31"/>
    <line x1="80.00" y1="109.92" x2="720.00" y2="109.92"/>
    <line x1="80.00" y1="109.15" x2="720.00" y2="109.15"/>
    <line x1="80.00" y1="108.77" x2="720.00" y2="108.77"/>
    <line x1="80.00" y1="108.38" x2="720.00" y2="108.38"/>
    <line x1="80.00" y1="108.00" x2="720.00" y2="108.00"/>
    <line x1="80.00" y1="107.23" x2="720.00" y2="107.23"/>
    <line x1="80.00" y1="106.85" x2="720.00" y2="106.85"/>
    <line x1="80.00" y1="106.46" x2="720.00" y2="106.46"/>
    <line x1="80.00" y1="106.08" x2="720.00" y2="106.08"/>
    <line x1="80.00" y1="105.31" x2="720.00" y2="105.31"/>
    <line x1="80.00" y1="104.92" x2="720.00" y2="104.92"/>
    <line x1="80.00" y1="104.54" x2="720.00" y2="104.54"/>
    <line x1="80.00" y1="104.15" x2="720.00" y2="104.15"/>
    <line x1="80.00" y1="103.38" x2="720.00" y2="103.38"/>
    <line x1="80.00" y1="103.00" x2="720.00" y2="103.00"/>
    <line x1="80.00" y1="102.61" x2="720.00" y2="102.61"/>
    <line x1="80.00" y1="102.23" x2="720.00" y2="102.23"/>
    <line x1="80.00" y1="101.46" x2="720.00" y2="101.46"/>
    <line x1="80.00" y1="101.07" x2="720.00" y2="101.07"/>
    <line x1="80.00" y1="100.69" x2="720.00" y2="100.69"/>
    <line x1="80.00" y1="100.30" x2="720.00" y2="100.30"/>
    <line x1="80.00" y1="99.54" x2="720.00" y2="99.54"/>
    <line x1="80.00" y1="99.15" x2="720.00" y2="99.15"/>
    <line x1="80.00" y1="98.77" x2="720.00" y2="98.77"/>
    <line x1="80.00" y1="98.38" x2="720.00" y2="98.38"/>
    <line x1="80.00" y1="97.61" x2="720.00" y2="97.61"/>
    <line x1="80.00" y1="97.23" x2="720.00" y2="97.23"/>
    <line x1="80.00" y1="96.84" x2="720.00" y2="96.84"/>
    <line x1="80.00" y1="96.46" x2="720.00" y2="96.46"/>
    <line x1="80.00" y1="95.69" x2="720.00" y2="95.69"/>
    <line x1="80.00" y1="95.30" x2="720.00" y2="95.30"/>
    <line x1="80.00" y1="94.92" x2="720.00" y2="94.92"/>
    <line x1="80.00" y1="94.53" x2="720.00" y2="94.53"/>
    <line x1="80.00" y1="93.76" x2="720.00" y2="93.76"/>
    <line x1="80.00" y1="93.38" x2="720.00" y2="93.38"/>
    <line x1="80.00" y1="92.99" x2="720.00" y2="92.99"/>
    <line x1="80.00" y1="92.61" x2="720.00" y2="92.61"/>
    <line x1="80.00" y1="91.84" x2="720.00" y2="91.84"/>
    <line x1="80.00" y1="91.45" x2="720.00" y2="91.45"/>
    <line x1="80.00" y1="91.07" x2="720.00" y2="91.07"/>
    <line x1="80.00" y1="90.69" x2="720.00" y2="90.69"/>
    <line x1="80.00" y1="89.92" x2="720.00" y2="89.92"/>
    <line x1="80.00" y1="89.53" x2="720.00" y2="89.53"/>
    <line x1="80.00" y1="89.15" x2="720.00" y2="89.15"/>
    <line x1="80.00" y1="88.76" x2="720.00" y2="88.76"/>
    <line x1="80.00" y1="87.99" x2="720.00" y2="87.99"/>
    <line x1="80.00" y1="87.61" x2="720.00" y2="87.61"/>
    <line x1="80.00" y1="87.22" x2="720.00" y2="87.22"/>
    <line x1="80.00" y1="86.84" x2="720.00" y2="86.84"/>
    <line x1="80.00" y1="86.07" x2="720.00" y2="86.07"/>
    <line x1="80.00" y1="85.68" x2="720.00" y2="85.68"/>
    <line x1="80.00" y1="85.30" x2="720.00" y2="85.30"/>
    <line x1="80.00" y1="84.91" x2="720.00" y2="84.91"/>
    <line x1="80.00" y1="84.14" x2="720.00" y2="84.14"/>
    <line x1="80.00" y1="83.76" x2="720.00" y2="83.76"/>
    <line x1="80.00" y1="83.37" x2="720.00" y2="83.37"/>
    <line x1="80.00" y1="82.99" x2="720.00" y2="82.99"/>
    <line x1="80.00" y1="82.22" x2="720.00" y2="82.22"/>
    <line x1="80.00" y1="81.84" x2="720.00" y2="81.84"/>
    <line x1="80.00" y1="81.45" x2="720.00" y2="81.45"/>
    <line x1="80.00" y1="81.07" x2="720.00" y2="81.07"/>
    <line x1="80.00" y1="80.30" x2="720.00" y2="80.30"/>
    <line x1="80.00" y1="79.91" x2="720.00" y2="79.91"/>
    <line x1="80.00" y1="79.53" x2="720.00" y2="79.53"/>
    <line x1="80.00" y1="79.14" x2="720.00" y2="79.14"/>
    <line x1="80.00" y1="78.37" x2="720.00" y2="78.37"/>
    <line x1="80.00" y1="77.99" x2="720.00" y2="77.99"/>
    <line x1="80.00" y1="77.60" x2="720.00" y2="77.60"/>
    <line x1="80.00" y1="77.22" x2="720.00" y2="77.22"/>
    <line x1="80.00" y1="76.45" x2="720.00" y2="76.45"/>
    <line x1="80.00" y1="76.06" x2="720.00" y2="76.06"/>
    <line x1="80.00" y1="75.68" x2="720.00" y2="75.68"/>
    <line x1="80.00" y1="75.29" x2="720.00" y2="75.29"/>
    <line x1="80.00" y1="74.53" x2="720.00" y2="74.53"/>
    <line x1="80.00" y1="74.14" x2="720.00" y2="74.14"/>
    <line x1="80.00" y1="73.76" x2="720.00" y2="73.76"/>
    <line x1="80.00" y1="73.37" x2="720.00" y2="73.37"/>
    <line x1="80.00" y1="72.60" x2="720.00" y2="72.60"/>
    <line x1="80.00" y1="72.22" x2="720.00" y2="72.22"/>
    <line x1="80.00" y1="71.83" x2="720.00" y2="71.83"/>
    <line x1="80.00" y1="71.45" x2="720.00" y2="71.45"/>
    <line x1="80.00" y1="70.68" x2="720.00" y2="70.68"/>
    <line x1="80.00" y1="70.29" x2="720.00" y2="70.29"/>
    <line x1="80.00" y1="69.91" x2="720.00" y2="69.91"/>
    <line x1="80.00" y1="69.52" x2="720.00" y2="69.52"/>
    <line x1="80.00" y1="68.75" x2="720.00" y2="68.75"/>
    <line x1="80.00" y1="68.37" x2="720.00" y2="68.37"/>
    <line x1="80.00" y1="67.98" x2="720.00" y2="67.98"/>
    <line x1="80.00" y1="67.60" x2="720.00" y2="67.60"/>
    <line x1="80.00" y1="66.83" x2="720.00" y2="66.83"/>
    <line x1="80.00" y1="66.44" x2="720.00" y2="66.44"/>
    <line x1="80.00" y1="66.06" x2="720.00" y2="66.06"/>
    <line x1="80.00" y1="65.68" x2="720.00" y2="65.68"/>
    <line x1="80.00" y1="64.91" x2="720.00" y2="64.91"/>
    <line x1="80.00" y1="64.52" x2="720.00" y2="64.52"/>
    <line x1="80.00" y1="64.14" x2="720.00" y2="64.14"/>
    <line x1="80.00" y1="63.75" x2="720.00" y2="63.75"/>
    <line x1="80.00" y1="62.98" x2="720.00" y2="62.98"/>
    <line x1="80.00" y1="62.60" x2="720.00" y2="62.60"/>
    <line x1="80.00" y1="62.21" x2="720.00" y2="62.21"/>
    <line x1="80.00" y1="61.83" x2="720.00" y2="61.83"/>
    <line x1="80.00" y1="61.06" x2="720.00" y2="61.06"/>
    <line x1="80.00" y1="60.67" x2="720.00" y2="60.67"/>
    <line x1="80.00" y1="60.29" x2="720.00" y2="60.29"/>
  </g>
  <g stroke="#808080" stroke-width="2">
    <line x1="400.00" y1="540.00" x2="400.00" y2="60.00"/>
    <line x1="80.00" y1="300.00" x2="720.00" y2="300.00"/>
  </g>
  <polyline fill="none" stroke="#0066cc" stroke-width="2" points="80.00,300.48 81.28,300.48 82.57,300.48 83.85,300.49 85.13,300.49 86.41,300.49 87.70,300.49 88.98,300.49 90.26,300.50 91.54,300.50 92.83,300.50 94.11,300.50 95.39,300.51 96.67,300.51 97.96,300.51 99.24,300.51 100.52,300.51 101.80,300.52 103.09,300.52 104.37,300.52 105.65,300.52 106.93,300.53 108.22,300.53 109.50,300.53 110.78,300.53 112.06,300.53 113.35,300.54 114.63,300.54 115.91,300.54 117.19,300.54 118.48,300.55 119.76,300.55 121.04,300.55 122.32,300.55 123.61,300.56 124.89,300.56 126.17,300.56 127.45,300.56 128.74,300.57 130.02,300.57 131.30,300.57 132.59,300.58 133.87,300.58 135.15,300.58 136.43,300.58 137.72,300.59 139.00,300.59 140.28,300.59 141.56,300.60 142.85,300.60 144.13,300.60 145.41,300.60 146.69,300.61 147.98,300.61 149.26,300.61 150.54,300.62 151.82,300.62 153.11,300.62 154.39,300.63 155.67,300.63 156.95,300.63 158.24,300.64 159.52,300.64 160.80,300.64 162.08,300.65 163.37,300.65 164.65,300.65 165.93,300.66 167.21,300.66 168.50,300.66 169.78,300.67 171.06,300.67 172.34,300.68 173.63,300.68 174.91,300.68 176.19,300.69 177.47,300.69 178.76,300.70 180.04,300.70 181.32,300.70 182.61,300.71 183.89,300.71 185.17,300.72 186.45,300.72 187.74,300.73 189.02,300.73 190.30,300.73 191.58,300.74 192.87,300.74 194.15,300.75 195.43,300.75 196.71,300.76 198.00,300.76 199.28,300.77 200.56,300.77 201.84,300.78 203.13,300.78 204.41,300.79 205.69,300.79 206.97,300.80 208.26,300.80 209.54,300.81 210.82,300.81 212.10,300.82 213.39,300.82 214.67,300.83 215.95,300.84 217.23,300.84 218.52,300.85 219.80,300.85 221.08,300.86 222.36,300.87 223.65,300.87 224.93,300.88 226.21,300.89 227.49,300.89 228.78,300.90 230.06,300.91 231.34,300.91 232.63,300.92 233.91,300.93 235.19,300.93 236.47,300.94 237.76,300.95 239.04,300.96 240.32,300.96 241.60,300.97 242.89,300.98 244.17,300.99 245.45,301.00 246.73,301.00 248.02,301.01 249.30,301.02 250.58,301.03 251.86,301.04 253.15,301.05 254.43,301.06 255.71,301.07 256.99,301.08 258.28,301.09 259.56,301.10 260.84,301.11 262.12,301.12 263.41,301.13 264.69,301.14 265.97,301.15 267.25,301.16 268.54,301.17 269.82,301.18 271.10,301.19 272.38,301.21 273.67,301.22 274.95,301.23 276.23,301.24 277.52,301.26 278.80,301.27 280.08,301.28 281.36,301.30 282.65,301.31 283.93,301.33 285.21,301.34 286.49,301.36 287.78,301.37 289.06,301.39 290.34,301.40 291.62,301.42 292.91,301.44 294.19,301.45 295.47,301.47 296.75,301.49 298.04,301.51 299.32,301.53 300.60,301.55 301.88,301.57 303.17,301.59 304.45,301.61 305.73,301.63 307.01,301.66 308.30,301.68 309.58,301.70 310.86,301.73 312.14,301.75 313.43,301.78 314.71,301.80 315.99,301.83 317.27,301.86 318.56,301.89 319.84,301.92 321.12,301.95 322.40,301.98 323.69,302.02 324.97,302.05 326.25,302.09 327.54,302.12 328.82,302.16 330.10,302.20 331.38,302.24 332.67,302.29 333.95,302.33 335.23,302.38 336.51,302.42 337.80,302.47 339.08,302.53 340.36,302.58 341.64,302.64 342.93,302.70 344.21,302.76 345.49,302.82 346.77,302.89 348.06,302.96 349.34,303.04 350.62,303.12 351.90,303.20 353.19,303.29 354.47,303.38 355.75,303.48 357.03,303.58 358.32,303.69 359.60,303.81 360.88,303.93 362.16,304.07 363.45,304.21 364.73,304.36 366.01,304.53 367.29,304.71 368.58,304.90 369.86,305.11 371.14,305.33 372.42,305.58 373.71,305.85 374.99,306.15 376.27,306.49 377.56,306.86 378.84,307.27 380.12,307.74 381.40,308.28 382.69,308.89 383.97,309.60 385.25,310.43 386.53,311.43 387.82,312.63 389.10,314.12 390.38,316.00 391.66,318.46 392.95,321.82 394.23,326.67 395.51,334.29 396.79,348.00 398.08,380.00 399.36,540.00 400.64,60.00 401.92,220.00 403.21,252.00 404.49,265.71 405.77,273.33 407.05,278.18 408.34,281.54 409.62,284.00 410.90,285.88 412.18,287.37 413.47,288.57 414.75,289.57 416.03,290.40 417.31,291.11 418.60,291.72 419.88,292.26 421.16,292.73 422.44,293.14 423.73,293.51 425.01,293.85 426.29,294.15 427.58,294.42 428.86,294.67 430.14,294.89 431.42,295.10 432.71,295.29 433.99,295.47 435.27,295.64 436.55,295.79 437.84,295.93 439.12,296.07 440.40,296.19 441.68,296.31 442.97,296.42 444.25,296.52 445.53,296.62 446.81,296.71 448.10,296.80 449.38,296.88 450.66,296.96 451.94,297.04 453.23,297.11 454.51,297.18 455.79,297.24 457.07,297.30 458.36,297.36 459.64,297.42 460.92,297.47 462.20,297.53 463.49,297.58 464.77,297.62 466.05,297.67 467.33,297.71 468.62,297.76 469.90,297.80 471.18,297.84 472.46,297.88 473.75,297.91 475.03,297.95 476.31,297.98 477.60,298.02 478.88,298.05 480.16,298.08 481.44,298.11 482.73,298.14 484.01,298.17 485.29,298.20 486.57,298.22 487.86,298.25 489.14,298.27 490.42,298.30 491.70,298.32 492.99,298.34 494.27,298.37 495.55,298.39 496.83,298.41 498.12,298.43 499.40,298.45 500.68,298.47 501.96,298.49 503.25,298.51 504.53,298.53 505.81,298.55 507.09,298.56 508.38,298.58 509.66,298.60 510.94,298.61 512.22,298.63 513.51,298.64 514.79,298.66 516.07,298.67 517.35,298.69 518.64,298.70 519.92,298.72 521.20,298.73 522.48,298.74 523.77,298.76 525.05,298.77 526.33,298.78 527.62,298.79 528.90,298.81 530.18,298.82 531.46,298.83 532.75,298.84 534.03,298.85 535.31,298.86 536.59,298.87 537.88,298.88 539.16,298.89 540.44,298.90 541.72,298.91 543.01,298.92 544.29,298.93 545.57,298.94 546.85,298.95 548.14,298.96 549.42,298.97 550.70,298.98 551.98,298.99 553.27,299.00 554.55,299.00 555.83,299.01 557.11,299.02 558.40,299.03 559.68,299.04 560.96,299.04 562.24,299.05 563.53,299.06 564.81,299.07 566.09,299.07 567.37,299.08 568.66,299.09 569.94,299.09 571.22,299.10 572.51,299.11 573.79,299.11 575.07,299.12 576.35,299.13 577.64,299.13 578.92,299.14 580.20,299.15 581.48,299.15 582.77,299.16 584.05,299.16 585.33,299.17 586.61,299.18 587.90,299.18 589.18,299.19 590.46,299.19 591.74,299.20 593.03,299.20 594.31,299.21 595.59,299.21 596.87,299.22 598.16,299.22 599.44,299.23 600.72,299.23 602.00,299.24 603.29,299.24 604.57,299.25 605.85,299.25 607.13,299.26 608.42,299.26 609.70,299.27 610.98,299.27 612.26,299.27 613.55,299.28 614.83,299.28 616.11,299.29 617.39,299.29 618.68,299.30 619.96,299.30 621.24,299.30 622.53,299.31 623.81,299.31 625.09,299.32 626.37,299.32 627.66,299.32 628.94,299.33 630.22,299.33 631.50,299.34 632.79,299.34 634.07,299.34 635.35,299.35 636.63,299.35 637.92,299.35 639.20,299.36 640.48,299.36 641.76,299.36 643.05,299.37 644.33,299.37 645.61,299.37 646.89,299.38 648.18,299.38 649.46,299.38 650.74,299.39 652.02,299.39 653.31,299.39 654.59,299.40 655.87,299.40 657.15,299.40 658.44,299.40 659.72,299.41 661.00,299.41 662.28,299.41 663.57,299.42 664.85,299.42 666.13,299.42 667.41,299.42 668.70,299.43 669.98,299.43 671.26,299.43 672.55,299.44 673.83,299.44 675.11,299.44 676.39,299.44 677.68,299.45 678.96,299.45 680.24,299.45 681.52,299.45 682.81,299.46 684.09,299.46 685.37,299.46 686.65,299.46 687.94,299.47 689.22,299.47 690.50,299.47 691.78,299.47 693.07,299.47 694.35,299.48 695.63,299.48 696.91,299.48 698.20,299.48 699.48,299.49 700.76,299.49 702.04,299.49 703.33,299.49 704.61,299.49 705.89,299.50 707.17,299.50 708.46,299.50 709.74,299.50 711.02,299.51 712.30,299.51 713.59,299.51 714.87,299.51 716.15,299.51 717.43,299.52 718.72,299.52 720.00,299.52 "/>
</svg>
