<?xml version="1.0" encoding="UTF-8"?>
<svg xmlns="http://www.w3.org/2000/svg" width="800" height="600">
  <title>Y=ln(x):.2,2:</title>
  <rect width="800" height="600" fill="#ffffff"/>
  <g stroke="#d0d0d0" stroke-width="1">
    <line x1="8.89" y1="540.00" x2="8.89" y2="60.00"/>
    <line x1="364.44" y1="540.00" x2="364.44" y2="60.00"/>
    <line x1="720.00" y1="540.00" x2="720.00" y2="60.00"/>
    <line x1="80.00" y1="621.42" x2="720.00" y2="621.42"/>
    <line x1="80.00" y1="412.96" x2="720.00" y2="412.96"/>
    <line x1="80.00" y1="204.49" x2="720.00" y2="204.49"/>
    <line x1="80.00" y1="-3.97" x2="720.00" y2="-3.97"/>
  </g>
  <g stroke="#e8e8e8" stroke-width="0.5">
    <line x1="80.00" y1="540.00" x2="80.00" y2="60.00"/>
    <line x1="151.11" y1="540.00" x2="151.11" y2="60.00"/>
    <line x1="222.22" y1="540.00" x2="222.22" y2="60.00"/>
    <line x1="293.33" y1="540.00" x2="293.33" y2="60.00"/>
    <line x1="435.56" y1="540.00" x2="435.56" y2="60.00"/>
    <line x1="506.67" y1="540.00" x2="506.67" y2="60.00"/>
    <line x1="577.78" y1="540.00" x2="577.78" y2="60.00"/>
    <line x1="648.89" y1="540.00" x2="648.89" y2="60.00"/>
    <line x1="80.00" y1="538.03" x2="720.00" y2="538.03"/>
    <line x1="80.00" y1="496.34" x2="720.00" y2="496.34"/>
    <line x1="80.00" y1="454.65" x2="720.00" y2="454.65"/>
    <line x1="80.00" y1="371.26" x2="720.00" y2="371.26"/>
    <line x1="80.00" y1="329.57" x2="720.00" y2="329.57"/>
    <line x1="80.00" y1="287.88" x2="720.00" y2="287.88"/>
    <line x1="80.00" y1="246.19" x2="720.00" y2="246.19"/>
    <line x1="80.00" y1="162.80" x2="720.00" y2="162.80"/>
    <line x1="80.00" y1="121.11" x2="720.00" y2="121.11"/>
    <line x1="80.00" y1="79.42" x2="720.00" y2="79.42"/>
  </g>
  <g stroke="#808080" stroke-width="2">
    <line x1="8.89" y1="540.00" x2="8.89" y2="60.00"/>
  </g>
  <polyline fill="none" stroke="#0066cc" stroke-width="2" points="80.00,540.00 81.28,536.27 82.57,532.61 83.85,529.02 85.13,525.48 86.41,522.00 87.70,518.58 88.98,515.21 90.26,511.90 91.54,508.64 92.83,505.43 94.11,502.27 95.39,499.16 96.67,496.09 97.96,493.07 99.24,490.09 100.52,487.15 101.80,484.25 103.09,481.39 104.37,478.57 105.65,475.79 106.93,473.05 108.22,470.34 109.50,467.66 110.78,465.02 112.06,462.41 113.35,459.84 114.63,457.29 115.91,454.78 117.19,452.30 118.48,449.84 119.76,447.42 121.04,445.02 122.32,442.65 123.61,440.31 124.89,437.99 126.17,435.70 127.45,433.43 128.74,431.19 130.02,428.97 131.30,426.77 132.59,424.60 133.87,422.45 135.15,420.32 136.43,418.21 137.72,416.13 139.00,414.06 140.28,412.02 141.56,409.99 142.85,407.99 144.13,406.00 145.41,404.03 146.69,402.08 147.98,400.15 149.26,398.24 150.54,396.34 151.82,394.46 153.11,392.60 154.39,390.76 155.67,388.93 156.95,387.11 158.24,385.31 159.52,383.53 160.80,381.76 162.08,380.01 163.37,378.27 164.65,376.55 165.93,374.84 167.21,373.15 168.50,371.46 169.78,369.80 171.06,368.14 172.34,366.50 173.63,364.87 174.91,363.25 176.19,361.65 177.47,360.06 178.76,358.48 180.04,356.91 181.32,355.35 182.61,353.81 183.89,352.27 185.17,350.75 186.45,349.24 187.74,347.74 189.02,346.25 190.30,344.77 191.58,343.30 192.87,341.84 194.15,340.40 195.43,338.96 196.71,337.53 198.00,336.11 199.28,334.70 200.56,333.30 201.84,331.91 203.13,330.53 204.41,329.16 205.69,327.80 206.97,326.44 208.26,325.10 209.54,323.76 210.82,322.43 212.10,321.11 213.39,319.80 214.67,318.50 215.95,317.20 217.23,315.91 218.52,314.63 219.80,313.36 221.08,312.10 222.36,310.84 223.65,309.59 224.93,308.35 226.21,307.12 227.49,305.89 228.78,304.67 230.06,303.46 231.34,302.25 232.63,301.06 233.91,299.86 235.19,298.68 236.47,297.50 237.76,296.33 239.04,295.17 240.32,294.01 241.60,292.85 242.89,291.71 244.17,290.57 245.45,289.44 246.73,288.31 248.02,287.19 249.30,286.07 250.58,284.96 251.86,283.86 253.15,282.76 254.43,281.67 255.71,280.59 256.99,279.50 258.28,278.43 259.56,277.36 260.84,276.30 262.12,275.24 263.41,274.19 264.69,273.14 265.97,272.09 267.25,271.06 268.54,270.03 269.82,269.00 271.10,267.98 272.38,266.96 273.67,265.95 274.95,264.94 276.23,263.94 277.52,262.94 278.80,261.95 280.08,260.96 281.36,259.97 282.65,259.00 283.93,258.02 285.21,257.05 286.49,256.09 287.78,255.12 289.06,254.17 290.34,253.22 291.62,252.27 292.91,251.32 294.19,250.39 295.47,249.45 296.75,248.52 298.04,247.59 299.32,246.67 300.60,245.75 301.88,244.84 303.17,243.93 304.45,243.02 305.73,242.12 307.01,241.22 308.30,240.32 309.58,239.43 310.86,238.55 312.14,237.66 313.43,236.78 314.71,235.91 315.99,235.03 317.27,234.16 318.56,233.30 319.84,232.44 321.12,231.58 322.40,230.73 323.69,229.87 324.97,229.03 326.25,228.18 327.54,227.34 328.82,226.50 330.10,225.67 331.38,224.84 332.67,224.01 333.95,223.19 335.23,222.37 336.51,221.55 337.80,220.74 339.08,219.92 340.36,219.12 341.64,218.31 342.93,217.51 344.21,216.71 345.49,215.91 346.77,215.12 348.06,214.33 349.34,213.54 350.62,212.76 351.90,211.98 353.19,211.20 354.47,210.43 355.75,209.65 357.03,208.88 358.32,208.12 359.60,207.35 360.88,206.59 362.16,205.84 363.45,205.08 364.73,204.33 366.01,203.58 367.29,202.83 368.58,202.09 369.86,201.34 371.14,200.60 372.42,199.87 373.71,199.13 374.99,198.40 376.27,197.67 377.56,196.95 378.84,196.22 380.12,195.50 381.40,194.78 382.69,194.07 383.97,193.35 385.25,192.64 386.53,191.93 387.82,191.22 389.10,190.52 390.38,189.82 391.66,189.12 392.95,188.42 394.23,187.73 395.51,187.03 396.79,186.34 398.08,185.65 399.36,184.97 400.64,184.28 401.92,183.60 403.21,182.92 404.49,182.25 405.77,181.57 407.05,180.90 408.34,180.23 409.62,179.56 410.90,178.89 412.18,178.23 413.47,177.57 414.75,176.91 416.03,176.25 417.31,175.60 418.60,174.94 419.88,174.29 421.16,173.64 422.44,172.99 423.73,172.35 425.01,171.70 426.29,171.06 427.58,170.42 428.86,169.79 430.14,169.15 431.42,168.52 432.71,167.88 433.99,167.25 435.27,166.63 436.55,166.00 437.84,165.38 439.12,164.75 440.40,164.13 441.68,163.51 442.97,162.90 444.25,162.28 445.53,161.67 446.81,161.06 448.10,160.45 449.38,159.84 450.66,159.23 451.94,158.63 453.23,158.03 454.51,157.43 455.79,156.83 457.07,156.23 458.36,155.63 459.64,155.04 460.92,154.45 462.20,153.86 463.49,153.27 464.77,152.68 466.05,152.10 467.33,151.51 468.62,150.93 469.90,150.35 471.18,149.77 472.46,149.19 473.75,148.62 475.03,148.04 476.31,147.47 477.60,146.90 478.88,146.33 480.16,145.76 481.44,145.19 482.73,144.63 484.01,144.06 485.29,143.50 486.57,142.94 487.86,142.38 489.14,141.83 490.42,141.27 491.70,140.72 492.99,140.16 494.27,139.61 495.55,139.06 496.83,138.51 498.12,137.96 499.40,137.42 500.68,136.87 501.96,136.33 503.25,135.79 504.53,135.25 505.81,134.71 507.09,134.17 508.38,133.64 509.66,133.10 510.94,132.57 512.22,132.04 513.51,131.51 514.79,130.98 516.07,130.45 517.35,129.92 518.64,129.40 519.92,128.88 521.20,128.35 522.48,127.83 523.77,127.31 525.05,126.79 526.33,126.28 527.62,125.76 528.90,125.24 530.18,124.73 531.46,124.22 532.75,123.71 534.03,123.20 535.31,122.69 536.59,122.18 537.88,121.68 539.16,121.17 540.44,120.67 541.72,120.17 543.01,119.66 544.29,119.16 545.57,118.67 546.85,118.17 548.14,117.67 549.42,117.18 550.70,116.68 551.98,116.19 553.27,115.70 554.55,115.21 555.83,114.72 557.11,114.23 558.40,113.74 559.68,113.26 560.96,112.77 562.24,112.29 563.53,111.81 564.81,111.32 566.09,110.84 567.37,110.36 568.66,109.89 569.94,109.41 571.22,108.93 572.51,108.46 573.79,107.98 575.07,107.51 576.35,107.04 577.64,106.57 578.92,106.10 580.20,105.63 581.48,105.16 582.77,104.70 584.05,104.23 585.33,103.77 586.61,103.30 587.90,102.84 589.18,102.38 590.46,101.92 591.74,101.46 593.03,101.00 594.31,100.55 595.59,100.09 596.87,99.63 598.16,99.18 599.44,98.73 600.72,98.27 602.00,97.82 603.29,97.37 604.57,96.92 605.85,96.48 607.13,96.03 608.42,95.58 609.70,95.14 610.98,94.69 612.26,94.25 613.55,93.81 614.83,93.36 616.11,92.92 617.39,92.48 618.68,92.04 619.96,91.61 621.24,91.17 622.53,90.73 623.81,90.30 625.09,89.86 626.37,89.43 627.66,89.00 628.94,88.57 630.22,88.13 631.50,87.70 632.79,87.28 634.07,86.85 635.35,86.42 636.63,85.99 637.92,85.57 639.20,85.14 640.48,84.72 641.76,84.30 643.05,83.88 644.33,83.45 645.61,83.03 646.89,82.61 648.18,82.20 649.46,81.78 650.74,81.36 652.02,80.94 653.31,80.53 654.59,80.12 655.87,79.70 657.15,79.29 658.44,78.88 659.72,78.47 661.00,78.05 662.28,77.65 663.57,77.24 664.85,76.83 666.13,76.42 667.41,76.01 668.70,75.61 669.98,75.20 671.26,74.80 672.55,74.40 673.83,73.99 675.11,73.59 676.39,73.19 677.68,72.79 678.96,72.39 680.24,71.99 681.52,71.60 682.81,71.20 684.09,70.80 685.37,70.41 686.65,70.01 687.94,69.62 689.22,69.22 690.50,68.83 691.78,68.44 693.07,68.05 694.35,67.66 695.63,67.27 696.91,66.88 698.20,66.49 699.48,66.10 700.76,65.72 702.04,65.33 703.33,64.95 704.61,64.56 705.89,64.18 707.17,63.79 708.46,63.41 709.74,63.03 711.02,62.65 712.30,62.27 713.59,61.89 714.87,61.51 716.15,61.13 717.43,60.75 718.72,60.38 720.00,60.00 "/>
</svg>
