<?xml version="1.0" encoding="UTF-8"?>
<svg xmlns="http://www.w3.org/2000/svg" width="800" height="600">
  <title>Y=sin(x):-pi,pi:</title>
  <rect width="800" height="600" fill="#ffffff"/>
  <g stroke="#d0d0d0" stroke-width="1">
    <line x1="-7.44" y1="540.00" x2="-7.44" y2="60.00"/>
    <line x1="94.42" y1="540.00" x2="94.42" y2="60.00"/>
    <line x1="196.28" y1="540.00" x2="196.28" y2="60.00"/>
    <line x1="298.14" y1="540.00" x2="298.14" y2="60.00"/>
    <line x1="400.00" y1="540.00" x2="400.00" y2="60.00"/>
    <line x1="501.86" y1="540.00" x2="501.86" y2="60.00"/>
    <line x1="603.72" y1="540.00" x2="603.72" y2="60.00"/>
    <line x1="705.58" y1="540.00" x2="705.58" y2="60.00"/>
    <line x1="807.44" y1="540.00" x2="807.44" y2="60.00"/>
    <line x1="80.00" y1="540.00" x2="720.00" y2="540.00"/>
    <line x1="80.00" y1="300.00" x2="720.00" y2="300.00"/>
    <line x1="80.00" y1="60.00" x2="720.00" y2="60.00"/>
  </g>
  <g stroke="#e8e8e8" stroke-width="0.5">
    <line x1="114.79" y1="540.00" x2="114.79" y2="60.00"/>
    <line x1="135.17" y1="540.00" x2="135.17" y2="60.00"/>
    <line x1="155.54" y1="540.00" x2="155.54" y2="60.00"/>
    <line x1="175.91" y1="540.00" x2="175.91" y2="60.00"/>
    <line x1="216.65" y1="540.00" x2="216.65" y2="60.00"/>
    <line x1="237.03" y1="540.00" x2="237.03" y2="60.00"/>
    <line x1="257.40" y1="540.00" x2="257.40" y2="60.00"/>
    <line x1="277.77" y1="540.00" x2="277.77" y2="60.00"/>
    <line x1="318.51" y1="540.00" x2="318.51" y2="60.00"/>
    <line x1="338.88" y1="540.00" x2="338.88" y2="60.00"/>
    <line x1="359.26" y1="540.00" x2="359.26" y2="60.00"/>
    <line x1="379.63" y1="540.00" x2="379.63" y2="60.00"/>
    <line x1="420.37" y1="540.00" x2="420.37" y2="60.00"/>
    <line x1="440.74" y1="540.00" x2="440.74" y2="60.00"/>
    <line x1="461.12" y1="540.00" x2="461.12" y2="60.00"/>
    <line x1="481.49" y1="540.00" x2="481.49" y2="60.00"/>
    <line x1="522.23" y1="540.00" x2="522.23" y2="60.00"/>
    <line x1="542.60" y1="540.00" x2="542.60" y2="60.00"/>
    <line x1="562.97" y1="540.00" x2="562.97" y2="60.00"/>
    <line x1="583.35" y1="540.00" x2="583.35" y2="60.00"/>
    <line x1="624.09" y1="540.00" x2="624.09" y2="60.00"/>
    <line x1="644.46" y1="540.00" x2="644.46" y2="60.00"/>
    <line x1="664.83" y1="540.00" x2="664.83" y2="60.00"/>
    <line x1="685.21" y1="540.00" x2="685.21" y2="60.00"/>
    <line x1="80.00" y1="492.00" x2="720.00" y2="492.00"/>
    <line x1="80.00" y1="444.00" x2="720.00" y2="444.00"/>
    <line x1="80.00" y1="396.00" x2="720.00" y2="396.00"/>
    <line x1="80.00" y1="348.00" x2="720.00" y2="348.00"/>
    <line x1="80.00" y1="252.00" x2="720.00" y2="252.00"/>
    <line x1="80.00" y1="204.00" x2="720.00" y2="204.00"/>
    <line x1="80.00" y1="156.00" x2="720.00" y2="156.00"/>
    <line x1="80.00" y1="108.00" x2="720.00" y2="108.00"/>
  </g>
  <g stroke="#808080" stroke-width="2">
    <line x1="400.00" y1="540.00" x2="400.00" y2="60.00"/>
    <line x1="80.00" y1="300.00" x2="720.00" y2="300.00"/>
  </g>
  <polyline fill="none" stroke="#0066cc" stroke-width="2" points="80.00,300.00 81.28,303.02 82.57,306.04 83.85,309.06 85.13,312.08 86.41,315.10 87.70,318.11 88.98,321.13 90.26,324.14 91.54,327.14 92.83,330.14 94.11,333.14 95.39,336.13 96.67,339.11 97.96,342.09 99.24,345.06 100.52,348.03 101.80,350.98 103.09,353.93 104.37,356.87 105.65,359.80 106.93,362.72 108.22,365.64 109.50,368.54 110.78,371.43 112.06,374.31 113.35,377.18 114.63,380.03 115.91,382.87 117.19,385.70 118.48,388.52 119.76,391.32 121.04,394.11 122.32,396.88 123.61,399.64 124.89,402.38 126.17,405.10 127.45,407.81 128.74,410.50 130.02,413.18 131.30,415.83 132.59,418.47 133.87,421.09 135.15,423.69 136.43,426.27 137.72,428.83 139.00,431.37 140.28,433.89 141.56,436.38 142.85,438.86 144.13,441.31 145.41,443.74 146.69,446.15 147.98,448.54 149.26,450.90 150.54,453.24 151.82,455.55 153.11,457.84 154.39,460.10 155.67,462.34 156.95,464.56 158.24,466.74 159.52,468.90 160.80,471.04 162.08,473.14 163.37,475.22 164.65,477.27 165.93,479.30 167.21,481.29 168.50,483.26 169.78,485.19 171.06,487.10 172.34,488.98 173.63,490.83 174.91,492.64 176.19,494.43 177.47,496.19 178.76,497.91 180.04,499.61 181.32,501.27 182.61,502.90 183.89,504.50 185.17,506.06 186.45,507.59 187.74,509.09 189.02,510.56 190.30,512.00 191.58,513.39 192.87,514.76 194.15,516.09 195.43,517.39 196.71,518.65 198.00,519.88 199.28,521.08 200.56,522.23 201.84,523.36 203.13,524.45 204.41,525.50 205.69,526.52 206.97,527.50 208.26,528.44 209.54,529.35 210.82,530.22 212.10,531.06 213.39,531.86 214.67,532.62 215.95,533.34 217.23,534.03 218.52,534.68 219.80,535.30 221.08,535.87 222.36,536.41 223.65,536.91 224.93,537.38 226.21,537.81 227.49,538.19 228.78,538.55 230.06,538.86 231.34,539.13 232.63,539.37 233.91,539.57 235.19,539.73 236.47,539.86 237.76,539.94 239.04,539.99 240.32,540.00 241.60,539.97 242.89,539.90 244.17,539.80 245.45,539.66 246.73,539.48 248.02,539.26 249.30,539.00 250.58,538.71 251.86,538.38 253.15,538.01 254.43,537.60 255.71,537.15 256.99,536.67 258.28,536.15 259.56,535.59 260.84,534.99 262.12,534.36 263.41,533.69 264.69,532.99 265.97,532.24 267.25,531.46 268.54,530.64 269.82,529.79 271.10,528.90 272.38,527.97 273.67,527.01 274.95,526.01 276.23,524.98 277.52,523.91 278.80,522.80 280.08,521.66 281.36,520.48 282.65,519.27 283.93,518.03 285.21,516.75 286.49,515.43 287.78,514.08 289.06,512.70 290.34,511.28 291.62,509.83 292.91,508.35 294.19,506.83 295.47,505.28 296.75,503.70 298.04,502.09 299.32,500.44 300.60,498.76 301.88,497.05 303.17,495.31 304.45,493.54 305.73,491.74 307.01,489.91 308.30,488.04 309.58,486.15 310.86,484.23 312.14,482.28 313.43,480.30 314.71,478.29 315.99,476.25 317.27,474.19 318.56,472.09 319.84,469.97 321.12,467.83 322.40,465.65 323.69,463.45 324.97,461.23 326.25,458.98 327.54,456.70 328.82,454.40 330.10,452.07 331.38,449.72 332.67,447.35 333.95,444.95 335.23,442.53 336.51,440.09 337.80,437.62 339.08,435.14 340.36,432.63 341.64,430.10 342.93,427.55 344.21,424.98 345.49,422.39 346.77,419.78 348.06,417.15 349.34,414.51 350.62,411.84 351.90,409.16 353.19,406.46 354.47,403.74 355.75,401.01 357.03,398.26 358.32,395.50 359.60,392.72 360.88,389.92 362.16,387.11 363.45,384.29 364.73,381.45 366.01,378.60 367.29,375.74 368.58,372.87 369.86,369.98 371.14,367.09 372.42,364.18 373.71,361.27 374.99,358.34 376.27,355.40 377.56,352.46 378.84,349.50 380.12,346.54 381.40,343.58 382.69,340.60 383.97,337.62 385.25,334.63 386.53,331.64 387.82,328.64 389.10,325.64 390.38,322.63 391.66,319.62 392.95,316.61 394.23,313.59 395.51,310.57 396.79,307.55 398.08,304.53 399.36,301.51 400.64,298.49 401.92,295.47 403.21,292.45 404.49,289.43 405.77,286.41 407.05,283.39 408.34,280.38 409.62,277.37 410.90,274.36 412.18,271.36 413.47,268.36 414.75,265.37 416.03,262.38 417.31,259.40 418.60,256.42 419.88,253.46 421.16,250.50 422.44,247.54 423.73,244.60 425.01,241.66 426.29,238.73 427.58,235.82 428.86,232.91 430.14,230.02 431.42,227.13 432.71,224.26 433.99,221.40 435.27,218.55 436.55,215.71 437.84,212.89 439.12,210.08 440.40,207.28 441.68,204.50 442.97,201.74 444.25,198.99 445.53,196.26 446.81,193.54 448.10,190.84 449.38,188.16 450.66,185.49 451.94,182.85 453.23,180.22 454.51,177.61 455.79,175.02 457.07,172.45 458.36,169.90 459.64,167.37 460.92,164.86 462.20,162.38 463.49,159.91 464.77,157.47 466.05,155.05 467.33,152.65 468.62,150.28 469.90,147.93 471.18,145.60 472.46,143.30 473.75,141.02 475.03,138.77 476.31,136.55 477.60,134.35 478.88,132.17 480.16,130.03 481.44,127.91 482.73,125.81 484.01,123.75 485.29,121.71 486.57,119.70 487.86,117.72 489.14,115.77 490.42,113.85 491.70,111.96 492.99,110.09 494.27,108.26 495.55,106.46 496.83,104.69 498.12,102.95 499.40,101.24 500.68,99.56 501.96,97.91 503.25,96.30 504.53,94.72 505.81,93.17 507.09,91.65 508.38,90.17 509.66,88.72 510.94,87.30 512.22,85.92 513.51,84.57 514.79,83.25 516.07,81.97 517.35,80.73 518.64,79.52 519.92,78.34 521.20,77.20 522.48,76.09 523.77,75.02 525.05,73.99 526.33,72.99 527.62,72.03 528.90,71.10 530.18,70.21 531.46,69.36 532.75,68.54 534.03,67.76 535.31,67.01 536.59,66.31 537.88,65.64 539.16,65.01 540.44,64.41 541.72,63.85 543.01,63.33 544.29,62.85 545.57,62.40 546.85,61.99 548.14,61.62 549.42,61.29 550.70,61.00 551.98,60.74 553.27,60.52 554.55,60.34 555.83,60.20 557.11,60.10 558.40,60.03 559.68,60.00 560.96,60.01 562.24,60.06 563.53,60.14 564.81,60.27 566.09,60.43 567.37,60.63 568.66,60.87 569.94,61.14 571.22,61.45 572.51,61.81 573.79,62.19 575.07,62.62 576.35,63.09 577.64,63.59 578.92,64.13 580.20,64.70 581.48,65.32 582.77,65.97 584.05,66.66 585.33,67.38 586.61,68.14 587.90,68.94 589.18,69.78 590.46,70.65 591.74,71.56 593.03,72.50 594.31,73.48 595.59,74.50 596.87,75.55 598.16,76.64 599.44,77.77 600.72,78.92 602.00,80.12 603.29,81.35 604.57,82.61 605.85,83.91 607.13,85.24 608.42,86.61 609.70,88.00 610.98,89.44 612.26,90.91 613.55,92.41 614.83,93.94 616.11,95.50 617.39,97.10 618.68,98.73 619.96,100.39 621.24,102.09 622.53,103.81 623.81,105.57 625.09,107.36 626.37,109.17 627.66,111.02 628.94,112.90 630.22,114.81 631.50,116.74 632.79,118.71 634.07,120.70 635.35,122.73 636.63,124.78 637.92,126.86 639.20,128.96 640.48,131.10 641.76,133.26 643.05,135.44 644.33,137.66 645.61,139.90 646.89,142.16 648.18,144.45 649.46,146.76 650.74,149.10 652.02,151.46 653.31,153.85 654.59,156.26 655.87,158.69 657.15,161.14 658.44,163.62 659.72,166.11 661.00,168.63 662.28,171.17 663.57,173.73 664.85,176.31 666.13,178.91 667.41,181.53 668.70,184.17 669.98,186.82 671.26,189.50 672.55,192.19 673.83,194.90 675.11,197.62 676.39,200.36 677.68,203.12 678.96,205.89 680.24,208.68 681.52,211.48 682.81,214.30 684.09,217.13 685.37,219.97 686.65,222.82 687.94,225.69 689.22,228.57 690.50,231.46 691.78,234.36 693.07,237.28 694.35,240.20 695.63,243.13 696.91,246.07 698.20,249.02 699.48,251.97 700.76,254.94 702.04,257.91 703.33,260.89 704.61,263.87 705.89,266.86 707.17,269.86 708.46,272.86 709.74,275.86 711.02,278.87 712.30,281.89 713.59,284.90 714.87,287.92 716.15,290.94 717.43,293.96 718.72,296.98 720.00,300.00 "/>
</svg>
