<?xml version="1.0" encoding="UTF-8"?>
<svg xmlns="http://www.w3.org/2000/svg" width="800" height="600">
  <title>Y=cos(x):-pi,pi:</title>
  <rect width="800" height="600" fill="#ffffff"/>
  <g stroke="#d0d0d0" stroke-width="1">
    <line x1="-7.44" y1="540.00" x2="-7.44" y2="60.00"/>
    <line x1="94.42" y1="540.00" x2="94.42" y2="60.00"/>
    <line x1="196.28" y1="540.00" x2="196.28" y2="60.00"/>
    <line x1="298.14" y1="540.00" x2="298.14" y2="60.00"/>
    <line x1="400.00" y1="540.00" x2="400.00" y2="60.00"/>
    <line x1="501.86" y1="540.00" x2="501.86" y2="60.00"/>
    <line x1="603.72" y1="540.00" x2="603.72" y2="60.00"/>
    <line x1="705.58" y1="540.00" x2="705.58" y2="60.00"/>
    <line x1="807.44" y1="540.00" x2="807.44" y2="60.00"/>
    <line x1="80.00" y1="540.00" x2="720.00" y2="540.00"/>
    <line x1="80.00" y1="300.00" x2="720.00" y2="300.00"/>
    <line x1="80.00" y1="60.00" x2="720.00" y2="60.00"/>
  </g>
  <g stroke="#e8e8e8" stroke-width="0.5">
    <line x1="114.79" y1="540.00" x2="114.79" y2="60.00"/>
    <line x1="135.17" y1="540.00" x2="135.17" y2="60.00"/>
    <line x1="155.54" y1="540.00" x2="155.54" y2="60.00"/>
    <line x1="175.91" y1="540.00" x2="175.91" y2="60.00"/>
    <line x1="216.65" y1="540.00" x2="216.65" y2="60.00"/>
    <line x1="237.03" y1="540.00" x2="237.03" y2="60.00"/>
    <line x1="257.40" y1="540.00" x2="257.40" y2="60.00"/>
    <line x1="277.77" y1="540.00" x2="277.77" y2="60.00"/>
    <line x1="318.51" y1="540.00" x2="318.51" y2="60.00"/>
    <line x1="338.88" y1="540.00" x2="338.88" y2="60.00"/>
    <line x1="359.26" y1="540.00" x2="359.26" y2="60.00"/>
    <line x1="379.63" y1="540.00" x2="379.63" y2="60.00"/>
    <line x1="420.37" y1="540.00" x2="420.37" y2="60.00"/>
    <line x1="440.74" y1="540.00" x2="440.74" y2="60.00"/>
    <line x1="461.12" y1="540.00" x2="461.12" y2="60.00"/>
    <line x1="481.49" y1="540.00" x2="481.49" y2="60.00"/>
    <line x1="522.23" y1="540.00" x2="522.23" y2="60.00"/>
    <line x1="542.60" y1="540.00" x2="542.60" y2="60.00"/>
    <line x1="562.97" y1="540.00" x2="562.97" y2="60.00"/>
    <line x1="583.35" y1="540.00" x2="583.35" y2="60.00"/>
    <line x1="624.09" y1="540.00" x2="624.09" y2="60.00"/>
    <line x1="644.46" y1="540.00" x2="644.46" y2="60.00"/>
    <line x1="664.83" y1="540.00" x2="664.83" y2="60.00"/>
    <line x1="685.21" y1="540.00" x2="685.21" y2="60.00"/>
    <line x1="80.00" y1="492.00" x2="720.00" y2="492.00"/>
    <line x1="80.00" y1="444.00" x2="720.00" y2="444.00"/>
    <line x1="80.00" y1="396.00" x2="720.00" y2="396.00"/>
    <line x1="80.00" y1="348.00" x2="720.00" y2="348.00"/>
    <line x1="80.00" y1="252.00" x2="720.00" y2="252.00"/>
    <line x1="80.00" y1="204.00" x2="720.00" y2="204.00"/>
    <line x1="80.00" y1="156.00" x2="720.00" y2="156.00"/>
    <line x1="80.00" y1="108.00" x2="720.00" y2="108.00"/>
  </g>
  <g stroke="#808080" stroke-width="2">
    <line x1="400.00" y1="540.00" x2="400.00" y2="60.00"/>
    <line x1="80.00" y1="300.00" x2="720.00" y2="300.00"/>
  </g>
  <polyline fill="none" stroke="#0066cc" stroke-width="2" points="80.00,540.00 81.28,539.98 82.57,539.92 83.85,539.83 85.13,539.70 86.41,539.52 87.70,539.32 88.98,539.07 90.26,538.78 91.54,538.46 92.83,538.10 94.11,537.70 95.39,537.27 96.67,536.79 97.96,536.28 99.24,535.73 100.52,535.15 101.80,534.52 103.09,533.86 104.37,533.16 105.65,532.43 106.93,531.66 108.22,530.85 109.50,530.01 110.78,529.12 112.06,528.21 113.35,527.25 114.63,526.26 115.91,525.24 117.19,524.18 118.48,523.08 119.76,521.95 121.04,520.78 122.32,519.58 123.61,518.34 124.89,517.07 126.17,515.76 127.45,514.42 128.74,513.05 130.02,511.64 131.30,510.20 132.59,508.72 133.87,507.21 135.15,505.67 136.43,504.10 137.72,502.49 139.00,500.85 140.28,499.18 141.56,497.48 142.85,495.75 144.13,493.99 145.41,492.19 146.69,490.37 147.98,488.51 149.26,486.63 150.54,484.71 151.82,482.77 153.11,480.79 154.39,478.79 155.67,476.76 156.95,474.70 158.24,472.62 159.52,470.50 160.80,468.36 162.08,466.20 163.37,464.00 164.65,461.78 165.93,459.54 167.21,457.27 168.50,454.97 169.78,452.65 171.06,450.31 172.34,447.94 173.63,445.55 174.91,443.14 176.19,440.70 177.47,438.24 178.76,435.76 180.04,433.26 181.32,430.73 182.61,428.19 183.89,425.62 185.17,423.04 186.45,420.43 187.74,417.81 189.02,415.17 190.30,412.51 191.58,409.83 192.87,407.13 194.15,404.42 195.43,401.69 196.71,398.95 198.00,396.19 199.28,393.41 200.56,390.62 201.84,387.81 203.13,384.99 204.41,382.16 205.69,379.32 206.97,376.46 208.26,373.59 209.54,370.71 210.82,367.81 212.10,364.91 213.39,361.99 214.67,359.07 215.95,356.14 217.23,353.19 218.52,350.24 219.80,347.28 221.08,344.32 222.36,341.34 223.65,338.36 224.93,335.38 226.21,332.39 227.49,329.39 228.78,326.39 230.06,323.38 231.34,320.37 232.63,317.36 233.91,314.34 235.19,311.33 236.47,308.31 237.76,305.29 239.04,302.26 240.32,299.24 241.60,296.22 242.89,293.20 244.17,290.18 245.45,287.16 246.73,284.14 248.02,281.13 249.30,278.12 250.58,275.11 251.86,272.11 253.15,269.11 254.43,266.11 255.71,263.12 256.99,260.14 258.28,257.16 259.56,254.19 260.84,251.23 262.12,248.28 263.41,245.33 264.69,242.39 265.97,239.46 267.25,236.54 268.54,233.63 269.82,230.74 271.10,227.85 272.38,224.97 273.67,222.11 274.95,219.25 276.23,216.42 277.52,213.59 278.80,210.78 280.08,207.98 281.36,205.19 282.65,202.43 283.93,199.67 285.21,196.94 286.49,194.21 287.78,191.51 289.06,188.82 290.34,186.15 291.62,183.50 292.91,180.87 294.19,178.26 295.47,175.66 296.75,173.09 298.04,170.53 299.32,168.00 300.60,165.48 301.88,162.99 303.17,160.52 304.45,158.07 305.73,155.65 307.01,153.24 308.30,150.87 309.58,148.51 310.86,146.18 312.14,143.87 313.43,141.59 314.71,139.33 315.99,137.10 317.27,134.89 318.56,132.71 319.84,130.56 321.12,128.43 322.40,126.33 323.69,124.26 324.97,122.22 326.25,120.20 327.54,118.21 328.82,116.25 330.10,114.32 331.38,112.42 332.67,110.55 333.95,108.71 335.23,106.90 336.51,105.12 337.80,103.38 339.08,101.66 340.36,99.97 341.64,98.32 342.93,96.70 344.21,95.11 345.49,93.55 346.77,92.02 348.06,90.53 349.34,89.07 350.62,87.65 351.90,86.26 353.19,84.90 354.47,83.58 355.75,82.29 357.03,81.03 358.32,79.81 359.60,78.63 360.88,77.48 362.16,76.36 363.45,75.28 364.73,74.24 366.01,73.23 367.29,72.26 368.58,71.33 369.86,70.43 371.14,69.56 372.42,68.74 373.71,67.95 374.99,67.19 376.27,66.48 377.56,65.80 378.84,65.16 380.12,64.55 381.40,63.98 382.69,63.45 383.97,62.96 385.25,62.51 386.53,62.09 387.82,61.71 389.10,61.37 390.38,61.06 391.66,60.80 392.95,60.57 394.23,60.38 395.51,60.23 396.79,60.11 398.08,60.04 399.36,60.00 400.64,60.00 401.92,60.04 403.21,60.11 404.49,60.23 405.77,60.38 407.05,60.57 408.34,60.80 409.62,61.06 410.90,61.37 412.18,61.71 413.47,62.09 414.75,62.51 416.03,62.96 417.31,63.45 418.60,63.98 419.88,64.55 421.16,65.16 422.44,65.80 423.73,66.48 425.01,67.19 426.29,67.95 427.58,68.74 428.86,69.56 430.14,70.43 431.42,71.33 432.71,72.26 433.99,73.23 435.27,74.24 436.55,75.28 437.84,76.36 439.12,77.48 440.40,78.63 441.68,79.81 442.97,81.03 444.25,82.29 445.53,83.58 446.81,84.90 448.10,86.26 449.38,87.65 450.66,89.07 451.94,90.53 453.23,92.02 454.51,93.55 455.79,95.11 457.07,96.70 458.36,98.32 459.64,99.97 460.92,101.66 462.20,103.38 463.49,105.12 464.77,106.90 466.05,108.71 467.33,110.55 468.62,112.42 469.90,114.32 471.18,116.25 472.46,118.21 473.75,120.20 475.03,122.22 476.31,124.26 477.60,126.33 478.88,128.43 480.16,130.56 481.44,132.71 482.73,134.89 484.01,137.10 485.29,139.33 486.57,141.59 487.86,143.87 489.14,146.18 490.42,148.51 491.70,150.87 492.99,153.24 494.27,155.65 495.55,158.07 496.83,160.52 498.12,162.99 499.40,165.48 500.68,168.00 501.96,170.53 503.25,173.09 504.53,175.66 505.81,178.26 507.09,180.87 508.38,183.50 509.66,186.15 510.94,188.82 512.22,191.51 513.51,194.21 514.79,196.94 516.07,199.67 517.35,202.43 518.64,205.19 519.92,207.98 521.20,210.78 522.48,213.59 523.77,216.42 525.05,219.25 526.33,222.11 527.62,224.97 528.90,227.85 530.18,230.74 531.46,233.63 532.75,236.54 534.03,239.46 535.31,242.39 536.59,245.33 537.88,248.28 539.16,251.23 540.44,254.19 541.72,257.16 543.01,260.14 544.29,263.12 545.57,266.11 546.85,269.11 548.14,272.11 549.42,275.11 550.70,278.12 551.98,281.13 553.27,284.14 554.55,287.16 555.83,290.18 557.11,293.20 558.40,296.22 559.68,299.24 560.96,302.26 562.24,305.29 563.53,308.31 564.81,311.33 566.09,314.34 567.37,317.36 568.66,320.37 569.94,323.38 571.22,326.39 572.51,329.39 573.79,332.39 575.07,335.38 576.35,338.36 577.64,341.34 578.92,344.32 580.20,347.28 581.48,350.24 582.77,353.19 584.05,356.14 585.33,359.07 586.61,361.99 587.90,364.91 589.18,367.81 590.46,370.71 591.74,373.59 593.03,376.46 594.31,379.32 595.59,382.16 596.87,384.99 598.16,387.81 599.44,390.62 600.72,393.41 602.00,396.19 603.29,398.95 604.57,401.69 605.85,404.42 607.13,407.13 608.42,409.83 609.70,412.51 610.98,415.17 612.26,417.81 613.55,420.43 614.83,423.04 616.11,425.62 617.39,428.19 618.68,430.73 619.96,433.26 621.24,435.76 622.53,438.24 623.81,440.70 625.09,443.14 626.37,445.55 627.66,447.94 628.94,450.31 630.22,452.65 631.50,454.97 632.79,457.27 634.07,459.54 635.35,461.78 636.63,464.00 637.92,466.20 639.20,468.36 640.48,470.50 641.76,472.62 643.05,474.70 644.33,476.76 645.61,478.79 646.89,480.79 648.18,482.77 649.46,484.71 650.74,486.63 652.02,488.51 653.31,490.37 654.59,492.19 655.87,493.99 657.15,495.75 658.44,497.48 659.72,499.18 661.00,500.85 662.28,502.49 663.57,504.10 664.85,505.67 666.13,507.21 667.41,508.72 668.70,510.20 669.98,511.64 671.26,513.05 672.55,514.42 673.83,515.76 675.11,517.07 676.39,518.34 677.68,519.58 678.96,520.78 680.24,521.95 681.52,523.08 682.81,524.18 684.09,525.24 685.37,526.26 686.65,527.25 687.94,528.21 689.22,529.12 690.50,530.01 691.78,530.85 693.07,531.66 694.35,532.43 695.63,533.16 696.91,533.86 698.20,534.52 699.48,535.15 700.76,535.73 702.04,536.28 703.33,536.79 704.61,537.27 705.89,537.70 707.17,538.10 708.46,538.46 709.74,538.78 711.02,539.07 712.30,539.32 713.59,539.52 714.87,539.70 716.15,539.83 717.43,539.92 718.72,539.98 720.00,540.00 "/>
</svg>
