<?xml version="1.0" encoding="UTF-8"?>
<svg xmlns="http://www.w3.org/2000/svg" width="800" height="600">
  <title>Y=asin(x):-1,1:</title>
  <rect width="800" height="600" fill="#ffffff"/>
  <g stroke="#d0d0d0" stroke-width="1">
    <line x1="80.00" y1="540.00" x2="80.00" y2="60.00"/>
    <line x1="400.00" y1="540.00" x2="400.00" y2="60.00"/>
    <line x1="720.00" y1="540.00" x2="720.00" y2="60.00"/>
    <line x1="80.00" y1="605.58" x2="720.00" y2="605.58"/>
    <line x1="80.00" y1="452.79" x2="720.00" y2="452.79"/>
    <line x1="80.00" y1="300.00" x2="720.00" y2="300.00"/>
    <line x1="80.00" y1="147.21" x2="720.00" y2="147.21"/>
    <line x1="80.00" y1="-5.58" x2="720.00" y2="-5.58"/>
  </g>
  <g stroke="#e8e8e8" stroke-width="0.5">
    <line x1="144.00" y1="540.00" x2="144.00" y2="60.00"/>
    <line x1="208.00" y1="540.00" x2="208.00" y2="60.00"/>
    <line x1="272.00" y1="540.00" x2="272.00" y2="60.00"/>
    <line x1="336.00" y1="540.00" x2="336.00" y2="60.00"/>
    <line x1="464.00" y1="540.00" x2="464.00" y2="60.00"/>
    <line x1="528.00" y1="540.00" x2="528.00" y2="60.00"/>
    <line x1="592.00" y1="540.00" x2="592.00" y2="60.00"/>
    <line x1="656.00" y1="540.00" x2="656.00" y2="60.00"/>
    <line x1="80.00" y1="513.90" x2="720.00" y2="513.90"/>
    <line x1="80.00" y1="483.35" x2="720.00" y2="483.35"/>
    <line x1="80.00" y1="422.23" x2="720.00" y2="422.23"/>
    <line x1="80.00" y1="391.67" x2="720.00" y2="391.67"/>
    <line x1="80.00" y1="361.12" x2="720.00" y2="361.12"/>
    <line x1="80.00" y1="330.56" x2="720.00" y2="330.56"/>
    <line x1="80.00" y1="269.44" x2="720.00" y2="269.44"/>
    <line x1="80.00" y1="238.88" x2="720.00" y2="238.88"/>
    <line x1="80.00" y1="208.33" x2="720.00" y2="208.33"/>
    <line x1="80.00" y1="177.77" x2="720.00" y2="177.77"/>
    <line x1="80.00" y1="116.65" x2="720.00" y2="116.65"/>
    <line x1="80.00" y1="86.10" x2="720.00" y2="86.10"/>
  </g>
  <g stroke="#808080" stroke-width="2">
    <line x1="400.00" y1="540.00" x2="400.00" y2="60.00"/>
    <line x1="80.00" y1="300.00" x2="720.00" y2="300.00"/>
  </g>
  <polyline fill="none" stroke="#0066cc" stroke-width="2" points="80.00,540.00 81.28,526.32 82.57,520.64 83.85,516.28 85.13,512.60 86.41,509.36 87.70,506.42 88.98,503.72 90.26,501.20 91.54,498.84 92.83,496.60 94.11,494.46 95.39,492.42 96.67,490.46 97.96,488.57 99.24,486.75 100.52,484.99 101.80,483.27 103.09,481.61 104.37,479.99 105.65,478.41 106.93,476.86 108.22,475.36 109.50,473.88 110.78,472.44 112.06,471.02 113.35,469.63 114.63,468.26 115.91,466.92 117.19,465.60 118.48,464.30 119.76,463.02 121.04,461.77 122.32,460.52 123.61,459.30 124.89,458.09 126.17,456.90 127.45,455.73 128.74,454.57 130.02,453.42 131.30,452.28 132.59,451.16 133.87,450.05 135.15,448.96 136.43,447.87 137.72,446.80 139.00,445.73 140.28,444.68 141.56,443.64 142.85,442.60 144.13,441.58 145.41,440.56 146.69,439.56 147.98,438.56 149.26,437.57 150.54,436.59 151.82,435.61 153.11,434.65 154.39,433.69 155.67,432.74 156.95,431.79 158.24,430.85 159.52,429.92 160.80,429.00 162.08,428.08 163.37,427.17 164.65,426.26 165.93,425.36 167.21,424.46 168.50,423.57 169.78,422.69 171.06,421.81 172.34,420.94 173.63,420.07 174.91,419.20 176.19,418.34 177.47,417.49 178.76,416.64 180.04,415.79 181.32,414.95 182.61,414.12 183.89,413.28 185.17,412.46 186.45,411.63 187.74,410.81 189.02,409.99 190.30,409.18 191.58,408.37 192.87,407.57 194.15,406.77 195.43,405.97 196.71,405.17 198.00,404.38 199.28,403.59 200.56,402.81 201.84,402.03 203.13,401.25 204.41,400.47 205.69,399.70 206.97,398.93 208.26,398.17 209.54,397.40 210.82,396.64 212.10,395.88 213.39,395.13 214.67,394.38 215.95,393.63 217.23,392.88 218.52,392.14 219.80,391.39 221.08,390.65 222.36,389.92 223.65,389.18 224.93,388.45 226.21,387.72 227.49,386.99 228.78,386.26 230.06,385.54 231.34,384.82 232.63,384.10 233.91,383.38 235.19,382.67 236.47,381.95 237.76,381.24 239.04,380.53 240.32,379.82 241.60,379.12 242.89,378.41 244.17,377.71 245.45,377.01 246.73,376.31 248.02,375.62 249.30,374.92 250.58,374.23 251.86,373.54 253.15,372.85 254.43,372.16 255.71,371.47 256.99,370.79 258.28,370.10 259.56,369.42 260.84,368.74 262.12,368.06 263.41,367.38 264.69,366.71 265.97,366.03 267.25,365.36 268.54,364.68 269.82,364.01 271.10,363.34 272.38,362.67 273.67,362.01 274.95,361.34 276.23,360.68 277.52,360.01 278.80,359.35 280.08,358.69 281.36,358.03 282.65,357.37 283.93,356.71 285.21,356.06 286.49,355.40 287.78,354.75 289.06,354.09 290.34,353.44 291.62,352.79 292.91,352.14 294.19,351.49 295.47,350.84 296.75,350.19 298.04,349.55 299.32,348.90 300.60,348.26 301.88,347.61 303.17,346.97 304.45,346.33 305.73,345.69 307.01,345.05 308.30,344.41 309.58,343.77 310.86,343.13 312.14,342.49 313.43,341.86 314.71,341.22 315.99,340.59 317.27,339.95 318.56,339.32 319.84,338.69 321.12,338.05 322.40,337.42 323.69,336.79 324.97,336.16 326.25,335.53 327.54,334.90 328.82,334.27 330.10,333.65 331.38,333.02 332.67,332.39 333.95,331.77 335.23,331.14 336.51,330.52 337.80,329.89 339.08,329.27 340.36,328.64 341.64,328.02 342.93,327.40 344.21,326.78 345.49,326.15 346.77,325.53 348.06,324.91 349.34,324.29 350.62,323.67 351.90,323.05 353.19,322.43 354.47,321.81 355.75,321.20 357.03,320.58 358.32,319.96 359.60,319.34 360.88,318.72 362.16,318.11 363.45,317.49 364.73,316.87 366.01,316.26 367.29,315.64 368.58,315.03 369.86,314.41 371.14,313.80 372.42,313.18 373.71,312.57 374.99,311.95 376.27,311.34 377.56,310.73 378.84,310.11 380.12,309.50 381.40,308.88 382.69,308.27 383.97,307.66 385.25,307.04 386.53,306.43 387.82,305.82 389.10,305.21 390.38,304.59 391.66,303.98 392.95,303.37 394.23,302.76 395.51,302.14 396.79,301.53 398.08,300.92 399.36,300.31 400.64,299.69 401.92,299.08 403.21,298.47 404.49,297.86 405.77,297.24 407.05,296.63 408.34,296.02 409.62,295.41 410.90,294.79 412.18,294.18 413.47,293.57 414.75,292.96 416.03,292.34 417.31,291.73 418.60,291.12 419.88,290.50 421.16,289.89 422.44,289.27 423.73,288.66 425.01,288.05 426.29,287.43 427.58,286.82 428.86,286.20 430.14,285.59 431.42,284.97 432.71,284.36 433.99,283.74 435.27,283.13 436.55,282.51 437.84,281.89 439.12,281.28 440.40,280.66 441.68,280.04 442.97,279.42 444.25,278.80 445.53,278.19 446.81,277.57 448.10,276.95 449.38,276.33 450.66,275.71 451.94,275.09 453.23,274.47 454.51,273.85 455.79,273.22 457.07,272.60 458.36,271.98 459.64,271.36 460.92,270.73 462.20,270.11 463.49,269.48 464.77,268.86 466.05,268.23 467.33,267.61 468.62,266.98 469.90,266.35 471.18,265.73 472.46,265.10 473.75,264.47 475.03,263.84 476.31,263.21 477.60,262.58 478.88,261.95 480.16,261.31 481.44,260.68 482.73,260.05 484.01,259.41 485.29,258.78 486.57,258.14 487.86,257.51 489.14,256.87 490.42,256.23 491.70,255.59 492.99,254.95 494.27,254.31 495.55,253.67 496.83,253.03 498.12,252.39 499.40,251.74 500.68,251.10 501.96,250.45 503.25,249.81 504.53,249.16 505.81,248.51 507.09,247.86 508.38,247.21 509.66,246.56 510.94,245.91 512.22,245.25 513.51,244.60 514.79,243.94 516.07,243.29 517.35,242.63 518.64,241.97 519.92,241.31 521.20,240.65 522.48,239.99 523.77,239.32 525.05,238.66 526.33,237.99 527.62,237.33 528.90,236.66 530.18,235.99 531.46,235.32 532.75,234.64 534.03,233.97 535.31,233.29 536.59,232.62 537.88,231.94 539.16,231.26 540.44,230.58 541.72,229.90 543.01,229.21 544.29,228.53 545.57,227.84 546.85,227.15 548.14,226.46 549.42,225.77 550.70,225.08 551.98,224.38 553.27,223.69 554.55,222.99 555.83,222.29 557.11,221.59 558.40,220.88 559.68,220.18 560.96,219.47 562.24,218.76 563.53,218.05 564.81,217.33 566.09,216.62 567.37,215.90 568.66,215.18 569.94,214.46 571.22,213.74 572.51,213.01 573.79,212.28 575.07,211.55 576.35,210.82 577.64,210.08 578.92,209.35 580.20,208.61 581.48,207.86 582.77,207.12 584.05,206.37 585.33,205.62 586.61,204.87 587.90,204.12 589.18,203.36 590.46,202.60 591.74,201.83 593.03,201.07 594.31,200.30 595.59,199.53 596.87,198.75 598.16,197.97 599.44,197.19 600.72,196.41 602.00,195.62 603.29,194.83 604.57,194.03 605.85,193.23 607.13,192.43 608.42,191.63 609.70,190.82 610.98,190.01 612.26,189.19 613.55,188.37 614.83,187.54 616.11,186.72 617.39,185.88 618.68,185.05 619.96,184.21 621.24,183.36 622.53,182.51 623.81,181.66 625.09,180.80 626.37,179.93 627.66,179.06 628.94,178.19 630.22,177.31 631.50,176.43 632.79,175.54 634.07,174.64 635.35,173.74 636.63,172.83 637.92,171.92 639.20,171.00 640.48,170.08 641.76,169.15 643.05,168.21 644.33,167.26 645.61,166.31 646.89,165.35 648.18,164.39 649.46,163.41 650.74,162.43 652.02,161.44 653.31,160.44 654.59,159.44 655.87,158.42 657.15,157.40 658.44,156.36 659.72,155.32 661.00,154.27 662.28,153.20 663.57,152.13 664.85,151.04 666.13,149.95 667.41,148.84 668.70,147.72 669.98,146.58 671.26,145.43 672.55,144.27 673.83,143.10 675.11,141.91 676.39,140.70 677.68,139.48 678.96,138.23 680.24,136.98 681.52,135.70 682.81,134.40 684.09,133.08 685.37,131.74 686.65,130.37 687.94,128.98 689.22,127.56 690.50,126.12 691.78,124.64 693.07,123.14 694.35,121.59 695.63,120.01 696.91,118.39 698.20,116.73 699.48,115.01 700.76,113.25 702.04,111.43 703.33,109.54 704.61,107.58 705.89,105.54 707.17,103.40 708.46,101.16 709.74,98.80 711.02,96.28 712.30,93.58 713.59,90.64 714.87,87.40 716.15,83.72 717.43,79.36 718.72,73.68 720.00,60.00 "/>
</svg>
