<?xml version="1.0" encoding="UTF-8"?>
<svg xmlns="http://www.w3.org/2000/svg" width="800" height="600">
  <title>Y=acos(x):-1,1:</title>
  <rect width="800" height="600" fill="#ffffff"/>
  <g stroke="#d0d0d0" stroke-width="1">
    <line x1="80.00" y1="540.00" x2="80.00" y2="60.00"/>
    <line x1="400.00" y1="540.00" x2="400.00" y2="60.00"/>
    <line x1="720.00" y1="540.00" x2="720.00" y2="60.00"/>
    <line x1="80.00" y1="540.00" x2="720.00" y2="540.00"/>
    <line x1="80.00" y1="387.21" x2="720.00" y2="387.21"/>
    <line x1="80.00" y1="234.42" x2="720.00" y2="234.42"/>
    <line x1="80.00" y1="81.63" x2="720.00" y2="81.63"/>
    <line x1="80.00" y1="-71.15" x2="720.00" y2="-71.15"/>
  </g>
  <g stroke="#e8e8e8" stroke-width="0.5">
    <line x1="144.00" y1="540.00" x2="144.00" y2="60.00"/>
    <line x1="208.00" y1="540.00" x2="208.00" y2="60.00"/>
    <line x1="272.00" y1="540.00" x2="272.00" y2="60.00"/>
    <line x1="336.00" y1="540.00" x2="336.00" y2="60.00"/>
    <line x1="464.00" y1="540.00" x2="464.00" y2="60.00"/>
    <line x1="528.00" y1="540.00" x2="528.00" y2="60.00"/>
    <line x1="592.00" y1="540.00" x2="592.00" y2="60.00"/>
    <line x1="656.00" y1="540.00" x2="656.00" y2="60.00"/>
    <line x1="80.00" y1="509.44" x2="720.00" y2="509.44"/>
    <line x1="80.00" y1="478.88" x2="720.00" y2="478.88"/>
    <line x1="80.00" y1="448.33" x2="720.00" y2="448.33"/>
    <line x1="80.00" y1="417.77" x2="720.00" y2="417.77"/>
    <line x1="80.00" y1="356.65" x2="720.00" y2="356.65"/>
    <line x1="80.00" y1="326.10" x2="720.00" y2="326.10"/>
    <line x1="80.00" y1="295.54" x2="720.00" y2="295.54"/>
    <line x1="80.00" y1="264.98" x2="720.00" y2="264.98"/>
    <line x1="80.00" y1="203.86" x2="720.00" y2="203.86"/>
    <line x1="80.00" y1="173.31" x2="720.00" y2="173.31"/>
    <line x1="80.00" y1="142.75" x2="720.00" y2="142.75"/>
    <line x1="80.00" y1="112.19" x2="720.00" y2="112.19"/>
  </g>
  <g stroke="#808080" stroke-width="2">
    <line x1="80.00" y1="540.00" x2="720.00" y2="540.00"/>
  </g>
  <polyline fill="none" stroke="#0066cc" stroke-width="2" points="80.00,60.00 81.28,73.68 82.57,79.36 83.85,83.72 85.13,87.40 86.41,90.64 87.70,93.58 88.98,96.28 90.26,98.80 91.54,101.16 92.83,103.40 94.11,105.54 95.39,107.58 96.67,109.54 97.96,111.43 99.24,113.25 100.52,115.01 101.80,116.73 103.09,118.39 104.37,120.01 105.65,121.59 106.93,123.14 108.22,124.64 109.50,126.12 110.78,127.56 112.06,128.98 113.35,130.37 114.63,131.74 115.91,133.08 117.19,134.40 118.48,135.70 119.76,136.98 121.04,138.23 122.32,139.48 123.61,140.70 124.89,141.91 126.17,143.10 127.45,144.27 128.74,145.43 130.02,146.58 131.30,147.72 132.59,148.84 133.87,149.95 135.15,151.04 136.43,152.13 137.72,153.20 139.00,154.27 140.28,155.32 141.56,156.36 142.85,157.40 144.13,158.42 145.41,159.44 146.69,160.44 147.98,161.44 149.26,162.43 150.54,163.41 151.82,164.39 153.11,165.35 154.39,166.31 155.67,167.26 156.95,168.21 158.24,169.15 159.52,170.08 160.80,171.00 162.08,171.92 163.37,172.83 164.65,173.74 165.93,174.64 167.21,175.54 168.50,176.43 169.78,177.31 171.06,178.19 172.34,179.06 173.63,179.93 174.91,180.80 176.19,181.66 177.47,182.51 178.76,183.36 180.04,184.21 181.32,185.05 182.61,185.88 183.89,186.72 185.17,187.54 186.45,188.37 187.74,189.19 189.02,190.01 190.30,190.82 191.58,191.63 192.87,192.43 194.15,193.23 195.43,194.03 196.71,194.83 198.00,195.62 199.28,196.41 200.56,197.19 201.84,197.97 203.13,198.75 204.41,199.53 205.69,200.30 206.97,201.07 208.26,201.83 209.54,202.60 210.82,203.36 212.10,204.12 213.39,204.87 214.67,205.62 215.95,206.37 217.23,207.12 218.52,207.86 219.80,208.61 221.08,209.35 222.36,210.08 223.65,210.82 224.93,211.55 226.21,212.28 227.49,213.01 228.78,213.74 230.06,214.46 231.34,215.18 232.63,215.90 233.91,216.62 235.19,217.33 236.47,218.05 237.76,218.76 239.04,219.47 240.32,220.18 241.60,220.88 242.89,221.59 244.17,222.29 245.45,222.99 246.73,223.69 248.02,224.38 249.30,225.08 250.58,225.77 251.86,226.46 253.15,227.15 254.43,227.84 255.71,228.53 256.99,229.21 258.28,229.90 259.56,230.58 260.84,231.26 262.12,231.94 263.41,232.62 264.69,233.29 265.97,233.97 267.25,234.64 268.54,235.32 269.82,235.99 271.10,236.66 272.38,237.33 273.67,237.99 274.95,238.66 276.23,239.32 277.52,239.99 278.80,240.65 280.08,241.31 281.36,241.97 282.65,242.63 283.93,243.29 285.21,243.94 286.49,244.60 287.78,245.25 289.06,245.91 290.34,246.56 291.62,247.21 292.91,247.86 294.19,248.51 295.47,249.16 296.75,249.81 298.04,250.45 299.32,251.10 300.60,251.74 301.88,252.39 303.17,253.03 304.45,253.67 305.73,254.31 307.01,254.95 308.30,255.59 309.58,256.23 310.86,256.87 312.14,257.51 313.43,258.14 314.71,258.78 315.99,259.41 317.27,260.05 318.56,260.68 319.84,261.31 321.12,261.95 322.40,262.58 323.69,263.21 324.97,263.84 326.25,264.47 327.54,265.10 328.82,265.73 330.10,266.35 331.38,266.98 332.67,267.61 333.95,268.23 335.23,268.86 336.51,269.48 337.80,270.11 339.08,270.73 340.36,271.36 341.64,271.98 342.93,272.60 344.21,273.22 345.49,273.85 346.77,274.47 348.06,275.09 349.34,275.71 350.62,276.33 351.90,276.95 353.19,277.57 354.47,278.19 355.75,278.80 357.03,279.42 358.32,280.04 359.60,280.66 360.88,281.28 362.16,281.89 363.45,282.51 364.73,283.13 366.01,283.74 367.29,284.36 368.58,284.97 369.86,285.59 371.14,286.20 372.42,286.82 373.71,287.43 374.99,288.05 376.27,288.66 377.56,289.27 378.84,289.89 380.12,290.50 381.40,291.12 382.69,291.73 383.97,292.34 385.25,292.96 386.53,293.57 387.82,294.18 389.10,294.79 390.38,295.41 391.66,296.02 392.95,296.63 394.23,297.24 395.51,297.86 396.79,298.47 398.08,299.08 399.36,299.69 400.64,300.31 401.92,300.92 403.21,301.53 404.49,302.14 405.77,302.76 407.05,303.37 408.34,303.98 409.62,304.59 410.90,305.21 412.18,305.82 413.47,306.43 414.75,307.04 416.03,307.66 417.31,308.27 418.60,308.88 419.88,309.50 421.16,310.11 422.44,310.73 423.73,311.34 425.01,311.95 426.29,312.57 427.58,313.18 428.86,313.80 430.14,314.41 431.42,315.03 432.71,315.64 433.99,316.26 435.27,316.87 436.55,317.49 437.84,318.11 439.12,318.72 440.40,319.34 441.68,319.96 442.97,320.58 444.25,321.20 445.53,321.81 446.81,322.43 448.10,323.05 449.38,323.67 450.66,324.29 451.94,324.91 453.23,325.53 454.51,326.15 455.79,326.78 457.07,327.40 458.36,328.02 459.64,328.64 460.92,329.27 462.20,329.89 463.49,330.52 464.77,331.14 466.05,331.77 467.33,332.39 468.62,333.02 469.90,333.65 471.18,334.27 472.46,334.90 473.75,335.53 475.03,336.16 476.31,336.79 477.60,337.42 478.88,338.05 480.16,338.69 481.44,339.32 482.73,339.95 484.01,340.59 485.29,341.22 486.57,341.86 487.86,342.49 489.14,343.13 490.42,343.77 491.70,344.41 492.99,345.05 494.27,345.69 495.55,346.33 496.83,346.97 498.12,347.61 499.40,348.26 500.68,348.90 501.96,349.55 503.25,350.19 504.53,350.84 505.81,351.49 507.09,352.14 508.38,352.79 509.66,353.44 510.94,354.09 512.22,354.75 513.51,355.40 514.79,356.06 516.07,356.71 517.35,357.37 518.64,358.03 519.92,358.69 521.20,359.35 522.48,360.01 523.77,360.68 525.05,361.34 526.33,362.01 527.62,362.67 528.90,363.34 530.18,364.01 531.46,364.68 532.75,365.36 534.03,366.03 535.31,366.71 536.59,367.38 537.88,368.06 539.16,368.74 540.44,369.42 541.72,370.10 543.01,370.79 544.29,371.47 545.57,372.16 546.85,372.85 548.14,373.54 549.42,374.23 550.70,374.92 551.98,375.62 553.27,376.31 554.55,377.01 555.83,377.71 557.11,378.41 558.40,379.12 559.68,379.82 560.96,380.53 562.24,381.24 563.53,381.95 564.81,382.67 566.09,383.38 567.37,384.10 568.66,384.82 569.94,385.54 571.22,386.26 572.51,386.99 573.79,387.72 575.07,388.45 576.35,389.18 577.64,389.92 578.92,390.65 580.20,391.39 581.48,392.14 582.77,392.88 584.05,393.63 585.33,394.38 586.61,395.13 587.90,395.88 589.18,396.64 590.46,397.40 591.74,398.17 593.03,398.93 594.31,399.70 595.59,400.47 596.87,401.25 598.16,402.03 599.44,402.81 600.72,403.59 602.00,404.38 603.29,405.17 604.57,405.97 605.85,406.77 607.13,407.57 608.42,408.37 609.70,409.18 610.98,409.99 612.26,410.81 613.55,411.63 614.83,412.46 616.11,413.28 617.39,414.12 618.68,414.95 619.96,415.79 621.24,416.64 622.53,417.49 623.81,418.34 625.09,419.20 626.37,420.07 627.66,420.94 628.94,421.81 630.22,422.69 631.50,423.57 632.79,424.46 634.07,425.36 635.35,426.26 636.63,427.17 637.92,428.08 639.20,429.00 640.48,429.92 641.76,430.85 643.05,431.79 644.33,432.74 645.61,433.69 646.89,434.65 648.18,435.61 649.46,436.59 650.74,437.57 652.02,438.56 653.31,439.56 654.59,440.56 655.87,441.58 657.15,442.60 658.44,443.64 659.72,444.68 661.00,445.73 662.28,446.80 663.57,447.87 664.85,448.96 666.13,450.05 667.41,451.16 668.70,452.28 669.98,453.42 671.26,454.57 672.55,455.73 673.83,456.90 675.11,458.09 676.39,459.30 677.68,460.52 678.96,461.77 680.24,463.02 681.52,464.30 682.81,465.60 684.09,466.92 685.37,468.26 686.65,469.63 687.94,471.02 689.22,472.44 690.50,473.88 691.78,475.36 693.07,476.86 694.35,478.41 695.63,479.99 696.91,481.61 698.20,483.27 699.48,484.99 700.76,486.75 702.04,488.57 703.33,490.46 704.61,492.42 705.89,494.46 707.17,496.60 708.46,498.84 709.74,501.20 711.02,503.72 712.30,506.42 713.59,509.36 714.87,512.60 716.15,516.28 717.43,520.64 718.72,526.32 720.00,540.00 "/>
</svg>
