<?xml version="1.0" encoding="UTF-8"?>
<svg xmlns="http://www.w3.org/2000/svg" width="800" height="600">
  <title>Y=atan(x)</title>
  <rect width="800" height="600" fill="#ffffff"/>
  <g stroke="#d0d0d0" stroke-width="1">
    <line x1="80.00" y1="540.00" x2="80.00" y2="60.00"/>
    <line x1="112.00" y1="540.00" x2="112.00" y2="60.00"/>
    <line x1="144.00" y1="540.00" x2="144.00" y2="60.00"/>
    <line x1="176.00" y1="540.00" x2="176.00" y2="60.00"/>
    <line x1="208.00" y1="540.00" x2="208.00" y2="60.00"/>
    <line x1="240.00" y1="540.00" x2="240.00" y2="60.00"/>
    <line x1="272.00" y1="540.00" x2="272.00" y2="60.00"/>
    <line x1="304.00" y1="540.00" x2="304.00" y2="60.00"/>
    <line x1="336.00" y1="540.00" x2="336.00" y2="60.00"/>
    <line x1="368.00" y1="540.00" x2="368.00" y2="60.00"/>
    <line x1="400.00" y1="540.00" x2="400.00" y2="60.00"/>
    <line x1="432.00" y1="540.00" x2="432.00" y2="60.00"/>
    <line x1="464.00" y1="540.00" x2="464.00" y2="60.00"/>
    <line x1="496.00" y1="540.00" x2="496.00" y2="60.00"/>
    <line x1="528.00" y1="540.00" x2="528.00" y2="60.00"/>
    <line x1="560.00" y1="540.00" x2="560.00" y2="60.00"/>
    <line x1="592.00" y1="540.00" x2="592.00" y2="60.00"/>
    <line x1="624.00" y1="540.00" x2="624.00" y2="60.00"/>
    <line x1="656.00" y1="540.00" x2="656.00" y2="60.00"/>
    <line x1="688.00" y1="540.00" x2="688.00" y2="60.00"/>
    <line x1="720.00" y1="540.00" x2="720.00" y2="60.00"/>
    <line x1="80.00" y1="626.28" x2="720.00" y2="626.28"/>
    <line x1="80.00" y1="463.14" x2="720.00" y2="463.14"/>
    <line x1="80.00" y1="300.00" x2="720.00" y2="300.00"/>
    <line x1="80.00" y1="136.86" x2="720.00" y2="136.86"/>
    <line x1="80.00" y1="-26.28" x2="720.00" y2="-26.28"/>
  </g>
  <g stroke="#e8e8e8" stroke-width="0.5">
    <line x1="86.40" y1="540.00" x2="86.40" y2="60.00"/>
    <line x1="92.80" y1="540.00" x2="92.80" y2="60.00"/>
    <line x1="99.20" y1="540.00" x2="99.20" y2="60.00"/>
    <line x1="105.60" y1="540.00" x2="105.60" y2="60.00"/>
    <line x1="118.40" y1="540.00" x2="118.40" y2="60.00"/>
    <line x1="124.80" y1="540.00" x2="124.80" y2="60.00"/>
    <line x1="131.20" y1="540.00" x2="131.20" y2="60.00"/>
    <line x1="137.60" y1="540.00" x2="137.60" y2="60.00"/>
    <line x1="150.40" y1="540.00" x2="150.40" y2="60.00"/>
    <line x1="156.80" y1="540.00" x2="156.80" y2="60.00"/>
    <line x1="163.20" y1="540.00" x2="163.20" y2="60.00"/>
    <line x1="169.60" y1="540.00" x2="169.60" y2="60.00"/>
    <line x1="182.40" y1="540.00" x2="182.40" y2="60.00"/>
    <line x1="188.80" y1="540.00" x2="188.80" y2="60.00"/>
    <line x1="195.20" y1="540.00" x2="195.20" y2="60.00"/>
    <line x1="201.60" y1="540.00" x2="201.60" y2="60.00"/>
    <line x1="214.40" y1="540.00" x2="214.40" y2="60.00"/>
    <line x1="220.80" y1="540.00" x2="220.80" y2="60.00"/>
    <line x1="227.20" y1="540.00" x2="227.20" y2="60.00"/>
    <line x1="233.60" y1="540.00" x2="233.60" y2="60.00"/>
    <line x1="246.40" y1="540.00" x2="246.40" y2="60.00"/>
    <line x1="252.80" y1="540.00" x2="252.80" y2="60.00"/>
    <line x1="259.20" y1="540.00" x2="259.20" y2="60.00"/>
    <line x1="265.60" y1="540.00" x2="265.60" y2="60.00"/>
    <line x1="278.40" y1="540.00" x2="278.40" y2="60.00"/>
    <line x1="284.80" y1="540.00" x2="284.80" y2="60.00"/>
    <line x1="291.20" y1="540.00" x2="291.20" y2="60.00"/>
    <line x1="297.60" y1="540.00" x2="297.60" y2="60.00"/>
    <line x1="310.40" y1="540.00" x2="310.40" y2="60.00"/>
    <line x1="316.80" y1="540.00" x2="316.80" y2="60.00"/>
    <line x1="323.20" y1="540.00" x2="323.20" y2="60.00"/>
    <line x1="329.60" y1="540.00" x2="329.60" y2="60.00"/>
    <line x1="342.40" y1="540.00" x2="342.40" y2="60.00"/>
    <line x1="348.80" y1="540.00" x2="348.80" y2="60.00"/>
    <line x1="355.20" y1="540.00" x2="355.20" y2="60.00"/>
    <line x1="361.60" y1="540.00" x2="361.60" y2="60.00"/>
    <line x1="374.40" y1="540.00" x2="374.40" y2="60.00"/>
    <line x1="380.80" y1="540.00" x2="380.80" y2="60.00"/>
    <line x1="387.20" y1="540.00" x2="387.20" y2="60.00"/>
    <line x1="393.60" y1="540.00" x2="393.60" y2="60.00"/>
    <line x1="406.40" y1="540.00" x2="406.40" y2="60.00"/>
    <line x1="412.80" y1="540.00" x2="412.80" y2="60.00"/>
    <line x1="419.20" y1="540.00" x2="419.20" y2="60.00"/>
    <line x1="425.60" y1="540.00" x2="425.60" y2="60.00"/>
    <line x1="438.40" y1="540.00" x2="438.40" y2="60.00"/>
    <line x1="444.80" y1="540.00" x2="444.80" y2="60.00"/>
    <line x1="451.20" y1="540.00" x2="451.20" y2="60.00"/>
    <line x1="457.60" y1="540.00" x2="457.60" y2="60.00"/>
    <line x1="470.40" y1="540.00" x2="470.40" y2="60.00"/>
    <line x1="476.80" y1="540.00" x2="476.80" y2="60.00"/>
    <line x1="483.20" y1="540.00" x2="483.20" y2="60.00"/>
    <line x1="489.60" y1="540.00" x2="489.60" y2="60.00"/>
    <line x1="502.40" y1="540.00" x2="502.40" y2="60.00"/>
    <line x1="508.80" y1="540.00" x2="508.80" y2="60.00"/>
    <line x1="515.20" y1="540.00" x2="515.20" y2="60.00"/>
    <line x1="521.60" y1="540.00" x2="521.60" y2="60.00"/>
    <line x1="534.40" y1="540.00" x2="534.40" y2="60.00"/>
    <line x1="540.80" y1="540.00" x2="540.80" y2="60.00"/>
    <line x1="547.20" y1="540.00" x2="547.20" y2="60.00"/>
    <line x1="553.60" y1="540.00" x2="553.60" y2="60.00"/>
    <line x1="566.40" y1="540.00" x2="566.40" y2="60.00"/>
    <line x1="572.80" y1="540.00" x2="572.80" y2="60.00"/>
    <line x1="579.20" y1="540.00" x2="579.20" y2="60.00"/>
    <line x1="585.60" y1="540.00" x2="585.60" y2="60.00"/>
    <line x1="598.40" y1="540.00" x2="598.40" y2="60.00"/>
    <line x1="604.80" y1="540.00" x2="604.80" y2="60.00"/>
    <line x1="611.20" y1="540.00" x2="611.20" y2="60.00"/>
    <line x1="617.60" y1="540.00" x2="617.60" y2="60.00"/>
    <line x1="630.40" y1="540.00" x2="630.40" y2="60.00"/>
    <line x1="636.80" y1="540.00" x2="636.80" y2="60.00"/>
    <line x1="643.20" y1="540.00" x2="643.20" y2="60.00"/>
    <line x1="649.60" y1="540.00" x2="649.60" y2="60.00"/>
    <line x1="662.40" y1="540.00" x2="662.40" y2="60.00"/>
    <line x1="668.80" y1="540.00" x2="668.80" y2="60.00"/>
    <line x1="675.20" y1="540.00" x2="675.20" y2="60.00"/>
    <line x1="681.60" y1="540.00" x2="681.60" y2="60.00"/>
    <line x1="694.40" y1="540.00" x2="694.40" y2="60.00"/>
    <line x1="700.80" y1="540.00" x2="700.80" y2="60.00"/>
    <line x1="707.20" y1="540.00" x2="707.20" y2="60.00"/>
    <line x1="713.60" y1="540.00" x2="713.60" y2="60.00"/>
    <line x1="80.00" y1="528.40" x2="720.00" y2="528.40"/>
    <line x1="80.00" y1="495.77" x2="720.00" y2="495.77"/>
    <line x1="80.00" y1="430.51" x2="720.00" y2="430.51"/>
    <line x1="80.00" y1="397.88" x2="720.00" y2="397.88"/>
    <line x1="80.00" y1="365.26" x2="720.00" y2="365.26"/>
    <line x1="80.00" y1="332.63" x2="720.00" y2="332.63"/>
    <line x1="80.00" y1="267.37" x2="720.00" y2="267.37"/>
    <line x1="80.00" y1="234.74" x2="720.00" y2="234.74"/>
    <line x1="80.00" y1="202.12" x2="720.00" y2="202.12"/>
    <line x1="80.00" y1="169.49" x2="720.00" y2="169.49"/>
    <line x1="80.00" y1="104.23" x2="720.00" y2="104.23"/>
    <line x1="80.00" y1="71.60" x2="720.00" y2="71.60"/>
  </g>
  <g stroke="#808080" stroke-width="2">
    <line x1="400.00" y1="540.00" x2="400.00" y2="60.00"/>
    <line x1="80.00" y1="300.00" x2="720.00" y2="300.00"/>
  </g>
  <polyline fill="none" stroke="#0066cc" stroke-width="2" points="80.00,540.00 81.28,539.94 82.57,539.87 83.85,539.80 85.13,539.74 86.41,539.67 87.70,539.60 88.98,539.53 90.26,539.47 91.54,539.40 92.83,539.33 94.11,539.26 95.39,539.18 96.67,539.11 97.96,539.04 99.24,538.97 100.52,538.89 101.80,538.82 103.09,538.75 104.37,538.67 105.65,538.59 106.93,538.52 108.22,538.44 109.50,538.36 110.78,538.28 112.06,538.20 113.35,538.12 114.63,538.04 115.91,537.96 117.19,537.88 118.48,537.80 119.76,537.71 121.04,537.63 122.32,537.54 123.61,537.46 124.89,537.37 126.17,537.28 127.45,537.19 128.74,537.10 130.02,537.01 131.30,536.92 132.59,536.83 133.87,536.74 135.15,536.64 136.43,536.55 137.72,536.45 139.00,536.36 140.28,536.26 141.56,536.16 142.85,536.06 144.13,535.96 145.41,535.86 146.69,535.76 147.98,535.66 149.26,535.55 150.54,535.45 151.82,535.34 153.11,535.23 154.39,535.12 155.67,535.01 156.95,534.90 158.24,534.79 159.52,534.68 160.80,534.56 162.08,534.45 163.37,534.33 164.65,534.21 165.93,534.09 167.21,533.97 168.50,533.85 169.78,533.73 171.06,533.60 172.34,533.48 173.63,533.35 174.91,533.22 176.19,533.09 177.47,532.96 178.76,532.83 180.04,532.69 181.32,532.56 182.61,532.42 183.89,532.28 185.17,532.14 186.45,531.99 187.74,531.85 189.02,531.70 190.30,531.56 191.58,531.41 192.87,531.25 194.15,531.10 195.43,530.95 196.71,530.79 198.00,530.63 199.28,530.47 200.56,530.31 201.84,530.14 203.13,529.97 204.41,529.80 205.69,529.63 206.97,529.46 208.26,529.28 209.54,529.10 210.82,528.92 212.10,528.74 213.39,528.55 214.67,528.37 215.95,528.18 217.23,527.98 218.52,527.79 219.80,527.59 221.08,527.39 222.36,527.18 223.65,526.98 224.93,526.77 226.21,526.55 227.49,526.34 228.78,526.12 230.06,525.90 231.34,525.67 232.63,525.44 233.91,525.21 235.19,524.97 236.47,524.73 237.76,524.49 239.04,524.24 240.32,523.99 241.60,523.74 242.89,523.48 244.17,523.22 245.45,522.95 246.73,522.68 248.02,522.41 249.30,522.13 250.58,521.84 251.86,521.55 253.15,521.26 254.43,520.96 255.71,520.66 256.99,520.35 258.28,520.03 259.56,519.71 260.84,519.39 262.12,519.05 263.41,518.72 264.69,518.37 265.97,518.03 267.25,517.67 268.54,517.31 269.82,516.94 271.10,516.56 272.38,516.18 273.67,515.79 274.95,515.39 276.23,514.98 277.52,514.57 278.80,514.15 280.08,513.72 281.36,513.28 282.65,512.83 283.93,512.37 285.21,511.91 286.49,511.43 287.78,510.94 289.06,510.45 290.34,509.94 291.62,509.42 292.91,508.89 294.19,508.35 295.47,507.79 296.75,507.23 298.04,506.65 299.32,506.06 300.60,505.45 301.88,504.83 303.17,504.19 304.45,503.54 305.73,502.87 307.01,502.19 308.30,501.49 309.58,500.77 310.86,500.03 312.14,499.28 313.43,498.50 314.71,497.70 315.99,496.89 317.27,496.05 318.56,495.18 319.84,494.30 321.12,493.39 322.40,492.45 323.69,491.48 324.97,490.49 326.25,489.47 327.54,488.42 328.82,487.34 330.10,486.22 331.38,485.07 332.67,483.88 333.95,482.66 335.23,481.40 336.51,480.09 337.80,478.75 339.08,477.36 340.36,475.92 341.64,474.43 342.93,472.90 344.21,471.30 345.49,469.66 346.77,467.95 348.06,466.18 349.34,464.35 350.62,462.45 351.90,460.48 353.19,458.44 354.47,456.32 355.75,454.11 357.03,451.83 358.32,449.45 359.60,446.98 360.88,444.40 362.16,441.73 363.45,438.95 364.73,436.06 366.01,433.04 367.29,429.91 368.58,426.65 369.86,423.25 371.14,419.71 372.42,416.04 373.71,412.21 374.99,408.23 376.27,404.09 377.56,399.79 378.84,395.32 380.12,390.69 381.40,385.89 382.69,380.91 383.97,375.77 385.25,370.46 386.53,364.99 387.82,359.35 389.10,353.57 390.38,347.64 391.66,341.58 392.95,335.40 394.23,329.11 395.51,322.74 396.79,316.29 398.08,309.80 399.36,303.27 400.64,296.73 401.92,290.20 403.21,283.71 404.49,277.26 405.77,270.89 407.05,264.60 408.34,258.42 409.62,252.36 410.90,246.43 412.18,240.65 413.47,235.01 414.75,229.54 416.03,224.23 417.31,219.09 418.60,214.11 419.88,209.31 421.16,204.68 422.44,200.21 423.73,195.91 425.01,191.77 426.29,187.79 427.58,183.96 428.86,180.29 430.14,176.75 431.42,173.35 432.71,170.09 433.99,166.96 435.27,163.94 436.55,161.05 437.84,158.27 439.12,155.60 440.40,153.02 441.68,150.55 442.97,148.17 444.25,145.89 445.53,143.68 446.81,141.56 448.10,139.52 449.38,137.55 450.66,135.65 451.94,133.82 453.23,132.05 454.51,130.34 455.79,128.70 457.07,127.10 458.36,125.57 459.64,124.08 460.92,122.64 462.20,121.25 463.49,119.91 464.77,118.60 466.05,117.34 467.33,116.12 468.62,114.93 469.90,113.78 471.18,112.66 472.46,111.58 473.75,110.53 475.03,109.51 476.31,108.52 477.60,107.55 478.88,106.61 480.16,105.70 481.44,104.82 482.73,103.95 484.01,103.11 485.29,102.30 486.57,101.50 487.86,100.72 489.14,99.97 490.42,99.23 491.70,98.51 492.99,97.81 494.27,97.13 495.55,96.46 496.83,95.81 498.12,95.17 499.40,94.55 500.68,93.94 501.96,93.35 503.25,92.77 504.53,92.21 505.81,91.65 507.09,91.11 508.38,90.58 509.66,90.06 510.94,89.55 512.22,89.06 513.51,88.57 514.79,88.09 516.07,87.63 517.35,87.17 518.64,86.72 519.92,86.28 521.20,85.85 522.48,85.43 523.77,85.02 525.05,84.61 526.33,84.21 527.62,83.82 528.90,83.44 530.18,83.06 531.46,82.69 532.75,82.33 534.03,81.97 535.31,81.63 536.59,81.28 537.88,80.95 539.16,80.61 540.44,80.29 541.72,79.97 543.01,79.65 544.29,79.34 545.57,79.04 546.85,78.74 548.14,78.45 549.42,78.16 550.70,77.87 551.98,77.59 553.27,77.32 554.55,77.05 555.83,76.78 557.11,76.52 558.40,76.26 559.68,76.01 560.96,75.76 562.24,75.51 563.53,75.27 564.81,75.03 566.09,74.79 567.37,74.56 568.66,74.33 569.94,74.10 571.22,73.88 572.51,73.66 573.79,73.45 575.07,73.23 576.35,73.02 577.64,72.82 578.92,72.61 580.20,72.41 581.48,72.21 582.77,72.02 584.05,71.82 585.33,71.63 586.61,71.45 587.90,71.26 589.18,71.08 590.46,70.90 591.74,70.72 593.03,70.54 594.31,70.37 595.59,70.20 596.87,70.03 598.16,69.86 599.44,69.69 600.72,69.53 602.00,69.37 603.29,69.21 604.57,69.05 605.85,68.90 607.13,68.75 608.42,68.59 609.70,68.44 610.98,68.30 612.26,68.15 613.55,68.01 614.83,67.86 616.11,67.72 617.39,67.58 618.68,67.44 619.96,67.31 621.24,67.17 622.53,67.04 623.81,66.91 625.09,66.78 626.37,66.65 627.66,66.52 628.94,66.40 630.22,66.27 631.50,66.15 632.79,66.03 634.07,65.91 635.35,65.79 636.63,65.67 637.92,65.55 639.20,65.44 640.48,65.32 641.76,65.21 643.05,65.10 644.33,64.99 645.61,64.88 646.89,64.77 648.18,64.66 649.46,64.55 650.74,64.45 652.02,64.34 653.31,64.24 654.59,64.14 655.87,64.04 657.15,63.94 658.44,63.84 659.72,63.74 661.00,63.64 662.28,63.55 663.57,63.45 664.85,63.36 666.13,63.26 667.41,63.17 668.70,63.08 669.98,62.99 671.26,62.90 672.55,62.81 673.83,62.72 675.11,62.63 676.39,62.54 677.68,62.46 678.96,62.37 680.24,62.29 681.52,62.20 682.81,62.12 684.09,62.04 685.37,61.96 686.65,61.88 687.94,61.80 689.22,61.72 690.50,61.64 691.78,61.56 693.07,61.48 694.35,61.41 695.63,61.33 696.91,61.25 698.20,61.18 699.48,61.11 700.76,61.03 702.04,60.96 703.33,60.89 704.61,60.82 705.89,60.74 707.17,60.67 708.46,60.60 709.74,60.53 711.02,60.47 712.30,60.40 713.59,60.33 714.87,60.26 716.15,60.20 717.43,60.13 718.72,60.06 720.00,60.00 "/>
</svg>
