<?xml version="1.0" encoding="UTF-8"?>
<svg xmlns="http://www.w3.org/2000/svg" width="800" height="600">
  <title>X=t-sin(t);Y=1-cos(t):-2,2:</title>
  <rect width="800" height="600" fill="#ffffff"/>
  <g stroke="#d0d0d0" stroke-width="1">
    <line x1="-186.78" y1="540.00" x2="-186.78" y2="60.00"/>
    <line x1="106.61" y1="540.00" x2="106.61" y2="60.00"/>
    <line x1="400.00" y1="540.00" x2="400.00" y2="60.00"/>
    <line x1="693.39" y1="540.00" x2="693.39" y2="60.00"/>
    <line x1="986.78" y1="540.00" x2="986.78" y2="60.00"/>
    <line x1="80.00" y1="540.00" x2="720.00" y2="540.00"/>
    <line x1="80.00" y1="201.05" x2="720.00" y2="201.05"/>
    <line x1="80.00" y1="-137.90" x2="720.00" y2="-137.90"/>
  </g>
  <g stroke="#e8e8e8" stroke-width="0.5">
    <line x1="165.29" y1="540.00" x2="165.29" y2="60.00"/>
    <line x1="223.97" y1="540.00" x2="223.97" y2="60.00"/>
    <line x1="282.64" y1="540.00" x2="282.64" y2="60.00"/>
    <line x1="341.32" y1="540.00" x2="341.32" y2="60.00"/>
    <line x1="458.68" y1="540.00" x2="458.68" y2="60.00"/>
    <line x1="517.36" y1="540.00" x2="517.36" y2="60.00"/>
    <line x1="576.03" y1="540.00" x2="576.03" y2="60.00"/>
    <line x1="634.71" y1="540.00" x2="634.71" y2="60.00"/>
    <line x1="80.00" y1="472.21" x2="720.00" y2="472.21"/>
    <line x1="80.00" y1="404.42" x2="720.00" y2="404.42"/>
    <line x1="80.00" y1="336.63" x2="720.00" y2="336.63"/>
    <line x1="80.00" y1="268.84" x2="720.00" y2="268.84"/>
    <line x1="80.00" y1="133.26" x2="720.00" y2="133.26"/>
    <line x1="80.00" y1="65.47" x2="720.00" y2="65.47"/>
  </g>
  <g stroke="#808080" stroke-width="2">
    <line x1="80.00" y1="540.00" x2="720.00" y2="540.00"/>
  </g>
  <polyline fill="none" stroke="#0066cc" stroke-width="2" points="80.00,60.00 83.32,62.48 86.63,64.96 89.91,67.45 93.18,69.95 96.44,72.46 99.67,74.98 102.89,77.51 106.09,80.04 109.27,82.58 112.44,85.13 115.59,87.69 118.71,90.25 121.83,92.82 124.92,95.40 128.00,97.99 131.05,100.58 134.09,103.18 137.12,105.78 140.12,108.39 143.11,111.01 146.07,113.63 149.02,116.26 151.95,118.89 154.87,121.53 157.76,124.18 160.64,126.82 163.49,129.48 166.33,132.14 169.15,134.80 171.96,137.46 174.74,140.14 177.51,142.81 180.25,145.49 182.98,148.17 185.69,150.86 188.38,153.54 191.05,156.24 193.71,158.93 196.34,161.63 198.96,164.33 201.55,167.03 204.13,169.73 206.69,172.44 209.23,175.15 211.76,177.86 214.26,180.57 216.74,183.28 219.21,186.00 221.66,188.71 224.08,191.43 226.49,194.14 228.88,196.86 231.25,199.58 233.61,202.29 235.94,205.01 238.26,207.73 240.55,210.44 242.83,213.16 245.09,215.87 247.33,218.59 249.55,221.30 251.75,224.01 253.93,226.72 256.10,229.43 258.24,232.14 260.37,234.84 262.48,237.54 264.57,240.24 266.64,242.94 268.69,245.64 270.72,248.33 272.74,251.02 274.73,253.70 276.71,256.39 278.67,259.06 280.61,261.74 282.53,264.41 284.43,267.08 286.32,269.74 288.18,272.40 290.03,275.05 291.86,277.70 293.67,280.35 295.46,282.99 297.24,285.62 298.99,288.25 300.73,290.87 302.45,293.49 304.15,296.10 305.84,298.70 307.50,301.30 309.15,303.89 310.78,306.48 312.39,309.06 313.98,311.63 315.56,314.20 317.12,316.75 318.66,319.30 320.18,321.85 321.68,324.38 323.17,326.91 324.64,329.43 326.09,331.94 327.53,334.44 328.95,336.93 330.35,339.42 331.73,341.89 333.09,344.36 334.44,346.82 335.78,349.27 337.09,351.70 338.39,354.13 339.67,356.55 340.93,358.96 342.18,361.36 343.41,363.75 344.63,366.13 345.83,368.50 347.01,370.85 348.17,373.20 349.32,375.53 350.46,377.86 351.57,380.17 352.67,382.47 353.76,384.76 354.83,387.04 355.88,389.30 356.92,391.56 357.94,393.80 358.95,396.03 359.94,398.24 360.92,400.45 361.88,402.64 362.82,404.81 363.75,406.98 364.67,409.13 365.57,411.27 366.45,413.39 367.33,415.50 368.18,417.60 369.02,419.68 369.85,421.75 370.67,423.81 371.46,425.85 372.25,427.88 373.02,429.89 373.78,431.88 374.52,433.87 375.25,435.83 375.97,437.79 376.67,439.72 377.36,441.64 378.03,443.55 378.70,445.44 379.35,447.32 379.98,449.17 380.61,451.02 381.22,452.84 381.82,454.66 382.40,456.45 382.98,458.23 383.54,459.99 384.09,461.73 384.62,463.46 385.15,465.17 385.66,466.87 386.16,468.55 386.65,470.21 387.13,471.85 387.60,473.47 388.06,475.08 388.50,476.67 388.93,478.24 389.36,479.80 389.77,481.34 390.17,482.85 390.56,484.36 390.94,485.84 391.31,487.30 391.68,488.75 392.03,490.18 392.37,491.58 392.70,492.97 393.02,494.35 393.33,495.70 393.63,497.03 393.93,498.35 394.21,499.64 394.49,500.92 394.75,502.18 395.01,503.41 395.26,504.63 395.50,505.83 395.74,507.01 395.96,508.17 396.18,509.31 396.39,510.43 396.59,511.53 396.78,512.61 396.97,513.67 397.15,514.71 397.32,515.73 397.49,516.73 397.64,517.71 397.79,518.67 397.94,519.60 398.08,520.52 398.21,521.42 398.34,522.30 398.46,523.15 398.57,523.99 398.68,524.80 398.78,525.60 398.88,526.37 398.97,527.12 399.06,527.85 399.14,528.57 399.22,529.25 399.29,529.92 399.36,530.57 399.42,531.20 399.48,531.80 399.53,532.38 399.58,532.95 399.63,533.49 399.67,534.01 399.71,534.50 399.75,534.98 399.78,535.44 399.81,535.87 399.84,536.28 399.87,536.67 399.89,537.04 399.91,537.39 399.92,537.72 399.94,538.02 399.95,538.30 399.96,538.56 399.97,538.80 399.98,539.02 399.98,539.22 399.99,539.39 399.99,539.54 400.00,539.67 400.00,539.78 400.00,539.87 400.00,539.93 400.00,539.98 400.00,540.00 400.00,540.00 400.00,539.98 400.00,539.93 400.00,539.87 400.00,539.78 400.00,539.67 400.01,539.54 400.01,539.39 400.02,539.22 400.02,539.02 400.03,538.80 400.04,538.56 400.05,538.30 400.06,538.02 400.08,537.72 400.09,537.39 400.11,537.04 400.13,536.67 400.16,536.28 400.19,535.87 400.22,535.44 400.25,534.98 400.29,534.50 400.33,534.01 400.37,533.49 400.42,532.95 400.47,532.38 400.52,531.80 400.58,531.20 400.64,530.57 400.71,529.92 400.78,529.25 400.86,528.57 400.94,527.85 401.03,527.12 401.12,526.37 401.22,525.60 401.32,524.80 401.43,523.99 401.54,523.15 401.66,522.30 401.79,521.42 401.92,520.52 402.06,519.60 402.21,518.67 402.36,517.71 402.51,516.73 402.68,515.73 402.85,514.71 403.03,513.67 403.22,512.61 403.41,511.53 403.61,510.43 403.82,509.31 404.04,508.17 404.26,507.01 404.50,505.83 404.74,504.63 404.99,503.41 405.25,502.18 405.51,500.92 405.79,499.64 406.07,498.35 406.37,497.03 406.67,495.70 406.98,494.35 407.30,492.97 407.63,491.58 407.97,490.18 408.32,488.75 408.69,487.30 409.06,485.84 409.44,484.36 409.83,482.85 410.23,481.34 410.64,479.80 411.07,478.24 411.50,476.67 411.94,475.08 412.40,473.47 412.87,471.85 413.35,470.21 413.84,468.55 414.34,466.87 414.85,465.17 415.38,463.46 415.91,461.73 416.46,459.99 417.02,458.23 417.60,456.45 418.18,454.66 418.78,452.84 419.39,451.02 420.02,449.17 420.65,447.32 421.30,445.44 421.97,443.55 422.64,441.64 423.33,439.72 424.03,437.79 424.75,435.83 425.48,433.87 426.22,431.88 426.98,429.89 427.75,427.88 428.54,425.85 429.33,423.81 430.15,421.75 430.98,419.68 431.82,417.60 432.67,415.50 433.55,413.39 434.43,411.27 435.33,409.13 436.25,406.98 437.18,404.81 438.12,402.64 439.08,400.45 440.06,398.24 441.05,396.03 442.06,393.80 443.08,391.56 444.12,389.30 445.17,387.04 446.24,384.76 447.33,382.47 448.43,380.17 449.54,377.86 450.68,375.53 451.83,373.20 452.99,370.85 454.17,368.50 455.37,366.13 456.59,363.75 457.82,361.36 459.07,358.96 460.33,356.55 461.61,354.13 462.91,351.70 464.22,349.27 465.56,346.82 466.91,344.36 468.27,341.89 469.65,339.42 471.05,336.93 472.47,334.44 473.91,331.94 475.36,329.43 476.83,326.91 478.32,324.38 479.82,321.85 481.34,319.30 482.88,316.75 484.44,314.20 486.02,311.63 487.61,309.06 489.22,306.48 490.85,303.89 492.50,301.30 494.16,298.70 495.85,296.10 497.55,293.49 499.27,290.87 501.01,288.25 502.76,285.62 504.54,282.99 506.33,280.35 508.14,277.70 509.97,275.05 511.82,272.40 513.68,269.74 515.57,267.08 517.47,264.41 519.39,261.74 521.33,259.06 523.29,256.39 525.27,253.70 527.26,251.02 529.28,248.33 531.31,245.64 533.36,242.94 535.43,240.24 537.52,237.54 539.63,234.84 541.76,232.14 543.90,229.43 546.07,226.72 548.25,224.01 550.45,221.30 552.67,218.59 554.91,215.87 557.17,213.16 559.45,210.44 561.74,207.73 564.06,205.01 566.39,202.29 568.75,199.58 571.12,196.86 573.51,194.14 575.92,191.43 578.34,188.71 580.79,186.00 583.26,183.28 585.74,180.57 588.24,177.86 590.77,175.15 593.31,172.44 595.87,169.73 598.45,167.03 601.04,164.33 603.66,161.63 606.29,158.93 608.95,156.24 611.62,153.54 614.31,150.86 617.02,148.17 619.75,145.49 622.49,142.81 625.26,140.14 628.04,137.46 630.85,134.80 633.67,132.14 636.51,129.48 639.36,126.82 642.24,124.18 645.13,121.53 648.05,118.89 650.98,116.26 653.93,113.63 656.89,111.01 659.88,108.39 662.88,105.78 665.91,103.18 668.95,100.58 672.00,97.99 675.08,95.40 678.17,92.82 681.29,90.25 684.41,87.69 687.56,85.13 690.73,82.58 693.91,80.04 697.11,77.51 700.33,74.98 703.56,72.46 706.82,69.95 710.09,67.45 713.37,64.96 716.68,62.48 720.00,60.00 "/>
</svg>
