<?xml version="1.0" encoding="UTF-8"?>
<svg xmlns="http://www.w3.org/2000/svg" width="800" height="600">
  <title>X=t+sin(t);Y=1-cos(t):-2,2:</title>
  <rect width="800" height="600" fill="#ffffff"/>
  <g stroke="#d0d0d0" stroke-width="1">
    <line x1="70.02" y1="540.00" x2="70.02" y2="60.00"/>
    <line x1="180.02" y1="540.00" x2="180.02" y2="60.00"/>
    <line x1="290.01" y1="540.00" x2="290.01" y2="60.00"/>
    <line x1="400.00" y1="540.00" x2="400.00" y2="60.00"/>
    <line x1="509.99" y1="540.00" x2="509.99" y2="60.00"/>
    <line x1="619.98" y1="540.00" x2="619.98" y2="60.00"/>
    <line x1="729.98" y1="540.00" x2="729.98" y2="60.00"/>
    <line x1="80.00" y1="540.00" x2="720.00" y2="540.00"/>
    <line x1="80.00" y1="201.05" x2="720.00" y2="201.05"/>
    <line x1="80.00" y1="-137.90" x2="720.00" y2="-137.90"/>
  </g>
  <g stroke="#e8e8e8" stroke-width="0.5">
    <line x1="92.02" y1="540.00" x2="92.02" y2="60.00"/>
    <line x1="114.02" y1="540.00" x2="114.02" y2="60.00"/>
    <line x1="136.02" y1="540.00" x2="136.02" y2="60.00"/>
    <line x1="158.02" y1="540.00" x2="158.02" y2="60.00"/>
    <line x1="202.01" y1="540.00" x2="202.01" y2="60.00"/>
    <line x1="224.01" y1="540.00" x2="224.01" y2="60.00"/>
    <line x1="246.01" y1="540.00" x2="246.01" y2="60.00"/>
    <line x1="268.01" y1="540.00" x2="268.01" y2="60.00"/>
    <line x1="312.01" y1="540.00" x2="312.01" y2="60.00"/>
    <line x1="334.00" y1="540.00" x2="334.00" y2="60.00"/>
    <line x1="356.00" y1="540.00" x2="356.00" y2="60.00"/>
    <line x1="378.00" y1="540.00" x2="378.00" y2="60.00"/>
    <line x1="422.00" y1="540.00" x2="422.00" y2="60.00"/>
    <line x1="444.00" y1="540.00" x2="444.00" y2="60.00"/>
    <line x1="466.00" y1="540.00" x2="466.00" y2="60.00"/>
    <line x1="487.99" y1="540.00" x2="487.99" y2="60.00"/>
    <line x1="531.99" y1="540.00" x2="531.99" y2="60.00"/>
    <line x1="553.99" y1="540.00" x2="553.99" y2="60.00"/>
    <line x1="575.99" y1="540.00" x2="575.99" y2="60.00"/>
    <line x1="597.99" y1="540.00" x2="597.99" y2="60.00"/>
    <line x1="641.98" y1="540.00" x2="641.98" y2="60.00"/>
    <line x1="663.98" y1="540.00" x2="663.98" y2="60.00"/>
    <line x1="685.98" y1="540.00" x2="685.98" y2="60.00"/>
    <line x1="707.98" y1="540.00" x2="707.98" y2="60.00"/>
    <line x1="80.00" y1="472.21" x2="720.00" y2="472.21"/>
    <line x1="80.00" y1="404.42" x2="720.00" y2="404.42"/>
    <line x1="80.00" y1="336.63" x2="720.00" y2="336.63"/>
    <line x1="80.00" y1="268.84" x2="720.00" y2="268.84"/>
    <line x1="80.00" y1="133.26" x2="720.00" y2="133.26"/>
    <line x1="80.00" y1="65.47" x2="720.00" y2="65.47"/>
  </g>
  <g stroke="#808080" stroke-width="2">
    <line x1="80.00" y1="540.00" x2="720.00" y2="540.00"/>
  </g>
  <polyline fill="none" stroke="#0066cc" stroke-width="2" points="80.00,60.00 80.52,62.48 81.04,64.96 81.57,67.45 82.11,69.95 82.65,72.46 83.21,74.98 83.76,77.51 84.33,80.04 84.90,82.58 85.47,85.13 86.06,87.69 86.65,90.25 87.24,92.82 87.85,95.40 88.46,97.99 89.07,100.58 89.70,103.18 90.33,105.78 90.97,108.39 91.61,111.01 92.26,113.63 92.92,116.26 93.58,118.89 94.25,121.53 94.93,124.18 95.62,126.82 96.31,129.48 97.01,132.14 97.71,134.80 98.43,137.46 99.15,140.14 99.87,142.81 100.61,145.49 101.35,148.17 102.10,150.86 102.85,153.54 103.61,156.24 104.38,158.93 105.16,161.63 105.94,164.33 106.73,167.03 107.53,169.73 108.33,172.44 109.14,175.15 109.96,177.86 110.78,180.57 111.61,183.28 112.45,186.00 113.30,188.71 114.15,191.43 115.01,194.14 115.88,196.86 116.75,199.58 117.64,202.29 118.52,205.01 119.42,207.73 120.32,210.44 121.23,213.16 122.15,215.87 123.07,218.59 124.00,221.30 124.94,224.01 125.89,226.72 126.84,229.43 127.80,232.14 128.76,234.84 129.74,237.54 130.72,240.24 131.70,242.94 132.70,245.64 133.70,248.33 134.71,251.02 135.72,253.70 136.74,256.39 137.77,259.06 138.81,261.74 139.85,264.41 140.90,267.08 141.96,269.74 143.02,272.40 144.09,275.05 145.17,277.70 146.26,280.35 147.35,282.99 148.45,285.62 149.55,288.25 150.66,290.87 151.78,293.49 152.91,296.10 154.04,298.70 155.18,301.30 156.32,303.89 157.48,306.48 158.64,309.06 159.80,311.63 160.98,314.20 162.15,316.75 163.34,319.30 164.53,321.85 165.73,324.38 166.94,326.91 168.15,329.43 169.37,331.94 170.60,334.44 171.83,336.93 173.07,339.42 174.31,341.89 175.56,344.36 176.82,346.82 178.08,349.27 179.35,351.70 180.63,354.13 181.91,356.55 183.20,358.96 184.50,361.36 185.80,363.75 187.11,366.13 188.42,368.50 189.74,370.85 191.07,373.20 192.40,375.53 193.74,377.86 195.09,380.17 196.44,382.47 197.79,384.76 199.15,387.04 200.52,389.30 201.90,391.56 203.28,393.80 204.66,396.03 206.06,398.24 207.45,400.45 208.86,402.64 210.27,404.81 211.68,406.98 213.10,409.13 214.53,411.27 215.96,413.39 217.39,415.50 218.84,417.60 220.28,419.68 221.74,421.75 223.20,423.81 224.66,425.85 226.13,427.88 227.60,429.89 229.08,431.88 230.57,433.87 232.06,435.83 233.55,437.79 235.05,439.72 236.56,441.64 238.07,443.55 239.58,445.44 241.10,447.32 242.63,449.17 244.16,451.02 245.69,452.84 247.23,454.66 248.77,456.45 250.32,458.23 251.87,459.99 253.43,461.73 254.99,463.46 256.56,465.17 258.13,466.87 259.71,468.55 261.29,470.21 262.87,471.85 264.46,473.47 266.05,475.08 267.65,476.67 269.25,478.24 270.85,479.80 272.46,481.34 274.07,482.85 275.69,484.36 277.31,485.84 278.94,487.30 280.56,488.75 282.20,490.18 283.83,491.58 285.47,492.97 287.11,494.35 288.76,495.70 290.41,497.03 292.06,498.35 293.72,499.64 295.38,500.92 297.04,502.18 298.71,503.41 300.38,504.63 302.05,505.83 303.73,507.01 305.41,508.17 307.09,509.31 308.78,510.43 310.46,511.53 312.15,512.61 313.85,513.67 315.54,514.71 317.24,515.73 318.94,516.73 320.65,517.71 322.36,518.67 324.06,519.60 325.78,520.52 327.49,521.42 329.21,522.30 330.92,523.15 332.65,523.99 334.37,524.80 336.09,525.60 337.82,526.37 339.55,527.12 341.28,527.85 343.01,528.57 344.75,529.25 346.48,529.92 348.22,530.57 349.96,531.20 351.70,531.80 353.45,532.38 355.19,532.95 356.94,533.49 358.68,534.01 360.43,534.50 362.18,534.98 363.93,535.44 365.68,535.87 367.44,536.28 369.19,536.67 370.95,537.04 372.70,537.39 374.46,537.72 376.22,538.02 377.98,538.30 379.74,538.56 381.50,538.80 383.26,539.02 385.02,539.22 386.78,539.39 388.54,539.54 390.30,539.67 392.07,539.78 393.83,539.87 395.59,539.93 397.35,539.98 399.12,540.00 400.88,540.00 402.65,539.98 404.41,539.93 406.17,539.87 407.93,539.78 409.70,539.67 411.46,539.54 413.22,539.39 414.98,539.22 416.74,539.02 418.50,538.80 420.26,538.56 422.02,538.30 423.78,538.02 425.54,537.72 427.30,537.39 429.05,537.04 430.81,536.67 432.56,536.28 434.32,535.87 436.07,535.44 437.82,534.98 439.57,534.50 441.32,534.01 443.06,533.49 444.81,532.95 446.55,532.38 448.30,531.80 450.04,531.20 451.78,530.57 453.52,529.92 455.25,529.25 456.99,528.57 458.72,527.85 460.45,527.12 462.18,526.37 463.91,525.60 465.63,524.80 467.35,523.99 469.08,523.15 470.79,522.30 472.51,521.42 474.22,520.52 475.94,519.60 477.64,518.67 479.35,517.71 481.06,516.73 482.76,515.73 484.46,514.71 486.15,513.67 487.85,512.61 489.54,511.53 491.22,510.43 492.91,509.31 494.59,508.17 496.27,507.01 497.95,505.83 499.62,504.63 501.29,503.41 502.96,502.18 504.62,500.92 506.28,499.64 507.94,498.35 509.59,497.03 511.24,495.70 512.89,494.35 514.53,492.97 516.17,491.58 517.80,490.18 519.44,488.75 521.06,487.30 522.69,485.84 524.31,484.36 525.93,482.85 527.54,481.34 529.15,479.80 530.75,478.24 532.35,476.67 533.95,475.08 535.54,473.47 537.13,471.85 538.71,470.21 540.29,468.55 541.87,466.87 543.44,465.17 545.01,463.46 546.57,461.73 548.13,459.99 549.68,458.23 551.23,456.45 552.77,454.66 554.31,452.84 555.84,451.02 557.37,449.17 558.90,447.32 560.42,445.44 561.93,443.55 563.44,441.64 564.95,439.72 566.45,437.79 567.94,435.83 569.43,433.87 570.92,431.88 572.40,429.89 573.87,427.88 575.34,425.85 576.80,423.81 578.26,421.75 579.72,419.68 581.16,417.60 582.61,415.50 584.04,413.39 585.47,411.27 586.90,409.13 588.32,406.98 589.73,404.81 591.14,402.64 592.55,400.45 593.94,398.24 595.34,396.03 596.72,393.80 598.10,391.56 599.48,389.30 600.85,387.04 602.21,384.76 603.56,382.47 604.91,380.17 606.26,377.86 607.60,375.53 608.93,373.20 610.26,370.85 611.58,368.50 612.89,366.13 614.20,363.75 615.50,361.36 616.80,358.96 618.09,356.55 619.37,354.13 620.65,351.70 621.92,349.27 623.18,346.82 624.44,344.36 625.69,341.89 626.93,339.42 628.17,336.93 629.40,334.44 630.63,331.94 631.85,329.43 633.06,326.91 634.27,324.38 635.47,321.85 636.66,319.30 637.85,316.75 639.02,314.20 640.20,311.63 641.36,309.06 642.52,306.48 643.68,303.89 644.82,301.30 645.96,298.70 647.09,296.10 648.22,293.49 649.34,290.87 650.45,288.25 651.55,285.62 652.65,282.99 653.74,280.35 654.83,277.70 655.91,275.05 656.98,272.40 658.04,269.74 659.10,267.08 660.15,264.41 661.19,261.74 662.23,259.06 663.26,256.39 664.28,253.70 665.29,251.02 666.30,248.33 667.30,245.64 668.30,242.94 669.28,240.24 670.26,237.54 671.24,234.84 672.20,232.14 673.16,229.43 674.11,226.72 675.06,224.01 676.00,221.30 676.93,218.59 677.85,215.87 678.77,213.16 679.68,210.44 680.58,207.73 681.48,205.01 682.36,202.29 683.25,199.58 684.12,196.86 684.99,194.14 685.85,191.43 686.70,188.71 687.55,186.00 688.39,183.28 689.22,180.57 690.04,177.86 690.86,175.15 691.67,172.44 692.47,169.73 693.27,167.03 694.06,164.33 694.84,161.63 695.62,158.93 696.39,156.24 697.15,153.54 697.90,150.86 698.65,148.17 699.39,145.49 700.13,142.81 700.85,140.14 701.57,137.46 702.29,134.80 702.99,132.14 703.69,129.48 704.38,126.82 705.07,124.18 705.75,121.53 706.42,118.89 707.08,116.26 707.74,113.63 708.39,111.01 709.03,108.39 709.67,105.78 710.30,103.18 710.93,100.58 711.54,97.99 712.15,95.40 712.76,92.82 713.35,90.25 713.94,87.69 714.53,85.13 715.10,82.58 715.67,80.04 716.24,77.51 716.79,74.98 717.35,72.46 717.89,69.95 718.43,67.45 718.96,64.96 719.48,62.48 720.00,60.00 "/>
</svg>
