<?xml version="1.0" encoding="UTF-8"?>
<svg xmlns="http://www.w3.org/2000/svg" width="800" height="600">
  <title>X=3*t-5*sin(t);Y=3-5*cos(t):-3,3:</title>
  <rect width="800" height="600" fill="#ffffff"/>
  <g stroke="#d0d0d0" stroke-width="1">
    <line x1="52.78" y1="540.00" x2="52.78" y2="60.00"/>
    <line x1="91.36" y1="540.00" x2="91.36" y2="60.00"/>
    <line x1="129.94" y1="540.00" x2="129.94" y2="60.00"/>
    <line x1="168.52" y1="540.00" x2="168.52" y2="60.00"/>
    <line x1="207.10" y1="540.00" x2="207.10" y2="60.00"/>
    <line x1="245.68" y1="540.00" x2="245.68" y2="60.00"/>
    <line x1="284.26" y1="540.00" x2="284.26" y2="60.00"/>
    <line x1="322.84" y1="540.00" x2="322.84" y2="60.00"/>
    <line x1="361.42" y1="540.00" x2="361.42" y2="60.00"/>
    <line x1="400.00" y1="540.00" x2="400.00" y2="60.00"/>
    <line x1="438.58" y1="540.00" x2="438.58" y2="60.00"/>
    <line x1="477.16" y1="540.00" x2="477.16" y2="60.00"/>
    <line x1="515.74" y1="540.00" x2="515.74" y2="60.00"/>
    <line x1="554.32" y1="540.00" x2="554.32" y2="60.00"/>
    <line x1="592.90" y1="540.00" x2="592.90" y2="60.00"/>
    <line x1="631.48" y1="540.00" x2="631.48" y2="60.00"/>
    <line x1="670.06" y1="540.00" x2="670.06" y2="60.00"/>
    <line x1="708.64" y1="540.00" x2="708.64" y2="60.00"/>
    <line x1="747.22" y1="540.00" x2="747.22" y2="60.00"/>
    <line x1="80.00" y1="540.00" x2="720.00" y2="540.00"/>
    <line x1="80.00" y1="491.76" x2="720.00" y2="491.76"/>
    <line x1="80.00" y1="443.52" x2="720.00" y2="443.52"/>
    <line x1="80.00" y1="395.28" x2="720.00" y2="395.28"/>
    <line x1="80.00" y1="347.04" x2="720.00" y2="347.04"/>
    <line x1="80.00" y1="298.80" x2="720.00" y2="298.80"/>
    <line x1="80.00" y1="250.55" x2="720.00" y2="250.55"/>
    <line x1="80.00" y1="202.31" x2="720.00" y2="202.31"/>
    <line x1="80.00" y1="154.07" x2="720.00" y2="154.07"/>
    <line x1="80.00" y1="105.83" x2="720.00" y2="105.83"/>
    <line x1="80.00" y1="57.59" x2="720.00" y2="57.59"/>
  </g>
  <g stroke="#e8e8e8" stroke-width="0.5">
    <line x1="83.64" y1="540.00" x2="83.64" y2="60.00"/>
    <line x1="99.07" y1="540.00" x2="99.07" y2="60.00"/>
    <line x1="106.79" y1="540.00" x2="106.79" y2="60.00"/>
    <line x1="114.51" y1="540.00" x2="114.51" y2="60.00"/>
    <line x1="122.22" y1="540.00" x2="122.22" y2="60.00"/>
    <line x1="137.65" y1="540.00" x2="137.65" y2="60.00"/>
    <line x1="145.37" y1="540.00" x2="145.37" y2="60.00"/>
    <line x1="153.09" y1="540.00" x2="153.09" y2="60.00"/>
    <line x1="160.80" y1="540.00" x2="160.80" y2="60.00"/>
    <line x1="176.23" y1="540.00" x2="176.23" y2="60.00"/>
    <line x1="183.95" y1="540.00" x2="183.95" y2="60.00"/>
    <line x1="191.67" y1="540.00" x2="191.67" y2="60.00"/>
    <line x1="199.38" y1="540.00" x2="199.38" y2="60.00"/>
    <line x1="214.81" y1="540.00" x2="214.81" y2="60.00"/>
    <line x1="222.53" y1="540.00" x2="222.53" y2="60.00"/>
    <line x1="230.25" y1="540.00" x2="230.25" y2="60.00"/>
    <line x1="237.96" y1="540.00" x2="237.96" y2="60.00"/>
    <line x1="253.40" y1="540.00" x2="253.40" y2="60.00"/>
    <line x1="261.11" y1="540.00" x2="261.11" y2="60.00"/>
    <line x1="268.83" y1="540.00" x2="268.83" y2="60.00"/>
    <line x1="276.54" y1="540.00" x2="276.54" y2="60.00"/>
    <line x1="291.98" y1="540.00" x2="291.98" y2="60.00"/>
    <line x1="299.69" y1="540.00" x2="299.69" y2="60.00"/>
    <line x1="307.41" y1="540.00" x2="307.41" y2="60.00"/>
    <line x1="315.12" y1="540.00" x2="315.12" y2="60.00"/>
    <line x1="330.56" y1="540.00" x2="330.56" y2="60.00"/>
    <line x1="338.27" y1="540.00" x2="338.27" y2="60.00"/>
    <line x1="345.99" y1="540.00" x2="345.99" y2="60.00"/>
    <line x1="353.70" y1="540.00" x2="353.70" y2="60.00"/>
    <line x1="369.14" y1="540.00" x2="369.14" y2="60.00"/>
    <line x1="376.85" y1="540.00" x2="376.85" y2="60.00"/>
    <line x1="384.57" y1="540.00" x2="384.57" y2="60.00"/>
    <line x1="392.28" y1="540.00" x2="392.28" y2="60.00"/>
    <line x1="407.72" y1="540.00" x2="407.72" y2="60.00"/>
    <line x1="415.43" y1="540.00" x2="415.43" y2="60.00"/>
    <line x1="423.15" y1="540.00" x2="423.15" y2="60.00"/>
    <line x1="430.86" y1="540.00" x2="430.86" y2="60.00"/>
    <line x1="446.30" y1="540.00" x2="446.30" y2="60.00"/>
    <line x1="454.01" y1="540.00" x2="454.01" y2="60.00"/>
    <line x1="461.73" y1="540.00" x2="461.73" y2="60.00"/>
    <line x1="469.44" y1="540.00" x2="469.44" y2="60.00"/>
    <line x1="484.88" y1="540.00" x2="484.88" y2="60.00"/>
    <line x1="492.59" y1="540.00" x2="492.59" y2="60.00"/>
    <line x1="500.31" y1="540.00" x2="500.31" y2="60.00"/>
    <line x1="508.02" y1="540.00" x2="508.02" y2="60.00"/>
    <line x1="523.46" y1="540.00" x2="523.46" y2="60.00"/>
    <line x1="531.17" y1="540.00" x2="531.17" y2="60.00"/>
    <line x1="538.89" y1="540.00" x2="538.89" y2="60.00"/>
    <line x1="546.60" y1="540.00" x2="546.60" y2="60.00"/>
    <line x1="562.04" y1="540.00" x2="562.04" y2="60.00"/>
    <line x1="569.75" y1="540.00" x2="569.75" y2="60.00"/>
    <line x1="577.47" y1="540.00" x2="577.47" y2="60.00"/>
    <line x1="585.19" y1="540.00" x2="585.19" y2="60.00"/>
    <line x1="600.62" y1="540.00" x2="600.62" y2="60.00"/>
    <line x1="608.33" y1="540.00" x2="608.33" y2="60.00"/>
    <line x1="616.05" y1="540.00" x2="616.05" y2="60.00"/>
    <line x1="623.77" y1="540.00" x2="623.77" y2="60.00"/>
    <line x1="639.20" y1="540.00" x2="639.20" y2="60.00"/>
    <line x1="646.91" y1="540.00" x2="646.91" y2="60.00"/>
    <line x1="654.63" y1="540.00" x2="654.63" y2="60.00"/>
    <line x1="662.35" y1="540.00" x2="662.35" y2="60.00"/>
    <line x1="677.78" y1="540.00" x2="677.78" y2="60.00"/>
    <line x1="685.49" y1="540.00" x2="685.49" y2="60.00"/>
    <line x1="693.21" y1="540.00" x2="693.21" y2="60.00"/>
    <line x1="700.93" y1="540.00" x2="700.93" y2="60.00"/>
    <line x1="716.36" y1="540.00" x2="716.36" y2="60.00"/>
    <line x1="80.00" y1="530.36" x2="720.00" y2="530.36"/>
    <line x1="80.00" y1="520.71" x2="720.00" y2="520.71"/>
    <line x1="80.00" y1="511.06" x2="720.00" y2="511.06"/>
    <line x1="80.00" y1="501.41" x2="720.00" y2="501.41"/>
    <line x1="80.00" y1="482.11" x2="720.00" y2="482.11"/>
    <line x1="80.00" y1="472.47" x2="720.00" y2="472.47"/>
    <line x1="80.00" y1="462.82" x2="720.00" y2="462.82"/>
    <line x1="80.00" y1="453.17" x2="720.00" y2="453.17"/>
    <line x1="80.00" y1="433.87" x2="720.00" y2="433.87"/>
    <line x1="80.00" y1="424.22" x2="720.00" y2="424.22"/>
    <line x1="80.00" y1="414.58" x2="720.00" y2="414.58"/>
    <line x1="80.00" y1="404.93" x2="720.00" y2="404.93"/>
    <line x1="80.00" y1="385.63" x2="720.00" y2="385.63"/>
    <line x1="80.00" y1="375.98" x2="720.00" y2="375.98"/>
    <line x1="80.00" y1="366.33" x2="720.00" y2="366.33"/>
    <line x1="80.00" y1="356.69" x2="720.00" y2="356.69"/>
    <line x1="80.00" y1="337.39" x2="720.00" y2="337.39"/>
    <line x1="80.00" y1="327.74" x2="720.00" y2="327.74"/>
    <line x1="80.00" y1="318.09" x2="720.00" y2="318.09"/>
    <line x1="80.00" y1="308.44" x2="720.00" y2="308.44"/>
    <line x1="80.00" y1="289.15" x2="720.00" y2="289.15"/>
    <line x1="80.00" y1="279.50" x2="720.00" y2="279.50"/>
    <line x1="80.00" y1="269.85" x2="720.00" y2="269.85"/>
    <line x1="80.00" y1="260.20" x2="720.00" y2="260.20"/>
    <line x1="80.00" y1="240.91" x2="720.00" y2="240.91"/>
    <line x1="80.00" y1="231.26" x2="720.00" y2="231.26"/>
    <line x1="80.00" y1="221.61" x2="720.00" y2="221.61"/>
    <line x1="80.00" y1="211.96" x2="720.00" y2="211.96"/>
    <line x1="80.00" y1="192.66" x2="720.00" y2="192.66"/>
    <line x1="80.00" y1="183.01" x2="720.00" y2="183.01"/>
    <line x1="80.00" y1="173.37" x2="720.00" y2="173.37"/>
    <line x1="80.00" y1="163.72" x2="720.00" y2="163.72"/>
    <line x1="80.00" y1="144.42" x2="720.00" y2="144.42"/>
    <line x1="80.00" y1="134.77" x2="720.00" y2="134.77"/>
    <line x1="80.00" y1="125.12" x2="720.00" y2="125.12"/>
    <line x1="80.00" y1="115.48" x2="720.00" y2="115.48"/>
    <line x1="80.00" y1="96.18" x2="720.00" y2="96.18"/>
    <line x1="80.00" y1="86.53" x2="720.00" y2="86.53"/>
    <line x1="80.00" y1="76.88" x2="720.00" y2="76.88"/>
    <line x1="80.00" y1="67.23" x2="720.00" y2="67.23"/>
  </g>
  <g stroke="#808080" stroke-width="2">
    <line x1="400.00" y1="540.00" x2="400.00" y2="60.00"/>
    <line x1="80.00" y1="443.52" x2="720.00" y2="443.52"/>
  </g>
  <polyline fill="none" stroke="#0066cc" stroke-width="2" points="80.00,60.00 83.69,60.43 87.37,60.89 91.04,61.38 94.72,61.91 98.38,62.48 102.04,63.07 105.70,63.71 109.35,64.37 112.99,65.07 116.63,65.81 120.26,66.57 123.88,67.38 127.49,68.21 131.09,69.08 134.69,69.98 138.28,70.91 141.86,71.88 145.43,72.88 148.98,73.91 152.53,74.98 156.07,76.08 159.60,77.21 163.12,78.37 166.62,79.56 170.12,80.79 173.60,82.04 177.07,83.33 180.53,84.65 183.97,86.00 187.40,87.38 190.82,88.79 194.22,90.24 197.61,91.71 200.99,93.21 204.35,94.74 207.70,96.30 211.03,97.89 214.34,99.51 217.64,101.16 220.93,102.84 224.20,104.54 227.45,106.28 230.68,108.04 233.90,109.83 237.10,111.64 240.28,113.49 243.45,115.36 246.59,117.25 249.72,119.18 252.83,121.13 255.92,123.10 258.99,125.10 262.04,127.12 265.08,129.17 268.09,131.25 271.08,133.35 274.05,135.47 277.01,137.62 279.94,139.78 282.85,141.98 285.74,144.19 288.60,146.43 291.45,148.69 294.27,150.97 297.08,153.27 299.86,155.60 302.61,157.94 305.35,160.30 308.06,162.69 310.75,165.09 313.42,167.52 316.06,169.96 318.68,172.42 321.27,174.90 323.84,177.40 326.39,179.91 328.91,182.44 331.41,184.99 333.88,187.56 336.33,190.14 338.76,192.74 341.16,195.35 343.53,197.98 345.88,200.62 348.20,203.28 350.50,205.95 352.77,208.63 355.02,211.33 357.24,214.03 359.43,216.76 361.60,219.49 363.74,222.23 365.85,224.99 367.94,227.76 370.00,230.53 372.04,233.32 374.04,236.12 376.03,238.92 377.98,241.74 379.91,244.56 381.81,247.39 383.68,250.22 385.52,253.07 387.34,255.92 389.13,258.78 390.89,261.64 392.63,264.51 394.34,267.38 396.02,270.26 397.67,273.14 399.29,276.03 400.89,278.92 402.46,281.81 404.00,284.70 405.51,287.60 407.00,290.50 408.46,293.39 409.89,296.29 411.29,299.20 412.66,302.10 414.01,305.00 415.33,307.89 416.62,310.79 417.88,313.69 419.11,316.58 420.32,319.47 421.50,322.36 422.65,325.24 423.77,328.13 424.87,331.00 425.94,333.87 426.98,336.74 427.99,339.60 428.98,342.46 429.93,345.31 430.87,348.15 431.77,350.98 432.64,353.81 433.49,356.63 434.32,359.44 435.11,362.25 435.88,365.04 436.62,367.82 437.33,370.60 438.02,373.36 438.68,376.11 439.32,378.86 439.93,381.59 440.51,384.30 441.07,387.01 441.60,389.70 442.10,392.38 442.58,395.05 443.03,397.70 443.46,400.34 443.86,402.96 444.24,405.57 444.59,408.16 444.92,410.74 445.22,413.30 445.50,415.85 445.76,418.37 445.99,420.88 446.19,423.38 446.37,425.85 446.53,428.31 446.67,430.74 446.78,433.16 446.87,435.56 446.93,437.94 446.97,440.30 446.99,442.64 446.99,444.96 446.97,447.25 446.92,449.53 446.85,451.78 446.76,454.01 446.65,456.22 446.52,458.41 446.36,460.57 446.19,462.71 445.99,464.82 445.78,466.92 445.54,468.98 445.29,471.03 445.01,473.05 444.72,475.04 444.41,477.01 444.08,478.95 443.73,480.86 443.36,482.75 442.97,484.61 442.57,486.45 442.15,488.26 441.71,490.04 441.25,491.79 440.78,493.52 440.29,495.22 439.79,496.89 439.27,498.53 438.73,500.14 438.18,501.72 437.61,503.27 437.03,504.80 436.43,506.29 435.82,507.76 435.20,509.19 434.56,510.59 433.91,511.96 433.24,513.31 432.56,514.62 431.87,515.90 431.17,517.14 430.46,518.36 429.73,519.55 429.00,520.70 428.25,521.82 427.49,522.91 426.72,523.96 425.94,524.99 425.16,525.98 424.36,526.94 423.55,527.86 422.74,528.75 421.91,529.61 421.08,530.44 420.24,531.23 419.39,531.99 418.54,532.71 417.68,533.40 416.81,534.06 415.94,534.68 415.06,535.27 414.17,535.83 413.28,536.35 412.39,536.83 411.49,537.28 410.58,537.70 409.68,538.08 408.77,538.43 407.85,538.75 406.93,539.02 406.02,539.27 405.09,539.48 404.17,539.65 403.24,539.79 402.32,539.90 401.39,539.97 400.46,540.00 399.54,540.00 398.61,539.97 397.68,539.90 396.76,539.79 395.83,539.65 394.91,539.48 393.98,539.27 393.07,539.02 392.15,538.75 391.23,538.43 390.32,538.08 389.42,537.70 388.51,537.28 387.61,536.83 386.72,536.35 385.83,535.83 384.94,535.27 384.06,534.68 383.19,534.06 382.32,533.40 381.46,532.71 380.61,531.99 379.76,531.23 378.92,530.44 378.09,529.61 377.26,528.75 376.45,527.86 375.64,526.94 374.84,525.98 374.06,524.99 373.28,523.96 372.51,522.91 371.75,521.82 371.00,520.70 370.27,519.55 369.54,518.36 368.83,517.14 368.13,515.90 367.44,514.62 366.76,513.31 366.09,511.96 365.44,510.59 364.80,509.19 364.18,507.76 363.57,506.29 362.97,504.80 362.39,503.27 361.82,501.72 361.27,500.14 360.73,498.53 360.21,496.89 359.71,495.22 359.22,493.52 358.75,491.79 358.29,490.04 357.85,488.26 357.43,486.45 357.03,484.61 356.64,482.75 356.27,480.86 355.92,478.95 355.59,477.01 355.28,475.04 354.99,473.05 354.71,471.03 354.46,468.98 354.22,466.92 354.01,464.82 353.81,462.71 353.64,460.57 353.48,458.41 353.35,456.22 353.24,454.01 353.15,451.78 353.08,449.53 353.03,447.25 353.01,444.96 353.01,442.64 353.03,440.30 353.07,437.94 353.13,435.56 353.22,433.16 353.33,430.74 353.47,428.31 353.63,425.85 353.81,423.38 354.01,420.88 354.24,418.37 354.50,415.85 354.78,413.30 355.08,410.74 355.41,408.16 355.76,405.57 356.14,402.96 356.54,400.34 356.97,397.70 357.42,395.05 357.90,392.38 358.40,389.70 358.93,387.01 359.49,384.30 360.07,381.59 360.68,378.86 361.32,376.11 361.98,373.36 362.67,370.60 363.38,367.82 364.12,365.04 364.89,362.25 365.68,359.44 366.51,356.63 367.36,353.81 368.23,350.98 369.13,348.15 370.07,345.31 371.02,342.46 372.01,339.60 373.02,336.74 374.06,333.87 375.13,331.00 376.23,328.13 377.35,325.24 378.50,322.36 379.68,319.47 380.89,316.58 382.12,313.69 383.38,310.79 384.67,307.89 385.99,305.00 387.34,302.10 388.71,299.20 390.11,296.29 391.54,293.39 393.00,290.50 394.49,287.60 396.00,284.70 397.54,281.81 399.11,278.92 400.71,276.03 402.33,273.14 403.98,270.26 405.66,267.38 407.37,264.51 409.11,261.64 410.87,258.78 412.66,255.92 414.48,253.07 416.32,250.22 418.19,247.39 420.09,244.56 422.02,241.74 423.97,238.92 425.96,236.12 427.96,233.32 430.00,230.53 432.06,227.76 434.15,224.99 436.26,222.23 438.40,219.49 440.57,216.76 442.76,214.03 444.98,211.33 447.23,208.63 449.50,205.95 451.80,203.28 454.12,200.62 456.47,197.98 458.84,195.35 461.24,192.74 463.67,190.14 466.12,187.56 468.59,184.99 471.09,182.44 473.61,179.91 476.16,177.40 478.73,174.90 481.32,172.42 483.94,169.96 486.58,167.52 489.25,165.09 491.94,162.69 494.65,160.30 497.39,157.94 500.14,155.60 502.92,153.27 505.73,150.97 508.55,148.69 511.40,146.43 514.26,144.19 517.15,141.98 520.06,139.78 522.99,137.62 525.95,135.47 528.92,133.35 531.91,131.25 534.92,129.17 537.96,127.12 541.01,125.10 544.08,123.10 547.17,121.13 550.28,119.18 553.41,117.25 556.55,115.36 559.72,113.49 562.90,111.64 566.10,109.83 569.32,108.04 572.55,106.28 575.80,104.54 579.07,102.84 582.36,101.16 585.66,99.51 588.97,97.89 592.30,96.30 595.65,94.74 599.01,93.21 602.39,91.71 605.78,90.24 609.18,88.79 612.60,87.38 616.03,86.00 619.47,84.65 622.93,83.33 626.40,82.04 629.88,80.79 633.38,79.56 636.88,78.37 640.40,77.21 643.93,76.08 647.47,74.98 651.02,73.91 654.57,72.88 658.14,71.88 661.72,70.91 665.31,69.98 668.91,69.08 672.51,68.21 676.12,67.38 679.74,66.57 683.37,65.81 687.01,65.07 690.65,64.37 694.30,63.71 697.96,63.07 701.62,62.48 705.28,61.91 708.96,61.38 712.63,60.89 716.31,60.43 720.00,60.00 "/>
</svg>
