<?xml version="1.0" encoding="UTF-8"?>
<svg xmlns="http://www.w3.org/2000/svg" width="800" height="600">
  <title>X=4*t-3*sin(t);Y=4-3*cos(t):-3,3:</title>
  <rect width="800" height="600" fill="#ffffff"/>
  <g stroke="#d0d0d0" stroke-width="1">
    <line x1="68.30" y1="540.00" x2="68.30" y2="60.00"/>
    <line x1="95.94" y1="540.00" x2="95.94" y2="60.00"/>
    <line x1="123.58" y1="540.00" x2="123.58" y2="60.00"/>
    <line x1="151.22" y1="540.00" x2="151.22" y2="60.00"/>
    <line x1="178.87" y1="540.00" x2="178.87" y2="60.00"/>
    <line x1="206.51" y1="540.00" x2="206.51" y2="60.00"/>
    <line x1="234.15" y1="540.00" x2="234.15" y2="60.00"/>
    <line x1="261.79" y1="540.00" x2="261.79" y2="60.00"/>
    <line x1="289.43" y1="540.00" x2="289.43" y2="60.00"/>
    <line x1="317.07" y1="540.00" x2="317.07" y2="60.00"/>
    <line x1="344.72" y1="540.00" x2="344.72" y2="60.00"/>
    <line x1="372.36" y1="540.00" x2="372.36" y2="60.00"/>
    <line x1="400.00" y1="540.00" x2="400.00" y2="60.00"/>
    <line x1="427.64" y1="540.00" x2="427.64" y2="60.00"/>
    <line x1="455.28" y1="540.00" x2="455.28" y2="60.00"/>
    <line x1="482.93" y1="540.00" x2="482.93" y2="60.00"/>
    <line x1="510.57" y1="540.00" x2="510.57" y2="60.00"/>
    <line x1="538.21" y1="540.00" x2="538.21" y2="60.00"/>
    <line x1="565.85" y1="540.00" x2="565.85" y2="60.00"/>
    <line x1="593.49" y1="540.00" x2="593.49" y2="60.00"/>
    <line x1="621.13" y1="540.00" x2="621.13" y2="60.00"/>
    <line x1="648.78" y1="540.00" x2="648.78" y2="60.00"/>
    <line x1="676.42" y1="540.00" x2="676.42" y2="60.00"/>
    <line x1="704.06" y1="540.00" x2="704.06" y2="60.00"/>
    <line x1="731.70" y1="540.00" x2="731.70" y2="60.00"/>
    <line x1="80.00" y1="540.00" x2="720.00" y2="540.00"/>
    <line x1="80.00" y1="459.60" x2="720.00" y2="459.60"/>
    <line x1="80.00" y1="379.20" x2="720.00" y2="379.20"/>
    <line x1="80.00" y1="298.80" x2="720.00" y2="298.80"/>
    <line x1="80.00" y1="218.39" x2="720.00" y2="218.39"/>
    <line x1="80.00" y1="137.99" x2="720.00" y2="137.99"/>
    <line x1="80.00" y1="57.59" x2="720.00" y2="57.59"/>
  </g>
  <g stroke="#e8e8e8" stroke-width="0.5">
    <line x1="84.88" y1="540.00" x2="84.88" y2="60.00"/>
    <line x1="90.41" y1="540.00" x2="90.41" y2="60.00"/>
    <line x1="101.47" y1="540.00" x2="101.47" y2="60.00"/>
    <line x1="107.00" y1="540.00" x2="107.00" y2="60.00"/>
    <line x1="112.52" y1="540.00" x2="112.52" y2="60.00"/>
    <line x1="118.05" y1="540.00" x2="118.05" y2="60.00"/>
    <line x1="129.11" y1="540.00" x2="129.11" y2="60.00"/>
    <line x1="134.64" y1="540.00" x2="134.64" y2="60.00"/>
    <line x1="140.17" y1="540.00" x2="140.17" y2="60.00"/>
    <line x1="145.69" y1="540.00" x2="145.69" y2="60.00"/>
    <line x1="156.75" y1="540.00" x2="156.75" y2="60.00"/>
    <line x1="162.28" y1="540.00" x2="162.28" y2="60.00"/>
    <line x1="167.81" y1="540.00" x2="167.81" y2="60.00"/>
    <line x1="173.34" y1="540.00" x2="173.34" y2="60.00"/>
    <line x1="184.39" y1="540.00" x2="184.39" y2="60.00"/>
    <line x1="189.92" y1="540.00" x2="189.92" y2="60.00"/>
    <line x1="195.45" y1="540.00" x2="195.45" y2="60.00"/>
    <line x1="200.98" y1="540.00" x2="200.98" y2="60.00"/>
    <line x1="212.04" y1="540.00" x2="212.04" y2="60.00"/>
    <line x1="217.56" y1="540.00" x2="217.56" y2="60.00"/>
    <line x1="223.09" y1="540.00" x2="223.09" y2="60.00"/>
    <line x1="228.62" y1="540.00" x2="228.62" y2="60.00"/>
    <line x1="239.68" y1="540.00" x2="239.68" y2="60.00"/>
    <line x1="245.21" y1="540.00" x2="245.21" y2="60.00"/>
    <line x1="250.73" y1="540.00" x2="250.73" y2="60.00"/>
    <line x1="256.26" y1="540.00" x2="256.26" y2="60.00"/>
    <line x1="267.32" y1="540.00" x2="267.32" y2="60.00"/>
    <line x1="272.85" y1="540.00" x2="272.85" y2="60.00"/>
    <line x1="278.38" y1="540.00" x2="278.38" y2="60.00"/>
    <line x1="283.90" y1="540.00" x2="283.90" y2="60.00"/>
    <line x1="294.96" y1="540.00" x2="294.96" y2="60.00"/>
    <line x1="300.49" y1="540.00" x2="300.49" y2="60.00"/>
    <line x1="306.02" y1="540.00" x2="306.02" y2="60.00"/>
    <line x1="311.55" y1="540.00" x2="311.55" y2="60.00"/>
    <line x1="322.60" y1="540.00" x2="322.60" y2="60.00"/>
    <line x1="328.13" y1="540.00" x2="328.13" y2="60.00"/>
    <line x1="333.66" y1="540.00" x2="333.66" y2="60.00"/>
    <line x1="339.19" y1="540.00" x2="339.19" y2="60.00"/>
    <line x1="350.24" y1="540.00" x2="350.24" y2="60.00"/>
    <line x1="355.77" y1="540.00" x2="355.77" y2="60.00"/>
    <line x1="361.30" y1="540.00" x2="361.30" y2="60.00"/>
    <line x1="366.83" y1="540.00" x2="366.83" y2="60.00"/>
    <line x1="377.89" y1="540.00" x2="377.89" y2="60.00"/>
    <line x1="383.41" y1="540.00" x2="383.41" y2="60.00"/>
    <line x1="388.94" y1="540.00" x2="388.94" y2="60.00"/>
    <line x1="394.47" y1="540.00" x2="394.47" y2="60.00"/>
    <line x1="405.53" y1="540.00" x2="405.53" y2="60.00"/>
    <line x1="411.06" y1="540.00" x2="411.06" y2="60.00"/>
    <line x1="416.59" y1="540.00" x2="416.59" y2="60.00"/>
    <line x1="422.11" y1="540.00" x2="422.11" y2="60.00"/>
    <line x1="433.17" y1="540.00" x2="433.17" y2="60.00"/>
    <line x1="438.70" y1="540.00" x2="438.70" y2="60.00"/>
    <line x1="444.23" y1="540.00" x2="444.23" y2="60.00"/>
    <line x1="449.76" y1="540.00" x2="449.76" y2="60.00"/>
    <line x1="460.81" y1="540.00" x2="460.81" y2="60.00"/>
    <line x1="466.34" y1="540.00" x2="466.34" y2="60.00"/>
    <line x1="471.87" y1="540.00" x2="471.87" y2="60.00"/>
    <line x1="477.40" y1="540.00" x2="477.40" y2="60.00"/>
    <line x1="488.45" y1="540.00" x2="488.45" y2="60.00"/>
    <line x1="493.98" y1="540.00" x2="493.98" y2="60.00"/>
    <line x1="499.51" y1="540.00" x2="499.51" y2="60.00"/>
    <line x1="505.04" y1="540.00" x2="505.04" y2="60.00"/>
    <line x1="516.10" y1="540.00" x2="516.10" y2="60.00"/>
    <line x1="521.62" y1="540.00" x2="521.62" y2="60.00"/>
    <line x1="527.15" y1="540.00" x2="527.15" y2="60.00"/>
    <line x1="532.68" y1="540.00" x2="532.68" y2="60.00"/>
    <line x1="543.74" y1="540.00" x2="543.74" y2="60.00"/>
    <line x1="549.27" y1="540.00" x2="549.27" y2="60.00"/>
    <line x1="554.79" y1="540.00" x2="554.79" y2="60.00"/>
    <line x1="560.32" y1="540.00" x2="560.32" y2="60.00"/>
    <line x1="571.38" y1="540.00" x2="571.38" y2="60.00"/>
    <line x1="576.91" y1="540.00" x2="576.91" y2="60.00"/>
    <line x1="582.44" y1="540.00" x2="582.44" y2="60.00"/>
    <line x1="587.96" y1="540.00" x2="587.96" y2="60.00"/>
    <line x1="599.02" y1="540.00" x2="599.02" y2="60.00"/>
    <line x1="604.55" y1="540.00" x2="604.55" y2="60.00"/>
    <line x1="610.08" y1="540.00" x2="610.08" y2="60.00"/>
    <line x1="615.61" y1="540.00" x2="615.61" y2="60.00"/>
    <line x1="626.66" y1="540.00" x2="626.66" y2="60.00"/>
    <line x1="632.19" y1="540.00" x2="632.19" y2="60.00"/>
    <line x1="637.72" y1="540.00" x2="637.72" y2="60.00"/>
    <line x1="643.25" y1="540.00" x2="643.25" y2="60.00"/>
    <line x1="654.31" y1="540.00" x2="654.31" y2="60.00"/>
    <line x1="659.83" y1="540.00" x2="659.83" y2="60.00"/>
    <line x1="665.36" y1="540.00" x2="665.36" y2="60.00"/>
    <line x1="670.89" y1="540.00" x2="670.89" y2="60.00"/>
    <line x1="681.95" y1="540.00" x2="681.95" y2="60.00"/>
    <line x1="687.48" y1="540.00" x2="687.48" y2="60.00"/>
    <line x1="693.00" y1="540.00" x2="693.00" y2="60.00"/>
    <line x1="698.53" y1="540.00" x2="698.53" y2="60.00"/>
    <line x1="709.59" y1="540.00" x2="709.59" y2="60.00"/>
    <line x1="715.12" y1="540.00" x2="715.12" y2="60.00"/>
    <line x1="80.00" y1="523.92" x2="720.00" y2="523.92"/>
    <line x1="80.00" y1="507.84" x2="720.00" y2="507.84"/>
    <line x1="80.00" y1="491.76" x2="720.00" y2="491.76"/>
    <line x1="80.00" y1="475.68" x2="720.00" y2="475.68"/>
    <line x1="80.00" y1="443.52" x2="720.00" y2="443.52"/>
    <line x1="80.00" y1="427.44" x2="720.00" y2="427.44"/>
    <line x1="80.00" y1="411.36" x2="720.00" y2="411.36"/>
    <line x1="80.00" y1="395.28" x2="720.00" y2="395.28"/>
    <line x1="80.00" y1="363.12" x2="720.00" y2="363.12"/>
    <line x1="80.00" y1="347.04" x2="720.00" y2="347.04"/>
    <line x1="80.00" y1="330.96" x2="720.00" y2="330.96"/>
    <line x1="80.00" y1="314.88" x2="720.00" y2="314.88"/>
    <line x1="80.00" y1="282.71" x2="720.00" y2="282.71"/>
    <line x1="80.00" y1="266.63" x2="720.00" y2="266.63"/>
    <line x1="80.00" y1="250.55" x2="720.00" y2="250.55"/>
    <line x1="80.00" y1="234.47" x2="720.00" y2="234.47"/>
    <line x1="80.00" y1="202.31" x2="720.00" y2="202.31"/>
    <line x1="80.00" y1="186.23" x2="720.00" y2="186.23"/>
    <line x1="80.00" y1="170.15" x2="720.00" y2="170.15"/>
    <line x1="80.00" y1="154.07" x2="720.00" y2="154.07"/>
    <line x1="80.00" y1="121.91" x2="720.00" y2="121.91"/>
    <line x1="80.00" y1="105.83" x2="720.00" y2="105.83"/>
    <line x1="80.00" y1="89.75" x2="720.00" y2="89.75"/>
    <line x1="80.00" y1="73.67" x2="720.00" y2="73.67"/>
  </g>
  <g stroke="#808080" stroke-width="2">
    <line x1="80.00" y1="620.41" x2="720.00" y2="620.41"/>
  </g>
  <polyline fill="none" stroke="#0066cc" stroke-width="2" points="80.00,60.00 82.32,60.43 84.63,60.89 86.94,61.38 89.25,61.91 91.56,62.48 93.86,63.07 96.17,63.71 98.47,64.37 100.76,65.07 103.06,65.81 105.35,66.57 107.64,67.38 109.92,68.21 112.20,69.08 114.48,69.98 116.75,70.91 119.02,71.88 121.29,72.88 123.55,73.91 125.81,74.98 128.06,76.08 130.31,77.21 132.55,78.37 134.79,79.56 137.02,80.79 139.25,82.04 141.47,83.33 143.69,84.65 145.90,86.00 148.11,87.38 150.31,88.79 152.50,90.24 154.69,91.71 156.87,93.21 159.05,94.74 161.22,96.30 163.38,97.89 165.54,99.51 167.69,101.16 169.83,102.84 171.97,104.54 174.10,106.28 176.22,108.04 178.33,109.83 180.44,111.64 182.54,113.49 184.63,115.36 186.71,117.25 188.79,119.18 190.86,121.13 192.92,123.10 194.97,125.10 197.01,127.12 199.05,129.17 201.07,131.25 203.09,133.35 205.10,135.47 207.10,137.62 209.09,139.78 211.07,141.98 213.05,144.19 215.01,146.43 216.97,148.69 218.91,150.97 220.85,153.27 222.77,155.60 224.69,157.94 226.60,160.30 228.49,162.69 230.38,165.09 232.26,167.52 234.13,169.96 235.98,172.42 237.83,174.90 239.67,177.40 241.49,179.91 243.31,182.44 245.11,184.99 246.91,187.56 248.69,190.14 250.46,192.74 252.23,195.35 253.98,197.98 255.72,200.62 257.45,203.28 259.17,205.95 260.88,208.63 262.57,211.33 264.26,214.03 265.93,216.76 267.59,219.49 269.25,222.23 270.89,224.99 272.52,227.76 274.13,230.53 275.74,233.32 277.33,236.12 278.92,238.92 280.49,241.74 282.05,244.56 283.59,247.39 285.13,250.22 286.65,253.07 288.17,255.92 289.67,258.78 291.16,261.64 292.63,264.51 294.10,267.38 295.55,270.26 296.99,273.14 298.42,276.03 299.84,278.92 301.25,281.81 302.64,284.70 304.02,287.60 305.39,290.50 306.75,293.39 308.10,296.29 309.43,299.20 310.75,302.10 312.06,305.00 313.36,307.89 314.65,310.79 315.92,313.69 317.18,316.58 318.43,319.47 319.67,322.36 320.90,325.24 322.11,328.13 323.31,331.00 324.50,333.87 325.68,336.74 326.85,339.60 328.00,342.46 329.15,345.31 330.28,348.15 331.40,350.98 332.50,353.81 333.60,356.63 334.68,359.44 335.76,362.25 336.82,365.04 337.87,367.82 338.91,370.60 339.93,373.36 340.95,376.11 341.95,378.86 342.95,381.59 343.93,384.30 344.90,387.01 345.86,389.70 346.81,392.38 347.74,395.05 348.67,397.70 349.58,400.34 350.49,402.96 351.38,405.57 352.27,408.16 353.14,410.74 354.00,413.30 354.85,415.85 355.69,418.37 356.52,420.88 357.34,423.38 358.15,425.85 358.95,428.31 359.74,430.74 360.52,433.16 361.29,435.56 362.04,437.94 362.79,440.30 363.53,442.64 364.26,444.96 364.98,447.25 365.69,449.53 366.40,451.78 367.09,454.01 367.77,456.22 368.45,458.41 369.11,460.57 369.77,462.71 370.42,464.82 371.05,466.92 371.68,468.98 372.31,471.03 372.92,473.05 373.52,475.04 374.12,477.01 374.71,478.95 375.29,480.86 375.86,482.75 376.43,484.61 376.99,486.45 377.54,488.26 378.08,490.04 378.61,491.79 379.14,493.52 379.66,495.22 380.18,496.89 380.68,498.53 381.19,500.14 381.68,501.72 382.17,503.27 382.65,504.80 383.12,506.29 383.59,507.76 384.05,509.19 384.51,510.59 384.96,511.96 385.41,513.31 385.85,514.62 386.28,515.90 386.71,517.14 387.14,518.36 387.56,519.55 387.97,520.70 388.38,521.82 388.78,522.91 389.19,523.96 389.58,524.99 389.97,525.98 390.36,526.94 390.75,527.86 391.13,528.75 391.51,529.61 391.88,530.44 392.25,531.23 392.62,531.99 392.98,532.71 393.34,533.40 393.70,534.06 394.06,534.68 394.41,535.27 394.76,535.83 395.11,536.35 395.45,536.83 395.80,537.28 396.14,537.70 396.48,538.08 396.82,538.43 397.16,538.75 397.50,539.02 397.83,539.27 398.17,539.48 398.50,539.65 398.84,539.79 399.17,539.90 399.50,539.97 399.83,540.00 400.17,540.00 400.50,539.97 400.83,539.90 401.16,539.79 401.50,539.65 401.83,539.48 402.17,539.27 402.50,539.02 402.84,538.75 403.18,538.43 403.52,538.08 403.86,537.70 404.20,537.28 404.55,536.83 404.89,536.35 405.24,535.83 405.59,535.27 405.94,534.68 406.30,534.06 406.66,533.40 407.02,532.71 407.38,531.99 407.75,531.23 408.12,530.44 408.49,529.61 408.87,528.75 409.25,527.86 409.64,526.94 410.03,525.98 410.42,524.99 410.81,523.96 411.22,522.91 411.62,521.82 412.03,520.70 412.44,519.55 412.86,518.36 413.29,517.14 413.72,515.90 414.15,514.62 414.59,513.31 415.04,511.96 415.49,510.59 415.95,509.19 416.41,507.76 416.88,506.29 417.35,504.80 417.83,503.27 418.32,501.72 418.81,500.14 419.32,498.53 419.82,496.89 420.34,495.22 420.86,493.52 421.39,491.79 421.92,490.04 422.46,488.26 423.01,486.45 423.57,484.61 424.14,482.75 424.71,480.86 425.29,478.95 425.88,477.01 426.48,475.04 427.08,473.05 427.69,471.03 428.32,468.98 428.95,466.92 429.58,464.82 430.23,462.71 430.89,460.57 431.55,458.41 432.23,456.22 432.91,454.01 433.60,451.78 434.31,449.53 435.02,447.25 435.74,444.96 436.47,442.64 437.21,440.30 437.96,437.94 438.71,435.56 439.48,433.16 440.26,430.74 441.05,428.31 441.85,425.85 442.66,423.38 443.48,420.88 444.31,418.37 445.15,415.85 446.00,413.30 446.86,410.74 447.73,408.16 448.62,405.57 449.51,402.96 450.42,400.34 451.33,397.70 452.26,395.05 453.19,392.38 454.14,389.70 455.10,387.01 456.07,384.30 457.05,381.59 458.05,378.86 459.05,376.11 460.07,373.36 461.09,370.60 462.13,367.82 463.18,365.04 464.24,362.25 465.32,359.44 466.40,356.63 467.50,353.81 468.60,350.98 469.72,348.15 470.85,345.31 472.00,342.46 473.15,339.60 474.32,336.74 475.50,333.87 476.69,331.00 477.89,328.13 479.10,325.24 480.33,322.36 481.57,319.47 482.82,316.58 484.08,313.69 485.35,310.79 486.64,307.89 487.94,305.00 489.25,302.10 490.57,299.20 491.90,296.29 493.25,293.39 494.61,290.50 495.98,287.60 497.36,284.70 498.75,281.81 500.16,278.92 501.58,276.03 503.01,273.14 504.45,270.26 505.90,267.38 507.37,264.51 508.84,261.64 510.33,258.78 511.83,255.92 513.35,253.07 514.87,250.22 516.41,247.39 517.95,244.56 519.51,241.74 521.08,238.92 522.67,236.12 524.26,233.32 525.87,230.53 527.48,227.76 529.11,224.99 530.75,222.23 532.41,219.49 534.07,216.76 535.74,214.03 537.43,211.33 539.12,208.63 540.83,205.95 542.55,203.28 544.28,200.62 546.02,197.98 547.77,195.35 549.54,192.74 551.31,190.14 553.09,187.56 554.89,184.99 556.69,182.44 558.51,179.91 560.33,177.40 562.17,174.90 564.02,172.42 565.87,169.96 567.74,167.52 569.62,165.09 571.51,162.69 573.40,160.30 575.31,157.94 577.23,155.60 579.15,153.27 581.09,150.97 583.03,148.69 584.99,146.43 586.95,144.19 588.93,141.98 590.91,139.78 592.90,137.62 594.90,135.47 596.91,133.35 598.93,131.25 600.95,129.17 602.99,127.12 605.03,125.10 607.08,123.10 609.14,121.13 611.21,119.18 613.29,117.25 615.37,115.36 617.46,113.49 619.56,111.64 621.67,109.83 623.78,108.04 625.90,106.28 628.03,104.54 630.17,102.84 632.31,101.16 634.46,99.51 636.62,97.89 638.78,96.30 640.95,94.74 643.13,93.21 645.31,91.71 647.50,90.24 649.69,88.79 651.89,87.38 654.10,86.00 656.31,84.65 658.53,83.33 660.75,82.04 662.98,80.79 665.21,79.56 667.45,78.37 669.69,77.21 671.94,76.08 674.19,74.98 676.45,73.91 678.71,72.88 680.98,71.88 683.25,70.91 685.52,69.98 687.80,69.08 690.08,68.21 692.36,67.38 694.65,66.57 696.94,65.81 699.24,65.07 701.53,64.37 703.83,63.71 706.14,63.07 708.44,62.48 710.75,61.91 713.06,61.38 715.37,60.89 717.68,60.43 720.00,60.00 "/>
</svg>
