<?xml version="1.0" encoding="UTF-8"?>
<svg xmlns="http://www.w3.org/2000/svg" width="800" height="600">
  <title>X=5*cos(t)-cos(5*t);Y=5*sin(t)-sin(5*t)</title>
  <rect width="800" height="600" fill="#ffffff"/>
  <g stroke="#d0d0d0" stroke-width="1">
    <line x1="4.61" y1="540.00" x2="4.61" y2="60.00"/>
    <line x1="104.02" y1="540.00" x2="104.02" y2="60.00"/>
    <line x1="203.44" y1="540.00" x2="203.44" y2="60.00"/>
    <line x1="302.85" y1="540.00" x2="302.85" y2="60.00"/>
    <line x1="402.26" y1="540.00" x2="402.26" y2="60.00"/>
    <line x1="501.68" y1="540.00" x2="501.68" y2="60.00"/>
    <line x1="601.09" y1="540.00" x2="601.09" y2="60.00"/>
    <line x1="700.50" y1="540.00" x2="700.50" y2="60.00"/>
    <line x1="799.92" y1="540.00" x2="799.92" y2="60.00"/>
    <line x1="80.00" y1="540.00" x2="720.00" y2="540.00"/>
    <line x1="80.00" y1="447.62" x2="720.00" y2="447.62"/>
    <line x1="80.00" y1="355.25" x2="720.00" y2="355.25"/>
    <line x1="80.00" y1="262.87" x2="720.00" y2="262.87"/>
    <line x1="80.00" y1="170.49" x2="720.00" y2="170.49"/>
    <line x1="80.00" y1="78.12" x2="720.00" y2="78.12"/>
    <line x1="80.00" y1="-14.26" x2="720.00" y2="-14.26"/>
  </g>
  <g stroke="#e8e8e8" stroke-width="0.5">
    <line x1="84.14" y1="540.00" x2="84.14" y2="60.00"/>
    <line x1="123.91" y1="540.00" x2="123.91" y2="60.00"/>
    <line x1="143.79" y1="540.00" x2="143.79" y2="60.00"/>
    <line x1="163.67" y1="540.00" x2="163.67" y2="60.00"/>
    <line x1="183.55" y1="540.00" x2="183.55" y2="60.00"/>
    <line x1="223.32" y1="540.00" x2="223.32" y2="60.00"/>
    <line x1="243.20" y1="540.00" x2="243.20" y2="60.00"/>
    <line x1="263.09" y1="540.00" x2="263.09" y2="60.00"/>
    <line x1="282.97" y1="540.00" x2="282.97" y2="60.00"/>
    <line x1="322.73" y1="540.00" x2="322.73" y2="60.00"/>
    <line x1="342.62" y1="540.00" x2="342.62" y2="60.00"/>
    <line x1="362.50" y1="540.00" x2="362.50" y2="60.00"/>
    <line x1="382.38" y1="540.00" x2="382.38" y2="60.00"/>
    <line x1="422.15" y1="540.00" x2="422.15" y2="60.00"/>
    <line x1="442.03" y1="540.00" x2="442.03" y2="60.00"/>
    <line x1="461.91" y1="540.00" x2="461.91" y2="60.00"/>
    <line x1="481.79" y1="540.00" x2="481.79" y2="60.00"/>
    <line x1="521.56" y1="540.00" x2="521.56" y2="60.00"/>
    <line x1="541.44" y1="540.00" x2="541.44" y2="60.00"/>
    <line x1="561.32" y1="540.00" x2="561.32" y2="60.00"/>
    <line x1="581.21" y1="540.00" x2="581.21" y2="60.00"/>
    <line x1="620.97" y1="540.00" x2="620.97" y2="60.00"/>
    <line x1="640.85" y1="540.00" x2="640.85" y2="60.00"/>
    <line x1="660.74" y1="540.00" x2="660.74" y2="60.00"/>
    <line x1="680.62" y1="540.00" x2="680.62" y2="60.00"/>
    <line x1="720.39" y1="540.00" x2="720.39" y2="60.00"/>
    <line x1="80.00" y1="521.52" x2="720.00" y2="521.52"/>
    <line x1="80.00" y1="503.05" x2="720.00" y2="503.05"/>
    <line x1="80.00" y1="484.57" x2="720.00" y2="484.57"/>
    <line x1="80.00" y1="466.10" x2="720.00" y2="466.10"/>
    <line x1="80.00" y1="429.15" x2="720.00" y2="429.15"/>
    <line x1="80.00" y1="410.67" x2="720.00" y2="410.67"/>
    <line x1="80.00" y1="392.20" x2="720.00" y2="392.20"/>
    <line x1="80.00" y1="373.72" x2="720.00" y2="373.72"/>
    <line x1="80.00" y1="336.77" x2="720.00" y2="336.77"/>
    <line x1="80.00" y1="318.30" x2="720.00" y2="318.30"/>
    <line x1="80.00" y1="299.82" x2="720.00" y2="299.82"/>
    <line x1="80.00" y1="281.35" x2="720.00" y2="281.35"/>
    <line x1="80.00" y1="244.40" x2="720.00" y2="244.40"/>
    <line x1="80.00" y1="225.92" x2="720.00" y2="225.92"/>
    <line x1="80.00" y1="207.45" x2="720.00" y2="207.45"/>
    <line x1="80.00" y1="188.97" x2="720.00" y2="188.97"/>
    <line x1="80.00" y1="152.02" x2="720.00" y2="152.02"/>
    <line x1="80.00" y1="133.54" x2="720.00" y2="133.54"/>
    <line x1="80.00" y1="115.07" x2="720.00" y2="115.07"/>
    <line x1="80.00" y1="96.59" x2="720.00" y2="96.59"/>
    <line x1="80.00" y1="59.64" x2="720.00" y2="59.64"/>
  </g>
  <g stroke="#808080" stroke-width="2">
    <line x1="203.44" y1="540.00" x2="203.44" y2="60.00"/>
    <line x1="80.00" y1="540.00" x2="720.00" y2="540.00"/>
  </g>
  <polyline fill="none" stroke="#0066cc" stroke-width="2" points="601.09,540.00 601.11,540.00 601.15,540.00 601.23,540.00 601.34,539.99 601.49,539.99 601.66,539.97 601.87,539.96 602.11,539.94 602.38,539.91 602.68,539.88 603.01,539.84 603.38,539.80 603.77,539.74 604.19,539.67 604.65,539.60 605.13,539.52 605.65,539.42 606.19,539.31 606.77,539.19 607.37,539.06 608.00,538.91 608.66,538.75 609.35,538.57 610.07,538.38 610.81,538.17 611.59,537.94 612.38,537.69 613.21,537.43 614.06,537.15 614.93,536.85 615.83,536.53 616.76,536.18 617.71,535.82 618.68,535.44 619.67,535.03 620.69,534.60 621.73,534.14 622.79,533.67 623.88,533.16 624.98,532.64 626.10,532.08 627.25,531.51 628.41,530.90 629.59,530.27 630.78,529.61 632.00,528.92 633.23,528.21 634.47,527.46 635.73,526.69 637.01,525.89 638.30,525.06 639.60,524.19 640.91,523.30 642.24,522.38 643.58,521.42 644.92,520.44 646.28,519.42 647.64,518.37 649.02,517.29 650.40,516.17 651.79,515.02 653.18,513.84 654.58,512.63 655.98,511.38 657.39,510.10 658.80,508.79 660.21,507.44 661.62,506.05 663.03,504.64 664.45,503.18 665.86,501.70 667.27,500.18 668.68,498.62 670.08,497.03 671.48,495.40 672.87,493.74 674.26,492.05 675.65,490.32 677.02,488.55 678.39,486.75 679.75,484.92 681.10,483.05 682.44,481.15 683.76,479.21 685.08,477.24 686.38,475.23 687.67,473.19 688.95,471.11 690.21,469.01 691.45,466.86 692.68,464.69 693.88,462.48 695.08,460.24 696.25,457.96 697.40,455.65 698.53,453.31 699.64,450.94 700.73,448.54 701.80,446.10 702.84,443.64 703.86,441.14 704.85,438.61 705.82,436.05 706.77,433.47 707.68,430.85 708.57,428.21 709.43,425.53 710.26,422.83 711.06,420.10 711.83,417.34 712.57,414.56 713.28,411.75 713.95,408.91 714.60,406.05 715.21,403.17 715.78,400.26 716.33,397.32 716.83,394.37 717.30,391.39 717.74,388.39 718.14,385.36 718.50,382.32 718.82,379.26 719.11,376.17 719.36,373.07 719.56,369.95 719.73,366.81 719.86,363.65 719.95,360.48 719.99,357.29 720.00,354.09 719.96,350.87 719.89,347.63 719.77,344.39 719.60,341.13 719.40,337.86 719.15,334.58 718.85,331.28 718.52,327.98 718.14,324.67 717.71,321.35 717.24,318.03 716.73,314.69 716.17,311.35 715.56,308.01 714.91,304.66 714.21,301.31 713.47,297.95 712.68,294.59 711.85,291.23 710.97,287.87 710.04,284.51 709.07,281.15 708.05,277.79 706.98,274.43 705.87,271.08 704.71,267.73 703.50,264.38 702.25,261.04 700.95,257.71 699.61,254.38 698.22,251.06 696.78,247.75 695.30,244.45 693.77,241.16 692.20,237.87 690.58,234.60 688.92,231.35 687.21,228.10 685.45,224.87 683.65,221.65 681.81,218.45 679.92,215.26 677.99,212.09 676.01,208.94 673.99,205.81 671.93,202.69 669.83,199.60 667.68,196.52 665.49,193.47 663.26,190.43 660.99,187.42 658.67,184.43 656.32,181.47 653.93,178.53 651.49,175.61 649.02,172.72 646.51,169.86 643.96,167.02 641.37,164.21 638.75,161.43 636.09,158.68 633.39,155.96 630.66,153.26 627.89,150.60 625.09,147.97 622.25,145.37 619.38,142.80 616.48,140.26 613.55,137.76 610.58,135.29 607.59,132.85 604.56,130.45 601.51,128.09 598.42,125.76 595.31,123.46 592.17,121.20 589.00,118.98 585.81,116.80 582.59,114.65 579.35,112.55 576.08,110.48 572.80,108.44 569.48,106.45 566.15,104.50 562.80,102.59 559.42,100.71 556.03,98.88 552.61,97.09 549.18,95.34 545.74,93.63 542.27,91.96 538.79,90.33 535.30,88.75 531.79,87.21 528.27,85.70 524.74,84.25 521.20,82.83 517.64,81.46 514.08,80.13 510.50,78.84 506.92,77.59 503.33,76.39 499.74,75.23 496.14,74.12 492.53,73.04 488.92,72.01 485.31,71.03 481.70,70.08 478.08,69.18 474.46,68.32 470.85,67.51 467.23,66.74 463.61,66.01 460.00,65.32 456.39,64.68 452.79,64.08 449.19,63.52 445.60,63.00 442.01,62.53 438.43,62.09 434.86,61.70 431.30,61.35 427.75,61.04 424.20,60.77 420.67,60.54 417.15,60.36 413.65,60.21 410.16,60.10 406.68,60.03 403.22,60.00 399.77,60.01 396.34,60.06 392.92,60.14 389.53,60.26 386.15,60.42 382.79,60.62 379.46,60.85 376.14,61.12 372.84,61.42 369.57,61.76 366.32,62.14 363.09,62.54 359.89,62.98 356.71,63.46 353.55,63.96 350.42,64.50 347.32,65.07 344.24,65.67 341.19,66.30 338.17,66.96 335.18,67.65 332.22,68.37 329.28,69.12 326.38,69.89 323.50,70.69 320.66,71.52 317.84,72.37 315.06,73.25 312.31,74.15 309.60,75.08 306.91,76.03 304.26,77.00 301.64,77.99 299.06,79.00 296.51,80.04 293.99,81.09 291.51,82.16 289.07,83.26 286.66,84.36 284.28,85.49 281.94,86.63 279.64,87.79 277.38,88.96 275.15,90.14 272.95,91.34 270.80,92.55 268.68,93.78 266.59,95.01 264.55,96.26 262.54,97.51 260.57,98.77 258.64,100.05 256.74,101.33 254.88,102.61 253.06,103.90 251.28,105.20 249.53,106.50 247.82,107.81 246.15,109.11 244.52,110.42 242.92,111.74 241.36,113.05 239.84,114.36 238.35,115.68 236.91,116.99 235.49,118.30 234.12,119.60 232.78,120.91 231.48,122.20 230.21,123.50 228.98,124.79 227.78,126.07 226.62,127.34 225.49,128.61 224.40,129.87 223.34,131.12 222.31,132.36 221.32,133.60 220.37,134.82 219.44,136.02 218.55,137.22 217.69,138.40 216.86,139.57 216.06,140.73 215.29,141.87 214.56,143.00 213.85,144.11 213.17,145.20 212.52,146.28 211.90,147.34 211.31,148.38 210.75,149.41 210.21,150.41 209.70,151.40 209.21,152.36 208.75,153.31 208.31,154.23 207.90,155.13 207.51,156.01 207.14,156.87 206.80,157.70 206.48,158.51 206.18,159.30 205.90,160.07 205.63,160.80 205.39,161.52 205.17,162.21 204.96,162.87 204.77,163.51 204.60,164.12 204.44,164.71 204.30,165.26 204.17,165.80 204.05,166.30 203.95,166.78 203.86,167.22 203.78,167.64 203.71,168.04 203.65,168.40 203.60,168.74 203.56,169.04 203.53,169.32 203.50,169.57 203.48,169.79 203.46,169.98 203.45,170.14 203.45,170.27 203.44,170.37 203.44,170.44 203.44,170.48 203.44,170.49 203.44,170.48 203.44,170.43 203.43,170.35 203.43,170.25 203.42,170.11 203.41,169.95 203.39,169.75 203.37,169.53 203.34,169.27 203.31,168.99 203.26,168.68 203.21,168.34 203.15,167.97 203.08,167.57 203.00,167.15 202.91,166.70 202.80,166.21 202.69,165.71 202.55,165.17 202.41,164.61 202.25,164.02 202.07,163.40 201.88,162.76 201.67,162.09 201.44,161.40 201.20,160.68 200.93,159.94 200.65,159.17 200.34,158.38 200.02,157.56 199.67,156.72 199.30,155.86 198.91,154.98 198.49,154.07 198.05,153.14 197.58,152.20 197.09,151.23 196.58,150.24 196.03,149.23 195.46,148.20 194.87,147.16 194.24,146.10 193.59,145.02 192.91,143.92 192.19,142.81 191.45,141.68 190.68,140.53 189.88,139.37 189.04,138.20 188.18,137.01 187.28,135.82 186.35,134.61 185.38,133.38 184.39,132.15 183.36,130.91 182.29,129.66 181.19,128.39 180.06,127.12 178.89,125.85 177.69,124.56 176.45,123.28 175.18,121.98 173.87,120.68 172.52,119.38 171.14,118.07 169.72,116.76 168.27,115.45 166.77,114.14 165.25,112.82 163.68,111.51 162.08,110.20 160.44,108.89 158.76,107.58 157.04,106.28 155.29,104.98 153.50,103.68 151.67,102.39 149.81,101.10 147.91,99.83 145.97,98.56 143.99,97.29 141.98,96.04 139.92,94.80 137.83,93.57 135.71,92.34 133.55,91.14 131.35,89.94 129.11,88.76 126.84,87.59 124.53,86.43 122.18,85.29 119.80,84.17 117.39,83.07 114.94,81.98 112.45,80.91 109.93,79.86 107.37,78.83 104.78,77.82 102.16,76.83 99.50,75.86 96.81,74.92 94.09,74.00 91.34,73.10 88.55,72.22 85.73,71.38 82.88,70.55 80.00,69.76 "/>
</svg>
