<?xml version="1.0" encoding="UTF-8"?>
<svg xmlns="http://www.w3.org/2000/svg" width="800" height="600">
  <title>X=2*cos(t)+cos(2*t);Y=2*sin(t)-sin(2*t)</title>
  <rect width="800" height="600" fill="#ffffff"/>
  <g stroke="#d0d0d0" stroke-width="1">
    <line x1="6.66" y1="540.00" x2="6.66" y2="60.00"/>
    <line x1="149.33" y1="540.00" x2="149.33" y2="60.00"/>
    <line x1="292.00" y1="540.00" x2="292.00" y2="60.00"/>
    <line x1="434.66" y1="540.00" x2="434.66" y2="60.00"/>
    <line x1="577.33" y1="540.00" x2="577.33" y2="60.00"/>
    <line x1="720.00" y1="540.00" x2="720.00" y2="60.00"/>
    <line x1="80.00" y1="540.00" x2="720.00" y2="540.00"/>
    <line x1="80.00" y1="353.62" x2="720.00" y2="353.62"/>
    <line x1="80.00" y1="167.24" x2="720.00" y2="167.24"/>
    <line x1="80.00" y1="-19.14" x2="720.00" y2="-19.14"/>
  </g>
  <g stroke="#e8e8e8" stroke-width="0.5">
    <line x1="92.26" y1="540.00" x2="92.26" y2="60.00"/>
    <line x1="120.79" y1="540.00" x2="120.79" y2="60.00"/>
    <line x1="177.86" y1="540.00" x2="177.86" y2="60.00"/>
    <line x1="206.39" y1="540.00" x2="206.39" y2="60.00"/>
    <line x1="234.93" y1="540.00" x2="234.93" y2="60.00"/>
    <line x1="263.46" y1="540.00" x2="263.46" y2="60.00"/>
    <line x1="320.53" y1="540.00" x2="320.53" y2="60.00"/>
    <line x1="349.06" y1="540.00" x2="349.06" y2="60.00"/>
    <line x1="377.60" y1="540.00" x2="377.60" y2="60.00"/>
    <line x1="406.13" y1="540.00" x2="406.13" y2="60.00"/>
    <line x1="463.20" y1="540.00" x2="463.20" y2="60.00"/>
    <line x1="491.73" y1="540.00" x2="491.73" y2="60.00"/>
    <line x1="520.26" y1="540.00" x2="520.26" y2="60.00"/>
    <line x1="548.80" y1="540.00" x2="548.80" y2="60.00"/>
    <line x1="605.87" y1="540.00" x2="605.87" y2="60.00"/>
    <line x1="634.40" y1="540.00" x2="634.40" y2="60.00"/>
    <line x1="662.93" y1="540.00" x2="662.93" y2="60.00"/>
    <line x1="691.47" y1="540.00" x2="691.47" y2="60.00"/>
    <line x1="80.00" y1="502.72" x2="720.00" y2="502.72"/>
    <line x1="80.00" y1="465.45" x2="720.00" y2="465.45"/>
    <line x1="80.00" y1="428.17" x2="720.00" y2="428.17"/>
    <line x1="80.00" y1="390.90" x2="720.00" y2="390.90"/>
    <line x1="80.00" y1="316.35" x2="720.00" y2="316.35"/>
    <line x1="80.00" y1="279.07" x2="720.00" y2="279.07"/>
    <line x1="80.00" y1="241.79" x2="720.00" y2="241.79"/>
    <line x1="80.00" y1="204.52" x2="720.00" y2="204.52"/>
    <line x1="80.00" y1="129.97" x2="720.00" y2="129.97"/>
    <line x1="80.00" y1="92.69" x2="720.00" y2="92.69"/>
  </g>
  <g stroke="#808080" stroke-width="2">
    <line x1="292.00" y1="540.00" x2="292.00" y2="60.00"/>
    <line x1="80.00" y1="540.00" x2="720.00" y2="540.00"/>
  </g>
  <polyline fill="none" stroke="#0066cc" stroke-width="2" points="720.00,540.00 719.99,540.00 719.97,540.00 719.94,540.00 719.89,540.00 719.83,540.00 719.75,540.00 719.66,540.00 719.56,539.99 719.44,539.99 719.31,539.99 719.17,539.98 719.01,539.98 718.84,539.97 718.65,539.97 718.45,539.96 718.24,539.95 718.02,539.94 717.78,539.93 717.52,539.92 717.25,539.90 716.97,539.89 716.68,539.87 716.37,539.85 716.05,539.83 715.71,539.81 715.36,539.79 715.00,539.76 714.63,539.74 714.24,539.71 713.83,539.68 713.42,539.64 712.99,539.61 712.55,539.57 712.09,539.53 711.62,539.49 711.14,539.44 710.64,539.40 710.13,539.35 709.61,539.29 709.07,539.24 708.52,539.18 707.96,539.12 707.38,539.05 706.79,538.99 706.19,538.92 705.57,538.84 704.95,538.77 704.30,538.69 703.65,538.60 702.98,538.51 702.30,538.42 701.61,538.33 700.90,538.23 700.18,538.13 699.45,538.03 698.71,537.92 697.95,537.81 697.18,537.69 696.40,537.57 695.60,537.45 694.80,537.32 693.98,537.18 693.14,537.05 692.30,536.91 691.44,536.76 690.57,536.61 689.69,536.46 688.79,536.30 687.89,536.13 686.97,535.96 686.04,535.79 685.09,535.61 684.14,535.43 683.17,535.24 682.19,535.05 681.20,534.85 680.19,534.65 679.18,534.44 678.15,534.23 677.11,534.01 676.06,533.79 675.00,533.56 673.93,533.33 672.84,533.09 671.75,532.84 670.64,532.59 669.52,532.34 668.39,532.07 667.24,531.81 666.09,531.53 664.93,531.25 663.75,530.97 662.56,530.68 661.37,530.38 660.16,530.08 658.94,529.77 657.71,529.46 656.47,529.13 655.21,528.81 653.95,528.47 652.68,528.13 651.40,527.79 650.10,527.44 648.80,527.08 647.48,526.71 646.16,526.34 644.82,525.96 643.48,525.58 642.12,525.19 640.75,524.79 639.38,524.38 637.99,523.97 636.60,523.55 635.19,523.13 633.78,522.70 632.35,522.26 630.92,521.81 629.47,521.36 628.02,520.90 626.56,520.44 625.09,519.96 623.61,519.48 622.12,518.99 620.62,518.50 619.11,518.00 617.59,517.49 616.06,516.97 614.53,516.45 612.99,515.92 611.43,515.38 609.87,514.83 608.30,514.28 606.72,513.72 605.14,513.15 603.54,512.57 601.94,511.99 600.33,511.40 598.71,510.80 597.08,510.20 595.45,509.58 593.80,508.96 592.15,508.33 590.50,507.70 588.83,507.05 587.16,506.40 585.47,505.74 583.79,505.08 582.09,504.40 580.39,503.72 578.68,503.03 576.96,502.33 575.24,501.63 573.50,500.91 571.77,500.19 570.02,499.46 568.27,498.72 566.51,497.98 564.75,497.23 562.98,496.47 561.20,495.70 559.41,494.92 557.62,494.14 555.83,493.34 554.03,492.54 552.22,491.74 550.40,490.92 548.58,490.10 546.76,489.26 544.93,488.42 543.09,487.58 541.25,486.72 539.40,485.86 537.55,484.99 535.69,484.11 533.83,483.22 531.96,482.32 530.09,481.42 528.21,480.51 526.33,479.59 524.44,478.66 522.55,477.73 520.65,476.78 518.75,475.83 516.85,474.87 514.94,473.91 513.02,472.93 511.11,471.95 509.18,470.96 507.26,469.96 505.33,468.95 503.39,467.94 501.46,466.92 499.52,465.89 497.57,464.85 495.63,463.81 493.67,462.75 491.72,461.69 489.76,460.62 487.80,459.55 485.84,458.46 483.87,457.37 481.90,456.27 479.93,455.17 477.96,454.05 475.98,452.93 474.00,451.80 472.02,450.67 470.04,449.52 468.05,448.37 466.06,447.21 464.07,446.04 462.08,444.87 460.09,443.69 458.09,442.50 456.09,441.30 454.09,440.10 452.09,438.89 450.09,437.67 448.09,436.44 446.08,435.21 444.08,433.97 442.07,432.72 440.06,431.47 438.05,430.21 436.04,428.94 434.03,427.67 432.02,426.39 430.01,425.10 428.00,423.80 425.99,422.50 423.98,421.19 421.96,419.87 419.95,418.55 417.94,417.22 415.92,415.89 413.91,414.55 411.90,413.20 409.89,411.84 407.87,410.48 405.86,409.11 403.85,407.74 401.84,406.36 399.83,404.97 397.82,403.58 395.82,402.18 393.81,400.77 391.80,399.36 389.80,397.95 387.79,396.52 385.79,395.09 383.79,393.66 381.79,392.22 379.79,390.77 377.80,389.32 375.80,387.86 373.81,386.40 371.82,384.93 369.83,383.46 367.84,381.98 365.86,380.49 363.88,379.00 361.90,377.51 359.92,376.01 357.94,374.50 355.97,372.99 354.00,371.48 352.03,369.96 350.07,368.43 348.10,366.90 346.14,365.37 344.19,363.83 342.24,362.28 340.28,360.73 338.34,359.18 336.39,357.63 334.45,356.06 332.52,354.50 330.58,352.93 328.65,351.35 326.73,349.78 324.81,348.19 322.89,346.61 320.97,345.02 319.06,343.43 317.15,341.83 315.25,340.23 313.35,338.62 311.46,337.02 309.57,335.40 307.68,333.79 305.80,332.17 303.93,330.55 302.05,328.93 300.19,327.30 298.32,325.67 296.47,324.04 294.61,322.40 292.77,320.76 290.92,319.12 289.08,317.48 287.25,315.84 285.42,314.19 283.60,312.54 281.79,310.88 279.97,309.23 278.17,307.57 276.37,305.91 274.57,304.25 272.78,302.59 271.00,300.93 269.22,299.26 267.45,297.59 265.68,295.92 263.92,294.25 262.17,292.58 260.42,290.91 258.68,289.23 256.94,287.56 255.22,285.88 253.49,284.21 251.78,282.53 250.07,280.85 248.36,279.17 246.66,277.49 244.97,275.81 243.29,274.13 241.61,272.45 239.94,270.77 238.28,269.09 236.62,267.41 234.97,265.73 233.33,264.05 231.69,262.37 230.07,260.69 228.44,259.01 226.83,257.33 225.22,255.65 223.62,253.97 222.03,252.30 220.45,250.62 218.87,248.95 217.30,247.27 215.74,245.60 214.18,243.93 212.63,242.26 211.09,240.59 209.56,238.93 208.04,237.26 206.52,235.60 205.01,233.94 203.51,232.28 202.02,230.62 200.54,228.97 199.06,227.31 197.59,225.66 196.13,224.01 194.68,222.37 193.23,220.73 191.80,219.09 190.37,217.45 188.95,215.81 187.54,214.18 186.14,212.55 184.74,210.93 183.35,209.31 181.98,207.69 180.61,206.07 179.25,204.46 177.90,202.85 176.55,201.25 175.22,199.65 173.89,198.05 172.57,196.46 171.27,194.87 169.97,193.29 168.67,191.71 167.39,190.14 166.12,188.57 164.85,187.00 163.60,185.44 162.35,183.88 161.11,182.33 159.88,180.79 158.66,179.24 157.45,177.71 156.25,176.18 155.06,174.65 153.87,173.13 152.70,171.62 151.53,170.11 150.38,168.61 149.23,167.11 148.09,165.62 146.96,164.14 145.84,162.66 144.73,161.19 143.63,159.72 142.54,158.26 141.45,156.81 140.38,155.37 139.32,153.93 138.26,152.49 137.22,151.07 136.18,149.65 135.15,148.24 134.14,146.84 133.13,145.44 132.13,144.05 131.14,142.67 130.16,141.29 129.19,139.93 128.23,138.57 127.27,137.22 126.33,135.88 125.40,134.54 124.48,133.22 123.56,131.90 122.66,130.59 121.76,129.29 120.88,127.99 120.00,126.71 119.13,125.43 118.27,124.17 117.43,122.91 116.59,121.66 115.76,120.42 114.94,119.19 114.13,117.97 113.33,116.76 112.54,115.55 111.76,114.36 110.98,113.18 110.22,112.00 109.47,110.84 108.72,109.69 107.99,108.54 107.26,107.41 106.55,106.28 105.84,105.17 105.14,104.07 104.45,102.97 103.78,101.89 103.11,100.82 102.45,99.76 101.80,98.71 101.16,97.67 100.52,96.64 99.90,95.62 99.29,94.61 98.68,93.62 98.09,92.63 97.50,91.66 96.93,90.70 96.36,89.75 95.80,88.81 95.25,87.88 94.72,86.97 94.18,86.06 93.66,85.17 93.15,84.29 92.65,83.42 92.15,82.56 91.67,81.72 91.19,80.89 90.73,80.07 90.27,79.26 89.82,78.47 89.38,77.68 88.95,76.91 88.52,76.16 88.11,75.41 87.71,74.68 87.31,73.96 86.92,73.26 86.54,72.56 86.17,71.88 85.81,71.22 85.46,70.56 85.12,69.92 84.78,69.30 84.45,68.68 84.14,68.08 83.83,67.50 83.53,66.92 83.23,66.36 82.95,65.82 82.67,65.29 82.40,64.77 82.15,64.26 81.89,63.77 81.65,63.30 81.42,62.84 81.19,62.39 80.97,61.95 80.76,61.53 80.56,61.13 80.36,60.74 80.18,60.36 80.00,60.00 "/>
</svg>
