<?xml version="1.0" encoding="UTF-8"?>
<svg xmlns="http://www.w3.org/2000/svg" width="800" height="600">
  <title>X=cos(t)*cos(t)*cos(t);Y=sin(t)*sin(t)*sin(t)</title>
  <rect width="800" height="600" fill="#ffffff"/>
  <g stroke="#d0d0d0" stroke-width="1">
    <line x1="-473.95" y1="540.00" x2="-473.95" y2="60.00"/>
    <line x1="123.02" y1="540.00" x2="123.02" y2="60.00"/>
    <line x1="720.00" y1="540.00" x2="720.00" y2="60.00"/>
    <line x1="80.00" y1="540.00" x2="720.00" y2="540.00"/>
    <line x1="80.00" y1="60.00" x2="720.00" y2="60.00"/>
  </g>
  <g stroke="#e8e8e8" stroke-width="0.5">
    <line x1="242.42" y1="540.00" x2="242.42" y2="60.00"/>
    <line x1="361.81" y1="540.00" x2="361.81" y2="60.00"/>
    <line x1="481.21" y1="540.00" x2="481.21" y2="60.00"/>
    <line x1="600.60" y1="540.00" x2="600.60" y2="60.00"/>
    <line x1="80.00" y1="444.00" x2="720.00" y2="444.00"/>
    <line x1="80.00" y1="348.00" x2="720.00" y2="348.00"/>
    <line x1="80.00" y1="252.00" x2="720.00" y2="252.00"/>
    <line x1="80.00" y1="156.00" x2="720.00" y2="156.00"/>
  </g>
  <g stroke="#808080" stroke-width="2">
    <line x1="123.02" y1="540.00" x2="123.02" y2="60.00"/>
    <line x1="80.00" y1="540.00" x2="720.00" y2="540.00"/>
  </g>
  <polyline fill="none" stroke="#0066cc" stroke-width="2" points="720.00,540.00 719.99,540.00 719.94,540.00 719.87,540.00 719.77,540.00 719.64,540.00 719.48,539.99 719.30,539.99 719.08,539.98 718.84,539.98 718.56,539.97 718.26,539.96 717.93,539.95 717.57,539.93 717.19,539.92 716.77,539.90 716.33,539.87 715.85,539.85 715.35,539.82 714.82,539.79 714.27,539.75 713.68,539.71 713.07,539.67 712.43,539.63 711.76,539.57 711.06,539.52 710.34,539.46 709.58,539.40 708.80,539.33 708.00,539.25 707.16,539.17 706.30,539.09 705.41,539.00 704.49,538.90 703.55,538.80 702.58,538.69 701.58,538.57 700.56,538.45 699.51,538.32 698.43,538.19 697.33,538.05 696.20,537.90 695.04,537.74 693.86,537.58 692.65,537.41 691.42,537.23 690.16,537.04 688.87,536.85 687.57,536.64 686.23,536.43 684.87,536.21 683.49,535.99 682.08,535.75 680.64,535.50 679.18,535.25 677.70,534.98 676.20,534.71 674.66,534.42 673.11,534.13 671.53,533.83 669.93,533.52 668.31,533.19 666.66,532.86 664.99,532.52 663.30,532.16 661.58,531.80 659.85,531.42 658.09,531.03 656.30,530.64 654.50,530.23 652.68,529.81 650.83,529.38 648.96,528.94 647.08,528.48 645.17,528.02 643.24,527.54 641.29,527.05 639.32,526.55 637.33,526.04 635.32,525.51 633.30,524.97 631.25,524.42 629.18,523.86 627.10,523.28 624.99,522.70 622.87,522.09 620.73,521.48 618.58,520.85 616.40,520.21 614.21,519.56 612.00,518.90 609.77,518.22 607.53,517.52 605.27,516.82 602.99,516.10 600.70,515.36 598.40,514.62 596.07,513.86 593.74,513.08 591.38,512.29 589.02,511.49 586.64,510.68 584.24,509.85 581.83,509.00 579.41,508.14 576.97,507.27 574.52,506.39 572.06,505.49 569.58,504.57 567.10,503.64 564.60,502.70 562.09,501.74 559.56,500.77 557.03,499.78 554.48,498.78 551.93,497.77 549.36,496.74 546.79,495.69 544.20,494.63 541.60,493.56 539.00,492.47 536.38,491.37 533.76,490.25 531.13,489.12 528.49,487.98 525.84,486.81 523.18,485.64 520.52,484.45 517.85,483.25 515.17,482.03 512.49,480.79 509.80,479.55 507.10,478.28 504.40,477.01 501.69,475.72 498.97,474.41 496.25,473.09 493.53,471.76 490.80,470.41 488.07,469.05 485.33,467.67 482.59,466.28 479.85,464.88 477.11,463.46 474.36,462.02 471.60,460.58 468.85,459.12 466.09,457.64 463.34,456.15 460.58,454.65 457.82,453.13 455.05,451.60 452.29,450.06 449.53,448.50 446.77,446.93 444.00,445.35 441.24,443.76 438.48,442.15 435.72,440.52 432.96,438.89 430.20,437.24 427.44,435.58 424.69,433.90 421.94,432.22 419.19,430.52 416.44,428.80 413.70,427.08 410.96,425.34 408.22,423.60 405.48,421.83 402.76,420.06 400.03,418.28 397.31,416.48 394.59,414.67 391.88,412.86 389.18,411.02 386.48,409.18 383.78,407.33 381.09,405.47 378.41,403.59 375.73,401.71 373.06,399.81 370.40,397.91 367.75,395.99 365.10,394.06 362.46,392.13 359.82,390.18 357.20,388.22 354.58,386.26 351.98,384.28 349.38,382.30 346.79,380.31 344.21,378.30 341.63,376.29 339.07,374.27 336.52,372.24 333.98,370.21 331.44,368.16 328.92,366.11 326.41,364.05 323.91,361.98 321.42,359.90 318.94,357.82 316.48,355.73 314.02,353.63 311.58,351.53 309.14,349.42 306.72,347.30 304.32,345.18 301.92,343.05 299.54,340.91 297.17,338.77 294.81,336.62 292.47,334.47 290.14,332.31 287.82,330.15 285.52,327.98 283.23,325.81 280.96,323.64 278.70,321.46 276.45,319.27 274.22,317.08 272.00,314.89 269.80,312.70 267.61,310.50 265.43,308.30 263.28,306.09 261.13,303.89 259.01,301.68 256.89,299.47 254.80,297.25 252.72,295.04 250.65,292.82 248.60,290.60 246.57,288.38 244.55,286.16 242.55,283.94 240.57,281.72 238.60,279.50 236.65,277.28 234.71,275.06 232.80,272.84 230.89,270.62 229.01,268.40 227.14,266.18 225.29,263.96 223.46,261.75 221.65,259.53 219.85,257.32 218.07,255.11 216.30,252.90 214.56,250.70 212.83,248.49 211.12,246.29 209.43,244.10 207.75,241.90 206.09,239.71 204.45,237.53 202.83,235.35 201.23,233.17 199.64,231.00 198.07,228.83 196.52,226.66 194.99,224.51 193.48,222.35 191.98,220.21 190.50,218.07 189.04,215.93 187.60,213.80 186.18,211.68 184.77,209.56 183.39,207.45 182.02,205.35 180.66,203.26 179.33,201.17 178.02,199.09 176.72,197.02 175.44,194.96 174.18,192.91 172.93,190.86 171.71,188.82 170.50,186.80 169.31,184.78 168.14,182.77 166.99,180.77 165.85,178.78 164.73,176.80 163.63,174.83 162.55,172.87 161.48,170.93 160.43,168.99 159.40,167.07 158.39,165.15 157.39,163.25 156.42,161.36 155.45,159.48 154.51,157.61 153.58,155.76 152.67,153.92 151.78,152.09 150.90,150.28 150.04,148.47 149.20,146.68 148.37,144.91 147.56,143.15 146.77,141.40 145.99,139.67 145.23,137.95 144.48,136.24 143.75,134.55 143.04,132.88 142.34,131.22 141.65,129.57 140.99,127.94 140.33,126.33 139.70,124.73 139.08,123.15 138.47,121.58 137.88,120.04 137.30,118.50 136.73,116.99 136.19,115.49 135.65,114.00 135.13,112.54 134.62,111.09 134.13,109.66 133.65,108.25 133.19,106.85 132.73,105.47 132.29,104.11 131.87,102.77 131.45,101.45 131.05,100.15 130.67,98.86 130.29,97.59 129.93,96.34 129.57,95.12 129.23,93.91 128.91,92.72 128.59,91.55 128.29,90.39 127.99,89.26 127.71,88.15 127.44,87.06 127.17,85.99 126.92,84.94 126.68,83.91 126.45,82.89 126.23,81.90 126.02,80.94 125.81,79.99 125.62,79.06 125.44,78.15 125.26,77.27 125.09,76.40 124.93,75.56 124.78,74.74 124.64,73.94 124.51,73.16 124.38,72.40 124.26,71.67 124.15,70.95 124.04,70.26 123.95,69.59 123.85,68.95 123.77,68.32 123.69,67.72 123.61,67.14 123.55,66.58 123.48,66.04 123.43,65.53 123.37,65.04 123.33,64.57 123.28,64.12 123.24,63.70 123.21,63.30 123.18,62.92 123.15,62.57 123.13,62.23 123.11,61.93 123.09,61.64 123.07,61.38 123.06,61.14 123.05,60.92 123.04,60.72 123.04,60.55 123.03,60.40 123.03,60.28 123.02,60.18 123.02,60.10 123.02,60.04 123.02,60.01 123.02,60.00 123.02,60.01 123.02,60.05 123.02,60.11 123.02,60.19 123.02,60.30 123.01,60.43 123.01,60.58 123.00,60.76 122.99,60.95 122.98,61.18 122.97,61.42 122.95,61.69 122.94,61.98 122.92,62.29 122.89,62.63 122.86,62.99 122.83,63.37 122.80,63.77 122.76,64.20 122.71,64.65 122.66,65.12 122.61,65.62 122.55,66.13 122.49,66.67 122.42,67.24 122.34,67.82 122.26,68.43 122.18,69.06 122.08,69.71 121.98,70.38 121.88,71.08 121.76,71.79 121.64,72.53 121.51,73.29 121.38,74.08 121.24,74.88 121.08,75.70 120.92,76.55 120.76,77.42 120.58,78.31 120.39,79.22 120.20,80.15 119.99,81.10 119.78,82.07 119.56,83.07 119.32,84.08 119.08,85.12 118.83,86.17 118.56,87.25 118.29,88.34 118.00,89.46 117.71,90.59 117.40,91.75 117.08,92.92 116.75,94.11 116.41,95.33 116.06,96.56 115.69,97.81 115.31,99.08 114.92,100.37 114.52,101.68 114.10,103.00 113.68,104.35 113.23,105.71 112.78,107.09 112.31,108.49 111.83,109.90 111.34,111.34 110.83,112.79 110.30,114.26 109.77,115.74 109.21,117.25 108.65,118.77 108.07,120.30 107.47,121.85 106.86,123.42 106.24,125.01 105.60,126.61 104.94,128.22 104.27,129.86 103.59,131.50 102.89,133.17 102.17,134.84 101.44,136.54 100.69,138.24 99.92,139.96 99.14,141.70 98.35,143.45 97.53,145.21 96.70,146.99 95.86,148.78 94.99,150.59 94.11,152.41 93.22,154.24 92.30,156.08 91.37,157.94 90.43,159.80 89.46,161.68 88.48,163.58 87.48,165.48 86.46,167.40 85.43,169.32 84.38,171.26 83.31,173.21 82.23,175.17 81.12,177.14 80.00,179.12 "/>
</svg>
