<?xml version="1.0" encoding="UTF-8"?>
<svg xmlns="http://www.w3.org/2000/svg" width="800" height="600">
  <title>X=5*cos(t)+5*t*sin(t);Y=5*sin(t)-5*t*cos(t)</title>
  <rect width="800" height="600" fill="#ffffff"/>
  <g stroke="#d0d0d0" stroke-width="1">
    <line x1="80.00" y1="540.00" x2="80.00" y2="60.00"/>
    <line x1="304.25" y1="540.00" x2="304.25" y2="60.00"/>
    <line x1="528.50" y1="540.00" x2="528.50" y2="60.00"/>
    <line x1="752.74" y1="540.00" x2="752.74" y2="60.00"/>
    <line x1="80.00" y1="540.00" x2="720.00" y2="540.00"/>
    <line x1="80.00" y1="484.88" x2="720.00" y2="484.88"/>
    <line x1="80.00" y1="429.76" x2="720.00" y2="429.76"/>
    <line x1="80.00" y1="374.63" x2="720.00" y2="374.63"/>
    <line x1="80.00" y1="319.51" x2="720.00" y2="319.51"/>
    <line x1="80.00" y1="264.39" x2="720.00" y2="264.39"/>
    <line x1="80.00" y1="209.27" x2="720.00" y2="209.27"/>
    <line x1="80.00" y1="154.15" x2="720.00" y2="154.15"/>
    <line x1="80.00" y1="99.02" x2="720.00" y2="99.02"/>
    <line x1="80.00" y1="43.90" x2="720.00" y2="43.90"/>
  </g>
  <g stroke="#e8e8e8" stroke-width="0.5">
    <line x1="124.85" y1="540.00" x2="124.85" y2="60.00"/>
    <line x1="169.70" y1="540.00" x2="169.70" y2="60.00"/>
    <line x1="214.55" y1="540.00" x2="214.55" y2="60.00"/>
    <line x1="259.40" y1="540.00" x2="259.40" y2="60.00"/>
    <line x1="349.10" y1="540.00" x2="349.10" y2="60.00"/>
    <line x1="393.95" y1="540.00" x2="393.95" y2="60.00"/>
    <line x1="438.80" y1="540.00" x2="438.80" y2="60.00"/>
    <line x1="483.65" y1="540.00" x2="483.65" y2="60.00"/>
    <line x1="573.35" y1="540.00" x2="573.35" y2="60.00"/>
    <line x1="618.20" y1="540.00" x2="618.20" y2="60.00"/>
    <line x1="663.05" y1="540.00" x2="663.05" y2="60.00"/>
    <line x1="707.89" y1="540.00" x2="707.89" y2="60.00"/>
    <line x1="80.00" y1="528.98" x2="720.00" y2="528.98"/>
    <line x1="80.00" y1="517.95" x2="720.00" y2="517.95"/>
    <line x1="80.00" y1="506.93" x2="720.00" y2="506.93"/>
    <line x1="80.00" y1="495.90" x2="720.00" y2="495.90"/>
    <line x1="80.00" y1="473.85" x2="720.00" y2="473.85"/>
    <line x1="80.00" y1="462.83" x2="720.00" y2="462.83"/>
    <line x1="80.00" y1="451.80" x2="720.00" y2="451.80"/>
    <line x1="80.00" y1="440.78" x2="720.00" y2="440.78"/>
    <line x1="80.00" y1="418.73" x2="720.00" y2="418.73"/>
    <line x1="80.00" y1="407.71" x2="720.00" y2="407.71"/>
    <line x1="80.00" y1="396.68" x2="720.00" y2="396.68"/>
    <line x1="80.00" y1="385.66" x2="720.00" y2="385.66"/>
    <line x1="80.00" y1="363.61" x2="720.00" y2="363.61"/>
    <line x1="80.00" y1="352.59" x2="720.00" y2="352.59"/>
    <line x1="80.00" y1="341.56" x2="720.00" y2="341.56"/>
    <line x1="80.00" y1="330.54" x2="720.00" y2="330.54"/>
    <line x1="80.00" y1="308.49" x2="720.00" y2="308.49"/>
    <line x1="80.00" y1="297.46" x2="720.00" y2="297.46"/>
    <line x1="80.00" y1="286.44" x2="720.00" y2="286.44"/>
    <line x1="80.00" y1="275.41" x2="720.00" y2="275.41"/>
    <line x1="80.00" y1="253.37" x2="720.00" y2="253.37"/>
    <line x1="80.00" y1="242.34" x2="720.00" y2="242.34"/>
    <line x1="80.00" y1="231.32" x2="720.00" y2="231.32"/>
    <line x1="80.00" y1="220.29" x2="720.00" y2="220.29"/>
    <line x1="80.00" y1="198.24" x2="720.00" y2="198.24"/>
    <line x1="80.00" y1="187.22" x2="720.00" y2="187.22"/>
    <line x1="80.00" y1="176.19" x2="720.00" y2="176.19"/>
    <line x1="80.00" y1="165.17" x2="720.00" y2="165.17"/>
    <line x1="80.00" y1="143.12" x2="720.00" y2="143.12"/>
    <line x1="80.00" y1="132.10" x2="720.00" y2="132.10"/>
    <line x1="80.00" y1="121.07" x2="720.00" y2="121.07"/>
    <line x1="80.00" y1="110.05" x2="720.00" y2="110.05"/>
    <line x1="80.00" y1="88.00" x2="720.00" y2="88.00"/>
    <line x1="80.00" y1="76.98" x2="720.00" y2="76.98"/>
    <line x1="80.00" y1="65.95" x2="720.00" y2="65.95"/>
  </g>
  <g stroke="#808080" stroke-width="2">
    <line x1="-1041.24" y1="540.00" x2="-1041.24" y2="60.00"/>
  </g>
  <polyline fill="none" stroke="#0066cc" stroke-width="2" points="80.00,540.00 80.01,540.00 80.04,540.00 80.08,540.00 80.14,540.00 80.23,540.00 80.32,540.00 80.44,540.00 80.58,540.00 80.73,540.00 80.90,539.99 81.09,539.99 81.30,539.99 81.52,539.99 81.76,539.98 82.02,539.98 82.30,539.98 82.60,539.97 82.91,539.97 83.25,539.96 83.60,539.95 83.96,539.95 84.35,539.94 84.75,539.93 85.18,539.92 85.61,539.91 86.07,539.90 86.55,539.88 87.04,539.87 87.55,539.86 88.08,539.84 88.62,539.82 89.18,539.81 89.76,539.79 90.36,539.77 90.98,539.75 91.61,539.72 92.26,539.70 92.93,539.68 93.61,539.65 94.32,539.62 95.04,539.59 95.77,539.56 96.53,539.53 97.30,539.50 98.09,539.46 98.89,539.43 99.72,539.39 100.56,539.35 101.42,539.31 102.29,539.26 103.18,539.22 104.09,539.17 105.01,539.12 105.95,539.07 106.91,539.02 107.89,538.97 108.88,538.91 109.89,538.85 110.91,538.79 111.95,538.73 113.01,538.67 114.09,538.60 115.18,538.53 116.28,538.46 117.41,538.39 118.55,538.31 119.70,538.23 120.87,538.15 122.06,538.07 123.26,537.99 124.48,537.90 125.72,537.81 126.97,537.72 128.24,537.62 129.52,537.53 130.82,537.43 132.13,537.33 133.46,537.22 134.80,537.11 136.16,537.00 137.54,536.89 138.93,536.77 140.34,536.66 141.76,536.53 143.19,536.41 144.64,536.28 146.11,536.15 147.59,536.02 149.08,535.88 150.59,535.74 152.12,535.60 153.65,535.46 155.21,535.31 156.77,535.16 158.36,535.00 159.95,534.84 161.56,534.68 163.19,534.52 164.82,534.35 166.47,534.18 168.14,534.00 169.82,533.83 171.51,533.65 173.22,533.46 174.94,533.27 176.67,533.08 178.42,532.89 180.18,532.69 181.95,532.48 183.73,532.28 185.53,532.07 187.34,531.86 189.17,531.64 191.00,531.42 192.85,531.19 194.71,530.97 196.59,530.73 198.47,530.50 200.37,530.26 202.28,530.01 204.20,529.77 206.14,529.51 208.08,529.26 210.04,529.00 212.01,528.73 213.99,528.47 215.98,528.19 217.99,527.92 220.00,527.64 222.02,527.35 224.06,527.07 226.11,526.77 228.17,526.48 230.23,526.17 232.31,525.87 234.40,525.56 236.50,525.24 238.61,524.93 240.73,524.60 242.86,524.27 245.00,523.94 247.15,523.61 249.31,523.26 251.48,522.92 253.66,522.57 255.85,522.21 258.04,521.85 260.25,521.49 262.46,521.12 264.69,520.75 266.92,520.37 269.16,519.99 271.41,519.60 273.67,519.21 275.93,518.81 278.21,518.41 280.49,518.00 282.78,517.59 285.08,517.17 287.38,516.75 289.70,516.33 292.02,515.90 294.35,515.46 296.68,515.02 299.02,514.57 301.37,514.12 303.73,513.67 306.09,513.20 308.46,512.74 310.83,512.27 313.21,511.79 315.60,511.31 318.00,510.82 320.39,510.33 322.80,509.83 325.21,509.33 327.63,508.82 330.05,508.31 332.48,507.79 334.91,507.27 337.34,506.74 339.79,506.20 342.23,505.66 344.68,505.12 347.14,504.57 349.60,504.01 352.06,503.45 354.53,502.88 357.00,502.31 359.48,501.73 361.95,501.15 364.44,500.56 366.92,499.97 369.41,499.37 371.90,498.76 374.40,498.15 376.89,497.53 379.39,496.91 381.90,496.28 384.40,495.65 386.91,495.01 389.42,494.37 391.93,493.72 394.44,493.06 396.95,492.40 399.47,491.73 401.98,491.06 404.50,490.38 407.02,489.69 409.54,489.00 412.06,488.31 414.58,487.61 417.10,486.90 419.62,486.18 422.15,485.46 424.67,484.74 427.19,484.01 429.71,483.27 432.23,482.53 434.75,481.78 437.27,481.02 439.79,480.26 442.30,479.50 444.82,478.72 447.33,477.95 449.85,477.16 452.36,476.37 454.87,475.57 457.37,474.77 459.88,473.96 462.38,473.15 464.88,472.33 467.38,471.50 469.87,470.67 472.36,469.83 474.85,468.99 477.34,468.14 479.82,467.28 482.30,466.42 484.77,465.55 487.24,464.68 489.71,463.79 492.17,462.91 494.63,462.01 497.08,461.12 499.53,460.21 501.97,459.30 504.41,458.38 506.85,457.46 509.27,456.53 511.70,455.59 514.11,454.65 516.52,453.70 518.93,452.75 521.33,451.79 523.72,450.82 526.11,449.85 528.49,448.87 530.86,447.89 533.22,446.90 535.58,445.90 537.93,444.90 540.28,443.89 542.61,442.87 544.94,441.85 547.26,440.82 549.58,439.79 551.88,438.75 554.18,437.70 556.46,436.65 558.74,435.59 561.01,434.53 563.27,433.46 565.52,432.38 567.77,431.29 570.00,430.21 572.22,429.11 574.43,428.01 576.64,426.90 578.83,425.79 581.01,424.67 583.18,423.54 585.34,422.41 587.49,421.27 589.63,420.12 591.76,418.97 593.87,417.82 595.98,416.65 598.07,415.48 600.15,414.31 602.22,413.13 604.28,411.94 606.32,410.75 608.35,409.55 610.37,408.34 612.38,407.13 614.37,405.91 616.35,404.69 618.32,403.46 620.27,402.22 622.21,400.98 624.13,399.73 626.04,398.48 627.94,397.22 629.82,395.95 631.69,394.68 633.54,393.40 635.38,392.12 637.21,390.83 639.01,389.53 640.81,388.23 642.58,386.92 644.34,385.60 646.09,384.28 647.82,382.96 649.53,381.63 651.23,380.29 652.91,378.95 654.57,377.60 656.22,376.24 657.85,374.88 659.46,373.51 661.06,372.14 662.64,370.76 664.20,369.38 665.74,367.99 667.26,366.59 668.77,365.19 670.26,363.78 671.73,362.37 673.18,360.95 674.61,359.52 676.02,358.09 677.41,356.66 678.79,355.21 680.14,353.77 681.48,352.31 682.79,350.85 684.09,349.39 685.36,347.92 686.62,346.44 687.85,344.96 689.07,343.48 690.26,341.98 691.43,340.49 692.58,338.98 693.71,337.47 694.82,335.96 695.91,334.44 696.97,332.91 698.02,331.38 699.04,329.85 700.04,328.31 701.01,326.76 701.97,325.21 702.90,323.65 703.81,322.09 704.69,320.52 705.55,318.95 706.39,317.37 707.21,315.79 708.00,314.20 708.77,312.60 709.51,311.00 710.23,309.40 710.93,307.79 711.60,306.18 712.25,304.56 712.87,302.93 713.46,301.30 714.04,299.67 714.58,298.03 715.10,296.39 715.60,294.74 716.07,293.08 716.52,291.42 716.93,289.76 717.33,288.09 717.69,286.42 718.03,284.74 718.35,283.06 718.63,281.37 718.89,279.68 719.13,277.98 719.33,276.28 719.51,274.57 719.66,272.86 719.78,271.15 719.88,269.43 719.95,267.70 719.99,265.97 720.00,264.24 719.98,262.50 719.94,260.76 719.86,259.01 719.76,257.26 719.63,255.51 719.47,253.75 719.28,251.98 719.06,250.22 718.81,248.44 718.54,246.67 718.23,244.89 717.89,243.10 717.52,241.31 717.13,239.52 716.70,237.73 716.24,235.92 715.75,234.12 715.23,232.31 714.68,230.50 714.10,228.68 713.49,226.86 712.84,225.04 712.17,223.21 711.46,221.38 710.73,219.54 709.96,217.71 709.15,215.86 708.32,214.02 707.45,212.17 706.56,210.31 705.63,208.46 704.66,206.60 703.67,204.73 702.64,202.87 701.58,201.00 700.48,199.12 699.35,197.25 698.19,195.37 697.00,193.48 695.77,191.60 694.51,189.71 693.21,187.82 691.88,185.92 690.52,184.02 689.12,182.12 687.69,180.21 686.23,178.31 684.72,176.40 683.19,174.48 681.62,172.57 680.01,170.65 678.37,168.73 676.70,166.80 674.99,164.87 673.24,162.94 671.46,161.01 669.65,159.08 667.79,157.14 665.91,155.20 663.98,153.26 662.02,151.31 660.03,149.37 657.99,147.42 655.93,145.46 653.82,143.51 651.68,141.56 649.50,139.60 647.29,137.64 645.04,135.67 642.75,133.71 640.42,131.74 638.06,129.78 635.66,127.81 633.22,125.83 630.75,123.86 628.24,121.88 625.69,119.91 623.10,117.93 620.47,115.95 617.81,113.97 615.11,111.98 612.37,110.00 609.59,108.01 606.78,106.02 603.92,104.03 601.03,102.04 598.10,100.05 595.13,98.05 592.12,96.06 589.07,94.06 585.98,92.07 582.86,90.07 579.69,88.07 576.49,86.07 573.25,84.07 569.97,82.07 566.64,80.06 563.28,78.06 559.88,76.06 556.44,74.05 552.96,72.05 549.44,70.04 545.88,68.03 542.28,66.02 538.64,64.02 534.96,62.01 531.24,60.00 "/>
</svg>
