<?xml version="1.0" encoding="UTF-8"?>
<svg xmlns="http://www.w3.org/2000/svg" width="800" height="600">
  <title>R=(2*t)/(pi*sin(t)):-.2,.5:</title>
  <rect width="800" height="600" fill="#ffffff"/>
  <g stroke="#d0d0d0" stroke-width="1">
    <line x1="80.00" y1="540.00" x2="80.00" y2="60.00"/>
    <line x1="1085.31" y1="540.00" x2="1085.31" y2="60.00"/>
    <line x1="80.00" y1="745.71" x2="720.00" y2="745.71"/>
    <line x1="80.00" y1="402.86" x2="720.00" y2="402.86"/>
    <line x1="80.00" y1="60.00" x2="720.00" y2="60.00"/>
  </g>
  <g stroke="#e8e8e8" stroke-width="0.5">
    <line x1="281.06" y1="540.00" x2="281.06" y2="60.00"/>
    <line x1="482.12" y1="540.00" x2="482.12" y2="60.00"/>
    <line x1="683.19" y1="540.00" x2="683.19" y2="60.00"/>
    <line x1="80.00" y1="471.43" x2="720.00" y2="471.43"/>
    <line x1="80.00" y1="334.29" x2="720.00" y2="334.29"/>
    <line x1="80.00" y1="265.71" x2="720.00" y2="265.71"/>
    <line x1="80.00" y1="197.14" x2="720.00" y2="197.14"/>
    <line x1="80.00" y1="128.57" x2="720.00" y2="128.57"/>
  </g>
  <g stroke="#808080" stroke-width="2">
    <line x1="80.00" y1="540.00" x2="80.00" y2="60.00"/>
  </g>
  <polyline fill="none" stroke="#0066cc" stroke-width="2" points="633.48,540.00 634.72,539.04 635.95,538.08 637.18,537.11 638.39,536.15 639.59,535.19 640.79,534.23 641.97,533.27 643.15,532.30 644.31,531.34 645.47,530.38 646.61,529.42 647.75,528.46 648.88,527.49 650.00,526.53 651.10,525.57 652.20,524.61 653.29,523.65 654.37,522.69 655.44,521.72 656.51,520.76 657.56,519.80 658.60,518.84 659.64,517.88 660.66,516.91 661.67,515.95 662.68,514.99 663.68,514.03 664.66,513.07 665.64,512.10 666.61,511.14 667.57,510.18 668.52,509.22 669.46,508.26 670.40,507.29 671.32,506.33 672.24,505.37 673.14,504.41 674.04,503.45 674.92,502.48 675.80,501.52 676.67,500.56 677.53,499.60 678.38,498.64 679.23,497.68 680.06,496.71 680.88,495.75 681.70,494.79 682.51,493.83 683.30,492.87 684.09,491.90 684.87,490.94 685.65,489.98 686.41,489.02 687.16,488.06 687.91,487.09 688.64,486.13 689.37,485.17 690.09,484.21 690.80,483.25 691.50,482.28 692.19,481.32 692.87,480.36 693.55,479.40 694.21,478.44 694.87,477.47 695.52,476.51 696.16,475.55 696.79,474.59 697.41,473.63 698.03,472.67 698.63,471.70 699.23,470.74 699.82,469.78 700.40,468.82 700.97,467.86 701.53,466.89 702.09,465.93 702.63,464.97 703.17,464.01 703.70,463.05 704.22,462.08 704.73,461.12 705.23,460.16 705.72,459.20 706.21,458.24 706.69,457.27 707.15,456.31 707.61,455.35 708.07,454.39 708.51,453.43 708.94,452.46 709.37,451.50 709.79,450.54 710.20,449.58 710.60,448.62 710.99,447.66 711.37,446.69 711.75,445.73 712.12,444.77 712.47,443.81 712.82,442.85 713.17,441.88 713.50,440.92 713.82,439.96 714.14,439.00 714.45,438.04 714.75,437.07 715.04,436.11 715.32,435.15 715.60,434.19 715.87,433.23 716.12,432.26 716.37,431.30 716.61,430.34 716.85,429.38 717.07,428.42 717.29,427.45 717.50,426.49 717.70,425.53 717.89,424.57 718.07,423.61 718.25,422.65 718.41,421.68 718.57,420.72 718.72,419.76 718.86,418.80 719.00,417.84 719.12,416.87 719.24,415.91 719.35,414.95 719.45,413.99 719.54,413.03 719.62,412.06 719.70,411.10 719.76,410.14 719.82,409.18 719.87,408.22 719.91,407.25 719.95,406.29 719.97,405.33 719.99,404.37 720.00,403.41 720.00,402.44 719.99,401.48 719.98,400.52 719.95,399.56 719.92,398.60 719.88,397.64 719.83,396.67 719.77,395.71 719.71,394.75 719.63,393.79 719.55,392.83 719.46,391.86 719.36,390.90 719.25,389.94 719.14,388.98 719.01,388.02 718.88,387.05 718.74,386.09 718.59,385.13 718.44,384.17 718.27,383.21 718.10,382.24 717.92,381.28 717.72,380.32 717.53,379.36 717.32,378.40 717.10,377.43 716.88,376.47 716.65,375.51 716.41,374.55 716.16,373.59 715.90,372.63 715.64,371.66 715.36,370.70 715.08,369.74 714.79,368.78 714.49,367.82 714.19,366.85 713.87,365.89 713.55,364.93 713.21,363.97 712.87,363.01 712.52,362.04 712.17,361.08 711.80,360.12 711.43,359.16 711.04,358.20 710.65,357.23 710.25,356.27 709.85,355.31 709.43,354.35 709.00,353.39 708.57,352.42 708.13,351.46 707.68,350.50 707.22,349.54 706.75,348.58 706.28,347.62 705.79,346.65 705.30,345.69 704.80,344.73 704.29,343.77 703.77,342.81 703.24,341.84 702.71,340.88 702.16,339.92 701.61,338.96 701.05,338.00 700.48,337.03 699.90,336.07 699.32,335.11 698.72,334.15 698.12,333.19 697.50,332.22 696.88,331.26 696.25,330.30 695.61,329.34 694.97,328.38 694.31,327.41 693.64,326.45 692.97,325.49 692.29,324.53 691.60,323.57 690.90,322.61 690.19,321.64 689.47,320.68 688.75,319.72 688.01,318.76 687.27,317.80 686.52,316.83 685.75,315.87 684.98,314.91 684.21,313.95 683.42,312.99 682.62,312.02 681.82,311.06 681.00,310.10 680.18,309.14 679.35,308.18 678.51,307.21 677.66,306.25 676.80,305.29 675.93,304.33 675.05,303.37 674.16,302.40 673.27,301.44 672.37,300.48 671.45,299.52 670.53,298.56 669.60,297.60 668.66,296.63 667.71,295.67 666.75,294.71 665.78,293.75 664.81,292.79 663.82,291.82 662.82,290.86 661.82,289.90 660.81,288.94 659.78,287.98 658.75,287.01 657.71,286.05 656.66,285.09 655.60,284.13 654.53,283.17 653.45,282.20 652.36,281.24 651.26,280.28 650.15,279.32 649.04,278.36 647.91,277.39 646.78,276.43 645.63,275.47 644.48,274.51 643.31,273.55 642.14,272.59 640.96,271.62 639.76,270.66 638.56,269.70 637.35,268.74 636.13,267.78 634.90,266.81 633.65,265.85 632.40,264.89 631.14,263.93 629.87,262.97 628.59,262.00 627.30,261.04 626.00,260.08 624.69,259.12 623.37,258.16 622.04,257.19 620.71,256.23 619.36,255.27 618.00,254.31 616.63,253.35 615.25,252.38 613.86,251.42 612.46,250.46 611.05,249.50 609.63,248.54 608.20,247.58 606.76,246.61 605.31,245.65 603.85,244.69 602.38,243.73 600.90,242.77 599.41,241.80 597.90,240.84 596.39,239.88 594.87,238.92 593.34,237.96 591.79,236.99 590.24,236.03 588.67,235.07 587.10,234.11 585.51,233.15 583.92,232.18 582.31,231.22 580.69,230.26 579.06,229.30 577.43,228.34 575.78,227.37 574.11,226.41 572.44,225.45 570.76,224.49 569.07,223.53 567.36,222.57 565.65,221.60 563.92,220.64 562.19,219.68 560.44,218.72 558.68,217.76 556.91,216.79 555.13,215.83 553.33,214.87 551.53,213.91 549.71,212.95 547.89,211.98 546.05,211.02 544.20,210.06 542.34,209.10 540.47,208.14 538.58,207.17 536.69,206.21 534.78,205.25 532.86,204.29 530.93,203.33 528.99,202.36 527.04,201.40 525.07,200.44 523.09,199.48 521.10,198.52 519.10,197.56 517.09,196.59 515.06,195.63 513.03,194.67 510.98,193.71 508.92,192.75 506.84,191.78 504.76,190.82 502.66,189.86 500.55,188.90 498.43,187.94 496.29,186.97 494.14,186.01 491.98,185.05 489.81,184.09 487.63,183.13 485.43,182.16 483.22,181.20 480.99,180.24 478.76,179.28 476.51,178.32 474.25,177.35 471.97,176.39 469.68,175.43 467.38,174.47 465.07,173.51 462.74,172.55 460.40,171.58 458.05,170.62 455.68,169.66 453.30,168.70 450.91,167.74 448.50,166.77 446.08,165.81 443.65,164.85 441.20,163.89 438.74,162.93 436.26,161.96 433.77,161.00 431.27,160.04 428.75,159.08 426.22,158.12 423.68,157.15 421.12,156.19 418.55,155.23 415.96,154.27 413.36,153.31 410.74,152.34 408.11,151.38 405.46,150.42 402.80,149.46 400.13,148.50 397.44,147.54 394.74,146.57 392.02,145.61 389.28,144.65 386.54,143.69 383.77,142.73 380.99,141.76 378.20,140.80 375.39,139.84 372.56,138.88 369.72,137.92 366.87,136.95 364.00,135.99 361.11,135.03 358.21,134.07 355.29,133.11 352.36,132.14 349.41,131.18 346.44,130.22 343.46,129.26 340.46,128.30 337.44,127.33 334.41,126.37 331.36,125.41 328.30,124.45 325.22,123.49 322.12,122.53 319.01,121.56 315.88,120.60 312.73,119.64 309.56,118.68 306.38,117.72 303.18,116.75 299.96,115.79 296.73,114.83 293.48,113.87 290.21,112.91 286.92,111.94 283.61,110.98 280.29,110.02 276.95,109.06 273.59,108.10 270.21,107.13 266.82,106.17 263.40,105.21 259.97,104.25 256.52,103.29 253.05,102.32 249.56,101.36 246.05,100.40 242.53,99.44 238.98,98.48 235.41,97.52 231.83,96.55 228.23,95.59 224.60,94.63 220.96,93.67 217.30,92.71 213.61,91.74 209.91,90.78 206.18,89.82 202.44,88.86 198.68,87.90 194.89,86.93 191.09,85.97 187.26,85.01 183.41,84.05 179.54,83.09 175.65,82.12 171.74,81.16 167.81,80.20 163.85,79.24 159.88,78.28 155.88,77.31 151.86,76.35 147.82,75.39 143.75,74.43 139.67,73.47 135.56,72.51 131.42,71.54 127.27,70.58 123.09,69.62 118.89,68.66 114.66,67.70 110.41,66.73 106.14,65.77 101.85,64.81 97.52,63.85 93.18,62.89 88.81,61.92 84.42,60.96 80.00,60.00 "/>
</svg>
