<?xml version="1.0" encoding="UTF-8"?>
<svg xmlns="http://www.w3.org/2000/svg" width="800" height="600">
  <title>Y=8/(4+x*x):-5,5:</title>
  <rect width="800" height="600" fill="#ffffff"/>
  <g stroke="#d0d0d0" stroke-width="1">
    <line x1="80.00" y1="540.00" x2="80.00" y2="60.00"/>
    <line x1="144.00" y1="540.00" x2="144.00" y2="60.00"/>
    <line x1="208.00" y1="540.00" x2="208.00" y2="60.00"/>
    <line x1="272.00" y1="540.00" x2="272.00" y2="60.00"/>
    <line x1="336.00" y1="540.00" x2="336.00" y2="60.00"/>
    <line x1="400.00" y1="540.00" x2="400.00" y2="60.00"/>
    <line x1="464.00" y1="540.00" x2="464.00" y2="60.00"/>
    <line x1="528.00" y1="540.00" x2="528.00" y2="60.00"/>
    <line x1="592.00" y1="540.00" x2="592.00" y2="60.00"/>
    <line x1="656.00" y1="540.00" x2="656.00" y2="60.00"/>
    <line x1="720.00" y1="540.00" x2="720.00" y2="60.00"/>
    <line x1="80.00" y1="616.80" x2="720.00" y2="616.80"/>
    <line x1="80.00" y1="338.39" x2="720.00" y2="338.39"/>
    <line x1="80.00" y1="59.99" x2="720.00" y2="59.99"/>
  </g>
  <g stroke="#e8e8e8" stroke-width="0.5">
    <line x1="92.80" y1="540.00" x2="92.80" y2="60.00"/>
    <line x1="105.60" y1="540.00" x2="105.60" y2="60.00"/>
    <line x1="118.40" y1="540.00" x2="118.40" y2="60.00"/>
    <line x1="131.20" y1="540.00" x2="131.20" y2="60.00"/>
    <line x1="156.80" y1="540.00" x2="156.80" y2="60.00"/>
    <line x1="169.60" y1="540.00" x2="169.60" y2="60.00"/>
    <line x1="182.40" y1="540.00" x2="182.40" y2="60.00"/>
    <line x1="195.20" y1="540.00" x2="195.20" y2="60.00"/>
    <line x1="220.80" y1="540.00" x2="220.80" y2="60.00"/>
    <line x1="233.60" y1="540.00" x2="233.60" y2="60.00"/>
    <line x1="246.40" y1="540.00" x2="246.40" y2="60.00"/>
    <line x1="259.20" y1="540.00" x2="259.20" y2="60.00"/>
    <line x1="284.80" y1="540.00" x2="284.80" y2="60.00"/>
    <line x1="297.60" y1="540.00" x2="297.60" y2="60.00"/>
    <line x1="310.40" y1="540.00" x2="310.40" y2="60.00"/>
    <line x1="323.20" y1="540.00" x2="323.20" y2="60.00"/>
    <line x1="348.80" y1="540.00" x2="348.80" y2="60.00"/>
    <line x1="361.60" y1="540.00" x2="361.60" y2="60.00"/>
    <line x1="374.40" y1="540.00" x2="374.40" y2="60.00"/>
    <line x1="387.20" y1="540.00" x2="387.20" y2="60.00"/>
    <line x1="412.80" y1="540.00" x2="412.80" y2="60.00"/>
    <line x1="425.60" y1="540.00" x2="425.60" y2="60.00"/>
    <line x1="438.40" y1="540.00" x2="438.40" y2="60.00"/>
    <line x1="451.20" y1="540.00" x2="451.20" y2="60.00"/>
    <line x1="476.80" y1="540.00" x2="476.80" y2="60.00"/>
    <line x1="489.60" y1="540.00" x2="489.60" y2="60.00"/>
    <line x1="502.40" y1="540.00" x2="502.40" y2="60.00"/>
    <line x1="515.20" y1="540.00" x2="515.20" y2="60.00"/>
    <line x1="540.80" y1="540.00" x2="540.80" y2="60.00"/>
    <line x1="553.60" y1="540.00" x2="553.60" y2="60.00"/>
    <line x1="566.40" y1="540.00" x2="566.40" y2="60.00"/>
    <line x1="579.20" y1="540.00" x2="579.20" y2="60.00"/>
    <line x1="604.80" y1="540.00" x2="604.80" y2="60.00"/>
    <line x1="617.60" y1="540.00" x2="617.60" y2="60.00"/>
    <line x1="630.40" y1="540.00" x2="630.40" y2="60.00"/>
    <line x1="643.20" y1="540.00" x2="643.20" y2="60.00"/>
    <line x1="668.80" y1="540.00" x2="668.80" y2="60.00"/>
    <line x1="681.60" y1="540.00" x2="681.60" y2="60.00"/>
    <line x1="694.40" y1="540.00" x2="694.40" y2="60.00"/>
    <line x1="707.20" y1="540.00" x2="707.20" y2="60.00"/>
    <line x1="80.00" y1="505.44" x2="720.00" y2="505.44"/>
    <line x1="80.00" y1="449.76" x2="720.00" y2="449.76"/>
    <line x1="80.00" y1="394.08" x2="720.00" y2="394.08"/>
    <line x1="80.00" y1="282.71" x2="720.00" y2="282.71"/>
    <line x1="80.00" y1="227.03" x2="720.00" y2="227.03"/>
    <line x1="80.00" y1="171.35" x2="720.00" y2="171.35"/>
    <line x1="80.00" y1="115.67" x2="720.00" y2="115.67"/>
  </g>
  <g stroke="#808080" stroke-width="2">
    <line x1="80.00" y1="616.80" x2="720.00" y2="616.80"/>
  </g>
  <polyline fill="none" stroke="#0066cc" stroke-width="2" points="80.00,540.00 81.28,539.47 82.57,538.93 83.85,538.38 85.13,537.83 86.41,537.28 87.70,536.72 88.98,536.15 90.26,535.58 91.54,535.00 92.83,534.42 94.11,533.83 95.39,533.24 96.67,532.64 97.96,532.03 99.24,531.42 100.52,530.80 101.80,530.17 103.09,529.54 104.37,528.90 105.65,528.25 106.93,527.60 108.22,526.94 109.50,526.27 110.78,525.60 112.06,524.92 113.35,524.24 114.63,523.54 115.91,522.84 117.19,522.13 118.48,521.41 119.76,520.69 121.04,519.96 122.32,519.22 123.61,518.47 124.89,517.72 126.17,516.95 127.45,516.18 128.74,515.40 130.02,514.61 131.30,513.81 132.59,513.01 133.87,512.19 135.15,511.37 136.43,510.54 137.72,509.70 139.00,508.85 140.28,507.99 141.56,507.12 142.85,506.24 144.13,505.35 145.41,504.45 146.69,503.54 147.98,502.62 149.26,501.69 150.54,500.76 151.82,499.81 153.11,498.84 154.39,497.87 155.67,496.89 156.95,495.90 158.24,494.89 159.52,493.88 160.80,492.85 162.08,491.81 163.37,490.76 164.65,489.70 165.93,488.62 167.21,487.53 168.50,486.43 169.78,485.32 171.06,484.20 172.34,483.06 173.63,481.91 174.91,480.74 176.19,479.56 177.47,478.37 178.76,477.16 180.04,475.94 181.32,474.71 182.61,473.46 183.89,472.20 185.17,470.92 186.45,469.63 187.74,468.32 189.02,466.99 190.30,465.66 191.58,464.30 192.87,462.93 194.15,461.54 195.43,460.14 196.71,458.72 198.00,457.28 199.28,455.83 200.56,454.36 201.84,452.87 203.13,451.36 204.41,449.84 205.69,448.30 206.97,446.74 208.26,445.16 209.54,443.56 210.82,441.94 212.10,440.31 213.39,438.65 214.67,436.98 215.95,435.28 217.23,433.56 218.52,431.83 219.80,430.07 221.08,428.30 222.36,426.50 223.65,424.68 224.93,422.84 226.21,420.97 227.49,419.09 228.78,417.18 230.06,415.25 231.34,413.30 232.63,411.32 233.91,409.33 235.19,407.30 236.47,405.26 237.76,403.19 239.04,401.09 240.32,398.98 241.60,396.83 242.89,394.67 244.17,392.47 245.45,390.26 246.73,388.01 248.02,385.74 249.30,383.45 250.58,381.13 251.86,378.78 253.15,376.41 254.43,374.01 255.71,371.58 256.99,369.13 258.28,366.65 259.56,364.14 260.84,361.61 262.12,359.05 263.41,356.46 264.69,353.84 265.97,351.20 267.25,348.52 268.54,345.82 269.82,343.10 271.10,340.34 272.38,337.56 273.67,334.74 274.95,331.90 276.23,329.04 277.52,326.14 278.80,323.22 280.08,320.27 281.36,317.29 282.65,314.28 283.93,311.25 285.21,308.19 286.49,305.10 287.78,301.98 289.06,298.84 290.34,295.68 291.62,292.49 292.91,289.27 294.19,286.02 295.47,282.76 296.75,279.47 298.04,276.15 299.32,272.81 300.60,269.45 301.88,266.07 303.17,262.66 304.45,259.24 305.73,255.79 307.01,252.33 308.30,248.85 309.58,245.35 310.86,241.83 312.14,238.30 313.43,234.75 314.71,231.20 315.99,227.62 317.27,224.04 318.56,220.45 319.84,216.85 321.12,213.24 322.40,209.62 323.69,206.00 324.97,202.38 326.25,198.76 327.54,195.13 328.82,191.51 330.10,187.89 331.38,184.28 332.67,180.68 333.95,177.08 335.23,173.49 336.51,169.92 337.80,166.37 339.08,162.83 340.36,159.31 341.64,155.81 342.93,152.33 344.21,148.88 345.49,145.46 346.77,142.07 348.06,138.72 349.34,135.40 350.62,132.12 351.90,128.88 353.19,125.68 354.47,122.53 355.75,119.42 357.03,116.37 358.32,113.37 359.60,110.43 360.88,107.55 362.16,104.73 363.45,101.97 364.73,99.28 366.01,96.66 367.29,94.11 368.58,91.64 369.86,89.24 371.14,86.92 372.42,84.68 373.71,82.53 374.99,80.46 376.27,78.48 377.56,76.60 378.84,74.80 380.12,73.10 381.40,71.50 382.69,69.99 383.97,68.59 385.25,67.28 386.53,66.08 387.82,64.99 389.10,64.00 390.38,63.11 391.66,62.34 392.95,61.67 394.23,61.12 395.51,60.67 396.79,60.34 398.08,60.11 399.36,60.00 400.64,60.00 401.92,60.11 403.21,60.34 404.49,60.67 405.77,61.12 407.05,61.67 408.34,62.34 409.62,63.11 410.90,64.00 412.18,64.99 413.47,66.08 414.75,67.28 416.03,68.59 417.31,69.99 418.60,71.50 419.88,73.10 421.16,74.80 422.44,76.60 423.73,78.48 425.01,80.46 426.29,82.53 427.58,84.68 428.86,86.92 430.14,89.24 431.42,91.64 432.71,94.11 433.99,96.66 435.27,99.28 436.55,101.97 437.84,104.73 439.12,107.55 440.40,110.43 441.68,113.37 442.97,116.37 444.25,119.42 445.53,122.53 446.81,125.68 448.10,128.88 449.38,132.12 450.66,135.40 451.94,138.72 453.23,142.07 454.51,145.46 455.79,148.88 457.07,152.33 458.36,155.81 459.64,159.31 460.92,162.83 462.20,166.37 463.49,169.92 464.77,173.49 466.05,177.08 467.33,180.68 468.62,184.28 469.90,187.89 471.18,191.51 472.46,195.13 473.75,198.76 475.03,202.38 476.31,206.00 477.60,209.62 478.88,213.24 480.16,216.85 481.44,220.45 482.73,224.04 484.01,227.62 485.29,231.20 486.57,234.75 487.86,238.30 489.14,241.83 490.42,245.35 491.70,248.85 492.99,252.33 494.27,255.79 495.55,259.24 496.83,262.66 498.12,266.07 499.40,269.45 500.68,272.81 501.96,276.15 503.25,279.47 504.53,282.76 505.81,286.02 507.09,289.27 508.38,292.49 509.66,295.68 510.94,298.84 512.22,301.98 513.51,305.10 514.79,308.19 516.07,311.25 517.35,314.28 518.64,317.29 519.92,320.27 521.20,323.22 522.48,326.14 523.77,329.04 525.05,331.90 526.33,334.74 527.62,337.56 528.90,340.34 530.18,343.10 531.46,345.82 532.75,348.52 534.03,351.20 535.31,353.84 536.59,356.46 537.88,359.05 539.16,361.61 540.44,364.14 541.72,366.65 543.01,369.13 544.29,371.58 545.57,374.01 546.85,376.41 548.14,378.78 549.42,381.13 550.70,383.45 551.98,385.74 553.27,388.01 554.55,390.26 555.83,392.47 557.11,394.67 558.40,396.83 559.68,398.98 560.96,401.09 562.24,403.19 563.53,405.26 564.81,407.30 566.09,409.33 567.37,411.32 568.66,413.30 569.94,415.25 571.22,417.18 572.51,419.09 573.79,420.97 575.07,422.84 576.35,424.68 577.64,426.50 578.92,428.30 580.20,430.07 581.48,431.83 582.77,433.56 584.05,435.28 585.33,436.98 586.61,438.65 587.90,440.31 589.18,441.94 590.46,443.56 591.74,445.16 593.03,446.74 594.31,448.30 595.59,449.84 596.87,451.36 598.16,452.87 599.44,454.36 600.72,455.83 602.00,457.28 603.29,458.72 604.57,460.14 605.85,461.54 607.13,462.93 608.42,464.30 609.70,465.66 610.98,466.99 612.26,468.32 613.55,469.63 614.83,470.92 616.11,472.20 617.39,473.46 618.68,474.71 619.96,475.94 621.24,477.16 622.53,478.37 623.81,479.56 625.09,480.74 626.37,481.91 627.66,483.06 628.94,484.20 630.22,485.32 631.50,486.43 632.79,487.53 634.07,488.62 635.35,489.70 636.63,490.76 637.92,491.81 639.20,492.85 640.48,493.88 641.76,494.89 643.05,495.90 644.33,496.89 645.61,497.87 646.89,498.84 648.18,499.81 649.46,500.76 650.74,501.69 652.02,502.62 653.31,503.54 654.59,504.45 655.87,505.35 657.15,506.24 658.44,507.12 659.72,507.99 661.00,508.85 662.28,509.70 663.57,510.54 664.85,511.37 666.13,512.19 667.41,513.01 668.70,513.81 669.98,514.61 671.26,515.40 672.55,516.18 673.83,516.95 675.11,517.72 676.39,518.47 677.68,519.22 678.96,519.96 680.24,520.69 681.52,521.41 682.81,522.13 684.09,522.84 685.37,523.54 686.65,524.24 687.94,524.92 689.22,525.60 690.50,526.27 691.78,526.94 693.07,527.60 694.35,528.25 695.63,528.90 696.91,529.54 698.20,530.17 699.48,530.80 700.76,531.42 702.04,532.03 703.33,532.64 704.61,533.24 705.89,533.83 707.17,534.42 708.46,535.00 709.74,535.58 711.02,536.15 712.30,536.72 713.59,537.28 714.87,537.83 716.15,538.38 717.43,538.93 718.72,539.47 720.00,540.00 "/>
</svg>
