<?xml version="1.0" encoding="UTF-8"?>
<svg xmlns="http://www.w3.org/2000/svg" width="800" height="600">
  <title>R=5*sin(t)*cos(t)*cos(t)</title>
  <rect width="800" height="600" fill="#ffffff"/>
  <g stroke="#d0d0d0" stroke-width="1">
    <line x1="5.83" y1="540.00" x2="5.83" y2="60.00"/>
    <line x1="202.92" y1="540.00" x2="202.92" y2="60.00"/>
    <line x1="400.00" y1="540.00" x2="400.00" y2="60.00"/>
    <line x1="597.08" y1="540.00" x2="597.08" y2="60.00"/>
    <line x1="794.17" y1="540.00" x2="794.17" y2="60.00"/>
    <line x1="80.00" y1="540.00" x2="720.00" y2="540.00"/>
    <line x1="80.00" y1="155.94" x2="720.00" y2="155.94"/>
    <line x1="80.00" y1="-228.12" x2="720.00" y2="-228.12"/>
  </g>
  <g stroke="#e8e8e8" stroke-width="0.5">
    <line x1="84.67" y1="540.00" x2="84.67" y2="60.00"/>
    <line x1="124.08" y1="540.00" x2="124.08" y2="60.00"/>
    <line x1="163.50" y1="540.00" x2="163.50" y2="60.00"/>
    <line x1="242.33" y1="540.00" x2="242.33" y2="60.00"/>
    <line x1="281.75" y1="540.00" x2="281.75" y2="60.00"/>
    <line x1="321.17" y1="540.00" x2="321.17" y2="60.00"/>
    <line x1="360.58" y1="540.00" x2="360.58" y2="60.00"/>
    <line x1="439.42" y1="540.00" x2="439.42" y2="60.00"/>
    <line x1="478.83" y1="540.00" x2="478.83" y2="60.00"/>
    <line x1="518.25" y1="540.00" x2="518.25" y2="60.00"/>
    <line x1="557.67" y1="540.00" x2="557.67" y2="60.00"/>
    <line x1="636.50" y1="540.00" x2="636.50" y2="60.00"/>
    <line x1="675.92" y1="540.00" x2="675.92" y2="60.00"/>
    <line x1="715.33" y1="540.00" x2="715.33" y2="60.00"/>
    <line x1="80.00" y1="463.19" x2="720.00" y2="463.19"/>
    <line x1="80.00" y1="386.38" x2="720.00" y2="386.38"/>
    <line x1="80.00" y1="309.56" x2="720.00" y2="309.56"/>
    <line x1="80.00" y1="232.75" x2="720.00" y2="232.75"/>
    <line x1="80.00" y1="79.13" x2="720.00" y2="79.13"/>
  </g>
  <g stroke="#808080" stroke-width="2">
    <line x1="80.00" y1="540.00" x2="720.00" y2="540.00"/>
  </g>
  <polyline fill="none" stroke="#0066cc" stroke-width="2" points="412.38,539.70 424.74,538.79 437.06,537.28 449.32,535.16 461.51,532.46 473.60,529.17 485.57,525.29 497.41,520.85 509.09,515.85 520.61,510.31 531.93,504.23 543.05,497.64 553.95,490.55 564.61,482.98 575.01,474.94 585.14,466.47 594.99,457.57 604.54,448.27 613.77,438.60 622.68,428.58 631.26,418.24 639.48,407.59 647.34,396.67 654.84,385.51 661.95,374.14 668.68,362.57 675.01,350.85 680.94,339.00 686.46,327.05 691.57,315.03 696.27,302.98 700.54,290.92 704.39,278.87 707.81,266.89 710.81,254.98 713.39,243.19 715.54,231.55 717.26,220.07 718.57,208.80 719.46,197.76 719.93,186.98 720.00,176.48 719.67,166.29 718.94,156.44 717.82,146.96 716.32,137.86 714.45,129.17 712.21,120.91 709.63,113.10 706.70,105.77 703.44,98.92 699.86,92.59 695.97,86.78 691.79,81.50 687.33,76.78 682.61,72.62 677.62,69.04 672.40,66.04 666.96,63.63 661.31,61.82 655.46,60.61 649.43,60.00 643.24,60.00 636.90,60.61 630.43,61.82 623.84,63.63 617.15,66.04 610.38,69.04 603.54,72.62 596.65,76.78 589.71,81.50 582.76,86.78 575.79,92.59 568.83,98.92 561.89,105.77 554.99,113.10 548.14,120.91 541.35,129.17 534.63,137.86 528.00,146.96 521.47,156.44 515.05,166.29 508.75,176.48 502.58,186.98 496.55,197.76 490.67,208.80 484.95,220.07 479.40,231.55 474.02,243.19 468.82,254.98 463.81,266.89 458.99,278.87 454.36,290.92 449.93,302.98 445.71,315.03 441.68,327.05 437.87,339.00 434.26,350.85 430.85,362.57 427.65,374.14 424.66,385.51 421.87,396.67 419.28,407.59 416.88,418.24 414.68,428.58 412.67,438.60 410.83,448.27 409.18,457.57 407.69,466.47 406.37,474.94 405.20,482.98 404.18,490.55 403.30,497.64 402.55,504.23 401.92,510.31 401.41,515.85 400.99,520.85 400.67,525.29 400.42,529.17 400.24,532.46 400.12,535.16 400.05,537.28 400.02,538.79 400.00,539.70 400.00,540.00 400.00,539.70 399.98,538.79 399.95,537.28 399.88,535.16 399.76,532.46 399.58,529.17 399.33,525.29 399.01,520.85 398.59,515.85 398.08,510.31 397.45,504.23 396.70,497.64 395.82,490.55 394.80,482.98 393.63,474.94 392.31,466.47 390.82,457.57 389.17,448.27 387.33,438.60 385.32,428.58 383.12,418.24 380.72,407.59 378.13,396.67 375.34,385.51 372.35,374.14 369.15,362.57 365.74,350.85 362.13,339.00 358.32,327.05 354.29,315.03 350.07,302.98 345.64,290.92 341.01,278.87 336.19,266.89 331.18,254.98 325.98,243.19 320.60,231.55 315.05,220.07 309.33,208.80 303.45,197.76 297.42,186.98 291.25,176.48 284.95,166.29 278.53,156.44 272.00,146.96 265.37,137.86 258.65,129.17 251.86,120.91 245.01,113.10 238.11,105.77 231.17,98.92 224.21,92.59 217.24,86.78 210.29,81.50 203.35,76.78 196.46,72.62 189.62,69.04 182.85,66.04 176.16,63.63 169.57,61.82 163.10,60.61 156.76,60.00 150.57,60.00 144.54,60.61 138.69,61.82 133.04,63.63 127.60,66.04 122.38,69.04 117.39,72.62 112.67,76.78 108.21,81.50 104.03,86.78 100.14,92.59 96.56,98.92 93.30,105.77 90.37,113.10 87.79,120.91 85.55,129.17 83.68,137.86 82.18,146.96 81.06,156.44 80.33,166.29 80.00,176.48 80.07,186.98 80.54,197.76 81.43,208.80 82.74,220.07 84.46,231.55 86.61,243.19 89.19,254.98 92.19,266.89 95.61,278.87 99.46,290.92 103.73,302.98 108.43,315.03 113.54,327.05 119.06,339.00 124.99,350.85 131.32,362.57 138.05,374.14 145.16,385.51 152.66,396.67 160.52,407.59 168.74,418.24 177.32,428.58 186.23,438.60 195.46,448.27 205.01,457.57 214.86,466.47 224.99,474.94 235.39,482.98 246.05,490.55 256.95,497.64 268.07,504.23 279.39,510.31 290.91,515.85 302.59,520.85 314.43,525.29 326.40,529.17 338.49,532.46 350.68,535.16 362.94,537.28 375.26,538.79 387.62,539.70 400.00,540.00 412.38,539.70 424.74,538.79 437.06,537.28 449.32,535.16 461.51,532.46 473.60,529.17 485.57,525.29 497.41,520.85 509.09,515.85 520.61,510.31 531.93,504.23 543.05,497.64 553.95,490.55 564.61,482.98 575.01,474.94 585.14,466.47 594.99,457.57 604.54,448.27 613.77,438.60 622.68,428.58 631.26,418.24 639.48,407.59 647.34,396.67 654.84,385.51 661.95,374.14 668.68,362.57 675.01,350.85 680.94,339.00 686.46,327.05 691.57,315.03 696.27,302.98 700.54,290.92 704.39,278.87 707.81,266.89 710.81,254.98 713.39,243.19 715.54,231.55 717.26,220.07 718.57,208.80 719.46,197.76 719.93,186.98 720.00,176.48 719.67,166.29 718.94,156.44 717.82,146.96 716.32,137.86 714.45,129.17 712.21,120.91 709.63,113.10 706.70,105.77 703.44,98.92 699.86,92.59 695.97,86.78 691.79,81.50 687.33,76.78 682.61,72.62 677.62,69.04 672.40,66.04 666.96,63.63 661.31,61.82 655.46,60.61 649.43,60.00 643.24,60.00 636.90,60.61 630.43,61.82 623.84,63.63 617.15,66.04 610.38,69.04 603.54,72.62 596.65,76.78 589.71,81.50 582.76,86.78 575.79,92.59 568.83,98.92 561.89,105.77 554.99,113.10 548.14,120.91 541.35,129.17 534.63,137.86 528.00,146.96 521.47,156.44 515.05,166.29 508.75,176.48 502.58,186.98 496.55,197.76 490.67,208.80 484.95,220.07 479.40,231.55 474.02,243.19 468.82,254.98 463.81,266.89 458.99,278.87 454.36,290.92 449.93,302.98 445.71,315.03 441.68,327.05 437.87,339.00 434.26,350.85 430.85,362.57 427.65,374.14 424.66,385.51 421.87,396.67 419.28,407.59 416.88,418.24 414.68,428.58 412.67,438.60 410.83,448.27 409.18,457.57 407.69,466.47 406.37,474.94 405.20,482.98 404.18,490.55 403.30,497.64 402.55,504.23 401.92,510.31 401.41,515.85 400.99,520.85 400.67,525.29 400.42,529.17 400.24,532.46 400.12,535.16 400.05,537.28 400.02,538.79 400.00,539.70 400.00,540.00 400.00,539.70 399.98,538.79 399.95,537.28 399.88,535.16 399.76,532.46 399.58,529.17 399.33,525.29 399.01,520.85 398.59,515.85 398.08,510.31 397.45,504.23 396.70,497.64 395.82,490.55 394.80,482.98 393.63,474.94 392.31,466.47 390.82,457.57 389.17,448.27 387.33,438.60 385.32,428.58 383.12,418.24 380.72,407.59 378.13,396.67 375.34,385.51 372.35,374.14 369.15,362.57 365.74,350.85 362.13,339.00 358.32,327.05 354.29,315.03 350.07,302.98 345.64,290.92 341.01,278.87 336.19,266.89 331.18,254.98 325.98,243.19 320.60,231.55 315.05,220.07 309.33,208.80 303.45,197.76 297.42,186.98 291.25,176.48 284.95,166.29 278.53,156.44 272.00,146.96 265.37,137.86 258.65,129.17 251.86,120.91 245.01,113.10 238.11,105.77 231.17,98.92 224.21,92.59 217.24,86.78 210.29,81.50 203.35,76.78 196.46,72.62 189.62,69.04 182.85,66.04 176.16,63.63 169.57,61.82 163.10,60.61 156.76,60.00 150.57,60.00 144.54,60.61 138.69,61.82 133.04,63.63 127.60,66.04 122.38,69.04 117.39,72.62 112.67,76.78 108.21,81.50 104.03,86.78 100.14,92.59 96.56,98.92 93.30,105.77 90.37,113.10 87.79,120.91 85.55,129.17 83.68,137.86 82.18,146.96 81.06,156.44 80.33,166.29 80.00,176.48 80.07,186.98 80.54,197.76 81.43,208.80 82.74,220.07 84.46,231.55 86.61,243.19 89.19,254.98 92.19,266.89 95.61,278.87 99.46,290.92 103.73,302.98 108.43,315.03 113.54,327.05 119.06,339.00 124.99,350.85 131.32,362.57 138.05,374.14 145.16,385.51 152.66,396.67 160.52,407.59 168.74,418.24 177.32,428.58 186.23,438.60 195.46,448.27 205.01,457.57 214.86,466.47 224.99,474.94 235.39,482.98 246.05,490.55 256.95,497.64 268.07,504.23 279.39,510.31 290.91,515.85 302.59,520.85 314.43,525.29 326.40,529.17 338.49,532.46 350.68,535.16 362.94,537.28 375.26,538.79 387.62,539.70 400.00,540.00 "/>
</svg>
