<?xml version="1.0" encoding="UTF-8"?>
<svg xmlns="http://www.w3.org/2000/svg" width="800" height="600">
  <title>R**2=cos(2*t)</title>
  <rect width="800" height="600" fill="#ffffff"/>
  <g stroke="#d0d0d0" stroke-width="1">
    <line x1="80.00" y1="540.00" x2="80.00" y2="60.00"/>
    <line x1="400.00" y1="540.00" x2="400.00" y2="60.00"/>
    <line x1="720.00" y1="540.00" x2="720.00" y2="60.00"/>
    <line x1="80.00" y1="978.89" x2="720.00" y2="978.89"/>
    <line x1="80.00" y1="300.00" x2="720.00" y2="300.00"/>
    <line x1="80.00" y1="-378.89" x2="720.00" y2="-378.89"/>
  </g>
  <g stroke="#e8e8e8" stroke-width="0.5">
    <line x1="144.00" y1="540.00" x2="144.00" y2="60.00"/>
    <line x1="208.00" y1="540.00" x2="208.00" y2="60.00"/>
    <line x1="272.00" y1="540.00" x2="272.00" y2="60.00"/>
    <line x1="336.00" y1="540.00" x2="336.00" y2="60.00"/>
    <line x1="464.00" y1="540.00" x2="464.00" y2="60.00"/>
    <line x1="528.00" y1="540.00" x2="528.00" y2="60.00"/>
    <line x1="592.00" y1="540.00" x2="592.00" y2="60.00"/>
    <line x1="656.00" y1="540.00" x2="656.00" y2="60.00"/>
    <line x1="80.00" y1="435.78" x2="720.00" y2="435.78"/>
    <line x1="80.00" y1="164.22" x2="720.00" y2="164.22"/>
  </g>
  <g stroke="#808080" stroke-width="2">
    <line x1="400.00" y1="540.00" x2="400.00" y2="60.00"/>
    <line x1="80.00" y1="300.00" x2="720.00" y2="300.00"/>
  </g>
  <polyline fill="none" stroke="#0066cc" stroke-width="2" points="719.92,291.47 719.70,282.95 719.32,274.45 718.79,265.98 718.11,257.54 717.28,249.15 716.29,240.82 715.16,232.55 713.88,224.36 712.45,216.26 710.87,208.25 709.15,200.34 707.27,192.55 705.26,184.88 703.09,177.34 700.79,169.94 698.34,162.69 695.75,155.60 693.02,148.69 690.14,141.95 687.14,135.41 683.99,129.06 680.71,122.92 677.29,117.00 673.74,111.30 670.06,105.85 666.24,100.64 662.30,95.70 658.23,91.02 654.03,86.62 649.70,82.51 645.26,78.71 640.68,75.22 635.99,72.05 631.17,69.22 626.23,66.74 621.17,64.62 615.99,62.88 610.69,61.53 605.27,60.59 599.72,60.07 594.06,60.00 588.27,60.39 582.35,61.26 576.30,62.63 570.12,64.54 563.80,67.02 557.33,70.09 550.70,73.79 543.91,78.17 536.94,83.29 529.76,89.21 522.36,96.01 514.70,103.79 506.73,112.68 498.39,122.84 489.59,134.54 480.19,148.10 469.95,164.11 458.45,183.55 444.75,208.58 425.52,246.53 374.48,246.53 355.25,208.58 341.55,183.55 330.05,164.11 319.81,148.10 310.41,134.54 301.61,122.84 293.27,112.68 285.30,103.79 277.64,96.01 270.24,89.21 263.06,83.29 256.09,78.17 249.30,73.79 242.67,70.09 236.20,67.02 229.88,64.54 223.70,62.63 217.65,61.26 211.73,60.39 205.94,60.00 200.28,60.07 194.73,60.59 189.31,61.53 184.01,62.88 178.83,64.62 173.77,66.74 168.83,69.22 164.01,72.05 159.32,75.22 154.74,78.71 150.30,82.51 145.97,86.62 141.77,91.02 137.70,95.70 133.76,100.64 129.94,105.85 126.26,111.30 122.71,117.00 119.29,122.92 116.01,129.06 112.86,135.41 109.86,141.95 106.98,148.69 104.25,155.60 101.66,162.69 99.21,169.94 96.91,177.34 94.74,184.88 92.73,192.55 90.85,200.34 89.13,208.25 87.55,216.26 86.12,224.36 84.84,232.55 83.71,240.82 82.72,249.15 81.89,257.54 81.21,265.98 80.68,274.45 80.30,282.95 80.08,291.47 80.00,300.00 80.08,308.53 80.30,317.05 80.68,325.55 81.21,334.02 81.89,342.46 82.72,350.85 83.71,359.18 84.84,367.45 86.12,375.64 87.55,383.74 89.13,391.75 90.85,399.66 92.73,407.45 94.74,415.12 96.91,422.66 99.21,430.06 101.66,437.31 104.25,444.40 106.98,451.31 109.86,458.05 112.86,464.59 116.01,470.94 119.29,477.08 122.71,483.00 126.26,488.70 129.94,494.15 133.76,499.36 137.70,504.30 141.77,508.98 145.97,513.38 150.30,517.49 154.74,521.29 159.32,524.78 164.01,527.95 168.83,530.78 173.77,533.26 178.83,535.38 184.01,537.12 189.31,538.47 194.73,539.41 200.28,539.93 205.94,540.00 211.73,539.61 217.65,538.74 223.70,537.37 229.88,535.46 236.20,532.98 242.67,529.91 249.30,526.21 256.09,521.83 263.06,516.71 270.24,510.79 277.64,503.99 285.30,496.21 293.27,487.32 301.61,477.16 310.41,465.46 319.81,451.90 330.05,435.89 341.55,416.45 355.25,391.42 374.48,353.47 425.52,353.47 444.75,391.42 458.45,416.45 469.95,435.89 480.19,451.90 489.59,465.46 498.39,477.16 506.73,487.32 514.70,496.21 522.36,503.99 529.76,510.79 536.94,516.71 543.91,521.83 550.70,526.21 557.33,529.91 563.80,532.98 570.12,535.46 576.30,537.37 582.35,538.74 588.27,539.61 594.06,540.00 599.72,539.93 605.27,539.41 610.69,538.47 615.99,537.12 621.17,535.38 626.23,533.26 631.17,530.78 635.99,527.95 640.68,524.78 645.26,521.29 649.70,517.49 654.03,513.38 658.23,508.98 662.30,504.30 666.24,499.36 670.06,494.15 673.74,488.70 677.29,483.00 680.71,477.08 683.99,470.94 687.14,464.59 690.14,458.05 693.02,451.31 695.75,444.40 698.34,437.31 700.79,430.06 703.09,422.66 705.26,415.12 707.27,407.45 709.15,399.66 710.87,391.75 712.45,383.74 713.88,375.64 715.16,367.45 716.29,359.18 717.28,350.85 718.11,342.46 718.79,334.02 719.32,325.55 719.70,317.05 719.92,308.53 720.00,300.00 "/>
</svg>
