<?xml version="1.0" encoding="UTF-8"?>
<svg xmlns="http://www.w3.org/2000/svg" width="800" height="600">
  <title>R**2=sin(2*t)</title>
  <rect width="800" height="600" fill="#ffffff"/>
  <g stroke="#d0d0d0" stroke-width="1">
    <line x1="2.93" y1="540.00" x2="2.93" y2="60.00"/>
    <line x1="400.00" y1="540.00" x2="400.00" y2="60.00"/>
    <line x1="797.07" y1="540.00" x2="797.07" y2="60.00"/>
    <line x1="80.00" y1="597.80" x2="720.00" y2="597.80"/>
    <line x1="80.00" y1="300.00" x2="720.00" y2="300.00"/>
    <line x1="80.00" y1="2.20" x2="720.00" y2="2.20"/>
  </g>
  <g stroke="#e8e8e8" stroke-width="0.5">
    <line x1="82.34" y1="540.00" x2="82.34" y2="60.00"/>
    <line x1="161.76" y1="540.00" x2="161.76" y2="60.00"/>
    <line x1="241.17" y1="540.00" x2="241.17" y2="60.00"/>
    <line x1="320.59" y1="540.00" x2="320.59" y2="60.00"/>
    <line x1="479.41" y1="540.00" x2="479.41" y2="60.00"/>
    <line x1="558.83" y1="540.00" x2="558.83" y2="60.00"/>
    <line x1="638.24" y1="540.00" x2="638.24" y2="60.00"/>
    <line x1="717.66" y1="540.00" x2="717.66" y2="60.00"/>
    <line x1="80.00" y1="538.24" x2="720.00" y2="538.24"/>
    <line x1="80.00" y1="478.68" x2="720.00" y2="478.68"/>
    <line x1="80.00" y1="419.12" x2="720.00" y2="419.12"/>
    <line x1="80.00" y1="359.56" x2="720.00" y2="359.56"/>
    <line x1="80.00" y1="240.44" x2="720.00" y2="240.44"/>
    <line x1="80.00" y1="180.88" x2="720.00" y2="180.88"/>
    <line x1="80.00" y1="121.32" x2="720.00" y2="121.32"/>
    <line x1="80.00" y1="61.76" x2="720.00" y2="61.76"/>
  </g>
  <g stroke="#808080" stroke-width="2">
    <line x1="400.00" y1="540.00" x2="400.00" y2="60.00"/>
    <line x1="80.00" y1="300.00" x2="720.00" y2="300.00"/>
  </g>
  <polyline fill="none" stroke="#0066cc" stroke-width="2" points="462.94,299.41 488.98,298.32 508.90,296.92 525.63,295.26 540.30,293.38 553.46,291.31 565.48,289.05 576.55,286.64 586.84,284.08 596.45,281.39 605.47,278.56 613.95,275.62 621.95,272.56 629.51,269.40 636.65,266.14 643.40,262.79 649.79,259.36 655.84,255.84 661.55,252.25 666.94,248.60 672.03,244.87 676.83,241.09 681.34,237.26 685.57,233.37 689.52,229.45 693.22,225.48 696.65,221.47 699.84,217.44 702.77,213.38 705.46,209.30 707.91,205.20 710.12,201.08 712.10,196.96 713.85,192.83 715.37,188.70 716.68,184.57 717.76,180.45 718.63,176.34 719.28,172.25 719.73,168.17 719.97,164.12 720.00,160.09 719.83,156.10 719.47,152.14 718.91,148.21 718.15,144.33 717.21,140.49 716.08,136.71 714.77,132.97 713.28,129.29 711.61,125.67 709.77,122.12 707.75,118.63 705.57,115.21 703.23,111.86 700.72,108.59 698.06,105.40 695.24,102.29 692.28,99.27 689.17,96.34 685.91,93.50 682.52,90.76 678.99,88.11 675.33,85.57 671.55,83.12 667.64,80.79 663.61,78.57 659.47,76.45 655.21,74.46 650.85,72.58 646.39,70.82 641.83,69.19 637.18,67.68 632.44,66.29 627.61,65.04 622.70,63.92 617.72,62.94 612.67,62.09 607.56,61.39 602.38,60.82 597.15,60.40 591.87,60.13 586.54,60.00 581.18,60.03 575.77,60.20 570.34,60.54 564.88,61.03 559.40,61.68 553.91,62.49 548.40,63.47 542.90,64.61 537.39,65.93 531.89,67.41 526.41,69.07 520.94,70.91 515.49,72.92 510.08,75.12 504.70,77.51 499.36,80.09 494.07,82.86 488.83,85.83 483.66,89.00 478.54,92.38 473.50,95.98 468.54,99.79 463.66,103.84 458.88,108.12 454.19,112.66 449.61,117.45 445.14,122.51 440.80,127.87 436.59,133.53 432.51,139.53 428.58,145.90 424.82,152.66 421.22,159.87 417.81,167.59 414.59,175.89 411.59,184.90 408.83,194.78 406.32,205.78 404.11,218.32 402.24,233.27 400.79,252.79 400.00,300.00 337.06,300.59 311.02,301.68 291.10,303.08 274.37,304.74 259.70,306.62 246.54,308.69 234.52,310.95 223.45,313.36 213.16,315.92 203.55,318.61 194.53,321.44 186.05,324.38 178.05,327.44 170.49,330.60 163.35,333.86 156.60,337.21 150.21,340.64 144.16,344.16 138.45,347.75 133.06,351.40 127.97,355.13 123.17,358.91 118.66,362.74 114.43,366.63 110.48,370.55 106.78,374.52 103.35,378.53 100.16,382.56 97.23,386.62 94.54,390.70 92.09,394.80 89.88,398.92 87.90,403.04 86.15,407.17 84.63,411.30 83.32,415.43 82.24,419.55 81.37,423.66 80.72,427.75 80.27,431.83 80.03,435.88 80.00,439.91 80.17,443.90 80.53,447.86 81.09,451.79 81.85,455.67 82.79,459.51 83.92,463.29 85.23,467.03 86.72,470.71 88.39,474.33 90.23,477.88 92.25,481.37 94.43,484.79 96.77,488.14 99.28,491.41 101.94,494.60 104.76,497.71 107.72,500.73 110.83,503.66 114.09,506.50 117.48,509.24 121.01,511.89 124.67,514.43 128.45,516.88 132.36,519.21 136.39,521.43 140.53,523.55 144.79,525.54 149.15,527.42 153.61,529.18 158.17,530.81 162.82,532.32 167.56,533.71 172.39,534.96 177.30,536.08 182.28,537.06 187.33,537.91 192.44,538.61 197.62,539.18 202.85,539.60 208.13,539.87 213.46,540.00 218.82,539.97 224.23,539.80 229.66,539.46 235.12,538.97 240.60,538.32 246.09,537.51 251.60,536.53 257.10,535.39 262.61,534.07 268.11,532.59 273.59,530.93 279.06,529.09 284.51,527.08 289.92,524.88 295.30,522.49 300.64,519.91 305.93,517.14 311.17,514.17 316.34,511.00 321.46,507.62 326.50,504.02 331.46,500.21 336.34,496.16 341.12,491.88 345.81,487.34 350.39,482.55 354.86,477.49 359.20,472.13 363.41,466.47 367.49,460.47 371.42,454.10 375.18,447.34 378.78,440.13 382.19,432.41 385.41,424.11 388.41,415.10 391.17,405.22 393.68,394.22 395.89,381.68 397.76,366.73 399.21,347.21 400.00,300.00 "/>
</svg>
