<?xml version="1.0" encoding="UTF-8"?>
<svg xmlns="http://www.w3.org/2000/svg" width="800" height="600">
  <title>R=sin(3*t)</title>
  <rect width="800" height="600" fill="#ffffff"/>
  <g stroke="#d0d0d0" stroke-width="1">
    <line x1="36.38" y1="540.00" x2="36.38" y2="60.00"/>
    <line x1="400.00" y1="540.00" x2="400.00" y2="60.00"/>
    <line x1="763.62" y1="540.00" x2="763.62" y2="60.00"/>
    <line x1="80.00" y1="540.00" x2="720.00" y2="540.00"/>
    <line x1="80.00" y1="232.78" x2="720.00" y2="232.78"/>
    <line x1="80.00" y1="-74.45" x2="720.00" y2="-74.45"/>
  </g>
  <g stroke="#e8e8e8" stroke-width="0.5">
    <line x1="109.11" y1="540.00" x2="109.11" y2="60.00"/>
    <line x1="181.83" y1="540.00" x2="181.83" y2="60.00"/>
    <line x1="254.55" y1="540.00" x2="254.55" y2="60.00"/>
    <line x1="327.28" y1="540.00" x2="327.28" y2="60.00"/>
    <line x1="472.72" y1="540.00" x2="472.72" y2="60.00"/>
    <line x1="545.45" y1="540.00" x2="545.45" y2="60.00"/>
    <line x1="618.17" y1="540.00" x2="618.17" y2="60.00"/>
    <line x1="690.89" y1="540.00" x2="690.89" y2="60.00"/>
    <line x1="80.00" y1="478.56" x2="720.00" y2="478.56"/>
    <line x1="80.00" y1="417.11" x2="720.00" y2="417.11"/>
    <line x1="80.00" y1="355.67" x2="720.00" y2="355.67"/>
    <line x1="80.00" y1="294.22" x2="720.00" y2="294.22"/>
    <line x1="80.00" y1="171.33" x2="720.00" y2="171.33"/>
    <line x1="80.00" y1="109.89" x2="720.00" y2="109.89"/>
  </g>
  <g stroke="#808080" stroke-width="2">
    <line x1="400.00" y1="540.00" x2="400.00" y2="60.00"/>
    <line x1="80.00" y1="232.78" x2="720.00" y2="232.78"/>
  </g>
  <polyline fill="none" stroke="#0066cc" stroke-width="2" points="413.70,232.63 427.38,232.20 441.01,231.47 454.56,230.46 468.00,229.16 481.32,227.59 494.48,225.74 507.46,223.62 520.25,221.24 532.80,218.60 545.11,215.72 557.14,212.60 568.88,209.26 580.30,205.70 591.39,201.93 602.11,197.97 612.47,193.83 622.43,189.53 631.97,185.07 641.09,180.48 649.77,175.76 657.99,170.93 665.74,166.01 673.00,161.02 679.78,155.97 686.04,150.88 691.80,145.76 697.03,140.64 701.73,135.53 705.91,130.44 709.54,125.41 712.64,120.43 715.19,115.54 717.20,110.75 718.67,106.08 719.61,101.54 720.00,97.15 719.86,92.93 719.20,88.90 718.01,85.06 716.31,81.45 714.11,78.06 711.42,74.93 708.24,72.05 704.59,69.46 700.49,67.15 695.94,65.14 690.96,63.44 685.56,62.07 679.78,61.03 673.61,60.34 667.08,60.00 660.21,60.02 653.01,60.41 645.52,61.17 637.74,62.31 629.70,63.83 621.42,65.74 612.93,68.04 604.24,70.73 595.37,73.81 586.36,77.28 577.23,81.14 567.98,85.39 558.66,90.02 549.29,95.03 539.87,100.41 530.45,106.16 521.04,112.27 511.66,118.74 502.34,125.54 493.10,132.68 483.95,140.14 474.93,147.91 466.05,155.97 457.32,164.32 448.78,172.94 440.44,181.82 432.31,190.93 424.42,200.27 416.78,209.81 409.40,219.54 402.30,229.44 395.50,239.50 389.00,249.68 382.82,259.98 376.97,270.37 371.46,280.84 366.30,291.36 361.50,301.91 357.05,312.47 352.98,323.02 349.28,333.54 345.95,344.01 343.01,354.40 340.44,364.70 338.25,374.88 336.44,384.92 335.01,394.81 333.95,404.52 333.27,414.03 332.94,423.32 332.97,432.38 333.36,441.17 334.08,449.70 335.14,457.93 336.52,465.85 338.21,473.44 340.20,480.69 342.47,487.58 345.02,494.10 347.82,500.23 350.87,505.96 354.14,511.28 357.63,516.17 361.30,520.63 365.15,524.65 369.16,528.22 373.31,531.32 377.57,533.96 381.94,536.13 386.38,537.82 390.89,539.03 395.43,539.76 400.00,540.00 404.57,539.76 409.11,539.03 413.62,537.82 418.06,536.13 422.43,533.96 426.69,531.32 430.84,528.22 434.85,524.65 438.70,520.63 442.37,516.17 445.86,511.28 449.13,505.96 452.18,500.23 454.98,494.10 457.53,487.58 459.80,480.69 461.79,473.44 463.48,465.85 464.86,457.93 465.92,449.70 466.64,441.17 467.03,432.38 467.06,423.32 466.73,414.03 466.05,404.52 464.99,394.81 463.56,384.92 461.75,374.88 459.56,364.70 456.99,354.40 454.05,344.01 450.72,333.54 447.02,323.02 442.95,312.47 438.50,301.91 433.70,291.36 428.54,280.84 423.03,270.37 417.18,259.98 411.00,249.68 404.50,239.50 397.70,229.44 390.60,219.54 383.22,209.81 375.58,200.27 367.69,190.93 359.56,181.82 351.22,172.94 342.68,164.32 333.95,155.97 325.07,147.91 316.05,140.14 306.90,132.68 297.66,125.54 288.34,118.74 278.96,112.27 269.55,106.16 260.13,100.41 250.71,95.03 241.34,90.02 232.02,85.39 222.77,81.14 213.64,77.28 204.63,73.81 195.76,70.73 187.07,68.04 178.58,65.74 170.30,63.83 162.26,62.31 154.48,61.17 146.99,60.41 139.79,60.02 132.92,60.00 126.39,60.34 120.22,61.03 114.44,62.07 109.04,63.44 104.06,65.14 99.51,67.15 95.41,69.46 91.76,72.05 88.58,74.93 85.89,78.06 83.69,81.45 81.99,85.06 80.80,88.90 80.14,92.93 80.00,97.15 80.39,101.54 81.33,106.08 82.80,110.75 84.81,115.54 87.36,120.43 90.46,125.41 94.09,130.44 98.27,135.53 102.97,140.64 108.20,145.76 113.96,150.88 120.22,155.97 127.00,161.02 134.26,166.01 142.01,170.93 150.23,175.76 158.91,180.48 168.03,185.07 177.57,189.53 187.53,193.83 197.89,197.97 208.61,201.93 219.70,205.70 231.12,209.26 242.86,212.60 254.89,215.72 267.20,218.60 279.75,221.24 292.54,223.62 305.52,225.74 318.68,227.59 332.00,229.16 345.44,230.46 358.99,231.47 372.62,232.20 386.30,232.63 400.00,232.78 413.70,232.63 427.38,232.20 441.01,231.47 454.56,230.46 468.00,229.16 481.32,227.59 494.48,225.74 507.46,223.62 520.25,221.24 532.80,218.60 545.11,215.72 557.14,212.60 568.88,209.26 580.30,205.70 591.39,201.93 602.11,197.97 612.47,193.83 622.43,189.53 631.97,185.07 641.09,180.48 649.77,175.76 657.99,170.93 665.74,166.01 673.00,161.02 679.78,155.97 686.04,150.88 691.80,145.76 697.03,140.64 701.73,135.53 705.91,130.44 709.54,125.41 712.64,120.43 715.19,115.54 717.20,110.75 718.67,106.08 719.61,101.54 720.00,97.15 719.86,92.93 719.20,88.90 718.01,85.06 716.31,81.45 714.11,78.06 711.42,74.93 708.24,72.05 704.59,69.46 700.49,67.15 695.94,65.14 690.96,63.44 685.56,62.07 679.78,61.03 673.61,60.34 667.08,60.00 660.21,60.02 653.01,60.41 645.52,61.17 637.74,62.31 629.70,63.83 621.42,65.74 612.93,68.04 604.24,70.73 595.37,73.81 586.36,77.28 577.23,81.14 567.98,85.39 558.66,90.02 549.29,95.03 539.87,100.41 530.45,106.16 521.04,112.27 511.66,118.74 502.34,125.54 493.10,132.68 483.95,140.14 474.93,147.91 466.05,155.97 457.32,164.32 448.78,172.94 440.44,181.82 432.31,190.93 424.42,200.27 416.78,209.81 409.40,219.54 402.30,229.44 395.50,239.50 389.00,249.68 382.82,259.98 376.97,270.37 371.46,280.84 366.30,291.36 361.50,301.91 357.05,312.47 352.98,323.02 349.28,333.54 345.95,344.01 343.01,354.40 340.44,364.70 338.25,374.88 336.44,384.92 335.01,394.81 333.95,404.52 333.27,414.03 332.94,423.32 332.97,432.38 333.36,441.17 334.08,449.70 335.14,457.93 336.52,465.85 338.21,473.44 340.20,480.69 342.47,487.58 345.02,494.10 347.82,500.23 350.87,505.96 354.14,511.28 357.63,516.17 361.30,520.63 365.15,524.65 369.16,528.22 373.31,531.32 377.57,533.96 381.94,536.13 386.38,537.82 390.89,539.03 395.43,539.76 400.00,540.00 404.57,539.76 409.11,539.03 413.62,537.82 418.06,536.13 422.43,533.96 426.69,531.32 430.84,528.22 434.85,524.65 438.70,520.63 442.37,516.17 445.86,511.28 449.13,505.96 452.18,500.23 454.98,494.10 457.53,487.58 459.80,480.69 461.79,473.44 463.48,465.85 464.86,457.93 465.92,449.70 466.64,441.17 467.03,432.38 467.06,423.32 466.73,414.03 466.05,404.52 464.99,394.81 463.56,384.92 461.75,374.88 459.56,364.70 456.99,354.40 454.05,344.01 450.72,333.54 447.02,323.02 442.95,312.47 438.50,301.91 433.70,291.36 428.54,280.84 423.03,270.37 417.18,259.98 411.00,249.68 404.50,239.50 397.70,229.44 390.60,219.54 383.22,209.81 375.58,200.27 367.69,190.93 359.56,181.82 351.22,172.94 342.68,164.32 333.95,155.97 325.07,147.91 316.05,140.14 306.90,132.68 297.66,125.54 288.34,118.74 278.96,112.27 269.55,106.16 260.13,100.41 250.71,95.03 241.34,90.02 232.02,85.39 222.77,81.14 213.64,77.28 204.63,73.81 195.76,70.73 187.07,68.04 178.58,65.74 170.30,63.83 162.26,62.31 154.48,61.17 146.99,60.41 139.79,60.02 132.92,60.00 126.39,60.34 120.22,61.03 114.44,62.07 109.04,63.44 104.06,65.14 99.51,67.15 95.41,69.46 91.76,72.05 88.58,74.93 85.89,78.06 83.69,81.45 81.99,85.06 80.80,88.90 80.14,92.93 80.00,97.15 80.39,101.54 81.33,106.08 82.80,110.75 84.81,115.54 87.36,120.43 90.46,125.41 94.09,130.44 98.27,135.53 102.97,140.64 108.20,145.76 113.96,150.88 120.22,155.97 127.00,161.02 134.26,166.01 142.01,170.93 150.23,175.76 158.91,180.48 168.03,185.07 177.57,189.53 187.53,193.83 197.89,197.97 208.61,201.93 219.70,205.70 231.12,209.26 242.86,212.60 254.89,215.72 267.20,218.60 279.75,221.24 292.54,223.62 305.52,225.74 318.68,227.59 332.00,229.16 345.44,230.46 358.99,231.47 372.62,232.20 386.30,232.63 400.00,232.78 "/>
</svg>
