<?xml version="1.0" encoding="UTF-8"?>
<svg xmlns="http://www.w3.org/2000/svg" width="800" height="600">
  <title>R=cos(2*t)</title>
  <rect width="800" height="600" fill="#ffffff"/>
  <g stroke="#d0d0d0" stroke-width="1">
    <line x1="80.00" y1="540.00" x2="80.00" y2="60.00"/>
    <line x1="400.00" y1="540.00" x2="400.00" y2="60.00"/>
    <line x1="720.00" y1="540.00" x2="720.00" y2="60.00"/>
    <line x1="80.00" y1="540.00" x2="720.00" y2="540.00"/>
    <line x1="80.00" y1="300.00" x2="720.00" y2="300.00"/>
    <line x1="80.00" y1="60.00" x2="720.00" y2="60.00"/>
  </g>
  <g stroke="#e8e8e8" stroke-width="0.5">
    <line x1="144.00" y1="540.00" x2="144.00" y2="60.00"/>
    <line x1="208.00" y1="540.00" x2="208.00" y2="60.00"/>
    <line x1="272.00" y1="540.00" x2="272.00" y2="60.00"/>
    <line x1="336.00" y1="540.00" x2="336.00" y2="60.00"/>
    <line x1="464.00" y1="540.00" x2="464.00" y2="60.00"/>
    <line x1="528.00" y1="540.00" x2="528.00" y2="60.00"/>
    <line x1="592.00" y1="540.00" x2="592.00" y2="60.00"/>
    <line x1="656.00" y1="540.00" x2="656.00" y2="60.00"/>
    <line x1="80.00" y1="492.00" x2="720.00" y2="492.00"/>
    <line x1="80.00" y1="444.00" x2="720.00" y2="444.00"/>
    <line x1="80.00" y1="396.00" x2="720.00" y2="396.00"/>
    <line x1="80.00" y1="348.00" x2="720.00" y2="348.00"/>
    <line x1="80.00" y1="252.00" x2="720.00" y2="252.00"/>
    <line x1="80.00" y1="204.00" x2="720.00" y2="204.00"/>
    <line x1="80.00" y1="156.00" x2="720.00" y2="156.00"/>
    <line x1="80.00" y1="108.00" x2="720.00" y2="108.00"/>
  </g>
  <g stroke="#808080" stroke-width="2">
    <line x1="400.00" y1="540.00" x2="400.00" y2="60.00"/>
    <line x1="80.00" y1="300.00" x2="720.00" y2="300.00"/>
  </g>
  <polyline fill="none" stroke="#0066cc" stroke-width="2" points="719.87,296.99 719.49,293.98 718.86,290.98 717.98,288.00 716.85,285.05 715.47,282.13 713.84,279.24 711.97,276.40 709.86,273.60 707.50,270.87 704.91,268.19 702.09,265.57 699.04,263.03 695.76,260.57 692.26,258.19 688.54,255.89 684.61,253.69 680.48,251.59 676.14,249.59 671.61,247.70 666.89,245.92 661.98,244.25 656.89,242.71 651.64,241.29 646.21,240.00 640.64,238.84 634.91,237.82 629.03,236.94 623.03,236.19 616.89,235.60 610.63,235.15 604.26,234.85 597.79,234.70 591.22,234.70 584.56,234.86 577.83,235.18 571.02,235.66 564.15,236.29 557.22,237.09 550.26,238.05 543.25,239.17 536.22,240.44 529.17,241.88 522.10,243.48 515.04,245.25 507.98,247.17 500.94,249.24 493.93,251.48 486.94,253.87 480.00,256.41 473.11,259.10 466.27,261.94 459.51,264.93 452.81,268.06 446.20,271.33 439.68,274.74 433.26,278.29 426.94,281.96 420.73,285.76 414.65,289.68 408.69,293.73 402.86,297.88 397.17,302.15 391.63,306.52 386.25,310.99 381.01,315.55 375.95,320.20 371.05,324.94 366.32,329.76 361.78,334.65 357.42,339.61 353.24,344.63 349.26,349.71 345.47,354.83 341.88,360.00 338.49,365.21 335.30,370.44 332.32,375.71 329.55,380.99 326.99,386.28 324.65,391.58 322.51,396.87 320.59,402.16 318.89,407.44 317.40,412.69 316.12,417.92 315.06,423.11 314.21,428.26 313.58,433.37 313.15,438.42 312.94,443.42 312.93,448.34 313.13,453.20 313.53,457.97 314.13,462.67 314.92,467.27 315.91,471.78 317.09,476.18 318.46,480.48 320.00,484.66 321.72,488.73 323.61,492.67 325.67,496.48 327.89,500.16 330.26,503.71 332.79,507.11 335.45,510.36 338.26,513.46 341.19,516.41 344.25,519.19 347.42,521.82 350.71,524.28 354.10,526.57 357.58,528.68 361.15,530.63 364.81,532.39 368.53,533.98 372.32,535.38 376.17,536.60 380.07,537.64 384.00,538.49 387.97,539.15 391.97,539.62 395.98,539.91 400.00,540.00 404.02,539.91 408.03,539.62 412.03,539.15 416.00,538.49 419.93,537.64 423.83,536.60 427.68,535.38 431.47,533.98 435.19,532.39 438.85,530.63 442.42,528.68 445.90,526.57 449.29,524.28 452.58,521.82 455.75,519.19 458.81,516.41 461.74,513.46 464.55,510.36 467.21,507.11 469.74,503.71 472.11,500.16 474.33,496.48 476.39,492.67 478.28,488.73 480.00,484.66 481.54,480.48 482.91,476.18 484.09,471.78 485.08,467.27 485.87,462.67 486.47,457.97 486.87,453.20 487.07,448.34 487.06,443.42 486.85,438.42 486.42,433.37 485.79,428.26 484.94,423.11 483.88,417.92 482.60,412.69 481.11,407.44 479.41,402.16 477.49,396.87 475.35,391.58 473.01,386.28 470.45,380.99 467.68,375.71 464.70,370.44 461.51,365.21 458.12,360.00 454.53,354.83 450.74,349.71 446.76,344.63 442.58,339.61 438.22,334.65 433.68,329.76 428.95,324.94 424.05,320.20 418.99,315.55 413.75,310.99 408.37,306.52 402.83,302.15 397.14,297.88 391.31,293.73 385.35,289.68 379.27,285.76 373.06,281.96 366.74,278.29 360.32,274.74 353.80,271.33 347.19,268.06 340.49,264.93 333.73,261.94 326.89,259.10 320.00,256.41 313.06,253.87 306.07,251.48 299.06,249.24 292.02,247.17 284.96,245.25 277.90,243.48 270.83,241.88 263.78,240.44 256.75,239.17 249.74,238.05 242.78,237.09 235.85,236.29 228.98,235.66 222.17,235.18 215.44,234.86 208.78,234.70 202.21,234.70 195.74,234.85 189.37,235.15 183.11,235.60 176.97,236.19 170.97,236.94 165.09,237.82 159.36,238.84 153.79,240.00 148.36,241.29 143.11,242.71 138.02,244.25 133.11,245.92 128.39,247.70 123.86,249.59 119.52,251.59 115.39,253.69 111.46,255.89 107.74,258.19 104.24,260.57 100.96,263.03 97.91,265.57 95.09,268.19 92.50,270.87 90.14,273.60 88.03,276.40 86.16,279.24 84.53,282.13 83.15,285.05 82.02,288.00 81.14,290.98 80.51,293.98 80.13,296.99 80.00,300.00 80.13,303.01 80.51,306.02 81.14,309.02 82.02,312.00 83.15,314.95 84.53,317.87 86.16,320.76 88.03,323.60 90.14,326.40 92.50,329.13 95.09,331.81 97.91,334.43 100.96,336.97 104.24,339.43 107.74,341.81 111.46,344.11 115.39,346.31 119.52,348.41 123.86,350.41 128.39,352.30 133.11,354.08 138.02,355.75 143.11,357.29 148.36,358.71 153.79,360.00 159.36,361.16 165.09,362.18 170.97,363.06 176.97,363.81 183.11,364.40 189.37,364.85 195.74,365.15 202.21,365.30 208.78,365.30 215.44,365.14 222.17,364.82 228.98,364.34 235.85,363.71 242.78,362.91 249.74,361.95 256.75,360.83 263.78,359.56 270.83,358.12 277.90,356.52 284.96,354.75 292.02,352.83 299.06,350.76 306.07,348.52 313.06,346.13 320.00,343.59 326.89,340.90 333.73,338.06 340.49,335.07 347.19,331.94 353.80,328.67 360.32,325.26 366.74,321.71 373.06,318.04 379.27,314.24 385.35,310.32 391.31,306.27 397.14,302.12 402.83,297.85 408.37,293.48 413.75,289.01 418.99,284.45 424.05,279.80 428.95,275.06 433.68,270.24 438.22,265.35 442.58,260.39 446.76,255.37 450.74,250.29 454.53,245.17 458.12,240.00 461.51,234.79 464.70,229.56 467.68,224.29 470.45,219.01 473.01,213.72 475.35,208.42 477.49,203.13 479.41,197.84 481.11,192.56 482.60,187.31 483.88,182.08 484.94,176.89 485.79,171.74 486.42,166.63 486.85,161.58 487.06,156.58 487.07,151.66 486.87,146.80 486.47,142.03 485.87,137.33 485.08,132.73 484.09,128.22 482.91,123.82 481.54,119.52 480.00,115.34 478.28,111.27 476.39,107.33 474.33,103.52 472.11,99.84 469.74,96.29 467.21,92.89 464.55,89.64 461.74,86.54 458.81,83.59 455.75,80.81 452.58,78.18 449.29,75.72 445.90,73.43 442.42,71.32 438.85,69.37 435.19,67.61 431.47,66.02 427.68,64.62 423.83,63.40 419.93,62.36 416.00,61.51 412.03,60.85 408.03,60.38 404.02,60.09 400.00,60.00 395.98,60.09 391.97,60.38 387.97,60.85 384.00,61.51 380.07,62.36 376.17,63.40 372.32,64.62 368.53,66.02 364.81,67.61 361.15,69.37 357.58,71.32 354.10,73.43 350.71,75.72 347.42,78.18 344.25,80.81 341.19,83.59 338.26,86.54 335.45,89.64 332.79,92.89 330.26,96.29 327.89,99.84 325.67,103.52 323.61,107.33 321.72,111.27 320.00,115.34 318.46,119.52 317.09,123.82 315.91,128.22 314.92,132.73 314.13,137.33 313.53,142.03 313.13,146.80 312.93,151.66 312.94,156.58 313.15,161.58 313.58,166.63 314.21,171.74 315.06,176.89 316.12,182.08 317.40,187.31 318.89,192.56 320.59,197.84 322.51,203.13 324.65,208.42 326.99,213.72 329.55,219.01 332.32,224.29 335.30,229.56 338.49,234.79 341.88,240.00 345.47,245.17 349.26,250.29 353.24,255.37 357.42,260.39 361.78,265.35 366.32,270.24 371.05,275.06 375.95,279.80 381.01,284.45 386.25,289.01 391.63,293.48 397.17,297.85 402.86,302.12 408.69,306.27 414.65,310.32 420.73,314.24 426.94,318.04 433.26,321.71 439.68,325.26 446.20,328.67 452.81,331.94 459.51,335.07 466.27,338.06 473.11,340.90 480.00,343.59 486.94,346.13 493.93,348.52 500.94,350.76 507.98,352.83 515.04,354.75 522.10,356.52 529.17,358.12 536.22,359.56 543.25,360.83 550.26,361.95 557.22,362.91 564.15,363.71 571.02,364.34 577.83,364.82 584.56,365.14 591.22,365.30 597.79,365.30 604.26,365.15 610.63,364.85 616.89,364.40 623.03,363.81 629.03,363.06 634.91,362.18 640.64,361.16 646.21,360.00 651.64,358.71 656.89,357.29 661.98,355.75 666.89,354.08 671.61,352.30 676.14,350.41 680.48,348.41 684.61,346.31 688.54,344.11 692.26,341.81 695.76,339.43 699.04,336.97 702.09,334.43 704.91,331.81 707.50,329.13 709.86,326.40 711.97,323.60 713.84,320.76 715.47,317.87 716.85,314.95 717.98,312.00 718.86,309.02 719.49,306.02 719.87,303.01 720.00,300.00 "/>
</svg>
