<?xml version="1.0" encoding="UTF-8"?>
<svg xmlns="http://www.w3.org/2000/svg" width="800" height="600">
  <title>R=sin(5*t)</title>
  <rect width="800" height="600" fill="#ffffff"/>
  <g stroke="#d0d0d0" stroke-width="1">
    <line x1="64.21" y1="540.00" x2="64.21" y2="60.00"/>
    <line x1="400.00" y1="540.00" x2="400.00" y2="60.00"/>
    <line x1="735.79" y1="540.00" x2="735.79" y2="60.00"/>
    <line x1="80.00" y1="588.33" x2="720.00" y2="588.33"/>
    <line x1="80.00" y1="324.17" x2="720.00" y2="324.17"/>
    <line x1="80.00" y1="60.00" x2="720.00" y2="60.00"/>
  </g>
  <g stroke="#e8e8e8" stroke-width="0.5">
    <line x1="131.37" y1="540.00" x2="131.37" y2="60.00"/>
    <line x1="198.53" y1="540.00" x2="198.53" y2="60.00"/>
    <line x1="265.68" y1="540.00" x2="265.68" y2="60.00"/>
    <line x1="332.84" y1="540.00" x2="332.84" y2="60.00"/>
    <line x1="467.16" y1="540.00" x2="467.16" y2="60.00"/>
    <line x1="534.32" y1="540.00" x2="534.32" y2="60.00"/>
    <line x1="601.47" y1="540.00" x2="601.47" y2="60.00"/>
    <line x1="668.63" y1="540.00" x2="668.63" y2="60.00"/>
    <line x1="80.00" y1="535.50" x2="720.00" y2="535.50"/>
    <line x1="80.00" y1="482.67" x2="720.00" y2="482.67"/>
    <line x1="80.00" y1="429.83" x2="720.00" y2="429.83"/>
    <line x1="80.00" y1="377.00" x2="720.00" y2="377.00"/>
    <line x1="80.00" y1="271.33" x2="720.00" y2="271.33"/>
    <line x1="80.00" y1="218.50" x2="720.00" y2="218.50"/>
    <line x1="80.00" y1="165.67" x2="720.00" y2="165.67"/>
    <line x1="80.00" y1="112.83" x2="720.00" y2="112.83"/>
  </g>
  <g stroke="#808080" stroke-width="2">
    <line x1="400.00" y1="540.00" x2="400.00" y2="60.00"/>
    <line x1="80.00" y1="324.17" x2="720.00" y2="324.17"/>
  </g>
  <polyline fill="none" stroke="#0066cc" stroke-width="2" points="421.08,323.96 442.07,323.33 462.88,322.30 483.40,320.87 503.56,319.04 523.26,316.84 542.42,314.28 560.95,311.39 578.78,308.19 595.82,304.71 612.00,300.96 627.25,297.00 641.52,292.85 654.74,288.54 666.85,284.12 677.80,279.62 687.56,275.09 696.09,270.56 703.35,266.08 709.32,261.69 713.98,257.43 717.32,253.34 719.32,249.47 720.00,245.85 719.35,242.53 717.40,239.55 714.15,236.94 709.63,234.74 703.88,232.97 696.93,231.68 688.82,230.89 679.59,230.62 669.31,230.90 658.03,231.74 645.80,233.17 632.70,235.19 618.79,237.82 604.15,241.06 588.85,244.91 572.96,249.36 556.57,254.42 539.75,260.07 522.60,266.30 505.19,273.09 487.61,280.43 469.94,288.27 452.26,296.60 434.66,305.38 417.21,314.59 400.00,324.17 383.10,334.08 366.58,344.29 350.53,354.75 334.99,365.40 320.05,376.20 305.75,387.09 292.16,398.02 279.33,408.92 267.30,419.76 256.12,430.46 245.83,440.97 236.44,451.23 228.01,461.19 220.53,470.78 214.04,479.96 208.53,488.66 204.02,496.84 200.51,504.45 197.98,511.43 196.44,517.75 195.85,523.35 196.20,528.20 197.47,532.26 199.63,535.50 202.63,537.88 206.44,539.39 211.02,540.00 216.32,539.69 222.29,538.46 228.88,536.29 236.04,533.18 243.70,529.14 251.81,524.16 260.30,518.25 269.13,511.45 278.21,503.75 287.50,495.19 296.93,485.80 306.44,475.61 315.96,464.66 325.44,452.99 334.82,440.64 344.04,427.67 353.05,414.13 361.80,400.07 370.24,385.55 378.31,370.63 385.99,355.39 393.23,339.88 400.00,324.17 406.26,308.33 412.00,292.43 417.17,276.55 421.78,260.74 425.81,245.10 429.23,229.68 432.06,214.55 434.30,199.80 435.93,185.47 436.98,171.64 437.46,158.38 437.38,145.74 436.77,133.78 435.65,122.56 434.05,112.14 432.00,102.55 429.53,93.84 426.69,86.07 423.52,79.25 420.05,73.42 416.34,68.62 412.43,64.86 408.37,62.17 404.21,60.54 400.00,60.00 395.79,60.54 391.63,62.17 387.57,64.86 383.66,68.62 379.95,73.42 376.48,79.25 373.31,86.07 370.47,93.84 368.00,102.55 365.95,112.14 364.35,122.56 363.23,133.78 362.62,145.74 362.54,158.38 363.02,171.64 364.07,185.47 365.70,199.80 367.94,214.55 370.77,229.68 374.19,245.10 378.22,260.74 382.83,276.55 388.00,292.43 393.74,308.33 400.00,324.17 406.77,339.88 414.01,355.39 421.69,370.63 429.76,385.55 438.20,400.07 446.95,414.13 455.96,427.67 465.18,440.64 474.56,452.99 484.04,464.66 493.56,475.61 503.07,485.80 512.50,495.19 521.79,503.75 530.87,511.45 539.70,518.25 548.19,524.16 556.30,529.14 563.96,533.18 571.12,536.29 577.71,538.46 583.68,539.69 588.98,540.00 593.56,539.39 597.37,537.88 600.37,535.50 602.53,532.26 603.80,528.20 604.15,523.35 603.56,517.75 602.02,511.43 599.49,504.45 595.98,496.84 591.47,488.66 585.96,479.96 579.47,470.78 571.99,461.19 563.56,451.23 554.17,440.97 543.88,430.46 532.70,419.76 520.67,408.92 507.84,398.02 494.25,387.09 479.95,376.20 465.01,365.40 449.47,354.75 433.42,344.29 416.90,334.08 400.00,324.17 382.79,314.59 365.34,305.38 347.74,296.60 330.06,288.27 312.39,280.43 294.81,273.09 277.40,266.30 260.25,260.07 243.43,254.42 227.04,249.36 211.15,244.91 195.85,241.06 181.21,237.82 167.30,235.19 154.20,233.17 141.97,231.74 130.69,230.90 120.41,230.62 111.18,230.89 103.07,231.68 96.12,232.97 90.37,234.74 85.85,236.94 82.60,239.55 80.65,242.53 80.00,245.85 80.68,249.47 82.68,253.34 86.02,257.43 90.68,261.69 96.65,266.08 103.91,270.56 112.44,275.09 122.20,279.62 133.15,284.12 145.26,288.54 158.48,292.85 172.75,297.00 188.00,300.96 204.18,304.71 221.22,308.19 239.05,311.39 257.58,314.28 276.74,316.84 296.44,319.04 316.60,320.87 337.12,322.30 357.93,323.33 378.92,323.96 400.00,324.17 421.08,323.96 442.07,323.33 462.88,322.30 483.40,320.87 503.56,319.04 523.26,316.84 542.42,314.28 560.95,311.39 578.78,308.19 595.82,304.71 612.00,300.96 627.25,297.00 641.52,292.85 654.74,288.54 666.85,284.12 677.80,279.62 687.56,275.09 696.09,270.56 703.35,266.08 709.32,261.69 713.98,257.43 717.32,253.34 719.32,249.47 720.00,245.85 719.35,242.53 717.40,239.55 714.15,236.94 709.63,234.74 703.88,232.97 696.93,231.68 688.82,230.89 679.59,230.62 669.31,230.90 658.03,231.74 645.80,233.17 632.70,235.19 618.79,237.82 604.15,241.06 588.85,244.91 572.96,249.36 556.57,254.42 539.75,260.07 522.60,266.30 505.19,273.09 487.61,280.43 469.94,288.27 452.26,296.60 434.66,305.38 417.21,314.59 400.00,324.17 383.10,334.08 366.58,344.29 350.53,354.75 334.99,365.40 320.05,376.20 305.75,387.09 292.16,398.02 279.33,408.92 267.30,419.76 256.12,430.46 245.83,440.97 236.44,451.23 228.01,461.19 220.53,470.78 214.04,479.96 208.53,488.66 204.02,496.84 200.51,504.45 197.98,511.43 196.44,517.75 195.85,523.35 196.20,528.20 197.47,532.26 199.63,535.50 202.63,537.88 206.44,539.39 211.02,540.00 216.32,539.69 222.29,538.46 228.88,536.29 236.04,533.18 243.70,529.14 251.81,524.16 260.30,518.25 269.13,511.45 278.21,503.75 287.50,495.19 296.93,485.80 306.44,475.61 315.96,464.66 325.44,452.99 334.82,440.64 344.04,427.67 353.05,414.13 361.80,400.07 370.24,385.55 378.31,370.63 385.99,355.39 393.23,339.88 400.00,324.17 406.26,308.33 412.00,292.43 417.17,276.55 421.78,260.74 425.81,245.10 429.23,229.68 432.06,214.55 434.30,199.80 435.93,185.47 436.98,171.64 437.46,158.38 437.38,145.74 436.77,133.78 435.65,122.56 434.05,112.14 432.00,102.55 429.53,93.84 426.69,86.07 423.52,79.25 420.05,73.42 416.34,68.62 412.43,64.86 408.37,62.17 404.21,60.54 400.00,60.00 395.79,60.54 391.63,62.17 387.57,64.86 383.66,68.62 379.95,73.42 376.48,79.25 373.31,86.07 370.47,93.84 368.00,102.55 365.95,112.14 364.35,122.56 363.23,133.78 362.62,145.74 362.54,158.38 363.02,171.64 364.07,185.47 365.70,199.80 367.94,214.55 370.77,229.68 374.19,245.10 378.22,260.74 382.83,276.55 388.00,292.43 393.74,308.33 400.00,324.17 406.77,339.88 414.01,355.39 421.69,370.63 429.76,385.55 438.20,400.07 446.95,414.13 455.96,427.67 465.18,440.64 474.56,452.99 484.04,464.66 493.56,475.61 503.07,485.80 512.50,495.19 521.79,503.75 530.87,511.45 539.70,518.25 548.19,524.16 556.30,529.14 563.96,533.18 571.12,536.29 577.71,538.46 583.68,539.69 588.98,540.00 593.56,539.39 597.37,537.88 600.37,535.50 602.53,532.26 603.80,528.20 604.15,523.35 603.56,517.75 602.02,511.43 599.49,504.45 595.98,496.84 591.47,488.66 585.96,479.96 579.47,470.78 571.99,461.19 563.56,451.23 554.17,440.97 543.88,430.46 532.70,419.76 520.67,408.92 507.84,398.02 494.25,387.09 479.95,376.20 465.01,365.40 449.47,354.75 433.42,344.29 416.90,334.08 400.00,324.17 382.79,314.59 365.34,305.38 347.74,296.60 330.06,288.27 312.39,280.43 294.81,273.09 277.40,266.30 260.25,260.07 243.43,254.42 227.04,249.36 211.15,244.91 195.85,241.06 181.21,237.82 167.30,235.19 154.20,233.17 141.97,231.74 130.69,230.90 120.41,230.62 111.18,230.89 103.07,231.68 96.12,232.97 90.37,234.74 85.85,236.94 82.60,239.55 80.65,242.53 80.00,245.85 80.68,249.47 82.68,253.34 86.02,257.43 90.68,261.69 96.65,266.08 103.91,270.56 112.44,275.09 122.20,279.62 133.15,284.12 145.26,288.54 158.48,292.85 172.75,297.00 188.00,300.96 204.18,304.71 221.22,308.19 239.05,311.39 257.58,314.28 276.74,316.84 296.44,319.04 316.60,320.87 337.12,322.30 357.93,323.33 378.92,323.96 400.00,324.17 "/>
</svg>
