<?xml version="1.0" encoding="UTF-8"?>
<svg xmlns="http://www.w3.org/2000/svg" width="800" height="600">
  <title>R=sin(4*t)</title>
  <rect width="800" height="600" fill="#ffffff"/>
  <g stroke="#d0d0d0" stroke-width="1">
    <line x1="55.31" y1="540.00" x2="55.31" y2="60.00"/>
    <line x1="400.00" y1="540.00" x2="400.00" y2="60.00"/>
    <line x1="744.69" y1="540.00" x2="744.69" y2="60.00"/>
    <line x1="80.00" y1="558.52" x2="720.00" y2="558.52"/>
    <line x1="80.00" y1="300.00" x2="720.00" y2="300.00"/>
    <line x1="80.00" y1="41.48" x2="720.00" y2="41.48"/>
  </g>
  <g stroke="#e8e8e8" stroke-width="0.5">
    <line x1="124.24" y1="540.00" x2="124.24" y2="60.00"/>
    <line x1="193.18" y1="540.00" x2="193.18" y2="60.00"/>
    <line x1="262.12" y1="540.00" x2="262.12" y2="60.00"/>
    <line x1="331.06" y1="540.00" x2="331.06" y2="60.00"/>
    <line x1="468.94" y1="540.00" x2="468.94" y2="60.00"/>
    <line x1="537.88" y1="540.00" x2="537.88" y2="60.00"/>
    <line x1="606.82" y1="540.00" x2="606.82" y2="60.00"/>
    <line x1="675.76" y1="540.00" x2="675.76" y2="60.00"/>
    <line x1="80.00" y1="506.82" x2="720.00" y2="506.82"/>
    <line x1="80.00" y1="455.11" x2="720.00" y2="455.11"/>
    <line x1="80.00" y1="403.41" x2="720.00" y2="403.41"/>
    <line x1="80.00" y1="351.70" x2="720.00" y2="351.70"/>
    <line x1="80.00" y1="248.30" x2="720.00" y2="248.30"/>
    <line x1="80.00" y1="196.59" x2="720.00" y2="196.59"/>
    <line x1="80.00" y1="144.89" x2="720.00" y2="144.89"/>
    <line x1="80.00" y1="93.18" x2="720.00" y2="93.18"/>
  </g>
  <g stroke="#808080" stroke-width="2">
    <line x1="400.00" y1="540.00" x2="400.00" y2="60.00"/>
    <line x1="80.00" y1="300.00" x2="720.00" y2="300.00"/>
  </g>
  <polyline fill="none" stroke="#0066cc" stroke-width="2" points="417.32,299.84 434.58,299.35 451.75,298.54 468.75,297.41 485.55,295.96 502.10,294.22 518.34,292.17 534.22,289.85 549.71,287.25 564.75,284.39 579.30,281.29 593.32,277.97 606.76,274.44 619.59,270.72 631.78,266.84 643.28,262.81 654.08,258.66 664.12,254.41 673.40,250.09 681.89,245.72 689.56,241.32 696.40,236.93 702.39,232.56 707.52,228.25 711.78,224.02 715.16,219.90 717.65,215.92 719.27,212.09 720.00,208.45 719.86,205.02 718.84,201.83 716.97,198.89 714.26,196.24 710.72,193.90 706.36,191.88 701.22,190.20 695.32,188.89 688.68,187.96 681.33,187.43 673.31,187.31 664.64,187.61 655.36,188.35 645.51,189.54 635.13,191.17 624.25,193.27 612.91,195.82 601.17,198.84 589.06,202.33 576.62,206.28 563.91,210.68 550.97,215.54 537.83,220.85 524.56,226.59 511.19,232.76 497.77,239.34 484.35,246.31 470.96,253.67 457.66,261.39 444.49,269.44 431.49,277.82 418.70,286.49 406.16,295.44 393.91,304.62 381.99,314.03 370.43,323.62 359.26,333.37 348.51,343.25 338.23,353.22 328.42,363.26 319.12,373.33 310.35,383.39 302.12,393.42 294.47,403.38 287.39,413.22 280.91,422.93 275.04,432.47 269.77,441.79 265.13,450.88 261.10,459.68 257.69,468.18 254.90,476.34 252.72,484.13 251.14,491.52 250.15,498.48 249.75,504.98 249.91,511.00 250.62,516.51 251.86,521.49 253.60,525.92 255.84,529.77 258.53,533.04 261.66,535.69 265.19,537.73 269.10,539.13 273.36,539.89 277.93,540.00 282.79,539.45 287.89,538.24 293.20,536.37 298.70,533.83 304.34,530.64 310.08,526.79 315.90,522.30 321.76,517.17 327.62,511.42 333.45,505.05 339.22,498.09 344.88,490.56 350.41,482.46 355.79,473.83 360.96,464.70 365.92,455.07 370.63,444.99 375.06,434.47 379.19,423.56 383.00,412.28 386.46,400.67 389.56,388.75 392.29,376.57 394.62,364.16 396.54,351.56 398.05,338.81 399.13,325.94 399.78,312.99 400.00,300.00 399.78,287.01 399.13,274.06 398.05,261.19 396.54,248.44 394.62,235.84 392.29,223.43 389.56,211.25 386.46,199.33 383.00,187.72 379.19,176.44 375.06,165.53 370.63,155.01 365.92,144.93 360.96,135.30 355.79,126.17 350.41,117.54 344.88,109.44 339.22,101.91 333.45,94.95 327.62,88.58 321.76,82.83 315.90,77.70 310.08,73.21 304.34,69.36 298.70,66.17 293.20,63.63 287.89,61.76 282.79,60.55 277.93,60.00 273.36,60.11 269.10,60.87 265.19,62.27 261.66,64.31 258.53,66.96 255.84,70.23 253.60,74.08 251.86,78.51 250.62,83.49 249.91,89.00 249.75,95.02 250.15,101.52 251.14,108.48 252.72,115.87 254.90,123.66 257.69,131.82 261.10,140.32 265.13,149.12 269.77,158.21 275.04,167.53 280.91,177.07 287.39,186.78 294.47,196.62 302.12,206.58 310.35,216.61 319.12,226.67 328.42,236.74 338.23,246.78 348.51,256.75 359.26,266.63 370.43,276.38 381.99,285.97 393.91,295.38 406.16,304.56 418.70,313.51 431.49,322.18 444.49,330.56 457.66,338.61 470.96,346.33 484.35,353.69 497.77,360.66 511.19,367.24 524.56,373.41 537.83,379.15 550.97,384.46 563.91,389.32 576.62,393.72 589.06,397.67 601.17,401.16 612.91,404.18 624.25,406.73 635.13,408.83 645.51,410.46 655.36,411.65 664.64,412.39 673.31,412.69 681.33,412.57 688.68,412.04 695.32,411.11 701.22,409.80 706.36,408.12 710.72,406.10 714.26,403.76 716.97,401.11 718.84,398.17 719.86,394.98 720.00,391.55 719.27,387.91 717.65,384.08 715.16,380.10 711.78,375.98 707.52,371.75 702.39,367.44 696.40,363.07 689.56,358.68 681.89,354.28 673.40,349.91 664.12,345.59 654.08,341.34 643.28,337.19 631.78,333.16 619.59,329.28 606.76,325.56 593.32,322.03 579.30,318.71 564.75,315.61 549.71,312.75 534.22,310.15 518.34,307.83 502.10,305.78 485.55,304.04 468.75,302.59 451.75,301.46 434.58,300.65 417.32,300.16 400.00,300.00 382.68,300.16 365.42,300.65 348.25,301.46 331.25,302.59 314.45,304.04 297.90,305.78 281.66,307.83 265.78,310.15 250.29,312.75 235.25,315.61 220.70,318.71 206.68,322.03 193.24,325.56 180.41,329.28 168.22,333.16 156.72,337.19 145.92,341.34 135.88,345.59 126.60,349.91 118.11,354.28 110.44,358.68 103.60,363.07 97.61,367.44 92.48,371.75 88.22,375.98 84.84,380.10 82.35,384.08 80.73,387.91 80.00,391.55 80.14,394.98 81.16,398.17 83.03,401.11 85.74,403.76 89.28,406.10 93.64,408.12 98.78,409.80 104.68,411.11 111.32,412.04 118.67,412.57 126.69,412.69 135.36,412.39 144.64,411.65 154.49,410.46 164.87,408.83 175.75,406.73 187.09,404.18 198.83,401.16 210.94,397.67 223.38,393.72 236.09,389.32 249.03,384.46 262.17,379.15 275.44,373.41 288.81,367.24 302.23,360.66 315.65,353.69 329.04,346.33 342.34,338.61 355.51,330.56 368.51,322.18 381.30,313.51 393.84,304.56 406.09,295.38 418.01,285.97 429.57,276.38 440.74,266.63 451.49,256.75 461.77,246.78 471.58,236.74 480.88,226.67 489.65,216.61 497.88,206.58 505.53,196.62 512.61,186.78 519.09,177.07 524.96,167.53 530.23,158.21 534.87,149.12 538.90,140.32 542.31,131.82 545.10,123.66 547.28,115.87 548.86,108.48 549.85,101.52 550.25,95.02 550.09,89.00 549.38,83.49 548.14,78.51 546.40,74.08 544.16,70.23 541.47,66.96 538.34,64.31 534.81,62.27 530.90,60.87 526.64,60.11 522.07,60.00 517.21,60.55 512.11,61.76 506.80,63.63 501.30,66.17 495.66,69.36 489.92,73.21 484.10,77.70 478.24,82.83 472.38,88.58 466.55,94.95 460.78,101.91 455.12,109.44 449.59,117.54 444.21,126.17 439.04,135.30 434.08,144.93 429.37,155.01 424.94,165.53 420.81,176.44 417.00,187.72 413.54,199.33 410.44,211.25 407.71,223.43 405.38,235.84 403.46,248.44 401.95,261.19 400.87,274.06 400.22,287.01 400.00,300.00 400.22,312.99 400.87,325.94 401.95,338.81 403.46,351.56 405.38,364.16 407.71,376.57 410.44,388.75 413.54,400.67 417.00,412.28 420.81,423.56 424.94,434.47 429.37,444.99 434.08,455.07 439.04,464.70 444.21,473.83 449.59,482.46 455.12,490.56 460.78,498.09 466.55,505.05 472.38,511.42 478.24,517.17 484.10,522.30 489.92,526.79 495.66,530.64 501.30,533.83 506.80,536.37 512.11,538.24 517.21,539.45 522.07,540.00 526.64,539.89 530.90,539.13 534.81,537.73 538.34,535.69 541.47,533.04 544.16,529.77 546.40,525.92 548.14,521.49 549.38,516.51 550.09,511.00 550.25,504.98 549.85,498.48 548.86,491.52 547.28,484.13 545.10,476.34 542.31,468.18 538.90,459.68 534.87,450.88 530.23,441.79 524.96,432.47 519.09,422.93 512.61,413.22 505.53,403.38 497.88,393.42 489.65,383.39 480.88,373.33 471.58,363.26 461.77,353.22 451.49,343.25 440.74,333.37 429.57,323.62 418.01,314.03 406.09,304.62 393.84,295.44 381.30,286.49 368.51,277.82 355.51,269.44 342.34,261.39 329.04,253.67 315.65,246.31 302.23,239.34 288.81,232.76 275.44,226.59 262.17,220.85 249.03,215.54 236.09,210.68 223.38,206.28 210.94,202.33 198.83,198.84 187.09,195.82 175.75,193.27 164.87,191.17 154.49,189.54 144.64,188.35 135.36,187.61 126.69,187.31 118.67,187.43 111.32,187.96 104.68,188.89 98.78,190.20 93.64,191.88 89.28,193.90 85.74,196.24 83.03,198.89 81.16,201.83 80.14,205.02 80.00,208.45 80.73,212.09 82.35,215.92 84.84,219.90 88.22,224.02 92.48,228.25 97.61,232.56 103.60,236.93 110.44,241.32 118.11,245.72 126.60,250.09 135.88,254.41 145.92,258.66 156.72,262.81 168.22,266.84 180.41,270.72 193.24,274.44 206.68,277.97 220.70,281.29 235.25,284.39 250.29,287.25 265.78,289.85 281.66,292.17 297.90,294.22 314.45,295.96 331.25,297.41 348.25,298.54 365.42,299.35 382.68,299.84 400.00,300.00 "/>
</svg>
