<?xml version="1.0" encoding="UTF-8"?>
<svg xmlns="http://www.w3.org/2000/svg" width="800" height="600">
  <title>R=4*cos(t)+2</title>
  <rect width="800" height="600" fill="#ffffff"/>
  <g stroke="#d0d0d0" stroke-width="1">
    <line x1="3.20" y1="540.00" x2="3.20" y2="60.00"/>
    <line x1="105.60" y1="540.00" x2="105.60" y2="60.00"/>
    <line x1="208.00" y1="540.00" x2="208.00" y2="60.00"/>
    <line x1="310.40" y1="540.00" x2="310.40" y2="60.00"/>
    <line x1="412.80" y1="540.00" x2="412.80" y2="60.00"/>
    <line x1="515.20" y1="540.00" x2="515.20" y2="60.00"/>
    <line x1="617.60" y1="540.00" x2="617.60" y2="60.00"/>
    <line x1="720.00" y1="540.00" x2="720.00" y2="60.00"/>
    <line x1="80.00" y1="572.71" x2="720.00" y2="572.71"/>
    <line x1="80.00" y1="504.54" x2="720.00" y2="504.54"/>
    <line x1="80.00" y1="436.36" x2="720.00" y2="436.36"/>
    <line x1="80.00" y1="368.18" x2="720.00" y2="368.18"/>
    <line x1="80.00" y1="300.00" x2="720.00" y2="300.00"/>
    <line x1="80.00" y1="231.82" x2="720.00" y2="231.82"/>
    <line x1="80.00" y1="163.64" x2="720.00" y2="163.64"/>
    <line x1="80.00" y1="95.46" x2="720.00" y2="95.46"/>
    <line x1="80.00" y1="27.29" x2="720.00" y2="27.29"/>
  </g>
  <g stroke="#e8e8e8" stroke-width="0.5">
    <line x1="85.12" y1="540.00" x2="85.12" y2="60.00"/>
    <line x1="126.08" y1="540.00" x2="126.08" y2="60.00"/>
    <line x1="146.56" y1="540.00" x2="146.56" y2="60.00"/>
    <line x1="167.04" y1="540.00" x2="167.04" y2="60.00"/>
    <line x1="187.52" y1="540.00" x2="187.52" y2="60.00"/>
    <line x1="228.48" y1="540.00" x2="228.48" y2="60.00"/>
    <line x1="248.96" y1="540.00" x2="248.96" y2="60.00"/>
    <line x1="269.44" y1="540.00" x2="269.44" y2="60.00"/>
    <line x1="289.92" y1="540.00" x2="289.92" y2="60.00"/>
    <line x1="330.88" y1="540.00" x2="330.88" y2="60.00"/>
    <line x1="351.36" y1="540.00" x2="351.36" y2="60.00"/>
    <line x1="371.84" y1="540.00" x2="371.84" y2="60.00"/>
    <line x1="392.32" y1="540.00" x2="392.32" y2="60.00"/>
    <line x1="433.28" y1="540.00" x2="433.28" y2="60.00"/>
    <line x1="453.76" y1="540.00" x2="453.76" y2="60.00"/>
    <line x1="474.24" y1="540.00" x2="474.24" y2="60.00"/>
    <line x1="494.72" y1="540.00" x2="494.72" y2="60.00"/>
    <line x1="535.68" y1="540.00" x2="535.68" y2="60.00"/>
    <line x1="556.16" y1="540.00" x2="556.16" y2="60.00"/>
    <line x1="576.64" y1="540.00" x2="576.64" y2="60.00"/>
    <line x1="597.12" y1="540.00" x2="597.12" y2="60.00"/>
    <line x1="638.08" y1="540.00" x2="638.08" y2="60.00"/>
    <line x1="658.56" y1="540.00" x2="658.56" y2="60.00"/>
    <line x1="679.04" y1="540.00" x2="679.04" y2="60.00"/>
    <line x1="699.52" y1="540.00" x2="699.52" y2="60.00"/>
    <line x1="80.00" y1="531.81" x2="720.00" y2="531.81"/>
    <line x1="80.00" y1="518.17" x2="720.00" y2="518.17"/>
    <line x1="80.00" y1="490.90" x2="720.00" y2="490.90"/>
    <line x1="80.00" y1="477.26" x2="720.00" y2="477.26"/>
    <line x1="80.00" y1="463.63" x2="720.00" y2="463.63"/>
    <line x1="80.00" y1="449.99" x2="720.00" y2="449.99"/>
    <line x1="80.00" y1="422.72" x2="720.00" y2="422.72"/>
    <line x1="80.00" y1="409.09" x2="720.00" y2="409.09"/>
    <line x1="80.00" y1="395.45" x2="720.00" y2="395.45"/>
    <line x1="80.00" y1="381.81" x2="720.00" y2="381.81"/>
    <line x1="80.00" y1="354.54" x2="720.00" y2="354.54"/>
    <line x1="80.00" y1="340.91" x2="720.00" y2="340.91"/>
    <line x1="80.00" y1="327.27" x2="720.00" y2="327.27"/>
    <line x1="80.00" y1="313.64" x2="720.00" y2="313.64"/>
    <line x1="80.00" y1="286.36" x2="720.00" y2="286.36"/>
    <line x1="80.00" y1="272.73" x2="720.00" y2="272.73"/>
    <line x1="80.00" y1="259.09" x2="720.00" y2="259.09"/>
    <line x1="80.00" y1="245.46" x2="720.00" y2="245.46"/>
    <line x1="80.00" y1="218.19" x2="720.00" y2="218.19"/>
    <line x1="80.00" y1="204.55" x2="720.00" y2="204.55"/>
    <line x1="80.00" y1="190.91" x2="720.00" y2="190.91"/>
    <line x1="80.00" y1="177.28" x2="720.00" y2="177.28"/>
    <line x1="80.00" y1="150.01" x2="720.00" y2="150.01"/>
    <line x1="80.00" y1="136.37" x2="720.00" y2="136.37"/>
    <line x1="80.00" y1="122.74" x2="720.00" y2="122.74"/>
    <line x1="80.00" y1="109.10" x2="720.00" y2="109.10"/>
    <line x1="80.00" y1="81.83" x2="720.00" y2="81.83"/>
    <line x1="80.00" y1="68.19" x2="720.00" y2="68.19"/>
  </g>
  <g stroke="#808080" stroke-width="2">
    <line x1="105.60" y1="540.00" x2="105.60" y2="60.00"/>
    <line x1="80.00" y1="300.00" x2="720.00" y2="300.00"/>
  </g>
  <polyline fill="none" stroke="#0066cc" stroke-width="2" points="719.92,294.86 719.68,289.72 719.27,284.59 718.71,279.46 717.98,274.35 717.09,269.24 716.05,264.16 714.84,259.08 713.47,254.03 711.95,249.00 710.27,243.99 708.43,239.01 706.44,234.06 704.29,229.14 701.99,224.25 699.54,219.40 696.93,214.59 694.18,209.82 691.28,205.08 688.23,200.40 685.04,195.76 681.71,191.17 678.23,186.63 674.62,182.15 670.86,177.71 666.97,173.34 662.95,169.03 658.80,164.78 654.52,160.59 650.11,156.46 645.58,152.40 640.92,148.41 636.15,144.50 631.26,140.65 626.25,136.88 621.14,133.18 615.91,129.56 610.58,126.02 605.14,122.56 599.60,119.18 593.97,115.88 588.24,112.67 582.42,109.55 576.51,106.51 570.52,103.56 564.44,100.70 558.28,97.93 552.05,95.25 545.75,92.66 539.37,90.17 532.93,87.77 526.43,85.47 519.87,83.26 513.25,81.15 506.58,79.14 499.86,77.23 493.09,75.41 486.28,73.70 479.43,72.08 472.55,70.57 465.64,69.16 458.70,67.84 451.73,66.63 444.74,65.52 437.74,64.51 430.72,63.61 423.69,62.80 416.65,62.10 409.61,61.49 402.57,60.99 395.53,60.59 388.50,60.30 381.48,60.10 374.48,60.00 367.49,60.00 360.53,60.10 353.58,60.30 346.67,60.60 339.79,61.00 332.94,61.49 326.13,62.08 319.36,62.76 312.63,63.54 305.95,64.42 299.33,65.38 292.75,66.44 286.23,67.58 279.78,68.82 273.38,70.14 267.05,71.56 260.79,73.05 254.61,74.64 248.49,76.30 242.46,78.05 236.50,79.88 230.62,81.78 224.83,83.77 219.13,85.83 213.52,87.96 208.00,90.17 202.57,92.45 197.25,94.79 192.02,97.21 186.89,99.69 181.86,102.24 176.94,104.84 172.13,107.51 167.43,110.24 162.84,113.02 158.36,115.86 153.99,118.75 149.74,121.70 145.61,124.69 141.60,127.73 137.70,130.81 133.93,133.93 130.28,137.10 126.75,140.30 123.35,143.55 120.07,146.82 116.92,150.13 113.90,153.47 111.00,156.84 108.24,160.23 105.60,163.64 103.09,167.08 100.71,170.54 98.46,174.01 96.34,177.50 94.35,181.00 92.50,184.51 90.77,188.04 89.17,191.56 87.70,195.10 86.37,198.63 85.16,202.16 84.08,205.69 83.13,209.22 82.30,212.74 81.61,216.25 81.04,219.76 80.59,223.25 80.27,226.72 80.07,230.18 80.00,233.62 80.05,237.04 80.22,240.43 80.50,243.80 80.91,247.15 81.43,250.47 82.06,253.75 82.81,257.01 83.67,260.23 84.64,263.41 85.71,266.56 86.90,269.67 88.19,272.74 89.58,275.77 91.07,278.75 92.66,281.69 94.34,284.58 96.12,287.42 97.99,290.21 99.95,292.95 102.00,295.64 104.13,298.27 106.35,300.85 108.64,303.38 111.01,305.84 113.46,308.25 115.98,310.60 118.57,312.88 121.23,315.11 123.95,317.27 126.73,319.37 129.58,321.40 132.47,323.37 135.43,325.27 138.43,327.11 141.48,328.88 144.57,330.58 147.71,332.21 150.89,333.77 154.10,335.26 157.34,336.69 160.62,338.04 163.92,339.32 167.25,340.53 170.60,341.68 173.97,342.75 177.35,343.74 180.74,344.67 184.15,345.53 187.56,346.31 190.97,347.02 194.39,347.67 197.80,348.24 201.21,348.74 204.61,349.17 208.00,349.53 211.37,349.83 214.73,350.05 218.07,350.21 221.39,350.29 224.68,350.32 227.94,350.27 231.18,350.16 234.38,349.98 237.54,349.74 240.67,349.44 243.75,349.07 246.80,348.65 249.79,348.16 252.74,347.61 255.64,347.01 258.48,346.34 261.27,345.63 264.00,344.85 266.67,344.03 269.27,343.15 271.82,342.22 274.30,341.24 276.70,340.21 279.04,339.13 281.31,338.01 283.50,336.85 285.62,335.64 287.66,334.39 289.62,333.10 291.50,331.78 293.30,330.42 295.01,329.02 296.64,327.59 298.19,326.13 299.65,324.65 301.01,323.13 302.29,321.59 303.48,320.02 304.58,318.43 305.58,316.82 306.49,315.19 307.31,313.55 308.03,311.89 308.66,310.21 309.19,308.53 309.62,306.83 309.96,305.13 310.21,303.42 310.35,301.71 310.40,300.00 310.35,298.29 310.21,296.58 309.96,294.87 309.62,293.17 309.19,291.47 308.66,289.79 308.03,288.11 307.31,286.45 306.49,284.81 305.58,283.18 304.58,281.57 303.48,279.98 302.29,278.41 301.01,276.87 299.65,275.35 298.19,273.87 296.64,272.41 295.01,270.98 293.30,269.58 291.50,268.22 289.62,266.90 287.66,265.61 285.62,264.36 283.50,263.15 281.31,261.99 279.04,260.87 276.70,259.79 274.30,258.76 271.82,257.78 269.27,256.85 266.67,255.97 264.00,255.15 261.27,254.37 258.48,253.66 255.64,252.99 252.74,252.39 249.79,251.84 246.80,251.35 243.75,250.93 240.67,250.56 237.54,250.26 234.38,250.02 231.18,249.84 227.94,249.73 224.68,249.68 221.39,249.71 218.07,249.79 214.73,249.95 211.37,250.17 208.00,250.47 204.61,250.83 201.21,251.26 197.80,251.76 194.39,252.33 190.97,252.98 187.56,253.69 184.15,254.47 180.74,255.33 177.35,256.26 173.97,257.25 170.60,258.32 167.25,259.47 163.92,260.68 160.62,261.96 157.34,263.31 154.10,264.74 150.89,266.23 147.71,267.79 144.57,269.42 141.48,271.12 138.43,272.89 135.43,274.73 132.47,276.63 129.58,278.60 126.73,280.63 123.95,282.73 121.23,284.89 118.57,287.12 115.98,289.40 113.46,291.75 111.01,294.16 108.64,296.62 106.35,299.15 104.13,301.73 102.00,304.36 99.95,307.05 97.99,309.79 96.12,312.58 94.34,315.42 92.66,318.31 91.07,321.25 89.58,324.23 88.19,327.26 86.90,330.33 85.71,333.44 84.64,336.59 83.67,339.77 82.81,342.99 82.06,346.25 81.43,349.53 80.91,352.85 80.50,356.20 80.22,359.57 80.05,362.96 80.00,366.38 80.07,369.82 80.27,373.28 80.59,376.75 81.04,380.24 81.61,383.75 82.30,387.26 83.13,390.78 84.08,394.31 85.16,397.84 86.37,401.37 87.70,404.90 89.17,408.44 90.77,411.96 92.50,415.49 94.35,419.00 96.34,422.50 98.46,425.99 100.71,429.46 103.09,432.92 105.60,436.36 108.24,439.77 111.00,443.16 113.90,446.53 116.92,449.87 120.07,453.18 123.35,456.45 126.75,459.70 130.28,462.90 133.93,466.07 137.70,469.19 141.60,472.27 145.61,475.31 149.74,478.30 153.99,481.25 158.36,484.14 162.84,486.98 167.43,489.76 172.13,492.49 176.94,495.16 181.86,497.76 186.89,500.31 192.02,502.79 197.25,505.21 202.57,507.55 208.00,509.83 213.52,512.04 219.13,514.17 224.83,516.23 230.62,518.22 236.50,520.12 242.46,521.95 248.49,523.70 254.61,525.36 260.79,526.95 267.05,528.44 273.38,529.86 279.78,531.18 286.23,532.42 292.75,533.56 299.33,534.62 305.95,535.58 312.63,536.46 319.36,537.24 326.13,537.92 332.94,538.51 339.79,539.00 346.67,539.40 353.58,539.70 360.53,539.90 367.49,540.00 374.48,540.00 381.48,539.90 388.50,539.70 395.53,539.41 402.57,539.01 409.61,538.51 416.65,537.90 423.69,537.20 430.72,536.39 437.74,535.49 444.74,534.48 451.73,533.37 458.70,532.16 465.64,530.84 472.55,529.43 479.43,527.92 486.28,526.30 493.09,524.59 499.86,522.77 506.58,520.86 513.25,518.85 519.87,516.74 526.43,514.53 532.93,512.23 539.37,509.83 545.75,507.34 552.05,504.75 558.28,502.07 564.44,499.30 570.52,496.44 576.51,493.49 582.42,490.45 588.24,487.33 593.97,484.12 599.60,480.82 605.14,477.44 610.58,473.98 615.91,470.44 621.14,466.82 626.25,463.12 631.26,459.35 636.15,455.50 640.92,451.59 645.58,447.60 650.11,443.54 654.52,439.41 658.80,435.22 662.95,430.97 666.97,426.66 670.86,422.29 674.62,417.85 678.23,413.37 681.71,408.83 685.04,404.24 688.23,399.60 691.28,394.92 694.18,390.18 696.93,385.41 699.54,380.60 701.99,375.75 704.29,370.86 706.44,365.94 708.43,360.99 710.27,356.01 711.95,351.00 713.47,345.97 714.84,340.92 716.05,335.84 717.09,330.76 717.98,325.65 718.71,320.54 719.27,315.41 719.68,310.28 719.92,305.14 720.00,300.00 "/>
</svg>
