<?xml version="1.0" encoding="UTF-8"?>
<svg xmlns="http://www.w3.org/2000/svg" width="800" height="600">
  <title>R=4*cos(t)+4</title>
  <rect width="800" height="600" fill="#ffffff"/>
  <g stroke="#d0d0d0" stroke-width="1">
    <line x1="80.00" y1="540.00" x2="80.00" y2="60.00"/>
    <line x1="151.11" y1="540.00" x2="151.11" y2="60.00"/>
    <line x1="222.22" y1="540.00" x2="222.22" y2="60.00"/>
    <line x1="293.33" y1="540.00" x2="293.33" y2="60.00"/>
    <line x1="364.44" y1="540.00" x2="364.44" y2="60.00"/>
    <line x1="435.55" y1="540.00" x2="435.55" y2="60.00"/>
    <line x1="506.67" y1="540.00" x2="506.67" y2="60.00"/>
    <line x1="577.78" y1="540.00" x2="577.78" y2="60.00"/>
    <line x1="648.89" y1="540.00" x2="648.89" y2="60.00"/>
    <line x1="720.00" y1="540.00" x2="720.00" y2="60.00"/>
    <line x1="80.00" y1="577.13" x2="720.00" y2="577.13"/>
    <line x1="80.00" y1="530.94" x2="720.00" y2="530.94"/>
    <line x1="80.00" y1="484.76" x2="720.00" y2="484.76"/>
    <line x1="80.00" y1="438.57" x2="720.00" y2="438.57"/>
    <line x1="80.00" y1="392.38" x2="720.00" y2="392.38"/>
    <line x1="80.00" y1="346.19" x2="720.00" y2="346.19"/>
    <line x1="80.00" y1="300.00" x2="720.00" y2="300.00"/>
    <line x1="80.00" y1="253.81" x2="720.00" y2="253.81"/>
    <line x1="80.00" y1="207.62" x2="720.00" y2="207.62"/>
    <line x1="80.00" y1="161.43" x2="720.00" y2="161.43"/>
    <line x1="80.00" y1="115.24" x2="720.00" y2="115.24"/>
    <line x1="80.00" y1="69.06" x2="720.00" y2="69.06"/>
    <line x1="80.00" y1="22.87" x2="720.00" y2="22.87"/>
  </g>
  <g stroke="#e8e8e8" stroke-width="0.5">
    <line x1="94.22" y1="540.00" x2="94.22" y2="60.00"/>
    <line x1="108.44" y1="540.00" x2="108.44" y2="60.00"/>
    <line x1="122.66" y1="540.00" x2="122.66" y2="60.00"/>
    <line x1="136.89" y1="540.00" x2="136.89" y2="60.00"/>
    <line x1="165.33" y1="540.00" x2="165.33" y2="60.00"/>
    <line x1="179.55" y1="540.00" x2="179.55" y2="60.00"/>
    <line x1="193.77" y1="540.00" x2="193.77" y2="60.00"/>
    <line x1="208.00" y1="540.00" x2="208.00" y2="60.00"/>
    <line x1="236.44" y1="540.00" x2="236.44" y2="60.00"/>
    <line x1="250.66" y1="540.00" x2="250.66" y2="60.00"/>
    <line x1="264.89" y1="540.00" x2="264.89" y2="60.00"/>
    <line x1="279.11" y1="540.00" x2="279.11" y2="60.00"/>
    <line x1="307.55" y1="540.00" x2="307.55" y2="60.00"/>
    <line x1="321.78" y1="540.00" x2="321.78" y2="60.00"/>
    <line x1="336.00" y1="540.00" x2="336.00" y2="60.00"/>
    <line x1="350.22" y1="540.00" x2="350.22" y2="60.00"/>
    <line x1="378.66" y1="540.00" x2="378.66" y2="60.00"/>
    <line x1="392.89" y1="540.00" x2="392.89" y2="60.00"/>
    <line x1="407.11" y1="540.00" x2="407.11" y2="60.00"/>
    <line x1="421.33" y1="540.00" x2="421.33" y2="60.00"/>
    <line x1="449.78" y1="540.00" x2="449.78" y2="60.00"/>
    <line x1="464.00" y1="540.00" x2="464.00" y2="60.00"/>
    <line x1="478.22" y1="540.00" x2="478.22" y2="60.00"/>
    <line x1="492.44" y1="540.00" x2="492.44" y2="60.00"/>
    <line x1="520.89" y1="540.00" x2="520.89" y2="60.00"/>
    <line x1="535.11" y1="540.00" x2="535.11" y2="60.00"/>
    <line x1="549.33" y1="540.00" x2="549.33" y2="60.00"/>
    <line x1="563.55" y1="540.00" x2="563.55" y2="60.00"/>
    <line x1="592.00" y1="540.00" x2="592.00" y2="60.00"/>
    <line x1="606.22" y1="540.00" x2="606.22" y2="60.00"/>
    <line x1="620.44" y1="540.00" x2="620.44" y2="60.00"/>
    <line x1="634.67" y1="540.00" x2="634.67" y2="60.00"/>
    <line x1="663.11" y1="540.00" x2="663.11" y2="60.00"/>
    <line x1="677.33" y1="540.00" x2="677.33" y2="60.00"/>
    <line x1="691.56" y1="540.00" x2="691.56" y2="60.00"/>
    <line x1="705.78" y1="540.00" x2="705.78" y2="60.00"/>
    <line x1="80.00" y1="521.71" x2="720.00" y2="521.71"/>
    <line x1="80.00" y1="512.47" x2="720.00" y2="512.47"/>
    <line x1="80.00" y1="503.23" x2="720.00" y2="503.23"/>
    <line x1="80.00" y1="493.99" x2="720.00" y2="493.99"/>
    <line x1="80.00" y1="475.52" x2="720.00" y2="475.52"/>
    <line x1="80.00" y1="466.28" x2="720.00" y2="466.28"/>
    <line x1="80.00" y1="457.04" x2="720.00" y2="457.04"/>
    <line x1="80.00" y1="447.80" x2="720.00" y2="447.80"/>
    <line x1="80.00" y1="429.33" x2="720.00" y2="429.33"/>
    <line x1="80.00" y1="420.09" x2="720.00" y2="420.09"/>
    <line x1="80.00" y1="410.85" x2="720.00" y2="410.85"/>
    <line x1="80.00" y1="401.62" x2="720.00" y2="401.62"/>
    <line x1="80.00" y1="383.14" x2="720.00" y2="383.14"/>
    <line x1="80.00" y1="373.90" x2="720.00" y2="373.90"/>
    <line x1="80.00" y1="364.66" x2="720.00" y2="364.66"/>
    <line x1="80.00" y1="355.43" x2="720.00" y2="355.43"/>
    <line x1="80.00" y1="336.95" x2="720.00" y2="336.95"/>
    <line x1="80.00" y1="327.71" x2="720.00" y2="327.71"/>
    <line x1="80.00" y1="318.48" x2="720.00" y2="318.48"/>
    <line x1="80.00" y1="309.24" x2="720.00" y2="309.24"/>
    <line x1="80.00" y1="290.76" x2="720.00" y2="290.76"/>
    <line x1="80.00" y1="281.52" x2="720.00" y2="281.52"/>
    <line x1="80.00" y1="272.29" x2="720.00" y2="272.29"/>
    <line x1="80.00" y1="263.05" x2="720.00" y2="263.05"/>
    <line x1="80.00" y1="244.57" x2="720.00" y2="244.57"/>
    <line x1="80.00" y1="235.34" x2="720.00" y2="235.34"/>
    <line x1="80.00" y1="226.10" x2="720.00" y2="226.10"/>
    <line x1="80.00" y1="216.86" x2="720.00" y2="216.86"/>
    <line x1="80.00" y1="198.38" x2="720.00" y2="198.38"/>
    <line x1="80.00" y1="189.15" x2="720.00" y2="189.15"/>
    <line x1="80.00" y1="179.91" x2="720.00" y2="179.91"/>
    <line x1="80.00" y1="170.67" x2="720.00" y2="170.67"/>
    <line x1="80.00" y1="152.20" x2="720.00" y2="152.20"/>
    <line x1="80.00" y1="142.96" x2="720.00" y2="142.96"/>
    <line x1="80.00" y1="133.72" x2="720.00" y2="133.72"/>
    <line x1="80.00" y1="124.48" x2="720.00" y2="124.48"/>
    <line x1="80.00" y1="106.01" x2="720.00" y2="106.01"/>
    <line x1="80.00" y1="96.77" x2="720.00" y2="96.77"/>
    <line x1="80.00" y1="87.53" x2="720.00" y2="87.53"/>
    <line x1="80.00" y1="78.29" x2="720.00" y2="78.29"/>
    <line x1="80.00" y1="59.82" x2="720.00" y2="59.82"/>
  </g>
  <g stroke="#808080" stroke-width="2">
    <line x1="151.11" y1="540.00" x2="151.11" y2="60.00"/>
    <line x1="80.00" y1="300.00" x2="720.00" y2="300.00"/>
  </g>
  <polyline fill="none" stroke="#0066cc" stroke-width="2" points="719.93,295.36 719.73,290.72 719.39,286.08 718.92,281.45 718.32,276.82 717.58,272.21 716.70,267.60 715.70,263.01 714.56,258.43 713.29,253.87 711.89,249.33 710.35,244.81 708.69,240.30 706.90,235.83 704.97,231.37 702.92,226.95 700.75,222.55 698.45,218.19 696.02,213.85 693.47,209.55 690.80,205.28 688.01,201.06 685.09,196.87 682.06,192.72 678.92,188.61 675.65,184.54 672.28,180.53 668.79,176.55 665.19,172.63 661.48,168.75 657.66,164.92 653.74,161.15 649.72,157.43 645.59,153.77 641.36,150.16 637.04,146.61 632.62,143.11 628.10,139.68 623.50,136.31 618.80,133.00 614.02,129.75 609.15,126.57 604.20,123.45 599.16,120.40 594.05,117.42 588.87,114.50 583.60,111.66 578.27,108.88 572.87,106.18 567.40,103.55 561.87,100.99 556.28,98.50 550.62,96.09 544.91,93.75 539.15,91.49 533.34,89.31 527.47,87.20 521.56,85.16 515.61,83.21 509.61,81.33 503.58,79.53 497.51,77.81 491.41,76.17 485.28,74.61 479.12,73.12 472.93,71.72 466.72,70.40 460.50,69.15 454.25,67.99 447.99,66.90 441.72,65.90 435.44,64.97 429.16,64.13 422.87,63.36 416.57,62.67 410.28,62.07 404.00,61.54 397.72,61.09 391.45,60.71 385.19,60.42 378.94,60.20 372.72,60.06 366.51,60.00 360.32,60.01 354.16,60.10 348.02,60.26 341.91,60.50 335.84,60.81 329.79,61.19 323.79,61.65 317.82,62.18 311.89,62.77 306.00,63.44 300.16,64.18 294.37,64.98 288.62,65.85 282.93,66.79 277.28,67.79 271.70,68.86 266.17,69.99 260.70,71.18 255.29,72.43 249.94,73.75 244.66,75.12 239.44,76.55 234.29,78.03 229.21,79.57 224.20,81.17 219.26,82.81 214.40,84.51 209.61,86.26 204.89,88.06 200.26,89.90 195.70,91.79 191.23,93.73 186.83,95.71 182.52,97.73 178.29,99.79 174.15,101.89 170.09,104.03 166.12,106.21 162.23,108.42 158.44,110.66 154.73,112.94 151.11,115.24 147.58,117.58 144.14,119.94 140.79,122.33 137.53,124.75 134.37,127.19 131.30,129.65 128.31,132.13 125.43,134.63 122.63,137.14 119.93,139.67 117.31,142.22 114.80,144.78 112.37,147.35 110.04,149.93 107.80,152.52 105.65,155.12 103.59,157.72 101.62,160.33 99.75,162.94 97.96,165.55 96.27,168.16 94.66,170.77 93.14,173.38 91.71,175.99 90.37,178.59 89.12,181.18 87.95,183.76 86.86,186.34 85.86,188.90 84.94,191.46 84.11,194.00 83.35,196.52 82.68,199.03 82.08,201.53 81.56,204.01 81.12,206.47 80.75,208.90 80.46,211.32 80.24,213.72 80.09,216.09 80.01,218.45 80.00,220.77 80.06,223.07 80.18,225.35 80.36,227.59 80.61,229.81 80.92,232.00 81.28,234.16 81.71,236.29 82.19,238.39 82.72,240.45 83.31,242.49 83.95,244.49 84.63,246.45 85.37,248.38 86.15,250.28 86.97,252.14 87.84,253.97 88.74,255.76 89.68,257.51 90.66,259.23 91.68,260.91 92.72,262.55 93.80,264.16 94.91,265.72 96.04,267.25 97.20,268.74 98.38,270.19 99.59,271.60 100.81,272.97 102.05,274.31 103.31,275.60 104.58,276.86 105.86,278.08 107.16,279.26 108.46,280.40 109.77,281.51 111.08,282.57 112.40,283.60 113.72,284.59 115.04,285.54 116.36,286.46 117.67,287.34 118.98,288.18 120.28,288.99 121.57,289.76 122.85,290.50 124.12,291.21 125.37,291.88 126.61,292.51 127.84,293.12 129.04,293.69 130.23,294.23 131.39,294.74 132.54,295.22 133.65,295.68 134.75,296.10 135.82,296.49 136.86,296.86 137.87,297.21 138.85,297.52 139.80,297.82 140.72,298.09 141.60,298.33 142.45,298.56 143.27,298.76 144.05,298.94 144.79,299.11 145.49,299.26 146.16,299.39 146.78,299.50 147.37,299.60 147.92,299.69 148.42,299.76 148.88,299.82 149.30,299.87 149.68,299.91 150.01,299.94 150.30,299.96 150.55,299.98 150.75,299.99 150.91,300.00 151.02,300.00 151.09,300.00 151.11,300.00 151.09,300.00 151.02,300.00 150.91,300.00 150.75,300.01 150.55,300.02 150.30,300.04 150.01,300.06 149.68,300.09 149.30,300.13 148.88,300.18 148.42,300.24 147.92,300.31 147.37,300.40 146.78,300.50 146.16,300.61 145.49,300.74 144.79,300.89 144.05,301.06 143.27,301.24 142.45,301.44 141.60,301.67 140.72,301.91 139.80,302.18 138.85,302.48 137.87,302.79 136.86,303.14 135.82,303.51 134.75,303.90 133.65,304.32 132.54,304.78 131.39,305.26 130.23,305.77 129.04,306.31 127.84,306.88 126.61,307.49 125.37,308.12 124.12,308.79 122.85,309.50 121.57,310.24 120.28,311.01 118.98,311.82 117.67,312.66 116.36,313.54 115.04,314.46 113.72,315.41 112.40,316.40 111.08,317.43 109.77,318.49 108.46,319.60 107.16,320.74 105.86,321.92 104.58,323.14 103.31,324.40 102.05,325.69 100.81,327.03 99.59,328.40 98.38,329.81 97.20,331.26 96.04,332.75 94.91,334.28 93.80,335.84 92.72,337.45 91.68,339.09 90.66,340.77 89.68,342.49 88.74,344.24 87.84,346.03 86.97,347.86 86.15,349.72 85.37,351.62 84.63,353.55 83.95,355.51 83.31,357.51 82.72,359.55 82.19,361.61 81.71,363.71 81.28,365.84 80.92,368.00 80.61,370.19 80.36,372.41 80.18,374.65 80.06,376.93 80.00,379.23 80.01,381.55 80.09,383.91 80.24,386.28 80.46,388.68 80.75,391.10 81.12,393.53 81.56,395.99 82.08,398.47 82.68,400.97 83.35,403.48 84.11,406.00 84.94,408.54 85.86,411.10 86.86,413.66 87.95,416.24 89.12,418.82 90.37,421.41 91.71,424.01 93.14,426.62 94.66,429.23 96.27,431.84 97.96,434.45 99.75,437.06 101.62,439.67 103.59,442.28 105.65,444.88 107.80,447.48 110.04,450.07 112.37,452.65 114.80,455.22 117.31,457.78 119.93,460.33 122.63,462.86 125.43,465.37 128.31,467.87 131.30,470.35 134.37,472.81 137.53,475.25 140.79,477.67 144.14,480.06 147.58,482.42 151.11,484.76 154.73,487.06 158.44,489.34 162.23,491.58 166.12,493.79 170.09,495.97 174.15,498.11 178.29,500.21 182.52,502.27 186.83,504.29 191.23,506.27 195.70,508.21 200.26,510.10 204.89,511.94 209.61,513.74 214.40,515.49 219.26,517.19 224.20,518.83 229.21,520.43 234.29,521.97 239.44,523.45 244.66,524.88 249.94,526.25 255.29,527.57 260.70,528.82 266.17,530.01 271.70,531.14 277.28,532.21 282.93,533.21 288.62,534.15 294.37,535.02 300.16,535.82 306.00,536.56 311.89,537.23 317.82,537.82 323.79,538.35 329.79,538.81 335.84,539.19 341.91,539.50 348.02,539.74 354.16,539.90 360.32,539.99 366.51,540.00 372.72,539.94 378.94,539.80 385.19,539.58 391.45,539.29 397.72,538.91 404.00,538.46 410.28,537.93 416.57,537.33 422.87,536.64 429.16,535.87 435.44,535.03 441.72,534.10 447.99,533.10 454.25,532.01 460.50,530.85 466.72,529.60 472.93,528.28 479.12,526.88 485.28,525.39 491.41,523.83 497.51,522.19 503.58,520.47 509.61,518.67 515.61,516.79 521.56,514.84 527.47,512.80 533.34,510.69 539.15,508.51 544.91,506.25 550.62,503.91 556.28,501.50 561.87,499.01 567.40,496.45 572.87,493.82 578.27,491.12 583.60,488.34 588.87,485.50 594.05,482.58 599.16,479.60 604.20,476.55 609.15,473.43 614.02,470.25 618.80,467.00 623.50,463.69 628.10,460.32 632.62,456.89 637.04,453.39 641.36,449.84 645.59,446.23 649.72,442.57 653.74,438.85 657.66,435.08 661.48,431.25 665.19,427.37 668.79,423.45 672.28,419.47 675.65,415.46 678.92,411.39 682.06,407.28 685.09,403.13 688.01,398.94 690.80,394.72 693.47,390.45 696.02,386.15 698.45,381.81 700.75,377.45 702.92,373.05 704.97,368.63 706.90,364.17 708.69,359.70 710.35,355.19 711.89,350.67 713.29,346.13 714.56,341.57 715.70,336.99 716.70,332.40 717.58,327.79 718.32,323.18 718.92,318.55 719.39,313.92 719.73,309.28 719.93,304.64 720.00,300.00 "/>
</svg>
