<?xml version="1.0" encoding="UTF-8"?>
<svg xmlns="http://www.w3.org/2000/svg" width="800" height="600">
  <title>R=3*sin(t)/t:-2,2:</title>
  <rect width="800" height="600" fill="#ffffff"/>
  <g stroke="#d0d0d0" stroke-width="1">
    <line x1="18.94" y1="540.00" x2="18.94" y2="60.00"/>
    <line x1="194.22" y1="540.00" x2="194.22" y2="60.00"/>
    <line x1="369.50" y1="540.00" x2="369.50" y2="60.00"/>
    <line x1="544.78" y1="540.00" x2="544.78" y2="60.00"/>
    <line x1="720.06" y1="540.00" x2="720.06" y2="60.00"/>
    <line x1="80.00" y1="631.22" x2="720.00" y2="631.22"/>
    <line x1="80.00" y1="520.81" x2="720.00" y2="520.81"/>
    <line x1="80.00" y1="410.41" x2="720.00" y2="410.41"/>
    <line x1="80.00" y1="300.00" x2="720.00" y2="300.00"/>
    <line x1="80.00" y1="189.59" x2="720.00" y2="189.59"/>
    <line x1="80.00" y1="79.19" x2="720.00" y2="79.19"/>
    <line x1="80.00" y1="-31.22" x2="720.00" y2="-31.22"/>
  </g>
  <g stroke="#e8e8e8" stroke-width="0.5">
    <line x1="89.05" y1="540.00" x2="89.05" y2="60.00"/>
    <line x1="124.11" y1="540.00" x2="124.11" y2="60.00"/>
    <line x1="159.16" y1="540.00" x2="159.16" y2="60.00"/>
    <line x1="229.27" y1="540.00" x2="229.27" y2="60.00"/>
    <line x1="264.33" y1="540.00" x2="264.33" y2="60.00"/>
    <line x1="299.39" y1="540.00" x2="299.39" y2="60.00"/>
    <line x1="334.44" y1="540.00" x2="334.44" y2="60.00"/>
    <line x1="404.55" y1="540.00" x2="404.55" y2="60.00"/>
    <line x1="439.61" y1="540.00" x2="439.61" y2="60.00"/>
    <line x1="474.66" y1="540.00" x2="474.66" y2="60.00"/>
    <line x1="509.72" y1="540.00" x2="509.72" y2="60.00"/>
    <line x1="579.83" y1="540.00" x2="579.83" y2="60.00"/>
    <line x1="614.89" y1="540.00" x2="614.89" y2="60.00"/>
    <line x1="649.94" y1="540.00" x2="649.94" y2="60.00"/>
    <line x1="685.00" y1="540.00" x2="685.00" y2="60.00"/>
    <line x1="80.00" y1="498.73" x2="720.00" y2="498.73"/>
    <line x1="80.00" y1="476.65" x2="720.00" y2="476.65"/>
    <line x1="80.00" y1="454.57" x2="720.00" y2="454.57"/>
    <line x1="80.00" y1="432.49" x2="720.00" y2="432.49"/>
    <line x1="80.00" y1="388.33" x2="720.00" y2="388.33"/>
    <line x1="80.00" y1="366.24" x2="720.00" y2="366.24"/>
    <line x1="80.00" y1="344.16" x2="720.00" y2="344.16"/>
    <line x1="80.00" y1="322.08" x2="720.00" y2="322.08"/>
    <line x1="80.00" y1="277.92" x2="720.00" y2="277.92"/>
    <line x1="80.00" y1="255.84" x2="720.00" y2="255.84"/>
    <line x1="80.00" y1="233.76" x2="720.00" y2="233.76"/>
    <line x1="80.00" y1="211.67" x2="720.00" y2="211.67"/>
    <line x1="80.00" y1="167.51" x2="720.00" y2="167.51"/>
    <line x1="80.00" y1="145.43" x2="720.00" y2="145.43"/>
    <line x1="80.00" y1="123.35" x2="720.00" y2="123.35"/>
    <line x1="80.00" y1="101.27" x2="720.00" y2="101.27"/>
  </g>
  <g stroke="#808080" stroke-width="2">
    <line x1="194.22" y1="540.00" x2="194.22" y2="60.00"/>
    <line x1="80.00" y1="300.00" x2="720.00" y2="300.00"/>
  </g>
  <polyline fill="none" stroke="#0066cc" stroke-width="2" points="194.22,300.00 192.10,300.03 189.98,300.13 187.84,300.30 185.71,300.54 183.58,300.85 181.46,301.22 179.35,301.67 177.27,302.18 175.21,302.76 173.18,303.41 171.19,304.12 169.24,304.91 167.33,305.75 165.48,306.66 163.69,307.63 161.96,308.66 160.30,309.75 158.71,310.90 157.19,312.10 155.76,313.35 154.41,314.65 153.15,316.00 151.99,317.40 150.92,318.83 149.95,320.31 149.09,321.82 148.33,323.37 147.69,324.94 147.16,326.54 146.74,328.17 146.44,329.81 146.26,331.47 146.20,333.14 146.26,334.82 146.44,336.51 146.75,338.20 147.18,339.88 147.73,341.55 148.41,343.22 149.21,344.87 150.14,346.50 151.18,348.11 152.35,349.69 153.63,351.25 155.03,352.77 156.54,354.25 158.17,355.69 159.90,357.09 161.73,358.43 163.67,359.73 165.71,360.97 167.83,362.15 170.05,363.27 172.35,364.33 174.73,365.32 177.19,366.23 179.71,367.08 182.30,367.85 184.95,368.54 187.64,369.16 190.39,369.69 193.17,370.14 195.98,370.51 198.82,370.78 201.68,370.98 204.55,371.08 207.42,371.10 210.30,371.02 213.16,370.86 216.01,370.60 218.83,370.26 221.63,369.83 224.38,369.31 227.09,368.70 229.75,368.01 232.35,367.23 234.88,366.36 237.33,365.42 239.71,364.39 241.99,363.29 244.18,362.11 246.27,360.85 248.26,359.53 250.12,358.14 251.87,356.69 253.50,355.17 254.99,353.60 256.34,351.98 257.56,350.31 258.62,348.59 259.54,346.83 260.30,345.04 260.90,343.21 261.34,341.36 261.62,339.49 261.72,337.60 261.66,335.69 261.42,333.79 261.00,331.88 260.41,329.97 259.65,328.08 258.70,326.20 257.58,324.35 256.28,322.52 254.81,320.72 253.16,318.96 251.33,317.25 249.34,315.58 247.17,313.97 244.84,312.42 242.35,310.94 239.69,309.53 236.89,308.19 233.93,306.94 230.82,305.78 227.58,304.71 224.20,303.73 220.69,302.86 217.06,302.10 213.32,301.45 209.47,300.91 205.52,300.49 201.48,300.20 197.36,300.04 193.16,300.00 188.90,300.11 184.58,300.34 180.21,300.72 175.81,301.25 171.38,301.91 166.94,302.73 162.49,303.69 158.04,304.80 153.61,306.07 149.21,307.49 144.84,309.05 140.52,310.78 136.27,312.65 132.08,314.68 127.98,316.86 123.97,319.19 120.06,321.67 116.27,324.30 112.61,327.07 109.09,329.99 105.72,333.05 102.51,336.24 99.47,339.57 96.61,343.03 93.95,346.62 91.49,350.33 89.24,354.16 87.21,358.10 85.42,362.15 83.86,366.31 82.56,370.56 81.51,374.90 80.73,379.32 80.23,383.83 80.00,388.41 80.06,393.05 80.42,397.75 81.08,402.50 82.04,407.30 83.31,412.13 84.90,416.99 86.81,421.86 89.04,426.75 91.60,431.64 94.48,436.53 97.69,441.40 101.24,446.26 105.11,451.08 109.32,455.86 113.86,460.59 118.73,465.26 123.92,469.87 129.45,474.41 135.29,478.86 141.46,483.22 147.94,487.47 154.74,491.62 161.83,495.65 169.23,499.56 176.93,503.33 184.91,506.96 193.17,510.44 201.70,513.76 210.49,516.91 219.54,519.89 228.83,522.69 238.35,525.31 248.10,527.73 258.06,529.95 268.22,531.96 278.57,533.76 289.10,535.35 299.79,536.71 310.63,537.84 321.60,538.74 332.70,539.40 343.91,539.82 355.21,540.00 366.59,539.93 378.04,539.61 389.54,539.03 401.06,538.20 412.61,537.12 424.16,535.77 435.70,534.17 447.21,532.31 458.67,530.19 470.07,527.81 481.40,525.17 492.63,522.27 503.76,519.12 514.76,515.71 525.61,512.06 536.32,508.15 546.85,504.00 557.19,499.61 567.34,494.98 577.26,490.11 586.96,485.02 596.41,479.71 605.60,474.18 614.52,468.43 623.15,462.48 631.48,456.33 639.50,449.99 647.20,443.46 654.57,436.76 661.58,429.89 668.25,422.85 674.54,415.67 680.46,408.33 686.00,400.87 691.14,393.27 695.89,385.56 700.22,377.74 704.14,369.82 707.64,361.82 710.71,353.73 713.36,345.58 715.57,337.37 717.34,329.12 718.67,320.83 719.56,312.51 720.00,304.17 720.00,295.83 719.56,287.49 718.67,279.17 717.34,270.88 715.57,262.63 713.36,254.42 710.71,246.27 707.64,238.18 704.14,230.18 700.22,222.26 695.89,214.44 691.14,206.73 686.00,199.13 680.46,191.67 674.54,184.33 668.25,177.15 661.58,170.11 654.57,163.24 647.20,156.54 639.50,150.01 631.48,143.67 623.15,137.52 614.52,131.57 605.60,125.82 596.41,120.29 586.96,114.98 577.26,109.89 567.34,105.02 557.19,100.39 546.85,96.00 536.32,91.85 525.61,87.94 514.76,84.29 503.76,80.88 492.63,77.73 481.40,74.83 470.07,72.19 458.67,69.81 447.21,67.69 435.70,65.83 424.16,64.23 412.61,62.88 401.06,61.80 389.54,60.97 378.04,60.39 366.59,60.07 355.21,60.00 343.91,60.18 332.70,60.60 321.60,61.26 310.63,62.16 299.79,63.29 289.10,64.65 278.57,66.24 268.22,68.04 258.06,70.05 248.10,72.27 238.35,74.69 228.83,77.31 219.54,80.11 210.49,83.09 201.70,86.24 193.17,89.56 184.91,93.04 176.93,96.67 169.23,100.44 161.83,104.35 154.74,108.38 147.94,112.53 141.46,116.78 135.29,121.14 129.45,125.59 123.92,130.13 118.73,134.74 113.86,139.41 109.32,144.14 105.11,148.92 101.24,153.74 97.69,158.60 94.48,163.47 91.60,168.36 89.04,173.25 86.81,178.14 84.90,183.01 83.31,187.87 82.04,192.70 81.08,197.50 80.42,202.25 80.06,206.95 80.00,211.59 80.23,216.17 80.73,220.68 81.51,225.10 82.56,229.44 83.86,233.69 85.42,237.85 87.21,241.90 89.24,245.84 91.49,249.67 93.95,253.38 96.61,256.97 99.47,260.43 102.51,263.76 105.72,266.95 109.09,270.01 112.61,272.93 116.27,275.70 120.06,278.33 123.97,280.81 127.98,283.14 132.08,285.32 136.27,287.35 140.52,289.22 144.84,290.95 149.21,292.51 153.61,293.93 158.04,295.20 162.49,296.31 166.94,297.27 171.38,298.09 175.81,298.75 180.21,299.28 184.58,299.66 188.90,299.89 193.16,300.00 197.36,299.96 201.48,299.80 205.52,299.51 209.47,299.09 213.32,298.55 217.06,297.90 220.69,297.14 224.20,296.27 227.58,295.29 230.82,294.22 233.93,293.06 236.89,291.81 239.69,290.47 242.35,289.06 244.84,287.58 247.17,286.03 249.34,284.42 251.33,282.75 253.16,281.04 254.81,279.28 256.28,277.48 257.58,275.65 258.70,273.80 259.65,271.92 260.41,270.03 261.00,268.12 261.42,266.21 261.66,264.31 261.72,262.40 261.62,260.51 261.34,258.64 260.90,256.79 260.30,254.96 259.54,253.17 258.62,251.41 257.56,249.69 256.34,248.02 254.99,246.40 253.50,244.83 251.87,243.31 250.12,241.86 248.26,240.47 246.27,239.15 244.18,237.89 241.99,236.71 239.71,235.61 237.33,234.58 234.88,233.64 232.35,232.77 229.75,231.99 227.09,231.30 224.38,230.69 221.63,230.17 218.83,229.74 216.01,229.40 213.16,229.14 210.30,228.98 207.42,228.90 204.55,228.92 201.68,229.02 198.82,229.22 195.98,229.49 193.17,229.86 190.39,230.31 187.64,230.84 184.95,231.46 182.30,232.15 179.71,232.92 177.19,233.77 174.73,234.68 172.35,235.67 170.05,236.73 167.83,237.85 165.71,239.03 163.67,240.27 161.73,241.57 159.90,242.91 158.17,244.31 156.54,245.75 155.03,247.23 153.63,248.75 152.35,250.31 151.18,251.89 150.14,253.50 149.21,255.13 148.41,256.78 147.73,258.45 147.18,260.12 146.75,261.80 146.44,263.49 146.26,265.18 146.20,266.86 146.26,268.53 146.44,270.19 146.74,271.83 147.16,273.46 147.69,275.06 148.33,276.63 149.09,278.18 149.95,279.69 150.92,281.17 151.99,282.60 153.15,284.00 154.41,285.35 155.76,286.65 157.19,287.90 158.71,289.10 160.30,290.25 161.96,291.34 163.69,292.37 165.48,293.34 167.33,294.25 169.24,295.09 171.19,295.88 173.18,296.59 175.21,297.24 177.27,297.82 179.35,298.33 181.46,298.78 183.58,299.15 185.71,299.46 187.84,299.70 189.98,299.87 192.10,299.97 194.22,300.00 "/>
</svg>
