<?xml version="1.0" encoding="UTF-8"?>
<svg xmlns="http://www.w3.org/2000/svg" width="800" height="600">
  <title>R=1+2*sin(t/2):-2,2:</title>
  <rect width="800" height="600" fill="#ffffff"/>
  <g stroke="#d0d0d0" stroke-width="1">
    <line x1="79.99" y1="540.00" x2="79.99" y2="60.00"/>
    <line x1="228.29" y1="540.00" x2="228.29" y2="60.00"/>
    <line x1="376.60" y1="540.00" x2="376.60" y2="60.00"/>
    <line x1="524.90" y1="540.00" x2="524.90" y2="60.00"/>
    <line x1="673.20" y1="540.00" x2="673.20" y2="60.00"/>
    <line x1="821.50" y1="540.00" x2="821.50" y2="60.00"/>
    <line x1="80.00" y1="588.05" x2="720.00" y2="588.05"/>
    <line x1="80.00" y1="492.03" x2="720.00" y2="492.03"/>
    <line x1="80.00" y1="396.02" x2="720.00" y2="396.02"/>
    <line x1="80.00" y1="300.00" x2="720.00" y2="300.00"/>
    <line x1="80.00" y1="203.98" x2="720.00" y2="203.98"/>
    <line x1="80.00" y1="107.96" x2="720.00" y2="107.96"/>
    <line x1="80.00" y1="11.95" x2="720.00" y2="11.95"/>
  </g>
  <g stroke="#e8e8e8" stroke-width="0.5">
    <line x1="109.65" y1="540.00" x2="109.65" y2="60.00"/>
    <line x1="139.31" y1="540.00" x2="139.31" y2="60.00"/>
    <line x1="168.97" y1="540.00" x2="168.97" y2="60.00"/>
    <line x1="198.63" y1="540.00" x2="198.63" y2="60.00"/>
    <line x1="257.95" y1="540.00" x2="257.95" y2="60.00"/>
    <line x1="287.61" y1="540.00" x2="287.61" y2="60.00"/>
    <line x1="317.27" y1="540.00" x2="317.27" y2="60.00"/>
    <line x1="346.93" y1="540.00" x2="346.93" y2="60.00"/>
    <line x1="406.26" y1="540.00" x2="406.26" y2="60.00"/>
    <line x1="435.92" y1="540.00" x2="435.92" y2="60.00"/>
    <line x1="465.58" y1="540.00" x2="465.58" y2="60.00"/>
    <line x1="495.24" y1="540.00" x2="495.24" y2="60.00"/>
    <line x1="554.56" y1="540.00" x2="554.56" y2="60.00"/>
    <line x1="584.22" y1="540.00" x2="584.22" y2="60.00"/>
    <line x1="613.88" y1="540.00" x2="613.88" y2="60.00"/>
    <line x1="643.54" y1="540.00" x2="643.54" y2="60.00"/>
    <line x1="702.86" y1="540.00" x2="702.86" y2="60.00"/>
    <line x1="80.00" y1="530.44" x2="720.00" y2="530.44"/>
    <line x1="80.00" y1="511.24" x2="720.00" y2="511.24"/>
    <line x1="80.00" y1="472.83" x2="720.00" y2="472.83"/>
    <line x1="80.00" y1="453.63" x2="720.00" y2="453.63"/>
    <line x1="80.00" y1="434.42" x2="720.00" y2="434.42"/>
    <line x1="80.00" y1="415.22" x2="720.00" y2="415.22"/>
    <line x1="80.00" y1="376.81" x2="720.00" y2="376.81"/>
    <line x1="80.00" y1="357.61" x2="720.00" y2="357.61"/>
    <line x1="80.00" y1="338.41" x2="720.00" y2="338.41"/>
    <line x1="80.00" y1="319.20" x2="720.00" y2="319.20"/>
    <line x1="80.00" y1="280.80" x2="720.00" y2="280.80"/>
    <line x1="80.00" y1="261.59" x2="720.00" y2="261.59"/>
    <line x1="80.00" y1="242.39" x2="720.00" y2="242.39"/>
    <line x1="80.00" y1="223.19" x2="720.00" y2="223.19"/>
    <line x1="80.00" y1="184.78" x2="720.00" y2="184.78"/>
    <line x1="80.00" y1="165.58" x2="720.00" y2="165.58"/>
    <line x1="80.00" y1="146.37" x2="720.00" y2="146.37"/>
    <line x1="80.00" y1="127.17" x2="720.00" y2="127.17"/>
    <line x1="80.00" y1="88.76" x2="720.00" y2="88.76"/>
    <line x1="80.00" y1="69.56" x2="720.00" y2="69.56"/>
  </g>
  <g stroke="#808080" stroke-width="2">
    <line x1="524.90" y1="540.00" x2="524.90" y2="60.00"/>
    <line x1="80.00" y1="300.00" x2="720.00" y2="300.00"/>
  </g>
  <polyline fill="none" stroke="#0066cc" stroke-width="2" points="673.20,300.00 669.42,297.64 665.55,295.41 661.61,293.30 657.59,291.32 653.51,289.46 649.38,287.73 645.20,286.13 640.98,284.65 636.73,283.30 632.45,282.08 628.16,280.99 623.86,280.03 619.56,279.19 615.26,278.47 610.98,277.88 606.73,277.42 602.50,277.07 598.30,276.85 594.15,276.74 590.06,276.75 586.01,276.88 582.03,277.11 578.12,277.46 574.29,277.91 570.54,278.47 566.88,279.13 563.31,279.89 559.84,280.75 556.48,281.69 553.22,282.73 550.08,283.85 547.06,285.05 544.16,286.34 541.39,287.69 538.75,289.12 536.25,290.61 533.88,292.17 531.66,293.79 529.58,295.46 527.65,297.18 525.87,298.95 524.24,300.76 522.76,302.61 521.44,304.49 520.28,306.40 519.27,308.33 518.42,310.29 517.73,312.26 517.20,314.24 516.82,316.23 516.61,318.22 516.55,320.22 516.65,322.20 516.90,324.18 517.31,326.14 517.88,328.08 518.59,330.00 519.45,331.89 520.46,333.76 521.61,335.59 522.90,337.38 524.33,339.13 525.89,340.83 527.59,342.49 529.41,344.09 531.35,345.64 533.41,347.12 535.59,348.55 537.88,349.91 540.27,351.20 542.77,352.43 545.36,353.58 548.04,354.65 550.81,355.65 553.65,356.57 556.57,357.41 559.57,358.16 562.62,358.83 565.73,359.41 568.89,359.90 572.10,360.31 575.35,360.62 578.63,360.84 581.94,360.98 585.27,361.01 588.62,360.96 591.97,360.81 595.33,360.57 598.69,360.24 602.04,359.82 605.37,359.30 608.68,358.69 611.97,357.99 615.22,357.20 618.43,356.32 621.60,355.36 624.72,354.30 627.78,353.17 630.78,351.95 633.71,350.65 636.58,349.27 639.36,347.81 642.07,346.27 644.69,344.67 647.21,342.99 649.65,341.25 651.98,339.44 654.21,337.57 656.33,335.64 658.33,333.65 660.23,331.61 662.00,329.52 663.66,327.39 665.19,325.21 666.59,322.99 667.86,320.73 669.00,318.44 670.01,316.13 670.88,313.78 671.61,311.42 672.21,309.03 672.67,306.64 672.99,304.23 673.16,301.81 673.20,299.40 673.09,296.98 672.84,294.57 672.46,292.16 671.93,289.77 671.26,287.40 670.46,285.04 669.52,282.71 668.45,280.41 667.24,278.14 665.90,275.90 664.44,273.70 662.85,271.54 661.13,269.43 659.30,267.36 657.34,265.35 655.28,263.39 653.10,261.49 650.82,259.65 648.44,257.87 645.96,256.16 643.39,254.52 640.73,252.95 637.98,251.45 635.16,250.03 632.26,248.69 629.29,247.43 626.26,246.25 623.16,245.16 620.02,244.15 616.83,243.23 613.60,242.39 610.33,241.65 607.03,240.99 603.71,240.43 600.37,239.96 597.01,239.58 593.65,239.29 590.30,239.10 586.94,239.00 583.60,238.99 580.28,239.08 576.99,239.26 573.72,239.52 570.49,239.88 567.30,240.33 564.17,240.87 561.08,241.50 558.06,242.21 555.11,243.00 552.22,243.88 549.41,244.84 546.69,245.87 544.05,246.99 541.51,248.17 539.06,249.43 536.72,250.76 534.49,252.16 532.37,253.61 530.36,255.13 528.48,256.71 526.72,258.33 525.09,260.01 523.60,261.74 522.24,263.51 521.01,265.32 519.93,267.17 519.00,269.05 518.21,270.96 517.58,272.89 517.09,274.84 516.76,276.81 516.58,278.79 516.56,280.78 516.69,282.77 516.99,284.76 517.44,286.75 518.05,288.73 518.82,290.69 519.75,292.64 520.84,294.56 522.08,296.46 523.48,298.32 525.03,300.15 526.74,301.94 528.60,303.69 530.60,305.38 532.75,307.03 535.05,308.61 537.48,310.14 540.05,311.60 542.76,312.99 545.59,314.31 548.55,315.56 551.63,316.72 554.83,317.80 558.14,318.79 561.56,319.69 565.08,320.50 568.70,321.21 572.41,321.82 576.20,322.33 580.07,322.73 584.02,323.02 588.03,323.20 592.10,323.27 596.22,323.22 600.40,323.05 604.61,322.77 608.85,322.36 613.12,321.84 617.41,321.18 621.71,320.41 626.01,319.51 630.31,318.48 634.59,317.32 638.86,316.04 643.09,314.63 647.29,313.09 651.45,311.42 655.56,309.63 659.61,307.71 663.59,305.66 667.50,303.49 671.32,301.19 675.06,298.78 678.69,296.24 682.22,293.58 685.64,290.80 688.94,287.91 692.11,284.91 695.14,281.79 698.04,278.57 700.78,275.25 703.36,271.82 705.79,268.29 708.04,264.67 710.12,260.95 712.02,257.15 713.73,253.26 715.24,249.29 716.56,245.25 717.67,241.14 718.57,236.95 719.25,232.71 719.72,228.41 719.96,224.05 719.98,219.64 719.76,215.20 719.31,210.71 718.62,206.19 717.69,201.65 716.51,197.08 715.09,192.50 713.42,187.90 711.49,183.30 709.32,178.70 706.89,174.11 704.21,169.53 701.27,164.97 698.08,160.43 694.63,155.93 690.93,151.45 686.98,147.02 682.77,142.64 678.31,138.31 673.60,134.05 668.65,129.84 663.45,125.71 658.01,121.66 652.33,117.68 646.42,113.80 640.27,110.01 633.90,106.32 627.30,102.73 620.49,99.26 613.46,95.90 606.22,92.66 598.78,89.55 591.14,86.57 583.32,83.72 575.31,81.02 567.12,78.46 558.76,76.05 550.24,73.79 541.56,71.69 532.74,69.75 523.77,67.98 514.67,66.38 505.45,64.95 496.12,63.69 486.67,62.61 477.13,61.72 467.50,61.01 457.80,60.48 448.02,60.15 438.18,60.00 428.30,60.05 418.37,60.29 408.41,60.73 398.43,61.36 388.44,62.19 378.45,63.22 368.47,64.45 358.51,65.88 348.57,67.51 338.68,69.33 328.84,71.36 319.06,73.58 309.35,76.00 299.72,78.62 290.18,81.43 280.75,84.43 271.42,87.63 262.22,91.01 253.14,94.58 244.21,98.34 235.42,102.27 226.80,106.39 218.34,110.68 210.06,115.14 201.97,119.78 194.08,124.57 186.39,129.53 178.91,134.65 171.65,139.91 164.62,145.33 157.82,150.89 151.27,156.59 144.97,162.42 138.92,168.38 133.14,174.46 127.64,180.67 122.40,186.98 117.45,193.40 112.79,199.92 108.42,206.53 104.35,213.23 100.58,220.02 97.11,226.88 93.96,233.81 91.12,240.80 88.60,247.84 86.40,254.94 84.51,262.08 82.96,269.26 81.73,276.46 80.82,283.69 80.25,290.93 80.00,298.19 80.08,305.44 80.49,312.69 81.23,319.92 82.30,327.14 83.70,334.33 85.41,341.49 87.46,348.61 89.82,355.69 92.50,362.71 95.50,369.67 98.81,376.56 102.43,383.38 106.35,390.13 110.57,396.79 115.08,403.35 119.89,409.82 124.98,416.19 130.36,422.45 136.00,428.59 141.91,434.61 148.09,440.51 154.51,446.28 161.19,451.91 168.10,457.40 175.25,462.74 182.62,467.93 190.21,472.97 198.00,477.85 206.00,482.56 214.18,487.11 222.55,491.49 231.09,495.69 239.80,499.72 248.66,503.56 257.66,507.23 266.80,510.70 276.07,513.99 285.45,517.09 294.94,520.00 304.52,522.71 314.20,525.23 323.94,527.55 333.75,529.68 343.62,531.60 353.54,533.33 363.48,534.86 373.46,536.19 383.44,537.32 393.44,538.25 403.42,538.98 413.39,539.52 423.34,539.86 433.25,540.00 443.11,539.95 452.92,539.71 462.66,539.28 472.33,538.66 481.91,537.86 491.41,536.87 500.80,535.70 510.08,534.36 519.24,532.84 528.27,531.15 537.17,529.30 545.92,527.28 554.52,525.10 562.96,522.76 571.24,520.28 579.34,517.65 587.25,514.87 594.99,511.96 602.53,508.91 609.86,505.73 617.00,502.43 623.92,499.02 630.63,495.49 637.11,491.85 643.37,488.11 649.40,484.27 655.20,480.34 660.76,476.33 666.08,472.23 671.16,468.06 675.99,463.83 680.57,459.53 684.90,455.17 688.99,450.77 692.81,446.31 696.39,441.82 699.71,437.30 702.77,432.75 705.58,428.18 708.14,423.59 710.44,419.00 712.49,414.40 714.28,409.80 715.83,405.21 717.13,400.63 718.18,396.08 719.00,391.54 719.57,387.04 719.90,382.57 720.00,378.15 719.87,373.77 719.51,369.44 718.94,365.16 718.14,360.95 717.14,356.80 715.92,352.72 714.51,348.71 712.90,344.78 711.09,340.94 709.10,337.18 706.94,333.51 704.60,329.93 702.09,326.46 699.43,323.08 696.61,319.80 693.64,316.63 690.54,313.58 687.31,310.63 683.95,307.79 680.47,305.08 676.89,302.48 673.20,300.00 "/>
</svg>
