<?xml version="1.0" encoding="UTF-8"?>
<svg xmlns="http://www.w3.org/2000/svg" width="800" height="600">
  <title>X=5*(3*cos(t)-cos(3*t));Y=5*(3*sin(t)-sin(3*t))</title>
  <rect width="800" height="600" fill="#ffffff"/>
  <g stroke="#d0d0d0" stroke-width="1">
    <line x1="55.68" y1="540.00" x2="55.68" y2="60.00"/>
    <line x1="81.09" y1="540.00" x2="81.09" y2="60.00"/>
    <line x1="106.51" y1="540.00" x2="106.51" y2="60.00"/>
    <line x1="131.92" y1="540.00" x2="131.92" y2="60.00"/>
    <line x1="157.33" y1="540.00" x2="157.33" y2="60.00"/>
    <line x1="182.74" y1="540.00" x2="182.74" y2="60.00"/>
    <line x1="208.15" y1="540.00" x2="208.15" y2="60.00"/>
    <line x1="233.56" y1="540.00" x2="233.56" y2="60.00"/>
    <line x1="258.98" y1="540.00" x2="258.98" y2="60.00"/>
    <line x1="284.39" y1="540.00" x2="284.39" y2="60.00"/>
    <line x1="309.80" y1="540.00" x2="309.80" y2="60.00"/>
    <line x1="335.21" y1="540.00" x2="335.21" y2="60.00"/>
    <line x1="360.62" y1="540.00" x2="360.62" y2="60.00"/>
    <line x1="386.04" y1="540.00" x2="386.04" y2="60.00"/>
    <line x1="411.45" y1="540.00" x2="411.45" y2="60.00"/>
    <line x1="436.86" y1="540.00" x2="436.86" y2="60.00"/>
    <line x1="462.27" y1="540.00" x2="462.27" y2="60.00"/>
    <line x1="487.68" y1="540.00" x2="487.68" y2="60.00"/>
    <line x1="513.09" y1="540.00" x2="513.09" y2="60.00"/>
    <line x1="538.51" y1="540.00" x2="538.51" y2="60.00"/>
    <line x1="563.92" y1="540.00" x2="563.92" y2="60.00"/>
    <line x1="589.33" y1="540.00" x2="589.33" y2="60.00"/>
    <line x1="614.74" y1="540.00" x2="614.74" y2="60.00"/>
    <line x1="640.15" y1="540.00" x2="640.15" y2="60.00"/>
    <line x1="665.56" y1="540.00" x2="665.56" y2="60.00"/>
    <line x1="690.98" y1="540.00" x2="690.98" y2="60.00"/>
    <line x1="716.39" y1="540.00" x2="716.39" y2="60.00"/>
    <line x1="741.80" y1="540.00" x2="741.80" y2="60.00"/>
    <line x1="80.00" y1="540.00" x2="720.00" y2="540.00"/>
    <line x1="80.00" y1="516.00" x2="720.00" y2="516.00"/>
    <line x1="80.00" y1="492.00" x2="720.00" y2="492.00"/>
    <line x1="80.00" y1="468.00" x2="720.00" y2="468.00"/>
    <line x1="80.00" y1="444.00" x2="720.00" y2="444.00"/>
    <line x1="80.00" y1="420.00" x2="720.00" y2="420.00"/>
    <line x1="80.00" y1="396.00" x2="720.00" y2="396.00"/>
    <line x1="80.00" y1="372.00" x2="720.00" y2="372.00"/>
    <line x1="80.00" y1="348.00" x2="720.00" y2="348.00"/>
    <line x1="80.00" y1="324.00" x2="720.00" y2="324.00"/>
    <line x1="80.00" y1="300.00" x2="720.00" y2="300.00"/>
    <line x1="80.00" y1="276.00" x2="720.00" y2="276.00"/>
    <line x1="80.00" y1="252.00" x2="720.00" y2="252.00"/>
    <line x1="80.00" y1="228.00" x2="720.00" y2="228.00"/>
    <line x1="80.00" y1="204.00" x2="720.00" y2="204.00"/>
    <line x1="80.00" y1="180.00" x2="720.00" y2="180.00"/>
    <line x1="80.00" y1="156.00" x2="720.00" y2="156.00"/>
    <line x1="80.00" y1="132.00" x2="720.00" y2="132.00"/>
    <line x1="80.00" y1="108.00" x2="720.00" y2="108.00"/>
    <line x1="80.00" y1="84.00" x2="720.00" y2="84.00"/>
    <line x1="80.00" y1="60.00" x2="720.00" y2="60.00"/>
  </g>
  <g stroke="#e8e8e8" stroke-width="0.5">
    <line x1="86.18" y1="540.00" x2="86.18" y2="60.00"/>
    <line x1="91.26" y1="540.00" x2="91.26" y2="60.00"/>
    <line x1="96.34" y1="540.00" x2="96.34" y2="60.00"/>
    <line x1="101.42" y1="540.00" x2="101.42" y2="60.00"/>
    <line x1="111.59" y1="540.00" x2="111.59" y2="60.00"/>
    <line x1="116.67" y1="540.00" x2="116.67" y2="60.00"/>
    <line x1="121.75" y1="540.00" x2="121.75" y2="60.00"/>
    <line x1="126.84" y1="540.00" x2="126.84" y2="60.00"/>
    <line x1="137.00" y1="540.00" x2="137.00" y2="60.00"/>
    <line x1="142.08" y1="540.00" x2="142.08" y2="60.00"/>
    <line x1="147.16" y1="540.00" x2="147.16" y2="60.00"/>
    <line x1="152.25" y1="540.00" x2="152.25" y2="60.00"/>
    <line x1="162.41" y1="540.00" x2="162.41" y2="60.00"/>
    <line x1="167.49" y1="540.00" x2="167.49" y2="60.00"/>
    <line x1="172.58" y1="540.00" x2="172.58" y2="60.00"/>
    <line x1="177.66" y1="540.00" x2="177.66" y2="60.00"/>
    <line x1="187.82" y1="540.00" x2="187.82" y2="60.00"/>
    <line x1="192.91" y1="540.00" x2="192.91" y2="60.00"/>
    <line x1="197.99" y1="540.00" x2="197.99" y2="60.00"/>
    <line x1="203.07" y1="540.00" x2="203.07" y2="60.00"/>
    <line x1="213.24" y1="540.00" x2="213.24" y2="60.00"/>
    <line x1="218.32" y1="540.00" x2="218.32" y2="60.00"/>
    <line x1="223.40" y1="540.00" x2="223.40" y2="60.00"/>
    <line x1="228.48" y1="540.00" x2="228.48" y2="60.00"/>
    <line x1="238.65" y1="540.00" x2="238.65" y2="60.00"/>
    <line x1="243.73" y1="540.00" x2="243.73" y2="60.00"/>
    <line x1="248.81" y1="540.00" x2="248.81" y2="60.00"/>
    <line x1="253.89" y1="540.00" x2="253.89" y2="60.00"/>
    <line x1="264.06" y1="540.00" x2="264.06" y2="60.00"/>
    <line x1="269.14" y1="540.00" x2="269.14" y2="60.00"/>
    <line x1="274.22" y1="540.00" x2="274.22" y2="60.00"/>
    <line x1="279.31" y1="540.00" x2="279.31" y2="60.00"/>
    <line x1="289.47" y1="540.00" x2="289.47" y2="60.00"/>
    <line x1="294.55" y1="540.00" x2="294.55" y2="60.00"/>
    <line x1="299.64" y1="540.00" x2="299.64" y2="60.00"/>
    <line x1="304.72" y1="540.00" x2="304.72" y2="60.00"/>
    <line x1="314.88" y1="540.00" x2="314.88" y2="60.00"/>
    <line x1="319.96" y1="540.00" x2="319.96" y2="60.00"/>
    <line x1="325.05" y1="540.00" x2="325.05" y2="60.00"/>
    <line x1="330.13" y1="540.00" x2="330.13" y2="60.00"/>
    <line x1="340.29" y1="540.00" x2="340.29" y2="60.00"/>
    <line x1="345.38" y1="540.00" x2="345.38" y2="60.00"/>
    <line x1="350.46" y1="540.00" x2="350.46" y2="60.00"/>
    <line x1="355.54" y1="540.00" x2="355.54" y2="60.00"/>
    <line x1="365.71" y1="540.00" x2="365.71" y2="60.00"/>
    <line x1="370.79" y1="540.00" x2="370.79" y2="60.00"/>
    <line x1="375.87" y1="540.00" x2="375.87" y2="60.00"/>
    <line x1="380.95" y1="540.00" x2="380.95" y2="60.00"/>
    <line x1="391.12" y1="540.00" x2="391.12" y2="60.00"/>
    <line x1="396.20" y1="540.00" x2="396.20" y2="60.00"/>
    <line x1="401.28" y1="540.00" x2="401.28" y2="60.00"/>
    <line x1="406.36" y1="540.00" x2="406.36" y2="60.00"/>
    <line x1="416.53" y1="540.00" x2="416.53" y2="60.00"/>
    <line x1="421.61" y1="540.00" x2="421.61" y2="60.00"/>
    <line x1="426.69" y1="540.00" x2="426.69" y2="60.00"/>
    <line x1="431.78" y1="540.00" x2="431.78" y2="60.00"/>
    <line x1="441.94" y1="540.00" x2="441.94" y2="60.00"/>
    <line x1="447.02" y1="540.00" x2="447.02" y2="60.00"/>
    <line x1="452.11" y1="540.00" x2="452.11" y2="60.00"/>
    <line x1="457.19" y1="540.00" x2="457.19" y2="60.00"/>
    <line x1="467.35" y1="540.00" x2="467.35" y2="60.00"/>
    <line x1="472.44" y1="540.00" x2="472.44" y2="60.00"/>
    <line x1="477.52" y1="540.00" x2="477.52" y2="60.00"/>
    <line x1="482.60" y1="540.00" x2="482.60" y2="60.00"/>
    <line x1="492.76" y1="540.00" x2="492.76" y2="60.00"/>
    <line x1="497.85" y1="540.00" x2="497.85" y2="60.00"/>
    <line x1="502.93" y1="540.00" x2="502.93" y2="60.00"/>
    <line x1="508.01" y1="540.00" x2="508.01" y2="60.00"/>
    <line x1="518.18" y1="540.00" x2="518.18" y2="60.00"/>
    <line x1="523.26" y1="540.00" x2="523.26" y2="60.00"/>
    <line x1="528.34" y1="540.00" x2="528.34" y2="60.00"/>
    <line x1="533.42" y1="540.00" x2="533.42" y2="60.00"/>
    <line x1="543.59" y1="540.00" x2="543.59" y2="60.00"/>
    <line x1="548.67" y1="540.00" x2="548.67" y2="60.00"/>
    <line x1="553.75" y1="540.00" x2="553.75" y2="60.00"/>
    <line x1="558.84" y1="540.00" x2="558.84" y2="60.00"/>
    <line x1="569.00" y1="540.00" x2="569.00" y2="60.00"/>
    <line x1="574.08" y1="540.00" x2="574.08" y2="60.00"/>
    <line x1="579.16" y1="540.00" x2="579.16" y2="60.00"/>
    <line x1="584.25" y1="540.00" x2="584.25" y2="60.00"/>
    <line x1="594.41" y1="540.00" x2="594.41" y2="60.00"/>
    <line x1="599.49" y1="540.00" x2="599.49" y2="60.00"/>
    <line x1="604.58" y1="540.00" x2="604.58" y2="60.00"/>
    <line x1="609.66" y1="540.00" x2="609.66" y2="60.00"/>
    <line x1="619.82" y1="540.00" x2="619.82" y2="60.00"/>
    <line x1="624.91" y1="540.00" x2="624.91" y2="60.00"/>
    <line x1="629.99" y1="540.00" x2="629.99" y2="60.00"/>
    <line x1="635.07" y1="540.00" x2="635.07" y2="60.00"/>
    <line x1="645.24" y1="540.00" x2="645.24" y2="60.00"/>
    <line x1="650.32" y1="540.00" x2="650.32" y2="60.00"/>
    <line x1="655.40" y1="540.00" x2="655.40" y2="60.00"/>
    <line x1="660.48" y1="540.00" x2="660.48" y2="60.00"/>
    <line x1="670.65" y1="540.00" x2="670.65" y2="60.00"/>
    <line x1="675.73" y1="540.00" x2="675.73" y2="60.00"/>
    <line x1="680.81" y1="540.00" x2="680.81" y2="60.00"/>
    <line x1="685.89" y1="540.00" x2="685.89" y2="60.00"/>
    <line x1="696.06" y1="540.00" x2="696.06" y2="60.00"/>
    <line x1="701.14" y1="540.00" x2="701.14" y2="60.00"/>
    <line x1="706.22" y1="540.00" x2="706.22" y2="60.00"/>
    <line x1="711.31" y1="540.00" x2="711.31" y2="60.00"/>
    <line x1="80.00" y1="535.20" x2="720.00" y2="535.20"/>
    <line x1="80.00" y1="530.40" x2="720.00" y2="530.40"/>
    <line x1="80.00" y1="525.60" x2="720.00" y2="525.60"/>
    <line x1="80.00" y1="520.80" x2="720.00" y2="520.80"/>
    <line x1="80.00" y1="511.20" x2="720.00" y2="511.20"/>
    <line x1="80.00" y1="506.40" x2="720.00" y2="506.40"/>
    <line x1="80.00" y1="501.60" x2="720.00" y2="501.60"/>
    <line x1="80.00" y1="496.80" x2="720.00" y2="496.80"/>
    <line x1="80.00" y1="487.20" x2="720.00" y2="487.20"/>
    <line x1="80.00" y1="482.40" x2="720.00" y2="482.40"/>
    <line x1="80.00" y1="477.60" x2="720.00" y2="477.60"/>
    <line x1="80.00" y1="472.80" x2="720.00" y2="472.80"/>
    <line x1="80.00" y1="463.20" x2="720.00" y2="463.20"/>
    <line x1="80.00" y1="458.40" x2="720.00" y2="458.40"/>
    <line x1="80.00" y1="453.60" x2="720.00" y2="453.60"/>
    <line x1="80.00" y1="448.80" x2="720.00" y2="448.80"/>
    <line x1="80.00" y1="439.20" x2="720.00" y2="439.20"/>
    <line x1="80.00" y1="434.40" x2="720.00" y2="434.40"/>
    <line x1="80.00" y1="429.60" x2="720.00" y2="429.60"/>
    <line x1="80.00" y1="424.80" x2="720.00" y2="424.80"/>
    <line x1="80.00" y1="415.20" x2="720.00" y2="415.20"/>
    <line x1="80.00" y1="410.40" x2="720.00" y2="410.40"/>
    <line x1="80.00" y1="405.60" x2="720.00" y2="405.60"/>
    <line x1="80.00" y1="400.80" x2="720.00" y2="400.80"/>
    <line x1="80.00" y1="391.20" x2="720.00" y2="391.20"/>
    <line x1="80.00" y1="386.40" x2="720.00" y2="386.40"/>
    <line x1="80.00" y1="381.60" x2="720.00" y2="381.60"/>
    <line x1="80.00" y1="376.80" x2="720.00" y2="376.80"/>
    <line x1="80.00" y1="367.20" x2="720.00" y2="367.20"/>
    <line x1="80.00" y1="362.40" x2="720.00" y2="362.40"/>
    <line x1="80.00" y1="357.60" x2="720.00" y2="357.60"/>
    <line x1="80.00" y1="352.80" x2="720.00" y2="352.80"/>
    <line x1="80.00" y1="343.20" x2="720.00" y2="343.20"/>
    <line x1="80.00" y1="338.40" x2="720.00" y2="338.40"/>
    <line x1="80.00" y1="333.60" x2="720.00" y2="333.60"/>
    <line x1="80.00" y1="328.80" x2="720.00" y2="328.80"/>
    <line x1="80.00" y1="319.20" x2="720.00" y2="319.20"/>
    <line x1="80.00" y1="314.40" x2="720.00" y2="314.40"/>
    <line x1="80.00" y1="309.60" x2="720.00" y2="309.60"/>
    <line x1="80.00" y1="304.80" x2="720.00" y2="304.80"/>
    <line x1="80.00" y1="295.20" x2="720.00" y2="295.20"/>
    <line x1="80.00" y1="290.40" x2="720.00" y2="290.40"/>
    <line x1="80.00" y1="285.60" x2="720.00" y2="285.60"/>
    <line x1="80.00" y1="280.80" x2="720.00" y2="280.80"/>
    <line x1="80.00" y1="271.20" x2="720.00" y2="271.20"/>
    <line x1="80.00" y1="266.40" x2="720.00" y2="266.40"/>
    <line x1="80.00" y1="261.60" x2="720.00" y2="261.60"/>
    <line x1="80.00" y1="256.80" x2="720.00" y2="256.80"/>
    <line x1="80.00" y1="247.20" x2="720.00" y2="247.20"/>
    <line x1="80.00" y1="242.40" x2="720.00" y2="242.40"/>
    <line x1="80.00" y1="237.60" x2="720.00" y2="237.60"/>
    <line x1="80.00" y1="232.80" x2="720.00" y2="232.80"/>
    <line x1="80.00" y1="223.20" x2="720.00" y2="223.20"/>
    <line x1="80.00" y1="218.40" x2="720.00" y2="218.40"/>
    <line x1="80.00" y1="213.60" x2="720.00" y2="213.60"/>
    <line x1="80.00" y1="208.80" x2="720.00" y2="208.80"/>
    <line x1="80.00" y1="199.20" x2="720.00" y2="199.20"/>
    <line x1="80.00" y1="194.40" x2="720.00" y2="194.40"/>
    <line x1="80.00" y1="189.60" x2="720.00" y2="189.60"/>
    <line x1="80.00" y1="184.80" x2="720.00" y2="184.80"/>
    <line x1="80.00" y1="175.20" x2="720.00" y2="175.20"/>
    <line x1="80.00" y1="170.40" x2="720.00" y2="170.40"/>
    <line x1="80.00" y1="165.60" x2="720.00" y2="165.60"/>
    <line x1="80.00" y1="160.80" x2="720.00" y2="160.80"/>
    <line x1="80.00" y1="151.20" x2="720.00" y2="151.20"/>
    <line x1="80.00" y1="146.40" x2="720.00" y2="146.40"/>
    <line x1="80.00" y1="141.60" x2="720.00" y2="141.60"/>
    <line x1="80.00" y1="136.80" x2="720.00" y2="136.80"/>
    <line x1="80.00" y1="127.20" x2="720.00" y2="127.20"/>
    <line x1="80.00" y1="122.40" x2="720.00" y2="122.40"/>
    <line x1="80.00" y1="117.60" x2="720.00" y2="117.60"/>
    <line x1="80.00" y1="112.80" x2="720.00" y2="112.80"/>
    <line x1="80.00" y1="103.20" x2="720.00" y2="103.20"/>
    <line x1="80.00" y1="98.40" x2="720.00" y2="98.40"/>
    <line x1="80.00" y1="93.60" x2="720.00" y2="93.60"/>
    <line x1="80.00" y1="88.80" x2="720.00" y2="88.80"/>
    <line x1="80.00" y1="79.20" x2="720.00" y2="79.20"/>
    <line x1="80.00" y1="74.40" x2="720.00" y2="74.40"/>
    <line x1="80.00" y1="69.60" x2="720.00" y2="69.60"/>
    <line x1="80.00" y1="64.80" x2="720.00" y2="64.80"/>
  </g>
  <g stroke="#808080" stroke-width="2">
    <line x1="360.62" y1="540.00" x2="360.62" y2="60.00"/>
    <line x1="80.00" y1="540.00" x2="720.00" y2="540.00"/>
  </g>
  <polyline fill="none" stroke="#0066cc" stroke-width="2" points="614.74,540.00 614.75,540.00 614.77,540.00 614.80,540.00 614.84,540.00 614.89,540.00 614.96,539.99 615.04,539.99 615.13,539.98 615.24,539.98 615.35,539.97 615.48,539.96 615.62,539.95 615.77,539.93 615.94,539.92 616.11,539.90 616.30,539.87 616.50,539.85 616.71,539.82 616.94,539.79 617.17,539.75 617.42,539.71 617.68,539.67 617.95,539.63 618.23,539.57 618.53,539.52 618.83,539.46 619.15,539.40 619.48,539.33 619.82,539.25 620.17,539.17 620.53,539.09 620.90,539.00 621.28,538.90 621.68,538.80 622.08,538.69 622.50,538.57 622.93,538.45 623.36,538.32 623.81,538.19 624.27,538.05 624.74,537.90 625.21,537.74 625.70,537.58 626.20,537.41 626.71,537.23 627.23,537.04 627.75,536.85 628.29,536.64 628.84,536.43 629.39,536.21 629.96,535.99 630.53,535.75 631.11,535.50 631.70,535.25 632.30,534.98 632.91,534.71 633.53,534.42 634.15,534.13 634.79,533.83 635.43,533.52 636.08,533.19 636.73,532.86 637.40,532.52 638.07,532.16 638.75,531.80 639.44,531.42 640.13,531.03 640.83,530.64 641.54,530.23 642.25,529.81 642.97,529.38 643.69,528.94 644.43,528.48 645.16,528.02 645.91,527.54 646.65,527.05 647.41,526.55 648.17,526.04 648.93,525.51 649.70,524.97 650.48,524.42 651.25,523.86 652.04,523.28 652.82,522.70 653.62,522.09 654.41,521.48 655.21,520.85 656.01,520.21 656.82,519.56 657.62,518.90 658.44,518.22 659.25,517.52 660.07,516.82 660.88,516.10 661.71,515.36 662.53,514.62 663.35,513.86 664.18,513.08 665.01,512.29 665.84,511.49 666.66,510.68 667.50,509.85 668.33,509.00 669.16,508.14 669.99,507.27 670.82,506.39 671.65,505.49 672.48,504.57 673.31,503.64 674.14,502.70 674.97,501.74 675.80,500.77 676.62,499.78 677.45,498.78 678.27,497.77 679.09,496.74 679.91,495.69 680.72,494.63 681.54,493.56 682.35,492.47 683.15,491.37 683.96,490.25 684.76,489.12 685.55,487.98 686.35,486.81 687.14,485.64 687.92,484.45 688.70,483.25 689.47,482.03 690.24,480.79 691.01,479.55 691.77,478.28 692.52,477.01 693.27,475.72 694.01,474.41 694.75,473.09 695.48,471.76 696.20,470.41 696.91,469.05 697.62,467.67 698.32,466.28 699.02,464.88 699.70,463.46 700.38,462.02 701.05,460.58 701.72,459.12 702.37,457.64 703.01,456.15 703.65,454.65 704.28,453.13 704.89,451.60 705.50,450.06 706.10,448.50 706.69,446.93 707.27,445.35 707.84,443.76 708.39,442.15 708.94,440.52 709.48,438.89 710.00,437.24 710.52,435.58 711.02,433.90 711.51,432.22 711.99,430.52 712.46,428.80 712.91,427.08 713.35,425.34 713.78,423.60 714.20,421.83 714.60,420.06 715.00,418.28 715.37,416.48 715.74,414.67 716.09,412.86 716.42,411.02 716.75,409.18 717.06,407.33 717.35,405.47 717.63,403.59 717.89,401.71 718.14,399.81 718.38,397.91 718.60,395.99 718.80,394.06 718.99,392.13 719.17,390.18 719.32,388.22 719.46,386.26 719.59,384.28 719.70,382.30 719.79,380.31 719.87,378.30 719.92,376.29 719.97,374.27 719.99,372.24 720.00,370.21 719.99,368.16 719.96,366.11 719.92,364.05 719.86,361.98 719.78,359.90 719.68,357.82 719.56,355.73 719.43,353.63 719.28,351.53 719.10,349.42 718.91,347.30 718.71,345.18 718.48,343.05 718.23,340.91 717.97,338.77 717.68,336.62 717.38,334.47 717.05,332.31 716.71,330.15 716.35,327.98 715.97,325.81 715.56,323.64 715.14,321.46 714.70,319.27 714.24,317.08 713.76,314.89 713.26,312.70 712.73,310.50 712.19,308.30 711.63,306.09 711.04,303.89 710.44,301.68 709.81,299.47 709.17,297.25 708.50,295.04 707.81,292.82 707.11,290.60 706.38,288.38 705.63,286.16 704.86,283.94 704.06,281.72 703.25,279.50 702.41,277.28 701.56,275.06 700.68,272.84 699.78,270.62 698.86,268.40 697.92,266.18 696.96,263.96 695.97,261.75 694.97,259.53 693.94,257.32 692.89,255.11 691.82,252.90 690.73,250.70 689.62,248.49 688.48,246.29 687.33,244.10 686.15,241.90 684.95,239.71 683.73,237.53 682.49,235.35 681.23,233.17 679.94,231.00 678.63,228.83 677.31,226.66 675.96,224.51 674.59,222.35 673.19,220.21 671.78,218.07 670.35,215.93 668.89,213.80 667.41,211.68 665.92,209.56 664.40,207.45 662.85,205.35 661.29,203.26 659.71,201.17 658.11,199.09 656.48,197.02 654.84,194.96 653.17,192.91 651.48,190.86 649.78,188.82 648.05,186.80 646.30,184.78 644.53,182.77 642.74,180.77 640.93,178.78 639.10,176.80 637.25,174.83 635.38,172.87 633.49,170.93 631.58,168.99 629.66,167.07 627.71,165.15 625.74,163.25 623.75,161.36 621.74,159.48 619.72,157.61 617.67,155.76 615.61,153.92 613.53,152.09 611.42,150.28 609.30,148.47 607.16,146.68 605.01,144.91 602.83,143.15 600.64,141.40 598.43,139.67 596.20,137.95 593.95,136.24 591.68,134.55 589.40,132.88 587.10,131.22 584.79,129.57 582.45,127.94 580.10,126.33 577.73,124.73 575.35,123.15 572.95,121.58 570.53,120.04 568.10,118.50 565.65,116.99 563.19,115.49 560.71,114.00 558.22,112.54 555.71,111.09 553.18,109.66 550.64,108.25 548.09,106.85 545.52,105.47 542.93,104.11 540.34,102.77 537.72,101.45 535.10,100.15 532.46,98.86 529.81,97.59 527.14,96.34 524.46,95.12 521.77,93.91 519.07,92.72 516.35,91.55 513.62,90.39 510.88,89.26 508.13,88.15 505.37,87.06 502.59,85.99 499.81,84.94 497.01,83.91 494.20,82.89 491.38,81.90 488.55,80.94 485.71,79.99 482.87,79.06 480.01,78.15 477.14,77.27 474.26,76.40 471.37,75.56 468.48,74.74 465.58,73.94 462.66,73.16 459.74,72.40 456.82,71.67 453.88,70.95 450.94,70.26 447.99,69.59 445.03,68.95 442.07,68.32 439.09,67.72 436.12,67.14 433.13,66.58 430.15,66.04 427.15,65.53 424.15,65.04 421.15,64.57 418.14,64.12 415.12,63.70 412.11,63.30 409.08,62.92 406.06,62.57 403.03,62.23 399.99,61.93 396.96,61.64 393.92,61.38 390.88,61.14 387.83,60.92 384.78,60.72 381.73,60.55 378.68,60.40 375.63,60.28 372.58,60.18 369.53,60.10 366.47,60.04 363.42,60.01 360.36,60.00 357.30,60.01 354.25,60.05 351.19,60.11 348.14,60.19 345.09,60.30 342.04,60.43 338.99,60.58 335.94,60.76 332.89,60.95 329.85,61.18 326.80,61.42 323.77,61.69 320.73,61.98 317.70,62.29 314.67,62.63 311.64,62.99 308.62,63.37 305.60,63.77 302.59,64.20 299.58,64.65 296.58,65.12 293.58,65.62 290.58,66.13 287.60,66.67 284.61,67.24 281.64,67.82 278.67,68.43 275.71,69.06 272.75,69.71 269.80,70.38 266.86,71.08 263.93,71.79 261.00,72.53 258.08,73.29 255.17,74.08 252.27,74.88 249.37,75.70 246.49,76.55 243.61,77.42 240.75,78.31 237.89,79.22 235.04,80.15 232.20,81.10 229.38,82.07 226.56,83.07 223.75,84.08 220.96,85.12 218.17,86.17 215.40,87.25 212.64,88.34 209.89,89.46 207.15,90.59 204.42,91.75 201.71,92.92 199.01,94.11 196.32,95.33 193.64,96.56 190.98,97.81 188.33,99.08 185.69,100.37 183.07,101.68 180.46,103.00 177.87,104.35 175.29,105.71 172.72,107.09 170.17,108.49 167.63,109.90 165.11,111.34 162.60,112.79 160.11,114.26 157.63,115.74 155.17,117.25 152.72,118.77 150.29,120.30 147.88,121.85 145.48,123.42 143.10,125.01 140.74,126.61 138.39,128.22 136.06,129.86 133.75,131.50 131.45,133.17 129.17,134.84 126.91,136.54 124.66,138.24 122.44,139.96 120.23,141.70 118.04,143.45 115.87,145.21 113.71,146.99 111.58,148.78 109.46,150.59 107.36,152.41 105.28,154.24 103.22,156.08 101.18,157.94 99.15,159.80 97.15,161.68 95.17,163.58 93.20,165.48 91.26,167.40 89.33,169.32 87.42,171.26 85.54,173.21 83.67,175.17 81.83,177.14 80.00,179.12 "/>
</svg>
