<?xml version="1.0" encoding="UTF-8"?>
<svg xmlns="http://www.w3.org/2000/svg" width="800" height="600">
  <title>X=sin(3*t);Y=sin(t)</title>
  <rect width="800" height="600" fill="#ffffff"/>
  <g stroke="#d0d0d0" stroke-width="1">
    <line x1="80.00" y1="540.00" x2="80.00" y2="60.00"/>
    <line x1="400.00" y1="540.00" x2="400.00" y2="60.00"/>
    <line x1="720.00" y1="540.00" x2="720.00" y2="60.00"/>
    <line x1="80.00" y1="540.00" x2="720.00" y2="540.00"/>
    <line x1="80.00" y1="60.00" x2="720.00" y2="60.00"/>
  </g>
  <g stroke="#e8e8e8" stroke-width="0.5">
    <line x1="144.00" y1="540.00" x2="144.00" y2="60.00"/>
    <line x1="208.00" y1="540.00" x2="208.00" y2="60.00"/>
    <line x1="272.00" y1="540.00" x2="272.00" y2="60.00"/>
    <line x1="336.00" y1="540.00" x2="336.00" y2="60.00"/>
    <line x1="464.00" y1="540.00" x2="464.00" y2="60.00"/>
    <line x1="528.00" y1="540.00" x2="528.00" y2="60.00"/>
    <line x1="592.00" y1="540.00" x2="592.00" y2="60.00"/>
    <line x1="656.00" y1="540.00" x2="656.00" y2="60.00"/>
    <line x1="80.00" y1="444.00" x2="720.00" y2="444.00"/>
    <line x1="80.00" y1="348.00" x2="720.00" y2="348.00"/>
    <line x1="80.00" y1="252.00" x2="720.00" y2="252.00"/>
    <line x1="80.00" y1="156.00" x2="720.00" y2="156.00"/>
  </g>
  <g stroke="#808080" stroke-width="2">
    <line x1="400.00" y1="540.00" x2="400.00" y2="60.00"/>
    <line x1="80.00" y1="540.00" x2="720.00" y2="540.00"/>
  </g>
  <polyline fill="none" stroke="#0066cc" stroke-width="2" points="400.00,540.00 403.85,538.08 407.70,536.15 411.54,534.23 415.39,532.30 419.23,530.38 423.07,528.46 426.90,526.53 430.74,524.61 434.56,522.69 438.39,520.77 442.20,518.84 446.01,516.92 449.82,515.00 453.62,513.08 457.40,511.16 461.19,509.24 464.96,507.32 468.72,505.40 472.47,503.48 476.22,501.56 479.95,499.65 483.67,497.73 487.38,495.81 491.07,493.90 494.75,491.98 498.42,490.07 502.07,488.16 505.71,486.25 509.34,484.33 512.95,482.42 516.54,480.51 520.11,478.61 523.67,476.70 527.21,474.79 530.73,472.89 534.23,470.98 537.72,469.08 541.18,467.18 544.62,465.28 548.04,463.38 551.44,461.48 554.82,459.58 558.18,457.68 561.51,455.79 564.82,453.90 568.11,452.00 571.37,450.11 574.61,448.22 577.82,446.34 581.01,444.45 584.17,442.57 587.30,440.68 590.40,438.80 593.48,436.92 596.53,435.04 599.56,433.17 602.55,431.29 605.51,429.42 608.45,427.55 611.35,425.68 614.23,423.81 617.07,421.95 619.88,420.08 622.66,418.22 625.41,416.36 628.12,414.50 630.80,412.65 633.45,410.79 636.07,408.94 638.65,407.09 641.19,405.24 643.70,403.40 646.18,401.55 648.62,399.71 651.03,397.87 653.39,396.04 655.73,394.20 658.02,392.37 660.28,390.54 662.50,388.72 664.68,386.89 666.82,385.07 668.93,383.25 670.99,381.43 673.02,379.62 675.01,377.81 676.95,376.00 678.86,374.19 680.73,372.39 682.56,370.58 684.34,368.79 686.09,366.99 687.79,365.20 689.45,363.41 691.07,361.62 692.65,359.83 694.18,358.05 695.68,356.27 697.13,354.50 698.53,352.72 699.90,350.95 701.22,349.19 702.50,347.42 703.73,345.66 704.92,343.91 706.06,342.15 707.16,340.40 708.22,338.65 709.23,336.91 710.20,335.17 711.12,333.43 712.00,331.69 712.83,329.96 713.62,328.23 714.36,326.51 715.06,324.79 715.71,323.07 716.32,321.35 716.88,319.64 717.39,317.94 717.86,316.23 718.28,314.53 718.65,312.84 718.98,311.14 719.27,309.45 719.51,307.77 719.70,306.09 719.84,304.41 719.94,302.73 719.99,301.06 720.00,299.40 719.96,297.73 719.87,296.08 719.74,294.42 719.56,292.77 719.34,291.12 719.07,289.48 718.75,287.84 718.39,286.21 717.98,284.57 717.52,282.95 717.02,281.32 716.47,279.71 715.88,278.09 715.24,276.48 714.56,274.88 713.83,273.27 713.06,271.68 712.24,270.08 711.37,268.50 710.46,266.91 709.50,265.33 708.50,263.76 707.46,262.18 706.37,260.62 705.24,259.06 704.06,257.50 702.84,255.95 701.57,254.40 700.27,252.85 698.91,251.31 697.52,249.78 696.08,248.25 694.60,246.72 693.08,245.20 691.51,243.69 689.90,242.18 688.25,240.67 686.56,239.17 684.83,237.67 683.05,236.18 681.24,234.69 679.38,233.21 677.48,231.73 675.55,230.26 673.57,228.79 671.56,227.33 669.50,225.87 667.41,224.42 665.27,222.97 663.10,221.53 660.89,220.10 658.65,218.66 656.36,217.24 654.04,215.82 651.68,214.40 649.29,212.99 646.86,211.58 644.39,210.18 641.89,208.79 639.35,207.40 636.78,206.01 634.18,204.63 631.54,203.26 628.87,201.89 626.16,200.53 623.42,199.17 620.65,197.82 617.85,196.47 615.01,195.13 612.15,193.80 609.25,192.47 606.33,191.14 603.37,189.83 600.38,188.51 597.37,187.20 594.33,185.90 591.26,184.61 588.16,183.32 585.03,182.03 581.88,180.75 578.70,179.48 575.50,178.21 572.27,176.95 569.01,175.70 565.73,174.45 562.43,173.20 559.10,171.96 555.75,170.73 552.38,169.51 548.98,168.29 545.57,167.07 542.13,165.86 538.67,164.66 535.20,163.47 531.70,162.28 528.18,161.09 524.65,159.91 521.10,158.74 517.53,157.58 513.94,156.42 510.33,155.26 506.71,154.12 503.08,152.97 499.43,151.84 495.77,150.71 492.09,149.59 488.40,148.47 484.69,147.36 480.97,146.26 477.25,145.16 473.51,144.07 469.76,142.99 466.00,141.91 462.23,140.84 458.45,139.77 454.66,138.71 450.87,137.66 447.06,136.61 443.25,135.57 439.44,134.54 435.62,133.52 431.79,132.50 427.96,131.48 424.13,130.48 420.29,129.48 416.45,128.48 412.60,127.49 408.76,126.51 404.91,125.54 401.06,124.57 397.21,123.61 393.37,122.66 389.52,121.71 385.68,120.77 381.83,119.84 377.99,118.91 374.16,117.99 370.32,117.08 366.49,116.17 362.67,115.27 358.85,114.38 355.04,113.49 351.23,112.61 347.43,111.74 343.64,110.88 339.86,110.02 336.08,109.17 332.32,108.32 328.56,107.48 324.82,106.65 321.08,105.83 317.36,105.01 313.65,104.20 309.95,103.40 306.26,102.60 302.59,101.81 298.93,101.03 295.29,100.26 291.66,99.49 288.05,98.73 284.45,97.98 280.87,97.23 277.31,96.49 273.77,95.76 270.24,95.03 266.73,94.31 263.24,93.60 259.78,92.90 256.33,92.20 252.90,91.52 249.49,90.83 246.11,90.16 242.75,89.49 239.41,88.83 236.09,88.18 232.80,87.53 229.53,86.89 226.29,86.26 223.07,85.64 219.87,85.02 216.71,84.41 213.57,83.81 210.45,83.21 207.37,82.63 204.31,82.05 201.28,81.47 198.28,80.91 195.30,80.35 192.36,79.80 189.45,79.26 186.57,78.72 183.71,78.19 180.89,77.67 178.11,77.16 175.35,76.65 172.63,76.15 169.94,75.66 167.28,75.18 164.65,74.70 162.06,74.23 159.51,73.77 156.99,73.32 154.50,72.87 152.05,72.43 149.64,72.00 147.26,71.58 144.92,71.16 142.61,70.75 140.34,70.35 138.11,69.96 135.92,69.57 133.77,69.19 131.65,68.82 129.58,68.46 127.54,68.10 125.54,67.76 123.58,67.42 121.66,67.08 119.79,66.76 117.95,66.44 116.15,66.13 114.39,65.83 112.68,65.53 111.01,65.24 109.38,64.96 107.79,64.69 106.24,64.43 104.73,64.17 103.27,63.92 101.85,63.68 100.48,63.45 99.14,63.22 97.86,63.00 96.61,62.79 95.41,62.59 94.25,62.39 93.14,62.20 92.07,62.02 91.04,61.85 90.06,61.69 89.13,61.53 88.24,61.38 87.39,61.24 86.59,61.10 85.84,60.98 85.13,60.86 84.47,60.75 83.85,60.64 83.28,60.55 82.75,60.46 82.27,60.38 81.84,60.31 81.45,60.24 81.10,60.18 80.81,60.13 80.56,60.09 80.35,60.06 80.20,60.03 80.08,60.01 80.02,60.00 80.00,60.00 80.03,60.00 80.10,60.02 80.22,60.04 80.39,60.06 80.60,60.10 80.86,60.14 81.16,60.19 81.51,60.25 81.91,60.32 82.35,60.39 82.84,60.47 83.37,60.56 83.95,60.66 84.58,60.76 85.25,60.88 85.97,61.00 86.73,61.13 87.54,61.26 88.39,61.40 89.29,61.55 90.23,61.71 91.22,61.88 92.25,62.05 93.33,62.23 94.45,62.42 95.61,62.62 96.82,62.83 98.07,63.04 99.37,63.26 100.71,63.49 102.10,63.72 103.52,63.96 104.99,64.21 106.50,64.47 108.06,64.74 109.65,65.01 111.29,65.29 112.97,65.58 114.69,65.88 116.46,66.18 118.26,66.49 120.11,66.81 121.99,67.14 123.92,67.47 125.88,67.82 127.89,68.17 129.93,68.52 132.02,68.89 134.14,69.26 136.30,69.64 138.50,70.03 140.73,70.42 143.01,70.82 145.32,71.23 147.67,71.65 150.05,72.08 152.47,72.51 154.93,72.95 157.42,73.40 159.95,73.85 162.51,74.31 165.10,74.78 167.73,75.26 170.40,75.75 173.09,76.24 175.82,76.74 178.59,77.25 181.38,77.76 184.20,78.28 187.06,78.81 189.95,79.35 192.87,79.90 195.81,80.45 198.79,81.01 201.80,81.57 204.83,82.15 207.90,82.73 210.99,83.32 214.11,83.91 217.25,84.52 220.42,85.13 223.62,85.74 226.84,86.37 230.09,87.00 233.36,87.64 236.66,88.29 239.98,88.94 243.33,89.61 246.69,90.27 250.08,90.95 253.49,91.63 256.92,92.32 260.37,93.02 263.85,93.73 267.34,94.44 270.85,95.16 274.38,95.88 277.93,96.62 281.49,97.36 285.07,98.11 288.67,98.86 292.29,99.62 295.92,100.39 299.57,101.17 303.23,101.95 306.90,102.74 310.59,103.54 "/>
</svg>
