<?xml version="1.0" encoding="UTF-8"?>
<svg xmlns="http://www.w3.org/2000/svg" width="800" height="600">
  <title>X=sin(t/2+pi/8);Y=sin(t):0,4:</title>
  <rect width="800" height="600" fill="#ffffff"/>
  <g stroke="#d0d0d0" stroke-width="1">
    <line x1="-316.75" y1="540.00" x2="-316.75" y2="60.00"/>
    <line x1="720.00" y1="540.00" x2="720.00" y2="60.00"/>
    <line x1="80.00" y1="606.45" x2="720.00" y2="606.45"/>
    <line x1="80.00" y1="333.22" x2="720.00" y2="333.22"/>
    <line x1="80.00" y1="60.00" x2="720.00" y2="60.00"/>
  </g>
  <g stroke="#e8e8e8" stroke-width="0.5">
    <line x1="97.95" y1="540.00" x2="97.95" y2="60.00"/>
    <line x1="305.30" y1="540.00" x2="305.30" y2="60.00"/>
    <line x1="512.65" y1="540.00" x2="512.65" y2="60.00"/>
    <line x1="80.00" y1="497.16" x2="720.00" y2="497.16"/>
    <line x1="80.00" y1="442.51" x2="720.00" y2="442.51"/>
    <line x1="80.00" y1="387.87" x2="720.00" y2="387.87"/>
    <line x1="80.00" y1="278.58" x2="720.00" y2="278.58"/>
    <line x1="80.00" y1="223.93" x2="720.00" y2="223.93"/>
    <line x1="80.00" y1="169.29" x2="720.00" y2="169.29"/>
    <line x1="80.00" y1="114.64" x2="720.00" y2="114.64"/>
  </g>
  <g stroke="#808080" stroke-width="2">
    <line x1="-316.75" y1="540.00" x2="-316.75" y2="60.00"/>
  </g>
  <polyline fill="none" stroke="#0066cc" stroke-width="2" points="80.00,333.22 83.84,331.03 87.67,328.84 91.49,326.65 95.30,324.46 99.11,322.28 102.92,320.09 106.71,317.90 110.50,315.71 114.29,313.53 118.06,311.35 121.83,309.16 125.59,306.98 129.35,304.80 133.09,302.63 136.83,300.45 140.57,298.28 144.29,296.11 148.01,293.94 151.72,291.77 155.42,289.61 159.12,287.45 162.81,285.29 166.49,283.13 170.16,280.98 173.82,278.84 177.48,276.69 181.13,274.55 184.77,272.41 188.40,270.28 192.03,268.15 195.64,266.02 199.25,263.90 202.85,261.79 206.44,259.68 210.03,257.57 213.60,255.47 217.17,253.37 220.73,251.28 224.27,249.19 227.81,247.11 231.35,245.03 234.87,242.96 238.38,240.90 241.89,238.84 245.38,236.79 248.87,234.74 252.35,232.70 255.82,230.67 259.28,228.64 262.73,226.62 266.17,224.61 269.60,222.60 273.02,220.61 276.43,218.61 279.84,216.63 283.23,214.65 286.62,212.68 289.99,210.72 293.35,208.77 296.71,206.82 300.05,204.88 303.39,202.95 306.71,201.03 310.03,199.12 313.33,197.22 316.63,195.32 319.91,193.44 323.19,191.56 326.45,189.69 329.70,187.83 332.95,185.98 336.18,184.14 339.40,182.31 342.62,180.49 345.82,178.68 349.01,176.88 352.19,175.09 355.36,173.31 358.52,171.54 361.66,169.77 364.80,168.03 367.93,166.29 371.04,164.56 374.14,162.84 377.24,161.13 380.32,159.44 383.39,157.75 386.45,156.08 389.49,154.42 392.53,152.77 395.56,151.13 398.57,149.50 401.57,147.89 404.56,146.28 407.54,144.69 410.51,143.11 413.46,141.55 416.41,139.99 419.34,138.45 422.26,136.92 425.17,135.40 428.06,133.90 430.95,132.41 433.82,130.93 436.68,129.46 439.53,128.01 442.37,126.57 445.19,125.14 448.00,123.73 450.80,122.33 453.59,120.95 456.36,119.58 459.13,118.22 461.88,116.87 464.61,115.54 467.34,114.23 470.05,112.92 472.75,111.63 475.44,110.36 478.11,109.10 480.77,107.85 483.42,106.62 486.06,105.41 488.68,104.21 491.29,103.02 493.89,101.85 496.47,100.69 499.04,99.55 501.60,98.42 504.14,97.31 506.68,96.21 509.19,95.13 511.70,94.06 514.19,93.01 516.67,91.97 519.13,90.95 521.58,89.95 524.02,88.96 526.45,87.99 528.86,87.03 531.26,86.09 533.64,85.16 536.01,84.25 538.37,83.36 540.71,82.48 543.04,81.62 545.35,80.77 547.65,79.94 549.94,79.13 552.21,78.33 554.47,77.55 556.72,76.79 558.95,76.04 561.17,75.31 563.37,74.59 565.56,73.90 567.73,73.21 569.89,72.55 572.04,71.90 574.17,71.27 576.29,70.66 578.39,70.06 580.48,69.48 582.56,68.92 584.62,68.37 586.66,67.84 588.70,67.33 590.71,66.83 592.72,66.35 594.70,65.89 596.68,65.45 598.63,65.02 600.58,64.61 602.51,64.22 604.42,63.85 606.32,63.49 608.20,63.15 610.07,62.83 611.93,62.52 613.77,62.23 615.59,61.96 617.40,61.71 619.20,61.47 620.98,61.25 622.74,61.05 624.49,60.87 626.23,60.70 627.94,60.56 629.65,60.42 631.34,60.31 633.01,60.22 634.67,60.14 636.31,60.08 637.94,60.03 639.55,60.01 641.15,60.00 642.73,60.01 644.30,60.04 645.85,60.08 647.39,60.14 648.91,60.22 650.41,60.32 651.90,60.44 653.37,60.57 654.83,60.72 656.27,60.88 657.70,61.07 659.11,61.27 660.51,61.49 661.88,61.73 663.25,61.98 664.60,62.26 665.93,62.55 667.25,62.85 668.55,63.18 669.83,63.52 671.10,63.88 672.35,64.25 673.59,64.65 674.81,65.06 676.02,65.49 677.21,65.93 678.38,66.39 679.54,66.87 680.68,67.37 681.81,67.88 682.91,68.42 684.01,68.96 685.09,69.53 686.15,70.11 687.19,70.71 688.22,71.32 689.23,71.96 690.23,72.61 691.21,73.27 692.18,73.96 693.12,74.65 694.06,75.37 694.97,76.10 695.87,76.85 696.75,77.62 697.62,78.40 698.47,79.20 699.31,80.01 700.12,80.84 700.92,81.69 701.71,82.55 702.48,83.43 703.23,84.33 703.97,85.24 704.69,86.17 705.39,87.11 706.08,88.07 706.75,89.04 707.40,90.03 708.04,91.04 708.66,92.06 709.27,93.10 709.85,94.15 710.43,95.22 710.98,96.30 711.52,97.40 712.04,98.52 712.55,99.64 713.04,100.79 713.51,101.95 713.96,103.12 714.40,104.31 714.83,105.51 715.23,106.73 715.62,107.96 716.00,109.21 716.35,110.47 716.69,111.74 717.02,113.03 717.32,114.34 717.61,115.66 717.89,116.99 718.14,118.33 718.38,119.69 718.61,121.07 718.81,122.45 719.00,123.85 719.18,125.27 719.34,126.69 719.48,128.14 719.60,129.59 719.71,131.06 719.80,132.54 719.87,134.03 719.93,135.53 719.97,137.05 719.99,138.58 720.00,140.13 719.99,141.68 719.96,143.25 719.92,144.83 719.86,146.42 719.79,148.03 719.69,149.64 719.58,151.27 719.46,152.91 719.32,154.56 719.16,156.22 718.98,157.90 718.79,159.58 718.58,161.28 718.35,162.99 718.11,164.71 717.85,166.44 717.58,168.18 717.28,169.93 716.97,171.69 716.65,173.46 716.31,175.24 715.95,177.03 715.57,178.83 715.18,180.65 714.77,182.47 714.35,184.30 713.91,186.14 713.45,187.99 712.97,189.85 712.48,191.72 711.97,193.60 711.45,195.49 710.91,197.38 710.35,199.29 709.78,201.20 709.19,203.12 708.58,205.05 707.96,206.99 707.32,208.94 706.66,210.89 705.99,212.85 705.30,214.82 704.59,216.80 703.87,218.79 703.13,220.78 702.38,222.78 701.61,224.78 700.82,226.80 700.02,228.82 699.20,230.85 698.36,232.88 697.51,234.92 696.64,236.97 695.75,239.02 694.85,241.08 693.94,243.14 693.00,245.21 692.05,247.29 691.08,249.37 690.10,251.46 689.10,253.55 688.09,255.65 687.06,257.75 686.01,259.86 684.95,261.97 683.87,264.09 682.77,266.21 681.66,268.33 680.53,270.46 679.39,272.60 678.23,274.73 677.05,276.88 675.86,279.02 674.65,281.17 673.43,283.32 672.19,285.48 670.94,287.63 669.67,289.79 668.38,291.96 667.08,294.12 665.76,296.29 664.42,298.46 663.07,300.64 661.71,302.81 660.33,304.99 658.93,307.17 657.52,309.35 656.09,311.53 654.64,313.72 653.18,315.90 651.71,318.09 650.22,320.28 648.71,322.46 647.19,324.65 645.65,326.84 644.10,329.03 642.53,331.22 640.95,333.41 639.35,335.60 637.73,337.79 636.10,339.98 634.46,342.17 632.80,344.36 631.12,346.55 629.43,348.74 627.72,350.92 626.00,353.11 624.27,355.29 622.51,357.47 620.75,359.65 618.97,361.83 617.17,364.01 615.36,366.18 613.53,368.36 611.69,370.53 609.83,372.70 607.96,374.86 606.07,377.03 604.17,379.19 602.26,381.34 600.33,383.50 598.38,385.65 596.42,387.80 594.45,389.94 592.46,392.08 590.45,394.22 588.43,396.35 586.40,398.48 584.35,400.61 582.29,402.73 580.21,404.84 578.12,406.95 576.02,409.06 573.90,411.16 571.76,413.26 569.62,415.35 567.45,417.44 565.28,419.52 563.09,421.59 560.88,423.66 558.66,425.73 556.43,427.78 554.18,429.83 551.92,431.88 549.64,433.92 547.36,435.95 545.05,437.98 542.74,440.00 540.41,442.01 538.06,444.02 535.70,446.01 533.33,448.01 530.95,449.99 528.55,451.97 526.13,453.93 523.71,455.90 521.27,457.85 518.81,459.79 516.35,461.73 513.87,463.66 511.37,465.58 508.87,467.49 506.35,469.39 503.82,471.29 501.27,473.17 498.71,475.05 496.14,476.92 493.55,478.78 490.95,480.62 488.34,482.46 485.72,484.29 483.08,486.11 480.43,487.92 477.77,489.72 475.09,491.51 472.40,493.29 469.70,495.06 466.99,496.82 464.26,498.57 461.52,500.31 458.77,502.04 456.01,503.76 453.23,505.46 450.44,507.16 447.64,508.84 444.83,510.51 442.00,512.17 439.16,513.82 436.31,515.46 433.45,517.08 430.58,518.70 427.69,520.30 424.79,521.89 421.88,523.47 418.96,525.04 416.03,526.59 413.08,528.13 410.12,529.66 407.16,531.17 404.18,532.68 401.18,534.17 398.18,535.65 395.17,537.11 392.14,538.56 389.10,540.00 "/>
</svg>
