<?xml version="1.0" encoding="UTF-8"?>
<svg xmlns="http://www.w3.org/2000/svg" width="800" height="600">
  <title>X=sin(3/2*t);Y=sin(t)</title>
  <rect width="800" height="600" fill="#ffffff"/>
  <g stroke="#d0d0d0" stroke-width="1">
    <line x1="80.00" y1="540.00" x2="80.00" y2="60.00"/>
    <line x1="720.00" y1="540.00" x2="720.00" y2="60.00"/>
    <line x1="80.00" y1="540.00" x2="720.00" y2="540.00"/>
    <line x1="80.00" y1="60.00" x2="720.00" y2="60.00"/>
  </g>
  <g stroke="#e8e8e8" stroke-width="0.5">
    <line x1="208.00" y1="540.00" x2="208.00" y2="60.00"/>
    <line x1="336.00" y1="540.00" x2="336.00" y2="60.00"/>
    <line x1="464.00" y1="540.00" x2="464.00" y2="60.00"/>
    <line x1="592.00" y1="540.00" x2="592.00" y2="60.00"/>
    <line x1="80.00" y1="444.00" x2="720.00" y2="444.00"/>
    <line x1="80.00" y1="348.00" x2="720.00" y2="348.00"/>
    <line x1="80.00" y1="252.00" x2="720.00" y2="252.00"/>
    <line x1="80.00" y1="156.00" x2="720.00" y2="156.00"/>
  </g>
  <g stroke="#808080" stroke-width="2">
    <line x1="80.00" y1="540.00" x2="80.00" y2="60.00"/>
    <line x1="80.00" y1="540.00" x2="720.00" y2="540.00"/>
  </g>
  <polyline fill="none" stroke="#0066cc" stroke-width="2" points="80.00,540.00 83.85,538.08 87.70,536.15 91.54,534.23 95.39,532.30 99.24,530.38 103.08,528.46 106.93,526.53 110.77,524.61 114.61,522.69 118.45,520.77 122.29,518.84 126.13,516.92 129.97,515.00 133.80,513.08 137.64,511.16 141.47,509.24 145.30,507.32 149.12,505.40 152.95,503.48 156.77,501.56 160.59,499.65 164.40,497.73 168.22,495.81 172.02,493.90 175.83,491.98 179.63,490.07 183.43,488.16 187.23,486.25 191.02,484.33 194.81,482.42 198.59,480.51 202.37,478.61 206.14,476.70 209.91,474.79 213.68,472.89 217.44,470.98 221.19,469.08 224.94,467.18 228.69,465.28 232.43,463.38 236.16,461.48 239.89,459.58 243.61,457.68 247.33,455.79 251.04,453.90 254.75,452.00 258.45,450.11 262.14,448.22 265.82,446.34 269.50,444.45 273.17,442.57 276.84,440.68 280.49,438.80 284.15,436.92 287.79,435.04 291.42,433.17 295.05,431.29 298.67,429.42 302.28,427.55 305.89,425.68 309.48,423.81 313.07,421.95 316.65,420.08 320.22,418.22 323.78,416.36 327.34,414.50 330.88,412.65 334.42,410.79 337.94,408.94 341.46,407.09 344.97,405.24 348.46,403.40 351.95,401.55 355.43,399.71 358.90,397.87 362.36,396.04 365.80,394.20 369.24,392.37 372.67,390.54 376.09,388.72 379.49,386.89 382.89,385.07 386.27,383.25 389.64,381.43 393.00,379.62 396.36,377.81 399.69,376.00 403.02,374.19 406.34,372.39 409.64,370.58 412.93,368.79 416.21,366.99 419.48,365.20 422.74,363.41 425.98,361.62 429.21,359.83 432.43,358.05 435.63,356.27 438.83,354.50 442.01,352.72 445.17,350.95 448.33,349.19 451.47,347.42 454.59,345.66 457.71,343.91 460.81,342.15 463.89,340.40 466.96,338.65 470.02,336.91 473.06,335.17 476.09,333.43 479.11,331.69 482.11,329.96 485.10,328.23 488.07,326.51 491.02,324.79 493.97,323.07 496.89,321.35 499.80,319.64 502.70,317.94 505.58,316.23 508.45,314.53 511.30,312.84 514.13,311.14 516.95,309.45 519.76,307.77 522.54,306.09 525.32,304.41 528.07,302.73 530.81,301.06 533.53,299.40 536.24,297.73 538.93,296.08 541.60,294.42 544.26,292.77 546.90,291.12 549.52,289.48 552.13,287.84 554.72,286.21 557.29,284.57 559.85,282.95 562.38,281.32 564.90,279.71 567.41,278.09 569.89,276.48 572.36,274.88 574.81,273.27 577.24,271.68 579.65,270.08 582.05,268.50 584.42,266.91 586.78,265.33 589.12,263.76 591.45,262.18 593.75,260.62 596.03,259.06 598.30,257.50 600.55,255.95 602.78,254.40 604.99,252.85 607.18,251.31 609.35,249.78 611.50,248.25 613.64,246.72 615.75,245.20 617.85,243.69 619.92,242.18 621.98,240.67 624.02,239.17 626.03,237.67 628.03,236.18 630.01,234.69 631.97,233.21 633.90,231.73 635.82,230.26 637.72,228.79 639.60,227.33 641.45,225.87 643.29,224.42 645.11,222.97 646.90,221.53 648.68,220.10 650.43,218.66 652.17,217.24 653.88,215.82 655.57,214.40 657.24,212.99 658.90,211.58 660.53,210.18 662.14,208.79 663.72,207.40 665.29,206.01 666.84,204.63 668.36,203.26 669.87,201.89 671.35,200.53 672.81,199.17 674.25,197.82 675.67,196.47 677.06,195.13 678.44,193.80 679.79,192.47 681.12,191.14 682.43,189.83 683.72,188.51 684.99,187.20 686.23,185.90 687.45,184.61 688.65,183.32 689.83,182.03 690.99,180.75 692.12,179.48 693.23,178.21 694.32,176.95 695.39,175.70 696.44,174.45 697.46,173.20 698.46,171.96 699.44,170.73 700.40,169.51 701.33,168.29 702.24,167.07 703.13,165.86 704.00,164.66 704.84,163.47 705.66,162.28 706.46,161.09 707.24,159.91 707.99,158.74 708.72,157.58 709.43,156.42 710.11,155.26 710.78,154.12 711.42,152.97 712.03,151.84 712.63,150.71 713.20,149.59 713.74,148.47 714.27,147.36 714.77,146.26 715.25,145.16 715.71,144.07 716.14,142.99 716.55,141.91 716.94,140.84 717.30,139.77 717.65,138.71 717.96,137.66 718.26,136.61 718.53,135.57 718.78,134.54 719.01,133.52 719.21,132.50 719.39,131.48 719.55,130.48 719.68,129.48 719.79,128.48 719.88,127.49 719.94,126.51 719.98,125.54 720.00,124.57 719.99,123.61 719.97,122.66 719.92,121.71 719.84,120.77 719.74,119.84 719.62,118.91 719.48,117.99 719.31,117.08 719.12,116.17 718.91,115.27 718.67,114.38 718.41,113.49 718.13,112.61 717.82,111.74 717.49,110.88 717.14,110.02 716.77,109.17 716.37,108.32 715.95,107.48 715.51,106.65 715.04,105.83 714.55,105.01 714.04,104.20 713.50,103.40 712.94,102.60 712.36,101.81 711.76,101.03 711.13,100.26 710.48,99.49 709.81,98.73 709.11,97.98 708.40,97.23 707.65,96.49 706.89,95.76 706.11,95.03 705.30,94.31 704.47,93.60 703.61,92.90 702.73,92.20 701.84,91.52 700.91,90.83 699.97,90.16 699.00,89.49 698.02,88.83 697.00,88.18 695.97,87.53 694.92,86.89 693.84,86.26 692.74,85.64 691.62,85.02 690.47,84.41 689.31,83.81 688.12,83.21 686.91,82.63 685.67,82.05 684.42,81.47 683.14,80.91 681.85,80.35 680.53,79.80 679.19,79.26 677.82,78.72 676.44,78.19 675.03,77.67 673.60,77.16 672.16,76.65 670.69,76.15 669.19,75.66 667.68,75.18 666.15,74.70 664.59,74.23 663.01,73.77 661.42,73.32 659.80,72.87 658.16,72.43 656.50,72.00 654.82,71.58 653.11,71.16 651.39,70.75 649.65,70.35 647.88,69.96 646.10,69.57 644.29,69.19 642.47,68.82 640.62,68.46 638.76,68.10 636.87,67.76 634.96,67.42 633.04,67.08 631.09,66.76 629.12,66.44 627.14,66.13 625.13,65.83 623.11,65.53 621.06,65.24 619.00,64.96 616.91,64.69 614.81,64.43 612.68,64.17 610.54,63.92 608.38,63.68 606.20,63.45 604.00,63.22 601.78,63.00 599.54,62.79 597.29,62.59 595.01,62.39 592.72,62.20 590.41,62.02 588.08,61.85 585.73,61.69 583.36,61.53 580.97,61.38 578.57,61.24 576.15,61.10 573.71,60.98 571.25,60.86 568.78,60.75 566.29,60.64 563.77,60.55 561.25,60.46 558.70,60.38 556.14,60.31 553.56,60.24 550.96,60.18 548.35,60.13 545.72,60.09 543.07,60.06 540.41,60.03 537.73,60.01 535.03,60.00 532.31,60.00 529.58,60.00 526.84,60.02 524.07,60.04 521.30,60.06 518.50,60.10 515.69,60.14 512.86,60.19 510.02,60.25 507.16,60.32 504.29,60.39 501.40,60.47 498.50,60.56 495.58,60.66 492.65,60.76 489.70,60.88 486.74,61.00 483.76,61.13 480.77,61.26 477.76,61.40 474.74,61.55 471.70,61.71 468.65,61.88 465.59,62.05 462.51,62.23 459.42,62.42 456.31,62.62 453.19,62.83 450.06,63.04 446.91,63.26 443.75,63.49 440.58,63.72 437.40,63.96 434.20,64.21 430.99,64.47 427.76,64.74 424.53,65.01 421.28,65.29 418.02,65.58 414.74,65.88 411.46,66.18 408.16,66.49 404.85,66.81 401.53,67.14 398.20,67.47 394.85,67.82 391.50,68.17 388.13,68.52 384.75,68.89 381.36,69.26 377.96,69.64 374.55,70.03 371.13,70.42 367.70,70.82 364.26,71.23 360.81,71.65 357.34,72.08 353.87,72.51 350.39,72.95 346.90,73.40 343.39,73.85 339.88,74.31 336.36,74.78 332.83,75.26 329.29,75.75 325.74,76.24 322.19,76.74 318.62,77.25 315.05,77.76 311.46,78.28 307.87,78.81 304.27,79.35 300.66,79.90 297.05,80.45 293.43,81.01 289.79,81.57 286.16,82.15 282.51,82.73 278.86,83.32 275.19,83.91 271.53,84.52 267.85,85.13 264.17,85.74 260.48,86.37 256.79,87.00 253.09,87.64 249.38,88.29 245.67,88.94 241.95,89.61 238.22,90.27 234.49,90.95 230.75,91.63 227.01,92.32 223.26,93.02 219.51,93.73 215.75,94.44 211.99,95.16 208.22,95.88 204.45,96.62 200.67,97.36 196.89,98.11 193.11,98.86 189.32,99.62 185.53,100.39 181.73,101.17 177.93,101.95 174.12,102.74 170.32,103.54 "/>
</svg>
