<?xml version="1.0" encoding="UTF-8"?>
<svg xmlns="http://www.w3.org/2000/svg" width="800" height="600">
  <title>X=sin(2*t);Y=sin(t)</title>
  <rect width="800" height="600" fill="#ffffff"/>
  <g stroke="#d0d0d0" stroke-width="1">
    <line x1="-8.60" y1="540.00" x2="-8.60" y2="60.00"/>
    <line x1="355.70" y1="540.00" x2="355.70" y2="60.00"/>
    <line x1="720.00" y1="540.00" x2="720.00" y2="60.00"/>
    <line x1="80.00" y1="540.00" x2="720.00" y2="540.00"/>
    <line x1="80.00" y1="60.00" x2="720.00" y2="60.00"/>
  </g>
  <g stroke="#e8e8e8" stroke-width="0.5">
    <line x1="137.12" y1="540.00" x2="137.12" y2="60.00"/>
    <line x1="209.98" y1="540.00" x2="209.98" y2="60.00"/>
    <line x1="282.84" y1="540.00" x2="282.84" y2="60.00"/>
    <line x1="428.56" y1="540.00" x2="428.56" y2="60.00"/>
    <line x1="501.42" y1="540.00" x2="501.42" y2="60.00"/>
    <line x1="574.28" y1="540.00" x2="574.28" y2="60.00"/>
    <line x1="647.14" y1="540.00" x2="647.14" y2="60.00"/>
    <line x1="80.00" y1="444.00" x2="720.00" y2="444.00"/>
    <line x1="80.00" y1="348.00" x2="720.00" y2="348.00"/>
    <line x1="80.00" y1="252.00" x2="720.00" y2="252.00"/>
    <line x1="80.00" y1="156.00" x2="720.00" y2="156.00"/>
  </g>
  <g stroke="#808080" stroke-width="2">
    <line x1="355.70" y1="540.00" x2="355.70" y2="60.00"/>
    <line x1="80.00" y1="540.00" x2="720.00" y2="540.00"/>
  </g>
  <polyline fill="none" stroke="#0066cc" stroke-width="2" points="355.70,540.00 358.62,538.08 361.54,536.15 364.46,534.23 367.38,532.30 370.30,530.38 373.22,528.46 376.13,526.53 379.05,524.61 381.96,522.69 384.87,520.77 387.78,518.84 390.69,516.92 393.60,515.00 396.50,513.08 399.40,511.16 402.30,509.24 405.19,507.32 408.08,505.40 410.97,503.48 413.86,501.56 416.74,499.65 419.61,497.73 422.49,495.81 425.36,493.90 428.22,491.98 431.08,490.07 433.93,488.16 436.78,486.25 439.63,484.33 442.47,482.42 445.30,480.51 448.13,478.61 450.95,476.70 453.76,474.79 456.57,472.89 459.38,470.98 462.17,469.08 464.96,467.18 467.74,465.28 470.52,463.38 473.29,461.48 476.05,459.58 478.80,457.68 481.54,455.79 484.28,453.90 487.01,452.00 489.73,450.11 492.44,448.22 495.14,446.34 497.84,444.45 500.52,442.57 503.19,440.68 505.86,438.80 508.52,436.92 511.16,435.04 513.80,433.17 516.42,431.29 519.04,429.42 521.64,427.55 524.24,425.68 526.82,423.81 529.39,421.95 531.96,420.08 534.51,418.22 537.04,416.36 539.57,414.50 542.09,412.65 544.59,410.79 547.08,408.94 549.56,407.09 552.02,405.24 554.48,403.40 556.92,401.55 559.35,399.71 561.76,397.87 564.16,396.04 566.55,394.20 568.93,392.37 571.29,390.54 573.63,388.72 575.97,386.89 578.29,385.07 580.59,383.25 582.88,381.43 585.16,379.62 587.42,377.81 589.66,376.00 591.89,374.19 594.11,372.39 596.31,370.58 598.49,368.79 600.66,366.99 602.82,365.20 604.95,363.41 607.08,361.62 609.18,359.83 611.27,358.05 613.34,356.27 615.40,354.50 617.44,352.72 619.46,350.95 621.47,349.19 623.46,347.42 625.43,345.66 627.38,343.91 629.32,342.15 631.24,340.40 633.14,338.65 635.02,336.91 636.89,335.17 638.74,333.43 640.57,331.69 642.38,329.96 644.17,328.23 645.94,326.51 647.70,324.79 649.44,323.07 651.15,321.35 652.85,319.64 654.53,317.94 656.19,316.23 657.84,314.53 659.46,312.84 661.06,311.14 662.64,309.45 664.21,307.77 665.75,306.09 667.27,304.41 668.77,302.73 670.26,301.06 671.72,299.40 673.16,297.73 674.59,296.08 675.99,294.42 677.37,292.77 678.73,291.12 680.07,289.48 681.39,287.84 682.69,286.21 683.96,284.57 685.22,282.95 686.45,281.32 687.67,279.71 688.86,278.09 690.03,276.48 691.18,274.88 692.31,273.27 693.41,271.68 694.50,270.08 695.56,268.50 696.60,266.91 697.62,265.33 698.61,263.76 699.59,262.18 700.54,260.62 701.47,259.06 702.38,257.50 703.27,255.95 704.13,254.40 704.97,252.85 705.79,251.31 706.59,249.78 707.36,248.25 708.11,246.72 708.84,245.20 709.55,243.69 710.23,242.18 710.89,240.67 711.53,239.17 712.14,237.67 712.73,236.18 713.30,234.69 713.85,233.21 714.37,231.73 714.87,230.26 715.35,228.79 715.80,227.33 716.23,225.87 716.64,224.42 717.02,222.97 717.38,221.53 717.72,220.10 718.04,218.66 718.33,217.24 718.60,215.82 718.84,214.40 719.06,212.99 719.26,211.58 719.43,210.18 719.58,208.79 719.71,207.40 719.82,206.01 719.90,204.63 719.96,203.26 719.99,201.89 720.00,200.53 719.99,199.17 719.95,197.82 719.89,196.47 719.81,195.13 719.70,193.80 719.57,192.47 719.42,191.14 719.24,189.83 719.04,188.51 718.82,187.20 718.57,185.90 718.30,184.61 718.01,183.32 717.69,182.03 717.35,180.75 716.99,179.48 716.61,178.21 716.20,176.95 715.76,175.70 715.31,174.45 714.83,173.20 714.33,171.96 713.80,170.73 713.25,169.51 712.68,168.29 712.09,167.07 711.47,165.86 710.83,164.66 710.17,163.47 709.49,162.28 708.78,161.09 708.05,159.91 707.30,158.74 706.52,157.58 705.72,156.42 704.90,155.26 704.06,154.12 703.19,152.97 702.30,151.84 701.39,150.71 700.46,149.59 699.51,148.47 698.53,147.36 697.53,146.26 696.51,145.16 695.47,144.07 694.40,142.99 693.32,141.91 692.21,140.84 691.08,139.77 689.93,138.71 688.76,137.66 687.56,136.61 686.35,135.57 685.11,134.54 683.85,133.52 682.57,132.50 681.27,131.48 679.95,130.48 678.61,129.48 677.25,128.48 675.87,127.49 674.46,126.51 673.04,125.54 671.60,124.57 670.13,123.61 668.65,122.66 667.14,121.71 665.62,120.77 664.07,119.84 662.51,118.91 660.92,117.99 659.32,117.08 657.69,116.17 656.05,115.27 654.39,114.38 652.71,113.49 651.01,112.61 649.29,111.74 647.55,110.88 645.79,110.02 644.02,109.17 642.22,108.32 640.41,107.48 638.58,106.65 636.73,105.83 634.86,105.01 632.98,104.20 631.07,103.40 629.15,102.60 627.21,101.81 625.26,101.03 623.29,100.26 621.30,99.49 619.29,98.73 617.26,97.98 615.22,97.23 613.17,96.49 611.09,95.76 609.00,95.03 606.89,94.31 604.77,93.60 602.63,92.90 600.48,92.20 598.31,91.52 596.12,90.83 593.92,90.16 591.70,89.49 589.47,88.83 587.22,88.18 584.96,87.53 582.68,86.89 580.39,86.26 578.09,85.64 575.77,85.02 573.43,84.41 571.08,83.81 568.72,83.21 566.35,82.63 563.96,82.05 561.55,81.47 559.14,80.91 556.71,80.35 554.27,79.80 551.81,79.26 549.34,78.72 546.87,78.19 544.37,77.67 541.87,77.16 539.35,76.65 536.83,76.15 534.29,75.66 531.73,75.18 529.17,74.70 526.60,74.23 524.01,73.77 521.42,73.32 518.81,72.87 516.20,72.43 513.57,72.00 510.93,71.58 508.29,71.16 505.63,70.75 502.96,70.35 500.29,69.96 497.60,69.57 494.91,69.19 492.21,68.82 489.49,68.46 486.77,68.10 484.04,67.76 481.31,67.42 478.56,67.08 475.81,66.76 473.05,66.44 470.28,66.13 467.50,65.83 464.72,65.53 461.93,65.24 459.14,64.96 456.33,64.69 453.52,64.43 450.71,64.17 447.88,63.92 445.06,63.68 442.22,63.45 439.38,63.22 436.54,63.00 433.69,62.79 430.83,62.59 427.97,62.39 425.11,62.20 422.24,62.02 419.37,61.85 416.49,61.69 413.61,61.53 410.72,61.38 407.83,61.24 404.94,61.10 402.05,60.98 399.15,60.86 396.25,60.75 393.35,60.64 390.44,60.55 387.53,60.46 384.62,60.38 381.71,60.31 378.80,60.24 375.88,60.18 372.96,60.13 370.05,60.09 367.13,60.06 364.21,60.03 361.29,60.01 358.37,60.00 355.45,60.00 352.53,60.00 349.61,60.02 346.69,60.04 343.77,60.06 340.85,60.10 337.94,60.14 335.02,60.19 332.10,60.25 329.19,60.32 326.28,60.39 323.37,60.47 320.46,60.56 317.56,60.66 314.65,60.76 311.75,60.88 308.86,61.00 305.96,61.13 303.07,61.26 300.18,61.40 297.30,61.55 294.42,61.71 291.54,61.88 288.67,62.05 285.80,62.23 282.94,62.42 280.08,62.62 277.22,62.83 274.37,63.04 271.53,63.26 268.69,63.49 265.86,63.72 263.03,63.96 260.21,64.21 257.40,64.47 254.59,64.74 251.79,65.01 248.99,65.29 246.20,65.58 243.42,65.88 240.64,66.18 237.88,66.49 235.12,66.81 232.37,67.14 229.62,67.47 226.89,67.82 224.16,68.17 221.44,68.52 218.73,68.89 216.03,69.26 213.34,69.64 210.65,70.03 207.98,70.42 205.31,70.82 202.66,71.23 200.01,71.65 197.38,72.08 194.75,72.51 192.14,72.95 189.54,73.40 186.94,73.85 184.36,74.31 181.79,74.78 179.23,75.26 176.68,75.75 174.14,76.24 171.62,76.74 169.10,77.25 166.60,77.76 164.11,78.28 161.63,78.81 159.17,79.35 156.71,79.90 154.27,80.45 151.85,81.01 149.43,81.57 147.03,82.15 144.65,82.73 142.27,83.32 139.91,83.91 137.57,84.52 135.24,85.13 132.92,85.74 130.62,86.37 128.33,87.00 126.05,87.64 123.79,88.29 121.55,88.94 119.32,89.61 117.10,90.27 114.91,90.95 112.72,91.63 110.55,92.32 108.40,93.02 106.26,93.73 104.14,94.44 102.04,95.16 99.95,95.88 97.88,96.62 95.83,97.36 93.79,98.11 91.77,98.86 89.76,99.62 87.78,100.39 85.81,101.17 83.85,101.95 81.92,102.74 80.00,103.54 "/>
</svg>
