<?xml version="1.0" encoding="UTF-8"?>
<svg xmlns="http://www.w3.org/2000/svg" width="800" height="600">
  <title>X=sin(3*t+pi/2);Y=sin(t)</title>
  <rect width="800" height="600" fill="#ffffff"/>
  <g stroke="#d0d0d0" stroke-width="1">
    <line x1="80.00" y1="540.00" x2="80.00" y2="60.00"/>
    <line x1="400.00" y1="540.00" x2="400.00" y2="60.00"/>
    <line x1="720.00" y1="540.00" x2="720.00" y2="60.00"/>
    <line x1="80.00" y1="540.00" x2="720.00" y2="540.00"/>
    <line x1="80.00" y1="60.00" x2="720.00" y2="60.00"/>
  </g>
  <g stroke="#e8e8e8" stroke-width="0.5">
    <line x1="144.00" y1="540.00" x2="144.00" y2="60.00"/>
    <line x1="208.00" y1="540.00" x2="208.00" y2="60.00"/>
    <line x1="272.00" y1="540.00" x2="272.00" y2="60.00"/>
    <line x1="336.00" y1="540.00" x2="336.00" y2="60.00"/>
    <line x1="464.00" y1="540.00" x2="464.00" y2="60.00"/>
    <line x1="528.00" y1="540.00" x2="528.00" y2="60.00"/>
    <line x1="592.00" y1="540.00" x2="592.00" y2="60.00"/>
    <line x1="656.00" y1="540.00" x2="656.00" y2="60.00"/>
    <line x1="80.00" y1="444.00" x2="720.00" y2="444.00"/>
    <line x1="80.00" y1="348.00" x2="720.00" y2="348.00"/>
    <line x1="80.00" y1="252.00" x2="720.00" y2="252.00"/>
    <line x1="80.00" y1="156.00" x2="720.00" y2="156.00"/>
  </g>
  <g stroke="#808080" stroke-width="2">
    <line x1="400.00" y1="540.00" x2="400.00" y2="60.00"/>
    <line x1="80.00" y1="540.00" x2="720.00" y2="540.00"/>
  </g>
  <polyline fill="none" stroke="#0066cc" stroke-width="2" points="720.00,540.00 719.98,538.08 719.91,536.15 719.79,534.23 719.63,532.30 719.42,530.38 719.17,528.46 718.87,526.53 718.52,524.61 718.13,522.69 717.69,520.77 717.21,518.84 716.67,516.92 716.10,515.00 715.48,513.08 714.81,511.16 714.10,509.24 713.34,507.32 712.53,505.40 711.69,503.48 710.79,501.56 709.85,499.65 708.87,497.73 707.84,495.81 706.77,493.90 705.65,491.98 704.49,490.07 703.28,488.16 702.03,486.25 700.74,484.33 699.41,482.42 698.03,480.51 696.60,478.61 695.14,476.70 693.63,474.79 692.08,472.89 690.49,470.98 688.85,469.08 687.17,467.18 685.46,465.28 683.70,463.38 681.90,461.48 680.05,459.58 678.17,457.68 676.25,455.79 674.29,453.90 672.29,452.00 670.25,450.11 668.17,448.22 666.05,446.34 663.89,444.45 661.69,442.57 659.46,440.68 657.19,438.80 654.88,436.92 652.54,435.04 650.16,433.17 647.74,431.29 645.29,429.42 642.80,427.55 640.27,425.68 637.71,423.81 635.12,421.95 632.49,420.08 629.83,418.22 627.14,416.36 624.41,414.50 621.65,412.65 618.86,410.79 616.04,408.94 613.19,407.09 610.30,405.24 607.39,403.40 604.44,401.55 601.47,399.71 598.46,397.87 595.43,396.04 592.37,394.20 589.28,392.37 586.16,390.54 583.02,388.72 579.85,386.89 576.66,385.07 573.44,383.25 570.19,381.43 566.92,379.62 563.62,377.81 560.31,376.00 556.96,374.19 553.60,372.39 550.21,370.58 546.81,368.79 543.38,366.99 539.93,365.20 536.46,363.41 532.97,361.62 529.46,359.83 525.93,358.05 522.38,356.27 518.82,354.50 515.24,352.72 511.64,350.95 508.02,349.19 504.40,347.42 500.75,345.66 497.09,343.91 493.42,342.15 489.73,340.40 486.03,338.65 482.32,336.91 478.60,335.17 474.86,333.43 471.11,331.69 467.36,329.96 463.59,328.23 459.82,326.51 456.03,324.79 452.24,323.07 448.44,321.35 444.63,319.64 440.82,317.94 437.00,316.23 433.18,314.53 429.35,312.84 425.51,311.14 421.68,309.45 417.84,307.77 413.99,306.09 410.15,304.41 406.30,302.73 402.45,301.06 398.61,299.40 394.76,297.73 390.91,296.08 387.07,294.42 383.22,292.77 379.38,291.12 375.54,289.48 371.71,287.84 367.88,286.21 364.05,284.57 360.23,282.95 356.42,281.32 352.61,279.71 348.81,278.09 345.01,276.48 341.23,274.88 337.45,273.27 333.68,271.68 329.92,270.08 326.17,268.50 322.43,266.91 318.70,265.33 314.99,263.76 311.29,262.18 307.60,260.62 303.92,259.06 300.26,257.50 296.61,255.95 292.97,254.40 289.35,252.85 285.75,251.31 282.17,249.78 278.60,248.25 275.05,246.72 271.51,245.20 268.00,243.69 264.50,242.18 261.03,240.67 257.57,239.17 254.14,237.67 250.72,236.18 247.33,234.69 243.96,233.21 240.61,231.73 237.29,230.26 233.99,228.79 230.71,227.33 227.46,225.87 224.23,224.42 221.02,222.97 217.85,221.53 214.70,220.10 211.57,218.66 208.48,217.24 205.41,215.82 202.37,214.40 199.36,212.99 196.37,211.58 193.42,210.18 190.50,208.79 187.60,207.40 184.74,206.01 181.91,204.63 179.11,203.26 176.34,201.89 173.61,200.53 170.90,199.17 168.23,197.82 165.60,196.47 163.00,195.13 160.43,193.80 157.89,192.47 155.40,191.14 152.93,189.83 150.51,188.51 148.11,187.20 145.76,185.90 143.44,184.61 141.16,183.32 138.92,182.03 136.71,180.75 134.54,179.48 132.41,178.21 130.32,176.95 128.27,175.70 126.26,174.45 124.28,173.20 122.35,171.96 120.46,170.73 118.61,169.51 116.79,168.29 115.02,167.07 113.29,165.86 111.61,164.66 109.96,163.47 108.35,162.28 106.79,161.09 105.27,159.91 103.80,158.74 102.36,157.58 100.97,156.42 99.62,155.26 98.32,154.12 97.05,152.97 95.84,151.84 94.66,150.71 93.53,149.59 92.45,148.47 91.41,147.36 90.41,146.26 89.46,145.16 88.55,144.07 87.69,142.99 86.88,141.91 86.11,140.84 85.38,139.77 84.70,138.71 84.07,137.66 83.48,136.61 82.93,135.57 82.44,134.54 81.99,133.52 81.58,132.50 81.22,131.48 80.91,130.48 80.64,129.48 80.42,128.48 80.25,127.49 80.12,126.51 80.04,125.54 80.00,124.57 80.01,123.61 80.07,122.66 80.17,121.71 80.32,120.77 80.51,119.84 80.76,118.91 81.04,117.99 81.38,117.08 81.76,116.17 82.18,115.27 82.65,114.38 83.17,113.49 83.74,112.61 84.35,111.74 85.00,110.88 85.70,110.02 86.45,109.17 87.24,108.32 88.07,107.48 88.96,106.65 89.88,105.83 90.85,105.01 91.87,104.20 92.93,103.40 94.03,102.60 95.18,101.81 96.38,101.03 97.61,100.26 98.90,99.49 100.22,98.73 101.59,97.98 103.00,97.23 104.45,96.49 105.95,95.76 107.49,95.03 109.07,94.31 110.69,93.60 112.36,92.90 114.06,92.20 115.81,91.52 117.60,90.83 119.43,90.16 121.30,89.49 123.21,88.83 125.16,88.18 127.16,87.53 129.19,86.89 131.25,86.26 133.36,85.64 135.51,85.02 137.69,84.41 139.92,83.81 142.18,83.21 144.48,82.63 146.81,82.05 149.18,81.47 151.59,80.91 154.03,80.35 156.51,79.80 159.03,79.26 161.57,78.72 164.16,78.19 166.78,77.67 169.43,77.16 172.11,76.65 174.83,76.15 177.58,75.66 180.36,75.18 183.18,74.70 186.02,74.23 188.90,73.77 191.80,73.32 194.74,72.87 197.71,72.43 200.70,72.00 203.73,71.58 206.78,71.16 209.86,70.75 212.97,70.35 216.11,69.96 219.27,69.57 222.46,69.19 225.67,68.82 228.91,68.46 232.17,68.10 235.46,67.76 238.77,67.42 242.11,67.08 245.47,66.76 248.85,66.44 252.25,66.13 255.67,65.83 259.12,65.53 262.58,65.24 266.07,64.96 269.57,64.69 273.10,64.43 276.64,64.17 280.20,63.92 283.77,63.68 287.37,63.45 290.98,63.22 294.60,63.00 298.24,62.79 301.90,62.59 305.57,62.39 309.25,62.20 312.95,62.02 316.65,61.85 320.37,61.69 324.11,61.53 327.85,61.38 331.60,61.24 335.37,61.10 339.14,60.98 342.92,60.86 346.71,60.75 350.51,60.64 354.32,60.55 358.13,60.46 361.94,60.38 365.77,60.31 369.60,60.24 373.43,60.18 377.26,60.13 381.10,60.09 384.95,60.06 388.79,60.03 392.64,60.01 396.48,60.00 400.33,60.00 404.18,60.00 408.03,60.02 411.87,60.04 415.72,60.06 419.56,60.10 423.40,60.14 427.23,60.19 431.06,60.25 434.89,60.32 438.71,60.39 442.53,60.47 446.34,60.56 450.14,60.66 453.94,60.76 457.73,60.88 461.51,61.00 465.28,61.13 469.04,61.26 472.79,61.40 476.54,61.55 480.27,61.71 483.99,61.88 487.69,62.05 491.39,62.23 495.07,62.42 498.73,62.62 502.39,62.83 506.02,63.04 509.65,63.26 513.25,63.49 516.84,63.72 520.42,63.96 523.97,64.21 527.51,64.47 531.03,64.74 534.53,65.01 538.01,65.29 541.48,65.58 544.92,65.88 548.34,66.18 551.73,66.49 555.11,66.81 558.47,67.14 561.80,67.47 565.10,67.82 568.39,68.17 571.65,68.52 574.88,68.89 578.09,69.26 581.28,69.64 584.43,70.03 587.56,70.42 590.67,70.82 593.75,71.23 596.79,71.65 599.81,72.08 602.80,72.51 605.77,72.95 608.70,73.40 611.60,73.85 614.47,74.31 617.31,74.78 620.12,75.26 622.90,75.75 625.64,76.24 628.35,76.74 631.03,77.25 633.68,77.76 636.29,78.28 638.87,78.81 641.41,79.35 643.92,79.90 646.39,80.45 648.83,81.01 651.23,81.57 653.59,82.15 655.92,82.73 658.21,83.32 660.47,83.91 662.68,84.52 664.86,85.13 667.00,85.74 669.10,86.37 671.17,87.00 673.19,87.64 675.17,88.29 677.12,88.94 679.02,89.61 680.88,90.27 682.71,90.95 684.49,91.63 686.23,92.32 687.93,93.02 689.59,93.73 691.21,94.44 692.78,95.16 694.31,95.88 695.80,96.62 697.25,97.36 698.65,98.11 700.01,98.86 701.33,99.62 702.60,100.39 703.83,101.17 705.02,101.95 706.16,102.74 707.25,103.54 "/>
</svg>
