<?xml version="1.0" encoding="UTF-8"?>
<svg xmlns="http://www.w3.org/2000/svg" width="800" height="600">
  <title>X=sin(3*t+pi/4);Y=sin(t)</title>
  <rect width="800" height="600" fill="#ffffff"/>
  <g stroke="#d0d0d0" stroke-width="1">
    <line x1="80.00" y1="540.00" x2="80.00" y2="60.00"/>
    <line x1="400.00" y1="540.00" x2="400.00" y2="60.00"/>
    <line x1="720.00" y1="540.00" x2="720.00" y2="60.00"/>
    <line x1="80.00" y1="540.00" x2="720.00" y2="540.00"/>
    <line x1="80.00" y1="60.00" x2="720.00" y2="60.00"/>
  </g>
  <g stroke="#e8e8e8" stroke-width="0.5">
    <line x1="144.00" y1="540.00" x2="144.00" y2="60.00"/>
    <line x1="208.00" y1="540.00" x2="208.00" y2="60.00"/>
    <line x1="272.00" y1="540.00" x2="272.00" y2="60.00"/>
    <line x1="336.00" y1="540.00" x2="336.00" y2="60.00"/>
    <line x1="464.00" y1="540.00" x2="464.00" y2="60.00"/>
    <line x1="528.00" y1="540.00" x2="528.00" y2="60.00"/>
    <line x1="592.00" y1="540.00" x2="592.00" y2="60.00"/>
    <line x1="656.00" y1="540.00" x2="656.00" y2="60.00"/>
    <line x1="80.00" y1="444.00" x2="720.00" y2="444.00"/>
    <line x1="80.00" y1="348.00" x2="720.00" y2="348.00"/>
    <line x1="80.00" y1="252.00" x2="720.00" y2="252.00"/>
    <line x1="80.00" y1="156.00" x2="720.00" y2="156.00"/>
  </g>
  <g stroke="#808080" stroke-width="2">
    <line x1="400.00" y1="540.00" x2="400.00" y2="60.00"/>
    <line x1="80.00" y1="540.00" x2="720.00" y2="540.00"/>
  </g>
  <polyline fill="none" stroke="#0066cc" stroke-width="2" points="626.28,540.00 628.98,538.08 631.65,536.15 634.29,534.23 636.89,532.30 639.46,530.38 642.00,528.46 644.50,526.53 646.96,524.61 649.39,522.69 651.78,520.77 654.14,518.84 656.46,516.92 658.74,515.00 660.99,513.08 663.20,511.16 665.37,509.24 667.50,507.32 669.59,505.40 671.64,503.48 673.66,501.56 675.63,499.65 677.57,497.73 679.46,495.81 681.31,493.90 683.13,491.98 684.90,490.07 686.63,488.16 688.32,486.25 689.97,484.33 691.58,482.42 693.14,480.51 694.66,478.61 696.14,476.70 697.58,474.79 698.97,472.89 700.32,470.98 701.63,469.08 702.89,467.18 704.11,465.28 705.29,463.38 706.42,461.48 707.51,459.58 708.55,457.68 709.55,455.79 710.50,453.90 711.41,452.00 712.27,450.11 713.09,448.22 713.86,446.34 714.59,444.45 715.27,442.57 715.91,440.68 716.50,438.80 717.04,436.92 717.54,435.04 718.00,433.17 718.40,431.29 718.76,429.42 719.08,427.55 719.35,425.68 719.57,423.81 719.75,421.95 719.88,420.08 719.96,418.22 720.00,416.36 719.99,414.50 719.94,412.65 719.84,410.79 719.69,408.94 719.50,407.09 719.26,405.24 718.97,403.40 718.64,401.55 718.26,399.71 717.84,397.87 717.37,396.04 716.85,394.20 716.29,392.37 715.68,390.54 715.03,388.72 714.33,386.89 713.59,385.07 712.80,383.25 711.96,381.43 711.08,379.62 710.16,377.81 709.19,376.00 708.18,374.19 707.12,372.39 706.01,370.58 704.87,368.79 703.68,366.99 702.44,365.20 701.16,363.41 699.84,361.62 698.47,359.83 697.06,358.05 695.61,356.27 694.12,354.50 692.58,352.72 691.00,350.95 689.38,349.19 687.72,347.42 686.01,345.66 684.26,343.91 682.48,342.15 680.65,340.40 678.78,338.65 676.87,336.91 674.92,335.17 672.93,333.43 670.90,331.69 668.84,329.96 666.73,328.23 664.58,326.51 662.40,324.79 660.18,323.07 657.92,321.35 655.62,319.64 653.29,317.94 650.92,316.23 648.52,314.53 646.07,312.84 643.60,311.14 641.08,309.45 638.54,307.77 635.95,306.09 633.34,304.41 630.69,302.73 628.00,301.06 625.29,299.40 622.54,297.73 619.76,296.08 616.95,294.42 614.10,292.77 611.23,291.12 608.32,289.48 605.39,287.84 602.42,286.21 599.43,284.57 596.40,282.95 593.35,281.32 590.27,279.71 587.16,278.09 584.03,276.48 580.87,274.88 577.68,273.27 574.47,271.68 571.23,270.08 567.97,268.50 564.68,266.91 561.37,265.33 558.03,263.76 554.68,262.18 551.30,260.62 547.90,259.06 544.47,257.50 541.03,255.95 537.57,254.40 534.08,252.85 530.58,251.31 527.06,249.78 523.52,248.25 519.96,246.72 516.38,245.20 512.79,243.69 509.18,242.18 505.56,240.67 501.92,239.17 498.26,237.67 494.59,236.18 490.91,234.69 487.21,233.21 483.51,231.73 479.78,230.26 476.05,228.79 472.31,227.33 468.56,225.87 464.79,224.42 461.02,222.97 457.24,221.53 453.45,220.10 449.65,218.66 445.85,217.24 442.04,215.82 438.22,214.40 434.40,212.99 430.57,211.58 426.74,210.18 422.90,208.79 419.06,207.40 415.22,206.01 411.37,204.63 407.53,203.26 403.68,201.89 399.83,200.53 395.99,199.17 392.14,197.82 388.29,196.47 384.45,195.13 380.61,193.80 376.77,192.47 372.93,191.14 369.10,189.83 365.27,188.51 361.45,187.20 357.63,185.90 353.82,184.61 350.02,183.32 346.22,182.03 342.43,180.75 338.65,179.48 334.88,178.21 331.12,176.95 327.36,175.70 323.62,174.45 319.89,173.20 316.17,171.96 312.47,170.73 308.77,169.51 305.09,168.29 301.42,167.07 297.77,165.86 294.13,164.66 290.51,163.47 286.90,162.28 283.31,161.09 279.73,159.91 276.18,158.74 272.64,157.58 269.12,156.42 265.62,155.26 262.13,154.12 258.67,152.97 255.23,151.84 251.81,150.71 248.41,149.59 245.03,148.47 241.68,147.36 238.34,146.26 235.03,145.16 231.75,144.07 228.49,142.99 225.25,141.91 222.04,140.84 218.86,139.77 215.70,138.71 212.57,137.66 209.46,136.61 206.38,135.57 203.33,134.54 200.31,133.52 197.32,132.50 194.36,131.48 191.43,130.48 188.52,129.48 185.65,128.48 182.81,127.49 180.00,126.51 177.22,125.54 174.47,124.57 171.76,123.61 169.08,122.66 166.43,121.71 163.82,120.77 161.24,119.84 158.70,118.91 156.19,117.99 153.71,117.08 151.27,116.17 148.87,115.27 146.50,114.38 144.17,113.49 141.88,112.61 139.63,111.74 137.41,110.88 135.23,110.02 133.09,109.17 130.98,108.32 128.92,107.48 126.89,106.65 124.91,105.83 122.96,105.01 121.06,104.20 119.19,103.40 117.37,102.60 115.58,101.81 113.84,101.03 112.14,100.26 110.48,99.49 108.86,98.73 107.28,97.98 105.75,97.23 104.26,96.49 102.81,95.76 101.41,95.03 100.04,94.31 98.73,93.60 97.45,92.90 96.22,92.20 95.03,91.52 93.89,90.83 92.79,90.16 91.73,89.49 90.72,88.83 89.76,88.18 88.84,87.53 87.96,86.89 87.13,86.26 86.35,85.64 85.61,85.02 84.91,84.41 84.26,83.81 83.66,83.21 83.10,82.63 82.59,82.05 82.12,81.47 81.70,80.91 81.33,80.35 81.00,79.80 80.72,79.26 80.48,78.72 80.30,78.19 80.15,77.67 80.06,77.16 80.00,76.65 80.00,76.15 80.04,75.66 80.13,75.18 80.26,74.70 80.45,74.23 80.67,73.77 80.94,73.32 81.26,72.87 81.63,72.43 82.04,72.00 82.50,71.58 83.00,71.16 83.55,70.75 84.14,70.35 84.78,69.96 85.47,69.57 86.20,69.19 86.98,68.82 87.80,68.46 88.67,68.10 89.58,67.76 90.54,67.42 91.54,67.08 92.59,66.76 93.68,66.44 94.81,66.13 95.99,65.83 97.21,65.53 98.48,65.24 99.79,64.96 101.14,64.69 102.54,64.43 103.98,64.17 105.47,63.92 106.99,63.68 108.56,63.45 110.17,63.22 111.82,63.00 113.51,62.79 115.25,62.59 117.03,62.39 118.84,62.20 120.70,62.02 122.60,61.85 124.54,61.69 126.51,61.53 128.53,61.38 130.59,61.24 132.68,61.10 134.82,60.98 136.99,60.86 139.20,60.75 141.45,60.64 143.74,60.55 146.06,60.46 148.42,60.38 150.82,60.31 153.25,60.24 155.72,60.18 158.22,60.13 160.76,60.09 163.33,60.06 165.94,60.03 168.58,60.01 171.25,60.00 173.96,60.00 176.70,60.00 179.47,60.02 182.27,60.04 185.11,60.06 187.98,60.10 190.87,60.14 193.80,60.19 196.76,60.25 199.74,60.32 202.76,60.39 205.80,60.47 208.88,60.56 211.98,60.66 215.10,60.76 218.26,60.88 221.44,61.00 224.64,61.13 227.87,61.26 231.13,61.40 234.41,61.55 237.72,61.71 241.04,61.88 244.39,62.05 247.77,62.23 251.16,62.42 254.58,62.62 258.02,62.83 261.48,63.04 264.95,63.26 268.45,63.49 271.97,63.72 275.50,63.96 279.06,64.21 282.63,64.47 286.22,64.74 289.82,65.01 293.44,65.29 297.08,65.58 300.73,65.88 304.39,66.18 308.07,66.49 311.76,66.81 315.47,67.14 319.19,67.47 322.92,67.82 326.66,68.17 330.41,68.52 334.17,68.89 337.94,69.26 341.72,69.64 345.50,70.03 349.30,70.42 353.10,70.82 356.91,71.23 360.73,71.65 364.55,72.08 368.37,72.51 372.21,72.95 376.04,73.40 379.88,73.85 383.72,74.31 387.56,74.78 391.41,75.26 395.26,75.75 399.10,76.24 402.95,76.74 406.80,77.25 410.65,77.76 414.49,78.28 418.33,78.81 422.17,79.35 426.01,79.90 429.84,80.45 433.67,81.01 437.50,81.57 441.31,82.15 445.13,82.73 448.93,83.32 452.73,83.91 456.52,84.52 460.31,85.13 464.08,85.74 467.84,86.37 471.60,87.00 475.34,87.64 479.08,88.29 482.80,88.94 486.51,89.61 490.21,90.27 493.90,90.95 497.57,91.63 501.22,92.32 504.87,93.02 508.49,93.73 512.11,94.44 515.70,95.16 519.28,95.88 522.84,96.62 526.39,97.36 529.91,98.11 533.42,98.86 536.91,99.62 540.37,100.39 543.82,101.17 547.25,101.95 550.65,102.74 554.04,103.54 "/>
</svg>
