<?xml version="1.0" encoding="UTF-8"?>
<svg xmlns="http://www.w3.org/2000/svg" width="800" height="600">
  <title>X=sin(t/2+pi/16);Y=sin(t):0,4:</title>
  <rect width="800" height="600" fill="#ffffff"/>
  <g stroke="#d0d0d0" stroke-width="1">
    <line x1="-75.12" y1="540.00" x2="-75.12" y2="60.00"/>
    <line x1="720.00" y1="540.00" x2="720.00" y2="60.00"/>
    <line x1="80.00" y1="606.45" x2="720.00" y2="606.45"/>
    <line x1="80.00" y1="333.22" x2="720.00" y2="333.22"/>
    <line x1="80.00" y1="60.00" x2="720.00" y2="60.00"/>
  </g>
  <g stroke="#e8e8e8" stroke-width="0.5">
    <line x1="83.90" y1="540.00" x2="83.90" y2="60.00"/>
    <line x1="242.93" y1="540.00" x2="242.93" y2="60.00"/>
    <line x1="401.95" y1="540.00" x2="401.95" y2="60.00"/>
    <line x1="560.98" y1="540.00" x2="560.98" y2="60.00"/>
    <line x1="80.00" y1="497.16" x2="720.00" y2="497.16"/>
    <line x1="80.00" y1="442.51" x2="720.00" y2="442.51"/>
    <line x1="80.00" y1="387.87" x2="720.00" y2="387.87"/>
    <line x1="80.00" y1="278.58" x2="720.00" y2="278.58"/>
    <line x1="80.00" y1="223.93" x2="720.00" y2="223.93"/>
    <line x1="80.00" y1="169.29" x2="720.00" y2="169.29"/>
    <line x1="80.00" y1="114.64" x2="720.00" y2="114.64"/>
  </g>
  <g stroke="#808080" stroke-width="2">
    <line x1="-75.12" y1="540.00" x2="-75.12" y2="60.00"/>
  </g>
  <polyline fill="none" stroke="#0066cc" stroke-width="2" points="80.00,333.22 83.12,331.03 86.25,328.84 89.37,326.65 92.48,324.46 95.60,322.28 98.71,320.09 101.82,317.90 104.92,315.71 108.02,313.53 111.12,311.35 114.22,309.16 117.31,306.98 120.40,304.80 123.49,302.63 126.58,300.45 129.66,298.28 132.73,296.11 135.81,293.94 138.88,291.77 141.95,289.61 145.01,287.45 148.07,285.29 151.13,283.13 154.18,280.98 157.23,278.84 160.28,276.69 163.32,274.55 166.36,272.41 169.39,270.28 172.42,268.15 175.45,266.02 178.47,263.90 181.49,261.79 184.50,259.68 187.51,257.57 190.52,255.47 193.52,253.37 196.52,251.28 199.51,249.19 202.50,247.11 205.48,245.03 208.46,242.96 211.44,240.90 214.41,238.84 217.38,236.79 220.34,234.74 223.29,232.70 226.24,230.67 229.19,228.64 232.13,226.62 235.07,224.61 238.00,222.60 240.93,220.61 243.85,218.61 246.77,216.63 249.68,214.65 252.58,212.68 255.49,210.72 258.38,208.77 261.27,206.82 264.16,204.88 267.04,202.95 269.91,201.03 272.78,199.12 275.64,197.22 278.50,195.32 281.35,193.44 284.19,191.56 287.03,189.69 289.87,187.83 292.70,185.98 295.52,184.14 298.34,182.31 301.15,180.49 303.95,178.68 306.75,176.88 309.54,175.09 312.33,173.31 315.11,171.54 317.88,169.77 320.65,168.03 323.41,166.29 326.16,164.56 328.91,162.84 331.65,161.13 334.39,159.44 337.12,157.75 339.84,156.08 342.55,154.42 345.26,152.77 347.96,151.13 350.66,149.50 353.35,147.89 356.03,146.28 358.70,144.69 361.37,143.11 364.03,141.55 366.68,139.99 369.33,138.45 371.97,136.92 374.60,135.40 377.22,133.90 379.84,132.41 382.45,130.93 385.05,129.46 387.65,128.01 390.24,126.57 392.82,125.14 395.39,123.73 397.95,122.33 400.51,120.95 403.06,119.58 405.60,118.22 408.14,116.87 410.67,115.54 413.18,114.23 415.70,112.92 418.20,111.63 420.69,110.36 423.18,109.10 425.66,107.85 428.13,106.62 430.60,105.41 433.05,104.21 435.50,103.02 437.94,101.85 440.37,100.69 442.79,99.55 445.20,98.42 447.61,97.31 450.01,96.21 452.39,95.13 454.78,94.06 457.15,93.01 459.51,91.97 461.86,90.95 464.21,89.95 466.55,88.96 468.88,87.99 471.20,87.03 473.51,86.09 475.81,85.16 478.10,84.25 480.39,83.36 482.66,82.48 484.93,81.62 487.19,80.77 489.44,79.94 491.68,79.13 493.91,78.33 496.13,77.55 498.34,76.79 500.54,76.04 502.74,75.31 504.92,74.59 507.10,73.90 509.26,73.21 511.42,72.55 513.56,71.90 515.70,71.27 517.83,70.66 519.95,70.06 522.06,69.48 524.16,68.92 526.25,68.37 528.33,67.84 530.40,67.33 532.46,66.83 534.51,66.35 536.55,65.89 538.58,65.45 540.60,65.02 542.61,64.61 544.61,64.22 546.61,63.85 548.59,63.49 550.56,63.15 552.52,62.83 554.47,62.52 556.41,62.23 558.34,61.96 560.27,61.71 562.18,61.47 564.08,61.25 565.97,61.05 567.85,60.87 569.72,60.70 571.58,60.56 573.43,60.42 575.26,60.31 577.09,60.22 578.91,60.14 580.72,60.08 582.51,60.03 584.30,60.01 586.07,60.00 587.84,60.01 589.59,60.04 591.34,60.08 593.07,60.14 594.79,60.22 596.50,60.32 598.20,60.44 599.89,60.57 601.57,60.72 603.24,60.88 604.90,61.07 606.54,61.27 608.18,61.49 609.80,61.73 611.41,61.98 613.02,62.26 614.61,62.55 616.19,62.85 617.76,63.18 619.31,63.52 620.86,63.88 622.40,64.25 623.92,64.65 625.43,65.06 626.94,65.49 628.43,65.93 629.91,66.39 631.37,66.87 632.83,67.37 634.27,67.88 635.71,68.42 637.13,68.96 638.54,69.53 639.94,70.11 641.33,70.71 642.71,71.32 644.07,71.96 645.42,72.61 646.76,73.27 648.10,73.96 649.41,74.65 650.72,75.37 652.02,76.10 653.30,76.85 654.57,77.62 655.83,78.40 657.08,79.20 658.32,80.01 659.54,80.84 660.75,81.69 661.96,82.55 663.14,83.43 664.32,84.33 665.49,85.24 666.64,86.17 667.78,87.11 668.91,88.07 670.03,89.04 671.14,90.03 672.23,91.04 673.31,92.06 674.38,93.10 675.44,94.15 676.49,95.22 677.52,96.30 678.54,97.40 679.55,98.52 680.55,99.64 681.53,100.79 682.51,101.95 683.47,103.12 684.42,104.31 685.35,105.51 686.28,106.73 687.19,107.96 688.09,109.21 688.98,110.47 689.85,111.74 690.72,113.03 691.57,114.34 692.41,115.66 693.23,116.99 694.05,118.33 694.85,119.69 695.64,121.07 696.41,122.45 697.18,123.85 697.93,125.27 698.67,126.69 699.39,128.14 700.11,129.59 700.81,131.06 701.50,132.54 702.18,134.03 702.84,135.53 703.50,137.05 704.14,138.58 704.76,140.13 705.38,141.68 705.98,143.25 706.57,144.83 707.15,146.42 707.71,148.03 708.26,149.64 708.80,151.27 709.33,152.91 709.84,154.56 710.34,156.22 710.83,157.90 711.31,159.58 711.77,161.28 712.22,162.99 712.66,164.71 713.09,166.44 713.50,168.18 713.90,169.93 714.29,171.69 714.66,173.46 715.03,175.24 715.37,177.03 715.71,178.83 716.04,180.65 716.35,182.47 716.65,184.30 716.93,186.14 717.21,187.99 717.47,189.85 717.71,191.72 717.95,193.60 718.17,195.49 718.38,197.38 718.58,199.29 718.76,201.20 718.93,203.12 719.09,205.05 719.24,206.99 719.37,208.94 719.49,210.89 719.60,212.85 719.69,214.82 719.78,216.80 719.85,218.79 719.90,220.78 719.95,222.78 719.98,224.78 719.99,226.80 720.00,228.82 719.99,230.85 719.97,232.88 719.94,234.92 719.89,236.97 719.84,239.02 719.76,241.08 719.68,243.14 719.58,245.21 719.47,247.29 719.35,249.37 719.22,251.46 719.07,253.55 718.91,255.65 718.74,257.75 718.55,259.86 718.35,261.97 718.14,264.09 717.91,266.21 717.68,268.33 717.43,270.46 717.16,272.60 716.89,274.73 716.60,276.88 716.30,279.02 715.99,281.17 715.66,283.32 715.32,285.48 714.97,287.63 714.61,289.79 714.23,291.96 713.84,294.12 713.44,296.29 713.02,298.46 712.60,300.64 712.16,302.81 711.70,304.99 711.24,307.17 710.76,309.35 710.27,311.53 709.77,313.72 709.25,315.90 708.72,318.09 708.18,320.28 707.63,322.46 707.06,324.65 706.48,326.84 705.89,329.03 705.28,331.22 704.67,333.41 704.04,335.60 703.40,337.79 702.74,339.98 702.08,342.17 701.40,344.36 700.71,346.55 700.00,348.74 699.29,350.92 698.56,353.11 697.82,355.29 697.06,357.47 696.30,359.65 695.52,361.83 694.73,364.01 693.92,366.18 693.11,368.36 692.28,370.53 691.44,372.70 690.59,374.86 689.72,377.03 688.84,379.19 687.95,381.34 687.05,383.50 686.14,385.65 685.21,387.80 684.27,389.94 683.32,392.08 682.36,394.22 681.39,396.35 680.40,398.48 679.40,400.61 678.39,402.73 677.36,404.84 676.33,406.95 675.28,409.06 674.22,411.16 673.15,413.26 672.07,415.35 670.97,417.44 669.86,419.52 668.74,421.59 667.61,423.66 666.47,425.73 665.31,427.78 664.14,429.83 662.97,431.88 661.77,433.92 660.57,435.95 659.36,437.98 658.13,440.00 656.89,442.01 655.64,444.02 654.38,446.01 653.11,448.01 651.82,449.99 650.52,451.97 649.22,453.93 647.89,455.90 646.56,457.85 645.22,459.79 643.86,461.73 642.50,463.66 641.12,465.58 639.73,467.49 638.33,469.39 636.92,471.29 635.49,473.17 634.06,475.05 632.61,476.92 631.15,478.78 629.68,480.62 628.20,482.46 626.71,484.29 625.21,486.11 623.69,487.92 622.17,489.72 620.63,491.51 619.08,493.29 617.52,495.06 615.95,496.82 614.37,498.57 612.78,500.31 611.17,502.04 609.56,503.76 607.93,505.46 606.29,507.16 604.65,508.84 602.99,510.51 601.32,512.17 599.64,513.82 597.95,515.46 596.24,517.08 594.53,518.70 592.81,520.30 591.07,521.89 589.33,523.47 587.57,525.04 585.81,526.59 584.03,528.13 582.24,529.66 580.44,531.17 578.64,532.68 576.82,534.17 574.99,535.65 573.15,537.11 571.30,538.56 569.44,540.00 "/>
</svg>
