<?xml version="1.0" encoding="UTF-8"?>
<svg xmlns="http://www.w3.org/2000/svg" width="800" height="600">
  <title>R=t:0,3:</title>
  <rect width="800" height="600" fill="#ffffff"/>
  <g stroke="#d0d0d0" stroke-width="1">
    <line x1="56.68" y1="540.00" x2="56.68" y2="60.00"/>
    <line x1="97.22" y1="540.00" x2="97.22" y2="60.00"/>
    <line x1="137.76" y1="540.00" x2="137.76" y2="60.00"/>
    <line x1="178.31" y1="540.00" x2="178.31" y2="60.00"/>
    <line x1="218.85" y1="540.00" x2="218.85" y2="60.00"/>
    <line x1="259.39" y1="540.00" x2="259.39" y2="60.00"/>
    <line x1="299.94" y1="540.00" x2="299.94" y2="60.00"/>
    <line x1="340.48" y1="540.00" x2="340.48" y2="60.00"/>
    <line x1="381.02" y1="540.00" x2="381.02" y2="60.00"/>
    <line x1="421.56" y1="540.00" x2="421.56" y2="60.00"/>
    <line x1="462.11" y1="540.00" x2="462.11" y2="60.00"/>
    <line x1="502.65" y1="540.00" x2="502.65" y2="60.00"/>
    <line x1="543.19" y1="540.00" x2="543.19" y2="60.00"/>
    <line x1="583.74" y1="540.00" x2="583.74" y2="60.00"/>
    <line x1="624.28" y1="540.00" x2="624.28" y2="60.00"/>
    <line x1="664.82" y1="540.00" x2="664.82" y2="60.00"/>
    <line x1="705.37" y1="540.00" x2="705.37" y2="60.00"/>
    <line x1="745.91" y1="540.00" x2="745.91" y2="60.00"/>
    <line x1="80.00" y1="547.00" x2="720.00" y2="547.00"/>
    <line x1="80.00" y1="509.29" x2="720.00" y2="509.29"/>
    <line x1="80.00" y1="471.59" x2="720.00" y2="471.59"/>
    <line x1="80.00" y1="433.89" x2="720.00" y2="433.89"/>
    <line x1="80.00" y1="396.18" x2="720.00" y2="396.18"/>
    <line x1="80.00" y1="358.48" x2="720.00" y2="358.48"/>
    <line x1="80.00" y1="320.77" x2="720.00" y2="320.77"/>
    <line x1="80.00" y1="283.07" x2="720.00" y2="283.07"/>
    <line x1="80.00" y1="245.37" x2="720.00" y2="245.37"/>
    <line x1="80.00" y1="207.66" x2="720.00" y2="207.66"/>
    <line x1="80.00" y1="169.96" x2="720.00" y2="169.96"/>
    <line x1="80.00" y1="132.26" x2="720.00" y2="132.26"/>
    <line x1="80.00" y1="94.55" x2="720.00" y2="94.55"/>
    <line x1="80.00" y1="56.85" x2="720.00" y2="56.85"/>
  </g>
  <g stroke="#e8e8e8" stroke-width="0.5">
    <line x1="81.00" y1="540.00" x2="81.00" y2="60.00"/>
    <line x1="89.11" y1="540.00" x2="89.11" y2="60.00"/>
    <line x1="105.33" y1="540.00" x2="105.33" y2="60.00"/>
    <line x1="113.44" y1="540.00" x2="113.44" y2="60.00"/>
    <line x1="121.55" y1="540.00" x2="121.55" y2="60.00"/>
    <line x1="129.66" y1="540.00" x2="129.66" y2="60.00"/>
    <line x1="145.87" y1="540.00" x2="145.87" y2="60.00"/>
    <line x1="153.98" y1="540.00" x2="153.98" y2="60.00"/>
    <line x1="162.09" y1="540.00" x2="162.09" y2="60.00"/>
    <line x1="170.20" y1="540.00" x2="170.20" y2="60.00"/>
    <line x1="186.42" y1="540.00" x2="186.42" y2="60.00"/>
    <line x1="194.52" y1="540.00" x2="194.52" y2="60.00"/>
    <line x1="202.63" y1="540.00" x2="202.63" y2="60.00"/>
    <line x1="210.74" y1="540.00" x2="210.74" y2="60.00"/>
    <line x1="226.96" y1="540.00" x2="226.96" y2="60.00"/>
    <line x1="235.07" y1="540.00" x2="235.07" y2="60.00"/>
    <line x1="243.18" y1="540.00" x2="243.18" y2="60.00"/>
    <line x1="251.28" y1="540.00" x2="251.28" y2="60.00"/>
    <line x1="267.50" y1="540.00" x2="267.50" y2="60.00"/>
    <line x1="275.61" y1="540.00" x2="275.61" y2="60.00"/>
    <line x1="283.72" y1="540.00" x2="283.72" y2="60.00"/>
    <line x1="291.83" y1="540.00" x2="291.83" y2="60.00"/>
    <line x1="308.04" y1="540.00" x2="308.04" y2="60.00"/>
    <line x1="316.15" y1="540.00" x2="316.15" y2="60.00"/>
    <line x1="324.26" y1="540.00" x2="324.26" y2="60.00"/>
    <line x1="332.37" y1="540.00" x2="332.37" y2="60.00"/>
    <line x1="348.59" y1="540.00" x2="348.59" y2="60.00"/>
    <line x1="356.70" y1="540.00" x2="356.70" y2="60.00"/>
    <line x1="364.80" y1="540.00" x2="364.80" y2="60.00"/>
    <line x1="372.91" y1="540.00" x2="372.91" y2="60.00"/>
    <line x1="389.13" y1="540.00" x2="389.13" y2="60.00"/>
    <line x1="397.24" y1="540.00" x2="397.24" y2="60.00"/>
    <line x1="405.35" y1="540.00" x2="405.35" y2="60.00"/>
    <line x1="413.46" y1="540.00" x2="413.46" y2="60.00"/>
    <line x1="429.67" y1="540.00" x2="429.67" y2="60.00"/>
    <line x1="437.78" y1="540.00" x2="437.78" y2="60.00"/>
    <line x1="445.89" y1="540.00" x2="445.89" y2="60.00"/>
    <line x1="454.00" y1="540.00" x2="454.00" y2="60.00"/>
    <line x1="470.22" y1="540.00" x2="470.22" y2="60.00"/>
    <line x1="478.33" y1="540.00" x2="478.33" y2="60.00"/>
    <line x1="486.43" y1="540.00" x2="486.43" y2="60.00"/>
    <line x1="494.54" y1="540.00" x2="494.54" y2="60.00"/>
    <line x1="510.76" y1="540.00" x2="510.76" y2="60.00"/>
    <line x1="518.87" y1="540.00" x2="518.87" y2="60.00"/>
    <line x1="526.98" y1="540.00" x2="526.98" y2="60.00"/>
    <line x1="535.09" y1="540.00" x2="535.09" y2="60.00"/>
    <line x1="551.30" y1="540.00" x2="551.30" y2="60.00"/>
    <line x1="559.41" y1="540.00" x2="559.41" y2="60.00"/>
    <line x1="567.52" y1="540.00" x2="567.52" y2="60.00"/>
    <line x1="575.63" y1="540.00" x2="575.63" y2="60.00"/>
    <line x1="591.85" y1="540.00" x2="591.85" y2="60.00"/>
    <line x1="599.95" y1="540.00" x2="599.95" y2="60.00"/>
    <line x1="608.06" y1="540.00" x2="608.06" y2="60.00"/>
    <line x1="616.17" y1="540.00" x2="616.17" y2="60.00"/>
    <line x1="632.39" y1="540.00" x2="632.39" y2="60.00"/>
    <line x1="640.50" y1="540.00" x2="640.50" y2="60.00"/>
    <line x1="648.61" y1="540.00" x2="648.61" y2="60.00"/>
    <line x1="656.71" y1="540.00" x2="656.71" y2="60.00"/>
    <line x1="672.93" y1="540.00" x2="672.93" y2="60.00"/>
    <line x1="681.04" y1="540.00" x2="681.04" y2="60.00"/>
    <line x1="689.15" y1="540.00" x2="689.15" y2="60.00"/>
    <line x1="697.26" y1="540.00" x2="697.26" y2="60.00"/>
    <line x1="713.47" y1="540.00" x2="713.47" y2="60.00"/>
    <line x1="80.00" y1="539.46" x2="720.00" y2="539.46"/>
    <line x1="80.00" y1="531.91" x2="720.00" y2="531.91"/>
    <line x1="80.00" y1="524.37" x2="720.00" y2="524.37"/>
    <line x1="80.00" y1="516.83" x2="720.00" y2="516.83"/>
    <line x1="80.00" y1="501.75" x2="720.00" y2="501.75"/>
    <line x1="80.00" y1="494.21" x2="720.00" y2="494.21"/>
    <line x1="80.00" y1="486.67" x2="720.00" y2="486.67"/>
    <line x1="80.00" y1="479.13" x2="720.00" y2="479.13"/>
    <line x1="80.00" y1="464.05" x2="720.00" y2="464.05"/>
    <line x1="80.00" y1="456.51" x2="720.00" y2="456.51"/>
    <line x1="80.00" y1="448.97" x2="720.00" y2="448.97"/>
    <line x1="80.00" y1="441.43" x2="720.00" y2="441.43"/>
    <line x1="80.00" y1="426.34" x2="720.00" y2="426.34"/>
    <line x1="80.00" y1="418.80" x2="720.00" y2="418.80"/>
    <line x1="80.00" y1="411.26" x2="720.00" y2="411.26"/>
    <line x1="80.00" y1="403.72" x2="720.00" y2="403.72"/>
    <line x1="80.00" y1="388.64" x2="720.00" y2="388.64"/>
    <line x1="80.00" y1="381.10" x2="720.00" y2="381.10"/>
    <line x1="80.00" y1="373.56" x2="720.00" y2="373.56"/>
    <line x1="80.00" y1="366.02" x2="720.00" y2="366.02"/>
    <line x1="80.00" y1="350.94" x2="720.00" y2="350.94"/>
    <line x1="80.00" y1="343.40" x2="720.00" y2="343.40"/>
    <line x1="80.00" y1="335.86" x2="720.00" y2="335.86"/>
    <line x1="80.00" y1="328.32" x2="720.00" y2="328.32"/>
    <line x1="80.00" y1="313.23" x2="720.00" y2="313.23"/>
    <line x1="80.00" y1="305.69" x2="720.00" y2="305.69"/>
    <line x1="80.00" y1="298.15" x2="720.00" y2="298.15"/>
    <line x1="80.00" y1="290.61" x2="720.00" y2="290.61"/>
    <line x1="80.00" y1="275.53" x2="720.00" y2="275.53"/>
    <line x1="80.00" y1="267.99" x2="720.00" y2="267.99"/>
    <line x1="80.00" y1="260.45" x2="720.00" y2="260.45"/>
    <line x1="80.00" y1="252.91" x2="720.00" y2="252.91"/>
    <line x1="80.00" y1="237.83" x2="720.00" y2="237.83"/>
    <line x1="80.00" y1="230.29" x2="720.00" y2="230.29"/>
    <line x1="80.00" y1="222.75" x2="720.00" y2="222.75"/>
    <line x1="80.00" y1="215.20" x2="720.00" y2="215.20"/>
    <line x1="80.00" y1="200.12" x2="720.00" y2="200.12"/>
    <line x1="80.00" y1="192.58" x2="720.00" y2="192.58"/>
    <line x1="80.00" y1="185.04" x2="720.00" y2="185.04"/>
    <line x1="80.00" y1="177.50" x2="720.00" y2="177.50"/>
    <line x1="80.00" y1="162.42" x2="720.00" y2="162.42"/>
    <line x1="80.00" y1="154.88" x2="720.00" y2="154.88"/>
    <line x1="80.00" y1="147.34" x2="720.00" y2="147.34"/>
    <line x1="80.00" y1="139.80" x2="720.00" y2="139.80"/>
    <line x1="80.00" y1="124.72" x2="720.00" y2="124.72"/>
    <line x1="80.00" y1="117.18" x2="720.00" y2="117.18"/>
    <line x1="80.00" y1="109.63" x2="720.00" y2="109.63"/>
    <line x1="80.00" y1="102.09" x2="720.00" y2="102.09"/>
    <line x1="80.00" y1="87.01" x2="720.00" y2="87.01"/>
    <line x1="80.00" y1="79.47" x2="720.00" y2="79.47"/>
    <line x1="80.00" y1="71.93" x2="720.00" y2="71.93"/>
    <line x1="80.00" y1="64.39" x2="720.00" y2="64.39"/>
  </g>
  <g stroke="#808080" stroke-width="2">
    <line x1="462.11" y1="540.00" x2="462.11" y2="60.00"/>
    <line x1="80.00" y1="358.48" x2="720.00" y2="358.48"/>
  </g>
  <polyline fill="none" stroke="#0066cc" stroke-width="2" points="462.11,358.48 462.87,358.46 463.64,358.42 464.40,358.36 465.16,358.26 465.92,358.14 466.67,357.99 467.42,357.82 468.16,357.62 468.90,357.39 469.63,357.14 470.35,356.86 471.06,356.56 471.76,356.23 472.46,355.87 473.14,355.49 473.80,355.09 474.46,354.66 475.10,354.20 475.73,353.73 476.34,353.23 476.94,352.70 477.52,352.15 478.08,351.58 478.63,350.99 479.16,350.38 479.66,349.75 480.15,349.09 480.62,348.42 481.07,347.72 481.49,347.01 481.89,346.28 482.27,345.53 482.63,344.76 482.96,343.98 483.26,343.18 483.54,342.36 483.80,341.53 484.03,340.68 484.23,339.82 484.40,338.95 484.55,338.06 484.67,337.16 484.76,336.25 484.82,335.33 484.85,334.40 484.85,333.47 484.82,332.52 484.77,331.56 484.68,330.60 484.55,329.63 484.40,328.66 484.22,327.68 484.00,326.70 483.75,325.71 483.47,324.72 483.16,323.73 482.81,322.74 482.43,321.75 482.02,320.76 481.58,319.78 481.10,318.79 480.59,317.81 480.04,316.83 479.46,315.86 478.85,314.89 478.21,313.93 477.53,312.97 476.82,312.03 476.08,311.09 475.30,310.16 474.49,309.25 473.65,308.34 472.78,307.45 471.87,306.57 470.93,305.70 469.96,304.85 468.96,304.02 467.93,303.20 466.86,302.39 465.77,301.61 464.65,300.84 463.49,300.10 462.31,299.37 461.10,298.67 459.85,297.98 458.59,297.32 457.29,296.69 455.96,296.07 454.61,295.48 453.24,294.92 451.84,294.38 450.41,293.87 448.96,293.39 447.48,292.94 445.98,292.51 444.46,292.11 442.92,291.75 441.36,291.41 439.77,291.11 438.17,290.84 436.55,290.60 434.91,290.39 433.25,290.22 431.57,290.08 429.88,289.97 428.18,289.90 426.46,289.87 424.73,289.88 422.98,289.91 421.22,289.99 419.45,290.11 417.68,290.26 415.89,290.45 414.10,290.68 412.29,290.95 410.49,291.25 408.67,291.60 406.86,291.99 405.04,292.41 403.21,292.88 401.39,293.39 399.57,293.94 397.74,294.53 395.92,295.16 394.11,295.83 392.29,296.55 390.48,297.30 388.68,298.10 386.88,298.94 385.09,299.82 383.32,300.74 381.55,301.71 379.79,302.71 378.04,303.76 376.31,304.85 374.60,305.98 372.89,307.15 371.21,308.36 369.54,309.62 367.89,310.91 366.26,312.25 364.65,313.62 363.07,315.04 361.51,316.49 359.97,317.99 358.45,319.52 356.96,321.10 355.50,322.71 354.07,324.36 352.67,326.05 351.30,327.77 349.95,329.53 348.64,331.33 347.37,333.16 346.13,335.03 344.92,336.93 343.75,338.87 342.62,340.84 341.52,342.85 340.46,344.88 339.45,346.95 338.47,349.05 337.54,351.18 336.65,353.33 335.80,355.52 335.00,357.73 334.24,359.98 333.53,362.24 332.86,364.54 332.24,366.86 331.67,369.20 331.15,371.56 330.68,373.95 330.26,376.36 329.89,378.79 329.58,381.23 329.31,383.70 329.10,386.18 328.94,388.68 328.84,391.20 328.79,393.73 328.80,396.27 328.86,398.83 328.98,401.39 329.16,403.97 329.39,406.55 329.68,409.15 330.03,411.75 330.44,414.35 330.91,416.96 331.44,419.58 332.02,422.19 332.67,424.81 333.38,427.43 334.14,430.04 334.97,432.66 335.86,435.27 336.81,437.87 337.82,440.47 338.89,443.06 340.02,445.64 341.22,448.22 342.47,450.78 343.79,453.33 345.16,455.86 346.60,458.39 348.10,460.89 349.66,463.38 351.28,465.85 352.96,468.30 354.70,470.73 356.50,473.14 358.36,475.52 360.28,477.88 362.26,480.21 364.30,482.52 366.39,484.80 368.55,487.05 370.76,489.26 373.03,491.45 375.35,493.60 377.73,495.72 380.16,497.80 382.65,499.85 385.20,501.85 387.79,503.82 390.44,505.75 393.14,507.64 395.90,509.48 398.70,511.28 401.55,513.04 404.45,514.75 407.40,516.41 410.40,518.02 413.44,519.59 416.53,521.10 419.66,522.57 422.83,523.98 426.05,525.34 429.31,526.64 432.61,527.89 435.95,529.08 439.32,530.22 442.73,531.30 446.18,532.32 449.66,533.28 453.18,534.18 456.73,535.01 460.31,535.79 463.92,536.50 467.55,537.15 471.22,537.73 474.91,538.25 478.62,538.70 482.36,539.09 486.11,539.41 489.89,539.66 493.69,539.84 497.50,539.96 501.33,540.00 505.18,539.97 509.04,539.88 512.90,539.71 516.78,539.47 520.67,539.16 524.56,538.78 528.46,538.32 532.36,537.79 536.27,537.19 540.17,536.52 544.08,535.77 547.98,534.95 551.88,534.05 555.77,533.08 559.65,532.03 563.53,530.91 567.39,529.72 571.24,528.45 575.08,527.11 578.90,525.69 582.71,524.20 586.49,522.64 590.26,521.00 594.00,519.28 597.72,517.49 601.41,515.63 605.07,513.70 608.71,511.69 612.31,509.61 615.89,507.46 619.43,505.24 622.93,502.95 626.40,500.58 629.82,498.14 633.21,495.64 636.55,493.06 639.85,490.42 643.11,487.71 646.32,484.93 649.48,482.08 652.59,479.17 655.64,476.19 658.65,473.15 661.60,470.05 664.49,466.88 667.33,463.65 670.11,460.36 672.82,457.01 675.48,453.60 678.07,450.13 680.59,446.60 683.05,443.02 685.44,439.38 687.76,435.69 690.01,431.95 692.19,428.15 694.30,424.30 696.33,420.41 698.29,416.47 700.17,412.48 701.97,408.44 703.69,404.36 705.33,400.24 706.89,396.08 708.37,391.87 709.77,387.63 711.07,383.35 712.30,379.04 713.43,374.69 714.48,370.31 715.44,365.90 716.32,361.45 717.10,356.99 717.79,352.49 718.38,347.97 718.89,343.42 719.30,338.86 719.62,334.27 719.84,329.67 719.97,325.05 720.00,320.42 719.93,315.77 719.77,311.11 719.51,306.44 719.16,301.76 718.70,297.08 718.14,292.40 717.49,287.71 716.74,283.02 715.88,278.33 714.93,273.65 713.88,268.97 712.73,264.29 711.47,259.63 710.12,254.98 708.67,250.33 707.11,245.71 705.46,241.10 703.70,236.50 701.85,231.93 699.90,227.38 697.84,222.85 695.69,218.35 693.44,213.87 691.09,209.43 688.64,205.02 686.09,200.63 683.45,196.29 680.71,191.98 677.87,187.71 674.94,183.48 671.91,179.29 668.79,175.14 665.57,171.04 662.26,166.99 658.86,162.99 655.37,159.04 651.78,155.15 648.11,151.30 644.35,147.52 640.50,143.79 636.57,140.13 632.55,136.52 628.44,132.98 624.25,129.50 619.98,126.09 615.63,122.75 611.20,119.48 606.69,116.29 602.11,113.16 597.45,110.11 592.71,107.14 587.91,104.24 583.03,101.42 578.08,98.69 573.06,96.03 567.98,93.46 562.83,90.98 557.62,88.58 552.35,86.27 547.01,84.05 541.62,81.92 536.18,79.88 530.68,77.94 525.12,76.09 519.52,74.33 513.86,72.67 508.16,71.11 502.42,69.64 496.63,68.28 490.80,67.02 484.93,65.85 479.02,64.79 473.08,63.84 467.11,62.99 461.11,62.24 455.07,61.60 449.01,61.06 442.93,60.63 436.82,60.31 430.70,60.10 424.56,60.00 418.40,60.01 412.23,60.12 406.04,60.35 399.85,60.69 393.66,61.14 387.46,61.70 381.25,62.38 375.05,63.16 368.85,64.06 362.66,65.07 356.48,66.20 350.30,67.43 344.14,68.78 337.99,70.25 331.86,71.82 325.75,73.51 319.67,75.31 313.60,77.22 307.57,79.25 301.56,81.39 295.59,83.63 289.65,85.99 283.74,88.47 277.88,91.05 272.05,93.74 266.27,96.54 260.54,99.45 254.86,102.46 249.22,105.59 243.64,108.82 238.11,112.16 232.65,115.60 227.24,119.15 221.89,122.80 216.61,126.55 211.40,130.41 206.26,134.37 201.18,138.42 196.18,142.57 191.26,146.83 186.41,151.17 181.65,155.61 176.97,160.15 172.37,164.78 167.85,169.50 163.43,174.30 159.10,179.20 154.86,184.18 150.71,189.25 146.66,194.40 142.71,199.64 138.86,204.95 135.11,210.35 131.47,215.82 127.93,221.36 124.50,226.98 121.17,232.67 117.96,238.43 114.86,244.26 111.88,250.15 109.01,256.11 106.26,262.13 103.63,268.21 101.12,274.35 98.73,280.55 96.46,286.80 94.32,293.10 92.30,299.45 90.41,305.85 88.65,312.29 87.02,318.78 85.51,325.31 84.14,331.87 82.91,338.48 81.80,345.11 80.83,351.78 80.00,358.48 "/>
</svg>
