<?xml version="1.0" encoding="UTF-8"?>
<svg xmlns="http://www.w3.org/2000/svg" width="800" height="600">
  <title>R**2=4*t:0,3:</title>
  <rect width="800" height="600" fill="#ffffff"/>
  <g stroke="#d0d0d0" stroke-width="1">
    <line x1="30.72" y1="540.00" x2="30.72" y2="60.00"/>
    <line x1="88.02" y1="540.00" x2="88.02" y2="60.00"/>
    <line x1="145.32" y1="540.00" x2="145.32" y2="60.00"/>
    <line x1="202.62" y1="540.00" x2="202.62" y2="60.00"/>
    <line x1="259.93" y1="540.00" x2="259.93" y2="60.00"/>
    <line x1="317.23" y1="540.00" x2="317.23" y2="60.00"/>
    <line x1="374.53" y1="540.00" x2="374.53" y2="60.00"/>
    <line x1="431.83" y1="540.00" x2="431.83" y2="60.00"/>
    <line x1="489.13" y1="540.00" x2="489.13" y2="60.00"/>
    <line x1="546.44" y1="540.00" x2="546.44" y2="60.00"/>
    <line x1="603.74" y1="540.00" x2="603.74" y2="60.00"/>
    <line x1="661.04" y1="540.00" x2="661.04" y2="60.00"/>
    <line x1="718.34" y1="540.00" x2="718.34" y2="60.00"/>
    <line x1="775.65" y1="540.00" x2="775.65" y2="60.00"/>
    <line x1="80.00" y1="570.51" x2="720.00" y2="570.51"/>
    <line x1="80.00" y1="522.42" x2="720.00" y2="522.42"/>
    <line x1="80.00" y1="474.33" x2="720.00" y2="474.33"/>
    <line x1="80.00" y1="426.25" x2="720.00" y2="426.25"/>
    <line x1="80.00" y1="378.16" x2="720.00" y2="378.16"/>
    <line x1="80.00" y1="330.07" x2="720.00" y2="330.07"/>
    <line x1="80.00" y1="281.98" x2="720.00" y2="281.98"/>
    <line x1="80.00" y1="233.90" x2="720.00" y2="233.90"/>
    <line x1="80.00" y1="185.81" x2="720.00" y2="185.81"/>
    <line x1="80.00" y1="137.72" x2="720.00" y2="137.72"/>
    <line x1="80.00" y1="89.63" x2="720.00" y2="89.63"/>
    <line x1="80.00" y1="41.55" x2="720.00" y2="41.55"/>
  </g>
  <g stroke="#e8e8e8" stroke-width="0.5">
    <line x1="99.48" y1="540.00" x2="99.48" y2="60.00"/>
    <line x1="110.94" y1="540.00" x2="110.94" y2="60.00"/>
    <line x1="122.40" y1="540.00" x2="122.40" y2="60.00"/>
    <line x1="133.86" y1="540.00" x2="133.86" y2="60.00"/>
    <line x1="156.78" y1="540.00" x2="156.78" y2="60.00"/>
    <line x1="168.24" y1="540.00" x2="168.24" y2="60.00"/>
    <line x1="179.70" y1="540.00" x2="179.70" y2="60.00"/>
    <line x1="191.16" y1="540.00" x2="191.16" y2="60.00"/>
    <line x1="214.08" y1="540.00" x2="214.08" y2="60.00"/>
    <line x1="225.55" y1="540.00" x2="225.55" y2="60.00"/>
    <line x1="237.01" y1="540.00" x2="237.01" y2="60.00"/>
    <line x1="248.47" y1="540.00" x2="248.47" y2="60.00"/>
    <line x1="271.39" y1="540.00" x2="271.39" y2="60.00"/>
    <line x1="282.85" y1="540.00" x2="282.85" y2="60.00"/>
    <line x1="294.31" y1="540.00" x2="294.31" y2="60.00"/>
    <line x1="305.77" y1="540.00" x2="305.77" y2="60.00"/>
    <line x1="328.69" y1="540.00" x2="328.69" y2="60.00"/>
    <line x1="340.15" y1="540.00" x2="340.15" y2="60.00"/>
    <line x1="351.61" y1="540.00" x2="351.61" y2="60.00"/>
    <line x1="363.07" y1="540.00" x2="363.07" y2="60.00"/>
    <line x1="385.99" y1="540.00" x2="385.99" y2="60.00"/>
    <line x1="397.45" y1="540.00" x2="397.45" y2="60.00"/>
    <line x1="408.91" y1="540.00" x2="408.91" y2="60.00"/>
    <line x1="420.37" y1="540.00" x2="420.37" y2="60.00"/>
    <line x1="443.29" y1="540.00" x2="443.29" y2="60.00"/>
    <line x1="454.75" y1="540.00" x2="454.75" y2="60.00"/>
    <line x1="466.21" y1="540.00" x2="466.21" y2="60.00"/>
    <line x1="477.67" y1="540.00" x2="477.67" y2="60.00"/>
    <line x1="500.60" y1="540.00" x2="500.60" y2="60.00"/>
    <line x1="512.06" y1="540.00" x2="512.06" y2="60.00"/>
    <line x1="523.52" y1="540.00" x2="523.52" y2="60.00"/>
    <line x1="534.98" y1="540.00" x2="534.98" y2="60.00"/>
    <line x1="557.90" y1="540.00" x2="557.90" y2="60.00"/>
    <line x1="569.36" y1="540.00" x2="569.36" y2="60.00"/>
    <line x1="580.82" y1="540.00" x2="580.82" y2="60.00"/>
    <line x1="592.28" y1="540.00" x2="592.28" y2="60.00"/>
    <line x1="615.20" y1="540.00" x2="615.20" y2="60.00"/>
    <line x1="626.66" y1="540.00" x2="626.66" y2="60.00"/>
    <line x1="638.12" y1="540.00" x2="638.12" y2="60.00"/>
    <line x1="649.58" y1="540.00" x2="649.58" y2="60.00"/>
    <line x1="672.50" y1="540.00" x2="672.50" y2="60.00"/>
    <line x1="683.96" y1="540.00" x2="683.96" y2="60.00"/>
    <line x1="695.42" y1="540.00" x2="695.42" y2="60.00"/>
    <line x1="706.88" y1="540.00" x2="706.88" y2="60.00"/>
    <line x1="80.00" y1="532.04" x2="720.00" y2="532.04"/>
    <line x1="80.00" y1="512.80" x2="720.00" y2="512.80"/>
    <line x1="80.00" y1="503.19" x2="720.00" y2="503.19"/>
    <line x1="80.00" y1="493.57" x2="720.00" y2="493.57"/>
    <line x1="80.00" y1="483.95" x2="720.00" y2="483.95"/>
    <line x1="80.00" y1="464.72" x2="720.00" y2="464.72"/>
    <line x1="80.00" y1="455.10" x2="720.00" y2="455.10"/>
    <line x1="80.00" y1="445.48" x2="720.00" y2="445.48"/>
    <line x1="80.00" y1="435.86" x2="720.00" y2="435.86"/>
    <line x1="80.00" y1="416.63" x2="720.00" y2="416.63"/>
    <line x1="80.00" y1="407.01" x2="720.00" y2="407.01"/>
    <line x1="80.00" y1="397.39" x2="720.00" y2="397.39"/>
    <line x1="80.00" y1="387.78" x2="720.00" y2="387.78"/>
    <line x1="80.00" y1="368.54" x2="720.00" y2="368.54"/>
    <line x1="80.00" y1="358.92" x2="720.00" y2="358.92"/>
    <line x1="80.00" y1="349.31" x2="720.00" y2="349.31"/>
    <line x1="80.00" y1="339.69" x2="720.00" y2="339.69"/>
    <line x1="80.00" y1="320.45" x2="720.00" y2="320.45"/>
    <line x1="80.00" y1="310.84" x2="720.00" y2="310.84"/>
    <line x1="80.00" y1="301.22" x2="720.00" y2="301.22"/>
    <line x1="80.00" y1="291.60" x2="720.00" y2="291.60"/>
    <line x1="80.00" y1="272.37" x2="720.00" y2="272.37"/>
    <line x1="80.00" y1="262.75" x2="720.00" y2="262.75"/>
    <line x1="80.00" y1="253.13" x2="720.00" y2="253.13"/>
    <line x1="80.00" y1="243.51" x2="720.00" y2="243.51"/>
    <line x1="80.00" y1="224.28" x2="720.00" y2="224.28"/>
    <line x1="80.00" y1="214.66" x2="720.00" y2="214.66"/>
    <line x1="80.00" y1="205.04" x2="720.00" y2="205.04"/>
    <line x1="80.00" y1="195.43" x2="720.00" y2="195.43"/>
    <line x1="80.00" y1="176.19" x2="720.00" y2="176.19"/>
    <line x1="80.00" y1="166.57" x2="720.00" y2="166.57"/>
    <line x1="80.00" y1="156.96" x2="720.00" y2="156.96"/>
    <line x1="80.00" y1="147.34" x2="720.00" y2="147.34"/>
    <line x1="80.00" y1="128.10" x2="720.00" y2="128.10"/>
    <line x1="80.00" y1="118.49" x2="720.00" y2="118.49"/>
    <line x1="80.00" y1="108.87" x2="720.00" y2="108.87"/>
    <line x1="80.00" y1="99.25" x2="720.00" y2="99.25"/>
    <line x1="80.00" y1="80.02" x2="720.00" y2="80.02"/>
    <line x1="80.00" y1="70.40" x2="720.00" y2="70.40"/>
    <line x1="80.00" y1="60.78" x2="720.00" y2="60.78"/>
  </g>
  <g stroke="#808080" stroke-width="2">
    <line x1="431.83" y1="540.00" x2="431.83" y2="60.00"/>
    <line x1="80.00" y1="330.07" x2="720.00" y2="330.07"/>
  </g>
  <polyline fill="none" stroke="#0066cc" stroke-width="2" points="431.83,330.07 447.58,329.82 454.09,329.37 459.07,328.77 463.24,328.08 466.89,327.28 470.17,326.41 473.14,325.46 475.87,324.44 478.40,323.36 480.75,322.22 482.95,321.03 485.00,319.78 486.92,318.49 488.72,317.15 490.40,315.76 491.98,314.34 493.45,312.87 494.83,311.37 496.11,309.84 497.30,308.27 498.41,306.67 499.42,305.05 500.35,303.39 501.20,301.71 501.97,300.01 502.65,298.29 503.26,296.55 503.79,294.78 504.24,293.01 504.62,291.21 504.92,289.40 505.15,287.58 505.30,285.75 505.38,283.91 505.38,282.06 505.32,280.21 505.18,278.35 504.97,276.49 504.69,274.62 504.34,272.75 503.93,270.89 503.44,269.03 502.88,267.17 502.26,265.31 501.57,263.46 500.81,261.62 499.99,259.79 499.10,257.97 498.14,256.15 497.12,254.36 496.04,252.57 494.90,250.80 493.69,249.05 492.42,247.31 491.08,245.60 489.69,243.90 488.24,242.22 486.73,240.57 485.16,238.94 483.53,237.33 481.84,235.76 480.10,234.20 478.31,232.68 476.46,231.18 474.55,229.72 472.60,228.29 470.59,226.89 468.53,225.52 466.42,224.19 464.27,222.89 462.06,221.63 459.81,220.40 457.51,219.22 455.17,218.07 452.79,216.96 450.36,215.90 447.89,214.87 445.39,213.89 442.84,212.96 440.25,212.06 437.63,211.21 434.98,210.41 432.28,209.66 429.56,208.95 426.81,208.29 424.02,207.67 421.21,207.11 418.36,206.60 415.50,206.13 412.60,205.72 409.68,205.36 406.75,205.05 403.78,204.80 400.81,204.60 397.81,204.45 394.79,204.35 391.76,204.31 388.72,204.33 385.66,204.40 382.60,204.52 379.52,204.70 376.44,204.94 373.34,205.23 370.25,205.58 367.15,205.99 364.05,206.45 360.95,206.97 357.84,207.55 354.75,208.18 351.65,208.87 348.56,209.62 345.48,210.43 342.41,211.29 339.34,212.21 336.29,213.19 333.25,214.22 330.23,215.31 327.22,216.46 324.23,217.67 321.25,218.93 318.30,220.25 315.37,221.62 312.47,223.05 309.58,224.53 306.73,226.07 303.90,227.67 301.11,229.32 298.34,231.02 295.60,232.77 292.90,234.58 290.24,236.44 287.61,238.36 285.02,240.32 282.47,242.33 279.95,244.40 277.48,246.51 275.06,248.68 272.68,250.89 270.34,253.15 268.05,255.46 265.81,257.81 263.62,260.21 261.48,262.65 259.40,265.13 257.36,267.66 255.39,270.23 253.46,272.85 251.60,275.50 249.79,278.19 248.04,280.92 246.35,283.69 244.72,286.49 243.16,289.33 241.66,292.21 240.22,295.12 238.85,298.06 237.54,301.03 236.30,304.03 235.13,307.06 234.03,310.12 233.00,313.21 232.04,316.32 231.15,319.45 230.33,322.61 229.58,325.80 228.91,329.00 228.31,332.22 227.79,335.46 227.34,338.72 226.97,342.00 226.67,345.29 226.45,348.59 226.31,351.90 226.25,355.23 226.26,358.57 226.36,361.91 226.53,365.26 226.78,368.62 227.11,371.98 227.52,375.34 228.01,378.70 228.59,382.07 229.24,385.43 229.97,388.79 230.78,392.15 231.68,395.50 232.65,398.85 233.71,402.18 234.84,405.51 236.06,408.83 237.36,412.13 238.74,415.42 240.20,418.69 241.73,421.95 243.35,425.19 245.05,428.42 246.83,431.62 248.68,434.80 250.61,437.95 252.63,441.08 254.71,444.19 256.88,447.26 259.12,450.31 261.44,453.33 263.84,456.32 266.31,459.27 268.85,462.19 271.46,465.08 274.15,467.92 276.92,470.73 279.75,473.50 282.65,476.23 285.62,478.92 288.66,481.57 291.77,484.17 294.95,486.72 298.19,489.23 301.50,491.69 304.87,494.11 308.30,496.47 311.79,498.78 315.35,501.03 318.97,503.24 322.64,505.39 326.37,507.48 330.16,509.52 334.00,511.50 337.89,513.42 341.84,515.28 345.83,517.08 349.88,518.82 353.97,520.50 358.12,522.11 362.30,523.66 366.53,525.14 370.80,526.56 375.12,527.91 379.47,529.19 383.86,530.40 388.29,531.55 392.75,532.62 397.24,533.63 401.77,534.56 406.32,535.42 410.90,536.21 415.51,536.93 420.15,537.57 424.81,538.14 429.49,538.63 434.18,539.05 438.90,539.39 443.63,539.66 448.38,539.85 453.14,539.96 457.91,540.00 462.69,539.96 467.48,539.84 472.27,539.65 477.07,539.37 481.87,539.02 486.67,538.59 491.46,538.08 496.26,537.49 501.05,536.83 505.83,536.08 510.60,535.26 515.36,534.36 520.10,533.38 524.84,532.32 529.55,531.18 534.25,529.96 538.93,528.67 543.58,527.30 548.21,525.85 552.82,524.32 557.40,522.72 561.95,521.04 566.46,519.29 570.95,517.46 575.40,515.55 579.81,513.57 584.18,511.51 588.52,509.38 592.81,507.18 597.05,504.90 601.25,502.55 605.41,500.13 609.51,497.64 613.57,495.08 617.57,492.45 621.52,489.76 625.41,486.99 629.24,484.16 633.02,481.26 636.73,478.29 640.38,475.27 643.97,472.17 647.49,469.02 650.95,465.80 654.34,462.53 657.65,459.19 660.90,455.80 664.07,452.35 667.17,448.84 670.19,445.28 673.14,441.66 676.00,437.99 678.79,434.27 681.49,430.50 684.12,426.69 686.66,422.82 689.11,418.91 691.48,414.95 693.76,410.95 695.95,406.90 698.06,402.82 700.07,398.69 701.99,394.53 703.82,390.33 705.56,386.10 707.20,381.83 708.74,377.53 710.19,373.20 711.55,368.84 712.80,364.45 713.96,360.04 715.02,355.60 715.97,351.14 716.83,346.66 717.59,342.16 718.24,337.64 718.79,333.10 719.24,328.55 719.59,323.99 719.83,319.41 719.97,314.83 720.00,310.23 719.93,305.63 719.75,301.03 719.47,296.42 719.08,291.81 718.59,287.20 717.99,282.60 717.29,278.00 716.48,273.40 715.56,268.81 714.54,264.23 713.41,259.66 712.18,255.10 710.84,250.56 709.40,246.03 707.85,241.52 706.20,237.03 704.44,232.56 702.58,228.11 700.61,223.69 698.54,219.29 696.37,214.92 694.10,210.59 691.73,206.28 689.25,202.00 686.67,197.76 684.00,193.56 681.22,189.39 678.35,185.27 675.38,181.18 672.32,177.14 669.15,173.14 665.90,169.19 662.55,165.29 659.10,161.43 655.57,157.63 651.94,153.88 648.23,150.18 644.42,146.54 640.53,142.95 636.56,139.42 632.50,135.96 628.35,132.55 624.12,129.21 619.82,125.93 615.43,122.71 610.96,119.56 606.42,116.48 601.80,113.47 597.11,110.53 592.35,107.67 587.52,104.87 582.62,102.15 577.65,99.51 572.61,96.94 567.51,94.45 562.35,92.04 557.13,89.70 551.85,87.45 546.51,85.29 541.12,83.20 535.68,81.20 530.18,79.28 524.64,77.45 519.04,75.71 513.41,74.06 507.72,72.49 502.00,71.01 496.24,69.62 490.44,68.33 484.60,67.12 478.73,66.01 472.83,64.99 466.90,64.06 460.94,63.23 454.96,62.49 448.95,61.84 442.93,61.30 436.88,60.84 430.82,60.49 424.75,60.23 418.66,60.07 412.56,60.00 406.46,60.03 400.35,60.16 394.23,60.39 388.12,60.71 382.01,61.14 375.90,61.66 369.79,62.28 363.70,63.00 357.61,63.81 351.54,64.73 345.48,65.74 339.44,66.85 333.42,68.06 327.42,69.36 321.44,70.77 315.50,72.27 309.57,73.86 303.68,75.55 297.82,77.34 292.00,79.22 286.22,81.20 280.47,83.27 274.76,85.44 269.10,87.70 263.49,90.05 257.92,92.50 252.40,95.03 246.94,97.66 241.53,100.37 236.18,103.18 230.88,106.07 225.65,109.05 220.48,112.11 215.37,115.27 210.33,118.50 205.36,121.82 200.46,125.22 195.63,128.71 190.88,132.27 186.20,135.91 181.60,139.63 177.09,143.43 172.65,147.30 168.30,151.25 164.03,155.27 159.85,159.36 155.76,163.53 151.76,167.76 147.86,172.06 144.05,176.42 140.33,180.85 136.71,185.34 133.19,189.90 129.77,194.51 126.45,199.19 123.23,203.92 120.12,208.70 117.11,213.54 114.22,218.44 111.43,223.38 108.74,228.37 106.17,233.41 103.72,238.49 101.37,243.62 99.14,248.79 97.03,254.00 95.03,259.24 93.15,264.53 91.38,269.84 89.74,275.19 88.21,280.58 86.81,285.99 85.53,291.42 84.36,296.88 83.33,302.37 82.41,307.88 81.62,313.40 80.96,318.94 80.42,324.50 80.00,330.07 "/>
</svg>
