<?xml version="1.0" encoding="UTF-8"?>
<svg xmlns="http://www.w3.org/2000/svg" width="800" height="600">
  <title>R=2*pi/t:1/10,3:</title>
  <rect width="800" height="600" fill="#ffffff"/>
  <g stroke="#d0d0d0" stroke-width="1">
    <line x1="53.18" y1="540.00" x2="53.18" y2="60.00"/>
    <line x1="83.46" y1="540.00" x2="83.46" y2="60.00"/>
    <line x1="113.74" y1="540.00" x2="113.74" y2="60.00"/>
    <line x1="144.02" y1="540.00" x2="144.02" y2="60.00"/>
    <line x1="174.30" y1="540.00" x2="174.30" y2="60.00"/>
    <line x1="204.59" y1="540.00" x2="204.59" y2="60.00"/>
    <line x1="234.87" y1="540.00" x2="234.87" y2="60.00"/>
    <line x1="265.15" y1="540.00" x2="265.15" y2="60.00"/>
    <line x1="295.43" y1="540.00" x2="295.43" y2="60.00"/>
    <line x1="325.71" y1="540.00" x2="325.71" y2="60.00"/>
    <line x1="355.99" y1="540.00" x2="355.99" y2="60.00"/>
    <line x1="386.27" y1="540.00" x2="386.27" y2="60.00"/>
    <line x1="416.55" y1="540.00" x2="416.55" y2="60.00"/>
    <line x1="446.83" y1="540.00" x2="446.83" y2="60.00"/>
    <line x1="477.11" y1="540.00" x2="477.11" y2="60.00"/>
    <line x1="507.39" y1="540.00" x2="507.39" y2="60.00"/>
    <line x1="537.68" y1="540.00" x2="537.68" y2="60.00"/>
    <line x1="567.96" y1="540.00" x2="567.96" y2="60.00"/>
    <line x1="598.24" y1="540.00" x2="598.24" y2="60.00"/>
    <line x1="628.52" y1="540.00" x2="628.52" y2="60.00"/>
    <line x1="658.80" y1="540.00" x2="658.80" y2="60.00"/>
    <line x1="689.08" y1="540.00" x2="689.08" y2="60.00"/>
    <line x1="719.36" y1="540.00" x2="719.36" y2="60.00"/>
    <line x1="749.64" y1="540.00" x2="749.64" y2="60.00"/>
    <line x1="80.00" y1="580.40" x2="720.00" y2="580.40"/>
    <line x1="80.00" y1="516.79" x2="720.00" y2="516.79"/>
    <line x1="80.00" y1="453.17" x2="720.00" y2="453.17"/>
    <line x1="80.00" y1="389.55" x2="720.00" y2="389.55"/>
    <line x1="80.00" y1="325.94" x2="720.00" y2="325.94"/>
    <line x1="80.00" y1="262.32" x2="720.00" y2="262.32"/>
    <line x1="80.00" y1="198.70" x2="720.00" y2="198.70"/>
    <line x1="80.00" y1="135.09" x2="720.00" y2="135.09"/>
    <line x1="80.00" y1="71.47" x2="720.00" y2="71.47"/>
    <line x1="80.00" y1="7.86" x2="720.00" y2="7.86"/>
  </g>
  <g stroke="#e8e8e8" stroke-width="0.5">
    <line x1="89.52" y1="540.00" x2="89.52" y2="60.00"/>
    <line x1="95.57" y1="540.00" x2="95.57" y2="60.00"/>
    <line x1="101.63" y1="540.00" x2="101.63" y2="60.00"/>
    <line x1="107.69" y1="540.00" x2="107.69" y2="60.00"/>
    <line x1="119.80" y1="540.00" x2="119.80" y2="60.00"/>
    <line x1="125.86" y1="540.00" x2="125.86" y2="60.00"/>
    <line x1="131.91" y1="540.00" x2="131.91" y2="60.00"/>
    <line x1="137.97" y1="540.00" x2="137.97" y2="60.00"/>
    <line x1="150.08" y1="540.00" x2="150.08" y2="60.00"/>
    <line x1="156.14" y1="540.00" x2="156.14" y2="60.00"/>
    <line x1="162.19" y1="540.00" x2="162.19" y2="60.00"/>
    <line x1="168.25" y1="540.00" x2="168.25" y2="60.00"/>
    <line x1="180.36" y1="540.00" x2="180.36" y2="60.00"/>
    <line x1="186.42" y1="540.00" x2="186.42" y2="60.00"/>
    <line x1="192.47" y1="540.00" x2="192.47" y2="60.00"/>
    <line x1="198.53" y1="540.00" x2="198.53" y2="60.00"/>
    <line x1="210.64" y1="540.00" x2="210.64" y2="60.00"/>
    <line x1="216.70" y1="540.00" x2="216.70" y2="60.00"/>
    <line x1="222.75" y1="540.00" x2="222.75" y2="60.00"/>
    <line x1="228.81" y1="540.00" x2="228.81" y2="60.00"/>
    <line x1="240.92" y1="540.00" x2="240.92" y2="60.00"/>
    <line x1="246.98" y1="540.00" x2="246.98" y2="60.00"/>
    <line x1="253.04" y1="540.00" x2="253.04" y2="60.00"/>
    <line x1="259.09" y1="540.00" x2="259.09" y2="60.00"/>
    <line x1="271.20" y1="540.00" x2="271.20" y2="60.00"/>
    <line x1="277.26" y1="540.00" x2="277.26" y2="60.00"/>
    <line x1="283.32" y1="540.00" x2="283.32" y2="60.00"/>
    <line x1="289.37" y1="540.00" x2="289.37" y2="60.00"/>
    <line x1="301.48" y1="540.00" x2="301.48" y2="60.00"/>
    <line x1="307.54" y1="540.00" x2="307.54" y2="60.00"/>
    <line x1="313.60" y1="540.00" x2="313.60" y2="60.00"/>
    <line x1="319.65" y1="540.00" x2="319.65" y2="60.00"/>
    <line x1="331.77" y1="540.00" x2="331.77" y2="60.00"/>
    <line x1="337.82" y1="540.00" x2="337.82" y2="60.00"/>
    <line x1="343.88" y1="540.00" x2="343.88" y2="60.00"/>
    <line x1="349.93" y1="540.00" x2="349.93" y2="60.00"/>
    <line x1="362.05" y1="540.00" x2="362.05" y2="60.00"/>
    <line x1="368.10" y1="540.00" x2="368.10" y2="60.00"/>
    <line x1="374.16" y1="540.00" x2="374.16" y2="60.00"/>
    <line x1="380.21" y1="540.00" x2="380.21" y2="60.00"/>
    <line x1="392.33" y1="540.00" x2="392.33" y2="60.00"/>
    <line x1="398.38" y1="540.00" x2="398.38" y2="60.00"/>
    <line x1="404.44" y1="540.00" x2="404.44" y2="60.00"/>
    <line x1="410.50" y1="540.00" x2="410.50" y2="60.00"/>
    <line x1="422.61" y1="540.00" x2="422.61" y2="60.00"/>
    <line x1="428.66" y1="540.00" x2="428.66" y2="60.00"/>
    <line x1="434.72" y1="540.00" x2="434.72" y2="60.00"/>
    <line x1="440.78" y1="540.00" x2="440.78" y2="60.00"/>
    <line x1="452.89" y1="540.00" x2="452.89" y2="60.00"/>
    <line x1="458.94" y1="540.00" x2="458.94" y2="60.00"/>
    <line x1="465.00" y1="540.00" x2="465.00" y2="60.00"/>
    <line x1="471.06" y1="540.00" x2="471.06" y2="60.00"/>
    <line x1="483.17" y1="540.00" x2="483.17" y2="60.00"/>
    <line x1="489.23" y1="540.00" x2="489.23" y2="60.00"/>
    <line x1="495.28" y1="540.00" x2="495.28" y2="60.00"/>
    <line x1="501.34" y1="540.00" x2="501.34" y2="60.00"/>
    <line x1="513.45" y1="540.00" x2="513.45" y2="60.00"/>
    <line x1="519.51" y1="540.00" x2="519.51" y2="60.00"/>
    <line x1="525.56" y1="540.00" x2="525.56" y2="60.00"/>
    <line x1="531.62" y1="540.00" x2="531.62" y2="60.00"/>
    <line x1="543.73" y1="540.00" x2="543.73" y2="60.00"/>
    <line x1="549.79" y1="540.00" x2="549.79" y2="60.00"/>
    <line x1="555.84" y1="540.00" x2="555.84" y2="60.00"/>
    <line x1="561.90" y1="540.00" x2="561.90" y2="60.00"/>
    <line x1="574.01" y1="540.00" x2="574.01" y2="60.00"/>
    <line x1="580.07" y1="540.00" x2="580.07" y2="60.00"/>
    <line x1="586.12" y1="540.00" x2="586.12" y2="60.00"/>
    <line x1="592.18" y1="540.00" x2="592.18" y2="60.00"/>
    <line x1="604.29" y1="540.00" x2="604.29" y2="60.00"/>
    <line x1="610.35" y1="540.00" x2="610.35" y2="60.00"/>
    <line x1="616.41" y1="540.00" x2="616.41" y2="60.00"/>
    <line x1="622.46" y1="540.00" x2="622.46" y2="60.00"/>
    <line x1="634.57" y1="540.00" x2="634.57" y2="60.00"/>
    <line x1="640.63" y1="540.00" x2="640.63" y2="60.00"/>
    <line x1="646.69" y1="540.00" x2="646.69" y2="60.00"/>
    <line x1="652.74" y1="540.00" x2="652.74" y2="60.00"/>
    <line x1="664.85" y1="540.00" x2="664.85" y2="60.00"/>
    <line x1="670.91" y1="540.00" x2="670.91" y2="60.00"/>
    <line x1="676.97" y1="540.00" x2="676.97" y2="60.00"/>
    <line x1="683.02" y1="540.00" x2="683.02" y2="60.00"/>
    <line x1="695.14" y1="540.00" x2="695.14" y2="60.00"/>
    <line x1="701.19" y1="540.00" x2="701.19" y2="60.00"/>
    <line x1="707.25" y1="540.00" x2="707.25" y2="60.00"/>
    <line x1="713.30" y1="540.00" x2="713.30" y2="60.00"/>
    <line x1="80.00" y1="529.51" x2="720.00" y2="529.51"/>
    <line x1="80.00" y1="504.06" x2="720.00" y2="504.06"/>
    <line x1="80.00" y1="491.34" x2="720.00" y2="491.34"/>
    <line x1="80.00" y1="478.62" x2="720.00" y2="478.62"/>
    <line x1="80.00" y1="465.89" x2="720.00" y2="465.89"/>
    <line x1="80.00" y1="440.45" x2="720.00" y2="440.45"/>
    <line x1="80.00" y1="427.72" x2="720.00" y2="427.72"/>
    <line x1="80.00" y1="415.00" x2="720.00" y2="415.00"/>
    <line x1="80.00" y1="402.28" x2="720.00" y2="402.28"/>
    <line x1="80.00" y1="376.83" x2="720.00" y2="376.83"/>
    <line x1="80.00" y1="364.11" x2="720.00" y2="364.11"/>
    <line x1="80.00" y1="351.38" x2="720.00" y2="351.38"/>
    <line x1="80.00" y1="338.66" x2="720.00" y2="338.66"/>
    <line x1="80.00" y1="313.21" x2="720.00" y2="313.21"/>
    <line x1="80.00" y1="300.49" x2="720.00" y2="300.49"/>
    <line x1="80.00" y1="287.77" x2="720.00" y2="287.77"/>
    <line x1="80.00" y1="275.04" x2="720.00" y2="275.04"/>
    <line x1="80.00" y1="249.60" x2="720.00" y2="249.60"/>
    <line x1="80.00" y1="236.87" x2="720.00" y2="236.87"/>
    <line x1="80.00" y1="224.15" x2="720.00" y2="224.15"/>
    <line x1="80.00" y1="211.43" x2="720.00" y2="211.43"/>
    <line x1="80.00" y1="185.98" x2="720.00" y2="185.98"/>
    <line x1="80.00" y1="173.26" x2="720.00" y2="173.26"/>
    <line x1="80.00" y1="160.54" x2="720.00" y2="160.54"/>
    <line x1="80.00" y1="147.81" x2="720.00" y2="147.81"/>
    <line x1="80.00" y1="122.37" x2="720.00" y2="122.37"/>
    <line x1="80.00" y1="109.64" x2="720.00" y2="109.64"/>
    <line x1="80.00" y1="96.92" x2="720.00" y2="96.92"/>
    <line x1="80.00" y1="84.20" x2="720.00" y2="84.20"/>
  </g>
  <g stroke="#808080" stroke-width="2">
    <line x1="144.02" y1="540.00" x2="144.02" y2="60.00"/>
    <line x1="80.00" y1="453.17" x2="720.00" y2="453.17"/>
  </g>
  <polyline fill="none" stroke="#0066cc" stroke-width="2" points="720.00,60.00 685.05,60.78 653.56,61.60 625.03,62.46 599.04,63.37 575.24,64.32 553.35,65.31 533.15,66.34 514.42,67.42 497.00,68.54 480.75,69.69 465.55,70.89 451.28,72.13 437.86,73.41 425.20,74.74 413.24,76.10 401.91,77.50 391.16,78.94 380.94,80.42 371.21,81.94 361.92,83.50 353.06,85.09 344.58,86.73 336.45,88.40 328.66,90.11 321.17,91.86 313.97,93.64 307.05,95.46 300.38,97.32 293.94,99.21 287.73,101.14 281.73,103.10 275.93,105.10 270.32,107.13 264.88,109.19 259.61,111.29 254.51,113.42 249.55,115.59 244.74,117.78 240.07,120.01 235.53,122.27 231.12,124.56 226.83,126.88 222.65,129.23 218.58,131.61 214.62,134.02 210.77,136.45 207.01,138.92 203.34,141.41 199.77,143.93 196.28,146.48 192.88,149.05 189.56,151.64 186.32,154.27 183.16,156.91 180.07,159.59 177.06,162.28 174.11,165.00 171.24,167.74 168.43,170.50 165.68,173.29 163.00,176.09 160.38,178.91 157.82,181.76 155.32,184.62 152.88,187.51 150.49,190.41 148.15,193.33 145.87,196.26 143.64,199.21 141.47,202.18 139.34,205.17 137.26,208.17 135.23,211.18 133.25,214.21 131.31,217.24 129.43,220.30 127.58,223.36 125.78,226.44 124.02,229.52 122.31,232.62 120.64,235.73 119.00,238.84 117.41,241.97 115.86,245.10 114.35,248.24 112.88,251.39 111.45,254.54 110.06,257.70 108.70,260.86 107.38,264.03 106.09,267.20 104.85,270.37 103.63,273.55 102.46,276.73 101.32,279.91 100.21,283.10 99.13,286.28 98.09,289.46 97.09,292.65 96.11,295.83 95.17,299.01 94.26,302.18 93.38,305.36 92.53,308.53 91.71,311.69 90.93,314.85 90.17,318.01 89.45,321.16 88.75,324.31 88.08,327.44 87.44,330.58 86.83,333.70 86.25,336.81 85.70,339.92 85.17,343.01 84.67,346.10 84.20,349.17 83.76,352.24 83.34,355.29 82.95,358.33 82.58,361.36 82.24,364.37 81.93,367.37 81.63,370.36 81.37,373.33 81.13,376.29 80.91,379.23 80.72,382.15 80.55,385.06 80.40,387.96 80.28,390.83 80.18,393.69 80.10,396.53 80.05,399.34 80.01,402.15 80.00,404.93 80.01,407.69 80.04,410.43 80.09,413.15 80.16,415.84 80.25,418.52 80.37,421.17 80.50,423.80 80.65,426.41 80.82,429.00 81.01,431.56 81.22,434.10 81.44,436.61 81.69,439.10 81.95,441.56 82.23,444.00 82.52,446.41 82.84,448.80 83.17,451.16 83.51,453.49 83.87,455.80 84.25,458.07 84.64,460.32 85.05,462.55 85.48,464.74 85.92,466.91 86.37,469.05 86.83,471.15 87.31,473.23 87.81,475.28 88.32,477.30 88.84,479.29 89.37,481.25 89.91,483.18 90.47,485.08 91.04,486.95 91.62,488.79 92.21,490.59 92.82,492.37 93.43,494.11 94.06,495.82 94.69,497.50 95.33,499.15 95.99,500.77 96.65,502.35 97.32,503.90 98.00,505.42 98.69,506.91 99.39,508.36 100.10,509.78 100.81,511.17 101.53,512.53 102.26,513.85 102.99,515.14 103.73,516.40 104.48,517.62 105.23,518.81 105.99,519.97 106.75,521.09 107.52,522.19 108.30,523.24 109.08,524.27 109.86,525.26 110.65,526.22 111.44,527.15 112.23,528.04 113.03,528.90 113.83,529.72 114.64,530.52 115.44,531.28 116.25,532.01 117.06,532.70 117.87,533.37 118.69,534.00 119.50,534.60 120.32,535.16 121.14,535.70 121.95,536.20 122.77,536.67 123.59,537.11 124.40,537.51 125.22,537.89 126.04,538.23 126.85,538.55 127.67,538.83 128.48,539.08 129.29,539.30 130.10,539.49 130.91,539.65 131.71,539.78 132.51,539.88 133.31,539.95 134.11,539.99 134.90,540.00 135.69,539.98 136.48,539.94 137.26,539.86 138.04,539.76 138.81,539.63 139.58,539.47 140.35,539.29 141.11,539.07 141.87,538.83 142.62,538.57 143.36,538.28 144.10,537.96 144.83,537.61 145.56,537.24 146.28,536.85 147.00,536.43 147.71,535.99 148.41,535.52 149.11,535.03 149.79,534.51 150.48,533.97 151.15,533.41 151.82,532.83 152.48,532.22 153.13,531.59 153.77,530.94 154.41,530.27 155.04,529.58 155.66,528.87 156.27,528.14 156.87,527.39 157.47,526.62 158.05,525.83 158.63,525.02 159.20,524.20 159.75,523.35 160.30,522.49 160.84,521.62 161.38,520.72 161.90,519.81 162.41,518.89 162.91,517.94 163.40,516.99 163.89,516.02 164.36,515.03 164.82,514.03 165.27,513.02 165.72,511.99 166.15,510.95 166.57,509.90 166.98,508.84 167.38,507.77 167.78,506.68 168.16,505.59 168.53,504.48 168.89,503.37 169.23,502.24 169.57,501.11 169.90,499.97 170.22,498.82 170.52,497.66 170.82,496.50 171.10,495.33 171.37,494.15 171.64,492.96 171.89,491.77 172.13,490.58 172.36,489.38 172.58,488.17 172.79,486.97 172.98,485.75 173.17,484.54 173.35,483.32 173.51,482.10 173.66,480.88 173.81,479.65 173.94,478.43 174.06,477.20 174.17,475.98 174.27,474.75 174.36,473.52 174.44,472.30 174.51,471.07 174.57,469.85 174.61,468.63 174.65,467.41 174.68,466.20 174.69,464.98 174.70,463.77 174.69,462.57 174.68,461.36 174.66,460.17 174.62,458.97 174.58,457.78 174.52,456.60 174.46,455.42 174.38,454.25 174.30,453.09 174.21,451.93 174.10,450.78 173.99,449.64 173.87,448.50 173.74,447.38 173.60,446.26 173.45,445.15 173.29,444.05 173.12,442.95 172.95,441.87 172.76,440.80 172.57,439.74 172.37,438.68 172.16,437.64 171.94,436.61 171.72,435.59 171.48,434.58 171.24,433.59 170.99,432.61 170.74,431.63 170.47,430.67 170.20,429.73 169.92,428.79 169.64,427.87 169.34,426.97 169.04,426.07 168.74,425.19 168.42,424.33 168.11,423.48 167.78,422.64 167.45,421.82 167.11,421.01 166.77,420.22 166.42,419.44 166.06,418.68 165.70,417.93 165.34,417.20 164.96,416.49 164.59,415.79 164.21,415.10 163.82,414.44 163.43,413.79 163.04,413.15 162.64,412.53 162.23,411.93 161.83,411.35 161.42,410.78 161.00,410.23 160.58,409.70 160.16,409.18 159.74,408.68 159.31,408.20 158.88,407.74 158.44,407.29 158.01,406.86 157.57,406.45 157.13,406.06 156.69,405.68 156.24,405.32 155.79,404.98 155.34,404.66 154.89,404.35 154.44,404.06 153.99,403.79 153.54,403.54 153.08,403.31 152.62,403.09 152.17,402.89 151.71,402.71 151.25,402.54 150.80,402.40 150.34,402.27 149.88,402.16 149.42,402.06 148.97,401.99 148.51,401.93 148.06,401.89 147.60,401.86 147.15,401.86 146.69,401.87 146.24,401.89 145.79,401.94 145.34,402.00 144.90,402.08 144.45,402.17 144.01,402.28 143.57,402.41 143.13,402.55 142.69,402.71 142.26,402.89 141.83,403.08 141.40,403.28 140.97,403.51 140.55,403.75 140.13,404.00 139.71,404.27 139.30,404.55 138.89,404.85 138.48,405.17 138.08,405.49 137.68,405.84 137.28,406.19 136.89,406.56 136.51,406.95 136.12,407.35 135.74,407.76 135.37,408.18 135.00,408.62 134.64,409.07 134.28,409.54 133.92,410.01 133.57,410.50 133.23,411.00 132.89,411.51 132.55,412.04 132.22,412.57 131.90,413.12 131.58,413.68 131.26,414.24 130.96,414.82 130.65,415.41 130.36,416.01 130.07,416.62 129.78,417.24 129.50,417.87 129.23,418.50 128.96,419.15 128.70,419.80 128.45,420.47 128.20,421.14 127.96,421.81 127.72,422.50 127.49,423.19 127.27,423.89 127.05,424.60 126.84,425.32 126.64,426.04 126.45,426.76 126.26,427.49 126.07,428.23 125.90,428.97 125.73,429.72 125.56,430.47 125.41,431.23 125.26,431.99 125.12,432.76 124.98,433.52 124.85,434.30 124.73,435.07 124.62,435.85 124.51,436.63 124.41,437.41 124.31,438.20 124.23,438.99 124.15,439.77 124.07,440.56 124.01,441.36 123.95,442.15 123.90,442.94 123.85,443.73 123.81,444.52 123.78,445.32 123.76,446.11 123.74,446.90 123.73,447.69 123.72,448.48 123.72,449.27 123.73,450.05 123.75,450.83 123.77,451.61 123.80,452.39 123.84,453.17 "/>
</svg>
