<?xml version="1.0" encoding="UTF-8"?>
<svg xmlns="http://www.w3.org/2000/svg" width="800" height="600">
  <title>R**2=pi/t:1/10,4:</title>
  <rect width="800" height="600" fill="#ffffff"/>
  <g stroke="#d0d0d0" stroke-width="1">
    <line x1="-77.05" y1="540.00" x2="-77.05" y2="60.00"/>
    <line x1="82.12" y1="540.00" x2="82.12" y2="60.00"/>
    <line x1="241.29" y1="540.00" x2="241.29" y2="60.00"/>
    <line x1="400.47" y1="540.00" x2="400.47" y2="60.00"/>
    <line x1="559.64" y1="540.00" x2="559.64" y2="60.00"/>
    <line x1="718.81" y1="540.00" x2="718.81" y2="60.00"/>
    <line x1="877.98" y1="540.00" x2="877.98" y2="60.00"/>
    <line x1="80.00" y1="576.84" x2="720.00" y2="576.84"/>
    <line x1="80.00" y1="370.82" x2="720.00" y2="370.82"/>
    <line x1="80.00" y1="164.81" x2="720.00" y2="164.81"/>
    <line x1="80.00" y1="-41.21" x2="720.00" y2="-41.21"/>
  </g>
  <g stroke="#e8e8e8" stroke-width="0.5">
    <line x1="113.96" y1="540.00" x2="113.96" y2="60.00"/>
    <line x1="145.79" y1="540.00" x2="145.79" y2="60.00"/>
    <line x1="177.63" y1="540.00" x2="177.63" y2="60.00"/>
    <line x1="209.46" y1="540.00" x2="209.46" y2="60.00"/>
    <line x1="273.13" y1="540.00" x2="273.13" y2="60.00"/>
    <line x1="304.96" y1="540.00" x2="304.96" y2="60.00"/>
    <line x1="336.80" y1="540.00" x2="336.80" y2="60.00"/>
    <line x1="368.63" y1="540.00" x2="368.63" y2="60.00"/>
    <line x1="432.30" y1="540.00" x2="432.30" y2="60.00"/>
    <line x1="464.13" y1="540.00" x2="464.13" y2="60.00"/>
    <line x1="495.97" y1="540.00" x2="495.97" y2="60.00"/>
    <line x1="527.80" y1="540.00" x2="527.80" y2="60.00"/>
    <line x1="591.47" y1="540.00" x2="591.47" y2="60.00"/>
    <line x1="623.30" y1="540.00" x2="623.30" y2="60.00"/>
    <line x1="655.14" y1="540.00" x2="655.14" y2="60.00"/>
    <line x1="686.97" y1="540.00" x2="686.97" y2="60.00"/>
    <line x1="80.00" y1="535.64" x2="720.00" y2="535.64"/>
    <line x1="80.00" y1="494.43" x2="720.00" y2="494.43"/>
    <line x1="80.00" y1="453.23" x2="720.00" y2="453.23"/>
    <line x1="80.00" y1="412.03" x2="720.00" y2="412.03"/>
    <line x1="80.00" y1="329.62" x2="720.00" y2="329.62"/>
    <line x1="80.00" y1="288.42" x2="720.00" y2="288.42"/>
    <line x1="80.00" y1="247.22" x2="720.00" y2="247.22"/>
    <line x1="80.00" y1="206.01" x2="720.00" y2="206.01"/>
    <line x1="80.00" y1="123.61" x2="720.00" y2="123.61"/>
    <line x1="80.00" y1="82.40" x2="720.00" y2="82.40"/>
  </g>
  <g stroke="#808080" stroke-width="2">
    <line x1="241.29" y1="540.00" x2="241.29" y2="60.00"/>
    <line x1="80.00" y1="370.82" x2="720.00" y2="370.82"/>
  </g>
  <polyline fill="none" stroke="#0066cc" stroke-width="2" points="720.00,169.51 698.51,162.35 678.83,155.55 660.68,149.08 643.80,142.93 628.01,137.06 613.15,131.48 599.10,126.16 585.76,121.09 573.04,116.27 560.86,111.68 549.17,107.33 537.91,103.19 527.04,99.27 516.51,95.55 506.31,92.04 496.39,88.74 486.74,85.63 477.33,82.71 468.14,79.98 459.15,77.44 450.36,75.08 441.74,72.90 433.29,70.90 425.00,69.07 416.85,67.42 408.84,65.94 400.96,64.63 393.21,63.49 385.57,62.51 378.05,61.69 370.65,61.04 363.35,60.54 356.15,60.21 349.05,60.03 342.05,60.00 335.15,60.13 328.34,60.40 321.62,60.83 315.00,61.40 308.46,62.12 302.01,62.98 295.65,63.98 289.38,65.12 283.19,66.40 277.09,67.82 271.08,69.37 265.15,71.05 259.30,72.86 253.55,74.81 247.87,76.87 242.29,79.07 236.79,81.38 231.38,83.82 226.05,86.38 220.81,89.05 215.66,91.83 210.60,94.73 205.63,97.74 200.74,100.86 195.95,104.08 191.25,107.40 186.63,110.83 182.11,114.35 177.68,117.97 173.35,121.69 169.10,125.49 164.96,129.39 160.90,133.37 156.94,137.43 153.08,141.58 149.31,145.81 145.64,150.11 142.06,154.49 138.59,158.94 135.21,163.46 131.93,168.05 128.75,172.69 125.66,177.40 122.68,182.17 119.80,187.00 117.02,191.88 114.33,196.80 111.75,201.78 109.27,206.80 106.89,211.86 104.62,216.97 102.44,222.11 100.37,227.28 98.39,232.49 96.52,237.72 94.75,242.98 93.08,248.27 91.52,253.57 90.05,258.90 88.68,264.23 87.42,269.58 86.26,274.94 85.20,280.31 84.23,285.68 83.37,291.05 82.61,296.43 81.94,301.79 81.37,307.15 80.91,312.51 80.54,317.85 80.26,323.17 80.08,328.48 80.00,333.77 80.01,339.04 80.12,344.28 80.32,349.50 80.61,354.69 80.99,359.84 81.47,364.96 82.03,370.05 82.68,375.09 83.42,380.09 84.25,385.05 85.16,389.96 86.16,394.83 87.24,399.64 88.41,404.40 89.65,409.11 90.97,413.76 92.38,418.35 93.86,422.88 95.41,427.35 97.05,431.75 98.75,436.08 100.53,440.35 102.37,444.54 104.29,448.66 106.27,452.71 108.32,456.68 110.43,460.58 112.61,464.39 114.85,468.13 117.15,471.78 119.50,475.35 121.91,478.83 124.38,482.23 126.90,485.54 129.47,488.76 132.09,491.89 134.76,494.93 137.48,497.87 140.23,500.72 143.04,503.48 145.88,506.14 148.76,508.71 151.68,511.18 154.63,513.55 157.62,515.82 160.64,517.99 163.68,520.06 166.76,522.04 169.86,523.91 172.99,525.67 176.14,527.34 179.31,528.90 182.49,530.37 185.70,531.72 188.91,532.98 192.15,534.13 195.39,535.18 198.64,536.12 201.90,536.97 205.16,537.70 208.43,538.34 211.70,538.87 214.97,539.30 218.23,539.63 221.49,539.85 224.75,539.98 228.00,540.00 231.24,539.92 234.47,539.74 237.68,539.47 240.89,539.09 244.07,538.61 247.24,538.04 250.38,537.37 253.51,536.61 256.61,535.75 259.69,534.80 262.74,533.75 265.76,532.62 268.75,531.39 271.72,530.07 274.65,528.67 277.54,527.17 280.40,525.60 283.22,523.93 286.00,522.19 288.75,520.36 291.45,518.45 294.11,516.47 296.72,514.40 299.29,512.26 301.81,510.05 304.29,507.76 306.71,505.41 309.09,502.98 311.41,500.48 313.69,497.92 315.90,495.30 318.07,492.61 320.18,489.87 322.23,487.06 324.22,484.20 326.16,481.28 328.03,478.31 329.85,475.29 331.60,472.22 333.30,469.11 334.93,465.94 336.50,462.74 338.00,459.49 339.44,456.21 340.82,452.89 342.13,449.53 343.37,446.14 344.55,442.72 345.66,439.28 346.71,435.80 347.68,432.30 348.59,428.78 349.43,425.24 350.21,421.69 350.91,418.11 351.55,414.52 352.12,410.93 352.62,407.32 353.05,403.70 353.41,400.08 353.71,396.46 353.94,392.83 354.09,389.21 354.18,385.59 354.21,381.98 354.16,378.37 354.05,374.78 353.87,371.19 353.62,367.62 353.31,364.06 352.93,360.53 352.49,357.01 351.98,353.51 351.41,350.04 350.77,346.60 350.07,343.18 349.31,339.79 348.48,336.43 347.60,333.10 346.66,329.81 345.65,326.56 344.59,323.35 343.47,320.17 342.29,317.04 341.06,313.95 339.77,310.91 338.42,307.91 337.03,304.96 335.58,302.07 334.08,299.22 332.53,296.43 330.93,293.69 329.28,291.01 327.59,288.38 325.85,285.82 324.06,283.31 322.24,280.86 320.37,278.48 318.46,276.16 316.51,273.91 314.52,271.72 312.49,269.60 310.43,267.54 308.34,265.56 306.21,263.64 304.05,261.80 301.86,260.03 299.64,258.32 297.39,256.70 295.12,255.14 292.82,253.66 290.50,252.26 288.16,250.93 285.80,249.68 283.42,248.51 281.02,247.41 278.61,246.39 276.18,245.44 273.74,244.58 271.28,243.79 268.82,243.09 266.35,242.46 263.87,241.91 261.38,241.44 258.90,241.05 256.40,240.73 253.91,240.50 251.42,240.35 248.93,240.27 246.44,240.27 243.96,240.35 241.49,240.51 239.02,240.75 236.56,241.06 234.11,241.45 231.67,241.92 229.25,242.46 226.84,243.08 224.45,243.77 222.07,244.54 219.71,245.38 217.38,246.29 215.06,247.28 212.77,248.33 210.50,249.46 208.26,250.66 206.04,251.92 203.85,253.25 201.69,254.65 199.56,256.11 197.46,257.64 195.40,259.23 193.37,260.89 191.37,262.60 189.41,264.38 187.48,266.21 185.59,268.10 183.75,270.05 181.94,272.05 180.17,274.10 178.44,276.21 176.76,278.37 175.12,280.58 173.53,282.83 171.98,285.13 170.47,287.48 169.01,289.87 167.60,292.30 166.24,294.77 164.93,297.29 163.67,299.83 162.45,302.42 161.29,305.03 160.18,307.68 159.12,310.36 158.11,313.07 157.16,315.81 156.25,318.57 155.41,321.36 154.61,324.16 153.87,326.99 153.19,329.84 152.55,332.70 151.98,335.58 151.46,338.47 150.99,341.38 150.58,344.29 150.23,347.21 149.93,350.14 149.69,353.08 149.50,356.01 149.37,358.95 149.29,361.89 149.27,364.82 149.30,367.75 149.39,370.67 149.54,373.59 149.74,376.50 149.99,379.40 150.30,382.28 150.66,385.15 151.07,388.00 151.54,390.84 152.06,393.66 152.63,396.45 153.26,399.22 153.94,401.97 154.66,404.70 155.44,407.39 156.27,410.06 157.14,412.70 158.07,415.31 159.04,417.88 160.06,420.42 161.12,422.92 162.23,425.38 163.39,427.81 164.59,430.19 165.83,432.54 167.11,434.84 168.44,437.09 169.80,439.31 171.21,441.47 172.66,443.59 174.14,445.66 175.66,447.67 177.21,449.64 178.80,451.56 180.42,453.42 182.08,455.23 183.77,456.98 185.49,458.68 187.23,460.32 189.01,461.90 190.81,463.42 192.64,464.89 194.50,466.29 196.37,467.64 198.28,468.92 200.20,470.14 202.14,471.30 204.10,472.40 206.08,473.43 208.07,474.40 210.09,475.30 212.11,476.14 214.15,476.91 216.20,477.62 218.26,478.26 220.33,478.84 222.40,479.35 224.49,479.79 226.58,480.17 228.67,480.48 230.76,480.72 232.86,480.90 234.96,481.01 237.06,481.06 239.15,481.03 241.24,480.95 243.33,480.79 245.41,480.57 247.48,480.29 249.55,479.94 251.60,479.52 253.65,479.04 255.68,478.50 257.70,477.89 259.71,477.22 261.70,476.49 263.67,475.69 265.63,474.84 267.56,473.92 269.48,472.94 271.38,471.91 273.25,470.81 275.10,469.66 276.93,468.45 278.73,467.19 280.50,465.87 282.25,464.49 283.97,463.06 285.66,461.58 287.32,460.05 288.95,458.47 290.54,456.84 292.11,455.16 293.64,453.43 295.13,451.66 296.59,449.84 298.01,447.98 299.40,446.07 300.75,444.13 302.06,442.14 303.33,440.12 304.56,438.06 305.75,435.96 306.89,433.83 308.00,431.66 309.07,429.46 310.09,427.23 311.06,424.98 312.00,422.69 312.89,420.38 313.73,418.04 314.53,415.68 315.29,413.29 315.99,410.89 316.66,408.47 317.27,406.02 317.84,403.57 318.36,401.09 318.83,398.61 319.26,396.11 319.64,393.60 319.97,391.09 320.25,388.56 320.48,386.03 320.67,383.50 320.81,380.96 320.90,378.43 320.94,375.89 320.93,373.36 320.88,370.82 "/>
</svg>
