<?xml version="1.0" encoding="UTF-8"?>
<svg xmlns="http://www.w3.org/2000/svg" width="800" height="600">
  <title>R=1/4+sin(t)</title>
  <rect width="800" height="600" fill="#ffffff"/>
  <g stroke="#d0d0d0" stroke-width="1">
    <line x1="-67.87" y1="540.00" x2="-67.87" y2="60.00"/>
    <line x1="400.00" y1="540.00" x2="400.00" y2="60.00"/>
    <line x1="867.87" y1="540.00" x2="867.87" y2="60.00"/>
    <line x1="80.00" y1="913.33" x2="720.00" y2="913.33"/>
    <line x1="80.00" y1="534.07" x2="720.00" y2="534.07"/>
    <line x1="80.00" y1="154.81" x2="720.00" y2="154.81"/>
    <line x1="80.00" y1="-224.44" x2="720.00" y2="-224.44"/>
  </g>
  <g stroke="#e8e8e8" stroke-width="0.5">
    <line x1="119.28" y1="540.00" x2="119.28" y2="60.00"/>
    <line x1="212.85" y1="540.00" x2="212.85" y2="60.00"/>
    <line x1="306.43" y1="540.00" x2="306.43" y2="60.00"/>
    <line x1="493.57" y1="540.00" x2="493.57" y2="60.00"/>
    <line x1="587.15" y1="540.00" x2="587.15" y2="60.00"/>
    <line x1="680.72" y1="540.00" x2="680.72" y2="60.00"/>
    <line x1="80.00" y1="458.22" x2="720.00" y2="458.22"/>
    <line x1="80.00" y1="382.37" x2="720.00" y2="382.37"/>
    <line x1="80.00" y1="306.52" x2="720.00" y2="306.52"/>
    <line x1="80.00" y1="230.67" x2="720.00" y2="230.67"/>
    <line x1="80.00" y1="78.96" x2="720.00" y2="78.96"/>
  </g>
  <g stroke="#808080" stroke-width="2">
    <line x1="400.00" y1="540.00" x2="400.00" y2="60.00"/>
    <line x1="80.00" y1="534.07" x2="720.00" y2="534.07"/>
  </g>
  <polyline fill="none" stroke="#0066cc" stroke-width="2" points="522.84,532.82 528.68,531.45 534.51,529.96 540.30,528.35 546.06,526.63 551.78,524.78 557.46,522.82 563.10,520.74 568.68,518.54 574.22,516.23 579.70,513.81 585.13,511.27 590.49,508.62 595.79,505.86 601.01,502.99 606.17,500.01 611.24,496.93 616.24,493.73 621.16,490.44 625.99,487.04 630.73,483.54 635.38,479.94 639.94,476.24 644.39,472.45 648.75,468.56 652.99,464.58 657.14,460.51 661.17,456.35 665.09,452.10 668.89,447.77 672.58,443.36 676.14,438.87 679.58,434.31 682.90,429.66 686.08,424.95 689.14,420.16 692.06,415.31 694.85,410.39 697.50,405.41 700.02,400.38 702.39,395.28 704.62,390.13 706.70,384.93 708.64,379.68 710.43,374.38 712.07,369.04 713.56,363.66 714.90,358.25 716.08,352.79 717.11,347.31 717.99,341.80 718.71,336.27 719.27,330.71 719.67,325.13 719.92,319.54 720.00,313.93 719.93,308.32 719.69,302.70 719.29,297.07 718.74,291.45 718.02,285.82 717.14,280.21 716.10,274.60 714.90,269.00 713.54,263.42 712.02,257.86 710.34,252.32 708.50,246.80 706.50,241.31 704.35,235.86 702.04,230.43 699.57,225.05 696.94,219.70 694.17,214.40 691.24,209.14 688.15,203.93 684.92,198.78 681.54,193.67 678.02,188.63 674.34,183.65 670.53,178.73 666.57,173.88 662.47,169.10 658.24,164.39 653.87,159.75 649.36,155.19 644.73,150.71 639.96,146.31 635.07,142.00 630.05,137.78 624.91,133.64 619.66,129.60 614.28,125.66 608.80,121.81 603.20,118.05 597.49,114.40 591.68,110.86 585.77,107.42 579.76,104.08 573.65,100.86 567.45,97.74 561.16,94.74 554.78,91.86 548.32,89.09 541.79,86.43 535.17,83.90 528.49,81.49 521.73,79.20 514.92,77.04 508.03,75.00 501.10,73.08 494.10,71.29 487.06,69.64 479.97,68.11 472.84,66.71 465.67,65.44 458.46,64.30 451.22,63.29 443.95,62.42 436.66,61.68 429.35,61.08 422.03,60.61 414.69,60.27 407.35,60.07 400.00,60.00 392.65,60.07 385.31,60.27 377.97,60.61 370.65,61.08 363.34,61.68 356.05,62.42 348.78,63.29 341.54,64.30 334.33,65.44 327.16,66.71 320.03,68.11 312.94,69.64 305.90,71.29 298.90,73.08 291.97,75.00 285.08,77.04 278.27,79.20 271.51,81.49 264.83,83.90 258.21,86.43 251.68,89.09 245.22,91.86 238.84,94.74 232.55,97.74 226.35,100.86 220.24,104.08 214.23,107.42 208.32,110.86 202.51,114.40 196.80,118.05 191.20,121.81 185.72,125.66 180.34,129.60 175.09,133.64 169.95,137.78 164.93,142.00 160.04,146.31 155.27,150.71 150.64,155.19 146.13,159.75 141.76,164.39 137.53,169.10 133.43,173.88 129.47,178.73 125.66,183.65 121.98,188.63 118.46,193.67 115.08,198.78 111.85,203.93 108.76,209.14 105.83,214.40 103.06,219.70 100.43,225.05 97.96,230.43 95.65,235.86 93.50,241.31 91.50,246.80 89.66,252.32 87.98,257.86 86.46,263.42 85.10,269.00 83.90,274.60 82.86,280.21 81.98,285.82 81.26,291.45 80.71,297.07 80.31,302.70 80.07,308.32 80.00,313.93 80.08,319.54 80.33,325.13 80.73,330.71 81.29,336.27 82.01,341.80 82.89,347.31 83.92,352.79 85.10,358.25 86.44,363.66 87.93,369.04 89.57,374.38 91.36,379.68 93.30,384.93 95.38,390.13 97.61,395.28 99.98,400.38 102.50,405.41 105.15,410.39 107.94,415.31 110.86,420.16 113.92,424.95 117.10,429.66 120.42,434.31 123.86,438.87 127.42,443.36 131.11,447.77 134.91,452.10 138.83,456.35 142.86,460.51 147.01,464.58 151.25,468.56 155.61,472.45 160.06,476.24 164.62,479.94 169.27,483.54 174.01,487.04 178.84,490.44 183.76,493.73 188.76,496.93 193.83,500.01 198.99,502.99 204.21,505.86 209.51,508.62 214.87,511.27 220.30,513.81 225.78,516.23 231.32,518.54 236.90,520.74 242.54,522.82 248.22,524.78 253.94,526.63 259.70,528.35 265.49,529.96 271.32,531.45 277.16,532.82 283.03,534.07 288.92,535.21 294.82,536.22 300.74,537.11 306.66,537.88 312.58,538.53 318.51,539.06 324.43,539.48 330.34,539.77 336.24,539.94 342.13,540.00 348.00,539.94 353.85,539.76 359.67,539.46 365.46,539.05 371.22,538.52 376.94,537.88 382.63,537.13 388.27,536.26 393.86,535.29 399.41,534.20 404.90,533.00 410.33,531.70 415.70,530.29 421.02,528.77 426.26,527.16 431.44,525.44 436.54,523.62 441.57,521.70 446.52,519.69 451.39,517.58 456.17,515.38 460.87,513.09 465.48,510.71 469.99,508.24 474.41,505.69 478.74,503.05 482.96,500.34 487.09,497.54 491.11,494.67 495.02,491.73 498.82,488.72 502.52,485.63 506.10,482.48 509.56,479.27 512.91,475.99 516.14,472.65 519.25,469.26 522.25,465.82 525.11,462.32 527.86,458.77 530.47,455.18 532.96,451.55 535.33,447.87 537.56,444.16 539.67,440.41 541.64,436.64 543.48,432.83 545.19,428.99 546.76,425.14 548.21,421.26 549.52,417.36 550.69,413.45 551.73,409.53 552.63,405.59 553.40,401.65 554.04,397.71 554.54,393.77 554.90,389.83 555.14,385.89 555.23,381.97 555.20,378.05 555.03,374.15 554.73,370.26 554.30,366.40 553.73,362.55 553.04,358.73 552.22,354.94 551.27,351.18 550.20,347.45 549.00,343.76 547.67,340.10 546.23,336.49 544.66,332.92 542.97,329.40 541.17,325.92 539.25,322.50 537.21,319.13 535.07,315.81 532.81,312.56 530.45,309.36 527.98,306.23 525.40,303.16 522.73,300.16 519.95,297.23 517.08,294.37 514.11,291.58 511.06,288.87 507.91,286.23 504.68,283.68 501.36,281.21 497.96,278.81 494.48,276.51 490.93,274.29 487.30,272.15 483.61,270.11 479.85,268.15 476.02,266.29 472.14,264.52 468.20,262.85 464.20,261.27 460.15,259.78 456.06,258.40 451.92,257.11 447.74,255.93 443.52,254.84 439.26,253.85 434.98,252.97 430.67,252.19 426.33,251.51 421.98,250.94 417.60,250.47 413.21,250.10 408.81,249.84 404.41,249.68 400.00,249.63 395.59,249.68 391.19,249.84 386.79,250.10 382.40,250.47 378.02,250.94 373.67,251.51 369.33,252.19 365.02,252.97 360.74,253.85 356.48,254.84 352.26,255.93 348.08,257.11 343.94,258.40 339.85,259.78 335.80,261.27 331.80,262.85 327.86,264.52 323.98,266.29 320.15,268.15 316.39,270.11 312.70,272.15 309.07,274.29 305.52,276.51 302.04,278.81 298.64,281.21 295.32,283.68 292.09,286.23 288.94,288.87 285.89,291.58 282.92,294.37 280.05,297.23 277.27,300.16 274.60,303.16 272.02,306.23 269.55,309.36 267.19,312.56 264.93,315.81 262.79,319.13 260.75,322.50 258.83,325.92 257.03,329.40 255.34,332.92 253.77,336.49 252.33,340.10 251.00,343.76 249.80,347.45 248.73,351.18 247.78,354.94 246.96,358.73 246.27,362.55 245.70,366.40 245.27,370.26 244.97,374.15 244.80,378.05 244.77,381.97 244.86,385.89 245.10,389.83 245.46,393.77 245.96,397.71 246.60,401.65 247.37,405.59 248.27,409.53 249.31,413.45 250.48,417.36 251.79,421.26 253.24,425.14 254.81,428.99 256.52,432.83 258.36,436.64 260.33,440.41 262.44,444.16 264.67,447.87 267.04,451.55 269.53,455.18 272.14,458.77 274.89,462.32 277.75,465.82 280.75,469.26 283.86,472.65 287.09,475.99 290.44,479.27 293.90,482.48 297.48,485.63 301.18,488.72 304.98,491.73 308.89,494.67 312.91,497.54 317.04,500.34 321.26,503.05 325.59,505.69 330.01,508.24 334.52,510.71 339.13,513.09 343.83,515.38 348.61,517.58 353.48,519.69 358.43,521.70 363.46,523.62 368.56,525.44 373.74,527.16 378.98,528.77 384.30,530.29 389.67,531.70 395.10,533.00 400.59,534.20 406.14,535.29 411.73,536.26 417.37,537.13 423.06,537.88 428.78,538.52 434.54,539.05 440.33,539.46 446.15,539.76 452.00,539.94 457.87,540.00 463.76,539.94 469.66,539.77 475.57,539.48 481.49,539.06 487.42,538.53 493.34,537.88 499.26,537.11 505.18,536.22 511.08,535.21 516.97,534.07 "/>
</svg>
