<?xml version="1.0" encoding="UTF-8"?>
<svg xmlns="http://www.w3.org/2000/svg" width="800" height="600">
  <title>R=sin(t/3):0,3:</title>
  <rect width="800" height="600" fill="#ffffff"/>
  <g stroke="#d0d0d0" stroke-width="1">
    <line x1="36.40" y1="540.00" x2="36.40" y2="60.00"/>
    <line x1="400.00" y1="540.00" x2="400.00" y2="60.00"/>
    <line x1="763.60" y1="540.00" x2="763.60" y2="60.00"/>
    <line x1="80.00" y1="540.02" x2="720.00" y2="540.02"/>
    <line x1="80.00" y1="232.80" x2="720.00" y2="232.80"/>
    <line x1="80.00" y1="-74.41" x2="720.00" y2="-74.41"/>
  </g>
  <g stroke="#e8e8e8" stroke-width="0.5">
    <line x1="109.12" y1="540.00" x2="109.12" y2="60.00"/>
    <line x1="181.84" y1="540.00" x2="181.84" y2="60.00"/>
    <line x1="254.56" y1="540.00" x2="254.56" y2="60.00"/>
    <line x1="327.28" y1="540.00" x2="327.28" y2="60.00"/>
    <line x1="472.72" y1="540.00" x2="472.72" y2="60.00"/>
    <line x1="545.44" y1="540.00" x2="545.44" y2="60.00"/>
    <line x1="618.16" y1="540.00" x2="618.16" y2="60.00"/>
    <line x1="690.88" y1="540.00" x2="690.88" y2="60.00"/>
    <line x1="80.00" y1="478.57" x2="720.00" y2="478.57"/>
    <line x1="80.00" y1="417.13" x2="720.00" y2="417.13"/>
    <line x1="80.00" y1="355.69" x2="720.00" y2="355.69"/>
    <line x1="80.00" y1="294.25" x2="720.00" y2="294.25"/>
    <line x1="80.00" y1="171.36" x2="720.00" y2="171.36"/>
    <line x1="80.00" y1="109.92" x2="720.00" y2="109.92"/>
  </g>
  <g stroke="#808080" stroke-width="2">
    <line x1="400.00" y1="540.00" x2="400.00" y2="60.00"/>
    <line x1="80.00" y1="232.80" x2="720.00" y2="232.80"/>
  </g>
  <polyline fill="none" stroke="#0066cc" stroke-width="2" points="400.00,232.80 402.29,232.77 404.57,232.66 406.86,232.47 409.13,232.22 411.39,231.89 413.64,231.49 415.88,231.02 418.10,230.47 420.29,229.86 422.47,229.17 424.62,228.42 426.74,227.59 428.83,226.70 430.89,225.73 432.92,224.70 434.91,223.61 436.86,222.45 438.76,221.22 440.63,219.93 442.44,218.57 444.21,217.16 445.93,215.68 447.59,214.15 449.20,212.55 450.76,210.90 452.25,209.19 453.68,207.43 455.05,205.62 456.36,203.76 457.60,201.84 458.77,199.88 459.87,197.87 460.90,195.81 461.85,193.72 462.73,191.58 463.54,189.40 464.26,187.18 464.91,184.93 465.47,182.64 465.95,180.32 466.35,177.96 466.66,175.58 466.89,173.18 467.03,170.74 467.09,168.29 467.05,165.81 466.92,163.32 466.71,160.81 466.40,158.28 466.00,155.75 465.51,153.20 464.92,150.64 464.24,148.08 463.47,145.51 462.60,142.95 461.63,140.38 460.57,137.82 459.42,135.26 458.17,132.71 456.82,130.17 455.38,127.64 453.85,125.13 452.22,122.63 450.49,120.15 448.67,117.69 446.76,115.25 444.75,112.84 442.65,110.46 440.46,108.11 438.18,105.78 435.80,103.50 433.34,101.25 430.78,99.03 428.14,96.86 425.41,94.73 422.59,92.65 419.69,90.61 416.71,88.62 413.64,86.68 410.49,84.80 407.26,82.97 403.95,81.19 400.57,79.48 397.11,77.82 393.58,76.23 389.98,74.70 386.30,73.24 382.56,71.85 378.75,70.52 374.88,69.27 370.94,68.09 366.95,66.98 362.90,65.95 358.79,65.00 354.62,64.12 350.41,63.33 346.14,62.62 341.83,61.99 337.47,61.44 333.07,60.98 328.63,60.61 324.16,60.32 319.65,60.12 315.10,60.02 310.53,60.00 305.93,60.07 301.31,60.24 296.66,60.50 291.99,60.86 287.31,61.31 282.62,61.85 277.91,62.49 273.20,63.23 268.48,64.06 263.76,64.99 259.04,66.02 254.32,67.15 249.61,68.37 244.91,69.69 240.22,71.11 235.54,72.63 230.89,74.25 226.25,75.96 221.64,77.77 217.05,79.68 212.50,81.69 207.98,83.79 203.49,85.99 199.04,88.29 194.63,90.68 190.26,93.17 185.95,95.75 181.68,98.43 177.46,101.20 173.30,104.06 169.20,107.01 165.16,110.05 161.18,113.18 157.27,116.40 153.42,119.70 149.65,123.09 145.95,126.57 142.33,130.12 138.79,133.76 135.33,137.48 131.96,141.28 128.67,145.16 125.47,149.11 122.36,153.14 119.34,157.24 116.42,161.41 113.60,165.64 110.88,169.95 108.26,174.32 105.75,178.76 103.34,183.25 101.04,187.81 98.85,192.42 96.77,197.09 94.80,201.81 92.96,206.58 91.22,211.40 89.61,216.27 88.12,221.18 86.75,226.14 85.50,231.13 84.38,236.16 83.38,241.23 82.51,246.32 81.76,251.45 81.15,256.61 80.66,261.79 80.31,266.99 80.09,272.22 80.00,277.46 80.04,282.72 80.22,287.98 80.53,293.26 80.98,298.55 81.56,303.84 82.28,309.13 83.14,314.42 84.12,319.71 85.25,324.99 86.51,330.26 87.91,335.52 89.44,340.76 91.11,345.99 92.92,351.20 94.86,356.39 96.93,361.55 99.14,366.69 101.48,371.79 103.96,376.86 106.57,381.90 109.31,386.90 112.17,391.86 115.17,396.77 118.30,401.64 121.55,406.46 124.93,411.23 128.44,415.95 132.07,420.61 135.82,425.21 139.69,429.75 143.68,434.23 147.79,438.65 152.01,442.99 156.35,447.27 160.80,451.47 165.36,455.60 170.03,459.65 174.80,463.63 179.68,467.52 184.67,471.33 189.75,475.05 194.93,478.69 200.21,482.24 205.58,485.70 211.04,489.07 216.59,492.34 222.22,495.51 227.94,498.59 233.74,501.57 239.61,504.44 245.57,507.22 251.59,509.89 257.69,512.45 263.85,514.91 270.08,517.26 276.36,519.50 282.71,521.62 289.11,523.64 295.57,525.54 302.07,527.33 308.62,529.01 315.21,530.57 321.85,532.01 328.52,533.34 335.22,534.54 341.96,535.63 348.72,536.60 355.51,537.45 362.32,538.18 369.15,538.78 375.99,539.27 382.84,539.63 389.70,539.88 396.57,540.00 403.43,540.00 410.30,539.88 417.16,539.63 424.01,539.27 430.85,538.78 437.68,538.18 444.49,537.45 451.28,536.60 458.04,535.63 464.78,534.54 471.48,533.34 478.15,532.01 484.79,530.57 491.38,529.01 497.93,527.33 504.43,525.54 510.89,523.64 517.29,521.62 523.64,519.50 529.92,517.26 536.15,514.91 542.31,512.45 548.41,509.89 554.43,507.22 560.39,504.44 566.26,501.57 572.06,498.59 577.78,495.51 583.41,492.34 588.96,489.07 594.42,485.70 599.79,482.24 605.07,478.69 610.25,475.05 615.33,471.33 620.32,467.52 625.20,463.63 629.97,459.65 634.64,455.60 639.20,451.47 643.65,447.27 647.99,442.99 652.21,438.65 656.32,434.23 660.31,429.75 664.18,425.21 667.93,420.61 671.56,415.95 675.07,411.23 678.45,406.46 681.70,401.64 684.83,396.77 687.83,391.86 690.69,386.90 693.43,381.90 696.04,376.86 698.52,371.79 700.86,366.69 703.07,361.55 705.14,356.39 707.08,351.20 708.89,345.99 710.56,340.76 712.09,335.52 713.49,330.26 714.75,324.99 715.88,319.71 716.86,314.42 717.72,309.13 718.44,303.84 719.02,298.55 719.47,293.26 719.78,287.98 719.96,282.72 720.00,277.46 719.91,272.22 719.69,266.99 719.34,261.79 718.85,256.61 718.24,251.45 717.49,246.32 716.62,241.23 715.62,236.16 714.50,231.13 713.25,226.14 711.88,221.18 710.39,216.27 708.78,211.40 707.04,206.58 705.20,201.81 703.23,197.09 701.15,192.42 698.96,187.81 696.66,183.25 694.25,178.76 691.74,174.32 689.12,169.95 686.40,165.64 683.58,161.41 680.66,157.24 677.64,153.14 674.53,149.11 671.33,145.16 668.04,141.28 664.67,137.48 661.21,133.76 657.67,130.12 654.05,126.57 650.35,123.09 646.58,119.70 642.73,116.40 638.82,113.18 634.84,110.05 630.80,107.01 626.70,104.06 622.54,101.20 618.32,98.43 614.05,95.75 609.74,93.17 605.37,90.68 600.96,88.29 596.51,85.99 592.02,83.79 587.50,81.69 582.95,79.68 578.36,77.77 573.75,75.96 569.11,74.25 564.46,72.63 559.78,71.11 555.09,69.69 550.39,68.37 545.68,67.15 540.96,66.02 536.24,64.99 531.52,64.06 526.80,63.23 522.09,62.49 517.38,61.85 512.69,61.31 508.01,60.86 503.34,60.50 498.69,60.24 494.07,60.07 489.47,60.00 484.90,60.02 480.35,60.12 475.84,60.32 471.37,60.61 466.93,60.98 462.53,61.44 458.17,61.99 453.86,62.62 449.59,63.33 445.38,64.12 441.21,65.00 437.10,65.95 433.05,66.98 429.06,68.09 425.12,69.27 421.25,70.52 417.44,71.85 413.70,73.24 410.02,74.70 406.42,76.23 402.89,77.82 399.43,79.48 396.05,81.19 392.74,82.97 389.51,84.80 386.36,86.68 383.29,88.62 380.31,90.61 377.41,92.65 374.59,94.73 371.86,96.86 369.22,99.03 366.66,101.25 364.20,103.50 361.82,105.78 359.54,108.11 357.35,110.46 355.25,112.84 353.24,115.25 351.33,117.69 349.51,120.15 347.78,122.63 346.15,125.13 344.62,127.64 343.18,130.17 341.83,132.71 340.58,135.26 339.43,137.82 338.37,140.38 337.40,142.95 336.53,145.51 335.76,148.08 335.08,150.64 334.49,153.20 334.00,155.75 333.60,158.28 333.29,160.81 333.08,163.32 332.95,165.81 332.91,168.29 332.97,170.74 333.11,173.18 333.34,175.58 333.65,177.96 334.05,180.32 334.53,182.64 335.09,184.93 335.74,187.18 336.46,189.40 337.27,191.58 338.15,193.72 339.10,195.81 340.13,197.87 341.23,199.88 342.40,201.84 343.64,203.76 344.95,205.62 346.32,207.43 347.75,209.19 349.24,210.90 350.80,212.55 352.41,214.15 354.07,215.68 355.79,217.16 357.56,218.57 359.37,219.93 361.24,221.22 363.14,222.45 365.09,223.61 367.08,224.70 369.11,225.73 371.17,226.70 373.26,227.59 375.38,228.42 377.53,229.17 379.71,229.86 381.90,230.47 384.12,231.02 386.36,231.49 388.61,231.89 390.87,232.22 393.14,232.47 395.43,232.66 397.71,232.77 400.00,232.80 "/>
</svg>
