<?xml version="1.0" encoding="UTF-8"?>
<svg xmlns="http://www.w3.org/2000/svg" width="800" height="600">
  <title>R=1-ln(t):1/10,4:</title>
  <rect width="800" height="600" fill="#ffffff"/>
  <g stroke="#d0d0d0" stroke-width="1">
    <line x1="-3.76" y1="540.00" x2="-3.76" y2="60.00"/>
    <line x1="174.85" y1="540.00" x2="174.85" y2="60.00"/>
    <line x1="353.45" y1="540.00" x2="353.45" y2="60.00"/>
    <line x1="532.06" y1="540.00" x2="532.06" y2="60.00"/>
    <line x1="710.67" y1="540.00" x2="710.67" y2="60.00"/>
    <line x1="889.28" y1="540.00" x2="889.28" y2="60.00"/>
    <line x1="80.00" y1="721.12" x2="720.00" y2="721.12"/>
    <line x1="80.00" y1="526.69" x2="720.00" y2="526.69"/>
    <line x1="80.00" y1="332.27" x2="720.00" y2="332.27"/>
    <line x1="80.00" y1="137.84" x2="720.00" y2="137.84"/>
    <line x1="80.00" y1="-56.58" x2="720.00" y2="-56.58"/>
  </g>
  <g stroke="#e8e8e8" stroke-width="0.5">
    <line x1="103.40" y1="540.00" x2="103.40" y2="60.00"/>
    <line x1="139.12" y1="540.00" x2="139.12" y2="60.00"/>
    <line x1="210.57" y1="540.00" x2="210.57" y2="60.00"/>
    <line x1="246.29" y1="540.00" x2="246.29" y2="60.00"/>
    <line x1="282.01" y1="540.00" x2="282.01" y2="60.00"/>
    <line x1="317.73" y1="540.00" x2="317.73" y2="60.00"/>
    <line x1="389.17" y1="540.00" x2="389.17" y2="60.00"/>
    <line x1="424.90" y1="540.00" x2="424.90" y2="60.00"/>
    <line x1="460.62" y1="540.00" x2="460.62" y2="60.00"/>
    <line x1="496.34" y1="540.00" x2="496.34" y2="60.00"/>
    <line x1="567.78" y1="540.00" x2="567.78" y2="60.00"/>
    <line x1="603.50" y1="540.00" x2="603.50" y2="60.00"/>
    <line x1="639.23" y1="540.00" x2="639.23" y2="60.00"/>
    <line x1="674.95" y1="540.00" x2="674.95" y2="60.00"/>
    <line x1="80.00" y1="487.81" x2="720.00" y2="487.81"/>
    <line x1="80.00" y1="448.92" x2="720.00" y2="448.92"/>
    <line x1="80.00" y1="410.04" x2="720.00" y2="410.04"/>
    <line x1="80.00" y1="371.15" x2="720.00" y2="371.15"/>
    <line x1="80.00" y1="293.38" x2="720.00" y2="293.38"/>
    <line x1="80.00" y1="254.50" x2="720.00" y2="254.50"/>
    <line x1="80.00" y1="215.61" x2="720.00" y2="215.61"/>
    <line x1="80.00" y1="176.73" x2="720.00" y2="176.73"/>
    <line x1="80.00" y1="98.96" x2="720.00" y2="98.96"/>
    <line x1="80.00" y1="60.07" x2="720.00" y2="60.07"/>
  </g>
  <g stroke="#808080" stroke-width="2">
    <line x1="353.45" y1="540.00" x2="353.45" y2="60.00"/>
    <line x1="80.00" y1="332.27" x2="720.00" y2="332.27"/>
  </g>
  <polyline fill="none" stroke="#0066cc" stroke-width="2" points="720.00,202.62 704.29,197.73 689.46,193.23 675.41,189.10 662.04,185.32 649.27,181.87 637.05,178.75 625.32,175.92 614.03,173.39 603.15,171.13 592.65,169.13 582.50,167.39 572.68,165.90 563.17,164.64 553.95,163.61 545.01,162.79 536.33,162.19 527.90,161.79 519.72,161.58 511.76,161.56 504.03,161.72 496.52,162.06 489.21,162.56 482.12,163.23 475.22,164.05 468.52,165.02 462.01,166.13 455.69,167.38 449.55,168.76 443.59,170.27 437.81,171.90 432.21,173.64 426.78,175.50 421.52,177.46 416.42,179.52 411.50,181.67 406.74,183.92 402.14,186.24 397.70,188.65 393.42,191.14 389.30,193.69 385.34,196.31 381.53,198.99 377.87,201.72 374.36,204.51 371.00,207.34 367.79,210.22 364.72,213.14 361.80,216.09 359.02,219.06 356.39,222.07 353.89,225.10 351.53,228.14 349.30,231.20 347.21,234.27 345.25,237.34 343.42,240.41 341.72,243.49 340.14,246.55 338.69,249.61 337.36,252.66 336.15,255.69 335.06,258.70 334.09,261.69 333.23,264.65 332.48,267.58 331.84,270.48 331.30,273.35 330.87,276.18 330.55,278.96 330.32,281.71 330.19,284.40 330.15,287.05 330.21,289.65 330.35,292.19 330.59,294.68 330.90,297.10 331.30,299.47 331.78,301.78 332.33,304.02 332.96,306.19 333.66,308.30 334.42,310.33 335.25,312.29 336.15,314.19 337.10,316.00 338.11,317.74 339.17,319.40 340.29,320.99 341.45,322.49 342.65,323.92 343.90,325.26 345.19,326.52 346.52,327.70 347.87,328.79 349.26,329.81 350.68,330.73 352.12,331.57 353.58,332.33 355.06,333.00 356.56,333.59 358.07,334.09 359.59,334.50 361.12,334.84 362.66,335.08 364.19,335.24 365.73,335.32 367.26,335.32 368.79,335.23 370.31,335.06 371.81,334.81 373.30,334.48 374.78,334.07 376.24,333.58 377.68,333.02 379.09,332.37 380.47,331.66 381.83,330.87 383.16,330.00 384.45,329.07 385.71,328.07 386.94,327.00 388.12,325.86 389.26,324.66 390.36,323.40 391.41,322.08 392.41,320.70 393.37,319.26 394.27,317.77 395.13,316.22 395.92,314.63 396.67,312.98 397.35,311.29 397.98,309.56 398.55,307.78 399.05,305.96 399.49,304.11 399.87,302.22 400.19,300.30 400.44,298.36 400.62,296.38 400.73,294.38 400.78,292.35 400.76,290.31 400.66,288.25 400.50,286.17 400.27,284.09 399.96,281.99 399.59,279.89 399.14,277.78 398.62,275.67 398.02,273.56 397.36,271.46 396.62,269.36 395.81,267.27 394.93,265.20 393.97,263.13 392.95,261.09 391.85,259.06 390.68,257.06 389.44,255.08 388.13,253.13 386.76,251.21 385.31,249.32 383.80,247.47 382.22,245.65 380.57,243.87 378.87,242.14 377.09,240.45 375.26,238.80 373.36,237.21 371.40,235.67 369.39,234.18 367.32,232.74 365.19,231.37 363.00,230.05 360.77,228.80 358.48,227.61 356.15,226.48 353.76,225.43 351.33,224.44 348.86,223.52 346.34,222.68 343.79,221.91 341.19,221.22 338.56,220.61 335.90,220.07 333.20,219.62 330.47,219.25 327.72,218.96 324.94,218.75 322.13,218.63 319.31,218.60 316.46,218.65 313.60,218.79 310.73,219.03 307.84,219.35 304.95,219.76 302.04,220.26 299.14,220.86 296.23,221.55 293.32,222.32 290.41,223.20 287.51,224.16 284.62,225.22 281.74,226.37 278.87,227.62 276.02,228.96 273.19,230.39 270.37,231.91 267.58,233.52 264.82,235.23 262.08,237.03 259.37,238.92 256.70,240.90 254.06,242.97 251.46,245.13 248.90,247.37 246.39,249.70 243.92,252.12 241.49,254.62 239.12,257.21 236.80,259.87 234.53,262.62 232.32,265.45 230.17,268.35 228.08,271.34 226.06,274.39 224.10,277.52 222.21,280.72 220.39,283.99 218.63,287.33 216.96,290.73 215.36,294.19 213.83,297.72 212.39,301.31 211.02,304.95 209.74,308.65 208.54,312.40 207.43,316.20 206.41,320.05 205.47,323.94 204.63,327.88 203.87,331.86 203.21,335.87 202.65,339.92 202.17,344.00 201.80,348.11 201.52,352.25 201.34,356.41 201.26,360.60 201.28,364.80 201.40,369.01 201.62,373.24 201.94,377.48 202.37,381.73 202.90,385.98 203.53,390.22 204.26,394.47 205.10,398.71 206.05,402.94 207.09,407.17 208.24,411.37 209.50,415.56 210.86,419.73 212.32,423.87 213.89,427.99 215.55,432.07 217.32,436.13 219.20,440.14 221.17,444.12 223.25,448.06 225.42,451.95 227.69,455.79 230.06,459.58 232.53,463.32 235.10,467.00 237.75,470.62 240.51,474.17 243.35,477.67 246.29,481.09 249.31,484.44 252.42,487.72 255.62,490.91 258.91,494.04 262.28,497.07 265.72,500.03 269.25,502.89 272.86,505.67 276.54,508.35 280.29,510.94 284.12,513.44 288.01,515.83 291.97,518.12 296.00,520.31 300.09,522.40 304.24,524.37 308.44,526.24 312.70,528.00 317.02,529.64 321.38,531.17 325.79,532.58 330.25,533.87 334.74,535.04 339.28,536.10 343.85,537.02 348.46,537.83 353.10,538.51 357.76,539.06 362.45,539.49 367.16,539.79 371.89,539.96 376.63,540.00 381.39,539.91 386.16,539.69 390.93,539.33 395.71,538.85 400.49,538.23 405.26,537.48 410.03,536.59 414.79,535.58 419.53,534.42 424.27,533.14 428.98,531.72 433.67,530.17 438.33,528.49 442.97,526.68 447.57,524.73 452.14,522.66 456.68,520.45 461.17,518.12 465.62,515.65 470.02,513.06 474.37,510.35 478.66,507.50 482.90,504.54 487.08,501.45 491.20,498.24 495.25,494.91 499.24,491.46 503.15,487.90 506.99,484.22 510.75,480.43 514.44,476.53 518.04,472.52 521.55,468.41 524.98,464.19 528.31,459.87 531.56,455.44 534.71,450.92 537.76,446.31 540.71,441.60 543.55,436.81 546.29,431.92 548.93,426.95 551.45,421.90 553.87,416.78 556.17,411.57 558.35,406.30 560.42,400.95 562.37,395.54 564.20,390.06 565.91,384.53 567.49,378.94 568.94,373.29 570.27,367.60 571.47,361.85 572.54,356.07 573.48,350.25 574.29,344.39 574.96,338.49 575.50,332.57 575.90,326.63 576.17,320.66 576.31,314.67 576.30,308.67 576.16,302.66 575.88,296.65 575.46,290.63 574.90,284.61 574.20,278.60 573.37,272.60 572.39,266.61 571.28,260.64 570.02,254.68 568.63,248.75 567.10,242.85 565.43,236.98 563.63,231.15 561.69,225.36 559.61,219.61 557.40,213.91 555.05,208.25 552.57,202.66 549.96,197.12 547.22,191.64 544.35,186.23 541.35,180.89 538.22,175.63 534.97,170.44 531.59,165.33 528.09,160.30 524.47,155.36 520.74,150.51 516.88,145.76 512.91,141.10 508.83,136.55 504.64,132.10 500.35,127.75 495.94,123.52 491.43,119.40 486.83,115.39 482.12,111.50 477.32,107.74 472.42,104.10 467.44,100.59 462.37,97.21 457.21,93.96 451.97,90.84 446.66,87.87 441.27,85.03 435.80,82.34 430.27,79.79 424.67,77.38 419.01,75.13 413.29,73.02 407.52,71.07 401.69,69.27 395.81,67.62 389.89,66.13 383.93,64.80 377.93,63.63 371.89,62.62 365.82,61.78 359.73,61.09 353.61,60.57 347.47,60.21 341.32,60.02 335.15,60.00 328.98,60.14 322.80,60.45 316.62,60.93 310.45,61.57 304.28,62.38 298.12,63.36 291.98,64.51 285.86,65.83 279.75,67.31 273.68,68.96 267.63,70.77 261.62,72.75 255.65,74.90 249.72,77.20 243.83,79.68 238.00,82.31 232.22,85.10 226.49,88.06 220.82,91.17 215.22,94.44 209.69,97.86 204.23,101.43 198.84,105.16 193.54,109.04 188.31,113.06 183.17,117.23 178.12,121.55 173.17,126.00 168.31,130.60 163.54,135.33 158.88,140.19 154.33,145.18 149.89,150.31 145.55,155.55 141.33,160.93 137.23,166.42 133.25,172.02 129.40,177.74 125.67,183.57 122.06,189.51 118.59,195.55 115.26,201.69 112.06,207.93 108.99,214.26 106.07,220.68 103.29,227.18 100.66,233.76 98.18,240.43 95.84,247.16 93.65,253.97 91.62,260.84 89.74,267.78 88.02,274.77 86.45,281.82 85.05,288.91 83.80,296.05 82.71,303.23 81.79,310.45 81.03,317.69 80.43,324.97 80.00,332.27 "/>
</svg>
