<?xml version="1.0" encoding="UTF-8"?>
<svg xmlns="http://www.w3.org/2000/svg" width="800" height="600">
  <title>R=1-sin(3/2*t)</title>
  <rect width="800" height="600" fill="#ffffff"/>
  <g stroke="#d0d0d0" stroke-width="1">
    <line x1="80.00" y1="540.00" x2="80.00" y2="60.00"/>
    <line x1="293.33" y1="540.00" x2="293.33" y2="60.00"/>
    <line x1="506.67" y1="540.00" x2="506.67" y2="60.00"/>
    <line x1="720.00" y1="540.00" x2="720.00" y2="60.00"/>
    <line x1="80.00" y1="545.49" x2="720.00" y2="545.49"/>
    <line x1="80.00" y1="300.00" x2="720.00" y2="300.00"/>
    <line x1="80.00" y1="54.51" x2="720.00" y2="54.51"/>
  </g>
  <g stroke="#e8e8e8" stroke-width="0.5">
    <line x1="122.67" y1="540.00" x2="122.67" y2="60.00"/>
    <line x1="165.33" y1="540.00" x2="165.33" y2="60.00"/>
    <line x1="208.00" y1="540.00" x2="208.00" y2="60.00"/>
    <line x1="250.67" y1="540.00" x2="250.67" y2="60.00"/>
    <line x1="336.00" y1="540.00" x2="336.00" y2="60.00"/>
    <line x1="378.67" y1="540.00" x2="378.67" y2="60.00"/>
    <line x1="421.33" y1="540.00" x2="421.33" y2="60.00"/>
    <line x1="464.00" y1="540.00" x2="464.00" y2="60.00"/>
    <line x1="549.33" y1="540.00" x2="549.33" y2="60.00"/>
    <line x1="592.00" y1="540.00" x2="592.00" y2="60.00"/>
    <line x1="634.67" y1="540.00" x2="634.67" y2="60.00"/>
    <line x1="677.33" y1="540.00" x2="677.33" y2="60.00"/>
    <line x1="80.00" y1="496.39" x2="720.00" y2="496.39"/>
    <line x1="80.00" y1="447.29" x2="720.00" y2="447.29"/>
    <line x1="80.00" y1="398.19" x2="720.00" y2="398.19"/>
    <line x1="80.00" y1="349.10" x2="720.00" y2="349.10"/>
    <line x1="80.00" y1="250.90" x2="720.00" y2="250.90"/>
    <line x1="80.00" y1="201.81" x2="720.00" y2="201.81"/>
    <line x1="80.00" y1="152.71" x2="720.00" y2="152.71"/>
    <line x1="80.00" y1="103.61" x2="720.00" y2="103.61"/>
  </g>
  <g stroke="#808080" stroke-width="2">
    <line x1="506.67" y1="540.00" x2="506.67" y2="60.00"/>
    <line x1="80.00" y1="300.00" x2="720.00" y2="300.00"/>
  </g>
  <polyline fill="none" stroke="#0066cc" stroke-width="2" points="715.96,296.97 711.89,294.06 707.80,291.27 703.68,288.59 699.54,286.04 695.39,283.60 691.22,281.27 687.04,279.06 682.85,276.97 678.66,275.00 674.47,273.14 670.28,271.39 666.09,269.76 661.92,268.24 657.76,266.83 653.61,265.54 649.48,264.35 645.37,263.27 641.29,262.29 637.23,261.42 633.20,260.66 629.21,259.99 625.25,259.42 621.33,258.95 617.45,258.58 613.61,258.30 609.82,258.11 606.07,258.00 602.38,257.99 598.74,258.05 595.15,258.20 591.62,258.42 588.15,258.72 584.74,259.10 581.39,259.54 578.10,260.05 574.88,260.62 571.73,261.26 568.65,261.95 565.64,262.69 562.70,263.49 559.83,264.34 557.04,265.23 554.32,266.16 551.68,267.13 549.11,268.14 546.62,269.17 544.21,270.24 541.88,271.33 539.63,272.44 537.46,273.57 535.36,274.72 533.35,275.88 531.41,277.04 529.56,278.21 527.78,279.38 526.09,280.55 524.47,281.71 522.93,282.86 521.47,284.01 520.08,285.13 518.78,286.24 517.54,287.33 516.38,288.39 515.30,289.42 514.29,290.42 513.35,291.39 512.48,292.32 511.67,293.21 510.94,294.06 510.27,294.86 509.66,295.61 509.12,296.31 508.64,296.96 508.21,297.55 507.84,298.09 507.53,298.56 507.27,298.97 507.06,299.31 506.89,299.59 506.78,299.80 506.70,299.93 506.67,300.00 506.67,299.98 506.72,299.89 506.79,299.73 506.90,299.48 507.04,299.15 507.20,298.74 507.38,298.25 507.59,297.67 507.81,297.01 508.05,296.26 508.30,295.43 508.56,294.50 508.82,293.49 509.09,292.40 509.36,291.21 509.63,289.94 509.89,288.57 510.15,287.12 510.39,285.58 510.62,283.96 510.84,282.24 511.03,280.44 511.20,278.56 511.35,276.59 511.47,274.53 511.56,272.39 511.61,270.17 511.63,267.87 511.61,265.49 511.55,263.03 511.44,260.50 511.29,257.89 511.09,255.20 510.84,252.45 510.53,249.62 510.16,246.73 509.74,243.78 509.26,240.76 508.71,237.68 508.10,234.54 507.42,231.34 506.67,228.10 505.85,224.80 504.95,221.46 503.98,218.07 502.93,214.64 501.81,211.17 500.60,207.66 499.32,204.12 497.95,200.56 496.50,196.96 494.96,193.34 493.33,189.71 491.62,186.05 489.82,182.39 487.93,178.71 485.95,175.03 483.88,171.35 481.72,167.66 479.47,163.99 477.12,160.32 474.68,156.66 472.15,153.01 469.53,149.39 466.82,145.79 464.01,142.22 461.11,138.67 458.13,135.17 455.05,131.69 451.87,128.26 448.61,124.88 445.26,121.54 441.83,118.26 438.30,115.03 434.69,111.86 431.00,108.76 427.22,105.72 423.36,102.75 419.41,99.85 415.39,97.03 411.30,94.29 407.12,91.64 402.87,89.07 398.55,86.59 394.16,84.20 389.70,81.91 385.18,79.71 380.59,77.62 375.94,75.64 371.24,73.76 366.47,71.99 361.66,70.33 356.79,68.79 351.87,67.36 346.91,66.05 341.91,64.87 336.87,63.81 331.79,62.87 326.67,62.07 321.53,61.39 316.36,60.84 311.16,60.43 305.95,60.15 300.71,60.01 295.46,60.00 290.21,60.13 284.94,60.40 279.67,60.81 274.40,61.36 269.13,62.06 263.87,62.89 258.62,63.87 253.38,64.99 248.16,66.25 242.96,67.65 237.78,69.20 232.63,70.89 227.51,72.73 222.43,74.70 217.39,76.82 212.38,79.08 207.43,81.47 202.52,84.01 197.66,86.68 192.86,89.50 188.12,92.44 183.44,95.52 178.83,98.74 174.29,102.08 169.82,105.56 165.43,109.16 161.11,112.89 156.88,116.74 152.74,120.71 148.68,124.80 144.71,129.01 140.84,133.33 137.07,137.76 133.39,142.30 129.82,146.95 126.35,151.70 123.00,156.55 119.75,161.50 116.62,166.54 113.60,171.67 110.70,176.89 107.91,182.19 105.26,187.57 102.72,193.03 100.31,198.56 98.03,204.16 95.88,209.83 93.86,215.56 91.97,221.34 90.21,227.18 88.60,233.07 87.11,239.01 85.77,244.99 84.56,251.00 83.50,257.05 82.57,263.13 81.79,269.24 81.14,275.37 80.64,281.51 80.29,287.67 80.07,293.83 80.00,300.00 80.07,306.17 80.29,312.33 80.64,318.49 81.14,324.63 81.79,330.76 82.57,336.87 83.50,342.95 84.56,349.00 85.77,355.01 87.11,360.99 88.60,366.93 90.21,372.82 91.97,378.66 93.86,384.44 95.88,390.17 98.03,395.84 100.31,401.44 102.72,406.97 105.26,412.43 107.91,417.81 110.70,423.11 113.60,428.33 116.62,433.46 119.75,438.50 123.00,443.45 126.35,448.30 129.82,453.05 133.39,457.70 137.07,462.24 140.84,466.67 144.71,470.99 148.68,475.20 152.74,479.29 156.88,483.26 161.11,487.11 165.43,490.84 169.82,494.44 174.29,497.92 178.83,501.26 183.44,504.48 188.12,507.56 192.86,510.50 197.66,513.32 202.52,515.99 207.43,518.53 212.38,520.92 217.39,523.18 222.43,525.30 227.51,527.27 232.63,529.11 237.78,530.80 242.96,532.35 248.16,533.75 253.38,535.01 258.62,536.13 263.87,537.11 269.13,537.94 274.40,538.64 279.67,539.19 284.94,539.60 290.21,539.87 295.46,540.00 300.71,539.99 305.95,539.85 311.16,539.57 316.36,539.16 321.53,538.61 326.67,537.93 331.79,537.13 336.87,536.19 341.91,535.13 346.91,533.95 351.87,532.64 356.79,531.21 361.66,529.67 366.47,528.01 371.24,526.24 375.94,524.36 380.59,522.38 385.18,520.29 389.70,518.09 394.16,515.80 398.55,513.41 402.87,510.93 407.12,508.36 411.30,505.71 415.39,502.97 419.41,500.15 423.36,497.25 427.22,494.28 431.00,491.24 434.69,488.14 438.30,484.97 441.83,481.74 445.26,478.46 448.61,475.12 451.87,471.74 455.05,468.31 458.13,464.83 461.11,461.33 464.01,457.78 466.82,454.21 469.53,450.61 472.15,446.99 474.68,443.34 477.12,439.68 479.47,436.01 481.72,432.34 483.88,428.65 485.95,424.97 487.93,421.29 489.82,417.61 491.62,413.95 493.33,410.29 494.96,406.66 496.50,403.04 497.95,399.44 499.32,395.88 500.60,392.34 501.81,388.83 502.93,385.36 503.98,381.93 504.95,378.54 505.85,375.20 506.67,371.90 507.42,368.66 508.10,365.46 508.71,362.32 509.26,359.24 509.74,356.22 510.16,353.27 510.53,350.38 510.84,347.55 511.09,344.80 511.29,342.11 511.44,339.50 511.55,336.97 511.61,334.51 511.63,332.13 511.61,329.83 511.56,327.61 511.47,325.47 511.35,323.41 511.20,321.44 511.03,319.56 510.84,317.76 510.62,316.04 510.39,314.42 510.15,312.88 509.89,311.43 509.63,310.06 509.36,308.79 509.09,307.60 508.82,306.51 508.56,305.50 508.30,304.57 508.05,303.74 507.81,302.99 507.59,302.33 507.38,301.75 507.20,301.26 507.04,300.85 506.90,300.52 506.79,300.27 506.72,300.11 506.67,300.02 506.67,300.00 506.70,300.07 506.78,300.20 506.89,300.41 507.06,300.69 507.27,301.03 507.53,301.44 507.84,301.91 508.21,302.45 508.64,303.04 509.12,303.69 509.66,304.39 510.27,305.14 510.94,305.94 511.67,306.79 512.48,307.68 513.35,308.61 514.29,309.58 515.30,310.58 516.38,311.61 517.54,312.67 518.78,313.76 520.08,314.87 521.47,315.99 522.93,317.14 524.47,318.29 526.09,319.45 527.78,320.62 529.56,321.79 531.41,322.96 533.35,324.12 535.36,325.28 537.46,326.43 539.63,327.56 541.88,328.67 544.21,329.76 546.62,330.83 549.11,331.86 551.68,332.87 554.32,333.84 557.04,334.77 559.83,335.66 562.70,336.51 565.64,337.31 568.65,338.05 571.73,338.74 574.88,339.38 578.10,339.95 581.39,340.46 584.74,340.90 588.15,341.28 591.62,341.58 595.15,341.80 598.74,341.95 602.38,342.01 606.07,342.00 609.82,341.89 613.61,341.70 617.45,341.42 621.33,341.05 625.25,340.58 629.21,340.01 633.20,339.34 637.23,338.58 641.29,337.71 645.37,336.73 649.48,335.65 653.61,334.46 657.76,333.17 661.92,331.76 666.09,330.24 670.28,328.61 674.47,326.86 678.66,325.00 682.85,323.03 687.04,320.94 691.22,318.73 695.39,316.40 699.54,313.96 703.68,311.41 707.80,308.73 711.89,305.94 715.96,303.03 720.00,300.00 "/>
</svg>
