<?xml version="1.0" encoding="UTF-8"?>
<svg xmlns="http://www.w3.org/2000/svg" width="800" height="600">
  <title>R=sin(t)*cos(2*t)</title>
  <rect width="800" height="600" fill="#ffffff"/>
  <g stroke="#d0d0d0" stroke-width="1">
    <line x1="-880.10" y1="540.00" x2="-880.10" y2="60.00"/>
    <line x1="400.00" y1="540.00" x2="400.00" y2="60.00"/>
    <line x1="1680.10" y1="540.00" x2="1680.10" y2="60.00"/>
    <line x1="80.00" y1="540.00" x2="720.00" y2="540.00"/>
    <line x1="80.00" y1="113.32" x2="720.00" y2="113.32"/>
    <line x1="80.00" y1="-313.35" x2="720.00" y2="-313.35"/>
  </g>
  <g stroke="#e8e8e8" stroke-width="0.5">
    <line x1="143.98" y1="540.00" x2="143.98" y2="60.00"/>
    <line x1="656.02" y1="540.00" x2="656.02" y2="60.00"/>
    <line x1="80.00" y1="454.66" x2="720.00" y2="454.66"/>
    <line x1="80.00" y1="369.33" x2="720.00" y2="369.33"/>
    <line x1="80.00" y1="283.99" x2="720.00" y2="283.99"/>
    <line x1="80.00" y1="198.66" x2="720.00" y2="198.66"/>
  </g>
  <g stroke="#808080" stroke-width="2">
    <line x1="400.00" y1="540.00" x2="400.00" y2="60.00"/>
    <line x1="80.00" y1="113.32" x2="720.00" y2="113.32"/>
  </g>
  <polyline fill="none" stroke="#0066cc" stroke-width="2" points="416.08,113.26 432.12,113.05 448.08,112.72 463.91,112.25 479.59,111.65 495.06,110.93 510.29,110.08 525.25,109.11 539.89,108.03 554.17,106.83 568.07,105.53 581.54,104.13 594.55,102.63 607.07,101.05 619.07,99.39 630.52,97.66 641.38,95.87 651.63,94.02 661.25,92.13 670.21,90.20 678.48,88.24 686.05,86.27 692.90,84.29 699.01,82.32 704.36,80.36 708.95,78.43 712.75,76.53 715.76,74.68 717.98,72.89 719.39,71.17 720.00,69.54 719.80,67.99 718.79,66.55 716.97,65.22 714.36,64.02 710.95,62.95 706.75,62.03 701.78,61.27 696.05,60.68 689.57,60.26 682.36,60.03 674.43,60.00 665.81,60.17 656.52,60.56 646.58,61.16 636.02,62.00 624.87,63.07 613.14,64.39 600.88,65.95 588.11,67.77 574.86,69.85 561.17,72.19 547.08,74.80 532.61,77.68 517.81,80.84 502.71,84.27 487.35,87.98 471.77,91.96 456.01,96.23 440.11,100.77 424.11,105.59 408.04,110.68 391.96,116.04 375.89,121.67 359.89,127.56 343.99,133.71 328.23,140.12 312.65,146.77 297.29,153.66 282.19,160.79 267.39,168.14 252.92,175.71 238.83,183.49 225.14,191.46 211.89,199.62 199.12,207.96 186.86,216.46 175.13,225.11 163.98,233.91 153.42,242.83 143.48,251.87 134.19,261.01 125.57,270.24 117.64,279.53 110.43,288.89 103.95,298.28 98.22,307.71 93.25,317.15 89.05,326.58 85.64,335.99 83.03,345.37 81.21,354.70 80.20,363.95 80.00,373.13 80.61,382.21 82.02,391.17 84.24,400.00 87.25,408.68 91.05,417.20 95.64,425.55 100.99,433.70 107.10,441.65 113.95,449.37 121.52,456.86 129.79,464.10 138.75,471.08 148.37,477.78 158.62,484.19 169.48,490.30 180.93,496.11 192.93,501.59 205.45,506.74 218.46,511.55 231.93,516.00 245.83,520.10 260.11,523.84 274.75,527.19 289.71,530.17 304.94,532.76 320.41,534.97 336.09,536.77 351.92,538.18 367.88,539.19 383.92,539.80 400.00,540.00 416.08,539.80 432.12,539.19 448.08,538.18 463.91,536.77 479.59,534.97 495.06,532.76 510.29,530.17 525.25,527.19 539.89,523.84 554.17,520.10 568.07,516.00 581.54,511.55 594.55,506.74 607.07,501.59 619.07,496.11 630.52,490.30 641.38,484.19 651.63,477.78 661.25,471.08 670.21,464.10 678.48,456.86 686.05,449.37 692.90,441.65 699.01,433.70 704.36,425.55 708.95,417.20 712.75,408.68 715.76,400.00 717.98,391.17 719.39,382.21 720.00,373.13 719.80,363.95 718.79,354.70 716.97,345.37 714.36,335.99 710.95,326.58 706.75,317.15 701.78,307.71 696.05,298.28 689.57,288.89 682.36,279.53 674.43,270.24 665.81,261.01 656.52,251.87 646.58,242.83 636.02,233.91 624.87,225.11 613.14,216.46 600.88,207.96 588.11,199.62 574.86,191.46 561.17,183.49 547.08,175.71 532.61,168.14 517.81,160.79 502.71,153.66 487.35,146.77 471.77,140.12 456.01,133.71 440.11,127.56 424.11,121.67 408.04,116.04 391.96,110.68 375.89,105.59 359.89,100.77 343.99,96.23 328.23,91.96 312.65,87.98 297.29,84.27 282.19,80.84 267.39,77.68 252.92,74.80 238.83,72.19 225.14,69.85 211.89,67.77 199.12,65.95 186.86,64.39 175.13,63.07 163.98,62.00 153.42,61.16 143.48,60.56 134.19,60.17 125.57,60.00 117.64,60.03 110.43,60.26 103.95,60.68 98.22,61.27 93.25,62.03 89.05,62.95 85.64,64.02 83.03,65.22 81.21,66.55 80.20,67.99 80.00,69.54 80.61,71.17 82.02,72.89 84.24,74.68 87.25,76.53 91.05,78.43 95.64,80.36 100.99,82.32 107.10,84.29 113.95,86.27 121.52,88.24 129.79,90.20 138.75,92.13 148.37,94.02 158.62,95.87 169.48,97.66 180.93,99.39 192.93,101.05 205.45,102.63 218.46,104.13 231.93,105.53 245.83,106.83 260.11,108.03 274.75,109.11 289.71,110.08 304.94,110.93 320.41,111.65 336.09,112.25 351.92,112.72 367.88,113.05 383.92,113.26 400.00,113.32 416.08,113.26 432.12,113.05 448.08,112.72 463.91,112.25 479.59,111.65 495.06,110.93 510.29,110.08 525.25,109.11 539.89,108.03 554.17,106.83 568.07,105.53 581.54,104.13 594.55,102.63 607.07,101.05 619.07,99.39 630.52,97.66 641.38,95.87 651.63,94.02 661.25,92.13 670.21,90.20 678.48,88.24 686.05,86.27 692.90,84.29 699.01,82.32 704.36,80.36 708.95,78.43 712.75,76.53 715.76,74.68 717.98,72.89 719.39,71.17 720.00,69.54 719.80,67.99 718.79,66.55 716.97,65.22 714.36,64.02 710.95,62.95 706.75,62.03 701.78,61.27 696.05,60.68 689.57,60.26 682.36,60.03 674.43,60.00 665.81,60.17 656.52,60.56 646.58,61.16 636.02,62.00 624.87,63.07 613.14,64.39 600.88,65.95 588.11,67.77 574.86,69.85 561.17,72.19 547.08,74.80 532.61,77.68 517.81,80.84 502.71,84.27 487.35,87.98 471.77,91.96 456.01,96.23 440.11,100.77 424.11,105.59 408.04,110.68 391.96,116.04 375.89,121.67 359.89,127.56 343.99,133.71 328.23,140.12 312.65,146.77 297.29,153.66 282.19,160.79 267.39,168.14 252.92,175.71 238.83,183.49 225.14,191.46 211.89,199.62 199.12,207.96 186.86,216.46 175.13,225.11 163.98,233.91 153.42,242.83 143.48,251.87 134.19,261.01 125.57,270.24 117.64,279.53 110.43,288.89 103.95,298.28 98.22,307.71 93.25,317.15 89.05,326.58 85.64,335.99 83.03,345.37 81.21,354.70 80.20,363.95 80.00,373.13 80.61,382.21 82.02,391.17 84.24,400.00 87.25,408.68 91.05,417.20 95.64,425.55 100.99,433.70 107.10,441.65 113.95,449.37 121.52,456.86 129.79,464.10 138.75,471.08 148.37,477.78 158.62,484.19 169.48,490.30 180.93,496.11 192.93,501.59 205.45,506.74 218.46,511.55 231.93,516.00 245.83,520.10 260.11,523.84 274.75,527.19 289.71,530.17 304.94,532.76 320.41,534.97 336.09,536.77 351.92,538.18 367.88,539.19 383.92,539.80 400.00,540.00 416.08,539.80 432.12,539.19 448.08,538.18 463.91,536.77 479.59,534.97 495.06,532.76 510.29,530.17 525.25,527.19 539.89,523.84 554.17,520.10 568.07,516.00 581.54,511.55 594.55,506.74 607.07,501.59 619.07,496.11 630.52,490.30 641.38,484.19 651.63,477.78 661.25,471.08 670.21,464.10 678.48,456.86 686.05,449.37 692.90,441.65 699.01,433.70 704.36,425.55 708.95,417.20 712.75,408.68 715.76,400.00 717.98,391.17 719.39,382.21 720.00,373.13 719.80,363.95 718.79,354.70 716.97,345.37 714.36,335.99 710.95,326.58 706.75,317.15 701.78,307.71 696.05,298.28 689.57,288.89 682.36,279.53 674.43,270.24 665.81,261.01 656.52,251.87 646.58,242.83 636.02,233.91 624.87,225.11 613.14,216.46 600.88,207.96 588.11,199.62 574.86,191.46 561.17,183.49 547.08,175.71 532.61,168.14 517.81,160.79 502.71,153.66 487.35,146.77 471.77,140.12 456.01,133.71 440.11,127.56 424.11,121.67 408.04,116.04 391.96,110.68 375.89,105.59 359.89,100.77 343.99,96.23 328.23,91.96 312.65,87.98 297.29,84.27 282.19,80.84 267.39,77.68 252.92,74.80 238.83,72.19 225.14,69.85 211.89,67.77 199.12,65.95 186.86,64.39 175.13,63.07 163.98,62.00 153.42,61.16 143.48,60.56 134.19,60.17 125.57,60.00 117.64,60.03 110.43,60.26 103.95,60.68 98.22,61.27 93.25,62.03 89.05,62.95 85.64,64.02 83.03,65.22 81.21,66.55 80.20,67.99 80.00,69.54 80.61,71.17 82.02,72.89 84.24,74.68 87.25,76.53 91.05,78.43 95.64,80.36 100.99,82.32 107.10,84.29 113.95,86.27 121.52,88.24 129.79,90.20 138.75,92.13 148.37,94.02 158.62,95.87 169.48,97.66 180.93,99.39 192.93,101.05 205.45,102.63 218.46,104.13 231.93,105.53 245.83,106.83 260.11,108.03 274.75,109.11 289.71,110.08 304.94,110.93 320.41,111.65 336.09,112.25 351.92,112.72 367.88,113.05 383.92,113.26 400.00,113.32 "/>
</svg>
