<?xml version="1.0" encoding="UTF-8"?>
<svg xmlns="http://www.w3.org/2000/svg" width="800" height="600">
  <title>R=sin(2*t)-sin(t)</title>
  <rect width="800" height="600" fill="#ffffff"/>
  <g stroke="#d0d0d0" stroke-width="1">
    <line x1="-112.08" y1="540.00" x2="-112.08" y2="60.00"/>
    <line x1="143.96" y1="540.00" x2="143.96" y2="60.00"/>
    <line x1="400.00" y1="540.00" x2="400.00" y2="60.00"/>
    <line x1="656.04" y1="540.00" x2="656.04" y2="60.00"/>
    <line x1="912.08" y1="540.00" x2="912.08" y2="60.00"/>
    <line x1="80.00" y1="673.80" x2="720.00" y2="673.80"/>
    <line x1="80.00" y1="397.29" x2="720.00" y2="397.29"/>
    <line x1="80.00" y1="120.78" x2="720.00" y2="120.78"/>
    <line x1="80.00" y1="-155.72" x2="720.00" y2="-155.72"/>
  </g>
  <g stroke="#e8e8e8" stroke-width="0.5">
    <line x1="92.75" y1="540.00" x2="92.75" y2="60.00"/>
    <line x1="195.17" y1="540.00" x2="195.17" y2="60.00"/>
    <line x1="246.38" y1="540.00" x2="246.38" y2="60.00"/>
    <line x1="297.58" y1="540.00" x2="297.58" y2="60.00"/>
    <line x1="348.79" y1="540.00" x2="348.79" y2="60.00"/>
    <line x1="451.21" y1="540.00" x2="451.21" y2="60.00"/>
    <line x1="502.42" y1="540.00" x2="502.42" y2="60.00"/>
    <line x1="553.62" y1="540.00" x2="553.62" y2="60.00"/>
    <line x1="604.83" y1="540.00" x2="604.83" y2="60.00"/>
    <line x1="707.25" y1="540.00" x2="707.25" y2="60.00"/>
    <line x1="80.00" y1="507.89" x2="720.00" y2="507.89"/>
    <line x1="80.00" y1="452.59" x2="720.00" y2="452.59"/>
    <line x1="80.00" y1="341.99" x2="720.00" y2="341.99"/>
    <line x1="80.00" y1="286.69" x2="720.00" y2="286.69"/>
    <line x1="80.00" y1="231.39" x2="720.00" y2="231.39"/>
    <line x1="80.00" y1="176.08" x2="720.00" y2="176.08"/>
    <line x1="80.00" y1="65.48" x2="720.00" y2="65.48"/>
  </g>
  <g stroke="#808080" stroke-width="2">
    <line x1="400.00" y1="540.00" x2="400.00" y2="60.00"/>
    <line x1="80.00" y1="120.78" x2="720.00" y2="120.78"/>
  </g>
  <polyline fill="none" stroke="#0066cc" stroke-width="2" points="403.22,120.74 406.43,120.61 409.63,120.39 412.82,120.09 415.98,119.70 419.12,119.22 422.23,118.67 425.31,118.03 428.34,117.31 431.34,116.51 434.28,115.63 437.16,114.68 439.99,113.66 442.76,112.57 445.46,111.42 448.09,110.20 450.64,108.92 453.11,107.58 455.50,106.19 457.80,104.76 460.01,103.27 462.13,101.75 464.15,100.18 466.07,98.59 467.88,96.96 469.59,95.31 471.20,93.65 472.69,91.96 474.06,90.27 475.33,88.57 476.47,86.88 477.50,85.19 478.41,83.51 479.20,81.84 479.87,80.20 480.41,78.58 480.83,76.99 481.13,75.45 481.30,73.94 481.35,72.48 481.28,71.08 481.08,69.74 480.77,68.46 480.33,67.25 479.77,66.11 479.10,65.06 478.30,64.09 477.40,63.21 476.38,62.42 475.25,61.74 474.01,61.16 472.67,60.70 471.22,60.34 469.68,60.11 468.04,60.00 466.30,60.02 464.48,60.17 462.57,60.45 460.58,60.88 458.51,61.45 456.37,62.16 454.16,63.03 451.88,64.04 449.55,65.22 447.16,66.55 444.72,68.04 442.23,69.70 439.71,71.52 437.15,73.51 434.56,75.66 431.95,77.99 429.32,80.49 426.68,83.15 424.03,86.00 421.38,89.01 418.73,92.19 416.09,95.55 413.47,99.08 410.87,102.79 408.30,106.66 405.76,110.70 403.26,114.91 400.81,119.29 398.40,123.83 396.06,128.53 393.77,133.39 391.55,138.41 389.41,143.59 387.34,148.91 385.36,154.39 383.46,160.00 381.67,165.76 379.97,171.65 378.37,177.68 376.89,183.83 375.51,190.10 374.26,196.49 373.13,202.99 372.13,209.60 371.26,216.31 370.52,223.12 369.92,230.01 369.47,236.99 369.16,244.04 369.00,251.17 368.99,258.35 369.14,265.60 369.44,272.89 369.91,280.22 370.53,287.59 371.32,294.99 372.28,302.41 373.40,309.85 374.69,317.29 376.14,324.72 377.77,332.15 379.56,339.56 381.53,346.95 383.67,354.30 385.97,361.61 388.44,368.88 391.08,376.08 393.89,383.23 396.86,390.30 400.00,397.29 403.30,404.19 406.76,411.00 410.37,417.71 414.14,424.31 418.06,430.79 422.13,437.14 426.34,443.36 430.70,449.45 435.19,455.38 439.82,461.17 444.57,466.79 449.45,472.25 454.45,477.54 459.57,482.64 464.79,487.57 470.12,492.30 475.54,496.83 481.06,501.17 486.66,505.30 492.35,509.21 498.11,512.91 503.94,516.39 509.82,519.64 515.77,522.67 521.75,525.46 527.78,528.01 533.85,530.33 539.93,532.40 546.04,534.23 552.16,535.81 558.28,537.14 564.39,538.22 570.50,539.05 576.58,539.62 582.64,539.94 588.66,540.00 594.64,539.81 600.57,539.36 606.44,538.66 612.24,537.70 617.97,536.49 623.61,535.03 629.16,533.31 634.62,531.35 639.97,529.14 645.21,526.69 650.33,524.00 655.32,521.07 660.17,517.90 664.89,514.51 669.45,510.89 673.86,507.04 678.10,502.98 682.17,498.70 686.07,494.22 689.78,489.53 693.31,484.65 696.64,479.58 699.77,474.32 702.69,468.88 705.41,463.28 707.90,457.50 710.18,451.57 712.23,445.49 714.05,439.26 715.63,432.90 716.97,426.41 718.08,419.80 718.93,413.08 719.54,406.26 719.90,399.34 720.00,392.33 719.85,385.25 719.43,378.10 718.76,370.89 717.82,363.62 716.62,356.31 715.16,348.97 713.44,341.61 711.44,334.23 709.19,326.84 706.67,319.46 703.89,312.09 700.84,304.74 697.53,297.43 693.97,290.15 690.14,282.92 686.06,275.75 681.73,268.65 677.15,261.62 672.32,254.68 667.25,247.83 661.93,241.09 656.38,234.45 650.60,227.93 644.59,221.54 638.36,215.29 631.91,209.18 625.25,203.21 618.38,197.41 611.31,191.77 604.05,186.31 596.59,181.02 588.96,175.92 581.15,171.01 573.17,166.30 565.03,161.80 556.73,157.50 548.29,153.42 539.71,149.56 531.00,145.93 522.17,142.53 513.22,139.36 504.16,136.43 495.01,133.74 485.77,131.30 476.44,129.11 467.05,127.17 457.59,125.48 448.07,124.05 438.51,122.88 428.92,121.96 419.29,121.31 409.65,120.91 400.00,120.78 390.35,120.91 380.71,121.31 371.08,121.96 361.49,122.88 351.93,124.05 342.41,125.48 332.95,127.17 323.56,129.11 314.23,131.30 304.99,133.74 295.84,136.43 286.78,139.36 277.83,142.53 269.00,145.93 260.29,149.56 251.71,153.42 243.27,157.50 234.97,161.80 226.83,166.30 218.85,171.01 211.04,175.92 203.41,181.02 195.95,186.31 188.69,191.77 181.62,197.41 174.75,203.21 168.09,209.18 161.64,215.29 155.41,221.54 149.40,227.93 143.62,234.45 138.07,241.09 132.75,247.83 127.68,254.68 122.85,261.62 118.27,268.65 113.94,275.75 109.86,282.92 106.03,290.15 102.47,297.43 99.16,304.74 96.11,312.09 93.33,319.46 90.81,326.84 88.56,334.23 86.56,341.61 84.84,348.97 83.38,356.31 82.18,363.62 81.24,370.89 80.57,378.10 80.15,385.25 80.00,392.33 80.10,399.34 80.46,406.26 81.07,413.08 81.92,419.80 83.03,426.41 84.37,432.90 85.95,439.26 87.77,445.49 89.82,451.57 92.10,457.50 94.59,463.28 97.31,468.88 100.23,474.32 103.36,479.58 106.69,484.65 110.22,489.53 113.93,494.22 117.83,498.70 121.90,502.98 126.14,507.04 130.55,510.89 135.11,514.51 139.83,517.90 144.68,521.07 149.67,524.00 154.79,526.69 160.03,529.14 165.38,531.35 170.84,533.31 176.39,535.03 182.03,536.49 187.76,537.70 193.56,538.66 199.43,539.36 205.36,539.81 211.34,540.00 217.36,539.94 223.42,539.62 229.50,539.05 235.61,538.22 241.72,537.14 247.84,535.81 253.96,534.23 260.07,532.40 266.15,530.33 272.22,528.01 278.25,525.46 284.23,522.67 290.18,519.64 296.06,516.39 301.89,512.91 307.65,509.21 313.34,505.30 318.94,501.17 324.46,496.83 329.88,492.30 335.21,487.57 340.43,482.64 345.55,477.54 350.55,472.25 355.43,466.79 360.18,461.17 364.81,455.38 369.30,449.45 373.66,443.36 377.87,437.14 381.94,430.79 385.86,424.31 389.63,417.71 393.24,411.00 396.70,404.19 400.00,397.29 403.14,390.30 406.11,383.23 408.92,376.08 411.56,368.88 414.03,361.61 416.33,354.30 418.47,346.95 420.44,339.56 422.23,332.15 423.86,324.72 425.31,317.29 426.60,309.85 427.72,302.41 428.68,294.99 429.47,287.59 430.09,280.22 430.56,272.89 430.86,265.60 431.01,258.35 431.00,251.17 430.84,244.04 430.53,236.99 430.08,230.01 429.48,223.12 428.74,216.31 427.87,209.60 426.87,202.99 425.74,196.49 424.49,190.10 423.11,183.83 421.63,177.68 420.03,171.65 418.33,165.76 416.54,160.00 414.64,154.39 412.66,148.91 410.59,143.59 408.45,138.41 406.23,133.39 403.94,128.53 401.60,123.83 399.19,119.29 396.74,114.91 394.24,110.70 391.70,106.66 389.13,102.79 386.53,99.08 383.91,95.55 381.27,92.19 378.62,89.01 375.97,86.00 373.32,83.15 370.68,80.49 368.05,77.99 365.44,75.66 362.85,73.51 360.29,71.52 357.77,69.70 355.28,68.04 352.84,66.55 350.45,65.22 348.12,64.04 345.84,63.03 343.63,62.16 341.49,61.45 339.42,60.88 337.43,60.45 335.52,60.17 333.70,60.02 331.96,60.00 330.32,60.11 328.78,60.34 327.33,60.70 325.99,61.16 324.75,61.74 323.62,62.42 322.60,63.21 321.70,64.09 320.90,65.06 320.23,66.11 319.67,67.25 319.23,68.46 318.92,69.74 318.72,71.08 318.65,72.48 318.70,73.94 318.87,75.45 319.17,76.99 319.59,78.58 320.13,80.20 320.80,81.84 321.59,83.51 322.50,85.19 323.53,86.88 324.67,88.57 325.94,90.27 327.31,91.96 328.80,93.65 330.41,95.31 332.12,96.96 333.93,98.59 335.85,100.18 337.87,101.75 339.99,103.27 342.20,104.76 344.50,106.19 346.89,107.58 349.36,108.92 351.91,110.20 354.54,111.42 357.24,112.57 360.01,113.66 362.84,114.68 365.72,115.63 368.66,116.51 371.66,117.31 374.69,118.03 377.77,118.67 380.88,119.22 384.02,119.70 387.18,120.09 390.37,120.39 393.57,120.61 396.78,120.74 400.00,120.78 "/>
</svg>
