<?xml version="1.0" encoding="UTF-8"?>
<svg xmlns="http://www.w3.org/2000/svg" width="800" height="600">
  <title>R=sin(2*t):-1/2,1/2:</title>
  <rect width="800" height="600" fill="#ffffff"/>
  <g stroke="#d0d0d0" stroke-width="1">
    <line x1="-15.70" y1="540.00" x2="-15.70" y2="60.00"/>
    <line x1="400.00" y1="540.00" x2="400.00" y2="60.00"/>
    <line x1="815.70" y1="540.00" x2="815.70" y2="60.00"/>
    <line x1="80.00" y1="540.00" x2="720.00" y2="540.00"/>
    <line x1="80.00" y1="-83.54" x2="720.00" y2="-83.54"/>
  </g>
  <g stroke="#e8e8e8" stroke-width="0.5">
    <line x1="150.58" y1="540.00" x2="150.58" y2="60.00"/>
    <line x1="233.72" y1="540.00" x2="233.72" y2="60.00"/>
    <line x1="316.86" y1="540.00" x2="316.86" y2="60.00"/>
    <line x1="483.14" y1="540.00" x2="483.14" y2="60.00"/>
    <line x1="566.28" y1="540.00" x2="566.28" y2="60.00"/>
    <line x1="649.42" y1="540.00" x2="649.42" y2="60.00"/>
    <line x1="80.00" y1="415.29" x2="720.00" y2="415.29"/>
    <line x1="80.00" y1="290.58" x2="720.00" y2="290.58"/>
    <line x1="80.00" y1="165.87" x2="720.00" y2="165.87"/>
  </g>
  <g stroke="#808080" stroke-width="2">
    <line x1="80.00" y1="540.00" x2="720.00" y2="540.00"/>
  </g>
  <polyline fill="none" stroke="#0066cc" stroke-width="2" points="400.00,540.00 399.97,532.15 399.87,524.30 399.70,516.46 399.47,508.62 399.18,500.79 398.82,492.97 398.39,485.16 397.90,477.37 397.34,469.60 396.72,461.85 396.03,454.12 395.28,446.41 394.46,438.73 393.58,431.07 392.64,423.45 391.63,415.86 390.57,408.30 389.44,400.78 388.24,393.30 386.99,385.86 385.68,378.46 384.30,371.10 382.87,363.80 381.38,356.54 379.83,349.33 378.22,342.17 376.55,335.07 374.83,328.02 373.05,321.04 371.21,314.11 369.33,307.25 367.38,300.44 365.39,293.71 363.34,287.04 361.24,280.44 359.09,273.92 356.89,267.46 354.65,261.08 352.35,254.78 350.01,248.55 347.62,242.40 345.19,236.33 342.71,230.35 340.19,224.45 337.62,218.64 335.02,212.91 332.38,207.27 329.70,201.72 326.97,196.26 324.22,190.90 321.42,185.63 318.60,180.45 315.74,175.37 312.84,170.39 309.92,165.50 306.97,160.72 303.98,156.04 300.97,151.46 297.94,146.98 294.88,142.61 291.79,138.34 288.68,134.18 285.56,130.13 282.41,126.19 279.24,122.35 276.06,118.62 272.85,115.01 269.64,111.50 266.41,108.11 263.17,104.83 259.92,101.66 256.66,98.60 253.39,95.66 250.11,92.84 246.83,90.13 243.54,87.53 240.25,85.05 236.96,82.69 233.67,80.44 230.39,78.31 227.10,76.30 223.82,74.41 220.54,72.63 217.27,70.97 214.01,69.42 210.76,68.00 207.52,66.69 204.30,65.50 201.08,64.42 197.88,63.47 194.70,62.63 191.54,61.91 188.39,61.30 185.27,60.81 182.16,60.43 179.09,60.17 176.03,60.03 173.00,60.00 170.00,60.08 167.03,60.28 164.08,60.59 161.17,61.02 158.29,61.55 155.45,62.20 152.63,62.95 149.86,63.82 147.12,64.79 144.42,65.87 141.76,67.06 139.15,68.36 136.57,69.76 134.04,71.26 131.55,72.87 129.11,74.58 126.72,76.39 124.37,78.30 122.07,80.31 119.83,82.41 117.63,84.62 115.49,86.91 113.40,89.31 111.36,91.79 109.39,94.37 107.46,97.03 105.60,99.79 103.79,102.63 102.04,105.55 100.36,108.56 98.73,111.66 97.17,114.83 95.67,118.08 94.23,121.42 92.86,124.82 91.55,128.31 90.31,131.86 89.14,135.49 88.03,139.19 87.00,142.95 86.03,146.78 85.13,150.68 84.30,154.63 83.55,158.65 82.86,162.73 82.25,166.86 81.71,171.05 81.24,175.30 80.85,179.59 80.53,183.94 80.28,188.33 80.11,192.77 80.02,197.25 80.00,201.77 80.06,206.33 80.19,210.93 80.40,215.57 80.69,220.24 81.06,224.94 81.50,229.68 82.02,234.44 82.62,239.22 83.30,244.03 84.05,248.86 84.89,253.71 85.80,258.58 86.79,263.47 87.85,268.36 89.00,273.27 90.23,278.19 91.53,283.12 92.91,288.05 94.37,292.98 95.90,297.91 97.52,302.85 99.21,307.78 100.98,312.70 102.82,317.62 104.75,322.53 106.74,327.43 108.82,332.32 110.97,337.19 113.19,342.04 115.49,346.87 117.87,351.69 120.31,356.47 122.84,361.24 125.43,365.98 128.10,370.68 130.83,375.36 133.64,380.01 136.52,384.62 139.47,389.19 142.49,393.72 145.58,398.22 148.73,402.67 151.96,407.08 155.24,411.44 158.60,415.76 162.02,420.02 165.50,424.24 169.04,428.40 172.65,432.51 176.32,436.56 180.05,440.56 183.84,444.49 187.69,448.37 191.59,452.18 195.55,455.93 199.57,459.61 203.64,463.23 207.77,466.78 211.94,470.26 216.17,473.66 220.45,477.00 224.78,480.26 229.16,483.45 233.58,486.56 238.05,489.59 242.56,492.54 247.11,495.41 251.71,498.21 256.35,500.92 261.03,503.54 265.74,506.09 270.50,508.54 275.28,510.91 280.11,513.20 284.96,515.39 289.85,517.50 294.77,519.51 299.72,521.44 304.69,523.27 309.69,525.01 314.72,526.66 319.77,528.22 324.84,529.68 329.93,531.05 335.04,532.32 340.17,533.49 345.32,534.57 350.48,535.55 355.66,536.44 360.85,537.22 366.04,537.91 371.25,538.51 376.47,539.00 381.69,539.39 386.92,539.69 392.15,539.89 397.38,539.99 402.62,539.99 407.85,539.89 413.08,539.69 418.31,539.39 423.53,539.00 428.75,538.51 433.96,537.91 439.15,537.22 444.34,536.44 449.52,535.55 454.68,534.57 459.83,533.49 464.96,532.32 470.07,531.05 475.16,529.68 480.23,528.22 485.28,526.66 490.31,525.01 495.31,523.27 500.28,521.44 505.23,519.51 510.15,517.50 515.04,515.39 519.89,513.20 524.72,510.91 529.50,508.54 534.26,506.09 538.97,503.54 543.65,500.92 548.29,498.21 552.89,495.41 557.44,492.54 561.95,489.59 566.42,486.56 570.84,483.45 575.22,480.26 579.55,477.00 583.83,473.66 588.06,470.26 592.23,466.78 596.36,463.23 600.43,459.61 604.45,455.93 608.41,452.18 612.31,448.37 616.16,444.49 619.95,440.56 623.68,436.56 627.35,432.51 630.96,428.40 634.50,424.24 637.98,420.02 641.40,415.76 644.76,411.44 648.04,407.08 651.27,402.67 654.42,398.22 657.51,393.72 660.53,389.19 663.48,384.62 666.36,380.01 669.17,375.36 671.90,370.68 674.57,365.98 677.16,361.24 679.69,356.47 682.13,351.69 684.51,346.87 686.81,342.04 689.03,337.19 691.18,332.32 693.26,327.43 695.25,322.53 697.18,317.62 699.02,312.70 700.79,307.78 702.48,302.85 704.10,297.91 705.63,292.98 707.09,288.05 708.47,283.12 709.77,278.19 711.00,273.27 712.15,268.36 713.21,263.47 714.20,258.58 715.11,253.71 715.95,248.86 716.70,244.03 717.38,239.22 717.98,234.44 718.50,229.68 718.94,224.94 719.31,220.24 719.60,215.57 719.81,210.93 719.94,206.33 720.00,201.77 719.98,197.25 719.89,192.77 719.72,188.33 719.47,183.94 719.15,179.59 718.76,175.30 718.29,171.05 717.75,166.86 717.14,162.73 716.45,158.65 715.70,154.63 714.87,150.68 713.97,146.78 713.00,142.95 711.97,139.19 710.86,135.49 709.69,131.86 708.45,128.31 707.14,124.82 705.77,121.42 704.33,118.08 702.83,114.83 701.27,111.66 699.64,108.56 697.96,105.55 696.21,102.63 694.40,99.79 692.54,97.03 690.61,94.37 688.64,91.79 686.60,89.31 684.51,86.91 682.37,84.62 680.17,82.41 677.93,80.31 675.63,78.30 673.28,76.39 670.89,74.58 668.45,72.87 665.96,71.26 663.43,69.76 660.85,68.36 658.24,67.06 655.58,65.87 652.88,64.79 650.14,63.82 647.37,62.95 644.55,62.20 641.71,61.55 638.83,61.02 635.92,60.59 632.97,60.28 630.00,60.08 627.00,60.00 623.97,60.03 620.91,60.17 617.84,60.43 614.73,60.81 611.61,61.30 608.46,61.91 605.30,62.63 602.12,63.47 598.92,64.42 595.70,65.50 592.48,66.69 589.24,68.00 585.99,69.42 582.73,70.97 579.46,72.63 576.18,74.41 572.90,76.30 569.61,78.31 566.33,80.44 563.04,82.69 559.75,85.05 556.46,87.53 553.17,90.13 549.89,92.84 546.61,95.66 543.34,98.60 540.08,101.66 536.83,104.83 533.59,108.11 530.36,111.50 527.15,115.01 523.94,118.62 520.76,122.35 517.59,126.19 514.44,130.13 511.32,134.18 508.21,138.34 505.12,142.61 502.06,146.98 499.03,151.46 496.02,156.04 493.03,160.72 490.08,165.50 487.16,170.39 484.26,175.37 481.40,180.45 478.58,185.63 475.78,190.90 473.03,196.26 470.30,201.72 467.62,207.27 464.98,212.91 462.38,218.64 459.81,224.45 457.29,230.35 454.81,236.33 452.38,242.40 449.99,248.55 447.65,254.78 445.35,261.08 443.11,267.46 440.91,273.92 438.76,280.44 436.66,287.04 434.61,293.71 432.62,300.44 430.67,307.25 428.79,314.11 426.95,321.04 425.17,328.02 423.45,335.07 421.78,342.17 420.17,349.33 418.62,356.54 417.13,363.80 415.70,371.10 414.32,378.46 413.01,385.86 411.76,393.30 410.56,400.78 409.43,408.30 408.37,415.86 407.36,423.45 406.42,431.07 405.54,438.73 404.72,446.41 403.97,454.12 403.28,461.85 402.66,469.60 402.10,477.37 401.61,485.16 401.18,492.97 400.82,500.79 400.53,508.62 400.30,516.46 400.13,524.30 400.03,532.15 400.00,540.00 "/>
</svg>
