<?xml version="1.0" encoding="UTF-8"?>
<svg xmlns="http://www.w3.org/2000/svg" width="800" height="600">
  <title>R=sin(4*t):-1/2,1/2:</title>
  <rect width="800" height="600" fill="#ffffff"/>
  <g stroke="#d0d0d0" stroke-width="1">
    <line x1="55.36" y1="540.00" x2="55.36" y2="60.00"/>
    <line x1="400.00" y1="540.00" x2="400.00" y2="60.00"/>
    <line x1="744.64" y1="540.00" x2="744.64" y2="60.00"/>
    <line x1="80.00" y1="565.18" x2="720.00" y2="565.18"/>
    <line x1="80.00" y1="213.37" x2="720.00" y2="213.37"/>
    <line x1="80.00" y1="-138.44" x2="720.00" y2="-138.44"/>
  </g>
  <g stroke="#e8e8e8" stroke-width="0.5">
    <line x1="124.29" y1="540.00" x2="124.29" y2="60.00"/>
    <line x1="193.22" y1="540.00" x2="193.22" y2="60.00"/>
    <line x1="262.14" y1="540.00" x2="262.14" y2="60.00"/>
    <line x1="331.07" y1="540.00" x2="331.07" y2="60.00"/>
    <line x1="468.93" y1="540.00" x2="468.93" y2="60.00"/>
    <line x1="537.86" y1="540.00" x2="537.86" y2="60.00"/>
    <line x1="606.78" y1="540.00" x2="606.78" y2="60.00"/>
    <line x1="675.71" y1="540.00" x2="675.71" y2="60.00"/>
    <line x1="80.00" y1="494.81" x2="720.00" y2="494.81"/>
    <line x1="80.00" y1="424.45" x2="720.00" y2="424.45"/>
    <line x1="80.00" y1="354.09" x2="720.00" y2="354.09"/>
    <line x1="80.00" y1="283.73" x2="720.00" y2="283.73"/>
    <line x1="80.00" y1="143.01" x2="720.00" y2="143.01"/>
    <line x1="80.00" y1="72.64" x2="720.00" y2="72.64"/>
  </g>
  <g stroke="#808080" stroke-width="2">
    <line x1="400.00" y1="540.00" x2="400.00" y2="60.00"/>
    <line x1="80.00" y1="213.37" x2="720.00" y2="213.37"/>
  </g>
  <polyline fill="none" stroke="#0066cc" stroke-width="2" points="400.00,213.37 400.05,222.23 400.22,231.08 400.49,239.92 400.87,248.73 401.36,257.53 401.96,266.29 402.66,275.00 403.47,283.68 404.39,292.30 405.40,300.86 406.52,309.35 407.74,317.77 409.06,326.12 410.48,334.38 411.99,342.55 413.59,350.62 415.28,358.59 417.07,366.45 418.94,374.19 420.89,381.82 422.92,389.32 425.03,396.69 427.22,403.92 429.48,411.01 431.81,417.95 434.20,424.74 436.66,431.38 439.17,437.85 441.74,444.16 444.37,450.29 447.04,456.26 449.75,462.04 452.51,467.64 455.30,473.05 458.13,478.27 460.98,483.30 463.86,488.13 466.76,492.76 469.67,497.19 472.60,501.41 475.54,505.42 478.47,509.22 481.41,512.80 484.34,516.18 487.26,519.33 490.17,522.26 493.06,524.98 495.92,527.47 498.76,529.73 501.57,531.78 504.34,533.59 507.06,535.19 509.75,536.55 512.38,537.69 514.96,538.60 517.48,539.29 519.93,539.75 522.32,539.99 524.64,540.00 526.89,539.79 529.05,539.35 531.13,538.70 533.12,537.82 535.03,536.73 536.83,535.42 538.54,533.90 540.15,532.16 541.65,530.22 543.04,528.07 544.31,525.71 545.48,523.16 546.52,520.40 547.44,517.45 548.23,514.31 548.90,510.98 549.43,507.46 549.84,503.77 550.10,499.89 550.23,495.85 550.22,491.63 550.07,487.25 549.77,482.72 549.32,478.02 548.73,473.18 547.99,468.19 547.10,463.05 546.06,457.79 544.86,452.39 543.51,446.86 542.01,441.22 540.35,435.46 538.54,429.59 536.57,423.61 534.44,417.54 532.16,411.37 529.73,405.12 527.14,398.79 524.40,392.38 521.50,385.89 518.45,379.35 515.25,372.74 511.90,366.09 508.40,359.38 504.75,352.64 500.95,345.86 497.02,339.05 492.94,332.22 488.72,325.37 484.36,318.51 479.87,311.65 475.25,304.78 470.50,297.92 465.62,291.07 460.61,284.24 455.49,277.43 450.25,270.65 444.90,263.91 439.44,257.20 433.87,250.54 428.20,243.93 422.43,237.37 416.57,230.88 410.62,224.45 404.58,218.09 398.46,211.80 392.27,205.60 386.00,199.48 379.67,193.45 373.28,187.51 366.83,181.67 360.33,175.94 353.78,170.31 347.19,164.79 340.57,159.38 333.91,154.09 327.23,148.92 320.53,143.88 313.81,138.96 307.09,134.18 300.36,129.53 293.64,125.01 286.92,120.63 280.22,116.40 273.54,112.31 266.88,108.36 260.26,104.56 253.67,100.91 247.12,97.41 240.63,94.07 234.19,90.88 227.81,87.84 221.49,84.96 215.25,82.24 209.08,79.68 203.00,77.27 197.00,75.02 191.10,72.94 185.30,71.00 179.60,69.23 174.01,67.62 168.54,66.16 163.19,64.87 157.96,63.72 152.87,62.74 147.91,61.90 143.09,61.22 138.42,60.69 133.90,60.32 129.53,60.08 125.32,60.00 121.27,60.06 117.39,60.26 113.68,60.60 110.15,61.08 106.80,61.70 103.63,62.44 100.64,63.32 97.85,64.32 95.25,65.44 92.84,66.69 90.63,68.05 88.62,69.53 86.82,71.11 85.23,72.80 83.84,74.60 82.66,76.49 81.70,78.48 80.95,80.56 80.41,82.73 80.10,84.98 80.00,87.31 80.12,89.71 80.46,92.19 81.03,94.73 81.81,97.33 82.81,99.99 84.04,102.70 85.49,105.46 87.16,108.27 89.05,111.12 91.16,114.00 93.49,116.91 96.04,119.84 98.81,122.80 101.79,125.78 104.99,128.77 108.39,131.76 112.01,134.76 115.84,137.76 119.87,140.75 124.11,143.73 128.54,146.70 133.18,149.65 138.01,152.58 143.03,155.48 148.24,158.35 153.63,161.18 159.21,163.97 164.96,166.72 170.88,169.42 176.98,172.07 183.24,174.67 189.66,177.21 196.24,179.68 202.96,182.09 209.84,184.44 216.86,186.71 224.01,188.90 231.29,191.02 238.70,193.05 246.23,195.00 253.88,196.87 261.63,198.64 269.49,200.32 277.44,201.91 285.49,203.41 293.62,204.80 301.84,206.10 310.12,207.29 318.48,208.38 326.89,209.37 335.36,210.25 343.88,211.02 352.45,211.69 361.04,212.24 369.67,212.68 378.32,213.02 386.98,213.24 395.66,213.35 404.34,213.35 413.02,213.24 421.68,213.02 430.33,212.68 438.96,212.24 447.55,211.69 456.12,211.02 464.64,210.25 473.11,209.37 481.52,208.38 489.88,207.29 498.16,206.10 506.38,204.80 514.51,203.41 522.56,201.91 530.51,200.32 538.37,198.64 546.12,196.87 553.77,195.00 561.30,193.05 568.71,191.02 575.99,188.90 583.14,186.71 590.16,184.44 597.04,182.09 603.76,179.68 610.34,177.21 616.76,174.67 623.02,172.07 629.12,169.42 635.04,166.72 640.79,163.97 646.37,161.18 651.76,158.35 656.97,155.48 661.99,152.58 666.82,149.65 671.46,146.70 675.89,143.73 680.13,140.75 684.16,137.76 687.99,134.76 691.61,131.76 695.01,128.77 698.21,125.78 701.19,122.80 703.96,119.84 706.51,116.91 708.84,114.00 710.95,111.12 712.84,108.27 714.51,105.46 715.96,102.70 717.19,99.99 718.19,97.33 718.97,94.73 719.54,92.19 719.88,89.71 720.00,87.31 719.90,84.98 719.59,82.73 719.05,80.56 718.30,78.48 717.34,76.49 716.16,74.60 714.77,72.80 713.18,71.11 711.38,69.53 709.37,68.05 707.16,66.69 704.75,65.44 702.15,64.32 699.36,63.32 696.37,62.44 693.20,61.70 689.85,61.08 686.32,60.60 682.61,60.26 678.73,60.06 674.68,60.00 670.47,60.08 666.10,60.32 661.58,60.69 656.91,61.22 652.09,61.90 647.13,62.74 642.04,63.72 636.81,64.87 631.46,66.16 625.99,67.62 620.40,69.23 614.70,71.00 608.90,72.94 603.00,75.02 597.00,77.27 590.92,79.68 584.75,82.24 578.51,84.96 572.19,87.84 565.81,90.88 559.37,94.07 552.88,97.41 546.33,100.91 539.74,104.56 533.12,108.36 526.46,112.31 519.78,116.40 513.08,120.63 506.36,125.01 499.64,129.53 492.91,134.18 486.19,138.96 479.47,143.88 472.77,148.92 466.09,154.09 459.43,159.38 452.81,164.79 446.22,170.31 439.67,175.94 433.17,181.67 426.72,187.51 420.33,193.45 414.00,199.48 407.73,205.60 401.54,211.80 395.42,218.09 389.38,224.45 383.43,230.88 377.57,237.37 371.80,243.93 366.13,250.54 360.56,257.20 355.10,263.91 349.75,270.65 344.51,277.43 339.39,284.24 334.38,291.07 329.50,297.92 324.75,304.78 320.13,311.65 315.64,318.51 311.28,325.37 307.06,332.22 302.98,339.05 299.05,345.86 295.25,352.64 291.60,359.38 288.10,366.09 284.75,372.74 281.55,379.35 278.50,385.89 275.60,392.38 272.86,398.79 270.27,405.12 267.84,411.37 265.56,417.54 263.43,423.61 261.46,429.59 259.65,435.46 257.99,441.22 256.49,446.86 255.14,452.39 253.94,457.79 252.90,463.05 252.01,468.19 251.27,473.18 250.68,478.02 250.23,482.72 249.93,487.25 249.78,491.63 249.77,495.85 249.90,499.89 250.16,503.77 250.57,507.46 251.10,510.98 251.77,514.31 252.56,517.45 253.48,520.40 254.52,523.16 255.69,525.71 256.96,528.07 258.35,530.22 259.85,532.16 261.46,533.90 263.17,535.42 264.97,536.73 266.88,537.82 268.87,538.70 270.95,539.35 273.11,539.79 275.36,540.00 277.68,539.99 280.07,539.75 282.52,539.29 285.04,538.60 287.62,537.69 290.25,536.55 292.94,535.19 295.66,533.59 298.43,531.78 301.24,529.73 304.08,527.47 306.94,524.98 309.83,522.26 312.74,519.33 315.66,516.18 318.59,512.80 321.53,509.22 324.46,505.42 327.40,501.41 330.33,497.19 333.24,492.76 336.14,488.13 339.02,483.30 341.87,478.27 344.70,473.05 347.49,467.64 350.25,462.04 352.96,456.26 355.63,450.29 358.26,444.16 360.83,437.85 363.34,431.38 365.80,424.74 368.19,417.95 370.52,411.01 372.78,403.92 374.97,396.69 377.08,389.32 379.11,381.82 381.06,374.19 382.93,366.45 384.72,358.59 386.41,350.62 388.01,342.55 389.52,334.38 390.94,326.12 392.26,317.77 393.48,309.35 394.60,300.86 395.61,292.30 396.53,283.68 397.34,275.00 398.04,266.29 398.64,257.53 399.13,248.73 399.51,239.92 399.78,231.08 399.95,222.23 400.00,213.37 "/>
</svg>
