<?xml version="1.0" encoding="UTF-8"?>
<svg xmlns="http://www.w3.org/2000/svg" width="800" height="600">
  <title>R=2+cos(5*t)</title>
  <rect width="800" height="600" fill="#ffffff"/>
  <g stroke="#d0d0d0" stroke-width="1">
    <line x1="20.96" y1="540.00" x2="20.96" y2="60.00"/>
    <line x1="137.46" y1="540.00" x2="137.46" y2="60.00"/>
    <line x1="253.97" y1="540.00" x2="253.97" y2="60.00"/>
    <line x1="370.48" y1="540.00" x2="370.48" y2="60.00"/>
    <line x1="486.99" y1="540.00" x2="486.99" y2="60.00"/>
    <line x1="603.49" y1="540.00" x2="603.49" y2="60.00"/>
    <line x1="720.00" y1="540.00" x2="720.00" y2="60.00"/>
    <line x1="80.00" y1="550.95" x2="720.00" y2="550.95"/>
    <line x1="80.00" y1="467.30" x2="720.00" y2="467.30"/>
    <line x1="80.00" y1="383.65" x2="720.00" y2="383.65"/>
    <line x1="80.00" y1="300.00" x2="720.00" y2="300.00"/>
    <line x1="80.00" y1="216.35" x2="720.00" y2="216.35"/>
    <line x1="80.00" y1="132.70" x2="720.00" y2="132.70"/>
    <line x1="80.00" y1="49.05" x2="720.00" y2="49.05"/>
  </g>
  <g stroke="#e8e8e8" stroke-width="0.5">
    <line x1="90.86" y1="540.00" x2="90.86" y2="60.00"/>
    <line x1="114.16" y1="540.00" x2="114.16" y2="60.00"/>
    <line x1="160.77" y1="540.00" x2="160.77" y2="60.00"/>
    <line x1="184.07" y1="540.00" x2="184.07" y2="60.00"/>
    <line x1="207.37" y1="540.00" x2="207.37" y2="60.00"/>
    <line x1="230.67" y1="540.00" x2="230.67" y2="60.00"/>
    <line x1="277.27" y1="540.00" x2="277.27" y2="60.00"/>
    <line x1="300.57" y1="540.00" x2="300.57" y2="60.00"/>
    <line x1="323.88" y1="540.00" x2="323.88" y2="60.00"/>
    <line x1="347.18" y1="540.00" x2="347.18" y2="60.00"/>
    <line x1="393.78" y1="540.00" x2="393.78" y2="60.00"/>
    <line x1="417.08" y1="540.00" x2="417.08" y2="60.00"/>
    <line x1="440.38" y1="540.00" x2="440.38" y2="60.00"/>
    <line x1="463.68" y1="540.00" x2="463.68" y2="60.00"/>
    <line x1="510.29" y1="540.00" x2="510.29" y2="60.00"/>
    <line x1="533.59" y1="540.00" x2="533.59" y2="60.00"/>
    <line x1="556.89" y1="540.00" x2="556.89" y2="60.00"/>
    <line x1="580.19" y1="540.00" x2="580.19" y2="60.00"/>
    <line x1="626.79" y1="540.00" x2="626.79" y2="60.00"/>
    <line x1="650.10" y1="540.00" x2="650.10" y2="60.00"/>
    <line x1="673.40" y1="540.00" x2="673.40" y2="60.00"/>
    <line x1="696.70" y1="540.00" x2="696.70" y2="60.00"/>
    <line x1="80.00" y1="534.22" x2="720.00" y2="534.22"/>
    <line x1="80.00" y1="517.49" x2="720.00" y2="517.49"/>
    <line x1="80.00" y1="500.76" x2="720.00" y2="500.76"/>
    <line x1="80.00" y1="484.03" x2="720.00" y2="484.03"/>
    <line x1="80.00" y1="450.57" x2="720.00" y2="450.57"/>
    <line x1="80.00" y1="433.84" x2="720.00" y2="433.84"/>
    <line x1="80.00" y1="417.11" x2="720.00" y2="417.11"/>
    <line x1="80.00" y1="400.38" x2="720.00" y2="400.38"/>
    <line x1="80.00" y1="366.92" x2="720.00" y2="366.92"/>
    <line x1="80.00" y1="350.19" x2="720.00" y2="350.19"/>
    <line x1="80.00" y1="333.46" x2="720.00" y2="333.46"/>
    <line x1="80.00" y1="316.73" x2="720.00" y2="316.73"/>
    <line x1="80.00" y1="283.27" x2="720.00" y2="283.27"/>
    <line x1="80.00" y1="266.54" x2="720.00" y2="266.54"/>
    <line x1="80.00" y1="249.81" x2="720.00" y2="249.81"/>
    <line x1="80.00" y1="233.08" x2="720.00" y2="233.08"/>
    <line x1="80.00" y1="199.62" x2="720.00" y2="199.62"/>
    <line x1="80.00" y1="182.89" x2="720.00" y2="182.89"/>
    <line x1="80.00" y1="166.16" x2="720.00" y2="166.16"/>
    <line x1="80.00" y1="149.43" x2="720.00" y2="149.43"/>
    <line x1="80.00" y1="115.97" x2="720.00" y2="115.97"/>
    <line x1="80.00" y1="99.24" x2="720.00" y2="99.24"/>
    <line x1="80.00" y1="82.51" x2="720.00" y2="82.51"/>
    <line x1="80.00" y1="65.78" x2="720.00" y2="65.78"/>
  </g>
  <g stroke="#808080" stroke-width="2">
    <line x1="370.48" y1="540.00" x2="370.48" y2="60.00"/>
    <line x1="80.00" y1="300.00" x2="720.00" y2="300.00"/>
  </g>
  <polyline fill="none" stroke="#0066cc" stroke-width="2" points="719.74,296.85 718.97,293.71 717.69,290.60 715.90,287.52 713.62,284.50 710.85,281.54 707.60,278.65 703.90,275.85 699.75,273.15 695.17,270.55 690.18,268.07 684.81,265.71 679.08,263.48 673.01,261.39 666.63,259.44 659.97,257.64 653.05,255.99 645.90,254.49 638.56,253.15 631.04,251.96 623.40,250.93 615.65,250.06 607.82,249.33 599.96,248.74 592.09,248.30 584.24,247.99 576.44,247.81 568.72,247.74 561.12,247.79 553.66,247.93 546.36,248.16 539.26,248.46 532.37,248.83 525.73,249.25 519.35,249.70 513.26,250.18 507.47,250.66 502.00,251.14 496.86,251.59 492.07,252.00 487.64,252.37 483.58,252.66 479.90,252.87 476.59,252.98 473.66,252.98 471.12,252.86 468.96,252.59 467.18,252.17 465.78,251.59 464.73,250.83 464.05,249.89 463.71,248.74 463.71,247.40 464.02,245.84 464.64,244.07 465.55,242.07 466.72,239.85 468.14,237.40 469.78,234.71 471.63,231.80 473.66,228.66 475.85,225.29 478.17,221.70 480.60,217.90 483.11,213.88 485.68,209.67 488.29,205.26 490.90,200.68 493.50,195.92 496.06,191.01 498.55,185.96 500.96,180.78 503.26,175.49 505.42,170.11 507.44,164.65 509.29,159.14 510.94,153.59 512.40,148.02 513.63,142.46 514.63,136.92 515.38,131.42 515.87,125.99 516.10,120.65 516.05,115.41 515.73,110.30 515.12,105.34 514.22,100.55 513.04,95.95 511.57,91.56 509.82,87.38 507.80,83.46 505.50,79.79 502.93,76.39 500.11,73.28 497.05,70.47 493.75,67.98 490.23,65.81 486.50,63.97 482.58,62.48 478.49,61.33 474.23,60.53 469.84,60.09 465.32,60.00 460.69,60.27 455.98,60.90 451.21,61.87 446.38,63.20 441.52,64.86 436.66,66.86 431.80,69.18 426.97,71.82 422.19,74.76 417.46,77.98 412.82,81.48 408.27,85.23 403.82,89.23 399.50,93.45 395.31,97.86 391.26,102.47 387.37,107.23 383.64,112.13 380.08,117.15 376.70,122.27 373.50,127.46 370.48,132.70 367.64,137.96 364.99,143.23 362.52,148.48 360.23,153.69 358.11,158.83 356.16,163.88 354.37,168.82 352.73,173.64 351.23,178.30 349.86,182.80 348.60,187.11 347.45,191.21 346.39,195.09 345.41,198.74 344.48,202.14 343.59,205.27 342.72,208.14 341.86,210.72 340.99,213.01 340.09,215.01 339.13,216.71 338.11,218.10 337.01,219.19 335.80,219.97 334.48,220.44 333.01,220.62 331.40,220.50 329.61,220.08 327.65,219.39 325.49,218.42 323.12,217.18 320.54,215.69 317.73,213.97 314.69,212.02 311.40,209.85 307.86,207.50 304.08,204.96 300.04,202.27 295.75,199.43 291.21,196.48 286.43,193.42 281.39,190.28 276.13,187.08 270.63,183.83 264.91,180.57 258.99,177.30 252.88,174.06 246.58,170.85 240.12,167.71 233.52,164.65 226.78,161.69 219.94,158.84 213.02,156.13 206.03,153.57 199.00,151.17 191.95,148.96 184.91,146.95 177.91,145.14 170.96,143.55 164.09,142.20 157.33,141.08 150.71,140.21 144.25,139.60 137.97,139.24 131.91,139.15 126.08,139.32 120.51,139.75 115.21,140.45 110.23,141.42 105.56,142.65 101.24,144.13 97.28,145.86 93.69,147.84 90.50,150.05 87.71,152.49 85.34,155.15 83.39,158.02 81.88,161.07 80.81,164.32 80.18,167.73 80.00,171.29 80.26,174.99 80.97,178.82 82.11,182.76 83.69,186.80 85.69,190.91 88.10,195.09 90.91,199.31 94.11,203.56 97.68,207.83 101.59,212.10 105.84,216.36 110.40,220.58 115.25,224.77 120.35,228.90 125.69,232.96 131.25,236.94 136.98,240.83 142.86,244.62 148.87,248.30 154.97,251.86 161.13,255.30 167.31,258.61 173.50,261.79 179.66,264.82 185.75,267.72 191.74,270.47 197.61,273.07 203.33,275.54 208.86,277.86 214.18,280.05 219.26,282.10 224.07,284.03 228.60,285.83 232.81,287.51 236.69,289.09 240.22,290.57 243.38,291.95 246.14,293.26 248.51,294.49 250.46,295.66 251.99,296.79 253.09,297.88 253.75,298.95 253.97,300.00 253.75,301.05 253.09,302.12 251.99,303.21 250.46,304.34 248.51,305.51 246.14,306.74 243.38,308.05 240.22,309.43 236.69,310.91 232.81,312.49 228.60,314.17 224.07,315.97 219.26,317.90 214.18,319.95 208.86,322.14 203.33,324.46 197.61,326.93 191.74,329.53 185.75,332.28 179.66,335.18 173.50,338.21 167.31,341.39 161.13,344.70 154.97,348.14 148.87,351.70 142.86,355.38 136.98,359.17 131.25,363.06 125.69,367.04 120.35,371.10 115.25,375.23 110.40,379.42 105.84,383.64 101.59,387.90 97.68,392.17 94.11,396.44 90.91,400.69 88.10,404.91 85.69,409.09 83.69,413.20 82.11,417.24 80.97,421.18 80.26,425.01 80.00,428.71 80.18,432.27 80.81,435.68 81.88,438.93 83.39,441.98 85.34,444.85 87.71,447.51 90.50,449.95 93.69,452.16 97.28,454.14 101.24,455.87 105.56,457.35 110.23,458.58 115.21,459.55 120.51,460.25 126.08,460.68 131.91,460.85 137.97,460.76 144.25,460.40 150.71,459.79 157.33,458.92 164.09,457.80 170.96,456.45 177.91,454.86 184.91,453.05 191.95,451.04 199.00,448.83 206.03,446.43 213.02,443.87 219.94,441.16 226.78,438.31 233.52,435.35 240.12,432.29 246.58,429.15 252.88,425.94 258.99,422.70 264.91,419.43 270.63,416.17 276.13,412.92 281.39,409.72 286.43,406.58 291.21,403.52 295.75,400.57 300.04,397.73 304.08,395.04 307.86,392.50 311.40,390.15 314.69,387.98 317.73,386.03 320.54,384.31 323.12,382.82 325.49,381.58 327.65,380.61 329.61,379.92 331.40,379.50 333.01,379.38 334.48,379.56 335.80,380.03 337.01,380.81 338.11,381.90 339.13,383.29 340.09,384.99 340.99,386.99 341.86,389.28 342.72,391.86 343.59,394.73 344.48,397.86 345.41,401.26 346.39,404.91 347.45,408.79 348.60,412.89 349.86,417.20 351.23,421.70 352.73,426.36 354.37,431.18 356.16,436.12 358.11,441.17 360.23,446.31 362.52,451.52 364.99,456.77 367.64,462.04 370.48,467.30 373.50,472.54 376.70,477.73 380.08,482.85 383.64,487.87 387.37,492.77 391.26,497.53 395.31,502.14 399.50,506.55 403.82,510.77 408.27,514.77 412.82,518.52 417.46,522.02 422.19,525.24 426.97,528.18 431.80,530.82 436.66,533.14 441.52,535.14 446.38,536.80 451.21,538.13 455.98,539.10 460.69,539.73 465.32,540.00 469.84,539.91 474.23,539.47 478.49,538.67 482.58,537.52 486.50,536.03 490.23,534.19 493.75,532.02 497.05,529.53 500.11,526.72 502.93,523.61 505.50,520.21 507.80,516.54 509.82,512.62 511.57,508.44 513.04,504.05 514.22,499.45 515.12,494.66 515.73,489.70 516.05,484.59 516.10,479.35 515.87,474.01 515.38,468.58 514.63,463.08 513.63,457.54 512.40,451.98 510.94,446.41 509.29,440.86 507.44,435.35 505.42,429.89 503.26,424.51 500.96,419.22 498.55,414.04 496.06,408.99 493.50,404.08 490.90,399.32 488.29,394.74 485.68,390.33 483.11,386.12 480.60,382.10 478.17,378.30 475.85,374.71 473.66,371.34 471.63,368.20 469.78,365.29 468.14,362.60 466.72,360.15 465.55,357.93 464.64,355.93 464.02,354.16 463.71,352.60 463.71,351.26 464.05,350.11 464.73,349.17 465.78,348.41 467.18,347.83 468.96,347.41 471.12,347.14 473.66,347.02 476.59,347.02 479.90,347.13 483.58,347.34 487.64,347.63 492.07,348.00 496.86,348.41 502.00,348.86 507.47,349.34 513.26,349.82 519.35,350.30 525.73,350.75 532.37,351.17 539.26,351.54 546.36,351.84 553.66,352.07 561.12,352.21 568.72,352.26 576.44,352.19 584.24,352.01 592.09,351.70 599.96,351.26 607.82,350.67 615.65,349.94 623.40,349.07 631.04,348.04 638.56,346.85 645.90,345.51 653.05,344.01 659.97,342.36 666.63,340.56 673.01,338.61 679.08,336.52 684.81,334.29 690.18,331.93 695.17,329.45 699.75,326.85 703.90,324.15 707.60,321.35 710.85,318.46 713.62,315.50 715.90,312.48 717.69,309.40 718.97,306.29 719.74,303.15 720.00,300.00 "/>
</svg>
