<?xml version="1.0" encoding="UTF-8"?>
<svg xmlns="http://www.w3.org/2000/svg" width="800" height="600">
  <title>R=sin(t/2):0,4:</title>
  <rect width="800" height="600" fill="#ffffff"/>
  <g stroke="#d0d0d0" stroke-width="1">
    <line x1="79.99" y1="540.00" x2="79.99" y2="60.00"/>
    <line x1="400.00" y1="540.00" x2="400.00" y2="60.00"/>
    <line x1="720.01" y1="540.00" x2="720.01" y2="60.00"/>
    <line x1="80.00" y1="611.79" x2="720.00" y2="611.79"/>
    <line x1="80.00" y1="300.01" x2="720.00" y2="300.01"/>
    <line x1="80.00" y1="-11.77" x2="720.00" y2="-11.77"/>
  </g>
  <g stroke="#e8e8e8" stroke-width="0.5">
    <line x1="143.99" y1="540.00" x2="143.99" y2="60.00"/>
    <line x1="208.00" y1="540.00" x2="208.00" y2="60.00"/>
    <line x1="272.00" y1="540.00" x2="272.00" y2="60.00"/>
    <line x1="336.00" y1="540.00" x2="336.00" y2="60.00"/>
    <line x1="464.00" y1="540.00" x2="464.00" y2="60.00"/>
    <line x1="528.00" y1="540.00" x2="528.00" y2="60.00"/>
    <line x1="592.00" y1="540.00" x2="592.00" y2="60.00"/>
    <line x1="656.01" y1="540.00" x2="656.01" y2="60.00"/>
    <line x1="80.00" y1="487.08" x2="720.00" y2="487.08"/>
    <line x1="80.00" y1="424.72" x2="720.00" y2="424.72"/>
    <line x1="80.00" y1="362.36" x2="720.00" y2="362.36"/>
    <line x1="80.00" y1="237.65" x2="720.00" y2="237.65"/>
    <line x1="80.00" y1="175.29" x2="720.00" y2="175.29"/>
    <line x1="80.00" y1="112.94" x2="720.00" y2="112.94"/>
  </g>
  <g stroke="#808080" stroke-width="2">
    <line x1="400.00" y1="540.00" x2="400.00" y2="60.00"/>
    <line x1="80.00" y1="300.01" x2="720.00" y2="300.01"/>
  </g>
  <polyline fill="none" stroke="#0066cc" stroke-width="2" points="400.00,300.01 404.03,299.91 408.05,299.61 412.05,299.12 416.03,298.43 419.97,297.54 423.88,296.46 427.73,295.19 431.53,293.73 435.26,292.08 438.92,290.25 442.50,288.23 445.99,286.04 449.38,283.67 452.67,281.13 455.85,278.42 458.91,275.54 461.84,272.51 464.65,269.32 467.31,265.99 469.84,262.51 472.21,258.89 474.43,255.15 476.48,251.27 478.37,247.28 480.08,243.17 481.62,238.95 482.98,234.64 484.15,230.23 485.13,225.74 485.92,221.16 486.51,216.52 486.89,211.81 487.08,207.05 487.06,202.23 486.83,197.38 486.39,192.50 485.74,187.59 484.87,182.66 483.79,177.73 482.49,172.79 480.98,167.87 479.26,162.96 477.31,158.08 475.16,153.22 472.79,148.42 470.20,143.66 467.41,138.95 464.40,134.32 461.19,129.75 457.77,125.27 454.16,120.88 450.34,116.59 446.33,112.40 442.12,108.32 437.73,104.36 433.15,100.53 428.40,96.83 423.47,93.28 418.38,89.87 413.12,86.62 407.70,83.52 402.13,80.60 396.41,77.84 390.56,75.27 384.57,72.88 378.45,70.67 372.22,68.66 365.87,66.85 359.42,65.25 352.88,63.85 346.24,62.66 339.52,61.68 332.73,60.93 325.87,60.39 318.96,60.08 311.99,60.00 304.99,60.14 297.96,60.52 290.90,61.13 283.83,61.97 276.75,63.04 269.67,64.35 262.61,65.89 255.56,67.67 248.55,69.68 241.57,71.93 234.65,74.41 227.77,77.12 220.96,80.06 214.23,83.23 207.57,86.62 201.00,90.24 194.54,94.07 188.18,98.13 181.93,102.39 175.80,106.87 169.81,111.55 163.95,116.43 158.24,121.51 152.68,126.79 147.28,132.24 142.05,137.88 136.99,143.70 132.11,149.68 127.42,155.83 122.91,162.13 118.61,168.59 114.51,175.19 110.62,181.92 106.94,188.79 103.49,195.77 100.25,202.88 97.24,210.08 94.47,217.39 91.93,224.79 89.62,232.27 87.56,239.83 85.74,247.45 84.17,255.14 82.85,262.87 81.77,270.64 80.95,278.45 80.38,286.27 80.06,294.12 80.00,301.97 80.19,309.82 80.63,317.66 81.33,325.47 82.28,333.26 83.48,341.02 84.93,348.73 86.62,356.38 88.56,363.97 90.74,371.49 93.17,378.93 95.83,386.29 98.72,393.55 101.84,400.70 105.19,407.75 108.76,414.68 112.54,421.48 116.54,428.14 120.74,434.67 125.14,441.05 129.74,447.28 134.53,453.35 139.50,459.25 144.64,464.97 149.96,470.52 155.44,475.89 161.08,481.06 166.86,486.05 172.79,490.83 178.85,495.41 185.04,499.78 191.34,503.94 197.76,507.89 204.28,511.61 210.89,515.12 217.58,518.40 224.36,521.45 231.20,524.28 238.10,526.87 245.06,529.24 252.05,531.37 259.08,533.26 266.14,534.92 273.21,536.35 280.29,537.54 287.36,538.50 294.43,539.22 301.48,539.71 308.50,539.97 315.48,540.00 322.42,539.80 329.31,539.38 336.13,538.73 342.89,537.87 349.57,536.79 356.16,535.49 362.66,533.99 369.06,532.28 375.35,530.37 381.52,528.26 387.58,525.96 393.50,523.48 399.29,520.81 404.93,517.97 410.43,514.96 415.77,511.79 420.94,508.46 425.96,504.98 430.80,501.35 435.47,497.58 439.95,493.69 444.25,489.67 448.36,485.54 452.27,481.29 455.99,476.95 459.51,472.51 462.82,467.99 465.93,463.39 468.83,458.72 471.52,453.99 474.00,449.20 476.26,444.37 478.31,439.50 480.15,434.60 481.77,429.68 483.17,424.75 484.36,419.82 485.33,414.89 486.09,409.97 486.63,405.07 486.97,400.20 487.09,395.37 487.01,390.58 486.72,385.84 486.24,381.17 485.55,376.56 484.66,372.02 483.59,367.57 482.32,363.21 480.88,358.94 479.25,354.78 477.45,350.73 475.47,346.79 473.34,342.98 471.04,339.29 468.59,335.75 466.00,332.34 463.26,329.08 460.39,325.97 457.39,323.01 454.27,320.22 451.04,317.59 447.69,315.14 444.25,312.85 440.72,310.75 437.10,308.82 433.40,307.08 429.64,305.53 425.81,304.16 421.93,302.99 418.01,302.00 414.04,301.22 410.05,300.62 406.04,300.23 402.01,300.03 397.99,300.03 393.96,300.23 389.95,300.62 385.96,301.22 381.99,302.00 378.07,302.99 374.19,304.16 370.36,305.53 366.60,307.08 362.90,308.82 359.28,310.75 355.75,312.85 352.31,315.14 348.96,317.59 345.73,320.22 342.61,323.01 339.61,325.97 336.74,329.08 334.00,332.34 331.41,335.75 328.96,339.29 326.66,342.98 324.53,346.79 322.55,350.73 320.75,354.78 319.12,358.94 317.68,363.21 316.41,367.57 315.34,372.02 314.45,376.56 313.76,381.17 313.28,385.84 312.99,390.58 312.91,395.37 313.03,400.20 313.37,405.07 313.91,409.97 314.67,414.89 315.64,419.82 316.83,424.75 318.23,429.68 319.85,434.60 321.69,439.50 323.74,444.37 326.00,449.20 328.48,453.99 331.17,458.72 334.07,463.39 337.18,467.99 340.49,472.51 344.01,476.95 347.73,481.29 351.64,485.54 355.75,489.67 360.05,493.69 364.53,497.58 369.20,501.35 374.04,504.98 379.06,508.46 384.23,511.79 389.57,514.96 395.07,517.97 400.71,520.81 406.50,523.48 412.42,525.96 418.48,528.26 424.65,530.37 430.94,532.28 437.34,533.99 443.84,535.49 450.43,536.79 457.11,537.87 463.87,538.73 470.69,539.38 477.58,539.80 484.52,540.00 491.50,539.97 498.52,539.71 505.57,539.22 512.64,538.50 519.71,537.54 526.79,536.35 533.86,534.92 540.92,533.26 547.95,531.37 554.94,529.24 561.90,526.87 568.80,524.28 575.64,521.45 582.42,518.40 589.11,515.12 595.72,511.61 602.24,507.89 608.66,503.94 614.96,499.78 621.15,495.41 627.21,490.83 633.14,486.05 638.92,481.06 644.56,475.89 650.04,470.52 655.36,464.97 660.50,459.25 665.47,453.35 670.26,447.28 674.86,441.05 679.26,434.67 683.46,428.14 687.46,421.48 691.24,414.68 694.81,407.75 698.16,400.70 701.28,393.55 704.17,386.29 706.83,378.93 709.26,371.49 711.44,363.97 713.38,356.38 715.07,348.73 716.52,341.02 717.72,333.26 718.67,325.47 719.37,317.66 719.81,309.82 720.00,301.97 719.94,294.12 719.62,286.27 719.05,278.45 718.23,270.64 717.15,262.87 715.83,255.14 714.26,247.45 712.44,239.83 710.38,232.27 708.07,224.79 705.53,217.39 702.76,210.08 699.75,202.88 696.51,195.77 693.06,188.79 689.38,181.92 685.49,175.19 681.39,168.59 677.09,162.13 672.58,155.83 667.89,149.68 663.01,143.70 657.95,137.88 652.72,132.24 647.32,126.79 641.76,121.51 636.05,116.43 630.19,111.55 624.20,106.87 618.07,102.39 611.82,98.13 605.46,94.07 599.00,90.24 592.43,86.62 585.77,83.23 579.04,80.06 572.23,77.12 565.35,74.41 558.43,71.93 551.45,69.68 544.44,67.67 537.39,65.89 530.33,64.35 523.25,63.04 516.17,61.97 509.10,61.13 502.04,60.52 495.01,60.14 488.01,60.00 481.04,60.08 474.13,60.39 467.27,60.93 460.48,61.68 453.76,62.66 447.12,63.85 440.58,65.25 434.13,66.85 427.78,68.66 421.55,70.67 415.43,72.88 409.44,75.27 403.59,77.84 397.87,80.60 392.30,83.52 386.88,86.62 381.62,89.87 376.53,93.28 371.60,96.83 366.85,100.53 362.27,104.36 357.88,108.32 353.67,112.40 349.66,116.59 345.84,120.88 342.23,125.27 338.81,129.75 335.60,134.32 332.59,138.95 329.80,143.66 327.21,148.42 324.84,153.22 322.69,158.08 320.74,162.96 319.02,167.87 317.51,172.79 316.21,177.73 315.13,182.66 314.26,187.59 313.61,192.50 313.17,197.38 312.94,202.23 312.92,207.05 313.11,211.81 313.49,216.52 314.08,221.16 314.87,225.74 315.85,230.23 317.02,234.64 318.38,238.95 319.92,243.17 321.63,247.28 323.52,251.27 325.57,255.15 327.79,258.89 330.16,262.51 332.69,265.99 335.35,269.32 338.16,272.51 341.09,275.54 344.15,278.42 347.33,281.13 350.62,283.67 354.01,286.04 357.50,288.23 361.08,290.25 364.74,292.08 368.47,293.73 372.27,295.19 376.12,296.46 380.03,297.54 383.97,298.43 387.95,299.12 391.95,299.61 395.97,299.91 400.00,300.01 "/>
</svg>
