<?xml version="1.0" encoding="UTF-8"?>
<svg xmlns="http://www.w3.org/2000/svg" width="800" height="600">
  <title>R=t*cos(t):-2.5,2.5:</title>
  <rect width="800" height="600" fill="#ffffff"/>
  <g stroke="#d0d0d0" stroke-width="1">
    <line x1="45.65" y1="540.00" x2="45.65" y2="60.00"/>
    <line x1="96.27" y1="540.00" x2="96.27" y2="60.00"/>
    <line x1="146.90" y1="540.00" x2="146.90" y2="60.00"/>
    <line x1="197.52" y1="540.00" x2="197.52" y2="60.00"/>
    <line x1="248.14" y1="540.00" x2="248.14" y2="60.00"/>
    <line x1="298.76" y1="540.00" x2="298.76" y2="60.00"/>
    <line x1="349.38" y1="540.00" x2="349.38" y2="60.00"/>
    <line x1="400.00" y1="540.00" x2="400.00" y2="60.00"/>
    <line x1="450.62" y1="540.00" x2="450.62" y2="60.00"/>
    <line x1="501.24" y1="540.00" x2="501.24" y2="60.00"/>
    <line x1="551.86" y1="540.00" x2="551.86" y2="60.00"/>
    <line x1="602.48" y1="540.00" x2="602.48" y2="60.00"/>
    <line x1="653.10" y1="540.00" x2="653.10" y2="60.00"/>
    <line x1="703.73" y1="540.00" x2="703.73" y2="60.00"/>
    <line x1="754.35" y1="540.00" x2="754.35" y2="60.00"/>
    <line x1="80.00" y1="558.34" x2="720.00" y2="558.34"/>
    <line x1="80.00" y1="482.18" x2="720.00" y2="482.18"/>
    <line x1="80.00" y1="406.01" x2="720.00" y2="406.01"/>
    <line x1="80.00" y1="329.85" x2="720.00" y2="329.85"/>
    <line x1="80.00" y1="253.68" x2="720.00" y2="253.68"/>
    <line x1="80.00" y1="177.52" x2="720.00" y2="177.52"/>
    <line x1="80.00" y1="101.35" x2="720.00" y2="101.35"/>
    <line x1="80.00" y1="25.18" x2="720.00" y2="25.18"/>
  </g>
  <g stroke="#e8e8e8" stroke-width="0.5">
    <line x1="86.15" y1="540.00" x2="86.15" y2="60.00"/>
    <line x1="106.40" y1="540.00" x2="106.40" y2="60.00"/>
    <line x1="116.52" y1="540.00" x2="116.52" y2="60.00"/>
    <line x1="126.65" y1="540.00" x2="126.65" y2="60.00"/>
    <line x1="136.77" y1="540.00" x2="136.77" y2="60.00"/>
    <line x1="157.02" y1="540.00" x2="157.02" y2="60.00"/>
    <line x1="167.14" y1="540.00" x2="167.14" y2="60.00"/>
    <line x1="177.27" y1="540.00" x2="177.27" y2="60.00"/>
    <line x1="187.39" y1="540.00" x2="187.39" y2="60.00"/>
    <line x1="207.64" y1="540.00" x2="207.64" y2="60.00"/>
    <line x1="217.76" y1="540.00" x2="217.76" y2="60.00"/>
    <line x1="227.89" y1="540.00" x2="227.89" y2="60.00"/>
    <line x1="238.01" y1="540.00" x2="238.01" y2="60.00"/>
    <line x1="258.26" y1="540.00" x2="258.26" y2="60.00"/>
    <line x1="268.39" y1="540.00" x2="268.39" y2="60.00"/>
    <line x1="278.51" y1="540.00" x2="278.51" y2="60.00"/>
    <line x1="288.63" y1="540.00" x2="288.63" y2="60.00"/>
    <line x1="308.88" y1="540.00" x2="308.88" y2="60.00"/>
    <line x1="319.01" y1="540.00" x2="319.01" y2="60.00"/>
    <line x1="329.13" y1="540.00" x2="329.13" y2="60.00"/>
    <line x1="339.25" y1="540.00" x2="339.25" y2="60.00"/>
    <line x1="359.50" y1="540.00" x2="359.50" y2="60.00"/>
    <line x1="369.63" y1="540.00" x2="369.63" y2="60.00"/>
    <line x1="379.75" y1="540.00" x2="379.75" y2="60.00"/>
    <line x1="389.88" y1="540.00" x2="389.88" y2="60.00"/>
    <line x1="410.12" y1="540.00" x2="410.12" y2="60.00"/>
    <line x1="420.25" y1="540.00" x2="420.25" y2="60.00"/>
    <line x1="430.37" y1="540.00" x2="430.37" y2="60.00"/>
    <line x1="440.50" y1="540.00" x2="440.50" y2="60.00"/>
    <line x1="460.75" y1="540.00" x2="460.75" y2="60.00"/>
    <line x1="470.87" y1="540.00" x2="470.87" y2="60.00"/>
    <line x1="480.99" y1="540.00" x2="480.99" y2="60.00"/>
    <line x1="491.12" y1="540.00" x2="491.12" y2="60.00"/>
    <line x1="511.37" y1="540.00" x2="511.37" y2="60.00"/>
    <line x1="521.49" y1="540.00" x2="521.49" y2="60.00"/>
    <line x1="531.61" y1="540.00" x2="531.61" y2="60.00"/>
    <line x1="541.74" y1="540.00" x2="541.74" y2="60.00"/>
    <line x1="561.99" y1="540.00" x2="561.99" y2="60.00"/>
    <line x1="572.11" y1="540.00" x2="572.11" y2="60.00"/>
    <line x1="582.24" y1="540.00" x2="582.24" y2="60.00"/>
    <line x1="592.36" y1="540.00" x2="592.36" y2="60.00"/>
    <line x1="612.61" y1="540.00" x2="612.61" y2="60.00"/>
    <line x1="622.73" y1="540.00" x2="622.73" y2="60.00"/>
    <line x1="632.86" y1="540.00" x2="632.86" y2="60.00"/>
    <line x1="642.98" y1="540.00" x2="642.98" y2="60.00"/>
    <line x1="663.23" y1="540.00" x2="663.23" y2="60.00"/>
    <line x1="673.35" y1="540.00" x2="673.35" y2="60.00"/>
    <line x1="683.48" y1="540.00" x2="683.48" y2="60.00"/>
    <line x1="693.60" y1="540.00" x2="693.60" y2="60.00"/>
    <line x1="713.85" y1="540.00" x2="713.85" y2="60.00"/>
    <line x1="80.00" y1="527.88" x2="720.00" y2="527.88"/>
    <line x1="80.00" y1="512.64" x2="720.00" y2="512.64"/>
    <line x1="80.00" y1="497.41" x2="720.00" y2="497.41"/>
    <line x1="80.00" y1="466.94" x2="720.00" y2="466.94"/>
    <line x1="80.00" y1="451.71" x2="720.00" y2="451.71"/>
    <line x1="80.00" y1="436.48" x2="720.00" y2="436.48"/>
    <line x1="80.00" y1="421.24" x2="720.00" y2="421.24"/>
    <line x1="80.00" y1="390.78" x2="720.00" y2="390.78"/>
    <line x1="80.00" y1="375.54" x2="720.00" y2="375.54"/>
    <line x1="80.00" y1="360.31" x2="720.00" y2="360.31"/>
    <line x1="80.00" y1="345.08" x2="720.00" y2="345.08"/>
    <line x1="80.00" y1="314.61" x2="720.00" y2="314.61"/>
    <line x1="80.00" y1="299.38" x2="720.00" y2="299.38"/>
    <line x1="80.00" y1="284.15" x2="720.00" y2="284.15"/>
    <line x1="80.00" y1="268.91" x2="720.00" y2="268.91"/>
    <line x1="80.00" y1="238.45" x2="720.00" y2="238.45"/>
    <line x1="80.00" y1="223.21" x2="720.00" y2="223.21"/>
    <line x1="80.00" y1="207.98" x2="720.00" y2="207.98"/>
    <line x1="80.00" y1="192.75" x2="720.00" y2="192.75"/>
    <line x1="80.00" y1="162.28" x2="720.00" y2="162.28"/>
    <line x1="80.00" y1="147.05" x2="720.00" y2="147.05"/>
    <line x1="80.00" y1="131.82" x2="720.00" y2="131.82"/>
    <line x1="80.00" y1="116.58" x2="720.00" y2="116.58"/>
    <line x1="80.00" y1="86.12" x2="720.00" y2="86.12"/>
    <line x1="80.00" y1="70.88" x2="720.00" y2="70.88"/>
  </g>
  <g stroke="#808080" stroke-width="2">
    <line x1="400.00" y1="540.00" x2="400.00" y2="60.00"/>
    <line x1="80.00" y1="329.85" x2="720.00" y2="329.85"/>
  </g>
  <polyline fill="none" stroke="#0066cc" stroke-width="2" points="400.00,329.85 399.61,311.10 398.44,292.58 396.51,274.36 393.83,256.51 390.43,239.10 386.32,222.18 381.54,205.84 376.11,190.12 370.05,175.09 363.42,160.79 356.22,147.29 348.52,134.63 340.33,122.85 331.71,112.00 322.70,102.10 313.33,93.20 303.65,85.31 293.71,78.47 283.55,72.68 273.21,67.97 262.75,64.35 252.21,61.81 241.64,60.36 231.07,60.00 220.57,60.72 210.16,62.50 199.91,65.33 189.84,69.19 180.01,74.06 170.44,79.90 161.19,86.68 152.29,94.37 143.78,102.93 135.68,112.32 128.04,122.48 120.87,133.38 114.22,144.96 108.10,157.17 102.54,169.95 97.55,183.25 93.16,197.01 89.38,211.16 86.23,225.66 83.70,240.43 81.82,255.41 80.59,270.55 80.00,285.77 80.06,301.02 80.76,316.23 82.10,331.35 84.07,346.31 86.66,361.06 89.85,375.53 93.63,389.67 97.99,403.43 102.89,416.76 108.32,429.60 114.26,441.91 120.68,453.64 127.54,464.76 134.83,475.22 142.51,484.99 150.55,494.03 158.92,502.33 167.57,509.84 176.49,516.55 185.62,522.45 194.94,527.51 204.41,531.72 213.99,535.08 223.65,537.58 233.34,539.22 243.03,540.00 252.69,539.93 262.28,539.03 271.76,537.29 281.11,534.75 290.28,531.41 299.25,527.30 307.98,522.45 316.44,516.89 324.61,510.64 332.46,503.74 339.97,496.23 347.10,488.14 353.85,479.51 360.19,470.38 366.10,460.81 371.56,450.82 376.57,440.47 381.11,429.81 385.17,418.88 388.75,407.73 391.83,396.41 394.42,384.97 396.52,373.45 398.12,361.91 399.23,350.38 399.85,338.93 399.99,327.59 399.66,316.41 398.87,305.43 397.64,294.70 395.97,284.26 393.89,274.14 391.40,264.39 388.53,255.03 385.31,246.11 381.74,237.65 377.86,229.68 373.68,222.23 369.24,215.33 364.56,208.98 359.66,203.21 354.56,198.04 349.31,193.48 343.92,189.54 338.42,186.23 332.85,183.54 327.22,181.49 321.57,180.07 315.92,179.28 310.29,179.12 304.73,179.56 299.24,180.61 293.87,182.25 288.62,184.46 283.53,187.23 278.61,190.53 273.89,194.34 269.39,198.64 265.12,203.41 261.11,208.60 257.36,214.21 253.90,220.19 250.74,226.51 247.89,233.14 245.36,240.05 243.15,247.21 241.28,254.57 239.75,262.11 238.57,269.79 237.73,277.57 237.24,285.43 237.10,293.32 237.30,301.20 237.84,309.06 238.72,316.85 239.93,324.54 241.46,332.10 243.30,339.50 245.45,346.71 247.88,353.71 250.59,360.46 253.57,366.95 256.79,373.15 260.25,379.03 263.92,384.59 267.80,389.80 271.86,394.65 276.08,399.12 280.45,403.20 284.94,406.88 289.55,410.15 294.24,413.02 299.01,415.47 303.82,417.50 308.67,419.11 313.53,420.31 318.38,421.10 323.21,421.48 328.00,421.46 332.73,421.06 337.38,420.28 341.95,419.13 346.41,417.64 350.75,415.81 354.96,413.66 359.02,411.21 362.93,408.48 366.67,405.49 370.23,402.25 373.60,398.80 376.79,395.15 379.78,391.33 382.56,387.35 385.14,383.24 387.50,379.03 389.66,374.73 391.60,370.38 393.33,365.99 394.86,361.58 396.17,357.19 397.28,352.82 398.19,348.50 398.91,344.26 399.44,340.10 399.79,336.05 399.97,332.13 399.99,328.35 399.85,324.73 399.57,321.27 399.15,318.00 398.62,314.93 397.97,312.06 397.22,309.40 396.39,306.96 395.48,304.74 394.51,302.76 393.49,301.01 392.43,299.49 391.35,298.21 390.25,297.16 389.15,296.34 388.06,295.74 386.99,295.37 385.96,295.20 384.96,295.25 384.02,295.49 383.14,295.92 382.33,296.53 381.59,297.30 380.94,298.23 380.39,299.29 379.93,300.49 379.57,301.79 379.32,303.19 379.18,304.68 379.15,306.23 379.24,307.83 379.44,309.47 379.75,311.13 380.19,312.80 380.73,314.46 381.38,316.09 382.14,317.69 383.01,319.23 383.97,320.71 385.03,322.12 386.18,323.43 387.40,324.65 388.70,325.76 390.07,326.75 391.50,327.61 392.97,328.34 394.49,328.93 396.04,329.38 397.62,329.68 399.20,329.83 400.80,329.83 402.38,329.68 403.96,329.38 405.51,328.93 407.03,328.34 408.50,327.61 409.93,326.75 411.30,325.76 412.60,324.65 413.82,323.43 414.97,322.12 416.03,320.71 416.99,319.23 417.86,317.69 418.62,316.09 419.27,314.46 419.81,312.80 420.25,311.13 420.56,309.47 420.76,307.83 420.85,306.23 420.82,304.68 420.68,303.19 420.43,301.79 420.07,300.49 419.61,299.29 419.06,298.23 418.41,297.30 417.67,296.53 416.86,295.92 415.98,295.49 415.04,295.25 414.04,295.20 413.01,295.37 411.94,295.74 410.85,296.34 409.75,297.16 408.65,298.21 407.57,299.49 406.51,301.01 405.49,302.76 404.52,304.74 403.61,306.96 402.78,309.40 402.03,312.06 401.38,314.93 400.85,318.00 400.43,321.27 400.15,324.73 400.01,328.35 400.03,332.13 400.21,336.05 400.56,340.10 401.09,344.26 401.81,348.50 402.72,352.82 403.83,357.19 405.14,361.58 406.67,365.99 408.40,370.38 410.34,374.73 412.50,379.03 414.86,383.24 417.44,387.35 420.22,391.33 423.21,395.15 426.40,398.80 429.77,402.25 433.33,405.49 437.07,408.48 440.98,411.21 445.04,413.66 449.25,415.81 453.59,417.64 458.05,419.13 462.62,420.28 467.27,421.06 472.00,421.46 476.79,421.48 481.62,421.10 486.47,420.31 491.33,419.11 496.18,417.50 500.99,415.47 505.76,413.02 510.45,410.15 515.06,406.88 519.55,403.20 523.92,399.12 528.14,394.65 532.20,389.80 536.08,384.59 539.75,379.03 543.21,373.15 546.43,366.95 549.41,360.46 552.12,353.71 554.55,346.71 556.70,339.50 558.54,332.10 560.07,324.54 561.28,316.85 562.16,309.06 562.70,301.20 562.90,293.32 562.76,285.43 562.27,277.57 561.43,269.79 560.25,262.11 558.72,254.57 556.85,247.21 554.64,240.05 552.11,233.14 549.26,226.51 546.10,220.19 542.64,214.21 538.89,208.60 534.88,203.41 530.61,198.64 526.11,194.34 521.39,190.53 516.47,187.23 511.38,184.46 506.13,182.25 500.76,180.61 495.27,179.56 489.71,179.12 484.08,179.28 478.43,180.07 472.78,181.49 467.15,183.54 461.58,186.23 456.08,189.54 450.69,193.48 445.44,198.04 440.34,203.21 435.44,208.98 430.76,215.33 426.32,222.23 422.14,229.68 418.26,237.65 414.69,246.11 411.47,255.03 408.60,264.39 406.11,274.14 404.03,284.26 402.36,294.70 401.13,305.43 400.34,316.41 400.01,327.59 400.15,338.93 400.77,350.38 401.88,361.91 403.48,373.45 405.58,384.97 408.17,396.41 411.25,407.73 414.83,418.88 418.89,429.81 423.43,440.47 428.44,450.82 433.90,460.81 439.81,470.38 446.15,479.51 452.90,488.14 460.03,496.23 467.54,503.74 475.39,510.64 483.56,516.89 492.02,522.45 500.75,527.30 509.72,531.41 518.89,534.75 528.24,537.29 537.72,539.03 547.31,539.93 556.97,540.00 566.66,539.22 576.35,537.58 586.01,535.08 595.59,531.72 605.06,527.51 614.38,522.45 623.51,516.55 632.43,509.84 641.08,502.33 649.45,494.03 657.49,484.99 665.17,475.22 672.46,464.76 679.32,453.64 685.74,441.91 691.68,429.60 697.11,416.76 702.01,403.43 706.37,389.67 710.15,375.53 713.34,361.06 715.93,346.31 717.90,331.35 719.24,316.23 719.94,301.02 720.00,285.77 719.41,270.55 718.18,255.41 716.30,240.43 713.77,225.66 710.62,211.16 706.84,197.01 702.45,183.25 697.46,169.95 691.90,157.17 685.78,144.96 679.13,133.38 671.96,122.48 664.32,112.32 656.22,102.93 647.71,94.37 638.81,86.68 629.56,79.90 619.99,74.06 610.16,69.19 600.09,65.33 589.84,62.50 579.43,60.72 568.93,60.00 558.36,60.36 547.79,61.81 537.25,64.35 526.79,67.97 516.45,72.68 506.29,78.47 496.35,85.31 486.67,93.20 477.30,102.10 468.29,112.00 459.67,122.85 451.48,134.63 443.78,147.29 436.58,160.79 429.95,175.09 423.89,190.12 418.46,205.84 413.68,222.18 409.57,239.10 406.17,256.51 403.49,274.36 401.56,292.58 400.39,311.10 400.00,329.85 "/>
</svg>
