<?xml version="1.0" encoding="UTF-8"?>
<svg xmlns="http://www.w3.org/2000/svg" width="800" height="600">
  <title>R=sin(t*3/2):-.25,2.93:</title>
  <rect width="800" height="600" fill="#ffffff"/>
  <g stroke="#d0d0d0" stroke-width="1">
    <line x1="54.48" y1="540.00" x2="54.48" y2="60.00"/>
    <line x1="387.24" y1="540.00" x2="387.24" y2="60.00"/>
    <line x1="720.00" y1="540.00" x2="720.00" y2="60.00"/>
    <line x1="80.00" y1="564.39" x2="720.00" y2="564.39"/>
    <line x1="80.00" y1="300.01" x2="720.00" y2="300.01"/>
    <line x1="80.00" y1="35.63" x2="720.00" y2="35.63"/>
  </g>
  <g stroke="#e8e8e8" stroke-width="0.5">
    <line x1="121.03" y1="540.00" x2="121.03" y2="60.00"/>
    <line x1="187.58" y1="540.00" x2="187.58" y2="60.00"/>
    <line x1="254.14" y1="540.00" x2="254.14" y2="60.00"/>
    <line x1="320.69" y1="540.00" x2="320.69" y2="60.00"/>
    <line x1="453.79" y1="540.00" x2="453.79" y2="60.00"/>
    <line x1="520.35" y1="540.00" x2="520.35" y2="60.00"/>
    <line x1="586.90" y1="540.00" x2="586.90" y2="60.00"/>
    <line x1="653.45" y1="540.00" x2="653.45" y2="60.00"/>
    <line x1="80.00" y1="511.51" x2="720.00" y2="511.51"/>
    <line x1="80.00" y1="458.64" x2="720.00" y2="458.64"/>
    <line x1="80.00" y1="405.76" x2="720.00" y2="405.76"/>
    <line x1="80.00" y1="352.88" x2="720.00" y2="352.88"/>
    <line x1="80.00" y1="247.13" x2="720.00" y2="247.13"/>
    <line x1="80.00" y1="194.26" x2="720.00" y2="194.26"/>
    <line x1="80.00" y1="141.38" x2="720.00" y2="141.38"/>
    <line x1="80.00" y1="88.50" x2="720.00" y2="88.50"/>
  </g>
  <g stroke="#808080" stroke-width="2">
    <line x1="387.24" y1="540.00" x2="387.24" y2="60.00"/>
    <line x1="80.00" y1="300.01" x2="720.00" y2="300.01"/>
  </g>
  <polyline fill="none" stroke="#0066cc" stroke-width="2" points="169.85,127.29 168.40,132.97 167.35,138.76 166.70,144.67 166.46,150.66 166.64,156.74 167.24,162.87 168.26,169.04 169.69,175.24 171.55,181.46 173.83,187.66 176.53,193.84 179.65,199.98 183.18,206.07 187.11,212.09 191.45,218.02 196.18,223.84 201.30,229.55 206.80,235.12 212.66,240.54 218.88,245.81 225.44,250.89 232.34,255.79 239.56,260.48 247.08,264.96 254.89,269.21 262.98,273.23 271.32,277.00 279.91,280.51 288.72,283.75 297.73,286.72 306.94,289.40 316.31,291.79 325.83,293.89 335.48,295.69 345.24,297.18 355.09,298.35 365.00,299.22 374.96,299.77 384.95,300.00 394.94,299.91 404.91,299.51 414.85,298.79 424.73,297.76 434.53,296.41 444.24,294.75 453.82,292.79 463.26,290.54 472.54,287.98 481.65,285.15 490.56,282.03 499.25,278.64 507.71,274.99 515.91,271.09 523.85,266.94 531.51,262.57 538.87,257.97 545.91,253.16 552.63,248.16 559.01,242.98 565.04,237.63 570.71,232.12 576.00,226.48 580.91,220.70 585.43,214.82 589.55,208.84 593.26,202.79 596.57,196.67 599.46,190.50 601.93,184.31 603.99,178.10 605.62,171.89 606.83,165.70 607.62,159.54 607.99,153.44 607.94,147.41 607.48,141.46 606.61,135.61 605.34,129.88 603.68,124.28 601.63,118.83 599.20,113.54 596.40,108.42 593.25,103.50 589.75,98.78 585.91,94.28 581.76,90.01 577.29,85.98 572.54,82.20 567.51,78.69 562.22,75.46 556.68,72.51 550.92,69.85 544.95,67.49 538.79,65.45 532.46,63.72 525.98,62.31 519.36,61.23 512.64,60.49 505.82,60.07 498.93,60.00 491.99,60.27 485.02,60.87 478.03,61.82 471.06,63.12 464.12,64.75 457.24,66.72 450.42,69.02 443.70,71.65 437.09,74.62 430.62,77.90 424.29,81.49 418.14,85.40 412.17,89.61 406.41,94.10 400.88,98.88 395.59,103.94 390.55,109.25 385.79,114.82 381.31,120.63 377.14,126.66 373.28,132.91 369.75,139.36 366.55,146.00 363.71,152.81 361.22,159.78 359.10,166.90 357.36,174.14 356.00,181.49 355.03,188.94 354.45,196.47 354.28,204.07 354.50,211.71 355.12,219.38 356.15,227.07 357.58,234.76 359.41,242.42 361.64,250.05 364.27,257.63 367.29,265.14 370.69,272.56 374.48,279.88 378.64,287.09 383.16,294.17 388.04,301.09 393.26,307.86 398.81,314.45 404.69,320.86 410.88,327.06 417.36,333.04 424.12,338.80 431.15,344.32 438.43,349.59 445.94,354.60 453.67,359.34 461.59,363.80 469.70,367.98 477.97,371.86 486.38,375.43 494.91,378.70 503.55,381.66 512.27,384.30 521.05,386.62 529.87,388.62 538.72,390.29 547.56,391.64 556.39,392.66 565.17,393.35 573.89,393.71 582.53,393.76 591.06,393.48 599.47,392.89 607.73,391.98 615.84,390.77 623.75,389.26 631.47,387.45 638.96,385.36 646.22,382.99 653.22,380.36 659.95,377.46 666.39,374.32 672.52,370.93 678.34,367.33 683.82,363.51 688.96,359.49 693.74,355.28 698.14,350.89 702.17,346.35 705.81,341.67 709.04,336.85 711.87,331.92 714.29,326.88 716.29,321.77 717.86,316.58 719.01,311.35 719.72,306.08 720.00,300.79 719.85,295.50 719.26,290.22 718.24,284.97 716.80,279.77 714.93,274.64 712.63,269.58 709.92,264.62 706.81,259.76 703.29,255.04 699.37,250.45 695.08,246.02 690.41,241.76 685.38,237.68 679.99,233.80 674.28,230.13 668.23,226.68 661.88,223.46 655.24,220.49 648.32,217.78 641.13,215.33 633.71,213.15 626.06,211.26 618.20,209.66 610.15,208.36 601.93,207.37 593.56,206.68 585.06,206.31 576.45,206.26 567.76,206.53 558.99,207.12 550.18,208.04 541.34,209.29 532.49,210.87 523.66,212.77 514.86,214.99 506.12,217.54 497.46,220.40 488.89,223.58 480.44,227.07 472.13,230.86 463.97,234.95 455.99,239.33 448.20,243.99 440.62,248.92 433.28,254.11 426.17,259.56 419.33,265.25 412.76,271.17 406.49,277.30 400.52,283.65 394.87,290.19 389.54,296.90 384.56,303.79 379.94,310.82 375.67,317.99 371.77,325.28 368.25,332.68 365.12,340.16 362.38,347.72 360.03,355.34 358.08,362.99 356.53,370.67 355.38,378.36 354.64,386.04 354.30,393.69 354.36,401.30 354.82,408.85 355.67,416.33 356.92,423.71 358.55,430.99 360.56,438.14 362.93,445.16 365.67,452.02 368.77,458.71 372.20,465.22 375.96,471.53 380.05,477.63 384.43,483.50 389.11,489.14 394.07,494.53 399.29,499.67 404.75,504.53 410.45,509.11 416.35,513.40 422.45,517.40 428.73,521.09 435.16,524.46 441.74,527.52 448.43,530.25 455.21,532.66 462.08,534.72 469.01,536.45 475.97,537.85 482.95,538.90 489.93,539.61 496.88,539.97 503.79,540.00 510.63,539.69 517.39,539.04 524.04,538.06 530.56,536.75 536.94,535.11 543.15,533.16 549.18,530.89 555.00,528.33 560.61,525.46 565.97,522.31 571.08,518.88 575.92,515.18 580.47,511.23 584.72,507.03 588.65,502.59 592.25,497.93 595.51,493.07 598.41,488.01 600.95,482.77 603.11,477.36 604.89,471.81 606.28,466.11 607.27,460.30 607.85,454.38 608.02,448.37 607.77,442.28 607.11,436.14 606.02,429.96 604.51,423.76 602.58,417.55 600.23,411.34 597.47,405.17 594.28,399.03 590.69,392.96 586.69,386.95 582.28,381.04 577.49,375.24 572.31,369.55 566.75,364.00 560.83,358.60 554.55,353.37 547.93,348.31 540.98,343.45 533.72,338.79 526.15,334.34 518.29,330.13 510.16,326.15 501.77,322.43 493.15,318.96 484.30,315.76 475.25,312.84 466.02,310.20 456.62,307.86 447.08,305.81 437.41,304.07 427.64,302.63 417.78,301.50 407.86,300.69 397.89,300.19 387.90,300.01 377.91,300.15 367.94,300.60 358.01,301.37 348.14,302.46 338.35,303.86 328.67,305.56 319.11,307.57 309.69,309.88 300.44,312.48 291.36,315.36 282.49,318.52 273.84,321.96 265.42,325.65 257.25,329.59 249.36,333.77 241.75,338.19 234.44,342.82 227.45,347.66 220.78,352.69 214.46,357.90 208.49,363.28 202.89,368.81 197.66,374.48 192.81,380.27 188.35,386.17 184.30,392.16 180.65,398.23 177.41,404.35 174.59,410.53 172.18,416.73 170.20,422.94 168.64,429.14 167.50,435.33 166.78,441.47 166.47,447.57 166.59,453.59 167.12,459.52 168.05,465.35 169.38,471.06 171.11,476.64 173.22,482.07 175.71,487.33 178.57,492.41 181.78,497.30 185.34,501.99 189.23,506.45 193.44,510.69 197.95,514.67 202.75,518.41 207.82,521.87 213.15,525.06 218.73,527.97 224.52,530.57 230.53,532.88 236.71,534.87 243.07,536.55 249.58,537.90 256.21,538.93 262.95,539.62 269.78,539.98 276.68,540.00 283.63,539.67 290.61,539.01 297.59,538.00 304.56,536.66 311.49,534.97 318.36,532.95 325.16,530.59 331.87,527.90 338.46,524.89 344.91,521.55 351.21,517.90 357.33,513.95 363.27,509.69 368.99,505.15 374.48,500.32 379.74,495.23 384.73,489.87 389.45,484.26 393.87,478.42 398.00,472.35 401.80,466.06 405.28,459.58 408.42,452.91 411.21,446.07 413.63,439.08 415.69,431.94 417.37,424.68 418.67,417.31 419.57,409.85 420.08,402.30 420.20,394.70 419.91,387.05 419.22,379.38 418.13,371.69 416.63,364.01 414.73,356.35 412.44,348.72 409.75,341.16 406.66,333.66 403.20,326.25 399.35,318.95 395.13,311.76 390.55,304.71 385.62,297.80 380.34,291.06 374.73,284.50 368.80,278.13 362.56,271.96 356.04,266.02 349.23,260.30 342.16,254.82 334.84,249.59 327.29,244.62 319.53,239.93 311.58,235.51 303.44,231.39 295.15,227.56 286.72,224.03 278.16,220.81 269.51,217.90 260.78,215.31 251.99,213.04 243.16,211.10 234.32,209.48 225.47,208.19 216.65,207.23 207.88,206.59 199.17,206.27 190.55,206.28 182.04,206.61 173.65,207.26 165.41,208.21 157.34,209.47 149.45,211.03 141.77,212.89 134.31,215.02 127.10,217.44 120.14,220.12 113.46,223.05 107.07,226.24 100.99,229.66 95.22,233.30 89.80,237.15 84.72,241.21 80.00,245.44 "/>
</svg>
