<?xml version="1.0" encoding="UTF-8"?>
<svg xmlns="http://www.w3.org/2000/svg" width="800" height="600">
  <title>R=sin(1.5*t+pi/2):.25,1.77:</title>
  <rect width="800" height="600" fill="#ffffff"/>
  <g stroke="#d0d0d0" stroke-width="1">
    <line x1="-82.32" y1="540.00" x2="-82.32" y2="60.00"/>
    <line x1="400.00" y1="540.00" x2="400.00" y2="60.00"/>
    <line x1="882.33" y1="540.00" x2="882.33" y2="60.00"/>
    <line x1="80.00" y1="576.34" x2="720.00" y2="576.34"/>
    <line x1="80.00" y1="182.02" x2="720.00" y2="182.02"/>
    <line x1="80.00" y1="-212.30" x2="720.00" y2="-212.30"/>
  </g>
  <g stroke="#e8e8e8" stroke-width="0.5">
    <line x1="110.61" y1="540.00" x2="110.61" y2="60.00"/>
    <line x1="207.07" y1="540.00" x2="207.07" y2="60.00"/>
    <line x1="303.54" y1="540.00" x2="303.54" y2="60.00"/>
    <line x1="496.47" y1="540.00" x2="496.47" y2="60.00"/>
    <line x1="592.93" y1="540.00" x2="592.93" y2="60.00"/>
    <line x1="689.40" y1="540.00" x2="689.40" y2="60.00"/>
    <line x1="80.00" y1="497.47" x2="720.00" y2="497.47"/>
    <line x1="80.00" y1="418.61" x2="720.00" y2="418.61"/>
    <line x1="80.00" y1="339.75" x2="720.00" y2="339.75"/>
    <line x1="80.00" y1="260.88" x2="720.00" y2="260.88"/>
    <line x1="80.00" y1="103.16" x2="720.00" y2="103.16"/>
  </g>
  <g stroke="#808080" stroke-width="2">
    <line x1="400.00" y1="540.00" x2="400.00" y2="60.00"/>
    <line x1="80.00" y1="182.02" x2="720.00" y2="182.02"/>
  </g>
  <polyline fill="none" stroke="#0066cc" stroke-width="2" points="530.52,75.32 524.77,78.05 519.07,80.88 513.43,83.81 507.84,86.83 502.32,89.96 496.85,93.18 491.46,96.50 486.13,99.91 480.87,103.42 475.68,107.01 470.57,110.70 465.54,114.47 460.59,118.32 455.73,122.26 450.95,126.29 446.27,130.39 441.67,134.57 437.17,138.83 432.77,143.17 428.46,147.57 424.25,152.05 420.15,156.60 416.15,161.21 412.26,165.88 408.48,170.62 404.81,175.42 401.25,180.27 397.80,185.18 394.47,190.14 391.26,195.16 388.17,200.22 385.19,205.32 382.34,210.47 379.61,215.66 377.01,220.88 374.53,226.15 372.18,231.44 369.96,236.77 367.86,242.12 365.89,247.50 364.06,252.90 362.35,258.32 360.78,263.75 359.33,269.20 358.02,274.66 356.85,280.13 355.80,285.61 354.89,291.09 354.11,296.57 353.47,302.05 352.96,307.53 352.58,312.99 352.34,318.45 352.23,323.89 352.25,329.32 352.40,334.73 352.69,340.12 353.11,345.49 353.66,350.83 354.33,356.14 355.14,361.42 356.08,366.66 357.14,371.87 358.33,377.04 359.65,382.16 361.08,387.25 362.65,392.28 364.33,397.27 366.13,402.20 368.06,407.08 370.10,411.90 372.25,416.67 374.52,421.37 376.90,426.01 379.39,430.58 381.99,435.08 384.70,439.52 387.51,443.88 390.43,448.16 393.44,452.37 396.56,456.50 399.77,460.55 403.07,464.52 406.46,468.40 409.95,472.20 413.52,475.90 417.17,479.52 420.91,483.05 424.73,486.48 428.62,489.81 432.58,493.05 436.62,496.19 440.73,499.24 444.90,502.18 449.13,505.01 453.42,507.75 457.77,510.38 462.17,512.90 466.63,515.32 471.13,517.63 475.67,519.82 480.26,521.91 484.89,523.89 489.55,525.76 494.24,527.51 498.96,529.15 503.71,530.68 508.48,532.09 513.27,533.39 518.08,534.57 522.89,535.63 527.72,536.58 532.56,537.42 537.39,538.14 542.23,538.74 547.06,539.22 551.89,539.59 556.71,539.84 561.51,539.98 566.30,540.00 571.06,539.90 575.81,539.69 580.52,539.36 585.21,538.92 589.86,538.37 594.48,537.70 599.06,536.92 603.60,536.03 608.09,535.02 612.53,533.91 616.92,532.68 621.26,531.35 625.54,529.91 629.75,528.37 633.91,526.72 638.00,524.96 642.01,523.10 645.96,521.15 649.83,519.09 653.62,516.93 657.33,514.68 660.96,512.33 664.50,509.88 667.96,507.35 671.32,504.72 674.59,502.00 677.76,499.20 680.83,496.31 683.81,493.34 686.68,490.29 689.44,487.16 692.10,483.95 694.65,480.67 697.09,477.31 699.41,473.88 701.62,470.38 703.71,466.82 705.68,463.19 707.54,459.50 709.27,455.75 710.87,451.94 712.35,448.08 713.70,444.16 714.93,440.20 716.02,436.18 716.99,432.13 717.82,428.02 718.52,423.88 719.09,419.70 719.52,415.49 719.82,411.24 719.98,406.97 720.00,402.66 719.88,398.34 719.63,393.99 719.24,389.62 718.71,385.23 718.04,380.83 717.23,376.42 716.28,372.00 715.19,367.58 713.96,363.15 712.59,358.72 711.09,354.29 709.44,349.87 707.65,345.46 705.73,341.06 703.67,336.67 701.47,332.29 699.13,327.94 696.66,323.60 694.05,319.29 691.31,315.00 688.43,310.75 685.43,306.52 682.29,302.33 679.02,298.17 675.62,294.06 672.10,289.98 668.44,285.95 664.67,281.96 660.77,278.03 656.75,274.14 652.61,270.31 648.35,266.53 643.98,262.81 639.49,259.15 634.89,255.56 630.18,252.03 625.36,248.56 620.43,245.16 615.41,241.84 610.27,238.58 605.04,235.40 599.72,232.30 594.29,229.28 588.78,226.33 583.18,223.47 577.49,220.69 571.71,218.00 565.85,215.39 559.92,212.87 553.91,210.44 547.82,208.11 541.67,205.86 535.44,203.71 529.16,201.66 522.81,199.70 516.40,197.84 509.93,196.08 503.42,194.42 496.85,192.86 490.24,191.40 483.58,190.05 476.88,188.79 470.15,187.65 463.38,186.60 456.59,185.67 449.76,184.83 442.91,184.11 436.04,183.49 429.16,182.98 422.26,182.58 415.35,182.29 408.43,182.10 401.51,182.02 394.58,182.05 387.66,182.19 380.75,182.44 373.84,182.79 366.95,183.26 360.07,183.83 353.21,184.51 346.38,185.29 339.57,186.18 332.79,187.18 326.04,188.28 319.33,189.49 312.65,190.80 306.02,192.21 299.43,193.73 292.90,195.35 286.41,197.06 279.97,198.88 273.60,200.80 267.28,202.81 261.03,204.92 254.85,207.12 248.73,209.42 242.69,211.81 236.72,214.29 230.83,216.85 225.01,219.51 219.29,222.25 213.65,225.08 208.09,227.99 202.63,230.98 197.26,234.05 191.99,237.19 186.81,240.41 181.74,243.71 176.77,247.08 171.90,250.51 167.15,254.02 162.50,257.58 157.96,261.22 153.54,264.91 149.23,268.66 145.04,272.47 140.96,276.33 137.01,280.25 133.18,284.21 129.48,288.22 125.90,292.28 122.45,296.38 119.12,300.52 115.93,304.70 112.86,308.91 109.93,313.15 107.13,317.42 104.46,321.73 101.93,326.05 99.54,330.40 97.28,334.77 95.15,339.15 93.17,343.55 91.32,347.96 89.62,352.37 88.05,356.80 86.62,361.23 85.33,365.66 84.18,370.08 83.17,374.50 82.30,378.92 81.57,383.32 80.98,387.71 80.53,392.09 80.21,396.45 80.04,400.79 80.00,405.10 80.10,409.39 80.34,413.65 80.71,417.88 81.22,422.07 81.86,426.23 82.64,430.35 83.54,434.43 84.58,438.46 85.75,442.45 87.05,446.38 88.48,450.27 90.03,454.10 91.70,457.88 93.50,461.60 95.42,465.25 97.46,468.84 99.62,472.37 101.89,475.83 104.28,479.22 106.78,482.53 109.39,485.78 112.11,488.94 114.94,492.03 117.87,495.03 120.90,497.96 124.03,500.80 127.25,503.55 130.58,506.22 133.99,508.79 137.50,511.28 141.09,513.67 144.76,515.96 148.52,518.16 152.36,520.26 156.27,522.27 160.26,524.17 164.31,525.97 168.44,527.66 172.63,529.25 176.88,530.74 181.19,532.12 185.56,533.39 189.98,534.55 194.45,535.60 198.97,536.54 203.53,537.37 208.13,538.09 212.77,538.70 217.44,539.19 222.15,539.56 226.88,539.82 231.64,539.97 236.41,540.00 241.21,539.91 246.02,539.71 250.84,539.40 255.67,538.96 260.51,538.41 265.35,537.74 270.18,536.96 275.01,536.06 279.84,535.04 284.65,533.91 289.45,532.67 294.22,531.30 298.98,529.83 303.72,528.24 308.42,526.53 313.10,524.71 317.74,522.79 322.34,520.74 326.91,518.59 331.43,516.33 335.90,513.96 340.33,511.49 344.70,508.90 349.02,506.21 353.28,503.42 357.47,500.52 361.61,497.53 365.68,494.43 369.67,491.23 373.60,487.94 377.45,484.55 381.22,481.06 384.91,477.49 388.52,473.82 392.04,470.06 395.47,466.22 398.81,462.29 402.07,458.27 405.22,454.18 408.28,450.00 411.24,445.75 414.09,441.42 416.85,437.02 419.49,432.54 422.03,428.00 424.46,423.39 426.78,418.72 428.99,413.98 431.08,409.18 433.05,404.33 434.91,399.42 436.64,394.45 438.26,389.44 439.75,384.38 441.12,379.27 442.36,374.12 443.48,368.93 444.47,363.70 445.33,358.43 446.07,353.14 446.67,347.81 447.15,342.45 447.49,337.08 447.70,331.67 447.78,326.25 447.73,320.82 447.54,315.36 447.23,309.90 446.77,304.43 446.19,298.95 445.47,293.47 444.61,287.99 443.63,282.51 442.51,277.04 441.26,271.57 439.87,266.12 438.35,260.67 436.70,255.25 434.92,249.84 433.01,244.45 430.97,239.09 428.81,233.75 426.51,228.44 424.08,223.17 421.54,217.92 418.86,212.72 416.06,207.55 413.14,202.43 410.10,197.35 406.94,192.31 403.66,187.33 400.27,182.40 396.76,177.52 393.13,172.70 389.40,167.93 385.56,163.23 381.60,158.59 377.55,154.02 373.38,149.51 369.12,145.07 364.76,140.71 360.30,136.41 355.74,132.20 351.10,128.06 346.36,124.00 341.53,120.02 336.62,116.13 331.63,112.32 326.55,108.60 321.40,104.97 316.17,101.42 310.87,97.97 305.50,94.61 300.07,91.35 294.57,88.18 289.01,85.11 283.39,82.14 277.71,79.26 271.99,76.49 266.21,73.82 260.39,71.25 254.53,68.79 248.62,66.43 242.68,64.18 236.71,62.04 230.71,60.00 "/>
</svg>
