<?xml version="1.0" encoding="UTF-8"?>
<svg xmlns="http://www.w3.org/2000/svg" width="800" height="600">
  <title>R=cos(t/2):0,4:</title>
  <rect width="800" height="600" fill="#ffffff"/>
  <g stroke="#d0d0d0" stroke-width="1">
    <line x1="79.97" y1="540.00" x2="79.97" y2="60.00"/>
    <line x1="399.98" y1="540.00" x2="399.98" y2="60.00"/>
    <line x1="720.00" y1="540.00" x2="720.00" y2="60.00"/>
    <line x1="80.00" y1="611.77" x2="720.00" y2="611.77"/>
    <line x1="80.00" y1="300.00" x2="720.00" y2="300.00"/>
    <line x1="80.00" y1="-11.77" x2="720.00" y2="-11.77"/>
  </g>
  <g stroke="#e8e8e8" stroke-width="0.5">
    <line x1="143.97" y1="540.00" x2="143.97" y2="60.00"/>
    <line x1="207.97" y1="540.00" x2="207.97" y2="60.00"/>
    <line x1="271.98" y1="540.00" x2="271.98" y2="60.00"/>
    <line x1="335.98" y1="540.00" x2="335.98" y2="60.00"/>
    <line x1="463.99" y1="540.00" x2="463.99" y2="60.00"/>
    <line x1="527.99" y1="540.00" x2="527.99" y2="60.00"/>
    <line x1="591.99" y1="540.00" x2="591.99" y2="60.00"/>
    <line x1="656.00" y1="540.00" x2="656.00" y2="60.00"/>
    <line x1="80.00" y1="487.06" x2="720.00" y2="487.06"/>
    <line x1="80.00" y1="424.71" x2="720.00" y2="424.71"/>
    <line x1="80.00" y1="362.35" x2="720.00" y2="362.35"/>
    <line x1="80.00" y1="237.65" x2="720.00" y2="237.65"/>
    <line x1="80.00" y1="175.29" x2="720.00" y2="175.29"/>
    <line x1="80.00" y1="112.94" x2="720.00" y2="112.94"/>
  </g>
  <g stroke="#808080" stroke-width="2">
    <line x1="399.98" y1="540.00" x2="399.98" y2="60.00"/>
    <line x1="80.00" y1="300.00" x2="720.00" y2="300.00"/>
  </g>
  <polyline fill="none" stroke="#0066cc" stroke-width="2" points="720.00,300.00 719.87,292.15 719.49,284.31 718.86,276.49 717.97,268.69 716.84,260.92 715.45,253.20 713.82,245.54 711.94,237.93 709.82,230.39 707.45,222.93 704.85,215.55 702.02,208.27 698.95,201.09 695.66,194.01 692.15,187.06 688.42,180.22 684.47,173.52 680.32,166.96 675.97,160.54 671.42,154.27 666.68,148.17 661.75,142.23 656.65,136.45 651.38,130.86 645.94,125.45 640.34,120.22 634.59,115.19 628.70,110.36 622.67,105.73 616.51,101.31 610.23,97.09 603.85,93.09 597.35,89.31 590.76,85.75 584.09,82.41 577.33,79.30 570.50,76.42 563.62,73.77 556.67,71.34 549.69,69.16 542.66,67.20 535.62,65.48 528.55,64.00 521.47,62.75 514.39,61.73 507.32,60.95 500.27,60.40 493.24,60.09 486.25,60.00 479.30,60.14 472.39,60.51 465.55,61.10 458.78,61.91 452.08,62.94 445.46,64.18 438.94,65.63 432.52,67.29 426.20,69.15 419.99,71.21 413.91,73.46 407.95,75.90 402.13,78.52 396.45,81.31 390.92,84.28 385.54,87.42 380.32,90.71 375.26,94.15 370.38,97.74 365.67,101.48 361.14,105.34 356.79,109.33 352.64,113.43 348.67,117.65 344.90,121.97 341.34,126.38 337.97,130.88 334.81,135.47 331.86,140.12 329.11,144.84 326.58,149.61 324.27,154.43 322.16,159.29 320.27,164.18 318.60,169.09 317.14,174.02 315.90,178.96 314.88,183.89 314.06,188.81 313.46,193.72 313.08,198.59 312.90,203.44 312.93,208.24 313.17,212.99 313.61,217.68 314.24,222.31 315.08,226.86 316.11,231.34 317.33,235.72 318.73,240.01 320.31,244.20 322.07,248.28 324.00,252.25 326.10,256.09 328.35,259.81 330.76,263.39 333.32,266.83 336.02,270.13 338.86,273.28 341.83,276.27 344.92,279.10 348.13,281.77 351.44,284.27 354.86,286.60 358.37,288.75 361.97,290.72 365.65,292.51 369.40,294.11 373.21,295.52 377.08,296.75 380.99,297.78 384.95,298.61 388.93,299.25 392.94,299.70 396.96,299.94 400.99,299.99 405.02,299.85 409.03,299.50 413.03,298.96 417.00,298.22 420.94,297.29 424.83,296.16 428.67,294.84 432.45,293.33 436.17,291.64 439.81,289.76 443.36,287.70 446.83,285.46 450.20,283.04 453.46,280.46 456.61,277.71 459.64,274.79 462.54,271.72 465.31,268.50 467.94,265.13 470.43,261.61 472.76,257.96 474.94,254.18 476.95,250.28 478.80,246.25 480.47,242.12 481.96,237.88 483.28,233.54 484.40,229.11 485.33,224.59 486.07,220.00 486.61,215.34 486.95,210.62 487.08,205.84 487.01,201.02 486.72,196.16 486.23,191.27 485.53,186.35 484.61,181.42 483.47,176.49 482.12,171.56 480.56,166.64 478.78,161.73 476.78,156.86 474.57,152.02 472.15,147.22 469.51,142.47 466.66,137.79 463.60,133.17 460.34,128.62 456.87,124.16 453.21,119.80 449.34,115.53 445.28,111.36 441.03,107.32 436.59,103.39 431.97,99.59 427.17,95.93 422.20,92.41 417.06,89.04 411.76,85.83 406.30,82.78 400.70,79.89 394.94,77.18 389.05,74.65 383.03,72.31 376.89,70.15 370.63,68.19 364.25,66.43 357.78,64.88 351.21,63.53 344.55,62.40 337.81,61.48 331.00,60.78 324.13,60.30 317.20,60.04 310.23,60.01 303.22,60.22 296.18,60.65 289.11,61.31 282.04,62.21 274.96,63.34 267.89,64.71 260.83,66.31 253.79,68.15 246.78,70.22 239.82,72.53 232.90,75.06 226.04,77.83 219.25,80.83 212.53,84.05 205.90,87.50 199.36,91.17 192.92,95.07 186.58,99.17 180.36,103.49 174.27,108.02 168.31,112.75 162.49,117.68 156.81,122.81 151.29,128.13 145.93,133.63 140.74,139.32 135.73,145.18 130.89,151.20 126.25,157.39 121.80,163.73 117.54,170.22 113.50,176.85 109.66,183.62 106.04,190.52 102.63,197.53 99.45,204.66 96.50,211.90 93.79,219.23 91.30,226.65 89.06,234.15 87.06,241.73 85.30,249.36 83.79,257.06 82.53,264.80 81.52,272.58 80.76,280.39 80.25,288.23 80.00,296.07 80.00,303.93 80.25,311.77 80.76,319.61 81.52,327.42 82.53,335.20 83.79,342.94 85.30,350.64 87.06,358.27 89.06,365.85 91.30,373.35 93.79,380.77 96.50,388.10 99.45,395.34 102.63,402.47 106.04,409.48 109.66,416.38 113.50,423.15 117.54,429.78 121.80,436.27 126.25,442.61 130.89,448.80 135.73,454.82 140.74,460.68 145.93,466.37 151.29,471.87 156.81,477.19 162.49,482.32 168.31,487.25 174.27,491.98 180.36,496.51 186.58,500.83 192.92,504.93 199.36,508.83 205.90,512.50 212.53,515.95 219.25,519.17 226.04,522.17 232.90,524.94 239.82,527.47 246.78,529.78 253.79,531.85 260.83,533.69 267.89,535.29 274.96,536.66 282.04,537.79 289.11,538.69 296.18,539.35 303.22,539.78 310.23,539.99 317.20,539.96 324.13,539.70 331.00,539.22 337.81,538.52 344.55,537.60 351.21,536.47 357.78,535.12 364.25,533.57 370.63,531.81 376.89,529.85 383.03,527.69 389.05,525.35 394.94,522.82 400.70,520.11 406.30,517.22 411.76,514.17 417.06,510.96 422.20,507.59 427.17,504.07 431.97,500.41 436.59,496.61 441.03,492.68 445.28,488.64 449.34,484.47 453.21,480.20 456.87,475.84 460.34,471.38 463.60,466.83 466.66,462.21 469.51,457.53 472.15,452.78 474.57,447.98 476.78,443.14 478.78,438.27 480.56,433.36 482.12,428.44 483.47,423.51 484.61,418.58 485.53,413.65 486.23,408.73 486.72,403.84 487.01,398.98 487.08,394.16 486.95,389.38 486.61,384.66 486.07,380.00 485.33,375.41 484.40,370.89 483.28,366.46 481.96,362.12 480.47,357.88 478.80,353.75 476.95,349.72 474.94,345.82 472.76,342.04 470.43,338.39 467.94,334.87 465.31,331.50 462.54,328.28 459.64,325.21 456.61,322.29 453.46,319.54 450.20,316.96 446.83,314.54 443.36,312.30 439.81,310.24 436.17,308.36 432.45,306.67 428.67,305.16 424.83,303.84 420.94,302.71 417.00,301.78 413.03,301.04 409.03,300.50 405.02,300.15 400.99,300.01 396.96,300.06 392.94,300.30 388.93,300.75 384.95,301.39 380.99,302.22 377.08,303.25 373.21,304.48 369.40,305.89 365.65,307.49 361.97,309.28 358.37,311.25 354.86,313.40 351.44,315.73 348.13,318.23 344.92,320.90 341.83,323.73 338.86,326.72 336.02,329.87 333.32,333.17 330.76,336.61 328.35,340.19 326.10,343.91 324.00,347.75 322.07,351.72 320.31,355.80 318.73,359.99 317.33,364.28 316.11,368.66 315.08,373.14 314.24,377.69 313.61,382.32 313.17,387.01 312.93,391.76 312.90,396.56 313.08,401.41 313.46,406.28 314.06,411.19 314.88,416.11 315.90,421.04 317.14,425.98 318.60,430.91 320.27,435.82 322.16,440.71 324.27,445.57 326.58,450.39 329.11,455.16 331.86,459.88 334.81,464.53 337.97,469.12 341.34,473.62 344.90,478.03 348.67,482.35 352.64,486.57 356.79,490.67 361.14,494.66 365.67,498.52 370.38,502.26 375.26,505.85 380.32,509.29 385.54,512.58 390.92,515.72 396.45,518.69 402.13,521.48 407.95,524.10 413.91,526.54 419.99,528.79 426.20,530.85 432.52,532.71 438.94,534.37 445.46,535.82 452.08,537.06 458.78,538.09 465.55,538.90 472.39,539.49 479.30,539.86 486.25,540.00 493.24,539.91 500.27,539.60 507.32,539.05 514.39,538.27 521.47,537.25 528.55,536.00 535.62,534.52 542.66,532.80 549.69,530.84 556.67,528.66 563.62,526.23 570.50,523.58 577.33,520.70 584.09,517.59 590.76,514.25 597.35,510.69 603.85,506.91 610.23,502.91 616.51,498.69 622.67,494.27 628.70,489.64 634.59,484.81 640.34,479.78 645.94,474.55 651.38,469.14 656.65,463.55 661.75,457.77 666.68,451.83 671.42,445.73 675.97,439.46 680.32,433.04 684.47,426.48 688.42,419.78 692.15,412.94 695.66,405.99 698.95,398.91 702.02,391.73 704.85,384.45 707.45,377.07 709.82,369.61 711.94,362.07 713.82,354.46 715.45,346.80 716.84,339.08 717.97,331.31 718.86,323.51 719.49,315.69 719.87,307.85 720.00,300.00 "/>
</svg>
