<?xml version="1.0" encoding="UTF-8"?>
<svg xmlns="http://www.w3.org/2000/svg" width="800" height="600">
  <title>R=1/(2*cos(t)):-1,1:</title>
  <rect width="800" height="600" fill="#ffffff"/>
  <g stroke="#d0d0d0" stroke-width="1">
    <line x1="-240.00" y1="540.00" x2="-240.00" y2="60.00"/>
    <line x1="400.00" y1="540.00" x2="400.00" y2="60.00"/>
    <line x1="80.00" y1="540.25" x2="80.00" y2="540.25"/>
    <line x1="80.00" y1="538.74" x2="80.00" y2="538.74"/>
    <line x1="80.00" y1="537.23" x2="80.00" y2="537.23"/>
    <line x1="80.00" y1="535.71" x2="80.00" y2="535.71"/>
    <line x1="80.00" y1="534.20" x2="80.00" y2="534.20"/>
    <line x1="80.00" y1="532.69" x2="80.00" y2="532.69"/>
    <line x1="80.00" y1="531.18" x2="80.00" y2="531.18"/>
    <line x1="80.00" y1="529.67" x2="80.00" y2="529.67"/>
    <line x1="80.00" y1="528.16" x2="80.00" y2="528.16"/>
    <line x1="80.00" y1="526.65" x2="80.00" y2="526.65"/>
    <line x1="80.00" y1="525.14" x2="80.00" y2="525.14"/>
    <line x1="80.00" y1="523.63" x2="80.00" y2="523.63"/>
    <line x1="80.00" y1="522.12" x2="80.00" y2="522.12"/>
    <line x1="80.00" y1="520.60" x2="80.00" y2="520.60"/>
    <line x1="80.00" y1="519.09" x2="80.00" y2="519.09"/>
    <line x1="80.00" y1="517.58" x2="80.00" y2="517.58"/>
    <line x1="80.00" y1="516.07" x2="80.00" y2="516.07"/>
    <line x1="80.00" y1="514.56" x2="80.00" y2="514.56"/>
    <line x1="80.00" y1="513.05" x2="80.00" y2="513.05"/>
    <line x1="80.00" y1="511.54" x2="80.00" y2="511.54"/>
    <line x1="80.00" y1="510.03" x2="80.00" y2="510.03"/>
    <line x1="80.00" y1="508.52" x2="80.00" y2="508.52"/>
    <line x1="80.00" y1="507.01" x2="80.00" y2="507.01"/>
    <line x1="80.00" y1="505.49" x2="80.00" y2="505.49"/>
    <line x1="80.00" y1="503.98" x2="80.00" y2="503.98"/>
    <line x1="80.00" y1="502.47" x2="80.00" y2="502.47"/>
    <line x1="80.00" y1="500.96" x2="80.00" y2="500.96"/>
    <line x1="80.00" y1="499.45" x2="80.00" y2="499.45"/>
    <line x1="80.00" y1="497.94" x2="80.00" y2="497.94"/>
    <line x1="80.00" y1="496.43" x2="80.00" y2="496.43"/>
    <line x1="80.00" y1="494.92" x2="80.00" y2="494.92"/>
    <line x1="80.00" y1="493.41" x2="80.00" y2="493.41"/>
    <line x1="80.00" y1="491.90" x2="80.00" y2="491.90"/>
    <line x1="80.00" y1="490.38" x2="80.00" y2="490.38"/>
    <line x1="80.00" y1="488.87" x2="80.00" y2="488.87"/>
    <line x1="80.00" y1="487.36" x2="80.00" y2="487.36"/>
    <line x1="80.00" y1="485.85" x2="80.00" y2="485.85"/>
    <line x1="80.00" y1="484.34" x2="80.00" y2="484.34"/>
    <line x1="80.00" y1="482.83" x2="80.00" y2="482.83"/>
    <line x1="80.00" y1="481.32" x2="80.00" y2="481.32"/>
    <line x1="80.00" y1="479.81" x2="80.00" y2="479.81"/>
    <line x1="80.00" y1="478.30" x2="80.00" y2="478.30"/>
    <line x1="80.00" y1="476.79" x2="80.00" y2="476.79"/>
    <line x1="80.00" y1="475.28" x2="80.00" y2="475.28"/>
    <line x1="80.00" y1="473.76" x2="80.00" y2="473.76"/>
    <line x1="80.00" y1="472.25" x2="80.00" y2="472.25"/>
    <line x1="80.00" y1="470.74" x2="80.00" y2="470.74"/>
    <line x1="80.00" y1="469.23" x2="80.00" y2="469.23"/>
    <line x1="80.00" y1="467.72" x2="80.00" y2="467.72"/>
    <line x1="80.00" y1="466.21" x2="80.00" y2="466.21"/>
    <line x1="80.00" y1="464.70" x2="80.00" y2="464.70"/>
    <line x1="80.00" y1="463.19" x2="80.00" y2="463.19"/>
    <line x1="80.00" y1="461.68" x2="80.00" y2="461.68"/>
    <line x1="80.00" y1="460.17" x2="80.00" y2="460.17"/>
    <line x1="80.00" y1="458.65" x2="80.00" y2="458.65"/>
    <line x1="80.00" y1="457.14" x2="80.00" y2="457.14"/>
    <line x1="80.00" y1="455.63" x2="80.00" y2="455.63"/>
    <line x1="80.00" y1="454.12" x2="80.00" y2="454.12"/>
    <line x1="80.00" y1="452.61" x2="80.00" y2="452.61"/>
    <line x1="80.00" y1="451.10" x2="80.00" y2="451.10"/>
    <line x1="80.00" y1="449.59" x2="80.00" y2="449.59"/>
    <line x1="80.00" y1="448.08" x2="80.00" y2="448.08"/>
    <line x1="80.00" y1="446.57" x2="80.00" y2="446.57"/>
    <line x1="80.00" y1="445.06" x2="80.00" y2="445.06"/>
    <line x1="80.00" y1="443.54" x2="80.00" y2="443.54"/>
    <line x1="80.00" y1="442.03" x2="80.00" y2="442.03"/>
    <line x1="80.00" y1="440.52" x2="80.00" y2="440.52"/>
    <line x1="80.00" y1="439.01" x2="80.00" y2="439.01"/>
    <line x1="80.00" y1="437.50" x2="80.00" y2="437.50"/>
    <line x1="80.00" y1="435.99" x2="80.00" y2="435.99"/>
    <line x1="80.00" y1="434.48" x2="80.00" y2="434.48"/>
    <line x1="80.00" y1="432.97" x2="80.00" y2="432.97"/>
    <line x1="80.00" y1="431.46" x2="80.00" y2="431.46"/>
    <line x1="80.00" y1="429.95" x2="80.00" y2="429.95"/>
    <line x1="80.00" y1="428.43" x2="80.00" y2="428.43"/>
    <line x1="80.00" y1="426.92" x2="80.00" y2="426.92"/>
    <line x1="80.00" y1="425.41" x2="80.00" y2="425.41"/>
    <line x1="80.00" y1="423.90" x2="80.00" y2="423.90"/>
    <line x1="80.00" y1="422.39" x2="80.00" y2="422.39"/>
    <line x1="80.00" y1="420.88" x2="80.00" y2="420.88"/>
    <line x1="80.00" y1="419.37" x2="80.00" y2="419.37"/>
    <line x1="80.00" y1="417.86" x2="80.00" y2="417.86"/>
    <line x1="80.00" y1="416.35" x2="80.00" y2="416.35"/>
    <line x1="80.00" y1="414.84" x2="80.00" y2="414.84"/>
    <line x1="80.00" y1="413.32" x2="80.00" y2="413.32"/>
    <line x1="80.00" y1="411.81" x2="80.00" y2="411.81"/>
    <line x1="80.00" y1="410.30" x2="80.00" y2="410.30"/>
    <line x1="80.00" y1="408.79" x2="80.00" y2="408.79"/>
    <line x1="80.00" y1="407.28" x2="80.00" y2="407.28"/>
    <line x1="80.00" y1="405.77" x2="80.00" y2="405.77"/>
    <line x1="80.00" y1="404.26" x2="80.00" y2="404.26"/>
    <line x1="80.00" y1="402.75" x2="80.00" y2="402.75"/>
    <line x1="80.00" y1="401.24" x2="80.00" y2="401.24"/>
    <line x1="80.00" y1="399.73" x2="80.00" y2="399.73"/>
    <line x1="80.00" y1="398.21" x2="80.00" y2="398.21"/>
    <line x1="80.00" y1="396.70" x2="80.00" y2="396.70"/>
    <line x1="80.00" y1="395.19" x2="80.00" y2="395.19"/>
    <line x1="80.00" y1="393.68" x2="80.00" y2="393.68"/>
    <line x1="80.00" y1="392.17" x2="80.00" y2="392.17"/>
    <line x1="80.00" y1="390.66" x2="80.00" y2="390.66"/>
    <line x1="80.00" y1="389.15" x2="80.00" y2="389.15"/>
    <line x1="80.00" y1="387.64" x2="80.00" y2="387.64"/>
    <line x1="80.00" y1="386.13" x2="80.00" y2="386.13"/>
    <line x1="80.00" y1="384.62" x2="80.00" y2="384.62"/>
    <line x1="80.00" y1="383.10" x2="80.00" y2="383.10"/>
    <line x1="80.00" y1="381.59" x2="80.00" y2="381.59"/>
    <line x1="80.00" y1="380.08" x2="80.00" y2="380.08"/>
    <line x1="80.00" y1="378.57" x2="80.00" y2="378.57"/>
    <line x1="80.00" y1="377.06" x2="80.00" y2="377.06"/>
    <line x1="80.00" y1="375.55" x2="80.00" y2="375.55"/>
    <line x1="80.00" y1="374.04" x2="80.00" y2="374.04"/>
    <line x1="80.00" y1="372.53" x2="80.00" y2="372.53"/>
    <line x1="80.00" y1="371.02" x2="80.00" y2="371.02"/>
    <line x1="80.00" y1="369.51" x2="80.00" y2="369.51"/>
    <line x1="80.00" y1="367.99" x2="80.00" y2="367.99"/>
    <line x1="80.00" y1="366.48" x2="80.00" y2="366.48"/>
    <line x1="80.00" y1="364.97" x2="80.00" y2="364.97"/>
    <line x1="80.00" y1="363.46" x2="80.00" y2="363.46"/>
    <line x1="80.00" y1="361.95" x2="80.00" y2="361.95"/>
    <line x1="80.00" y1="360.44" x2="80.00" y2="360.44"/>
    <line x1="80.00" y1="358.93" x2="80.00" y2="358.93"/>
    <line x1="80.00" y1="357.42" x2="80.00" y2="357.42"/>
    <line x1="80.00" y1="355.91" x2="80.00" y2="355.91"/>
    <line x1="80.00" y1="354.40" x2="80.00" y2="354.40"/>
    <line x1="80.00" y1="352.88" x2="80.00" y2="352.88"/>
    <line x1="80.00" y1="351.37" x2="80.00" y2="351.37"/>
    <line x1="80.00" y1="349.86" x2="80.00" y2="349.86"/>
    <line x1="80.00" y1="348.35" x2="80.00" y2="348.35"/>
    <line x1="80.00" y1="346.84" x2="80.00" y2="346.84"/>
    <line x1="80.00" y1="345.33" x2="80.00" y2="345.33"/>
    <line x1="80.00" y1="343.82" x2="80.00" y2="343.82"/>
    <line x1="80.00" y1="342.31" x2="80.00" y2="342.31"/>
    <line x1="80.00" y1="340.80" x2="80.00" y2="340.80"/>
    <line x1="80.00" y1="339.29" x2="80.00" y2="339.29"/>
    <line x1="80.00" y1="337.77" x2="80.00" y2="337.77"/>
    <line x1="80.00" y1="336.26" x2="80.00" y2="336.26"/>
    <line x1="80.00" y1="334.75" x2="80.00" y2="334.75"/>
    <line x1="80.00" y1="333.24" x2="80.00" y2="333.24"/>
    <line x1="80.00" y1="331.73" x2="80.00" y2="331.73"/>
    <line x1="80.00" y1="330.22" x2="80.00" y2="330.22"/>
    <line x1="80.00" y1="328.71" x2="80.00" y2="328.71"/>
    <line x1="80.00" y1="327.20" x2="80.00" y2="327.20"/>
    <line x1="80.00" y1="325.69" x2="80.00" y2="325.69"/>
    <line x1="80.00" y1="324.18" x2="80.00" y2="324.18"/>
    <line x1="80.00" y1="322.66" x2="80.00" y2="322.66"/>
    <line x1="80.00" y1="321.15" x2="80.00" y2="321.15"/>
    <line x1="80.00" y1="319.64" x2="80.00" y2="319.64"/>
    <line x1="80.00" y1="318.13" x2="80.00" y2="318.13"/>
    <line x1="80.00" y1="316.62" x2="80.00" y2="316.62"/>
    <line x1="80.00" y1="315.11" x2="80.00" y2="315.11"/>
    <line x1="80.00" y1="313.60" x2="80.00" y2="313.60"/>
    <line x1="80.00" y1="312.09" x2="80.00" y2="312.09"/>
    <line x1="80.00" y1="310.58" x2="80.00" y2="310.58"/>
    <line x1="80.00" y1="309.07" x2="80.00" y2="309.07"/>
    <line x1="80.00" y1="307.55" x2="80.00" y2="307.55"/>
    <line x1="80.00" y1="306.04" x2="80.00" y2="306.04"/>
    <line x1="80.00" y1="304.53" x2="80.00" y2="304.53"/>
    <line x1="80.00" y1="303.02" x2="80.00" y2="303.02"/>
    <line x1="80.00" y1="301.51" x2="80.00" y2="301.51"/>
    <line x1="80.00" y1="300.00" x2="80.00" y2="300.00"/>
    <line x1="80.00" y1="298.49" x2="80.00" y2="298.49"/>
    <line x1="80.00" y1="296.98" x2="80.00" y2="296.98"/>
    <line x1="80.00" y1="295.47" x2="80.00" y2="295.47"/>
    <line x1="80.00" y1="293.96" x2="80.00" y2="293.96"/>
    <line x1="80.00" y1="292.45" x2="80.00" y2="292.45"/>
    <line x1="80.00" y1="290.93" x2="80.00" y2="290.93"/>
    <line x1="80.00" y1="289.42" x2="80.00" y2="289.42"/>
    <line x1="80.00" y1="287.91" x2="80.00" y2="287.91"/>
    <line x1="80.00" y1="286.40" x2="80.00" y2="286.40"/>
    <line x1="80.00" y1="284.89" x2="80.00" y2="284.89"/>
    <line x1="80.00" y1="283.38" x2="80.00" y2="283.38"/>
    <line x1="80.00" y1="281.87" x2="80.00" y2="281.87"/>
    <line x1="80.00" y1="280.36" x2="80.00" y2="280.36"/>
    <line x1="80.00" y1="278.85" x2="80.00" y2="278.85"/>
    <line x1="80.00" y1="277.34" x2="80.00" y2="277.34"/>
    <line x1="80.00" y1="275.82" x2="80.00" y2="275.82"/>
    <line x1="80.00" y1="274.31" x2="80.00" y2="274.31"/>
    <line x1="80.00" y1="272.80" x2="80.00" y2="272.80"/>
    <line x1="80.00" y1="271.29" x2="80.00" y2="271.29"/>
    <line x1="80.00" y1="269.78" x2="80.00" y2="269.78"/>
    <line x1="80.00" y1="268.27" x2="80.00" y2="268.27"/>
    <line x1="80.00" y1="266.76" x2="80.00" y2="266.76"/>
    <line x1="80.00" y1="265.25" x2="80.00" y2="265.25"/>
    <line x1="80.00" y1="263.74" x2="80.00" y2="263.74"/>
    <line x1="80.00" y1="262.23" x2="80.00" y2="262.23"/>
    <line x1="80.00" y1="260.71" x2="80.00" y2="260.71"/>
    <line x1="80.00" y1="259.20" x2="80.00" y2="259.20"/>
    <line x1="80.00" y1="257.69" x2="80.00" y2="257.69"/>
    <line x1="80.00" y1="256.18" x2="80.00" y2="256.18"/>
    <line x1="80.00" y1="254.67" x2="80.00" y2="254.67"/>
    <line x1="80.00" y1="253.16" x2="80.00" y2="253.16"/>
    <line x1="80.00" y1="251.65" x2="80.00" y2="251.65"/>
    <line x1="80.00" y1="250.14" x2="80.00" y2="250.14"/>
    <line x1="80.00" y1="248.63" x2="80.00" y2="248.63"/>
    <line x1="80.00" y1="247.12" x2="80.00" y2="247.12"/>
    <line x1="80.00" y1="245.60" x2="80.00" y2="245.60"/>
    <line x1="80.00" y1="244.09" x2="80.00" y2="244.09"/>
    <line x1="80.00" y1="242.58" x2="80.00" y2="242.58"/>
    <line x1="80.00" y1="241.07" x2="80.00" y2="241.07"/>
    <line x1="80.00" y1="239.56" x2="80.00" y2="239.56"/>
    <line x1="80.00" y1="238.05" x2="80.00" y2="238.05"/>
    <line x1="80.00" y1="236.54" x2="80.00" y2="236.54"/>
    <line x1="80.00" y1="235.03" x2="80.00" y2="235.03"/>
    <line x1="80.00" y1="233.52" x2="80.00" y2="233.52"/>
    <line x1="80.00" y1="232.01" x2="80.00" y2="232.01"/>
    <line x1="80.00" y1="230.49" x2="80.00" y2="230.49"/>
    <line x1="80.00" y1="228.98" x2="80.00" y2="228.98"/>
    <line x1="80.00" y1="227.47" x2="80.00" y2="227.47"/>
    <line x1="80.00" y1="225.96" x2="80.00" y2="225.96"/>
    <line x1="80.00" y1="224.45" x2="80.00" y2="224.45"/>
    <line x1="80.00" y1="222.94" x2="80.00" y2="222.94"/>
    <line x1="80.00" y1="221.43" x2="80.00" y2="221.43"/>
    <line x1="80.00" y1="219.92" x2="80.00" y2="219.92"/>
    <line x1="80.00" y1="218.41" x2="80.00" y2="218.41"/>
    <line x1="80.00" y1="216.90" x2="80.00" y2="216.90"/>
    <line x1="80.00" y1="215.38" x2="80.00" y2="215.38"/>
    <line x1="80.00" y1="213.87" x2="80.00" y2="213.87"/>
    <line x1="80.00" y1="212.36" x2="80.00" y2="212.36"/>
    <line x1="80.00" y1="210.85" x2="80.00" y2="210.85"/>
    <line x1="80.00" y1="209.34" x2="80.00" y2="209.34"/>
    <line x1="80.00" y1="207.83" x2="80.00" y2="207.83"/>
    <line x1="80.00" y1="206.32" x2="80.00" y2="206.32"/>
    <line x1="80.00" y1="204.81" x2="80.00" y2="204.81"/>
    <line x1="80.00" y1="203.30" x2="80.00" y2="203.30"/>
    <line x1="80.00" y1="201.79" x2="80.00" y2="201.79"/>
    <line x1="80.00" y1="200.27" x2="80.00" y2="200.27"/>
    <line x1="80.00" y1="198.76" x2="80.00" y2="198.76"/>
    <line x1="80.00" y1="197.25" x2="80.00" y2="197.25"/>
    <line x1="80.00" y1="195.74" x2="80.00" y2="195.74"/>
    <line x1="80.00" y1="194.23" x2="80.00" y2="194.23"/>
    <line x1="80.00" y1="192.72" x2="80.00" y2="192.72"/>
    <line x1="80.00" y1="191.21" x2="80.00" y2="191.21"/>
    <line x1="80.00" y1="189.70" x2="80.00" y2="189.70"/>
    <line x1="80.00" y1="188.19" x2="80.00" y2="188.19"/>
    <line x1="80.00" y1="186.68" x2="80.00" y2="186.68"/>
    <line x1="80.00" y1="185.16" x2="80.00" y2="185.16"/>
    <line x1="80.00" y1="183.65" x2="80.00" y2="183.65"/>
    <line x1="80.00" y1="182.14" x2="80.00" y2="182.14"/>
    <line x1="80.00" y1="180.63" x2="80.00" y2="180.63"/>
    <line x1="80.00" y1="179.12" x2="80.00" y2="179.12"/>
    <line x1="80.00" y1="177.61" x2="80.00" y2="177.61"/>
    <line x1="80.00" y1="176.10" x2="80.00" y2="176.10"/>
    <line x1="80.00" y1="174.59" x2="80.00" y2="174.59"/>
    <line x1="80.00" y1="173.08" x2="80.00" y2="173.08"/>
    <line x1="80.00" y1="171.57" x2="80.00" y2="171.57"/>
    <line x1="80.00" y1="170.05" x2="80.00" y2="170.05"/>
    <line x1="80.00" y1="168.54" x2="80.00" y2="168.54"/>
    <line x1="80.00" y1="167.03" x2="80.00" y2="167.03"/>
    <line x1="80.00" y1="165.52" x2="80.00" y2="165.52"/>
    <line x1="80.00" y1="164.01" x2="80.00" y2="164.01"/>
    <line x1="80.00" y1="162.50" x2="80.00" y2="162.50"/>
    <line x1="80.00" y1="160.99" x2="80.00" y2="160.99"/>
    <line x1="80.00" y1="159.48" x2="80.00" y2="159.48"/>
    <line x1="80.00" y1="157.97" x2="80.00" y2="157.97"/>
    <line x1="80.00" y1="156.46" x2="80.00" y2="156.46"/>
    <line x1="80.00" y1="154.94" x2="80.00" y2="154.94"/>
    <line x1="80.00" y1="153.43" x2="80.00" y2="153.43"/>
    <line x1="80.00" y1="151.92" x2="80.00" y2="151.92"/>
    <line x1="80.00" y1="150.41" x2="80.00" y2="150.41"/>
    <line x1="80.00" y1="148.90" x2="80.00" y2="148.90"/>
    <line x1="80.00" y1="147.39" x2="80.00" y2="147.39"/>
    <line x1="80.00" y1="145.88" x2="80.00" y2="145.88"/>
    <line x1="80.00" y1="144.37" x2="80.00" y2="144.37"/>
    <line x1="80.00" y1="142.86" x2="80.00" y2="142.86"/>
    <line x1="80.00" y1="141.35" x2="80.00" y2="141.35"/>
    <line x1="80.00" y1="139.83" x2="80.00" y2="139.83"/>
    <line x1="80.00" y1="138.32" x2="80.00" y2="138.32"/>
    <line x1="80.00" y1="136.81" x2="80.00" y2="136.81"/>
    <line x1="80.00" y1="135.30" x2="80.00" y2="135.30"/>
    <line x1="80.00" y1="133.79" x2="80.00" y2="133.79"/>
    <line x1="80.00" y1="132.28" x2="80.00" y2="132.28"/>
    <line x1="80.00" y1="130.77" x2="80.00" y2="130.77"/>
    <line x1="80.00" y1="129.26" x2="80.00" y2="129.26"/>
    <line x1="80.00" y1="127.75" x2="80.00" y2="127.75"/>
    <line x1="80.00" y1="126.24" x2="80.00" y2="126.24"/>
    <line x1="80.00" y1="124.72" x2="80.00" y2="124.72"/>
    <line x1="80.00" y1="123.21" x2="80.00" y2="123.21"/>
    <line x1="80.00" y1="121.70" x2="80.00" y2="121.70"/>
    <line x1="80.00" y1="120.19" x2="80.00" y2="120.19"/>
    <line x1="80.00" y1="118.68" x2="80.00" y2="118.68"/>
    <line x1="80.00" y1="117.17" x2="80.00" y2="117.17"/>
    <line x1="80.00" y1="115.66" x2="80.00" y2="115.66"/>
    <line x1="80.00" y1="114.15" x2="80.00" y2="114.15"/>
    <line x1="80.00" y1="112.64" x2="80.00" y2="112.64"/>
    <line x1="80.00" y1="111.13" x2="80.00" y2="111.13"/>
    <line x1="80.00" y1="109.62" x2="80.00" y2="109.62"/>
    <line x1="80.00" y1="108.10" x2="80.00" y2="108.10"/>
    <line x1="80.00" y1="106.59" x2="80.00" y2="106.59"/>
    <line x1="80.00" y1="105.08" x2="80.00" y2="105.08"/>
    <line x1="80.00" y1="103.57" x2="80.00" y2="103.57"/>
    <line x1="80.00" y1="102.06" x2="80.00" y2="102.06"/>
    <line x1="80.00" y1="100.55" x2="80.00" y2="100.55"/>
    <line x1="80.00" y1="99.04" x2="80.00" y2="99.04"/>
    <line x1="80.00" y1="97.53" x2="80.00" y2="97.53"/>
    <line x1="80.00" y1="96.02" x2="80.00" y2="96.02"/>
    <line x1="80.00" y1="94.51" x2="80.00" y2="94.51"/>
    <line x1="80.00" y1="92.99" x2="80.00" y2="92.99"/>
    <line x1="80.00" y1="91.48" x2="80.00" y2="91.48"/>
    <line x1="80.00" y1="89.97" x2="80.00" y2="89.97"/>
    <line x1="80.00" y1="88.46" x2="80.00" y2="88.46"/>
    <line x1="80.00" y1="86.95" x2="80.00" y2="86.95"/>
    <line x1="80.00" y1="85.44" x2="80.00" y2="85.44"/>
    <line x1="80.00" y1="83.93" x2="80.00" y2="83.93"/>
    <line x1="80.00" y1="82.42" x2="80.00" y2="82.42"/>
    <line x1="80.00" y1="80.91" x2="80.00" y2="80.91"/>
    <line x1="80.00" y1="79.40" x2="80.00" y2="79.40"/>
    <line x1="80.00" y1="77.88" x2="80.00" y2="77.88"/>
    <line x1="80.00" y1="76.37" x2="80.00" y2="76.37"/>
    <line x1="80.00" y1="74.86" x2="80.00" y2="74.86"/>
    <line x1="80.00" y1="73.35" x2="80.00" y2="73.35"/>
    <line x1="80.00" y1="71.84" x2="80.00" y2="71.84"/>
    <line x1="80.00" y1="70.33" x2="80.00" y2="70.33"/>
    <line x1="80.00" y1="68.82" x2="80.00" y2="68.82"/>
    <line x1="80.00" y1="67.31" x2="80.00" y2="67.31"/>
    <line x1="80.00" y1="65.80" x2="80.00" y2="65.80"/>
    <line x1="80.00" y1="64.29" x2="80.00" y2="64.29"/>
    <line x1="80.00" y1="62.77" x2="80.00" y2="62.77"/>
    <line x1="80.00" y1="61.26" x2="80.00" y2="61.26"/>
    <line x1="80.00" y1="59.75" x2="80.00" y2="59.75"/>
  </g>
  <g stroke="#e8e8e8" stroke-width="0.5">
    <line x1="80.00" y1="539.95" x2="80.00" y2="539.95"/>
    <line x1="80.00" y1="539.64" x2="80.00" y2="539.64"/>
    <line x1="80.00" y1="539.34" x2="80.00" y2="539.34"/>
    <line x1="80.00" y1="539.04" x2="80.00" y2="539.04"/>
    <line x1="80.00" y1="538.43" x2="80.00" y2="538.43"/>
    <line x1="80.00" y1="538.13" x2="80.00" y2="538.13"/>
    <line x1="80.00" y1="537.83" x2="80.00" y2="537.83"/>
    <line x1="80.00" y1="537.53" x2="80.00" y2="537.53"/>
    <line x1="80.00" y1="536.92" x2="80.00" y2="536.92"/>
    <line x1="80.00" y1="536.62" x2="80.00" y2="536.62"/>
    <line x1="80.00" y1="536.32" x2="80.00" y2="536.32"/>
    <line x1="80.00" y1="536.02" x2="80.00" y2="536.02"/>
    <line x1="80.00" y1="535.41" x2="80.00" y2="535.41"/>
    <line x1="80.00" y1="535.11" x2="80.00" y2="535.11"/>
    <line x1="80.00" y1="534.81" x2="80.00" y2="534.81"/>
    <line x1="80.00" y1="534.51" x2="80.00" y2="534.51"/>
    <line x1="80.00" y1="533.90" x2="80.00" y2="533.90"/>
    <line x1="80.00" y1="533.60" x2="80.00" y2="533.60"/>
    <line x1="80.00" y1="533.30" x2="80.00" y2="533.30"/>
    <line x1="80.00" y1="532.99" x2="80.00" y2="532.99"/>
    <line x1="80.00" y1="532.39" x2="80.00" y2="532.39"/>
    <line x1="80.00" y1="532.09" x2="80.00" y2="532.09"/>
    <line x1="80.00" y1="531.79" x2="80.00" y2="531.79"/>
    <line x1="80.00" y1="531.48" x2="80.00" y2="531.48"/>
    <line x1="80.00" y1="530.88" x2="80.00" y2="530.88"/>
    <line x1="80.00" y1="530.58" x2="80.00" y2="530.58"/>
    <line x1="80.00" y1="530.28" x2="80.00" y2="530.28"/>
    <line x1="80.00" y1="529.97" x2="80.00" y2="529.97"/>
    <line x1="80.00" y1="529.37" x2="80.00" y2="529.37"/>
    <line x1="80.00" y1="529.07" x2="80.00" y2="529.07"/>
    <line x1="80.00" y1="528.76" x2="80.00" y2="528.76"/>
    <line x1="80.00" y1="528.46" x2="80.00" y2="528.46"/>
    <line x1="80.00" y1="527.86" x2="80.00" y2="527.86"/>
    <line x1="80.00" y1="527.56" x2="80.00" y2="527.56"/>
    <line x1="80.00" y1="527.25" x2="80.00" y2="527.25"/>
    <line x1="80.00" y1="526.95" x2="80.00" y2="526.95"/>
    <line x1="80.00" y1="526.35" x2="80.00" y2="526.35"/>
    <line x1="80.00" y1="526.04" x2="80.00" y2="526.04"/>
    <line x1="80.00" y1="525.74" x2="80.00" y2="525.74"/>
    <line x1="80.00" y1="525.44" x2="80.00" y2="525.44"/>
    <line x1="80.00" y1="524.84" x2="80.00" y2="524.84"/>
    <line x1="80.00" y1="524.53" x2="80.00" y2="524.53"/>
    <line x1="80.00" y1="524.23" x2="80.00" y2="524.23"/>
    <line x1="80.00" y1="523.93" x2="80.00" y2="523.93"/>
    <line x1="80.00" y1="523.32" x2="80.00" y2="523.32"/>
    <line x1="80.00" y1="523.02" x2="80.00" y2="523.02"/>
    <line x1="80.00" y1="522.72" x2="80.00" y2="522.72"/>
    <line x1="80.00" y1="522.42" x2="80.00" y2="522.42"/>
    <line x1="80.00" y1="521.81" x2="80.00" y2="521.81"/>
    <line x1="80.00" y1="521.51" x2="80.00" y2="521.51"/>
    <line x1="80.00" y1="521.21" x2="80.00" y2="521.21"/>
    <line x1="80.00" y1="520.91" x2="80.00" y2="520.91"/>
    <line x1="80.00" y1="520.30" x2="80.00" y2="520.30"/>
    <line x1="80.00" y1="520.00" x2="80.00" y2="520.00"/>
    <line x1="80.00" y1="519.70" x2="80.00" y2="519.70"/>
    <line x1="80.00" y1="519.40" x2="80.00" y2="519.40"/>
    <line x1="80.00" y1="518.79" x2="80.00" y2="518.79"/>
    <line x1="80.00" y1="518.49" x2="80.00" y2="518.49"/>
    <line x1="80.00" y1="518.19" x2="80.00" y2="518.19"/>
    <line x1="80.00" y1="517.88" x2="80.00" y2="517.88"/>
    <line x1="80.00" y1="517.28" x2="80.00" y2="517.28"/>
    <line x1="80.00" y1="516.98" x2="80.00" y2="516.98"/>
    <line x1="80.00" y1="516.68" x2="80.00" y2="516.68"/>
    <line x1="80.00" y1="516.37" x2="80.00" y2="516.37"/>
    <line x1="80.00" y1="515.77" x2="80.00" y2="515.77"/>
    <line x1="80.00" y1="515.47" x2="80.00" y2="515.47"/>
    <line x1="80.00" y1="515.17" x2="80.00" y2="515.17"/>
    <line x1="80.00" y1="514.86" x2="80.00" y2="514.86"/>
    <line x1="80.00" y1="514.26" x2="80.00" y2="514.26"/>
    <line x1="80.00" y1="513.96" x2="80.00" y2="513.96"/>
    <line x1="80.00" y1="513.65" x2="80.00" y2="513.65"/>
    <line x1="80.00" y1="513.35" x2="80.00" y2="513.35"/>
    <line x1="80.00" y1="512.75" x2="80.00" y2="512.75"/>
    <line x1="80.00" y1="512.45" x2="80.00" y2="512.45"/>
    <line x1="80.00" y1="512.14" x2="80.00" y2="512.14"/>
    <line x1="80.00" y1="511.84" x2="80.00" y2="511.84"/>
    <line x1="80.00" y1="511.24" x2="80.00" y2="511.24"/>
    <line x1="80.00" y1="510.93" x2="80.00" y2="510.93"/>
    <line x1="80.00" y1="510.63" x2="80.00" y2="510.63"/>
    <line x1="80.00" y1="510.33" x2="80.00" y2="510.33"/>
    <line x1="80.00" y1="509.73" x2="80.00" y2="509.73"/>
    <line x1="80.00" y1="509.42" x2="80.00" y2="509.42"/>
    <line x1="80.00" y1="509.12" x2="80.00" y2="509.12"/>
    <line x1="80.00" y1="508.82" x2="80.00" y2="508.82"/>
    <line x1="80.00" y1="508.21" x2="80.00" y2="508.21"/>
    <line x1="80.00" y1="507.91" x2="80.00" y2="507.91"/>
    <line x1="80.00" y1="507.61" x2="80.00" y2="507.61"/>
    <line x1="80.00" y1="507.31" x2="80.00" y2="507.31"/>
    <line x1="80.00" y1="506.70" x2="80.00" y2="506.70"/>
    <line x1="80.00" y1="506.40" x2="80.00" y2="506.40"/>
    <line x1="80.00" y1="506.10" x2="80.00" y2="506.10"/>
    <line x1="80.00" y1="505.80" x2="80.00" y2="505.80"/>
    <line x1="80.00" y1="505.19" x2="80.00" y2="505.19"/>
    <line x1="80.00" y1="504.89" x2="80.00" y2="504.89"/>
    <line x1="80.00" y1="504.59" x2="80.00" y2="504.59"/>
    <line x1="80.00" y1="504.29" x2="80.00" y2="504.29"/>
    <line x1="80.00" y1="503.68" x2="80.00" y2="503.68"/>
    <line x1="80.00" y1="503.38" x2="80.00" y2="503.38"/>
    <line x1="80.00" y1="503.08" x2="80.00" y2="503.08"/>
    <line x1="80.00" y1="502.78" x2="80.00" y2="502.78"/>
    <line x1="80.00" y1="502.17" x2="80.00" y2="502.17"/>
    <line x1="80.00" y1="501.87" x2="80.00" y2="501.87"/>
    <line x1="80.00" y1="501.57" x2="80.00" y2="501.57"/>
    <line x1="80.00" y1="501.26" x2="80.00" y2="501.26"/>
    <line x1="80.00" y1="500.66" x2="80.00" y2="500.66"/>
    <line x1="80.00" y1="500.36" x2="80.00" y2="500.36"/>
    <line x1="80.00" y1="500.06" x2="80.00" y2="500.06"/>
    <line x1="80.00" y1="499.75" x2="80.00" y2="499.75"/>
    <line x1="80.00" y1="499.15" x2="80.00" y2="499.15"/>
    <line x1="80.00" y1="498.85" x2="80.00" y2="498.85"/>
    <line x1="80.00" y1="498.54" x2="80.00" y2="498.54"/>
    <line x1="80.00" y1="498.24" x2="80.00" y2="498.24"/>
    <line x1="80.00" y1="497.64" x2="80.00" y2="497.64"/>
    <line x1="80.00" y1="497.34" x2="80.00" y2="497.34"/>
    <line x1="80.00" y1="497.03" x2="80.00" y2="497.03"/>
    <line x1="80.00" y1="496.73" x2="80.00" y2="496.73"/>
    <line x1="80.00" y1="496.13" x2="80.00" y2="496.13"/>
    <line x1="80.00" y1="495.82" x2="80.00" y2="495.82"/>
    <line x1="80.00" y1="495.52" x2="80.00" y2="495.52"/>
    <line x1="80.00" y1="495.22" x2="80.00" y2="495.22"/>
    <line x1="80.00" y1="494.62" x2="80.00" y2="494.62"/>
    <line x1="80.00" y1="494.31" x2="80.00" y2="494.31"/>
    <line x1="80.00" y1="494.01" x2="80.00" y2="494.01"/>
    <line x1="80.00" y1="493.71" x2="80.00" y2="493.71"/>
    <line x1="80.00" y1="493.10" x2="80.00" y2="493.10"/>
    <line x1="80.00" y1="492.80" x2="80.00" y2="492.80"/>
    <line x1="80.00" y1="492.50" x2="80.00" y2="492.50"/>
    <line x1="80.00" y1="492.20" x2="80.00" y2="492.20"/>
    <line x1="80.00" y1="491.59" x2="80.00" y2="491.59"/>
    <line x1="80.00" y1="491.29" x2="80.00" y2="491.29"/>
    <line x1="80.00" y1="490.99" x2="80.00" y2="490.99"/>
    <line x1="80.00" y1="490.69" x2="80.00" y2="490.69"/>
    <line x1="80.00" y1="490.08" x2="80.00" y2="490.08"/>
    <line x1="80.00" y1="489.78" x2="80.00" y2="489.78"/>
    <line x1="80.00" y1="489.48" x2="80.00" y2="489.48"/>
    <line x1="80.00" y1="489.18" x2="80.00" y2="489.18"/>
    <line x1="80.00" y1="488.57" x2="80.00" y2="488.57"/>
    <line x1="80.00" y1="488.27" x2="80.00" y2="488.27"/>
    <line x1="80.00" y1="487.97" x2="80.00" y2="487.97"/>
    <line x1="80.00" y1="487.67" x2="80.00" y2="487.67"/>
    <line x1="80.00" y1="487.06" x2="80.00" y2="487.06"/>
    <line x1="80.00" y1="486.76" x2="80.00" y2="486.76"/>
    <line x1="80.00" y1="486.46" x2="80.00" y2="486.46"/>
    <line x1="80.00" y1="486.15" x2="80.00" y2="486.15"/>
    <line x1="80.00" y1="485.55" x2="80.00" y2="485.55"/>
    <line x1="80.00" y1="485.25" x2="80.00" y2="485.25"/>
    <line x1="80.00" y1="484.95" x2="80.00" y2="484.95"/>
    <line x1="80.00" y1="484.64" x2="80.00" y2="484.64"/>
    <line x1="80.00" y1="484.04" x2="80.00" y2="484.04"/>
    <line x1="80.00" y1="483.74" x2="80.00" y2="483.74"/>
    <line x1="80.00" y1="483.43" x2="80.00" y2="483.43"/>
    <line x1="80.00" y1="483.13" x2="80.00" y2="483.13"/>
    <line x1="80.00" y1="482.53" x2="80.00" y2="482.53"/>
    <line x1="80.00" y1="482.23" x2="80.00" y2="482.23"/>
    <line x1="80.00" y1="481.92" x2="80.00" y2="481.92"/>
    <line x1="80.00" y1="481.62" x2="80.00" y2="481.62"/>
    <line x1="80.00" y1="481.02" x2="80.00" y2="481.02"/>
    <line x1="80.00" y1="480.71" x2="80.00" y2="480.71"/>
    <line x1="80.00" y1="480.41" x2="80.00" y2="480.41"/>
    <line x1="80.00" y1="480.11" x2="80.00" y2="480.11"/>
    <line x1="80.00" y1="479.51" x2="80.00" y2="479.51"/>
    <line x1="80.00" y1="479.20" x2="80.00" y2="479.20"/>
    <line x1="80.00" y1="478.90" x2="80.00" y2="478.90"/>
    <line x1="80.00" y1="478.60" x2="80.00" y2="478.60"/>
    <line x1="80.00" y1="477.99" x2="80.00" y2="477.99"/>
    <line x1="80.00" y1="477.69" x2="80.00" y2="477.69"/>
    <line x1="80.00" y1="477.39" x2="80.00" y2="477.39"/>
    <line x1="80.00" y1="477.09" x2="80.00" y2="477.09"/>
    <line x1="80.00" y1="476.48" x2="80.00" y2="476.48"/>
    <line x1="80.00" y1="476.18" x2="80.00" y2="476.18"/>
    <line x1="80.00" y1="475.88" x2="80.00" y2="475.88"/>
    <line x1="80.00" y1="475.58" x2="80.00" y2="475.58"/>
    <line x1="80.00" y1="474.97" x2="80.00" y2="474.97"/>
    <line x1="80.00" y1="474.67" x2="80.00" y2="474.67"/>
    <line x1="80.00" y1="474.37" x2="80.00" y2="474.37"/>
    <line x1="80.00" y1="474.07" x2="80.00" y2="474.07"/>
    <line x1="80.00" y1="473.46" x2="80.00" y2="473.46"/>
    <line x1="80.00" y1="473.16" x2="80.00" y2="473.16"/>
    <line x1="80.00" y1="472.86" x2="80.00" y2="472.86"/>
    <line x1="80.00" y1="472.56" x2="80.00" y2="472.56"/>
    <line x1="80.00" y1="471.95" x2="80.00" y2="471.95"/>
    <line x1="80.00" y1="471.65" x2="80.00" y2="471.65"/>
    <line x1="80.00" y1="471.35" x2="80.00" y2="471.35"/>
    <line x1="80.00" y1="471.04" x2="80.00" y2="471.04"/>
    <line x1="80.00" y1="470.44" x2="80.00" y2="470.44"/>
    <line x1="80.00" y1="470.14" x2="80.00" y2="470.14"/>
    <line x1="80.00" y1="469.84" x2="80.00" y2="469.84"/>
    <line x1="80.00" y1="469.53" x2="80.00" y2="469.53"/>
    <line x1="80.00" y1="468.93" x2="80.00" y2="468.93"/>
    <line x1="80.00" y1="468.63" x2="80.00" y2="468.63"/>
    <line x1="80.00" y1="468.32" x2="80.00" y2="468.32"/>
    <line x1="80.00" y1="468.02" x2="80.00" y2="468.02"/>
    <line x1="80.00" y1="467.42" x2="80.00" y2="467.42"/>
    <line x1="80.00" y1="467.12" x2="80.00" y2="467.12"/>
    <line x1="80.00" y1="466.81" x2="80.00" y2="466.81"/>
    <line x1="80.00" y1="466.51" x2="80.00" y2="466.51"/>
    <line x1="80.00" y1="465.91" x2="80.00" y2="465.91"/>
    <line x1="80.00" y1="465.60" x2="80.00" y2="465.60"/>
    <line x1="80.00" y1="465.30" x2="80.00" y2="465.30"/>
    <line x1="80.00" y1="465.00" x2="80.00" y2="465.00"/>
    <line x1="80.00" y1="464.40" x2="80.00" y2="464.40"/>
    <line x1="80.00" y1="464.09" x2="80.00" y2="464.09"/>
    <line x1="80.00" y1="463.79" x2="80.00" y2="463.79"/>
    <line x1="80.00" y1="463.49" x2="80.00" y2="463.49"/>
    <line x1="80.00" y1="462.88" x2="80.00" y2="462.88"/>
    <line x1="80.00" y1="462.58" x2="80.00" y2="462.58"/>
    <line x1="80.00" y1="462.28" x2="80.00" y2="462.28"/>
    <line x1="80.00" y1="461.98" x2="80.00" y2="461.98"/>
    <line x1="80.00" y1="461.37" x2="80.00" y2="461.37"/>
    <line x1="80.00" y1="461.07" x2="80.00" y2="461.07"/>
    <line x1="80.00" y1="460.77" x2="80.00" y2="460.77"/>
    <line x1="80.00" y1="460.47" x2="80.00" y2="460.47"/>
    <line x1="80.00" y1="459.86" x2="80.00" y2="459.86"/>
    <line x1="80.00" y1="459.56" x2="80.00" y2="459.56"/>
    <line x1="80.00" y1="459.26" x2="80.00" y2="459.26"/>
    <line x1="80.00" y1="458.96" x2="80.00" y2="458.96"/>
    <line x1="80.00" y1="458.35" x2="80.00" y2="458.35"/>
    <line x1="80.00" y1="458.05" x2="80.00" y2="458.05"/>
    <line x1="80.00" y1="457.75" x2="80.00" y2="457.75"/>
    <line x1="80.00" y1="457.45" x2="80.00" y2="457.45"/>
    <line x1="80.00" y1="456.84" x2="80.00" y2="456.84"/>
    <line x1="80.00" y1="456.54" x2="80.00" y2="456.54"/>
    <line x1="80.00" y1="456.24" x2="80.00" y2="456.24"/>
    <line x1="80.00" y1="455.93" x2="80.00" y2="455.93"/>
    <line x1="80.00" y1="455.33" x2="80.00" y2="455.33"/>
    <line x1="80.00" y1="455.03" x2="80.00" y2="455.03"/>
    <line x1="80.00" y1="454.73" x2="80.00" y2="454.73"/>
    <line x1="80.00" y1="454.42" x2="80.00" y2="454.42"/>
    <line x1="80.00" y1="453.82" x2="80.00" y2="453.82"/>
    <line x1="80.00" y1="453.52" x2="80.00" y2="453.52"/>
    <line x1="80.00" y1="453.21" x2="80.00" y2="453.21"/>
    <line x1="80.00" y1="452.91" x2="80.00" y2="452.91"/>
    <line x1="80.00" y1="452.31" x2="80.00" y2="452.31"/>
    <line x1="80.00" y1="452.01" x2="80.00" y2="452.01"/>
    <line x1="80.00" y1="451.70" x2="80.00" y2="451.70"/>
    <line x1="80.00" y1="451.40" x2="80.00" y2="451.40"/>
    <line x1="80.00" y1="450.80" x2="80.00" y2="450.80"/>
    <line x1="80.00" y1="450.49" x2="80.00" y2="450.49"/>
    <line x1="80.00" y1="450.19" x2="80.00" y2="450.19"/>
    <line x1="80.00" y1="449.89" x2="80.00" y2="449.89"/>
    <line x1="80.00" y1="449.29" x2="80.00" y2="449.29"/>
    <line x1="80.00" y1="448.98" x2="80.00" y2="448.98"/>
    <line x1="80.00" y1="448.68" x2="80.00" y2="448.68"/>
    <line x1="80.00" y1="448.38" x2="80.00" y2="448.38"/>
    <line x1="80.00" y1="447.77" x2="80.00" y2="447.77"/>
    <line x1="80.00" y1="447.47" x2="80.00" y2="447.47"/>
    <line x1="80.00" y1="447.17" x2="80.00" y2="447.17"/>
    <line x1="80.00" y1="446.87" x2="80.00" y2="446.87"/>
    <line x1="80.00" y1="446.26" x2="80.00" y2="446.26"/>
    <line x1="80.00" y1="445.96" x2="80.00" y2="445.96"/>
    <line x1="80.00" y1="445.66" x2="80.00" y2="445.66"/>
    <line x1="80.00" y1="445.36" x2="80.00" y2="445.36"/>
    <line x1="80.00" y1="444.75" x2="80.00" y2="444.75"/>
    <line x1="80.00" y1="444.45" x2="80.00" y2="444.45"/>
    <line x1="80.00" y1="444.15" x2="80.00" y2="444.15"/>
    <line x1="80.00" y1="443.85" x2="80.00" y2="443.85"/>
    <line x1="80.00" y1="443.24" x2="80.00" y2="443.24"/>
    <line x1="80.00" y1="442.94" x2="80.00" y2="442.94"/>
    <line x1="80.00" y1="442.64" x2="80.00" y2="442.64"/>
    <line x1="80.00" y1="442.34" x2="80.00" y2="442.34"/>
    <line x1="80.00" y1="441.73" x2="80.00" y2="441.73"/>
    <line x1="80.00" y1="441.43" x2="80.00" y2="441.43"/>
    <line x1="80.00" y1="441.13" x2="80.00" y2="441.13"/>
    <line x1="80.00" y1="440.82" x2="80.00" y2="440.82"/>
    <line x1="80.00" y1="440.22" x2="80.00" y2="440.22"/>
    <line x1="80.00" y1="439.92" x2="80.00" y2="439.92"/>
    <line x1="80.00" y1="439.62" x2="80.00" y2="439.62"/>
    <line x1="80.00" y1="439.31" x2="80.00" y2="439.31"/>
    <line x1="80.00" y1="438.71" x2="80.00" y2="438.71"/>
    <line x1="80.00" y1="438.41" x2="80.00" y2="438.41"/>
    <line x1="80.00" y1="438.10" x2="80.00" y2="438.10"/>
    <line x1="80.00" y1="437.80" x2="80.00" y2="437.80"/>
    <line x1="80.00" y1="437.20" x2="80.00" y2="437.20"/>
    <line x1="80.00" y1="436.90" x2="80.00" y2="436.90"/>
    <line x1="80.00" y1="436.59" x2="80.00" y2="436.59"/>
    <line x1="80.00" y1="436.29" x2="80.00" y2="436.29"/>
    <line x1="80.00" y1="435.69" x2="80.00" y2="435.69"/>
    <line x1="80.00" y1="435.38" x2="80.00" y2="435.38"/>
    <line x1="80.00" y1="435.08" x2="80.00" y2="435.08"/>
    <line x1="80.00" y1="434.78" x2="80.00" y2="434.78"/>
    <line x1="80.00" y1="434.18" x2="80.00" y2="434.18"/>
    <line x1="80.00" y1="433.87" x2="80.00" y2="433.87"/>
    <line x1="80.00" y1="433.57" x2="80.00" y2="433.57"/>
    <line x1="80.00" y1="433.27" x2="80.00" y2="433.27"/>
    <line x1="80.00" y1="432.67" x2="80.00" y2="432.67"/>
    <line x1="80.00" y1="432.36" x2="80.00" y2="432.36"/>
    <line x1="80.00" y1="432.06" x2="80.00" y2="432.06"/>
    <line x1="80.00" y1="431.76" x2="80.00" y2="431.76"/>
    <line x1="80.00" y1="431.15" x2="80.00" y2="431.15"/>
    <line x1="80.00" y1="430.85" x2="80.00" y2="430.85"/>
    <line x1="80.00" y1="430.55" x2="80.00" y2="430.55"/>
    <line x1="80.00" y1="430.25" x2="80.00" y2="430.25"/>
    <line x1="80.00" y1="429.64" x2="80.00" y2="429.64"/>
    <line x1="80.00" y1="429.34" x2="80.00" y2="429.34"/>
    <line x1="80.00" y1="429.04" x2="80.00" y2="429.04"/>
    <line x1="80.00" y1="428.74" x2="80.00" y2="428.74"/>
    <line x1="80.00" y1="428.13" x2="80.00" y2="428.13"/>
    <line x1="80.00" y1="427.83" x2="80.00" y2="427.83"/>
    <line x1="80.00" y1="427.53" x2="80.00" y2="427.53"/>
    <line x1="80.00" y1="427.23" x2="80.00" y2="427.23"/>
    <line x1="80.00" y1="426.62" x2="80.00" y2="426.62"/>
    <line x1="80.00" y1="426.32" x2="80.00" y2="426.32"/>
    <line x1="80.00" y1="426.02" x2="80.00" y2="426.02"/>
    <line x1="80.00" y1="425.71" x2="80.00" y2="425.71"/>
    <line x1="80.00" y1="425.11" x2="80.00" y2="425.11"/>
    <line x1="80.00" y1="424.81" x2="80.00" y2="424.81"/>
    <line x1="80.00" y1="424.51" x2="80.00" y2="424.51"/>
    <line x1="80.00" y1="424.20" x2="80.00" y2="424.20"/>
    <line x1="80.00" y1="423.60" x2="80.00" y2="423.60"/>
    <line x1="80.00" y1="423.30" x2="80.00" y2="423.30"/>
    <line x1="80.00" y1="422.99" x2="80.00" y2="422.99"/>
    <line x1="80.00" y1="422.69" x2="80.00" y2="422.69"/>
    <line x1="80.00" y1="422.09" x2="80.00" y2="422.09"/>
    <line x1="80.00" y1="421.79" x2="80.00" y2="421.79"/>
    <line x1="80.00" y1="421.48" x2="80.00" y2="421.48"/>
    <line x1="80.00" y1="421.18" x2="80.00" y2="421.18"/>
    <line x1="80.00" y1="420.58" x2="80.00" y2="420.58"/>
    <line x1="80.00" y1="420.27" x2="80.00" y2="420.27"/>
    <line x1="80.00" y1="419.97" x2="80.00" y2="419.97"/>
    <line x1="80.00" y1="419.67" x2="80.00" y2="419.67"/>
    <line x1="80.00" y1="419.07" x2="80.00" y2="419.07"/>
    <line x1="80.00" y1="418.76" x2="80.00" y2="418.76"/>
    <line x1="80.00" y1="418.46" x2="80.00" y2="418.46"/>
    <line x1="80.00" y1="418.16" x2="80.00" y2="418.16"/>
    <line x1="80.00" y1="417.56" x2="80.00" y2="417.56"/>
    <line x1="80.00" y1="417.25" x2="80.00" y2="417.25"/>
    <line x1="80.00" y1="416.95" x2="80.00" y2="416.95"/>
    <line x1="80.00" y1="416.65" x2="80.00" y2="416.65"/>
    <line x1="80.00" y1="416.04" x2="80.00" y2="416.04"/>
    <line x1="80.00" y1="415.74" x2="80.00" y2="415.74"/>
    <line x1="80.00" y1="415.44" x2="80.00" y2="415.44"/>
    <line x1="80.00" y1="415.14" x2="80.00" y2="415.14"/>
    <line x1="80.00" y1="414.53" x2="80.00" y2="414.53"/>
    <line x1="80.00" y1="414.23" x2="80.00" y2="414.23"/>
    <line x1="80.00" y1="413.93" x2="80.00" y2="413.93"/>
    <line x1="80.00" y1="413.63" x2="80.00" y2="413.63"/>
    <line x1="80.00" y1="413.02" x2="80.00" y2="413.02"/>
    <line x1="80.00" y1="412.72" x2="80.00" y2="412.72"/>
    <line x1="80.00" y1="412.42" x2="80.00" y2="412.42"/>
    <line x1="80.00" y1="412.12" x2="80.00" y2="412.12"/>
    <line x1="80.00" y1="411.51" x2="80.00" y2="411.51"/>
    <line x1="80.00" y1="411.21" x2="80.00" y2="411.21"/>
    <line x1="80.00" y1="410.91" x2="80.00" y2="410.91"/>
    <line x1="80.00" y1="410.60" x2="80.00" y2="410.60"/>
    <line x1="80.00" y1="410.00" x2="80.00" y2="410.00"/>
    <line x1="80.00" y1="409.70" x2="80.00" y2="409.70"/>
    <line x1="80.00" y1="409.40" x2="80.00" y2="409.40"/>
    <line x1="80.00" y1="409.09" x2="80.00" y2="409.09"/>
    <line x1="80.00" y1="408.49" x2="80.00" y2="408.49"/>
    <line x1="80.00" y1="408.19" x2="80.00" y2="408.19"/>
    <line x1="80.00" y1="407.88" x2="80.00" y2="407.88"/>
    <line x1="80.00" y1="407.58" x2="80.00" y2="407.58"/>
    <line x1="80.00" y1="406.98" x2="80.00" y2="406.98"/>
    <line x1="80.00" y1="406.68" x2="80.00" y2="406.68"/>
    <line x1="80.00" y1="406.37" x2="80.00" y2="406.37"/>
    <line x1="80.00" y1="406.07" x2="80.00" y2="406.07"/>
    <line x1="80.00" y1="405.47" x2="80.00" y2="405.47"/>
    <line x1="80.00" y1="405.17" x2="80.00" y2="405.17"/>
    <line x1="80.00" y1="404.86" x2="80.00" y2="404.86"/>
    <line x1="80.00" y1="404.56" x2="80.00" y2="404.56"/>
    <line x1="80.00" y1="403.96" x2="80.00" y2="403.96"/>
    <line x1="80.00" y1="403.65" x2="80.00" y2="403.65"/>
    <line x1="80.00" y1="403.35" x2="80.00" y2="403.35"/>
    <line x1="80.00" y1="403.05" x2="80.00" y2="403.05"/>
    <line x1="80.00" y1="402.45" x2="80.00" y2="402.45"/>
    <line x1="80.00" y1="402.14" x2="80.00" y2="402.14"/>
    <line x1="80.00" y1="401.84" x2="80.00" y2="401.84"/>
    <line x1="80.00" y1="401.54" x2="80.00" y2="401.54"/>
    <line x1="80.00" y1="400.93" x2="80.00" y2="400.93"/>
    <line x1="80.00" y1="400.63" x2="80.00" y2="400.63"/>
    <line x1="80.00" y1="400.33" x2="80.00" y2="400.33"/>
    <line x1="80.00" y1="400.03" x2="80.00" y2="400.03"/>
    <line x1="80.00" y1="399.42" x2="80.00" y2="399.42"/>
    <line x1="80.00" y1="399.12" x2="80.00" y2="399.12"/>
    <line x1="80.00" y1="398.82" x2="80.00" y2="398.82"/>
    <line x1="80.00" y1="398.52" x2="80.00" y2="398.52"/>
    <line x1="80.00" y1="397.91" x2="80.00" y2="397.91"/>
    <line x1="80.00" y1="397.61" x2="80.00" y2="397.61"/>
    <line x1="80.00" y1="397.31" x2="80.00" y2="397.31"/>
    <line x1="80.00" y1="397.01" x2="80.00" y2="397.01"/>
    <line x1="80.00" y1="396.40" x2="80.00" y2="396.40"/>
    <line x1="80.00" y1="396.10" x2="80.00" y2="396.10"/>
    <line x1="80.00" y1="395.80" x2="80.00" y2="395.80"/>
    <line x1="80.00" y1="395.49" x2="80.00" y2="395.49"/>
    <line x1="80.00" y1="394.89" x2="80.00" y2="394.89"/>
    <line x1="80.00" y1="394.59" x2="80.00" y2="394.59"/>
    <line x1="80.00" y1="394.29" x2="80.00" y2="394.29"/>
    <line x1="80.00" y1="393.98" x2="80.00" y2="393.98"/>
    <line x1="80.00" y1="393.38" x2="80.00" y2="393.38"/>
    <line x1="80.00" y1="393.08" x2="80.00" y2="393.08"/>
    <line x1="80.00" y1="392.77" x2="80.00" y2="392.77"/>
    <line x1="80.00" y1="392.47" x2="80.00" y2="392.47"/>
    <line x1="80.00" y1="391.87" x2="80.00" y2="391.87"/>
    <line x1="80.00" y1="391.57" x2="80.00" y2="391.57"/>
    <line x1="80.00" y1="391.26" x2="80.00" y2="391.26"/>
    <line x1="80.00" y1="390.96" x2="80.00" y2="390.96"/>
    <line x1="80.00" y1="390.36" x2="80.00" y2="390.36"/>
    <line x1="80.00" y1="390.06" x2="80.00" y2="390.06"/>
    <line x1="80.00" y1="389.75" x2="80.00" y2="389.75"/>
    <line x1="80.00" y1="389.45" x2="80.00" y2="389.45"/>
    <line x1="80.00" y1="388.85" x2="80.00" y2="388.85"/>
    <line x1="80.00" y1="388.54" x2="80.00" y2="388.54"/>
    <line x1="80.00" y1="388.24" x2="80.00" y2="388.24"/>
    <line x1="80.00" y1="387.94" x2="80.00" y2="387.94"/>
    <line x1="80.00" y1="387.34" x2="80.00" y2="387.34"/>
    <line x1="80.00" y1="387.03" x2="80.00" y2="387.03"/>
    <line x1="80.00" y1="386.73" x2="80.00" y2="386.73"/>
    <line x1="80.00" y1="386.43" x2="80.00" y2="386.43"/>
    <line x1="80.00" y1="385.82" x2="80.00" y2="385.82"/>
    <line x1="80.00" y1="385.52" x2="80.00" y2="385.52"/>
    <line x1="80.00" y1="385.22" x2="80.00" y2="385.22"/>
    <line x1="80.00" y1="384.92" x2="80.00" y2="384.92"/>
    <line x1="80.00" y1="384.31" x2="80.00" y2="384.31"/>
    <line x1="80.00" y1="384.01" x2="80.00" y2="384.01"/>
    <line x1="80.00" y1="383.71" x2="80.00" y2="383.71"/>
    <line x1="80.00" y1="383.41" x2="80.00" y2="383.41"/>
    <line x1="80.00" y1="382.80" x2="80.00" y2="382.80"/>
    <line x1="80.00" y1="382.50" x2="80.00" y2="382.50"/>
    <line x1="80.00" y1="382.20" x2="80.00" y2="382.20"/>
    <line x1="80.00" y1="381.90" x2="80.00" y2="381.90"/>
    <line x1="80.00" y1="381.29" x2="80.00" y2="381.29"/>
    <line x1="80.00" y1="380.99" x2="80.00" y2="380.99"/>
    <line x1="80.00" y1="380.69" x2="80.00" y2="380.69"/>
    <line x1="80.00" y1="380.38" x2="80.00" y2="380.38"/>
    <line x1="80.00" y1="379.78" x2="80.00" y2="379.78"/>
    <line x1="80.00" y1="379.48" x2="80.00" y2="379.48"/>
    <line x1="80.00" y1="379.18" x2="80.00" y2="379.18"/>
    <line x1="80.00" y1="378.87" x2="80.00" y2="378.87"/>
    <line x1="80.00" y1="378.27" x2="80.00" y2="378.27"/>
    <line x1="80.00" y1="377.97" x2="80.00" y2="377.97"/>
    <line x1="80.00" y1="377.66" x2="80.00" y2="377.66"/>
    <line x1="80.00" y1="377.36" x2="80.00" y2="377.36"/>
    <line x1="80.00" y1="376.76" x2="80.00" y2="376.76"/>
    <line x1="80.00" y1="376.46" x2="80.00" y2="376.46"/>
    <line x1="80.00" y1="376.15" x2="80.00" y2="376.15"/>
    <line x1="80.00" y1="375.85" x2="80.00" y2="375.85"/>
    <line x1="80.00" y1="375.25" x2="80.00" y2="375.25"/>
    <line x1="80.00" y1="374.95" x2="80.00" y2="374.95"/>
    <line x1="80.00" y1="374.64" x2="80.00" y2="374.64"/>
    <line x1="80.00" y1="374.34" x2="80.00" y2="374.34"/>
    <line x1="80.00" y1="373.74" x2="80.00" y2="373.74"/>
    <line x1="80.00" y1="373.43" x2="80.00" y2="373.43"/>
    <line x1="80.00" y1="373.13" x2="80.00" y2="373.13"/>
    <line x1="80.00" y1="372.83" x2="80.00" y2="372.83"/>
    <line x1="80.00" y1="372.23" x2="80.00" y2="372.23"/>
    <line x1="80.00" y1="371.92" x2="80.00" y2="371.92"/>
    <line x1="80.00" y1="371.62" x2="80.00" y2="371.62"/>
    <line x1="80.00" y1="371.32" x2="80.00" y2="371.32"/>
    <line x1="80.00" y1="370.71" x2="80.00" y2="370.71"/>
    <line x1="80.00" y1="370.41" x2="80.00" y2="370.41"/>
    <line x1="80.00" y1="370.11" x2="80.00" y2="370.11"/>
    <line x1="80.00" y1="369.81" x2="80.00" y2="369.81"/>
    <line x1="80.00" y1="369.20" x2="80.00" y2="369.20"/>
    <line x1="80.00" y1="368.90" x2="80.00" y2="368.90"/>
    <line x1="80.00" y1="368.60" x2="80.00" y2="368.60"/>
    <line x1="80.00" y1="368.30" x2="80.00" y2="368.30"/>
    <line x1="80.00" y1="367.69" x2="80.00" y2="367.69"/>
    <line x1="80.00" y1="367.39" x2="80.00" y2="367.39"/>
    <line x1="80.00" y1="367.09" x2="80.00" y2="367.09"/>
    <line x1="80.00" y1="366.79" x2="80.00" y2="366.79"/>
    <line x1="80.00" y1="366.18" x2="80.00" y2="366.18"/>
    <line x1="80.00" y1="365.88" x2="80.00" y2="365.88"/>
    <line x1="80.00" y1="365.58" x2="80.00" y2="365.58"/>
    <line x1="80.00" y1="365.27" x2="80.00" y2="365.27"/>
    <line x1="80.00" y1="364.67" x2="80.00" y2="364.67"/>
    <line x1="80.00" y1="364.37" x2="80.00" y2="364.37"/>
    <line x1="80.00" y1="364.07" x2="80.00" y2="364.07"/>
    <line x1="80.00" y1="363.76" x2="80.00" y2="363.76"/>
    <line x1="80.00" y1="363.16" x2="80.00" y2="363.16"/>
    <line x1="80.00" y1="362.86" x2="80.00" y2="362.86"/>
    <line x1="80.00" y1="362.56" x2="80.00" y2="362.56"/>
    <line x1="80.00" y1="362.25" x2="80.00" y2="362.25"/>
    <line x1="80.00" y1="361.65" x2="80.00" y2="361.65"/>
    <line x1="80.00" y1="361.35" x2="80.00" y2="361.35"/>
    <line x1="80.00" y1="361.04" x2="80.00" y2="361.04"/>
    <line x1="80.00" y1="360.74" x2="80.00" y2="360.74"/>
    <line x1="80.00" y1="360.14" x2="80.00" y2="360.14"/>
    <line x1="80.00" y1="359.84" x2="80.00" y2="359.84"/>
    <line x1="80.00" y1="359.53" x2="80.00" y2="359.53"/>
    <line x1="80.00" y1="359.23" x2="80.00" y2="359.23"/>
    <line x1="80.00" y1="358.63" x2="80.00" y2="358.63"/>
    <line x1="80.00" y1="358.32" x2="80.00" y2="358.32"/>
    <line x1="80.00" y1="358.02" x2="80.00" y2="358.02"/>
    <line x1="80.00" y1="357.72" x2="80.00" y2="357.72"/>
    <line x1="80.00" y1="357.12" x2="80.00" y2="357.12"/>
    <line x1="80.00" y1="356.81" x2="80.00" y2="356.81"/>
    <line x1="80.00" y1="356.51" x2="80.00" y2="356.51"/>
    <line x1="80.00" y1="356.21" x2="80.00" y2="356.21"/>
    <line x1="80.00" y1="355.60" x2="80.00" y2="355.60"/>
    <line x1="80.00" y1="355.30" x2="80.00" y2="355.30"/>
    <line x1="80.00" y1="355.00" x2="80.00" y2="355.00"/>
    <line x1="80.00" y1="354.70" x2="80.00" y2="354.70"/>
    <line x1="80.00" y1="354.09" x2="80.00" y2="354.09"/>
    <line x1="80.00" y1="353.79" x2="80.00" y2="353.79"/>
    <line x1="80.00" y1="353.49" x2="80.00" y2="353.49"/>
    <line x1="80.00" y1="353.19" x2="80.00" y2="353.19"/>
    <line x1="80.00" y1="352.58" x2="80.00" y2="352.58"/>
    <line x1="80.00" y1="352.28" x2="80.00" y2="352.28"/>
    <line x1="80.00" y1="351.98" x2="80.00" y2="351.98"/>
    <line x1="80.00" y1="351.68" x2="80.00" y2="351.68"/>
    <line x1="80.00" y1="351.07" x2="80.00" y2="351.07"/>
    <line x1="80.00" y1="350.77" x2="80.00" y2="350.77"/>
    <line x1="80.00" y1="350.47" x2="80.00" y2="350.47"/>
    <line x1="80.00" y1="350.16" x2="80.00" y2="350.16"/>
    <line x1="80.00" y1="349.56" x2="80.00" y2="349.56"/>
    <line x1="80.00" y1="349.26" x2="80.00" y2="349.26"/>
    <line x1="80.00" y1="348.96" x2="80.00" y2="348.96"/>
    <line x1="80.00" y1="348.65" x2="80.00" y2="348.65"/>
    <line x1="80.00" y1="348.05" x2="80.00" y2="348.05"/>
    <line x1="80.00" y1="347.75" x2="80.00" y2="347.75"/>
    <line x1="80.00" y1="347.45" x2="80.00" y2="347.45"/>
    <line x1="80.00" y1="347.14" x2="80.00" y2="347.14"/>
    <line x1="80.00" y1="346.54" x2="80.00" y2="346.54"/>
    <line x1="80.00" y1="346.24" x2="80.00" y2="346.24"/>
    <line x1="80.00" y1="345.93" x2="80.00" y2="345.93"/>
    <line x1="80.00" y1="345.63" x2="80.00" y2="345.63"/>
    <line x1="80.00" y1="345.03" x2="80.00" y2="345.03"/>
    <line x1="80.00" y1="344.73" x2="80.00" y2="344.73"/>
    <line x1="80.00" y1="344.42" x2="80.00" y2="344.42"/>
    <line x1="80.00" y1="344.12" x2="80.00" y2="344.12"/>
    <line x1="80.00" y1="343.52" x2="80.00" y2="343.52"/>
    <line x1="80.00" y1="343.21" x2="80.00" y2="343.21"/>
    <line x1="80.00" y1="342.91" x2="80.00" y2="342.91"/>
    <line x1="80.00" y1="342.61" x2="80.00" y2="342.61"/>
    <line x1="80.00" y1="342.01" x2="80.00" y2="342.01"/>
    <line x1="80.00" y1="341.70" x2="80.00" y2="341.70"/>
    <line x1="80.00" y1="341.40" x2="80.00" y2="341.40"/>
    <line x1="80.00" y1="341.10" x2="80.00" y2="341.10"/>
    <line x1="80.00" y1="340.49" x2="80.00" y2="340.49"/>
    <line x1="80.00" y1="340.19" x2="80.00" y2="340.19"/>
    <line x1="80.00" y1="339.89" x2="80.00" y2="339.89"/>
    <line x1="80.00" y1="339.59" x2="80.00" y2="339.59"/>
    <line x1="80.00" y1="338.98" x2="80.00" y2="338.98"/>
    <line x1="80.00" y1="338.68" x2="80.00" y2="338.68"/>
    <line x1="80.00" y1="338.38" x2="80.00" y2="338.38"/>
    <line x1="80.00" y1="338.08" x2="80.00" y2="338.08"/>
    <line x1="80.00" y1="337.47" x2="80.00" y2="337.47"/>
    <line x1="80.00" y1="337.17" x2="80.00" y2="337.17"/>
    <line x1="80.00" y1="336.87" x2="80.00" y2="336.87"/>
    <line x1="80.00" y1="336.57" x2="80.00" y2="336.57"/>
    <line x1="80.00" y1="335.96" x2="80.00" y2="335.96"/>
    <line x1="80.00" y1="335.66" x2="80.00" y2="335.66"/>
    <line x1="80.00" y1="335.36" x2="80.00" y2="335.36"/>
    <line x1="80.00" y1="335.06" x2="80.00" y2="335.06"/>
    <line x1="80.00" y1="334.45" x2="80.00" y2="334.45"/>
    <line x1="80.00" y1="334.15" x2="80.00" y2="334.15"/>
    <line x1="80.00" y1="333.85" x2="80.00" y2="333.85"/>
    <line x1="80.00" y1="333.54" x2="80.00" y2="333.54"/>
    <line x1="80.00" y1="332.94" x2="80.00" y2="332.94"/>
    <line x1="80.00" y1="332.64" x2="80.00" y2="332.64"/>
    <line x1="80.00" y1="332.34" x2="80.00" y2="332.34"/>
    <line x1="80.00" y1="332.03" x2="80.00" y2="332.03"/>
    <line x1="80.00" y1="331.43" x2="80.00" y2="331.43"/>
    <line x1="80.00" y1="331.13" x2="80.00" y2="331.13"/>
    <line x1="80.00" y1="330.82" x2="80.00" y2="330.82"/>
    <line x1="80.00" y1="330.52" x2="80.00" y2="330.52"/>
    <line x1="80.00" y1="329.92" x2="80.00" y2="329.92"/>
    <line x1="80.00" y1="329.62" x2="80.00" y2="329.62"/>
    <line x1="80.00" y1="329.31" x2="80.00" y2="329.31"/>
    <line x1="80.00" y1="329.01" x2="80.00" y2="329.01"/>
    <line x1="80.00" y1="328.41" x2="80.00" y2="328.41"/>
    <line x1="80.00" y1="328.10" x2="80.00" y2="328.10"/>
    <line x1="80.00" y1="327.80" x2="80.00" y2="327.80"/>
    <line x1="80.00" y1="327.50" x2="80.00" y2="327.50"/>
    <line x1="80.00" y1="326.90" x2="80.00" y2="326.90"/>
    <line x1="80.00" y1="326.59" x2="80.00" y2="326.59"/>
    <line x1="80.00" y1="326.29" x2="80.00" y2="326.29"/>
    <line x1="80.00" y1="325.99" x2="80.00" y2="325.99"/>
    <line x1="80.00" y1="325.38" x2="80.00" y2="325.38"/>
    <line x1="80.00" y1="325.08" x2="80.00" y2="325.08"/>
    <line x1="80.00" y1="324.78" x2="80.00" y2="324.78"/>
    <line x1="80.00" y1="324.48" x2="80.00" y2="324.48"/>
    <line x1="80.00" y1="323.87" x2="80.00" y2="323.87"/>
    <line x1="80.00" y1="323.57" x2="80.00" y2="323.57"/>
    <line x1="80.00" y1="323.27" x2="80.00" y2="323.27"/>
    <line x1="80.00" y1="322.97" x2="80.00" y2="322.97"/>
    <line x1="80.00" y1="322.36" x2="80.00" y2="322.36"/>
    <line x1="80.00" y1="322.06" x2="80.00" y2="322.06"/>
    <line x1="80.00" y1="321.76" x2="80.00" y2="321.76"/>
    <line x1="80.00" y1="321.46" x2="80.00" y2="321.46"/>
    <line x1="80.00" y1="320.85" x2="80.00" y2="320.85"/>
    <line x1="80.00" y1="320.55" x2="80.00" y2="320.55"/>
    <line x1="80.00" y1="320.25" x2="80.00" y2="320.25"/>
    <line x1="80.00" y1="319.95" x2="80.00" y2="319.95"/>
    <line x1="80.00" y1="319.34" x2="80.00" y2="319.34"/>
    <line x1="80.00" y1="319.04" x2="80.00" y2="319.04"/>
    <line x1="80.00" y1="318.74" x2="80.00" y2="318.74"/>
    <line x1="80.00" y1="318.43" x2="80.00" y2="318.43"/>
    <line x1="80.00" y1="317.83" x2="80.00" y2="317.83"/>
    <line x1="80.00" y1="317.53" x2="80.00" y2="317.53"/>
    <line x1="80.00" y1="317.23" x2="80.00" y2="317.23"/>
    <line x1="80.00" y1="316.92" x2="80.00" y2="316.92"/>
    <line x1="80.00" y1="316.32" x2="80.00" y2="316.32"/>
    <line x1="80.00" y1="316.02" x2="80.00" y2="316.02"/>
    <line x1="80.00" y1="315.71" x2="80.00" y2="315.71"/>
    <line x1="80.00" y1="315.41" x2="80.00" y2="315.41"/>
    <line x1="80.00" y1="314.81" x2="80.00" y2="314.81"/>
    <line x1="80.00" y1="314.51" x2="80.00" y2="314.51"/>
    <line x1="80.00" y1="314.20" x2="80.00" y2="314.20"/>
    <line x1="80.00" y1="313.90" x2="80.00" y2="313.90"/>
    <line x1="80.00" y1="313.30" x2="80.00" y2="313.30"/>
    <line x1="80.00" y1="312.99" x2="80.00" y2="312.99"/>
    <line x1="80.00" y1="312.69" x2="80.00" y2="312.69"/>
    <line x1="80.00" y1="312.39" x2="80.00" y2="312.39"/>
    <line x1="80.00" y1="311.79" x2="80.00" y2="311.79"/>
    <line x1="80.00" y1="311.48" x2="80.00" y2="311.48"/>
    <line x1="80.00" y1="311.18" x2="80.00" y2="311.18"/>
    <line x1="80.00" y1="310.88" x2="80.00" y2="310.88"/>
    <line x1="80.00" y1="310.27" x2="80.00" y2="310.27"/>
    <line x1="80.00" y1="309.97" x2="80.00" y2="309.97"/>
    <line x1="80.00" y1="309.67" x2="80.00" y2="309.67"/>
    <line x1="80.00" y1="309.37" x2="80.00" y2="309.37"/>
    <line x1="80.00" y1="308.76" x2="80.00" y2="308.76"/>
    <line x1="80.00" y1="308.46" x2="80.00" y2="308.46"/>
    <line x1="80.00" y1="308.16" x2="80.00" y2="308.16"/>
    <line x1="80.00" y1="307.86" x2="80.00" y2="307.86"/>
    <line x1="80.00" y1="307.25" x2="80.00" y2="307.25"/>
    <line x1="80.00" y1="306.95" x2="80.00" y2="306.95"/>
    <line x1="80.00" y1="306.65" x2="80.00" y2="306.65"/>
    <line x1="80.00" y1="306.35" x2="80.00" y2="306.35"/>
    <line x1="80.00" y1="305.74" x2="80.00" y2="305.74"/>
    <line x1="80.00" y1="305.44" x2="80.00" y2="305.44"/>
    <line x1="80.00" y1="305.14" x2="80.00" y2="305.14"/>
    <line x1="80.00" y1="304.84" x2="80.00" y2="304.84"/>
    <line x1="80.00" y1="304.23" x2="80.00" y2="304.23"/>
    <line x1="80.00" y1="303.93" x2="80.00" y2="303.93"/>
    <line x1="80.00" y1="303.63" x2="80.00" y2="303.63"/>
    <line x1="80.00" y1="303.32" x2="80.00" y2="303.32"/>
    <line x1="80.00" y1="302.72" x2="80.00" y2="302.72"/>
    <line x1="80.00" y1="302.42" x2="80.00" y2="302.42"/>
    <line x1="80.00" y1="302.12" x2="80.00" y2="302.12"/>
    <line x1="80.00" y1="301.81" x2="80.00" y2="301.81"/>
    <line x1="80.00" y1="301.21" x2="80.00" y2="301.21"/>
    <line x1="80.00" y1="300.91" x2="80.00" y2="300.91"/>
    <line x1="80.00" y1="300.60" x2="80.00" y2="300.60"/>
    <line x1="80.00" y1="300.30" x2="80.00" y2="300.30"/>
    <line x1="80.00" y1="299.70" x2="80.00" y2="299.70"/>
    <line x1="80.00" y1="299.40" x2="80.00" y2="299.40"/>
    <line x1="80.00" y1="299.09" x2="80.00" y2="299.09"/>
    <line x1="80.00" y1="298.79" x2="80.00" y2="298.79"/>
    <line x1="80.00" y1="298.19" x2="80.00" y2="298.19"/>
    <line x1="80.00" y1="297.88" x2="80.00" y2="297.88"/>
    <line x1="80.00" y1="297.58" x2="80.00" y2="297.58"/>
    <line x1="80.00" y1="297.28" x2="80.00" y2="297.28"/>
    <line x1="80.00" y1="296.68" x2="80.00" y2="296.68"/>
    <line x1="80.00" y1="296.37" x2="80.00" y2="296.37"/>
    <line x1="80.00" y1="296.07" x2="80.00" y2="296.07"/>
    <line x1="80.00" y1="295.77" x2="80.00" y2="295.77"/>
    <line x1="80.00" y1="295.16" x2="80.00" y2="295.16"/>
    <line x1="80.00" y1="294.86" x2="80.00" y2="294.86"/>
    <line x1="80.00" y1="294.56" x2="80.00" y2="294.56"/>
    <line x1="80.00" y1="294.26" x2="80.00" y2="294.26"/>
    <line x1="80.00" y1="293.65" x2="80.00" y2="293.65"/>
    <line x1="80.00" y1="293.35" x2="80.00" y2="293.35"/>
    <line x1="80.00" y1="293.05" x2="80.00" y2="293.05"/>
    <line x1="80.00" y1="292.75" x2="80.00" y2="292.75"/>
    <line x1="80.00" y1="292.14" x2="80.00" y2="292.14"/>
    <line x1="80.00" y1="291.84" x2="80.00" y2="291.84"/>
    <line x1="80.00" y1="291.54" x2="80.00" y2="291.54"/>
    <line x1="80.00" y1="291.24" x2="80.00" y2="291.24"/>
    <line x1="80.00" y1="290.63" x2="80.00" y2="290.63"/>
    <line x1="80.00" y1="290.33" x2="80.00" y2="290.33"/>
    <line x1="80.00" y1="290.03" x2="80.00" y2="290.03"/>
    <line x1="80.00" y1="289.73" x2="80.00" y2="289.73"/>
    <line x1="80.00" y1="289.12" x2="80.00" y2="289.12"/>
    <line x1="80.00" y1="288.82" x2="80.00" y2="288.82"/>
    <line x1="80.00" y1="288.52" x2="80.00" y2="288.52"/>
    <line x1="80.00" y1="288.21" x2="80.00" y2="288.21"/>
    <line x1="80.00" y1="287.61" x2="80.00" y2="287.61"/>
    <line x1="80.00" y1="287.31" x2="80.00" y2="287.31"/>
    <line x1="80.00" y1="287.01" x2="80.00" y2="287.01"/>
    <line x1="80.00" y1="286.70" x2="80.00" y2="286.70"/>
    <line x1="80.00" y1="286.10" x2="80.00" y2="286.10"/>
    <line x1="80.00" y1="285.80" x2="80.00" y2="285.80"/>
    <line x1="80.00" y1="285.49" x2="80.00" y2="285.49"/>
    <line x1="80.00" y1="285.19" x2="80.00" y2="285.19"/>
    <line x1="80.00" y1="284.59" x2="80.00" y2="284.59"/>
    <line x1="80.00" y1="284.29" x2="80.00" y2="284.29"/>
    <line x1="80.00" y1="283.98" x2="80.00" y2="283.98"/>
    <line x1="80.00" y1="283.68" x2="80.00" y2="283.68"/>
    <line x1="80.00" y1="283.08" x2="80.00" y2="283.08"/>
    <line x1="80.00" y1="282.77" x2="80.00" y2="282.77"/>
    <line x1="80.00" y1="282.47" x2="80.00" y2="282.47"/>
    <line x1="80.00" y1="282.17" x2="80.00" y2="282.17"/>
    <line x1="80.00" y1="281.57" x2="80.00" y2="281.57"/>
    <line x1="80.00" y1="281.26" x2="80.00" y2="281.26"/>
    <line x1="80.00" y1="280.96" x2="80.00" y2="280.96"/>
    <line x1="80.00" y1="280.66" x2="80.00" y2="280.66"/>
    <line x1="80.00" y1="280.05" x2="80.00" y2="280.05"/>
    <line x1="80.00" y1="279.75" x2="80.00" y2="279.75"/>
    <line x1="80.00" y1="279.45" x2="80.00" y2="279.45"/>
    <line x1="80.00" y1="279.15" x2="80.00" y2="279.15"/>
    <line x1="80.00" y1="278.54" x2="80.00" y2="278.54"/>
    <line x1="80.00" y1="278.24" x2="80.00" y2="278.24"/>
    <line x1="80.00" y1="277.94" x2="80.00" y2="277.94"/>
    <line x1="80.00" y1="277.64" x2="80.00" y2="277.64"/>
    <line x1="80.00" y1="277.03" x2="80.00" y2="277.03"/>
    <line x1="80.00" y1="276.73" x2="80.00" y2="276.73"/>
    <line x1="80.00" y1="276.43" x2="80.00" y2="276.43"/>
    <line x1="80.00" y1="276.13" x2="80.00" y2="276.13"/>
    <line x1="80.00" y1="275.52" x2="80.00" y2="275.52"/>
    <line x1="80.00" y1="275.22" x2="80.00" y2="275.22"/>
    <line x1="80.00" y1="274.92" x2="80.00" y2="274.92"/>
    <line x1="80.00" y1="274.62" x2="80.00" y2="274.62"/>
    <line x1="80.00" y1="274.01" x2="80.00" y2="274.01"/>
    <line x1="80.00" y1="273.71" x2="80.00" y2="273.71"/>
    <line x1="80.00" y1="273.41" x2="80.00" y2="273.41"/>
    <line x1="80.00" y1="273.10" x2="80.00" y2="273.10"/>
    <line x1="80.00" y1="272.50" x2="80.00" y2="272.50"/>
    <line x1="80.00" y1="272.20" x2="80.00" y2="272.20"/>
    <line x1="80.00" y1="271.90" x2="80.00" y2="271.90"/>
    <line x1="80.00" y1="271.59" x2="80.00" y2="271.59"/>
    <line x1="80.00" y1="270.99" x2="80.00" y2="270.99"/>
    <line x1="80.00" y1="270.69" x2="80.00" y2="270.69"/>
    <line x1="80.00" y1="270.38" x2="80.00" y2="270.38"/>
    <line x1="80.00" y1="270.08" x2="80.00" y2="270.08"/>
    <line x1="80.00" y1="269.48" x2="80.00" y2="269.48"/>
    <line x1="80.00" y1="269.18" x2="80.00" y2="269.18"/>
    <line x1="80.00" y1="268.87" x2="80.00" y2="268.87"/>
    <line x1="80.00" y1="268.57" x2="80.00" y2="268.57"/>
    <line x1="80.00" y1="267.97" x2="80.00" y2="267.97"/>
    <line x1="80.00" y1="267.66" x2="80.00" y2="267.66"/>
    <line x1="80.00" y1="267.36" x2="80.00" y2="267.36"/>
    <line x1="80.00" y1="267.06" x2="80.00" y2="267.06"/>
    <line x1="80.00" y1="266.46" x2="80.00" y2="266.46"/>
    <line x1="80.00" y1="266.15" x2="80.00" y2="266.15"/>
    <line x1="80.00" y1="265.85" x2="80.00" y2="265.85"/>
    <line x1="80.00" y1="265.55" x2="80.00" y2="265.55"/>
    <line x1="80.00" y1="264.94" x2="80.00" y2="264.94"/>
    <line x1="80.00" y1="264.64" x2="80.00" y2="264.64"/>
    <line x1="80.00" y1="264.34" x2="80.00" y2="264.34"/>
    <line x1="80.00" y1="264.04" x2="80.00" y2="264.04"/>
    <line x1="80.00" y1="263.43" x2="80.00" y2="263.43"/>
    <line x1="80.00" y1="263.13" x2="80.00" y2="263.13"/>
    <line x1="80.00" y1="262.83" x2="80.00" y2="262.83"/>
    <line x1="80.00" y1="262.53" x2="80.00" y2="262.53"/>
    <line x1="80.00" y1="261.92" x2="80.00" y2="261.92"/>
    <line x1="80.00" y1="261.62" x2="80.00" y2="261.62"/>
    <line x1="80.00" y1="261.32" x2="80.00" y2="261.32"/>
    <line x1="80.00" y1="261.02" x2="80.00" y2="261.02"/>
    <line x1="80.00" y1="260.41" x2="80.00" y2="260.41"/>
    <line x1="80.00" y1="260.11" x2="80.00" y2="260.11"/>
    <line x1="80.00" y1="259.81" x2="80.00" y2="259.81"/>
    <line x1="80.00" y1="259.51" x2="80.00" y2="259.51"/>
    <line x1="80.00" y1="258.90" x2="80.00" y2="258.90"/>
    <line x1="80.00" y1="258.60" x2="80.00" y2="258.60"/>
    <line x1="80.00" y1="258.30" x2="80.00" y2="258.30"/>
    <line x1="80.00" y1="257.99" x2="80.00" y2="257.99"/>
    <line x1="80.00" y1="257.39" x2="80.00" y2="257.39"/>
    <line x1="80.00" y1="257.09" x2="80.00" y2="257.09"/>
    <line x1="80.00" y1="256.79" x2="80.00" y2="256.79"/>
    <line x1="80.00" y1="256.48" x2="80.00" y2="256.48"/>
    <line x1="80.00" y1="255.88" x2="80.00" y2="255.88"/>
    <line x1="80.00" y1="255.58" x2="80.00" y2="255.58"/>
    <line x1="80.00" y1="255.27" x2="80.00" y2="255.27"/>
    <line x1="80.00" y1="254.97" x2="80.00" y2="254.97"/>
    <line x1="80.00" y1="254.37" x2="80.00" y2="254.37"/>
    <line x1="80.00" y1="254.07" x2="80.00" y2="254.07"/>
    <line x1="80.00" y1="253.76" x2="80.00" y2="253.76"/>
    <line x1="80.00" y1="253.46" x2="80.00" y2="253.46"/>
    <line x1="80.00" y1="252.86" x2="80.00" y2="252.86"/>
    <line x1="80.00" y1="252.55" x2="80.00" y2="252.55"/>
    <line x1="80.00" y1="252.25" x2="80.00" y2="252.25"/>
    <line x1="80.00" y1="251.95" x2="80.00" y2="251.95"/>
    <line x1="80.00" y1="251.35" x2="80.00" y2="251.35"/>
    <line x1="80.00" y1="251.04" x2="80.00" y2="251.04"/>
    <line x1="80.00" y1="250.74" x2="80.00" y2="250.74"/>
    <line x1="80.00" y1="250.44" x2="80.00" y2="250.44"/>
    <line x1="80.00" y1="249.84" x2="80.00" y2="249.84"/>
    <line x1="80.00" y1="249.53" x2="80.00" y2="249.53"/>
    <line x1="80.00" y1="249.23" x2="80.00" y2="249.23"/>
    <line x1="80.00" y1="248.93" x2="80.00" y2="248.93"/>
    <line x1="80.00" y1="248.32" x2="80.00" y2="248.32"/>
    <line x1="80.00" y1="248.02" x2="80.00" y2="248.02"/>
    <line x1="80.00" y1="247.72" x2="80.00" y2="247.72"/>
    <line x1="80.00" y1="247.42" x2="80.00" y2="247.42"/>
    <line x1="80.00" y1="246.81" x2="80.00" y2="246.81"/>
    <line x1="80.00" y1="246.51" x2="80.00" y2="246.51"/>
    <line x1="80.00" y1="246.21" x2="80.00" y2="246.21"/>
    <line x1="80.00" y1="245.91" x2="80.00" y2="245.91"/>
    <line x1="80.00" y1="245.30" x2="80.00" y2="245.30"/>
    <line x1="80.00" y1="245.00" x2="80.00" y2="245.00"/>
    <line x1="80.00" y1="244.70" x2="80.00" y2="244.70"/>
    <line x1="80.00" y1="244.40" x2="80.00" y2="244.40"/>
    <line x1="80.00" y1="243.79" x2="80.00" y2="243.79"/>
    <line x1="80.00" y1="243.49" x2="80.00" y2="243.49"/>
    <line x1="80.00" y1="243.19" x2="80.00" y2="243.19"/>
    <line x1="80.00" y1="242.88" x2="80.00" y2="242.88"/>
    <line x1="80.00" y1="242.28" x2="80.00" y2="242.28"/>
    <line x1="80.00" y1="241.98" x2="80.00" y2="241.98"/>
    <line x1="80.00" y1="241.68" x2="80.00" y2="241.68"/>
    <line x1="80.00" y1="241.37" x2="80.00" y2="241.37"/>
    <line x1="80.00" y1="240.77" x2="80.00" y2="240.77"/>
    <line x1="80.00" y1="240.47" x2="80.00" y2="240.47"/>
    <line x1="80.00" y1="240.16" x2="80.00" y2="240.16"/>
    <line x1="80.00" y1="239.86" x2="80.00" y2="239.86"/>
    <line x1="80.00" y1="239.26" x2="80.00" y2="239.26"/>
    <line x1="80.00" y1="238.96" x2="80.00" y2="238.96"/>
    <line x1="80.00" y1="238.65" x2="80.00" y2="238.65"/>
    <line x1="80.00" y1="238.35" x2="80.00" y2="238.35"/>
    <line x1="80.00" y1="237.75" x2="80.00" y2="237.75"/>
    <line x1="80.00" y1="237.44" x2="80.00" y2="237.44"/>
    <line x1="80.00" y1="237.14" x2="80.00" y2="237.14"/>
    <line x1="80.00" y1="236.84" x2="80.00" y2="236.84"/>
    <line x1="80.00" y1="236.24" x2="80.00" y2="236.24"/>
    <line x1="80.00" y1="235.93" x2="80.00" y2="235.93"/>
    <line x1="80.00" y1="235.63" x2="80.00" y2="235.63"/>
    <line x1="80.00" y1="235.33" x2="80.00" y2="235.33"/>
    <line x1="80.00" y1="234.73" x2="80.00" y2="234.73"/>
    <line x1="80.00" y1="234.42" x2="80.00" y2="234.42"/>
    <line x1="80.00" y1="234.12" x2="80.00" y2="234.12"/>
    <line x1="80.00" y1="233.82" x2="80.00" y2="233.82"/>
    <line x1="80.00" y1="233.21" x2="80.00" y2="233.21"/>
    <line x1="80.00" y1="232.91" x2="80.00" y2="232.91"/>
    <line x1="80.00" y1="232.61" x2="80.00" y2="232.61"/>
    <line x1="80.00" y1="232.31" x2="80.00" y2="232.31"/>
    <line x1="80.00" y1="231.70" x2="80.00" y2="231.70"/>
    <line x1="80.00" y1="231.40" x2="80.00" y2="231.40"/>
    <line x1="80.00" y1="231.10" x2="80.00" y2="231.10"/>
    <line x1="80.00" y1="230.80" x2="80.00" y2="230.80"/>
    <line x1="80.00" y1="230.19" x2="80.00" y2="230.19"/>
    <line x1="80.00" y1="229.89" x2="80.00" y2="229.89"/>
    <line x1="80.00" y1="229.59" x2="80.00" y2="229.59"/>
    <line x1="80.00" y1="229.29" x2="80.00" y2="229.29"/>
    <line x1="80.00" y1="228.68" x2="80.00" y2="228.68"/>
    <line x1="80.00" y1="228.38" x2="80.00" y2="228.38"/>
    <line x1="80.00" y1="228.08" x2="80.00" y2="228.08"/>
    <line x1="80.00" y1="227.77" x2="80.00" y2="227.77"/>
    <line x1="80.00" y1="227.17" x2="80.00" y2="227.17"/>
    <line x1="80.00" y1="226.87" x2="80.00" y2="226.87"/>
    <line x1="80.00" y1="226.57" x2="80.00" y2="226.57"/>
    <line x1="80.00" y1="226.26" x2="80.00" y2="226.26"/>
    <line x1="80.00" y1="225.66" x2="80.00" y2="225.66"/>
    <line x1="80.00" y1="225.36" x2="80.00" y2="225.36"/>
    <line x1="80.00" y1="225.05" x2="80.00" y2="225.05"/>
    <line x1="80.00" y1="224.75" x2="80.00" y2="224.75"/>
    <line x1="80.00" y1="224.15" x2="80.00" y2="224.15"/>
    <line x1="80.00" y1="223.85" x2="80.00" y2="223.85"/>
    <line x1="80.00" y1="223.54" x2="80.00" y2="223.54"/>
    <line x1="80.00" y1="223.24" x2="80.00" y2="223.24"/>
    <line x1="80.00" y1="222.64" x2="80.00" y2="222.64"/>
    <line x1="80.00" y1="222.34" x2="80.00" y2="222.34"/>
    <line x1="80.00" y1="222.03" x2="80.00" y2="222.03"/>
    <line x1="80.00" y1="221.73" x2="80.00" y2="221.73"/>
    <line x1="80.00" y1="221.13" x2="80.00" y2="221.13"/>
    <line x1="80.00" y1="220.82" x2="80.00" y2="220.82"/>
    <line x1="80.00" y1="220.52" x2="80.00" y2="220.52"/>
    <line x1="80.00" y1="220.22" x2="80.00" y2="220.22"/>
    <line x1="80.00" y1="219.62" x2="80.00" y2="219.62"/>
    <line x1="80.00" y1="219.31" x2="80.00" y2="219.31"/>
    <line x1="80.00" y1="219.01" x2="80.00" y2="219.01"/>
    <line x1="80.00" y1="218.71" x2="80.00" y2="218.71"/>
    <line x1="80.00" y1="218.10" x2="80.00" y2="218.10"/>
    <line x1="80.00" y1="217.80" x2="80.00" y2="217.80"/>
    <line x1="80.00" y1="217.50" x2="80.00" y2="217.50"/>
    <line x1="80.00" y1="217.20" x2="80.00" y2="217.20"/>
    <line x1="80.00" y1="216.59" x2="80.00" y2="216.59"/>
    <line x1="80.00" y1="216.29" x2="80.00" y2="216.29"/>
    <line x1="80.00" y1="215.99" x2="80.00" y2="215.99"/>
    <line x1="80.00" y1="215.69" x2="80.00" y2="215.69"/>
    <line x1="80.00" y1="215.08" x2="80.00" y2="215.08"/>
    <line x1="80.00" y1="214.78" x2="80.00" y2="214.78"/>
    <line x1="80.00" y1="214.48" x2="80.00" y2="214.48"/>
    <line x1="80.00" y1="214.18" x2="80.00" y2="214.18"/>
    <line x1="80.00" y1="213.57" x2="80.00" y2="213.57"/>
    <line x1="80.00" y1="213.27" x2="80.00" y2="213.27"/>
    <line x1="80.00" y1="212.97" x2="80.00" y2="212.97"/>
    <line x1="80.00" y1="212.66" x2="80.00" y2="212.66"/>
    <line x1="80.00" y1="212.06" x2="80.00" y2="212.06"/>
    <line x1="80.00" y1="211.76" x2="80.00" y2="211.76"/>
    <line x1="80.00" y1="211.46" x2="80.00" y2="211.46"/>
    <line x1="80.00" y1="211.15" x2="80.00" y2="211.15"/>
    <line x1="80.00" y1="210.55" x2="80.00" y2="210.55"/>
    <line x1="80.00" y1="210.25" x2="80.00" y2="210.25"/>
    <line x1="80.00" y1="209.94" x2="80.00" y2="209.94"/>
    <line x1="80.00" y1="209.64" x2="80.00" y2="209.64"/>
    <line x1="80.00" y1="209.04" x2="80.00" y2="209.04"/>
    <line x1="80.00" y1="208.74" x2="80.00" y2="208.74"/>
    <line x1="80.00" y1="208.43" x2="80.00" y2="208.43"/>
    <line x1="80.00" y1="208.13" x2="80.00" y2="208.13"/>
    <line x1="80.00" y1="207.53" x2="80.00" y2="207.53"/>
    <line x1="80.00" y1="207.23" x2="80.00" y2="207.23"/>
    <line x1="80.00" y1="206.92" x2="80.00" y2="206.92"/>
    <line x1="80.00" y1="206.62" x2="80.00" y2="206.62"/>
    <line x1="80.00" y1="206.02" x2="80.00" y2="206.02"/>
    <line x1="80.00" y1="205.71" x2="80.00" y2="205.71"/>
    <line x1="80.00" y1="205.41" x2="80.00" y2="205.41"/>
    <line x1="80.00" y1="205.11" x2="80.00" y2="205.11"/>
    <line x1="80.00" y1="204.51" x2="80.00" y2="204.51"/>
    <line x1="80.00" y1="204.20" x2="80.00" y2="204.20"/>
    <line x1="80.00" y1="203.90" x2="80.00" y2="203.90"/>
    <line x1="80.00" y1="203.60" x2="80.00" y2="203.60"/>
    <line x1="80.00" y1="202.99" x2="80.00" y2="202.99"/>
    <line x1="80.00" y1="202.69" x2="80.00" y2="202.69"/>
    <line x1="80.00" y1="202.39" x2="80.00" y2="202.39"/>
    <line x1="80.00" y1="202.09" x2="80.00" y2="202.09"/>
    <line x1="80.00" y1="201.48" x2="80.00" y2="201.48"/>
    <line x1="80.00" y1="201.18" x2="80.00" y2="201.18"/>
    <line x1="80.00" y1="200.88" x2="80.00" y2="200.88"/>
    <line x1="80.00" y1="200.58" x2="80.00" y2="200.58"/>
    <line x1="80.00" y1="199.97" x2="80.00" y2="199.97"/>
    <line x1="80.00" y1="199.67" x2="80.00" y2="199.67"/>
    <line x1="80.00" y1="199.37" x2="80.00" y2="199.37"/>
    <line x1="80.00" y1="199.07" x2="80.00" y2="199.07"/>
    <line x1="80.00" y1="198.46" x2="80.00" y2="198.46"/>
    <line x1="80.00" y1="198.16" x2="80.00" y2="198.16"/>
    <line x1="80.00" y1="197.86" x2="80.00" y2="197.86"/>
    <line x1="80.00" y1="197.55" x2="80.00" y2="197.55"/>
    <line x1="80.00" y1="196.95" x2="80.00" y2="196.95"/>
    <line x1="80.00" y1="196.65" x2="80.00" y2="196.65"/>
    <line x1="80.00" y1="196.35" x2="80.00" y2="196.35"/>
    <line x1="80.00" y1="196.04" x2="80.00" y2="196.04"/>
    <line x1="80.00" y1="195.44" x2="80.00" y2="195.44"/>
    <line x1="80.00" y1="195.14" x2="80.00" y2="195.14"/>
    <line x1="80.00" y1="194.83" x2="80.00" y2="194.83"/>
    <line x1="80.00" y1="194.53" x2="80.00" y2="194.53"/>
    <line x1="80.00" y1="193.93" x2="80.00" y2="193.93"/>
    <line x1="80.00" y1="193.63" x2="80.00" y2="193.63"/>
    <line x1="80.00" y1="193.32" x2="80.00" y2="193.32"/>
    <line x1="80.00" y1="193.02" x2="80.00" y2="193.02"/>
    <line x1="80.00" y1="192.42" x2="80.00" y2="192.42"/>
    <line x1="80.00" y1="192.12" x2="80.00" y2="192.12"/>
    <line x1="80.00" y1="191.81" x2="80.00" y2="191.81"/>
    <line x1="80.00" y1="191.51" x2="80.00" y2="191.51"/>
    <line x1="80.00" y1="190.91" x2="80.00" y2="190.91"/>
    <line x1="80.00" y1="190.60" x2="80.00" y2="190.60"/>
    <line x1="80.00" y1="190.30" x2="80.00" y2="190.30"/>
    <line x1="80.00" y1="190.00" x2="80.00" y2="190.00"/>
    <line x1="80.00" y1="189.40" x2="80.00" y2="189.40"/>
    <line x1="80.00" y1="189.09" x2="80.00" y2="189.09"/>
    <line x1="80.00" y1="188.79" x2="80.00" y2="188.79"/>
    <line x1="80.00" y1="188.49" x2="80.00" y2="188.49"/>
    <line x1="80.00" y1="187.88" x2="80.00" y2="187.88"/>
    <line x1="80.00" y1="187.58" x2="80.00" y2="187.58"/>
    <line x1="80.00" y1="187.28" x2="80.00" y2="187.28"/>
    <line x1="80.00" y1="186.98" x2="80.00" y2="186.98"/>
    <line x1="80.00" y1="186.37" x2="80.00" y2="186.37"/>
    <line x1="80.00" y1="186.07" x2="80.00" y2="186.07"/>
    <line x1="80.00" y1="185.77" x2="80.00" y2="185.77"/>
    <line x1="80.00" y1="185.47" x2="80.00" y2="185.47"/>
    <line x1="80.00" y1="184.86" x2="80.00" y2="184.86"/>
    <line x1="80.00" y1="184.56" x2="80.00" y2="184.56"/>
    <line x1="80.00" y1="184.26" x2="80.00" y2="184.26"/>
    <line x1="80.00" y1="183.96" x2="80.00" y2="183.96"/>
    <line x1="80.00" y1="183.35" x2="80.00" y2="183.35"/>
    <line x1="80.00" y1="183.05" x2="80.00" y2="183.05"/>
    <line x1="80.00" y1="182.75" x2="80.00" y2="182.75"/>
    <line x1="80.00" y1="182.44" x2="80.00" y2="182.44"/>
    <line x1="80.00" y1="181.84" x2="80.00" y2="181.84"/>
    <line x1="80.00" y1="181.54" x2="80.00" y2="181.54"/>
    <line x1="80.00" y1="181.24" x2="80.00" y2="181.24"/>
    <line x1="80.00" y1="180.93" x2="80.00" y2="180.93"/>
    <line x1="80.00" y1="180.33" x2="80.00" y2="180.33"/>
    <line x1="80.00" y1="180.03" x2="80.00" y2="180.03"/>
    <line x1="80.00" y1="179.73" x2="80.00" y2="179.73"/>
    <line x1="80.00" y1="179.42" x2="80.00" y2="179.42"/>
    <line x1="80.00" y1="178.82" x2="80.00" y2="178.82"/>
    <line x1="80.00" y1="178.52" x2="80.00" y2="178.52"/>
    <line x1="80.00" y1="178.21" x2="80.00" y2="178.21"/>
    <line x1="80.00" y1="177.91" x2="80.00" y2="177.91"/>
    <line x1="80.00" y1="177.31" x2="80.00" y2="177.31"/>
    <line x1="80.00" y1="177.01" x2="80.00" y2="177.01"/>
    <line x1="80.00" y1="176.70" x2="80.00" y2="176.70"/>
    <line x1="80.00" y1="176.40" x2="80.00" y2="176.40"/>
    <line x1="80.00" y1="175.80" x2="80.00" y2="175.80"/>
    <line x1="80.00" y1="175.49" x2="80.00" y2="175.49"/>
    <line x1="80.00" y1="175.19" x2="80.00" y2="175.19"/>
    <line x1="80.00" y1="174.89" x2="80.00" y2="174.89"/>
    <line x1="80.00" y1="174.29" x2="80.00" y2="174.29"/>
    <line x1="80.00" y1="173.98" x2="80.00" y2="173.98"/>
    <line x1="80.00" y1="173.68" x2="80.00" y2="173.68"/>
    <line x1="80.00" y1="173.38" x2="80.00" y2="173.38"/>
    <line x1="80.00" y1="172.77" x2="80.00" y2="172.77"/>
    <line x1="80.00" y1="172.47" x2="80.00" y2="172.47"/>
    <line x1="80.00" y1="172.17" x2="80.00" y2="172.17"/>
    <line x1="80.00" y1="171.87" x2="80.00" y2="171.87"/>
    <line x1="80.00" y1="171.26" x2="80.00" y2="171.26"/>
    <line x1="80.00" y1="170.96" x2="80.00" y2="170.96"/>
    <line x1="80.00" y1="170.66" x2="80.00" y2="170.66"/>
    <line x1="80.00" y1="170.36" x2="80.00" y2="170.36"/>
    <line x1="80.00" y1="169.75" x2="80.00" y2="169.75"/>
    <line x1="80.00" y1="169.45" x2="80.00" y2="169.45"/>
    <line x1="80.00" y1="169.15" x2="80.00" y2="169.15"/>
    <line x1="80.00" y1="168.85" x2="80.00" y2="168.85"/>
    <line x1="80.00" y1="168.24" x2="80.00" y2="168.24"/>
    <line x1="80.00" y1="167.94" x2="80.00" y2="167.94"/>
    <line x1="80.00" y1="167.64" x2="80.00" y2="167.64"/>
    <line x1="80.00" y1="167.33" x2="80.00" y2="167.33"/>
    <line x1="80.00" y1="166.73" x2="80.00" y2="166.73"/>
    <line x1="80.00" y1="166.43" x2="80.00" y2="166.43"/>
    <line x1="80.00" y1="166.13" x2="80.00" y2="166.13"/>
    <line x1="80.00" y1="165.82" x2="80.00" y2="165.82"/>
    <line x1="80.00" y1="165.22" x2="80.00" y2="165.22"/>
    <line x1="80.00" y1="164.92" x2="80.00" y2="164.92"/>
    <line x1="80.00" y1="164.62" x2="80.00" y2="164.62"/>
    <line x1="80.00" y1="164.31" x2="80.00" y2="164.31"/>
    <line x1="80.00" y1="163.71" x2="80.00" y2="163.71"/>
    <line x1="80.00" y1="163.41" x2="80.00" y2="163.41"/>
    <line x1="80.00" y1="163.10" x2="80.00" y2="163.10"/>
    <line x1="80.00" y1="162.80" x2="80.00" y2="162.80"/>
    <line x1="80.00" y1="162.20" x2="80.00" y2="162.20"/>
    <line x1="80.00" y1="161.90" x2="80.00" y2="161.90"/>
    <line x1="80.00" y1="161.59" x2="80.00" y2="161.59"/>
    <line x1="80.00" y1="161.29" x2="80.00" y2="161.29"/>
    <line x1="80.00" y1="160.69" x2="80.00" y2="160.69"/>
    <line x1="80.00" y1="160.38" x2="80.00" y2="160.38"/>
    <line x1="80.00" y1="160.08" x2="80.00" y2="160.08"/>
    <line x1="80.00" y1="159.78" x2="80.00" y2="159.78"/>
    <line x1="80.00" y1="159.18" x2="80.00" y2="159.18"/>
    <line x1="80.00" y1="158.87" x2="80.00" y2="158.87"/>
    <line x1="80.00" y1="158.57" x2="80.00" y2="158.57"/>
    <line x1="80.00" y1="158.27" x2="80.00" y2="158.27"/>
    <line x1="80.00" y1="157.66" x2="80.00" y2="157.66"/>
    <line x1="80.00" y1="157.36" x2="80.00" y2="157.36"/>
    <line x1="80.00" y1="157.06" x2="80.00" y2="157.06"/>
    <line x1="80.00" y1="156.76" x2="80.00" y2="156.76"/>
    <line x1="80.00" y1="156.15" x2="80.00" y2="156.15"/>
    <line x1="80.00" y1="155.85" x2="80.00" y2="155.85"/>
    <line x1="80.00" y1="155.55" x2="80.00" y2="155.55"/>
    <line x1="80.00" y1="155.25" x2="80.00" y2="155.25"/>
    <line x1="80.00" y1="154.64" x2="80.00" y2="154.64"/>
    <line x1="80.00" y1="154.34" x2="80.00" y2="154.34"/>
    <line x1="80.00" y1="154.04" x2="80.00" y2="154.04"/>
    <line x1="80.00" y1="153.74" x2="80.00" y2="153.74"/>
    <line x1="80.00" y1="153.13" x2="80.00" y2="153.13"/>
    <line x1="80.00" y1="152.83" x2="80.00" y2="152.83"/>
    <line x1="80.00" y1="152.53" x2="80.00" y2="152.53"/>
    <line x1="80.00" y1="152.23" x2="80.00" y2="152.23"/>
    <line x1="80.00" y1="151.62" x2="80.00" y2="151.62"/>
    <line x1="80.00" y1="151.32" x2="80.00" y2="151.32"/>
    <line x1="80.00" y1="151.02" x2="80.00" y2="151.02"/>
    <line x1="80.00" y1="150.71" x2="80.00" y2="150.71"/>
    <line x1="80.00" y1="150.11" x2="80.00" y2="150.11"/>
    <line x1="80.00" y1="149.81" x2="80.00" y2="149.81"/>
    <line x1="80.00" y1="149.51" x2="80.00" y2="149.51"/>
    <line x1="80.00" y1="149.20" x2="80.00" y2="149.20"/>
    <line x1="80.00" y1="148.60" x2="80.00" y2="148.60"/>
    <line x1="80.00" y1="148.30" x2="80.00" y2="148.30"/>
    <line x1="80.00" y1="147.99" x2="80.00" y2="147.99"/>
    <line x1="80.00" y1="147.69" x2="80.00" y2="147.69"/>
    <line x1="80.00" y1="147.09" x2="80.00" y2="147.09"/>
    <line x1="80.00" y1="146.79" x2="80.00" y2="146.79"/>
    <line x1="80.00" y1="146.48" x2="80.00" y2="146.48"/>
    <line x1="80.00" y1="146.18" x2="80.00" y2="146.18"/>
    <line x1="80.00" y1="145.58" x2="80.00" y2="145.58"/>
    <line x1="80.00" y1="145.27" x2="80.00" y2="145.27"/>
    <line x1="80.00" y1="144.97" x2="80.00" y2="144.97"/>
    <line x1="80.00" y1="144.67" x2="80.00" y2="144.67"/>
    <line x1="80.00" y1="144.07" x2="80.00" y2="144.07"/>
    <line x1="80.00" y1="143.76" x2="80.00" y2="143.76"/>
    <line x1="80.00" y1="143.46" x2="80.00" y2="143.46"/>
    <line x1="80.00" y1="143.16" x2="80.00" y2="143.16"/>
    <line x1="80.00" y1="142.55" x2="80.00" y2="142.55"/>
    <line x1="80.00" y1="142.25" x2="80.00" y2="142.25"/>
    <line x1="80.00" y1="141.95" x2="80.00" y2="141.95"/>
    <line x1="80.00" y1="141.65" x2="80.00" y2="141.65"/>
    <line x1="80.00" y1="141.04" x2="80.00" y2="141.04"/>
    <line x1="80.00" y1="140.74" x2="80.00" y2="140.74"/>
    <line x1="80.00" y1="140.44" x2="80.00" y2="140.44"/>
    <line x1="80.00" y1="140.14" x2="80.00" y2="140.14"/>
    <line x1="80.00" y1="139.53" x2="80.00" y2="139.53"/>
    <line x1="80.00" y1="139.23" x2="80.00" y2="139.23"/>
    <line x1="80.00" y1="138.93" x2="80.00" y2="138.93"/>
    <line x1="80.00" y1="138.63" x2="80.00" y2="138.63"/>
    <line x1="80.00" y1="138.02" x2="80.00" y2="138.02"/>
    <line x1="80.00" y1="137.72" x2="80.00" y2="137.72"/>
    <line x1="80.00" y1="137.42" x2="80.00" y2="137.42"/>
    <line x1="80.00" y1="137.12" x2="80.00" y2="137.12"/>
    <line x1="80.00" y1="136.51" x2="80.00" y2="136.51"/>
    <line x1="80.00" y1="136.21" x2="80.00" y2="136.21"/>
    <line x1="80.00" y1="135.91" x2="80.00" y2="135.91"/>
    <line x1="80.00" y1="135.60" x2="80.00" y2="135.60"/>
    <line x1="80.00" y1="135.00" x2="80.00" y2="135.00"/>
    <line x1="80.00" y1="134.70" x2="80.00" y2="134.70"/>
    <line x1="80.00" y1="134.40" x2="80.00" y2="134.40"/>
    <line x1="80.00" y1="134.09" x2="80.00" y2="134.09"/>
    <line x1="80.00" y1="133.49" x2="80.00" y2="133.49"/>
    <line x1="80.00" y1="133.19" x2="80.00" y2="133.19"/>
    <line x1="80.00" y1="132.88" x2="80.00" y2="132.88"/>
    <line x1="80.00" y1="132.58" x2="80.00" y2="132.58"/>
    <line x1="80.00" y1="131.98" x2="80.00" y2="131.98"/>
    <line x1="80.00" y1="131.68" x2="80.00" y2="131.68"/>
    <line x1="80.00" y1="131.37" x2="80.00" y2="131.37"/>
    <line x1="80.00" y1="131.07" x2="80.00" y2="131.07"/>
    <line x1="80.00" y1="130.47" x2="80.00" y2="130.47"/>
    <line x1="80.00" y1="130.16" x2="80.00" y2="130.16"/>
    <line x1="80.00" y1="129.86" x2="80.00" y2="129.86"/>
    <line x1="80.00" y1="129.56" x2="80.00" y2="129.56"/>
    <line x1="80.00" y1="128.96" x2="80.00" y2="128.96"/>
    <line x1="80.00" y1="128.65" x2="80.00" y2="128.65"/>
    <line x1="80.00" y1="128.35" x2="80.00" y2="128.35"/>
    <line x1="80.00" y1="128.05" x2="80.00" y2="128.05"/>
    <line x1="80.00" y1="127.44" x2="80.00" y2="127.44"/>
    <line x1="80.00" y1="127.14" x2="80.00" y2="127.14"/>
    <line x1="80.00" y1="126.84" x2="80.00" y2="126.84"/>
    <line x1="80.00" y1="126.54" x2="80.00" y2="126.54"/>
    <line x1="80.00" y1="125.93" x2="80.00" y2="125.93"/>
    <line x1="80.00" y1="125.63" x2="80.00" y2="125.63"/>
    <line x1="80.00" y1="125.33" x2="80.00" y2="125.33"/>
    <line x1="80.00" y1="125.03" x2="80.00" y2="125.03"/>
    <line x1="80.00" y1="124.42" x2="80.00" y2="124.42"/>
    <line x1="80.00" y1="124.12" x2="80.00" y2="124.12"/>
    <line x1="80.00" y1="123.82" x2="80.00" y2="123.82"/>
    <line x1="80.00" y1="123.52" x2="80.00" y2="123.52"/>
    <line x1="80.00" y1="122.91" x2="80.00" y2="122.91"/>
    <line x1="80.00" y1="122.61" x2="80.00" y2="122.61"/>
    <line x1="80.00" y1="122.31" x2="80.00" y2="122.31"/>
    <line x1="80.00" y1="122.01" x2="80.00" y2="122.01"/>
    <line x1="80.00" y1="121.40" x2="80.00" y2="121.40"/>
    <line x1="80.00" y1="121.10" x2="80.00" y2="121.10"/>
    <line x1="80.00" y1="120.80" x2="80.00" y2="120.80"/>
    <line x1="80.00" y1="120.49" x2="80.00" y2="120.49"/>
    <line x1="80.00" y1="119.89" x2="80.00" y2="119.89"/>
    <line x1="80.00" y1="119.59" x2="80.00" y2="119.59"/>
    <line x1="80.00" y1="119.29" x2="80.00" y2="119.29"/>
    <line x1="80.00" y1="118.98" x2="80.00" y2="118.98"/>
    <line x1="80.00" y1="118.38" x2="80.00" y2="118.38"/>
    <line x1="80.00" y1="118.08" x2="80.00" y2="118.08"/>
    <line x1="80.00" y1="117.77" x2="80.00" y2="117.77"/>
    <line x1="80.00" y1="117.47" x2="80.00" y2="117.47"/>
    <line x1="80.00" y1="116.87" x2="80.00" y2="116.87"/>
    <line x1="80.00" y1="116.57" x2="80.00" y2="116.57"/>
    <line x1="80.00" y1="116.26" x2="80.00" y2="116.26"/>
    <line x1="80.00" y1="115.96" x2="80.00" y2="115.96"/>
    <line x1="80.00" y1="115.36" x2="80.00" y2="115.36"/>
    <line x1="80.00" y1="115.05" x2="80.00" y2="115.05"/>
    <line x1="80.00" y1="114.75" x2="80.00" y2="114.75"/>
    <line x1="80.00" y1="114.45" x2="80.00" y2="114.45"/>
    <line x1="80.00" y1="113.85" x2="80.00" y2="113.85"/>
    <line x1="80.00" y1="113.54" x2="80.00" y2="113.54"/>
    <line x1="80.00" y1="113.24" x2="80.00" y2="113.24"/>
    <line x1="80.00" y1="112.94" x2="80.00" y2="112.94"/>
    <line x1="80.00" y1="112.33" x2="80.00" y2="112.33"/>
    <line x1="80.00" y1="112.03" x2="80.00" y2="112.03"/>
    <line x1="80.00" y1="111.73" x2="80.00" y2="111.73"/>
    <line x1="80.00" y1="111.43" x2="80.00" y2="111.43"/>
    <line x1="80.00" y1="110.82" x2="80.00" y2="110.82"/>
    <line x1="80.00" y1="110.52" x2="80.00" y2="110.52"/>
    <line x1="80.00" y1="110.22" x2="80.00" y2="110.22"/>
    <line x1="80.00" y1="109.92" x2="80.00" y2="109.92"/>
    <line x1="80.00" y1="109.31" x2="80.00" y2="109.31"/>
    <line x1="80.00" y1="109.01" x2="80.00" y2="109.01"/>
    <line x1="80.00" y1="108.71" x2="80.00" y2="108.71"/>
    <line x1="80.00" y1="108.41" x2="80.00" y2="108.41"/>
    <line x1="80.00" y1="107.80" x2="80.00" y2="107.80"/>
    <line x1="80.00" y1="107.50" x2="80.00" y2="107.50"/>
    <line x1="80.00" y1="107.20" x2="80.00" y2="107.20"/>
    <line x1="80.00" y1="106.90" x2="80.00" y2="106.90"/>
    <line x1="80.00" y1="106.29" x2="80.00" y2="106.29"/>
    <line x1="80.00" y1="105.99" x2="80.00" y2="105.99"/>
    <line x1="80.00" y1="105.69" x2="80.00" y2="105.69"/>
    <line x1="80.00" y1="105.38" x2="80.00" y2="105.38"/>
    <line x1="80.00" y1="104.78" x2="80.00" y2="104.78"/>
    <line x1="80.00" y1="104.48" x2="80.00" y2="104.48"/>
    <line x1="80.00" y1="104.18" x2="80.00" y2="104.18"/>
    <line x1="80.00" y1="103.87" x2="80.00" y2="103.87"/>
    <line x1="80.00" y1="103.27" x2="80.00" y2="103.27"/>
    <line x1="80.00" y1="102.97" x2="80.00" y2="102.97"/>
    <line x1="80.00" y1="102.66" x2="80.00" y2="102.66"/>
    <line x1="80.00" y1="102.36" x2="80.00" y2="102.36"/>
    <line x1="80.00" y1="101.76" x2="80.00" y2="101.76"/>
    <line x1="80.00" y1="101.46" x2="80.00" y2="101.46"/>
    <line x1="80.00" y1="101.15" x2="80.00" y2="101.15"/>
    <line x1="80.00" y1="100.85" x2="80.00" y2="100.85"/>
    <line x1="80.00" y1="100.25" x2="80.00" y2="100.25"/>
    <line x1="80.00" y1="99.94" x2="80.00" y2="99.94"/>
    <line x1="80.00" y1="99.64" x2="80.00" y2="99.64"/>
    <line x1="80.00" y1="99.34" x2="80.00" y2="99.34"/>
    <line x1="80.00" y1="98.74" x2="80.00" y2="98.74"/>
    <line x1="80.00" y1="98.43" x2="80.00" y2="98.43"/>
    <line x1="80.00" y1="98.13" x2="80.00" y2="98.13"/>
    <line x1="80.00" y1="97.83" x2="80.00" y2="97.83"/>
    <line x1="80.00" y1="97.22" x2="80.00" y2="97.22"/>
    <line x1="80.00" y1="96.92" x2="80.00" y2="96.92"/>
    <line x1="80.00" y1="96.62" x2="80.00" y2="96.62"/>
    <line x1="80.00" y1="96.32" x2="80.00" y2="96.32"/>
    <line x1="80.00" y1="95.71" x2="80.00" y2="95.71"/>
    <line x1="80.00" y1="95.41" x2="80.00" y2="95.41"/>
    <line x1="80.00" y1="95.11" x2="80.00" y2="95.11"/>
    <line x1="80.00" y1="94.81" x2="80.00" y2="94.81"/>
    <line x1="80.00" y1="94.20" x2="80.00" y2="94.20"/>
    <line x1="80.00" y1="93.90" x2="80.00" y2="93.90"/>
    <line x1="80.00" y1="93.60" x2="80.00" y2="93.60"/>
    <line x1="80.00" y1="93.30" x2="80.00" y2="93.30"/>
    <line x1="80.00" y1="92.69" x2="80.00" y2="92.69"/>
    <line x1="80.00" y1="92.39" x2="80.00" y2="92.39"/>
    <line x1="80.00" y1="92.09" x2="80.00" y2="92.09"/>
    <line x1="80.00" y1="91.79" x2="80.00" y2="91.79"/>
    <line x1="80.00" y1="91.18" x2="80.00" y2="91.18"/>
    <line x1="80.00" y1="90.88" x2="80.00" y2="90.88"/>
    <line x1="80.00" y1="90.58" x2="80.00" y2="90.58"/>
    <line x1="80.00" y1="90.27" x2="80.00" y2="90.27"/>
    <line x1="80.00" y1="89.67" x2="80.00" y2="89.67"/>
    <line x1="80.00" y1="89.37" x2="80.00" y2="89.37"/>
    <line x1="80.00" y1="89.07" x2="80.00" y2="89.07"/>
    <line x1="80.00" y1="88.76" x2="80.00" y2="88.76"/>
    <line x1="80.00" y1="88.16" x2="80.00" y2="88.16"/>
    <line x1="80.00" y1="87.86" x2="80.00" y2="87.86"/>
    <line x1="80.00" y1="87.55" x2="80.00" y2="87.55"/>
    <line x1="80.00" y1="87.25" x2="80.00" y2="87.25"/>
    <line x1="80.00" y1="86.65" x2="80.00" y2="86.65"/>
    <line x1="80.00" y1="86.35" x2="80.00" y2="86.35"/>
    <line x1="80.00" y1="86.04" x2="80.00" y2="86.04"/>
    <line x1="80.00" y1="85.74" x2="80.00" y2="85.74"/>
    <line x1="80.00" y1="85.14" x2="80.00" y2="85.14"/>
    <line x1="80.00" y1="84.83" x2="80.00" y2="84.83"/>
    <line x1="80.00" y1="84.53" x2="80.00" y2="84.53"/>
    <line x1="80.00" y1="84.23" x2="80.00" y2="84.23"/>
    <line x1="80.00" y1="83.63" x2="80.00" y2="83.63"/>
    <line x1="80.00" y1="83.32" x2="80.00" y2="83.32"/>
    <line x1="80.00" y1="83.02" x2="80.00" y2="83.02"/>
    <line x1="80.00" y1="82.72" x2="80.00" y2="82.72"/>
    <line x1="80.00" y1="82.12" x2="80.00" y2="82.12"/>
    <line x1="80.00" y1="81.81" x2="80.00" y2="81.81"/>
    <line x1="80.00" y1="81.51" x2="80.00" y2="81.51"/>
    <line x1="80.00" y1="81.21" x2="80.00" y2="81.21"/>
    <line x1="80.00" y1="80.60" x2="80.00" y2="80.60"/>
    <line x1="80.00" y1="80.30" x2="80.00" y2="80.30"/>
    <line x1="80.00" y1="80.00" x2="80.00" y2="80.00"/>
    <line x1="80.00" y1="79.70" x2="80.00" y2="79.70"/>
    <line x1="80.00" y1="79.09" x2="80.00" y2="79.09"/>
    <line x1="80.00" y1="78.79" x2="80.00" y2="78.79"/>
    <line x1="80.00" y1="78.49" x2="80.00" y2="78.49"/>
    <line x1="80.00" y1="78.19" x2="80.00" y2="78.19"/>
    <line x1="80.00" y1="77.58" x2="80.00" y2="77.58"/>
    <line x1="80.00" y1="77.28" x2="80.00" y2="77.28"/>
    <line x1="80.00" y1="76.98" x2="80.00" y2="76.98"/>
    <line x1="80.00" y1="76.68" x2="80.00" y2="76.68"/>
    <line x1="80.00" y1="76.07" x2="80.00" y2="76.07"/>
    <line x1="80.00" y1="75.77" x2="80.00" y2="75.77"/>
    <line x1="80.00" y1="75.47" x2="80.00" y2="75.47"/>
    <line x1="80.00" y1="75.16" x2="80.00" y2="75.16"/>
    <line x1="80.00" y1="74.56" x2="80.00" y2="74.56"/>
    <line x1="80.00" y1="74.26" x2="80.00" y2="74.26"/>
    <line x1="80.00" y1="73.96" x2="80.00" y2="73.96"/>
    <line x1="80.00" y1="73.65" x2="80.00" y2="73.65"/>
    <line x1="80.00" y1="73.05" x2="80.00" y2="73.05"/>
    <line x1="80.00" y1="72.75" x2="80.00" y2="72.75"/>
    <line x1="80.00" y1="72.44" x2="80.00" y2="72.44"/>
    <line x1="80.00" y1="72.14" x2="80.00" y2="72.14"/>
    <line x1="80.00" y1="71.54" x2="80.00" y2="71.54"/>
    <line x1="80.00" y1="71.24" x2="80.00" y2="71.24"/>
    <line x1="80.00" y1="70.93" x2="80.00" y2="70.93"/>
    <line x1="80.00" y1="70.63" x2="80.00" y2="70.63"/>
    <line x1="80.00" y1="70.03" x2="80.00" y2="70.03"/>
    <line x1="80.00" y1="69.72" x2="80.00" y2="69.72"/>
    <line x1="80.00" y1="69.42" x2="80.00" y2="69.42"/>
    <line x1="80.00" y1="69.12" x2="80.00" y2="69.12"/>
    <line x1="80.00" y1="68.52" x2="80.00" y2="68.52"/>
    <line x1="80.00" y1="68.21" x2="80.00" y2="68.21"/>
    <line x1="80.00" y1="67.91" x2="80.00" y2="67.91"/>
    <line x1="80.00" y1="67.61" x2="80.00" y2="67.61"/>
    <line x1="80.00" y1="67.01" x2="80.00" y2="67.01"/>
    <line x1="80.00" y1="66.70" x2="80.00" y2="66.70"/>
    <line x1="80.00" y1="66.40" x2="80.00" y2="66.40"/>
    <line x1="80.00" y1="66.10" x2="80.00" y2="66.10"/>
    <line x1="80.00" y1="65.49" x2="80.00" y2="65.49"/>
    <line x1="80.00" y1="65.19" x2="80.00" y2="65.19"/>
    <line x1="80.00" y1="64.89" x2="80.00" y2="64.89"/>
    <line x1="80.00" y1="64.59" x2="80.00" y2="64.59"/>
    <line x1="80.00" y1="63.98" x2="80.00" y2="63.98"/>
    <line x1="80.00" y1="63.68" x2="80.00" y2="63.68"/>
    <line x1="80.00" y1="63.38" x2="80.00" y2="63.38"/>
    <line x1="80.00" y1="63.08" x2="80.00" y2="63.08"/>
    <line x1="80.00" y1="62.47" x2="80.00" y2="62.47"/>
    <line x1="80.00" y1="62.17" x2="80.00" y2="62.17"/>
    <line x1="80.00" y1="61.87" x2="80.00" y2="61.87"/>
    <line x1="80.00" y1="61.57" x2="80.00" y2="61.57"/>
    <line x1="80.00" y1="60.96" x2="80.00" y2="60.96"/>
    <line x1="80.00" y1="60.66" x2="80.00" y2="60.66"/>
    <line x1="80.00" y1="60.36" x2="80.00" y2="60.36"/>
    <line x1="80.00" y1="60.05" x2="80.00" y2="60.05"/>
  </g>
  <g stroke="#808080" stroke-width="2">
    <line x1="-240.00" y1="540.00" x2="-240.00" y2="60.00"/>
  </g>
  <polyline fill="none" stroke="#0066cc" stroke-width="2" points="80.00,300.00 80.00,299.99 80.00,299.98 80.00,299.97 80.00,299.96 80.00,299.95 80.00,299.94 80.00,299.93 80.00,299.92 80.00,299.91 80.00,299.90 80.00,299.89 80.00,299.88 80.00,299.88 80.00,299.87 80.00,299.86 80.00,299.85 80.00,299.84 80.00,299.83 80.00,299.82 80.00,299.81 80.00,299.80 80.00,299.79 80.00,299.77 80.00,299.76 80.00,299.75 80.00,299.74 80.00,299.73 80.00,299.72 80.00,299.71 80.00,299.70 80.00,299.69 80.00,299.68 80.00,299.67 80.00,299.66 80.00,299.64 80.00,299.63 80.00,299.62 80.00,299.61 80.00,299.60 80.00,299.58 80.00,299.57 80.00,299.56 80.00,299.55 80.00,299.53 80.00,299.52 80.00,299.51 80.00,299.49 80.00,299.48 80.00,299.46 80.00,299.45 80.00,299.43 80.00,299.42 80.00,299.40 80.00,299.39 80.00,299.37 80.00,299.36 80.00,299.34 80.00,299.32 80.00,299.31 80.00,299.29 80.00,299.27 80.00,299.25 80.00,299.23 80.00,299.21 80.00,299.19 80.00,299.17 80.00,299.15 80.00,299.13 80.00,299.11 80.00,299.08 80.00,299.06 80.00,299.03 80.00,299.01 80.00,298.98 80.00,298.96 80.00,298.93 80.00,298.90 80.00,298.87 80.00,298.84 80.00,298.80 80.00,298.77 80.00,298.73 80.00,298.70 80.00,298.66 80.00,298.62 80.00,298.58 80.00,298.53 80.00,298.49 80.00,298.44 80.00,298.38 80.00,298.33 80.00,298.27 80.00,298.21 80.00,298.15 80.00,298.08 80.00,298.01 80.00,297.93 80.00,297.84 80.00,297.75 80.00,297.65 80.00,297.55 80.00,297.44 80.00,297.31 80.00,297.17 80.00,297.02 80.00,296.86 80.00,296.68 80.00,296.47 80.00,296.24 80.00,295.98 80.00,295.68 80.00,295.33 80.00,294.93 80.00,294.45 80.00,293.88 80.00,293.17 80.00,292.28 80.00,291.13 80.00,289.58 80.00,287.38 80.00,284.01 80.00,278.19 80.00,265.72 80.00,220.00 80.00,540.00 80.00,348.00 80.00,326.66 80.00,318.45 80.00,314.10 80.00,311.41 80.00,309.58 80.00,308.25 80.00,307.25 80.00,306.46 80.00,305.82 80.00,305.30 80.00,304.86 80.00,304.49 80.00,304.17 80.00,303.89 80.00,303.64 80.00,303.42 80.00,303.23 80.00,303.06 80.00,302.90 80.00,302.76 80.00,302.63 80.00,302.51 80.00,302.40 80.00,302.30 80.00,302.20 80.00,302.11 80.00,302.03 80.00,301.96 80.00,301.89 80.00,301.82 80.00,301.76 80.00,301.70 80.00,301.64 80.00,301.59 80.00,301.54 80.00,301.49 80.00,301.45 80.00,301.40 80.00,301.36 80.00,301.32 80.00,301.28 80.00,301.25 80.00,301.21 80.00,301.18 80.00,301.15 80.00,301.12 80.00,301.09 80.00,301.06 80.00,301.03 80.00,301.00 80.00,300.98 80.00,300.95 80.00,300.93 80.00,300.90 80.00,300.88 80.00,300.86 80.00,300.84 80.00,300.82 80.00,300.80 80.00,300.78 80.00,300.76 80.00,300.74 80.00,300.72 80.00,300.70 80.00,300.69 80.00,300.67 80.00,300.65 80.00,300.63 80.00,300.62 80.00,300.60 80.00,300.59 80.00,300.57 80.00,300.56 80.00,300.54 80.00,300.53 80.00,300.51 80.00,300.50 80.00,300.49 80.00,300.47 80.00,300.46 80.00,300.45 80.00,300.44 80.00,300.42 80.00,300.41 80.00,300.40 80.00,300.39 80.00,300.37 80.00,300.36 80.00,300.35 80.00,300.34 80.00,300.33 80.00,300.32 80.00,300.31 80.00,300.29 80.00,300.28 80.00,300.27 80.00,300.26 80.00,300.25 80.00,300.24 80.00,300.23 80.00,300.22 80.00,300.21 80.00,300.20 80.00,300.19 80.00,300.18 80.00,300.17 80.00,300.16 80.00,300.15 80.00,300.14 80.00,300.13 80.00,300.12 80.00,300.11 80.00,300.10 80.00,300.09 80.00,300.08 80.00,300.07 80.00,300.06 80.00,300.05 80.00,300.04 80.00,300.03 80.00,300.02 80.00,300.01 80.00,300.00 80.00,300.00 80.00,299.99 80.00,299.98 80.00,299.97 80.00,299.96 80.00,299.95 80.00,299.94 80.00,299.93 80.00,299.92 80.00,299.91 80.00,299.90 80.00,299.89 80.00,299.88 80.00,299.87 80.00,299.86 80.00,299.85 80.00,299.84 80.00,299.83 80.00,299.82 80.00,299.81 80.00,299.80 80.00,299.79 80.00,299.78 80.00,299.77 80.00,299.76 80.00,299.75 80.00,299.74 80.00,299.73 80.00,299.72 80.00,299.71 80.00,299.69 80.00,299.68 80.00,299.67 80.00,299.66 80.00,299.65 80.00,299.64 80.00,299.63 80.00,299.61 80.00,299.60 80.00,299.59 80.00,299.58 80.00,299.56 80.00,299.55 80.00,299.54 80.00,299.53 80.00,299.51 80.00,299.50 80.00,299.49 80.00,299.47 80.00,299.46 80.00,299.44 80.00,299.43 80.00,299.41 80.00,299.40 80.00,299.38 80.00,299.37 80.00,299.35 80.00,299.33 80.00,299.31 80.00,299.30 80.00,299.28 80.00,299.26 80.00,299.24 80.00,299.22 80.00,299.20 80.00,299.18 80.00,299.16 80.00,299.14 80.00,299.12 80.00,299.10 80.00,299.07 80.00,299.05 80.00,299.02 80.00,299.00 80.00,298.97 80.00,298.94 80.00,298.91 80.00,298.88 80.00,298.85 80.00,298.82 80.00,298.79 80.00,298.75 80.00,298.72 80.00,298.68 80.00,298.64 80.00,298.60 80.00,298.55 80.00,298.51 80.00,298.46 80.00,298.41 80.00,298.36 80.00,298.30 80.00,298.24 80.00,298.18 80.00,298.11 80.00,298.04 80.00,297.97 80.00,297.89 80.00,297.80 80.00,297.70 80.00,297.60 80.00,297.49 80.00,297.37 80.00,297.24 80.00,297.10 80.00,296.94 80.00,296.77 80.00,296.58 80.00,296.36 80.00,296.11 80.00,295.83 80.00,295.51 80.00,295.14 80.00,294.70 80.00,294.18 80.00,293.54 80.00,292.75 80.00,291.75 80.00,290.42 80.00,288.59 80.00,285.90 80.00,281.55 80.00,273.34 80.00,252.00 80.00,60.00 80.00,380.00 80.00,334.28 80.00,321.81 80.00,315.99 80.00,312.62 80.00,310.42 80.00,308.87 80.00,307.72 80.00,306.83 80.00,306.12 80.00,305.55 80.00,305.07 80.00,304.67 80.00,304.32 80.00,304.02 80.00,303.76 80.00,303.53 80.00,303.32 80.00,303.14 80.00,302.98 80.00,302.83 80.00,302.69 80.00,302.56 80.00,302.45 80.00,302.35 80.00,302.25 80.00,302.16 80.00,302.07 80.00,301.99 80.00,301.92 80.00,301.85 80.00,301.79 80.00,301.73 80.00,301.67 80.00,301.62 80.00,301.56 80.00,301.51 80.00,301.47 80.00,301.42 80.00,301.38 80.00,301.34 80.00,301.30 80.00,301.27 80.00,301.23 80.00,301.20 80.00,301.16 80.00,301.13 80.00,301.10 80.00,301.07 80.00,301.04 80.00,301.02 80.00,300.99 80.00,300.97 80.00,300.94 80.00,300.92 80.00,300.89 80.00,300.87 80.00,300.85 80.00,300.83 80.00,300.81 80.00,300.79 80.00,300.77 80.00,300.75 80.00,300.73 80.00,300.71 80.00,300.69 80.00,300.68 80.00,300.66 80.00,300.64 80.00,300.63 80.00,300.61 80.00,300.60 80.00,300.58 80.00,300.57 80.00,300.55 80.00,300.54 80.00,300.52 80.00,300.51 80.00,300.49 80.00,300.48 80.00,300.47 80.00,300.45 80.00,300.44 80.00,300.43 80.00,300.42 80.00,300.40 80.00,300.39 80.00,300.38 80.00,300.37 80.00,300.36 80.00,300.34 80.00,300.33 80.00,300.32 80.00,300.31 80.00,300.30 80.00,300.29 80.00,300.28 80.00,300.27 80.00,300.26 80.00,300.25 80.00,300.24 80.00,300.23 80.00,300.21 80.00,300.20 80.00,300.19 80.00,300.18 80.00,300.17 80.00,300.16 80.00,300.15 80.00,300.14 80.00,300.13 80.00,300.12 80.00,300.12 80.00,300.11 80.00,300.10 80.00,300.09 80.00,300.08 80.00,300.07 80.00,300.06 80.00,300.05 80.00,300.04 80.00,300.03 80.00,300.02 80.00,300.01 80.00,300.00 "/>
</svg>
