<?xml version="1.0" encoding="UTF-8"?>
<svg xmlns="http://www.w3.org/2000/svg" width="800" height="600">
  <title>R=1-1.5*sin(t)</title>
  <rect width="800" height="600" fill="#ffffff"/>
  <g stroke="#d0d0d0" stroke-width="1">
    <line x1="-19.84" y1="540.00" x2="-19.84" y2="60.00"/>
    <line x1="190.08" y1="540.00" x2="190.08" y2="60.00"/>
    <line x1="400.00" y1="540.00" x2="400.00" y2="60.00"/>
    <line x1="609.92" y1="540.00" x2="609.92" y2="60.00"/>
    <line x1="819.84" y1="540.00" x2="819.84" y2="60.00"/>
    <line x1="80.00" y1="630.00" x2="720.00" y2="630.00"/>
    <line x1="80.00" y1="450.00" x2="720.00" y2="450.00"/>
    <line x1="80.00" y1="270.00" x2="720.00" y2="270.00"/>
    <line x1="80.00" y1="90.00" x2="720.00" y2="90.00"/>
    <line x1="80.00" y1="-90.00" x2="720.00" y2="-90.00"/>
  </g>
  <g stroke="#e8e8e8" stroke-width="0.5">
    <line x1="106.11" y1="540.00" x2="106.11" y2="60.00"/>
    <line x1="148.10" y1="540.00" x2="148.10" y2="60.00"/>
    <line x1="232.07" y1="540.00" x2="232.07" y2="60.00"/>
    <line x1="274.05" y1="540.00" x2="274.05" y2="60.00"/>
    <line x1="316.03" y1="540.00" x2="316.03" y2="60.00"/>
    <line x1="358.02" y1="540.00" x2="358.02" y2="60.00"/>
    <line x1="441.98" y1="540.00" x2="441.98" y2="60.00"/>
    <line x1="483.97" y1="540.00" x2="483.97" y2="60.00"/>
    <line x1="525.95" y1="540.00" x2="525.95" y2="60.00"/>
    <line x1="567.93" y1="540.00" x2="567.93" y2="60.00"/>
    <line x1="651.90" y1="540.00" x2="651.90" y2="60.00"/>
    <line x1="693.89" y1="540.00" x2="693.89" y2="60.00"/>
    <line x1="80.00" y1="522.00" x2="720.00" y2="522.00"/>
    <line x1="80.00" y1="486.00" x2="720.00" y2="486.00"/>
    <line x1="80.00" y1="414.00" x2="720.00" y2="414.00"/>
    <line x1="80.00" y1="378.00" x2="720.00" y2="378.00"/>
    <line x1="80.00" y1="342.00" x2="720.00" y2="342.00"/>
    <line x1="80.00" y1="306.00" x2="720.00" y2="306.00"/>
    <line x1="80.00" y1="234.00" x2="720.00" y2="234.00"/>
    <line x1="80.00" y1="198.00" x2="720.00" y2="198.00"/>
    <line x1="80.00" y1="162.00" x2="720.00" y2="162.00"/>
    <line x1="80.00" y1="126.00" x2="720.00" y2="126.00"/>
  </g>
  <g stroke="#808080" stroke-width="2">
    <line x1="400.00" y1="540.00" x2="400.00" y2="60.00"/>
    <line x1="80.00" y1="90.00" x2="720.00" y2="90.00"/>
  </g>
  <polyline fill="none" stroke="#0066cc" stroke-width="2" points="605.95,87.78 601.94,85.65 597.91,83.60 593.85,81.64 589.77,79.76 585.67,77.97 581.55,76.27 577.42,74.65 573.27,73.12 569.11,71.68 564.94,70.32 560.77,69.05 556.59,67.87 552.42,66.77 548.24,65.75 544.07,64.82 539.91,63.97 535.75,63.21 531.61,62.53 527.48,61.93 523.36,61.42 519.26,60.98 515.19,60.63 511.13,60.36 507.10,60.16 503.10,60.04 499.13,60.00 495.19,60.03 491.28,60.14 487.40,60.33 483.57,60.58 479.77,60.91 476.01,61.31 472.30,61.77 468.63,62.31 465.01,62.91 461.44,63.57 457.91,64.30 454.44,65.10 451.02,65.95 447.66,66.86 444.35,67.83 441.10,68.86 437.91,69.94 434.79,71.07 431.72,72.26 428.71,73.49 425.77,74.78 422.90,76.11 420.09,77.48 417.36,78.90 414.68,80.36 412.08,81.86 409.55,83.39 407.09,84.97 404.71,86.57 402.39,88.21 400.15,89.88 397.99,91.58 395.90,93.30 393.88,95.05 391.94,96.83 390.07,98.62 388.28,100.43 386.57,102.26 384.93,104.11 383.38,105.97 381.89,107.84 380.49,109.72 379.16,111.60 377.90,113.50 376.73,115.40 375.63,117.30 374.60,119.20 373.65,121.09 372.78,122.99 371.98,124.88 371.26,126.76 370.60,128.64 370.03,130.50 369.52,132.35 369.08,134.19 368.72,136.01 368.42,137.82 368.20,139.60 368.04,141.37 367.95,143.11 367.93,144.83 367.97,146.52 368.07,148.18 368.24,149.82 368.46,151.43 368.75,153.00 369.10,154.54 369.50,156.05 369.96,157.52 370.48,158.96 371.04,160.35 371.66,161.71 372.33,163.03 373.04,164.30 373.81,165.53 374.61,166.72 375.47,167.86 376.36,168.96 377.29,170.00 378.26,171.00 379.27,171.96 380.31,172.86 381.38,173.71 382.48,174.51 383.61,175.25 384.77,175.95 385.95,176.59 387.16,177.18 388.38,177.71 389.63,178.19 390.89,178.61 392.16,178.98 393.45,179.29 394.75,179.55 396.05,179.74 397.36,179.89 398.68,179.97 400.00,180.00 401.32,179.97 402.64,179.89 403.95,179.74 405.25,179.55 406.55,179.29 407.84,178.98 409.11,178.61 410.37,178.19 411.62,177.71 412.84,177.18 414.05,176.59 415.23,175.95 416.39,175.25 417.52,174.51 418.62,173.71 419.69,172.86 420.73,171.96 421.74,171.00 422.71,170.00 423.64,168.96 424.53,167.86 425.39,166.72 426.19,165.53 426.96,164.30 427.67,163.03 428.34,161.71 428.96,160.35 429.52,158.96 430.04,157.52 430.50,156.05 430.90,154.54 431.25,153.00 431.54,151.43 431.76,149.82 431.93,148.18 432.03,146.52 432.07,144.83 432.05,143.11 431.96,141.37 431.80,139.60 431.58,137.82 431.28,136.01 430.92,134.19 430.48,132.35 429.97,130.50 429.40,128.64 428.74,126.76 428.02,124.88 427.22,122.99 426.35,121.09 425.40,119.20 424.37,117.30 423.27,115.40 422.10,113.50 420.84,111.60 419.51,109.72 418.11,107.84 416.62,105.97 415.07,104.11 413.43,102.26 411.72,100.43 409.93,98.62 408.06,96.83 406.12,95.05 404.10,93.30 402.01,91.58 399.85,89.88 397.61,88.21 395.29,86.57 392.91,84.97 390.45,83.39 387.92,81.86 385.32,80.36 382.64,78.90 379.91,77.48 377.10,76.11 374.23,74.78 371.29,73.49 368.28,72.26 365.21,71.07 362.09,69.94 358.90,68.86 355.65,67.83 352.34,66.86 348.98,65.95 345.56,65.10 342.09,64.30 338.56,63.57 334.99,62.91 331.37,62.31 327.70,61.77 323.99,61.31 320.23,60.91 316.43,60.58 312.60,60.33 308.72,60.14 304.81,60.03 300.87,60.00 296.90,60.04 292.90,60.16 288.87,60.36 284.81,60.63 280.74,60.98 276.64,61.42 272.52,61.93 268.39,62.53 264.25,63.21 260.09,63.97 255.93,64.82 251.76,65.75 247.58,66.77 243.41,67.87 239.23,69.05 235.06,70.32 230.89,71.68 226.73,73.12 222.58,74.65 218.45,76.27 214.33,77.97 210.23,79.76 206.15,81.64 202.09,83.60 198.06,85.65 194.05,87.78 190.08,90.00 186.14,92.30 182.24,94.69 178.37,97.17 174.55,99.73 170.76,102.37 167.03,105.09 163.34,107.90 159.70,110.78 156.11,113.75 152.58,116.80 149.11,119.93 145.70,123.13 142.35,126.42 139.06,129.78 135.84,133.21 132.69,136.72 129.61,140.30 126.61,143.95 123.68,147.67 120.83,151.46 118.06,155.32 115.37,159.25 112.77,163.24 110.25,167.29 107.82,171.41 105.48,175.58 103.23,179.82 101.07,184.11 99.01,188.45 97.05,192.85 95.19,197.30 93.42,201.80 91.76,206.35 90.20,210.95 88.75,215.59 87.41,220.27 86.17,224.99 85.04,229.75 84.02,234.55 83.12,239.38 82.32,244.24 81.65,249.13 81.08,254.05 80.64,259.00 80.31,263.97 80.09,268.96 80.00,273.97 80.03,278.99 80.17,284.03 80.44,289.08 80.83,294.15 81.34,299.21 81.97,304.29 82.73,309.36 83.61,314.44 84.61,319.51 85.73,324.58 86.98,329.65 88.35,334.70 89.85,339.74 91.47,344.77 93.21,349.78 95.07,354.77 97.06,359.74 99.17,364.69 101.41,369.61 103.76,374.50 106.23,379.37 108.83,384.20 111.54,388.99 114.38,393.74 117.33,398.46 120.40,403.13 123.58,407.76 126.88,412.34 130.29,416.87 133.82,421.35 137.46,425.78 141.21,430.15 145.07,434.46 149.03,438.71 153.10,442.90 157.28,447.02 161.56,451.08 165.94,455.07 170.42,458.99 175.00,462.84 179.68,466.61 184.45,470.30 189.31,473.92 194.27,477.46 199.31,480.91 204.44,484.28 209.65,487.57 214.95,490.77 220.33,493.88 225.78,496.90 231.31,499.83 236.92,502.67 242.59,505.41 248.34,508.05 254.15,510.60 260.02,513.05 265.95,515.40 271.95,517.65 278.00,519.79 284.10,521.83 290.26,523.77 296.46,525.61 302.71,527.33 309.00,528.95 315.33,530.46 321.70,531.86 328.10,533.16 334.54,534.34 341.00,535.41 347.49,536.37 354.00,537.22 360.54,537.96 367.09,538.58 373.65,539.09 380.23,539.49 386.81,539.77 393.41,539.94 400.00,540.00 406.59,539.94 413.19,539.77 419.77,539.49 426.35,539.09 432.91,538.58 439.46,537.96 446.00,537.22 452.51,536.37 459.00,535.41 465.46,534.34 471.90,533.16 478.30,531.86 484.67,530.46 491.00,528.95 497.29,527.33 503.54,525.61 509.74,523.77 515.90,521.83 522.00,519.79 528.05,517.65 534.05,515.40 539.98,513.05 545.85,510.60 551.66,508.05 557.41,505.41 563.08,502.67 568.69,499.83 574.22,496.90 579.67,493.88 585.05,490.77 590.35,487.57 595.56,484.28 600.69,480.91 605.73,477.46 610.69,473.92 615.55,470.30 620.32,466.61 625.00,462.84 629.58,458.99 634.06,455.07 638.44,451.08 642.72,447.02 646.90,442.90 650.97,438.71 654.93,434.46 658.79,430.15 662.54,425.78 666.18,421.35 669.71,416.87 673.12,412.34 676.42,407.76 679.60,403.13 682.67,398.46 685.62,393.74 688.46,388.99 691.17,384.20 693.77,379.37 696.24,374.50 698.59,369.61 700.83,364.69 702.94,359.74 704.93,354.77 706.79,349.78 708.53,344.77 710.15,339.74 711.65,334.70 713.02,329.65 714.27,324.58 715.39,319.51 716.39,314.44 717.27,309.36 718.03,304.29 718.66,299.21 719.17,294.15 719.56,289.08 719.83,284.03 719.97,278.99 720.00,273.97 719.91,268.96 719.69,263.97 719.36,259.00 718.92,254.05 718.35,249.13 717.68,244.24 716.88,239.38 715.98,234.55 714.96,229.75 713.83,224.99 712.59,220.27 711.25,215.59 709.80,210.95 708.24,206.35 706.58,201.80 704.81,197.30 702.95,192.85 700.99,188.45 698.93,184.11 696.77,179.82 694.52,175.58 692.18,171.41 689.75,167.29 687.23,163.24 684.63,159.25 681.94,155.32 679.17,151.46 676.32,147.67 673.39,143.95 670.39,140.30 667.31,136.72 664.16,133.21 660.94,129.78 657.65,126.42 654.30,123.13 650.89,119.93 647.42,116.80 643.89,113.75 640.30,110.78 636.66,107.90 632.97,105.09 629.24,102.37 625.45,99.73 621.63,97.17 617.76,94.69 613.86,92.30 609.92,90.00 "/>
</svg>
