<?xml version="1.0" encoding="UTF-8"?>
<svg xmlns="http://www.w3.org/2000/svg" width="800" height="600">
  <title>R=1/t:1/4,3:</title>
  <rect width="800" height="600" fill="#ffffff"/>
  <g stroke="#d0d0d0" stroke-width="1">
    <line x1="-263.33" y1="540.00" x2="-263.33" y2="60.00"/>
    <line x1="254.13" y1="540.00" x2="254.13" y2="60.00"/>
    <line x1="771.58" y1="540.00" x2="771.58" y2="60.00"/>
    <line x1="80.00" y1="876.21" x2="720.00" y2="876.21"/>
    <line x1="80.00" y1="446.70" x2="720.00" y2="446.70"/>
    <line x1="80.00" y1="17.18" x2="720.00" y2="17.18"/>
  </g>
  <g stroke="#e8e8e8" stroke-width="0.5">
    <line x1="150.64" y1="540.00" x2="150.64" y2="60.00"/>
    <line x1="357.62" y1="540.00" x2="357.62" y2="60.00"/>
    <line x1="461.11" y1="540.00" x2="461.11" y2="60.00"/>
    <line x1="564.60" y1="540.00" x2="564.60" y2="60.00"/>
    <line x1="668.09" y1="540.00" x2="668.09" y2="60.00"/>
    <line x1="80.00" y1="532.60" x2="720.00" y2="532.60"/>
    <line x1="80.00" y1="360.79" x2="720.00" y2="360.79"/>
    <line x1="80.00" y1="274.89" x2="720.00" y2="274.89"/>
    <line x1="80.00" y1="188.99" x2="720.00" y2="188.99"/>
    <line x1="80.00" y1="103.09" x2="720.00" y2="103.09"/>
  </g>
  <g stroke="#808080" stroke-width="2">
    <line x1="254.13" y1="540.00" x2="254.13" y2="60.00"/>
    <line x1="80.00" y1="446.70" x2="720.00" y2="446.70"/>
  </g>
  <polyline fill="none" stroke="#0066cc" stroke-width="2" points="720.00,60.00 701.99,61.85 684.61,63.73 667.83,65.65 651.60,67.60 635.90,69.58 620.70,71.60 605.97,73.65 591.69,75.73 577.83,77.85 564.39,80.00 551.32,82.18 538.63,84.39 526.28,86.63 514.28,88.91 502.59,91.21 491.21,93.55 480.13,95.91 469.32,98.30 458.80,100.72 448.53,103.17 438.51,105.64 428.74,108.15 419.20,110.68 409.89,113.23 400.80,115.81 391.92,118.42 383.24,121.05 374.76,123.71 366.47,126.39 358.38,129.09 350.46,131.82 342.72,134.57 335.14,137.35 327.74,140.14 320.50,142.95 313.42,145.79 306.49,148.65 299.71,151.52 293.08,154.42 286.59,157.33 280.25,160.26 274.04,163.21 267.96,166.18 262.02,169.17 256.21,172.17 250.52,175.18 244.96,178.21 239.52,181.26 234.20,184.32 229.00,187.39 223.91,190.48 218.93,193.58 214.07,196.69 209.32,199.81 204.67,202.95 200.13,206.09 195.70,209.25 191.37,212.41 187.14,215.58 183.01,218.76 178.98,221.95 175.05,225.15 171.21,228.35 167.47,231.56 163.82,234.78 160.27,238.00 156.80,241.22 153.43,244.45 150.14,247.69 146.94,250.92 143.83,254.16 140.81,257.40 137.86,260.64 135.01,263.89 132.23,267.13 129.54,270.37 126.93,273.62 124.40,276.86 121.95,280.10 119.58,283.33 117.28,286.57 115.06,289.80 112.92,293.03 110.85,296.25 108.86,299.47 106.94,302.69 105.09,305.90 103.32,309.10 101.61,312.30 99.98,315.48 98.42,318.66 96.92,321.84 95.50,325.00 94.14,328.15 92.85,331.30 91.62,334.43 90.46,337.56 89.37,340.67 88.34,343.77 87.37,346.86 86.47,349.94 85.62,353.00 84.84,356.05 84.13,359.09 83.47,362.11 82.87,365.12 82.33,368.11 81.84,371.09 81.42,374.05 81.05,376.99 80.74,379.92 80.48,382.83 80.28,385.72 80.13,388.60 80.04,391.45 80.00,394.29 80.01,397.11 80.08,399.91 80.19,402.68 80.36,405.44 80.57,408.18 80.84,410.89 81.15,413.59 81.51,416.26 81.92,418.91 82.37,421.53 82.87,424.14 83.42,426.72 84.01,429.27 84.64,431.81 85.32,434.31 86.04,436.80 86.80,439.26 87.60,441.69 88.45,444.10 89.33,446.48 90.26,448.84 91.22,451.17 92.22,453.47 93.26,455.75 94.33,458.00 95.44,460.22 96.59,462.41 97.77,464.58 98.99,466.72 100.24,468.83 101.52,470.91 102.83,472.96 104.18,474.99 105.56,476.98 106.96,478.95 108.40,480.88 109.87,482.79 111.36,484.66 112.88,486.51 114.43,488.33 116.01,490.11 117.61,491.87 119.23,493.59 120.88,495.29 122.56,496.95 124.25,498.58 125.97,500.18 127.72,501.75 129.48,503.29 131.26,504.79 133.06,506.27 134.89,507.71 136.73,509.12 138.59,510.50 140.46,511.85 142.35,513.17 144.26,514.45 146.19,515.71 148.13,516.93 150.08,518.12 152.04,519.27 154.02,520.40 156.02,521.49 158.02,522.55 160.03,523.58 162.06,524.57 164.09,525.54 166.13,526.47 168.19,527.37 170.25,528.24 172.31,529.08 174.39,529.88 176.47,530.66 178.55,531.40 180.64,532.11 182.74,532.79 184.83,533.44 186.94,534.05 189.04,534.64 191.15,535.19 193.25,535.71 195.36,536.21 197.47,536.67 199.58,537.10 201.69,537.50 203.79,537.87 205.90,538.21 208.00,538.52 210.10,538.80 212.19,539.05 214.28,539.27 216.37,539.46 218.45,539.62 220.53,539.75 222.60,539.86 224.66,539.93 226.71,539.98 228.76,540.00 230.80,539.99 232.83,539.95 234.86,539.89 236.87,539.80 238.87,539.68 240.86,539.53 242.84,539.36 244.81,539.16 246.77,538.94 248.71,538.69 250.65,538.41 252.57,538.11 254.47,537.78 256.36,537.43 258.24,537.05 260.10,536.65 261.95,536.23 263.78,535.78 265.60,535.31 267.39,534.81 269.18,534.30 270.94,533.76 272.69,533.19 274.42,532.61 276.13,532.00 277.82,531.38 279.50,530.73 281.15,530.06 282.79,529.37 284.40,528.66 286.00,527.94 287.57,527.19 289.12,526.42 290.66,525.64 292.17,524.83 293.66,524.01 295.13,523.17 296.57,522.32 297.99,521.45 299.40,520.56 300.77,519.65 302.13,518.73 303.46,517.79 304.77,516.84 306.05,515.88 307.31,514.90 308.55,513.90 309.76,512.89 310.95,511.87 312.11,510.84 313.25,509.79 314.36,508.73 315.45,507.66 316.51,506.58 317.55,505.49 318.56,504.38 319.55,503.27 320.51,502.14 321.44,501.01 322.35,499.87 323.23,498.72 324.09,497.56 324.92,496.39 325.72,495.21 326.50,494.03 327.25,492.84 327.98,491.65 328.67,490.44 329.35,489.24 329.99,488.02 330.61,486.81 331.20,485.58 331.77,484.36 332.30,483.12 332.82,481.89 333.30,480.65 333.76,479.41 334.19,478.17 334.60,476.92 334.98,475.68 335.33,474.43 335.66,473.18 335.96,471.93 336.23,470.68 336.48,469.43 336.70,468.18 336.90,466.93 337.07,465.69 337.21,464.44 337.33,463.20 337.43,461.95 337.49,460.72 337.54,459.48 337.55,458.25 337.55,457.02 337.51,455.79 337.46,454.57 337.37,453.35 337.27,452.14 337.14,450.93 336.98,449.73 336.80,448.53 336.60,447.34 336.38,446.16 336.13,444.98 335.85,443.81 335.56,442.65 335.24,441.49 334.90,440.35 334.54,439.21 334.15,438.08 333.75,436.95 333.32,435.84 332.87,434.73 332.40,433.64 331.91,432.56 331.39,431.48 330.86,430.42 330.31,429.36 329.73,428.32 329.14,427.28 328.53,426.26 327.90,425.25 327.25,424.26 326.58,423.27 325.90,422.29 325.19,421.33 324.47,420.38 323.73,419.45 322.97,418.52 322.20,417.61 321.41,416.72 320.61,415.83 319.79,414.96 318.95,414.11 318.10,413.26 317.23,412.44 316.35,411.62 315.46,410.83 314.55,410.04 313.62,409.27 312.69,408.52 311.74,407.78 310.78,407.06 309.81,406.35 308.82,405.66 307.82,404.98 306.82,404.32 305.80,403.67 304.77,403.04 303.73,402.43 302.68,401.83 301.62,401.25 300.55,400.69 299.48,400.14 298.39,399.61 297.30,399.09 296.20,398.60 295.09,398.12 293.98,397.65 292.86,397.20 291.73,396.77 290.60,396.36 289.46,395.96 288.31,395.59 287.16,395.22 286.01,394.88 284.85,394.55 283.69,394.24 282.53,393.94 281.36,393.67 280.19,393.41 279.01,393.17 277.84,392.94 276.66,392.73 275.48,392.54 274.30,392.37 273.13,392.21 271.95,392.07 270.77,391.95 269.59,391.84 268.41,391.75 267.23,391.68 266.05,391.62 264.88,391.59 263.71,391.56 262.54,391.56 261.37,391.57 260.20,391.60 259.04,391.64 257.88,391.70 256.73,391.78 255.58,391.87 254.44,391.98 253.30,392.10 252.16,392.24 251.04,392.40 249.91,392.57 248.80,392.75 247.69,392.96 246.58,393.17 245.49,393.41 244.40,393.65 243.31,393.91 242.24,394.19 241.18,394.48 240.12,394.79 239.07,395.11 238.03,395.44 237.00,395.79 235.98,396.15 234.97,396.53 233.97,396.91 232.98,397.32 232.00,397.73 231.03,398.16 230.07,398.60 229.12,399.05 228.19,399.52 227.26,399.99 226.35,400.48 225.45,400.98 224.56,401.50 223.69,402.02 222.83,402.56 221.98,403.10 221.14,403.66 220.32,404.23 219.51,404.81 218.71,405.39 217.93,405.99 217.16,406.60 216.41,407.22 215.67,407.85 214.94,408.48 214.23,409.13 213.54,409.78 212.86,410.44 212.19,411.11 211.54,411.79 210.90,412.48 210.28,413.17 209.68,413.87 209.09,414.58 208.52,415.29 207.96,416.01 207.42,416.74 206.90,417.47 206.39,418.21 205.90,418.96 205.42,419.71 204.96,420.46 204.52,421.22 204.09,421.99 203.68,422.76 203.29,423.53 202.91,424.31 202.55,425.09 202.21,425.87 201.89,426.66 201.58,427.45 201.29,428.24 201.01,429.04 200.75,429.84 200.51,430.64 200.29,431.44 200.08,432.24 199.89,433.05 199.72,433.86 199.56,434.66 199.42,435.47 199.30,436.28 199.19,437.08 199.10,437.89 199.03,438.70 198.98,439.50 198.94,440.31 198.92,441.11 198.91,441.92 198.92,442.72 198.95,443.52 198.99,444.32 199.05,445.11 199.13,445.91 199.22,446.70 "/>
</svg>
